M48
; DRILL file KiCad 10.0.5 date 2026-08-19T19:39:03
; FORMAT={-:-/ absolute / metric / decimal}
; #@! TF.CreationDate,2026-08-19T19:39:03+02:00
; #@! TF.GenerationSoftware,Kicad,Pcbnew,10.0.5
; #@! TF.FileFunction,Plated,1,2,PTH
FMAT,2
METRIC
; #@! TA.AperFunction,Plated,PTH,ViaDrill
T1C0.200
; #@! TA.AperFunction,Plated,PTH,ViaDrill
T2C0.300
; #@! TA.AperFunction,Plated,PTH,ComponentDrill
T3C0.600
%
G90
G05
T1
X155.826Y-78.507
X155.863Y-82.04
X155.871Y-67.966
X155.886Y-64.441
X155.9Y-61.0
X155.907Y-71.521
X155.927Y-75.069
X156.849Y-86.21
X158.832Y-89.137
X159.7Y-74.71
X160.114Y-56.684
X160.75Y-92.151
X163.047Y-53.63
X164.103Y-96.6
X166.12Y-57.99
X168.125Y-93.689
X168.264Y-54.902
X170.033Y-90.702
X171.565Y-57.989
X172.021Y-87.742
X173.834Y-66.349
X173.863Y-62.868
X173.89Y-69.861
X173.937Y-76.886
X173.993Y-73.308
X174.0Y-83.915
X174.029Y-80.348
T2
X157.9Y-70.6
X157.9Y-71.6
X158.0Y-67.8
X158.0Y-73.3
X158.0Y-75.3
X158.1Y-69.3
X158.1Y-77.1
X158.2Y-79.0
X158.6Y-80.5
X158.6Y-81.9
X159.2Y-60.0
X159.2Y-60.7
X159.2Y-61.3
X159.2Y-61.9
X159.2Y-62.6
X159.2Y-63.3
X159.2Y-64.0
X159.2Y-64.7
X159.5Y-72.3
X160.3Y-59.5
X160.771Y-66.878
X161.0Y-59.5
X161.1Y-88.1
X161.7Y-89.4
X161.96Y-78.5
X162.2Y-90.6
X162.4Y-69.24
X162.4Y-70.04
X162.4Y-70.9
X162.6Y-60.7
X162.6Y-61.4
X162.6Y-62.1
X162.6Y-62.9
X163.0Y-75.6
X163.1Y-88.8
X163.4Y-63.0
X163.5Y-56.4
X163.5Y-92.3
X163.537Y-71.703
X163.7Y-64.2
X163.7Y-90.5
X163.8Y-63.6
X163.8Y-69.24
X163.8Y-70.04
X163.8Y-70.9
X163.9Y-55.4
X164.0Y-76.8
X164.8Y-55.1
X165.0Y-96.7
X165.0Y-97.7
X165.0Y-98.6
X165.1Y-88.8
X165.2Y-69.24
X165.2Y-70.04
X165.2Y-70.915
X165.4Y-66.2
X165.5Y-79.5
X165.6Y-55.4
X165.7Y-92.2
X165.7Y-93.7
X165.8Y-90.6
X165.944Y-82.22
X166.298Y-79.7
X166.4Y-67.2
X166.5Y-73.1
X166.7Y-56.4
X166.9Y-86.1
X167.2Y-90.8
X167.3Y-88.7
X167.4Y-69.2
X168.0Y-89.9
X168.05Y-68.1
X168.2Y-78.2
X168.7Y-88.8
X168.9Y-58.7
X169.5Y-79.3
X170.1Y-59.5
X170.9Y-77.9
X171.0Y-82.1
X171.1Y-80.4
X171.5Y-60.1
T3
G00X160.43Y-82.425
M15
G01X160.43Y-81.325
M16
G05
G00X160.43Y-86.475
M15
G01X160.43Y-85.675
M16
G05
G00X169.07Y-82.425
M15
G01X169.07Y-81.325
M16
G05
G00X169.07Y-86.475
M15
G01X169.07Y-85.675
M16
G05
M30
