%TF.GenerationSoftware,KiCad,Pcbnew,10.0.5*%
%TF.CreationDate,2026-08-19T19:39:00+02:00*%
%TF.ProjectId,Leucht-Ohrringe,4c657563-6874-42d4-9f68-7272696e6765,rev?*%
%TF.SameCoordinates,Original*%
%TF.FileFunction,Copper,L2,Bot*%
%TF.FilePolarity,Positive*%
%FSLAX46Y46*%
G04 Gerber Fmt 4.6, Leading zero omitted, Abs format (unit mm)*
G04 Created by KiCad (PCBNEW 10.0.5) date 2026-08-19 19:39:00*
%MOMM*%
%LPD*%
G01*
G04 APERTURE LIST*
G04 Aperture macros list*
%AMRoundRect*
0 Rectangle with rounded corners*
0 $1 Rounding radius*
0 $2 $3 $4 $5 $6 $7 $8 $9 X,Y pos of 4 corners*
0 Add a 4 corners polygon primitive as box body*
4,1,4,$2,$3,$4,$5,$6,$7,$8,$9,$2,$3,0*
0 Add four circle primitives for the rounded corners*
1,1,$1+$1,$2,$3*
1,1,$1+$1,$4,$5*
1,1,$1+$1,$6,$7*
1,1,$1+$1,$8,$9*
0 Add four rect primitives between the rounded corners*
20,1,$1+$1,$2,$3,$4,$5,0*
20,1,$1+$1,$4,$5,$6,$7,0*
20,1,$1+$1,$6,$7,$8,$9,0*
20,1,$1+$1,$8,$9,$2,$3,0*%
G04 Aperture macros list end*
%TA.AperFunction,Conductor*%
%ADD10C,0.000000*%
%TD*%
%TA.AperFunction,SMDPad,CuDef*%
%ADD11RoundRect,0.250000X1.100000X-0.250000X1.100000X0.250000X-1.100000X0.250000X-1.100000X-0.250000X0*%
%TD*%
%TA.AperFunction,SMDPad,CuDef*%
%ADD12RoundRect,0.150000X0.700000X-0.150000X0.700000X0.150000X-0.700000X0.150000X-0.700000X-0.150000X0*%
%TD*%
%TA.AperFunction,SMDPad,CuDef*%
%ADD13RoundRect,0.150000X0.150000X0.200000X-0.150000X0.200000X-0.150000X-0.200000X0.150000X-0.200000X0*%
%TD*%
%TA.AperFunction,ConnectorPad*%
%ADD14C,0.787400*%
%TD*%
%TA.AperFunction,SMDPad,CuDef*%
%ADD15RoundRect,0.150000X0.150000X0.470000X-0.150000X0.470000X-0.150000X-0.470000X0.150000X-0.470000X0*%
%TD*%
%TA.AperFunction,SMDPad,CuDef*%
%ADD16RoundRect,0.075000X0.075000X0.545000X-0.075000X0.545000X-0.075000X-0.545000X0.075000X-0.545000X0*%
%TD*%
%TA.AperFunction,ComponentPad*%
%ADD17O,1.000000X1.800000*%
%TD*%
%TA.AperFunction,ComponentPad*%
%ADD18O,1.000000X2.100000*%
%TD*%
%TA.AperFunction,SMDPad,CuDef*%
%ADD19RoundRect,0.150000X-0.150000X0.512500X-0.150000X-0.512500X0.150000X-0.512500X0.150000X0.512500X0*%
%TD*%
%TA.AperFunction,ViaPad*%
%ADD20C,0.600000*%
%TD*%
%TA.AperFunction,ViaPad*%
%ADD21C,0.450000*%
%TD*%
%TA.AperFunction,ViaPad*%
%ADD22C,0.400000*%
%TD*%
%TA.AperFunction,Conductor*%
%ADD23C,0.700000*%
%TD*%
%TA.AperFunction,Conductor*%
%ADD24C,0.800000*%
%TD*%
%TA.AperFunction,Conductor*%
%ADD25C,0.600000*%
%TD*%
%TA.AperFunction,Conductor*%
%ADD26C,0.300000*%
%TD*%
%TA.AperFunction,Conductor*%
%ADD27C,0.200000*%
%TD*%
G04 APERTURE END LIST*
D10*
%TA.AperFunction,Conductor*%
%TO.N,+5V*%
G36*
X167490779Y-79000000D02*
G01*
X167490779Y-79728280D01*
X166850255Y-80103251D01*
X166806996Y-79202508D01*
X167385786Y-78797381D01*
X167490779Y-79000000D01*
G37*
%TD.AperFunction*%
%TA.AperFunction,Conductor*%
G36*
X162660000Y-80600000D02*
G01*
X162650000Y-81010000D01*
X162050006Y-80800000D01*
X162022917Y-80592583D01*
X162660000Y-80600000D01*
G37*
%TD.AperFunction*%
%TA.AperFunction,Conductor*%
G36*
X167450255Y-79803251D02*
G01*
X167450255Y-80803251D01*
X166850255Y-80803251D01*
X166850255Y-80103251D01*
X167210786Y-79728311D01*
X167490779Y-79728280D01*
X167450255Y-79803251D01*
G37*
%TD.AperFunction*%
%TD*%
D11*
%TO.P,BT1,MP*%
%TO.N,N/C*%
X170350000Y-70225000D03*
X170350000Y-75175000D03*
D12*
%TO.P,BT1,2,-_2*%
%TO.N,GND*%
X173550000Y-72075000D03*
%TO.P,BT1,1,+_1*%
%TO.N,+BATT*%
X173550000Y-73325000D03*
%TD*%
D13*
%TO.P,D2,1,K_1*%
%TO.N,+5V*%
X167090779Y-79400000D03*
%TO.P,D2,2,A_2*%
%TO.N,GND*%
X168490779Y-79400000D03*
%TD*%
D14*
%TO.P,J1,1,VCC_1*%
%TO.N,unconnected-(J1-VCC-Pad1)*%
X163454809Y-58756990D03*
%TO.P,J1,2,SWDIO_2*%
%TO.N,Net-(J1-SWDIO)*%
X163454809Y-60026990D03*
%TO.P,J1,3,~{RESET}_3*%
%TO.N,Net-(J1-~{RESET})*%
X164724809Y-58756990D03*
%TO.P,J1,4,SWCLK_4*%
%TO.N,Net-(J1-SWCLK)*%
X164724809Y-60026990D03*
%TO.P,J1,5,GND_5*%
%TO.N,GND*%
X165994809Y-58756990D03*
%TO.P,J1,6,SWO_6*%
%TO.N,Net-(J1-SWO)*%
X165994809Y-60026990D03*
%TD*%
D15*
%TO.P,P1,A1,GND_A1*%
%TO.N,GND*%
X167950000Y-81275000D03*
%TO.P,P1,A4,VBUS_A4*%
%TO.N,+5V*%
X167150000Y-81275000D03*
D16*
%TO.P,P1,A5,CC_A5*%
%TO.N,Net-(P1-CC)*%
X166000000Y-81275000D03*
%TO.P,P1,A6,D+_A6*%
%TO.N,/D-*%
X165000000Y-81275000D03*
%TO.P,P1,A7,D-_A7*%
%TO.N,/D+*%
X164500000Y-81275000D03*
%TO.P,P1,A8*%
%TO.N,N/C*%
X163500000Y-81275000D03*
D15*
%TO.P,P1,A9,VBUS_A9*%
%TO.N,+5V*%
X162350000Y-81275000D03*
%TO.P,P1,A12,GND_A12*%
%TO.N,GND*%
X161550000Y-81275000D03*
%TO.P,P1,B1,GND_B1*%
X161550000Y-81275000D03*
%TO.P,P1,B4,VBUS_B4*%
%TO.N,+5V*%
X162350000Y-81275000D03*
D16*
%TO.P,P1,B5,VCONN_B5*%
%TO.N,unconnected-(P1-VCONN-PadB5)*%
X163000000Y-81275000D03*
%TO.P,P1,B6*%
%TO.N,N/C*%
X164000000Y-81275000D03*
%TO.P,P1,B7*%
X165500000Y-81275000D03*
%TO.P,P1,B8*%
X166500000Y-81275000D03*
D15*
%TO.P,P1,B9,VBUS_B9*%
%TO.N,+5V*%
X167150000Y-81275000D03*
%TO.P,P1,B12,GND_B12*%
%TO.N,GND*%
X167950000Y-81275000D03*
D17*
%TO.P,P1,SH,SHIELD_SH*%
X169070000Y-86075000D03*
D18*
X169070000Y-81875000D03*
D17*
X160430000Y-86075000D03*
D18*
X160430000Y-81875000D03*
%TD*%
D19*
%TO.P,U1,3,VOUT_3*%
%TO.N,VDD*%
X160763620Y-70349682D03*
%TO.P,U1,2,SW_2*%
%TO.N,+BATT*%
X161713620Y-68074682D03*
%TO.P,U1,1,GND_1*%
%TO.N,GND*%
X159813620Y-68074682D03*
%TD*%
%TO.P,U2,1,GND_1*%
%TO.N,GND*%
X161010001Y-76782500D03*
%TO.P,U2,2,SW_2*%
%TO.N,+5V*%
X162909999Y-76782500D03*
%TO.P,U2,3,VOUT_3*%
%TO.N,VDD*%
X161960000Y-79057500D03*
%TD*%
D20*
%TO.N,GND*%
X158600000Y-81900000D03*
X158600000Y-80500000D03*
X170900000Y-77900000D03*
X168200000Y-78200000D03*
X169500000Y-79300000D03*
X171100000Y-80400000D03*
X171000000Y-82100000D03*
X166900000Y-86100000D03*
X165100000Y-88800000D03*
X163100000Y-88800000D03*
X167300000Y-88700000D03*
X163700000Y-90500000D03*
X165800000Y-90600000D03*
X161100000Y-88100000D03*
X161700000Y-89400000D03*
X162200000Y-90600000D03*
X163500000Y-92300000D03*
X165700000Y-92200000D03*
X168700000Y-88800000D03*
X168000000Y-89900000D03*
X167200000Y-90800000D03*
X165700000Y-93700000D03*
X165000000Y-98600000D03*
X165000000Y-97700000D03*
X165000000Y-96700000D03*
X164000000Y-76800000D03*
X163000000Y-75600000D03*
X158200000Y-79000000D03*
X158100000Y-77100000D03*
X158000000Y-75300000D03*
X158000000Y-73300000D03*
X157900000Y-71600000D03*
X157900000Y-70600000D03*
X158100000Y-69300000D03*
X158000000Y-67800000D03*
X163500000Y-56400000D03*
X166700000Y-56400000D03*
X168900000Y-58700000D03*
X170100000Y-59500000D03*
X171500000Y-60100000D03*
X165600000Y-55400000D03*
X164800000Y-55100000D03*
X163900000Y-55400000D03*
X163400000Y-63000000D03*
X163800000Y-63600000D03*
X163700000Y-64200000D03*
X159200000Y-64700000D03*
X159200000Y-64000000D03*
X159200000Y-63300000D03*
X159200000Y-62600000D03*
X159200000Y-61900000D03*
X159200000Y-61300000D03*
X159200000Y-60700000D03*
X159200000Y-60000000D03*
X160300000Y-59500000D03*
X161000000Y-59500000D03*
X162600000Y-62900000D03*
X162600000Y-62100000D03*
X162600000Y-61400000D03*
X162600000Y-60700000D03*
%TO.N,VDD*%
X160771228Y-66877763D03*
X161960000Y-78500000D03*
%TO.N,Net-(J1-SWO)*%
X167400000Y-69200000D03*
%TO.N,Net-(J1-~{RESET})*%
X168050000Y-68100000D03*
%TO.N,VDD*%
X159500000Y-72300000D03*
X166500000Y-73100000D03*
%TO.N,GND*%
X162400000Y-70900000D03*
X163800000Y-70900000D03*
%TO.N,/D-*%
X166298152Y-79700321D03*
%TO.N,/D+*%
X165500000Y-79500000D03*
%TO.N,GND*%
X165200000Y-70915000D03*
X165200000Y-70040000D03*
X165200000Y-69240000D03*
X163800000Y-70040000D03*
X163800000Y-69240000D03*
%TO.N,Net-(J1-SWDIO)*%
X165400000Y-66200000D03*
%TO.N,Net-(J1-SWCLK)*%
X166400000Y-67200000D03*
%TO.N,GND*%
X163537500Y-71702500D03*
X162400000Y-70040000D03*
X162400000Y-69240000D03*
D21*
X166120000Y-57990000D03*
%TO.N,+BATT*%
X155825945Y-78507447D03*
X164103109Y-96599728D03*
X173889729Y-69861306D03*
X155900000Y-61000000D03*
X156848833Y-86210434D03*
X171564678Y-57988741D03*
X155862822Y-82039759D03*
X155927117Y-75068603D03*
X173834359Y-66348948D03*
X173992612Y-73307883D03*
X158831936Y-89136880D03*
X172020581Y-87741889D03*
X173863440Y-62868432D03*
X155906546Y-71521381D03*
X160749635Y-92150966D03*
X160114013Y-56683913D03*
X170032513Y-90702129D03*
X155885801Y-64441130D03*
X163046727Y-53629552D03*
X173936667Y-76886171D03*
X155870961Y-67965720D03*
X168263816Y-54902269D03*
X168124619Y-93688543D03*
X174000000Y-83915000D03*
X174028618Y-80348393D03*
%TO.N,VDD*%
X159700000Y-74710000D03*
D22*
%TO.N,Net-(P1-CC)*%
X165944086Y-82220000D03*
%TD*%
%TO.N,VDD*%
D23*
X160562500Y-72300000D02*
X159500000Y-72300000D01*
X160762500Y-74237500D02*
X160762500Y-70100000D01*
%TO.N,+BATT*%
D24*
X174000000Y-83915000D02*
X155877822Y-83915000D01*
X161300000Y-65900000D02*
X155927117Y-65900000D01*
X161900000Y-67888302D02*
X161900000Y-66500000D01*
X161900000Y-66500000D02*
X161300000Y-65900000D01*
X161713620Y-68074682D02*
X161900000Y-67888302D01*
%TO.N,GND*%
D25*
X161030000Y-81275000D02*
X160430000Y-81875000D01*
X161550000Y-81275000D02*
X161030000Y-81275000D01*
X167950000Y-81275000D02*
X168470000Y-81275000D01*
X168470000Y-81275000D02*
X169070000Y-81875000D01*
%TO.N,+BATT*%
D24*
X155877822Y-83915000D02*
X155862822Y-83900000D01*
X155862822Y-83900000D02*
X155862822Y-82039759D01*
%TO.N,GND*%
D23*
X173510000Y-72035000D02*
X167995000Y-72035000D01*
X167995000Y-72035000D02*
X165200000Y-69240000D01*
X173550000Y-72075000D02*
X173510000Y-72035000D01*
%TO.N,+BATT*%
D24*
X174200000Y-69551035D02*
X173889729Y-69861306D01*
X174200000Y-60624063D02*
X174200000Y-69551035D01*
X171564678Y-57988741D02*
X174200000Y-60624063D01*
X172020581Y-87179419D02*
X172020581Y-87741889D01*
X173900000Y-74075000D02*
X173900000Y-85300000D01*
X173900000Y-85300000D02*
X172020581Y-87179419D01*
X173992612Y-73982388D02*
X173900000Y-74075000D01*
X173992612Y-73307883D02*
X173992612Y-73982388D01*
X162298669Y-93700000D02*
X160749635Y-92150966D01*
X164091652Y-93700000D02*
X162298669Y-93700000D01*
X164103109Y-93688543D02*
X164091652Y-93700000D01*
X164103109Y-93688543D02*
X164103109Y-96599728D01*
X167175937Y-53600000D02*
X171564678Y-57988741D01*
X166622960Y-53877040D02*
X166900000Y-53600000D01*
X166900000Y-53600000D02*
X167175937Y-53600000D01*
X163294215Y-53877040D02*
X166622960Y-53877040D01*
X163046727Y-53629552D02*
X163294215Y-53877040D01*
X155900000Y-60776279D02*
X163046727Y-53629552D01*
X155900000Y-61000000D02*
X155900000Y-60776279D01*
X155927117Y-61027117D02*
X155900000Y-61000000D01*
X155927117Y-75068603D02*
X155927117Y-61027117D01*
X155825945Y-75169775D02*
X155927117Y-75068603D01*
X155825945Y-78507447D02*
X155825945Y-75169775D01*
X155862822Y-78544324D02*
X155825945Y-78507447D01*
X155862822Y-82039759D02*
X155862822Y-78544324D01*
X155862822Y-84762822D02*
X155862822Y-83900000D01*
X156848833Y-85748833D02*
X155862822Y-84762822D01*
X156848833Y-86210434D02*
X156848833Y-85748833D01*
X158831936Y-88193537D02*
X156848833Y-86210434D01*
X158831936Y-89136880D02*
X158831936Y-88193537D01*
X160749635Y-91054579D02*
X158831936Y-89136880D01*
X160749635Y-92150966D02*
X160749635Y-91054579D01*
X168124619Y-92610023D02*
X168124619Y-93688543D01*
X170032513Y-90702129D02*
X168124619Y-92610023D01*
X170032513Y-89729957D02*
X170032513Y-90702129D01*
X172020581Y-87741889D02*
X170032513Y-89729957D01*
%TO.N,VDD*%
D23*
X160763620Y-66885371D02*
X160763620Y-70349682D01*
X160771228Y-66877763D02*
X160763620Y-66885371D01*
X161960000Y-78500000D02*
X161960000Y-79057500D01*
%TO.N,Net-(J1-SWO)*%
D26*
X166601799Y-59420000D02*
X165994809Y-60026990D01*
X169200000Y-60900000D02*
X167720000Y-59420000D01*
X169807106Y-60900000D02*
X169200000Y-60900000D01*
X171100000Y-62192894D02*
X169807106Y-60900000D01*
X171100000Y-62800000D02*
X171100000Y-62192894D01*
X171110000Y-62810000D02*
X171100000Y-62800000D01*
X167720000Y-59420000D02*
X166601799Y-59420000D01*
X169114214Y-67200000D02*
X171100000Y-65214213D01*
X168000000Y-67200000D02*
X169114214Y-67200000D01*
X171100000Y-65214213D02*
X171100000Y-65000000D01*
X171110000Y-64990000D02*
X171110000Y-62810000D01*
X167400000Y-67800000D02*
X168000000Y-67200000D01*
X167400000Y-69200000D02*
X167400000Y-67800000D01*
X171100000Y-65000000D02*
X171110000Y-64990000D01*
%TO.N,Net-(J1-~{RESET})*%
X164724809Y-58200215D02*
X164724809Y-58756990D01*
X167600000Y-57400000D02*
X165525024Y-57400000D01*
X168200000Y-58000000D02*
X167600000Y-57400000D01*
X168200000Y-59192894D02*
X168200000Y-58000000D01*
X169407106Y-60400000D02*
X168200000Y-59192894D01*
X170014212Y-60400000D02*
X169407106Y-60400000D01*
X171600000Y-62592894D02*
X171600000Y-61985788D01*
X171610000Y-62602893D02*
X171600000Y-62592894D01*
X171600000Y-61985788D02*
X170014212Y-60400000D01*
X171610000Y-65197106D02*
X171610000Y-62602893D01*
X171600000Y-65207106D02*
X171610000Y-65197106D01*
X171600000Y-65421319D02*
X171600000Y-65207106D01*
X169321321Y-67700000D02*
X171600000Y-65421319D01*
X168300000Y-67700000D02*
X169321321Y-67700000D01*
X168050000Y-67950000D02*
X168300000Y-67700000D01*
X165525024Y-57400000D02*
X164724809Y-58200215D01*
X168050000Y-68100000D02*
X168050000Y-67950000D01*
X167900000Y-68100000D02*
X168050000Y-68100000D01*
%TO.N,VDD*%
D23*
X165362500Y-74237500D02*
X166500000Y-73100000D01*
X160762500Y-74237500D02*
X165362500Y-74237500D01*
%TO.N,Net-(J1-SWDIO)*%
D26*
X163981109Y-60026990D02*
X163454809Y-60026990D01*
X163981109Y-60335041D02*
X163981109Y-60026990D01*
X164416758Y-60770690D02*
X163981109Y-60335041D01*
X164761403Y-60770690D02*
X164416758Y-60770690D01*
X165590000Y-61607107D02*
X165590000Y-61599287D01*
X165590000Y-61599287D02*
X164761403Y-60770690D01*
X165882893Y-61900000D02*
X165590000Y-61607107D01*
X170100000Y-64800000D02*
X170100000Y-62607106D01*
X168700000Y-66200000D02*
X170100000Y-64800000D01*
X169392894Y-61900000D02*
X165882893Y-61900000D01*
X170100000Y-62607106D02*
X169392894Y-61900000D01*
X165400000Y-66200000D02*
X168700000Y-66200000D01*
%TO.N,Net-(J1-SWCLK)*%
X166090000Y-61400000D02*
X166090000Y-61392180D01*
X166090000Y-61392180D02*
X164724809Y-60026990D01*
X169600000Y-61400000D02*
X166090000Y-61400000D01*
X170600000Y-65007107D02*
X170600000Y-62400000D01*
X170600000Y-62400000D02*
X169600000Y-61400000D01*
X166900000Y-66700000D02*
X168907107Y-66700000D01*
X168907107Y-66700000D02*
X170600000Y-65007107D01*
X166400000Y-67200000D02*
X166900000Y-66700000D01*
%TO.N,GND*%
D23*
X163537500Y-71162500D02*
X163800000Y-70900000D01*
X163537500Y-71702500D02*
X163537500Y-71162500D01*
X162415000Y-70915000D02*
X162400000Y-70900000D01*
X165200000Y-70915000D02*
X162415000Y-70915000D01*
X165200000Y-70040000D02*
X162400000Y-70040000D01*
X165200000Y-69240000D02*
X162400000Y-69240000D01*
%TO.N,VDD*%
X160290000Y-74710000D02*
X160762500Y-74237500D01*
X159700000Y-74710000D02*
X160290000Y-74710000D01*
%TO.N,/D+*%
D26*
X165400000Y-79500000D02*
X165500000Y-79600000D01*
X165000000Y-79500000D02*
X165400000Y-79500000D01*
X164500000Y-80000000D02*
X165000000Y-79500000D01*
X164500000Y-81275000D02*
X164500000Y-80000000D01*
%TO.N,/D-*%
X165695000Y-80305000D02*
X166400000Y-79600000D01*
X165246880Y-80305000D02*
X165695000Y-80305000D01*
X165000000Y-80551880D02*
X165246880Y-80305000D01*
X165000000Y-81275000D02*
X165000000Y-80551880D01*
%TO.N,VDD*%
D23*
X161960000Y-76075893D02*
X161960000Y-78500000D01*
X159700000Y-74710000D02*
X160594107Y-74710000D01*
X160594107Y-74710000D02*
X161960000Y-76075893D01*
%TO.N,GND*%
D26*
X165994809Y-58115191D02*
X166120000Y-57990000D01*
X165994809Y-58756990D02*
X165994809Y-58115191D01*
D27*
X166110000Y-58890889D02*
X165999889Y-59001000D01*
D26*
X169070000Y-81875000D02*
X169070000Y-81134644D01*
%TO.N,+5V*%
D23*
X166160000Y-78060000D02*
X167100779Y-79000779D01*
%TO.N,unconnected-(J1-VCC-Pad1)*%
D26*
X163047819Y-58350000D02*
X160850000Y-58350000D01*
X163454809Y-58756990D02*
X163047819Y-58350000D01*
%TO.N,Net-(P1-CC)*%
X166000000Y-82164086D02*
X166000000Y-81275000D01*
X165944086Y-82220000D02*
X166000000Y-82164086D01*
%TO.N,+5V*%
D23*
X162909999Y-76782500D02*
X162909999Y-78060000D01*
X162909999Y-78060000D02*
X162909999Y-79859039D01*
X162909999Y-79859039D02*
X162329072Y-80439966D01*
X162909999Y-78060000D02*
X166160000Y-78060000D01*
%TD*%
%TA.AperFunction,Conductor*%
%TO.N,GND*%
G36*
X160009860Y-84520521D02*
G01*
X160018492Y-84523055D01*
X160077273Y-84560825D01*
X160106302Y-84624379D01*
X160096363Y-84693538D01*
X160056096Y-84742609D01*
X160051943Y-84745604D01*
X160026864Y-84759590D01*
X159956341Y-84788801D01*
X159956323Y-84788809D01*
X159956308Y-84788818D01*
X159792534Y-84898249D01*
X159792533Y-84898250D01*
X159792527Y-84898255D01*
X159653255Y-85037527D01*
X159653250Y-85037533D01*
X159653249Y-85037534D01*
X159543818Y-85201308D01*
X159543808Y-85201325D01*
X159543803Y-85201334D01*
X159468430Y-85383304D01*
X159468421Y-85383343D01*
X159430000Y-85576500D01*
X159430000Y-85576504D01*
X159430000Y-85825000D01*
X160006000Y-85825000D01*
X160073039Y-85844685D01*
X160118794Y-85897489D01*
X160130000Y-85949000D01*
X160130000Y-86201000D01*
X160110315Y-86268039D01*
X160057511Y-86313794D01*
X160006000Y-86325000D01*
X159430000Y-86325000D01*
X159430000Y-86573498D01*
X159468421Y-86766655D01*
X159468430Y-86766694D01*
X159543803Y-86948664D01*
X159543808Y-86948673D01*
X159543818Y-86948690D01*
X159653249Y-87112464D01*
X159653250Y-87112465D01*
X159653255Y-87112471D01*
X159792527Y-87251743D01*
X159792533Y-87251748D01*
X159792537Y-87251751D01*
X159956315Y-87361185D01*
X159956328Y-87361192D01*
X160030318Y-87391839D01*
X160138302Y-87436567D01*
X160138310Y-87436570D01*
X160180000Y-87444862D01*
X160180000Y-86880195D01*
X160199685Y-86813156D01*
X160252489Y-86767401D01*
X160321647Y-86757457D01*
X160336073Y-86760415D01*
X160390504Y-86775000D01*
X160469493Y-86775000D01*
X160469496Y-86775000D01*
X160523910Y-86760420D01*
X160593756Y-86762083D01*
X160651619Y-86801245D01*
X160679123Y-86865473D01*
X160680000Y-86880195D01*
X160680000Y-87444861D01*
X160680000Y-87444862D01*
X160721690Y-87436569D01*
X160721692Y-87436569D01*
X160903671Y-87361192D01*
X160903684Y-87361185D01*
X161067462Y-87251751D01*
X161067466Y-87251748D01*
X161206748Y-87112466D01*
X161206751Y-87112462D01*
X161316185Y-86948684D01*
X161316192Y-86948671D01*
X161391569Y-86766693D01*
X161391572Y-86766681D01*
X161428480Y-86581130D01*
X161429203Y-86578401D01*
X161430000Y-86573493D01*
X161430000Y-86325000D01*
X160854000Y-86325000D01*
X160786961Y-86305315D01*
X160741206Y-86252511D01*
X160730000Y-86201000D01*
X160730000Y-85949000D01*
X160749685Y-85881961D01*
X160802489Y-85836206D01*
X160854000Y-85825000D01*
X161430000Y-85825000D01*
X161430000Y-85576506D01*
X161429909Y-85575768D01*
X161429408Y-85573533D01*
X161391577Y-85383343D01*
X161391576Y-85383342D01*
X161391572Y-85383318D01*
X161391569Y-85383306D01*
X161343938Y-85268313D01*
X161316195Y-85201334D01*
X161316190Y-85201325D01*
X161316185Y-85201315D01*
X161206751Y-85037537D01*
X161206748Y-85037533D01*
X161206743Y-85037527D01*
X161067471Y-84898255D01*
X161067465Y-84898250D01*
X161067464Y-84898249D01*
X160903690Y-84788818D01*
X160903689Y-84788817D01*
X160903684Y-84788814D01*
X160903671Y-84788807D01*
X160836258Y-84760884D01*
X160805910Y-84742880D01*
X160802073Y-84739788D01*
X160798902Y-84737233D01*
X160759052Y-84679845D01*
X160756554Y-84610020D01*
X160792202Y-84549929D01*
X160848198Y-84519999D01*
X160853185Y-84518821D01*
X160881691Y-84515500D01*
X168614933Y-84515500D01*
X168649860Y-84520521D01*
X168658492Y-84523055D01*
X168717273Y-84560825D01*
X168746302Y-84624379D01*
X168736363Y-84693538D01*
X168696096Y-84742609D01*
X168691943Y-84745604D01*
X168666864Y-84759590D01*
X168596341Y-84788801D01*
X168596323Y-84788809D01*
X168596308Y-84788818D01*
X168432534Y-84898249D01*
X168432533Y-84898250D01*
X168432527Y-84898255D01*
X168293255Y-85037527D01*
X168293250Y-85037533D01*
X168293249Y-85037534D01*
X168183818Y-85201308D01*
X168183808Y-85201325D01*
X168183803Y-85201334D01*
X168108430Y-85383304D01*
X168108421Y-85383343D01*
X168070000Y-85576500D01*
X168070000Y-85576504D01*
X168070000Y-85825000D01*
X168646000Y-85825000D01*
X168713039Y-85844685D01*
X168758794Y-85897489D01*
X168770000Y-85949000D01*
X168770000Y-86201000D01*
X168750315Y-86268039D01*
X168697511Y-86313794D01*
X168646000Y-86325000D01*
X168070000Y-86325000D01*
X168070000Y-86573498D01*
X168108421Y-86766655D01*
X168108430Y-86766694D01*
X168183803Y-86948664D01*
X168183808Y-86948673D01*
X168183818Y-86948690D01*
X168293249Y-87112464D01*
X168293250Y-87112465D01*
X168293255Y-87112471D01*
X168432527Y-87251743D01*
X168432533Y-87251748D01*
X168432537Y-87251751D01*
X168596315Y-87361185D01*
X168596328Y-87361192D01*
X168670318Y-87391839D01*
X168778302Y-87436567D01*
X168778310Y-87436570D01*
X168820000Y-87444862D01*
X168820000Y-86880195D01*
X168839685Y-86813156D01*
X168892489Y-86767401D01*
X168961647Y-86757457D01*
X168976073Y-86760415D01*
X169030504Y-86775000D01*
X169109493Y-86775000D01*
X169109496Y-86775000D01*
X169163910Y-86760420D01*
X169233756Y-86762083D01*
X169291619Y-86801245D01*
X169319123Y-86865473D01*
X169320000Y-86880195D01*
X169320000Y-87444861D01*
X169320000Y-87444862D01*
X169361690Y-87436569D01*
X169361692Y-87436569D01*
X169543671Y-87361192D01*
X169543684Y-87361185D01*
X169707462Y-87251751D01*
X169707466Y-87251748D01*
X169846748Y-87112466D01*
X169846751Y-87112462D01*
X169956185Y-86948684D01*
X169956192Y-86948671D01*
X170031569Y-86766693D01*
X170031572Y-86766681D01*
X170068480Y-86581130D01*
X170069203Y-86578401D01*
X170070000Y-86573493D01*
X170070000Y-86325000D01*
X169494000Y-86325000D01*
X169426961Y-86305315D01*
X169381206Y-86252511D01*
X169370000Y-86201000D01*
X169370000Y-85949000D01*
X169389685Y-85881961D01*
X169442489Y-85836206D01*
X169494000Y-85825000D01*
X170070000Y-85825000D01*
X170070000Y-85576506D01*
X170069909Y-85575768D01*
X170069408Y-85573533D01*
X170031577Y-85383343D01*
X170031576Y-85383342D01*
X170031572Y-85383318D01*
X170031569Y-85383306D01*
X169983938Y-85268313D01*
X169956195Y-85201334D01*
X169956190Y-85201325D01*
X169956185Y-85201315D01*
X169846751Y-85037537D01*
X169846748Y-85037533D01*
X169846743Y-85037527D01*
X169707471Y-84898255D01*
X169707465Y-84898250D01*
X169707464Y-84898249D01*
X169543690Y-84788818D01*
X169543689Y-84788817D01*
X169543684Y-84788814D01*
X169543671Y-84788807D01*
X169476258Y-84760884D01*
X169445910Y-84742880D01*
X169442073Y-84739788D01*
X169438902Y-84737233D01*
X169399052Y-84679845D01*
X169396554Y-84610020D01*
X169432202Y-84549929D01*
X169488198Y-84519999D01*
X169493185Y-84518821D01*
X169521691Y-84515500D01*
X173157670Y-84515500D01*
X173192606Y-84520523D01*
X173207604Y-84524927D01*
X173266355Y-84562672D01*
X173267542Y-84564041D01*
X173295018Y-84618902D01*
X173296663Y-84626460D01*
X173299500Y-84652831D01*
X173299500Y-84982072D01*
X173294476Y-85017009D01*
X173287064Y-85042250D01*
X173255769Y-85094994D01*
X171540064Y-86810697D01*
X171540060Y-86810702D01*
X171494005Y-86890475D01*
X171494003Y-86890479D01*
X171469166Y-86933494D01*
X171461005Y-86947628D01*
X171445124Y-87006893D01*
X171420080Y-87100360D01*
X171420080Y-87270819D01*
X171420081Y-87270870D01*
X171420081Y-87423961D01*
X171415057Y-87458898D01*
X171407645Y-87484139D01*
X171376350Y-87536883D01*
X169551996Y-89361235D01*
X169551992Y-89361240D01*
X169505937Y-89441013D01*
X169505935Y-89441017D01*
X169481098Y-89484032D01*
X169472937Y-89498166D01*
X169457056Y-89557431D01*
X169432012Y-89650898D01*
X169432012Y-89821357D01*
X169432013Y-89821408D01*
X169432013Y-90384201D01*
X169426989Y-90419138D01*
X169419577Y-90444379D01*
X169388282Y-90497123D01*
X167644102Y-92241301D01*
X167644098Y-92241306D01*
X167605500Y-92308163D01*
X167601437Y-92315201D01*
X167601436Y-92315202D01*
X167565042Y-92378238D01*
X167524118Y-92530966D01*
X167524118Y-92530968D01*
X167524118Y-92701423D01*
X167524119Y-92701474D01*
X167524119Y-93767599D01*
X167527427Y-93779943D01*
X167565041Y-93920323D01*
X167565043Y-93920330D01*
X167565044Y-93920331D01*
X167565047Y-93920336D01*
X167642248Y-94054056D01*
X167643631Y-94056627D01*
X167644017Y-94057177D01*
X167755955Y-94169115D01*
X167756471Y-94169495D01*
X167759094Y-94170906D01*
X167828016Y-94210697D01*
X167862559Y-94230641D01*
X167862560Y-94230641D01*
X167892835Y-94248120D01*
X168045562Y-94289043D01*
X168045564Y-94289043D01*
X168203673Y-94289043D01*
X168203676Y-94289043D01*
X168310373Y-94260453D01*
X168345410Y-94256264D01*
X168356718Y-94256533D01*
X168423269Y-94277807D01*
X168467755Y-94331685D01*
X168476053Y-94401043D01*
X168475157Y-94406376D01*
X168456046Y-94454613D01*
X165167654Y-99387273D01*
X165153916Y-99404381D01*
X165140162Y-99418703D01*
X165107051Y-99443282D01*
X165091722Y-99451098D01*
X165073767Y-99458543D01*
X165063079Y-99462021D01*
X165044171Y-99466569D01*
X165042571Y-99466824D01*
X165025156Y-99469592D01*
X165005792Y-99471129D01*
X164994551Y-99471138D01*
X164975156Y-99469627D01*
X164956125Y-99466629D01*
X164937217Y-99462108D01*
X164926527Y-99458646D01*
X164908563Y-99451227D01*
X164893347Y-99443496D01*
X164860140Y-99418901D01*
X164857972Y-99416647D01*
X164846393Y-99404606D01*
X164832600Y-99387443D01*
X160928573Y-93531402D01*
X160913374Y-93499547D01*
X160911553Y-93493711D01*
X160910385Y-93423852D01*
X160947170Y-93364450D01*
X161010231Y-93334366D01*
X161079545Y-93343150D01*
X161081201Y-93343873D01*
X161119267Y-93369833D01*
X161812754Y-94063320D01*
X161812775Y-94063342D01*
X161813818Y-94064385D01*
X161818148Y-94068715D01*
X161818149Y-94068716D01*
X161929953Y-94180520D01*
X162016764Y-94230639D01*
X162016766Y-94230641D01*
X162054812Y-94252606D01*
X162054818Y-94252612D01*
X162054819Y-94252611D01*
X162066880Y-94259575D01*
X162066881Y-94259575D01*
X162066884Y-94259577D01*
X162219612Y-94300501D01*
X162219615Y-94300501D01*
X162385322Y-94300501D01*
X162387226Y-94300501D01*
X162387289Y-94300500D01*
X163360779Y-94300500D01*
X163395715Y-94305523D01*
X163410713Y-94309927D01*
X163469464Y-94347672D01*
X163470651Y-94349041D01*
X163498127Y-94403902D01*
X163499772Y-94411460D01*
X163502609Y-94437831D01*
X163502609Y-96678784D01*
X163526235Y-96766958D01*
X163543531Y-96831508D01*
X163543533Y-96831515D01*
X163543534Y-96831516D01*
X163543537Y-96831521D01*
X163620738Y-96965241D01*
X163622121Y-96967812D01*
X163622507Y-96968362D01*
X163734445Y-97080300D01*
X163734961Y-97080680D01*
X163737584Y-97082091D01*
X163871318Y-97159301D01*
X163871325Y-97159305D01*
X164024052Y-97200228D01*
X164024054Y-97200228D01*
X164182164Y-97200228D01*
X164182166Y-97200228D01*
X164334893Y-97159305D01*
X164471825Y-97080248D01*
X164583629Y-96968444D01*
X164662686Y-96831512D01*
X164703609Y-96678785D01*
X164703609Y-93779994D01*
X164703610Y-93779943D01*
X164703610Y-93609486D01*
X164703610Y-93609485D01*
X164662686Y-93456758D01*
X164583629Y-93319827D01*
X164471825Y-93208023D01*
X164334894Y-93128966D01*
X164182167Y-93088042D01*
X164182165Y-93088042D01*
X164024050Y-93088042D01*
X164004900Y-93093173D01*
X163988998Y-93096336D01*
X163985796Y-93096757D01*
X163973021Y-93098439D01*
X163956839Y-93099500D01*
X162616596Y-93099500D01*
X162581660Y-93094477D01*
X162556418Y-93087065D01*
X162503673Y-93055769D01*
X161399061Y-91951157D01*
X161377909Y-91922901D01*
X161365302Y-91899812D01*
X161350135Y-91840387D01*
X161350135Y-91146030D01*
X161350136Y-91145979D01*
X161350136Y-90975524D01*
X161350136Y-90975522D01*
X161309212Y-90822794D01*
X161266187Y-90748273D01*
X161230155Y-90685863D01*
X161118351Y-90574059D01*
X161118350Y-90574058D01*
X161114020Y-90569728D01*
X161112998Y-90568706D01*
X161112955Y-90568664D01*
X159481362Y-88937071D01*
X159460210Y-88908815D01*
X159447603Y-88885726D01*
X159432436Y-88826301D01*
X159432436Y-88114482D01*
X159432436Y-88114480D01*
X159391513Y-87961753D01*
X159391513Y-87961752D01*
X159362247Y-87911062D01*
X159342683Y-87877176D01*
X159342682Y-87877175D01*
X159314310Y-87828034D01*
X159312954Y-87825512D01*
X159312455Y-87824820D01*
X159195299Y-87707664D01*
X159195256Y-87707622D01*
X157498259Y-86010625D01*
X157477107Y-85982369D01*
X157464500Y-85959280D01*
X157449333Y-85899855D01*
X157449333Y-85669778D01*
X157449333Y-85669776D01*
X157433298Y-85609933D01*
X157408410Y-85517048D01*
X157379472Y-85466928D01*
X157329353Y-85380117D01*
X157217549Y-85268313D01*
X157217548Y-85268312D01*
X157213218Y-85263982D01*
X157212196Y-85262960D01*
X157212153Y-85262918D01*
X156689023Y-84739788D01*
X156667874Y-84711538D01*
X156662452Y-84701608D01*
X156647599Y-84633338D01*
X156672013Y-84567873D01*
X156727943Y-84526001D01*
X156731822Y-84524554D01*
X156735158Y-84523311D01*
X156778472Y-84515500D01*
X159974933Y-84515500D01*
X160009860Y-84520521D01*
G37*
%TD.AperFunction*%
%TA.AperFunction,Conductor*%
G36*
X160153563Y-66505521D02*
G01*
X160166882Y-66509432D01*
X160225660Y-66547206D01*
X160254685Y-66610756D01*
X160255524Y-66616589D01*
X160252278Y-66667379D01*
X160252212Y-66667617D01*
X160250954Y-66671697D01*
X160237606Y-66721509D01*
X160217137Y-66797902D01*
X160210760Y-66815977D01*
X160200003Y-66840292D01*
X160154879Y-66893636D01*
X160154672Y-66893772D01*
X160154538Y-66893860D01*
X160093701Y-66914001D01*
X160078479Y-66914890D01*
X160063777Y-66914738D01*
X160063620Y-66914884D01*
X160063620Y-69234477D01*
X160063630Y-69234487D01*
X160076388Y-69235156D01*
X160098358Y-69237468D01*
X160162968Y-69264057D01*
X160202948Y-69321356D01*
X160206684Y-69332495D01*
X160213120Y-69371926D01*
X160213120Y-70006837D01*
X160212854Y-70014953D01*
X160212325Y-70023018D01*
X160212236Y-70023922D01*
X160212000Y-70027526D01*
X160212000Y-71607670D01*
X160206975Y-71642614D01*
X160202570Y-71657612D01*
X160164827Y-71716355D01*
X160163458Y-71717542D01*
X160108597Y-71745018D01*
X160101039Y-71746663D01*
X160074668Y-71749500D01*
X159427525Y-71749500D01*
X159298994Y-71783939D01*
X159298993Y-71783940D01*
X159291338Y-71785991D01*
X159287510Y-71787017D01*
X159161991Y-71859485D01*
X159161984Y-71859490D01*
X159161968Y-71859505D01*
X159059505Y-71961968D01*
X159059490Y-71961984D01*
X159059485Y-71961992D01*
X158987017Y-72087509D01*
X158986989Y-72087578D01*
X158986748Y-72088511D01*
X158949500Y-72227525D01*
X158949500Y-72372474D01*
X158987013Y-72512477D01*
X158987017Y-72512488D01*
X158987018Y-72512489D01*
X159057635Y-72634802D01*
X159059123Y-72637568D01*
X159059353Y-72637877D01*
X159161985Y-72740509D01*
X159162674Y-72741005D01*
X159165178Y-72742353D01*
X159284069Y-72810995D01*
X159287087Y-72812869D01*
X159287514Y-72812983D01*
X159287515Y-72812984D01*
X159427525Y-72850500D01*
X160070170Y-72850500D01*
X160105106Y-72855523D01*
X160120104Y-72859927D01*
X160178855Y-72897672D01*
X160180042Y-72899041D01*
X160207518Y-72953902D01*
X160209163Y-72961460D01*
X160212000Y-72987831D01*
X160212000Y-73940283D01*
X160206976Y-73975220D01*
X160199564Y-74000461D01*
X160168269Y-74053205D01*
X160110901Y-74110573D01*
X160082650Y-74131722D01*
X160059562Y-74144330D01*
X160000132Y-74159500D01*
X159627525Y-74159500D01*
X159498994Y-74193939D01*
X159498993Y-74193940D01*
X159491338Y-74195991D01*
X159487510Y-74197017D01*
X159361991Y-74269485D01*
X159361984Y-74269490D01*
X159361968Y-74269505D01*
X159259505Y-74371968D01*
X159259490Y-74371984D01*
X159259485Y-74371992D01*
X159187017Y-74497509D01*
X159186989Y-74497578D01*
X159186748Y-74498511D01*
X159158791Y-74602850D01*
X159149500Y-74637525D01*
X159149500Y-74782475D01*
X159174088Y-74874237D01*
X159174087Y-74874237D01*
X159187016Y-74922486D01*
X159187018Y-74922491D01*
X159257635Y-75044802D01*
X159259123Y-75047568D01*
X159259353Y-75047877D01*
X159361985Y-75150509D01*
X159362674Y-75151005D01*
X159365178Y-75152353D01*
X159484069Y-75220995D01*
X159487087Y-75222869D01*
X159487514Y-75222983D01*
X159487515Y-75222984D01*
X159627525Y-75260500D01*
X160217526Y-75260500D01*
X160296890Y-75260500D01*
X160331822Y-75265521D01*
X160357066Y-75272934D01*
X160409812Y-75304230D01*
X160583807Y-75478225D01*
X160604957Y-75506477D01*
X160605515Y-75507499D01*
X160611610Y-75518660D01*
X160626462Y-75586933D01*
X160602046Y-75652398D01*
X160602038Y-75652407D01*
X160596734Y-75659491D01*
X160560595Y-75691904D01*
X160458453Y-75752310D01*
X160458448Y-75752313D01*
X160458437Y-75752322D01*
X160342323Y-75868436D01*
X160342314Y-75868447D01*
X160342311Y-75868452D01*
X160258719Y-76009799D01*
X160258718Y-76009802D01*
X160258708Y-76009833D01*
X160212903Y-76167493D01*
X160212902Y-76167497D01*
X160212901Y-76167504D01*
X160212900Y-76167510D01*
X160210001Y-76204350D01*
X160210001Y-76532500D01*
X160868171Y-76532500D01*
X160903107Y-76537523D01*
X160918105Y-76541927D01*
X160976856Y-76579672D01*
X160978043Y-76581041D01*
X161005519Y-76635902D01*
X161007164Y-76643460D01*
X161010001Y-76669831D01*
X161010001Y-76782500D01*
X161118171Y-76782500D01*
X161153107Y-76787523D01*
X161168105Y-76791927D01*
X161226856Y-76829672D01*
X161228043Y-76831041D01*
X161255519Y-76885902D01*
X161257164Y-76893460D01*
X161260001Y-76919831D01*
X161260001Y-77942295D01*
X161260011Y-77942305D01*
X161272769Y-77942974D01*
X161294737Y-77945285D01*
X161359348Y-77971875D01*
X161399326Y-78029172D01*
X161403064Y-78040317D01*
X161409500Y-78079744D01*
X161409500Y-78427525D01*
X161409500Y-79129975D01*
X161442828Y-79254356D01*
X161446111Y-79266608D01*
X161447020Y-79269999D01*
X161448225Y-79273548D01*
X161452422Y-79289208D01*
X161457117Y-79312808D01*
X161459500Y-79337003D01*
X161459500Y-79603260D01*
X161469426Y-79671391D01*
X161520803Y-79776485D01*
X161603514Y-79859196D01*
X161603515Y-79859196D01*
X161603753Y-79859434D01*
X161606952Y-79860877D01*
X161708607Y-79910573D01*
X161732827Y-79914101D01*
X161740312Y-79915192D01*
X161740313Y-79915192D01*
X161740546Y-79915226D01*
X161743028Y-79915587D01*
X161743866Y-79915710D01*
X161777680Y-79925712D01*
X161790331Y-79931518D01*
X161843050Y-79977371D01*
X161862610Y-80044333D01*
X161862597Y-80058146D01*
X161857573Y-80092968D01*
X161824302Y-80206265D01*
X161818549Y-80219706D01*
X161819197Y-80219975D01*
X161816087Y-80227481D01*
X161795660Y-80303719D01*
X161795659Y-80303718D01*
X161778572Y-80367490D01*
X161778572Y-80512443D01*
X161793671Y-80568795D01*
X161796834Y-80584693D01*
X161798938Y-80600667D01*
X161800000Y-80616860D01*
X161800000Y-81133170D01*
X161798400Y-81138617D01*
X161799510Y-81144188D01*
X161794975Y-81168114D01*
X161790570Y-81183112D01*
X161780929Y-81198116D01*
X161780315Y-81200209D01*
X161778668Y-81201636D01*
X161752827Y-81241855D01*
X161751458Y-81243042D01*
X161696597Y-81270518D01*
X161689039Y-81272163D01*
X161662668Y-81275000D01*
X161441830Y-81275000D01*
X161406889Y-81269975D01*
X161391890Y-81265570D01*
X161379648Y-81257704D01*
X161365501Y-81254366D01*
X161350880Y-81239221D01*
X161333144Y-81227827D01*
X161331957Y-81226458D01*
X161324844Y-81212255D01*
X161316971Y-81204100D01*
X161314467Y-81191532D01*
X161304477Y-81171583D01*
X161302832Y-81164021D01*
X161300000Y-81137668D01*
X161300000Y-80157703D01*
X161297505Y-80157899D01*
X161297497Y-80157901D01*
X161139833Y-80203707D01*
X161139802Y-80203717D01*
X161139799Y-80203718D01*
X160998452Y-80287310D01*
X160998447Y-80287313D01*
X160998432Y-80287325D01*
X160934755Y-80351003D01*
X160906497Y-80372156D01*
X160892779Y-80379646D01*
X160824512Y-80394496D01*
X160810932Y-80393525D01*
X160772323Y-80384402D01*
X160721695Y-80363431D01*
X160721689Y-80363429D01*
X160721687Y-80363428D01*
X160721683Y-80363427D01*
X160721679Y-80363426D01*
X160721675Y-80363425D01*
X160680000Y-80355135D01*
X160680000Y-80919804D01*
X160660315Y-80986843D01*
X160607511Y-81032598D01*
X160538353Y-81042542D01*
X160523908Y-81039579D01*
X160469497Y-81025000D01*
X160469496Y-81025000D01*
X160390504Y-81025000D01*
X160390502Y-81025000D01*
X160336092Y-81039579D01*
X160266242Y-81037916D01*
X160208380Y-80998752D01*
X160180877Y-80934524D01*
X160180000Y-80919804D01*
X160180000Y-80355136D01*
X160179999Y-80355135D01*
X160138330Y-80363424D01*
X160138306Y-80363429D01*
X159956334Y-80438803D01*
X159956325Y-80438808D01*
X159956308Y-80438818D01*
X159792534Y-80548249D01*
X159792533Y-80548250D01*
X159792527Y-80548255D01*
X159653255Y-80687527D01*
X159653250Y-80687533D01*
X159653249Y-80687534D01*
X159543818Y-80851308D01*
X159543808Y-80851325D01*
X159543803Y-80851334D01*
X159468430Y-81033304D01*
X159468421Y-81033343D01*
X159430000Y-81226500D01*
X159430000Y-81226504D01*
X159430000Y-81625000D01*
X160006000Y-81625000D01*
X160073039Y-81644685D01*
X160118794Y-81697489D01*
X160130000Y-81749000D01*
X160130000Y-82001000D01*
X160110315Y-82068039D01*
X160057511Y-82113794D01*
X160006000Y-82125000D01*
X159430000Y-82125000D01*
X159430000Y-82523498D01*
X159468421Y-82716655D01*
X159468430Y-82716694D01*
X159543803Y-82898664D01*
X159543807Y-82898671D01*
X159543814Y-82898684D01*
X159653248Y-83062462D01*
X159653251Y-83062466D01*
X159680998Y-83090213D01*
X159702148Y-83118466D01*
X159707568Y-83128392D01*
X159722420Y-83196665D01*
X159698003Y-83262129D01*
X159642070Y-83304001D01*
X159634882Y-83306682D01*
X159591548Y-83314500D01*
X156605152Y-83314500D01*
X156570211Y-83309475D01*
X156555212Y-83305070D01*
X156496466Y-83267327D01*
X156495279Y-83265958D01*
X156467799Y-83211083D01*
X156466154Y-83203521D01*
X156463322Y-83177168D01*
X156463322Y-78635775D01*
X156463323Y-78635724D01*
X156463323Y-78465269D01*
X156463323Y-78465267D01*
X156432770Y-78351243D01*
X156429609Y-78335352D01*
X156427504Y-78319361D01*
X156426445Y-78303186D01*
X156426445Y-77360654D01*
X160210001Y-77360654D01*
X160212900Y-77397487D01*
X160212902Y-77397501D01*
X160212903Y-77397505D01*
X160258708Y-77555165D01*
X160258718Y-77555196D01*
X160258719Y-77555199D01*
X160342311Y-77696546D01*
X160342315Y-77696552D01*
X160342322Y-77696561D01*
X160458439Y-77812678D01*
X160458448Y-77812685D01*
X160599802Y-77896281D01*
X160664409Y-77915050D01*
X160699661Y-77937563D01*
X160757510Y-77942098D01*
X160757515Y-77942100D01*
X160757512Y-77942100D01*
X160759999Y-77942295D01*
X160760001Y-77942295D01*
X160760001Y-77032500D01*
X160210001Y-77032500D01*
X160210001Y-77360654D01*
X156426445Y-77360654D01*
X156426445Y-75454293D01*
X156430670Y-75422200D01*
X156438833Y-75391735D01*
X156451214Y-75361839D01*
X156458586Y-75349072D01*
X156458587Y-75349071D01*
X156478533Y-75314523D01*
X156483540Y-75307998D01*
X156483578Y-75307907D01*
X156487186Y-75300589D01*
X156489805Y-75292876D01*
X156489842Y-75292784D01*
X156490916Y-75284630D01*
X156527618Y-75147660D01*
X156527618Y-74989546D01*
X156527618Y-74981951D01*
X156527618Y-74980267D01*
X156527617Y-74980193D01*
X156527617Y-68652836D01*
X159013620Y-68652836D01*
X159016519Y-68689669D01*
X159016521Y-68689683D01*
X159016522Y-68689687D01*
X159062327Y-68847347D01*
X159062337Y-68847378D01*
X159062338Y-68847381D01*
X159113784Y-68934371D01*
X159145934Y-68988734D01*
X159145941Y-68988743D01*
X159262058Y-69104860D01*
X159262067Y-69104867D01*
X159403421Y-69188463D01*
X159468028Y-69207232D01*
X159503280Y-69229745D01*
X159561129Y-69234280D01*
X159561134Y-69234282D01*
X159561131Y-69234282D01*
X159563618Y-69234477D01*
X159563620Y-69234477D01*
X159563620Y-68324682D01*
X159013620Y-68324682D01*
X159013620Y-68652836D01*
X156527617Y-68652836D01*
X156527617Y-67496532D01*
X159013620Y-67496532D01*
X159013620Y-67824682D01*
X159563620Y-67824682D01*
X159563620Y-66914885D01*
X159561125Y-66915081D01*
X159561117Y-66915083D01*
X159403453Y-66960889D01*
X159403422Y-66960899D01*
X159403419Y-66960900D01*
X159262072Y-67044492D01*
X159262067Y-67044495D01*
X159262056Y-67044504D01*
X159145942Y-67160618D01*
X159145933Y-67160629D01*
X159145930Y-67160634D01*
X159062338Y-67301981D01*
X159062337Y-67301984D01*
X159062327Y-67302015D01*
X159016522Y-67459675D01*
X159016521Y-67459679D01*
X159016520Y-67459686D01*
X159016519Y-67459692D01*
X159013620Y-67496532D01*
X156527617Y-67496532D01*
X156527617Y-66642329D01*
X156532640Y-66607393D01*
X156534665Y-66600499D01*
X156537044Y-66592394D01*
X156574789Y-66533644D01*
X156576158Y-66532457D01*
X156631037Y-66504977D01*
X156638596Y-66503333D01*
X156664949Y-66500500D01*
X160118631Y-66500500D01*
X160153563Y-66505521D01*
G37*
%TD.AperFunction*%
%TA.AperFunction,Conductor*%
G36*
X167070278Y-54366679D02*
G01*
X167071313Y-54367038D01*
X167078665Y-54369583D01*
X167125781Y-54399079D01*
X173550573Y-60823871D01*
X173571723Y-60852123D01*
X173584331Y-60875212D01*
X173599500Y-60934641D01*
X173599500Y-62461432D01*
X173594476Y-62496369D01*
X173587064Y-62521610D01*
X173555768Y-62574355D01*
X173522958Y-62607163D01*
X173522955Y-62607167D01*
X173522954Y-62607168D01*
X173466939Y-62704190D01*
X173466938Y-62704191D01*
X173466934Y-62704202D01*
X173440288Y-62803650D01*
X173437940Y-62812414D01*
X173437940Y-62924450D01*
X173466937Y-63032669D01*
X173522955Y-63129695D01*
X173522957Y-63129697D01*
X173550573Y-63157313D01*
X173571723Y-63185565D01*
X173584331Y-63208654D01*
X173599500Y-63268083D01*
X173599500Y-65912866D01*
X173594476Y-65947805D01*
X173587063Y-65973048D01*
X173555769Y-66025790D01*
X173493871Y-66087688D01*
X173493372Y-66088381D01*
X173492012Y-66090909D01*
X173437858Y-66184706D01*
X173437857Y-66184707D01*
X173437853Y-66184718D01*
X173415481Y-66268215D01*
X173408859Y-66292930D01*
X173408859Y-66404966D01*
X173437856Y-66513185D01*
X173493874Y-66610211D01*
X173493876Y-66610213D01*
X173550573Y-66666910D01*
X173571723Y-66695162D01*
X173584331Y-66718251D01*
X173599500Y-66777680D01*
X173599500Y-69233108D01*
X173594476Y-69268047D01*
X173587064Y-69293287D01*
X173555769Y-69346029D01*
X173409214Y-69492583D01*
X173330150Y-69629524D01*
X173330149Y-69629525D01*
X173320271Y-69666390D01*
X173320272Y-69666391D01*
X173289228Y-69782249D01*
X173289228Y-69898266D01*
X173283329Y-69918352D01*
X173318335Y-70048991D01*
X173329669Y-70091287D01*
X173330152Y-70093091D01*
X173409210Y-70230022D01*
X173521013Y-70341825D01*
X173657944Y-70420883D01*
X173810672Y-70461807D01*
X173810675Y-70461807D01*
X173968783Y-70461807D01*
X173968786Y-70461807D01*
X174121514Y-70420883D01*
X174258445Y-70341825D01*
X174551273Y-70048994D01*
X174551279Y-70048991D01*
X174568715Y-70031555D01*
X174568716Y-70031555D01*
X174575212Y-70025058D01*
X174603457Y-70003912D01*
X174613391Y-69998488D01*
X174681661Y-69983635D01*
X174747126Y-70008049D01*
X174788999Y-70063981D01*
X174789001Y-70063985D01*
X174791682Y-70071173D01*
X174799500Y-70114507D01*
X174799500Y-71259585D01*
X174794475Y-71294526D01*
X174790564Y-71307843D01*
X174752787Y-71366619D01*
X174689229Y-71395641D01*
X174689220Y-71395642D01*
X174687953Y-71395824D01*
X174629147Y-71390048D01*
X174623852Y-71388184D01*
X174601907Y-71377953D01*
X174510198Y-71323717D01*
X174510187Y-71323713D01*
X174352505Y-71277902D01*
X174352501Y-71277901D01*
X174352495Y-71277900D01*
X174352489Y-71277899D01*
X174341963Y-71277070D01*
X174315654Y-71275000D01*
X174315649Y-71275000D01*
X173800000Y-71275000D01*
X173800000Y-71933170D01*
X173794975Y-71968114D01*
X173790570Y-71983112D01*
X173752827Y-72041855D01*
X173751458Y-72043042D01*
X173696597Y-72070518D01*
X173689039Y-72072163D01*
X173662668Y-72075000D01*
X173550000Y-72075000D01*
X173550000Y-72183170D01*
X173544975Y-72218114D01*
X173540570Y-72233112D01*
X173502827Y-72291855D01*
X173501458Y-72293042D01*
X173446597Y-72320518D01*
X173439039Y-72322163D01*
X173412668Y-72325000D01*
X172202703Y-72325000D01*
X172202898Y-72327480D01*
X172202898Y-72327483D01*
X172202899Y-72327486D01*
X172248718Y-72485198D01*
X172332314Y-72626552D01*
X172332321Y-72626561D01*
X172448438Y-72742678D01*
X172448447Y-72742685D01*
X172448449Y-72742686D01*
X172509140Y-72778579D01*
X172536651Y-72800684D01*
X172546910Y-72811671D01*
X172578276Y-72874105D01*
X172572203Y-72940313D01*
X172565934Y-72956824D01*
X172561411Y-72967267D01*
X172509426Y-73073607D01*
X172509426Y-73073608D01*
X172499500Y-73141739D01*
X172499500Y-73508260D01*
X172509426Y-73576391D01*
X172560803Y-73681485D01*
X172643514Y-73764196D01*
X172643515Y-73764196D01*
X172643753Y-73764434D01*
X172646952Y-73765877D01*
X172748607Y-73815573D01*
X172767277Y-73818293D01*
X172782438Y-73820502D01*
X172782440Y-73820502D01*
X172782673Y-73820536D01*
X172816739Y-73825500D01*
X172816740Y-73825500D01*
X173165740Y-73825500D01*
X173200672Y-73830521D01*
X173213991Y-73834432D01*
X173272769Y-73872206D01*
X173301795Y-73935761D01*
X173301796Y-73935772D01*
X173303005Y-73944185D01*
X173300403Y-73987861D01*
X173300560Y-73987882D01*
X173300271Y-73990076D01*
X173300043Y-73993907D01*
X173299500Y-73995932D01*
X173299499Y-73995943D01*
X173299499Y-74166400D01*
X173299500Y-74166451D01*
X173299500Y-83172670D01*
X173294475Y-83207614D01*
X173290070Y-83222612D01*
X173252327Y-83281355D01*
X173250958Y-83282542D01*
X173196097Y-83310018D01*
X173188539Y-83311663D01*
X173162168Y-83314500D01*
X169911907Y-83314500D01*
X169876972Y-83309477D01*
X169866118Y-83306290D01*
X169807340Y-83268516D01*
X169778315Y-83204960D01*
X169788255Y-83135811D01*
X169791445Y-83128824D01*
X169816554Y-83092660D01*
X169846748Y-83062466D01*
X169846751Y-83062462D01*
X169956185Y-82898684D01*
X169956192Y-82898671D01*
X170031569Y-82716693D01*
X170031572Y-82716681D01*
X170068480Y-82531130D01*
X170069203Y-82528401D01*
X170070000Y-82523493D01*
X170070000Y-82125000D01*
X169494000Y-82125000D01*
X169426961Y-82105315D01*
X169381206Y-82052511D01*
X169370000Y-82001000D01*
X169370000Y-81749000D01*
X169389685Y-81681961D01*
X169442489Y-81636206D01*
X169494000Y-81625000D01*
X170070000Y-81625000D01*
X170070000Y-81226506D01*
X170069909Y-81225768D01*
X170069408Y-81223533D01*
X170065226Y-81202511D01*
X170031572Y-81033318D01*
X170031569Y-81033306D01*
X169990653Y-80934524D01*
X169956195Y-80851334D01*
X169956190Y-80851325D01*
X169956185Y-80851315D01*
X169846751Y-80687537D01*
X169846748Y-80687533D01*
X169846743Y-80687527D01*
X169707471Y-80548255D01*
X169707465Y-80548250D01*
X169707464Y-80548249D01*
X169543690Y-80438818D01*
X169543689Y-80438817D01*
X169543684Y-80438814D01*
X169543671Y-80438807D01*
X169543664Y-80438803D01*
X169361692Y-80363429D01*
X169361675Y-80363425D01*
X169320000Y-80355135D01*
X169320000Y-80919804D01*
X169300315Y-80986843D01*
X169247511Y-81032598D01*
X169178353Y-81042542D01*
X169163908Y-81039579D01*
X169109497Y-81025000D01*
X169109496Y-81025000D01*
X169030504Y-81025000D01*
X169030502Y-81025000D01*
X168976092Y-81039579D01*
X168906242Y-81037916D01*
X168848380Y-80998752D01*
X168820877Y-80934524D01*
X168820000Y-80919804D01*
X168820000Y-80332521D01*
X168825022Y-80297587D01*
X168829452Y-80282499D01*
X168867099Y-80223834D01*
X168878803Y-80213667D01*
X168908313Y-80194620D01*
X168925968Y-80186501D01*
X169042331Y-80117685D01*
X169042340Y-80117678D01*
X169158457Y-80001561D01*
X169158464Y-80001552D01*
X169242061Y-79860196D01*
X169242062Y-79860193D01*
X169287878Y-79702495D01*
X169287879Y-79702489D01*
X169290778Y-79665649D01*
X169290779Y-79665634D01*
X169290779Y-79650000D01*
X168632609Y-79650000D01*
X168597668Y-79644975D01*
X168582669Y-79640570D01*
X168523923Y-79602827D01*
X168522736Y-79601458D01*
X168495256Y-79546583D01*
X168493611Y-79539021D01*
X168490779Y-79512668D01*
X168490779Y-79400000D01*
X168382609Y-79400000D01*
X168347668Y-79394975D01*
X168332669Y-79390570D01*
X168273923Y-79352827D01*
X168272736Y-79351458D01*
X168245256Y-79296583D01*
X168243611Y-79289021D01*
X168240779Y-79262668D01*
X168240779Y-79150000D01*
X168740779Y-79150000D01*
X169290779Y-79150000D01*
X169290779Y-79134365D01*
X169290778Y-79134350D01*
X169287879Y-79097510D01*
X169287878Y-79097504D01*
X169260722Y-79004035D01*
X169242070Y-78939833D01*
X169242068Y-78939828D01*
X169242062Y-78939806D01*
X169242061Y-78939803D01*
X169185359Y-78843925D01*
X169158467Y-78798452D01*
X169158464Y-78798447D01*
X169158455Y-78798436D01*
X169042341Y-78682322D01*
X169042330Y-78682313D01*
X169042325Y-78682310D01*
X168900978Y-78598718D01*
X168900975Y-78598717D01*
X168900961Y-78598712D01*
X168857959Y-78586219D01*
X168836400Y-78579956D01*
X168801188Y-78557469D01*
X168740779Y-78552703D01*
X168740779Y-79150000D01*
X168240779Y-79150000D01*
X168240779Y-78552703D01*
X168238284Y-78552899D01*
X168238276Y-78552901D01*
X168080612Y-78598707D01*
X168080581Y-78598717D01*
X168080578Y-78598718D01*
X167939231Y-78682310D01*
X167939226Y-78682313D01*
X167939219Y-78682319D01*
X167822874Y-78798663D01*
X167807789Y-78811509D01*
X167793839Y-78821583D01*
X167727965Y-78844873D01*
X167659967Y-78828857D01*
X167655326Y-78826219D01*
X167609216Y-78780419D01*
X167603806Y-78771049D01*
X167602457Y-78768650D01*
X167601078Y-78766131D01*
X167599780Y-78763694D01*
X167593891Y-78752329D01*
X167568245Y-78702835D01*
X167560561Y-78692864D01*
X167555757Y-78686182D01*
X167551177Y-78679344D01*
X167546831Y-78672363D01*
X167541289Y-78662764D01*
X167541288Y-78662763D01*
X167541287Y-78662761D01*
X167532662Y-78654137D01*
X167527192Y-78648303D01*
X167526271Y-78647255D01*
X167525776Y-78646764D01*
X167524393Y-78645524D01*
X167521104Y-78642465D01*
X167517872Y-78639347D01*
X166498016Y-77619491D01*
X166498011Y-77619487D01*
X166444239Y-77588442D01*
X166415807Y-77558623D01*
X166337482Y-77537637D01*
X166337481Y-77537636D01*
X166260611Y-77517039D01*
X166232475Y-77509500D01*
X166232474Y-77509500D01*
X163602329Y-77509500D01*
X163567388Y-77504475D01*
X163552389Y-77500070D01*
X163493643Y-77462327D01*
X163492456Y-77460958D01*
X163464976Y-77406083D01*
X163463331Y-77398521D01*
X163460499Y-77372168D01*
X163460499Y-76710027D01*
X163460499Y-76710025D01*
X163422983Y-76570015D01*
X163422982Y-76570013D01*
X163422981Y-76570012D01*
X163421811Y-76565643D01*
X163417638Y-76551108D01*
X163412879Y-76527180D01*
X163410499Y-76502998D01*
X163410499Y-76236738D01*
X163401868Y-76177501D01*
X163401520Y-76172707D01*
X163400572Y-76168608D01*
X163400035Y-76167510D01*
X163350876Y-76066952D01*
X163349433Y-76063753D01*
X163349195Y-76063514D01*
X163266484Y-75980803D01*
X163161390Y-75929426D01*
X163093260Y-75919500D01*
X163093259Y-75919500D01*
X163093254Y-75919500D01*
X162726743Y-75919500D01*
X162726739Y-75919500D01*
X162726738Y-75919500D01*
X162658606Y-75929426D01*
X162658605Y-75929426D01*
X162658601Y-75929427D01*
X162649401Y-75932270D01*
X162649304Y-75931958D01*
X162627809Y-75938889D01*
X162614131Y-75941224D01*
X162544736Y-75933101D01*
X162490749Y-75888751D01*
X162478058Y-75870100D01*
X162478057Y-75870100D01*
X162472648Y-75862150D01*
X162467781Y-75854395D01*
X162452423Y-75827795D01*
X162452422Y-75827793D01*
X162400510Y-75737878D01*
X161674920Y-75012288D01*
X161653771Y-74984038D01*
X161648349Y-74974108D01*
X161633496Y-74905838D01*
X161646588Y-74870733D01*
X168799500Y-74870733D01*
X168799500Y-75479265D01*
X168801812Y-75503929D01*
X168801978Y-75507499D01*
X168802353Y-75509703D01*
X168841594Y-75621845D01*
X168841595Y-75621845D01*
X168841596Y-75621848D01*
X168847207Y-75637882D01*
X168927850Y-75747150D01*
X169037117Y-75827792D01*
X169037118Y-75827793D01*
X169165299Y-75872646D01*
X169165303Y-75872647D01*
X169183742Y-75874375D01*
X169195730Y-75875500D01*
X169195734Y-75875500D01*
X169195739Y-75875500D01*
X171504270Y-75875500D01*
X171504271Y-75875500D01*
X171528920Y-75873188D01*
X171532498Y-75873020D01*
X171534699Y-75872646D01*
X171534701Y-75872646D01*
X171598790Y-75850219D01*
X171662882Y-75827793D01*
X171772150Y-75747150D01*
X171852793Y-75637882D01*
X171882790Y-75552156D01*
X171897646Y-75509701D01*
X171897646Y-75509699D01*
X171898020Y-75507497D01*
X171898188Y-75503919D01*
X171900500Y-75479270D01*
X171900500Y-74870728D01*
X171898188Y-74846079D01*
X171898020Y-74842502D01*
X171897646Y-74840297D01*
X171864006Y-74744164D01*
X171864005Y-74744161D01*
X171852793Y-74712118D01*
X171772150Y-74602850D01*
X171662882Y-74522207D01*
X171662880Y-74522206D01*
X171534704Y-74477354D01*
X171534702Y-74477353D01*
X171534700Y-74477353D01*
X171504270Y-74474500D01*
X171504266Y-74474500D01*
X171504264Y-74474500D01*
X169195734Y-74474500D01*
X169195730Y-74474500D01*
X169177074Y-74476249D01*
X169171069Y-74476812D01*
X169167499Y-74476978D01*
X169165297Y-74477353D01*
X169037118Y-74522206D01*
X168927849Y-74602849D01*
X168847206Y-74712118D01*
X168802353Y-74840297D01*
X168801978Y-74842499D01*
X168801812Y-74846069D01*
X168799500Y-74870733D01*
X161646588Y-74870733D01*
X161657910Y-74840373D01*
X161713840Y-74798501D01*
X161717719Y-74797054D01*
X161721055Y-74795811D01*
X161764369Y-74788000D01*
X165434972Y-74788000D01*
X165434974Y-74788000D01*
X165434975Y-74788000D01*
X165574985Y-74750484D01*
X165613724Y-74728118D01*
X165700515Y-74678010D01*
X166940510Y-73438015D01*
X167012984Y-73312485D01*
X167050500Y-73172474D01*
X167050500Y-73027526D01*
X167012984Y-72887515D01*
X166940510Y-72761985D01*
X166838015Y-72659490D01*
X166838014Y-72659489D01*
X166838011Y-72659487D01*
X166784239Y-72628442D01*
X166755807Y-72598623D01*
X166677482Y-72577637D01*
X166677481Y-72577636D01*
X166600610Y-72557039D01*
X166572474Y-72549500D01*
X166572473Y-72549500D01*
X166427526Y-72549500D01*
X166322517Y-72577636D01*
X166322517Y-72577637D01*
X166310849Y-72580763D01*
X166287512Y-72587016D01*
X166287511Y-72587017D01*
X166161991Y-72659485D01*
X166161979Y-72659493D01*
X165183401Y-73638073D01*
X165155150Y-73659222D01*
X165132062Y-73671830D01*
X165072632Y-73687000D01*
X161454830Y-73687000D01*
X161419889Y-73681975D01*
X161404890Y-73677570D01*
X161346144Y-73639827D01*
X161344957Y-73638458D01*
X161317477Y-73583583D01*
X161315832Y-73576021D01*
X161313000Y-73549668D01*
X161313000Y-71824996D01*
X172202703Y-71824996D01*
X172202704Y-71824999D01*
X172202705Y-71825000D01*
X173300000Y-71825000D01*
X173300000Y-71275000D01*
X172784344Y-71275000D01*
X172752772Y-71277484D01*
X172747510Y-71277899D01*
X172747504Y-71277900D01*
X172747497Y-71277901D01*
X172747493Y-71277902D01*
X172589833Y-71323707D01*
X172589802Y-71323717D01*
X172589799Y-71323718D01*
X172448452Y-71407310D01*
X172448447Y-71407313D01*
X172448436Y-71407322D01*
X172332321Y-71523437D01*
X172332312Y-71523449D01*
X172248719Y-71664799D01*
X172248718Y-71664801D01*
X172202899Y-71822513D01*
X172202899Y-71822514D01*
X172202898Y-71822519D01*
X172202703Y-71824996D01*
X161313000Y-71824996D01*
X161313000Y-70442848D01*
X161313266Y-70434734D01*
X161313797Y-70426637D01*
X161313884Y-70425748D01*
X161314120Y-70422153D01*
X161314120Y-69920730D01*
X168799500Y-69920730D01*
X168799500Y-69923124D01*
X168799500Y-70529265D01*
X168801812Y-70553929D01*
X168801978Y-70557499D01*
X168802353Y-70559699D01*
X168802353Y-70559701D01*
X168847206Y-70687880D01*
X168847207Y-70687882D01*
X168927850Y-70797150D01*
X169037117Y-70877792D01*
X169037118Y-70877793D01*
X169165299Y-70922646D01*
X169165303Y-70922647D01*
X169183742Y-70924375D01*
X169195730Y-70925500D01*
X169195734Y-70925500D01*
X169195739Y-70925500D01*
X171504270Y-70925500D01*
X171504271Y-70925500D01*
X171528920Y-70923188D01*
X171532498Y-70923020D01*
X171534699Y-70922646D01*
X171534701Y-70922646D01*
X171598790Y-70900219D01*
X171662882Y-70877793D01*
X171772150Y-70797150D01*
X171852793Y-70687882D01*
X171875219Y-70623790D01*
X171897646Y-70559701D01*
X171897646Y-70559699D01*
X171898020Y-70557499D01*
X171898188Y-70553919D01*
X171900500Y-70529270D01*
X171900500Y-69920728D01*
X171898188Y-69896079D01*
X171898020Y-69892502D01*
X171897646Y-69890297D01*
X171864006Y-69794164D01*
X171864005Y-69794161D01*
X171852793Y-69762118D01*
X171772150Y-69652850D01*
X171662882Y-69572207D01*
X171662880Y-69572206D01*
X171534704Y-69527354D01*
X171534702Y-69527353D01*
X171534700Y-69527353D01*
X171504270Y-69524500D01*
X171504266Y-69524500D01*
X171504264Y-69524500D01*
X169195734Y-69524500D01*
X169195730Y-69524500D01*
X169177074Y-69526249D01*
X169171069Y-69526812D01*
X169167499Y-69526978D01*
X169165297Y-69527353D01*
X169037118Y-69572206D01*
X168927849Y-69652849D01*
X168847206Y-69762118D01*
X168802353Y-69890297D01*
X168801978Y-69892499D01*
X168801877Y-69894664D01*
X168801901Y-69895070D01*
X168801850Y-69895655D01*
X168799500Y-69920730D01*
X161314120Y-69920730D01*
X161314120Y-69067380D01*
X161319142Y-69032447D01*
X161323053Y-69019128D01*
X161360826Y-68960351D01*
X161424378Y-68931326D01*
X161438004Y-68929367D01*
X161473524Y-68929400D01*
X161499452Y-68933178D01*
X161530359Y-68937682D01*
X161896881Y-68937682D01*
X161896882Y-68937682D01*
X161903229Y-68936757D01*
X161919591Y-68934373D01*
X161965013Y-68927755D01*
X162070103Y-68876380D01*
X162152818Y-68793665D01*
X162204193Y-68688575D01*
X162214120Y-68620442D01*
X162214120Y-68492607D01*
X162219142Y-68457675D01*
X162226553Y-68432434D01*
X162257849Y-68379687D01*
X162258504Y-68379032D01*
X162258507Y-68379030D01*
X162268714Y-68368822D01*
X162268716Y-68368822D01*
X162380520Y-68257018D01*
X162453878Y-68129957D01*
X162459577Y-68120087D01*
X162500500Y-67967359D01*
X162500500Y-67809245D01*
X162500500Y-66420943D01*
X162487757Y-66373386D01*
X162459577Y-66268215D01*
X162459575Y-66268212D01*
X162459575Y-66268210D01*
X162459574Y-66268209D01*
X162436243Y-66227799D01*
X162436242Y-66227797D01*
X162428079Y-66213658D01*
X162382359Y-66134469D01*
X162380951Y-66131852D01*
X162380572Y-66131336D01*
X162263363Y-66014127D01*
X162263320Y-66014085D01*
X161791928Y-65542693D01*
X161791919Y-65542683D01*
X161777249Y-65528013D01*
X161668717Y-65419481D01*
X161668716Y-65419480D01*
X161668714Y-65419479D01*
X161668709Y-65419475D01*
X161568590Y-65361672D01*
X161568586Y-65361669D01*
X161568586Y-65361670D01*
X161531783Y-65340422D01*
X161531778Y-65340420D01*
X161475882Y-65325442D01*
X161475882Y-65325443D01*
X161427469Y-65312471D01*
X161379057Y-65299499D01*
X161379056Y-65299499D01*
X161211443Y-65299499D01*
X161211380Y-65299500D01*
X156669447Y-65299500D01*
X156634506Y-65294475D01*
X156619507Y-65290070D01*
X156560761Y-65252327D01*
X156559574Y-65250958D01*
X156532094Y-65196083D01*
X156530449Y-65188521D01*
X156527617Y-65162168D01*
X156527617Y-61067087D01*
X156532639Y-61032154D01*
X156538210Y-61013181D01*
X156540051Y-61006909D01*
X156571345Y-60954167D01*
X157748324Y-59777188D01*
X159490992Y-59777188D01*
X159490992Y-64777188D01*
X162240992Y-64777188D01*
X162240992Y-60260819D01*
X162246015Y-60225883D01*
X162250419Y-60210885D01*
X162288190Y-60152111D01*
X162293743Y-60147299D01*
X162350740Y-60119395D01*
X162358390Y-60117873D01*
X162358406Y-60117874D01*
X162358406Y-60117870D01*
X162358407Y-60117870D01*
X162402351Y-60109130D01*
X162538078Y-60052910D01*
X162543181Y-60049500D01*
X162646818Y-59980252D01*
X162667203Y-59969237D01*
X162685241Y-59961572D01*
X162754638Y-59953473D01*
X162817398Y-59984179D01*
X162853161Y-60042348D01*
X162855158Y-60049496D01*
X162856040Y-60052656D01*
X162860609Y-60086005D01*
X162860609Y-60105218D01*
X162901103Y-60256343D01*
X162979331Y-60391837D01*
X163089962Y-60502468D01*
X163225456Y-60580696D01*
X163376581Y-60621190D01*
X163376584Y-60621190D01*
X163533034Y-60621190D01*
X163533037Y-60621190D01*
X163634799Y-60593922D01*
X163669839Y-60589733D01*
X163688650Y-60590181D01*
X163750233Y-60608264D01*
X163759127Y-60613685D01*
X163782272Y-60631886D01*
X164201546Y-61051160D01*
X164281470Y-61097304D01*
X164370614Y-61121190D01*
X164370615Y-61121190D01*
X164462902Y-61121190D01*
X164547029Y-61121190D01*
X164581961Y-61126211D01*
X164607205Y-61133624D01*
X164659951Y-61164920D01*
X165281557Y-61786526D01*
X165292246Y-61798714D01*
X165302062Y-61811505D01*
X165307657Y-61819878D01*
X165309527Y-61822316D01*
X165309529Y-61822318D01*
X165309530Y-61822319D01*
X165602424Y-62115212D01*
X165667759Y-62180547D01*
X165669285Y-62181459D01*
X165675929Y-62185566D01*
X165678544Y-62186741D01*
X165746828Y-62226166D01*
X165747576Y-62226606D01*
X165747604Y-62226613D01*
X165747605Y-62226614D01*
X165836749Y-62250500D01*
X169178520Y-62250500D01*
X169213452Y-62255521D01*
X169238696Y-62262934D01*
X169291442Y-62294230D01*
X169700573Y-62703361D01*
X169721723Y-62731613D01*
X169734331Y-62754702D01*
X169749500Y-62814131D01*
X169749500Y-64585626D01*
X169744476Y-64620563D01*
X169737064Y-64645804D01*
X169705769Y-64698548D01*
X168603744Y-65800573D01*
X168575493Y-65821722D01*
X168552405Y-65834330D01*
X168492975Y-65849500D01*
X165826506Y-65849500D01*
X165791570Y-65844477D01*
X165766328Y-65837065D01*
X165713583Y-65805769D01*
X165707316Y-65799502D01*
X165707314Y-65799500D01*
X165650250Y-65766554D01*
X165593187Y-65733608D01*
X165529539Y-65716554D01*
X165465892Y-65699500D01*
X165465891Y-65699500D01*
X165334108Y-65699500D01*
X165206808Y-65733609D01*
X165206806Y-65733610D01*
X165092696Y-65799493D01*
X165092682Y-65799502D01*
X165092677Y-65799506D01*
X164999506Y-65892677D01*
X164999502Y-65892682D01*
X164999493Y-65892696D01*
X164933610Y-66006806D01*
X164933609Y-66006809D01*
X164911938Y-66087688D01*
X164899500Y-66134106D01*
X164899500Y-66134108D01*
X164899500Y-66265892D01*
X164906745Y-66292930D01*
X164933608Y-66393187D01*
X164966554Y-66450250D01*
X164999500Y-66507314D01*
X165092686Y-66600500D01*
X165206814Y-66666392D01*
X165334108Y-66700500D01*
X165334110Y-66700500D01*
X165465890Y-66700500D01*
X165465892Y-66700500D01*
X165593186Y-66666392D01*
X165707314Y-66600500D01*
X165708384Y-66599429D01*
X165709507Y-66598816D01*
X165713760Y-66595553D01*
X165714268Y-66596215D01*
X165717730Y-66594325D01*
X165736641Y-66578275D01*
X165759732Y-66565667D01*
X165819157Y-66550500D01*
X166043362Y-66550500D01*
X166078289Y-66555521D01*
X166089142Y-66558707D01*
X166100067Y-66565726D01*
X166105003Y-66566907D01*
X166109991Y-66572103D01*
X166147923Y-66596477D01*
X166176952Y-66660031D01*
X166167031Y-66729150D01*
X166166776Y-66729709D01*
X166132886Y-66773883D01*
X166131152Y-66775314D01*
X166114228Y-66787062D01*
X166092688Y-66799498D01*
X166092682Y-66799502D01*
X166092677Y-66799506D01*
X165999506Y-66892677D01*
X165999502Y-66892682D01*
X165999493Y-66892696D01*
X165933610Y-67006806D01*
X165933609Y-67006808D01*
X165933608Y-67006812D01*
X165899500Y-67134108D01*
X165899500Y-67265891D01*
X165909170Y-67301981D01*
X165933608Y-67393188D01*
X165966554Y-67450250D01*
X165999500Y-67507314D01*
X166092686Y-67600500D01*
X166191521Y-67657563D01*
X166203900Y-67664710D01*
X166206814Y-67666392D01*
X166334108Y-67700500D01*
X166334110Y-67700500D01*
X166465890Y-67700500D01*
X166465892Y-67700500D01*
X166593186Y-67666392D01*
X166707314Y-67600500D01*
X166800500Y-67507314D01*
X166866392Y-67393186D01*
X166900500Y-67265892D01*
X166900500Y-67264373D01*
X166905522Y-67229440D01*
X166905595Y-67229192D01*
X166912934Y-67204195D01*
X166944228Y-67151453D01*
X166996258Y-67099423D01*
X167024508Y-67078275D01*
X167047600Y-67065667D01*
X167107025Y-67050500D01*
X167336626Y-67050500D01*
X167371553Y-67055521D01*
X167382406Y-67058707D01*
X167441187Y-67096477D01*
X167470216Y-67160031D01*
X167460277Y-67229190D01*
X167460276Y-67229192D01*
X167457091Y-67236167D01*
X167431975Y-67272342D01*
X167119533Y-67584782D01*
X167119531Y-67584786D01*
X167119519Y-67584805D01*
X167097249Y-67623381D01*
X167097246Y-67623386D01*
X167073386Y-67664710D01*
X167049500Y-67753856D01*
X167049500Y-68773494D01*
X167044476Y-68808431D01*
X167037064Y-68833672D01*
X167005769Y-68886416D01*
X166999510Y-68892674D01*
X166999505Y-68892679D01*
X166999502Y-68892683D01*
X166999500Y-68892686D01*
X166999497Y-68892690D01*
X166999493Y-68892696D01*
X166933610Y-69006806D01*
X166933609Y-69006809D01*
X166933608Y-69006811D01*
X166933608Y-69006812D01*
X166930308Y-69019130D01*
X166907337Y-69104859D01*
X166899500Y-69134106D01*
X166899500Y-69134108D01*
X166899500Y-69265892D01*
X166913456Y-69317977D01*
X166933608Y-69393187D01*
X166966554Y-69450250D01*
X166999500Y-69507314D01*
X167092686Y-69600500D01*
X167142959Y-69629525D01*
X167206810Y-69666390D01*
X167206814Y-69666392D01*
X167334108Y-69700500D01*
X167334110Y-69700500D01*
X167465890Y-69700500D01*
X167465892Y-69700500D01*
X167593186Y-69666392D01*
X167707314Y-69600500D01*
X167800500Y-69507314D01*
X167866392Y-69393186D01*
X167900500Y-69265892D01*
X167900500Y-69134108D01*
X167866392Y-69006814D01*
X167866387Y-69006806D01*
X167852361Y-68982512D01*
X167800500Y-68892686D01*
X167799426Y-68891612D01*
X167778274Y-68863356D01*
X167765667Y-68840267D01*
X167750500Y-68780842D01*
X167750500Y-68717333D01*
X167755522Y-68682400D01*
X167759433Y-68669081D01*
X167797206Y-68610304D01*
X167860758Y-68581279D01*
X167864590Y-68580728D01*
X167869185Y-68580068D01*
X167918916Y-68583032D01*
X167928076Y-68585486D01*
X167984108Y-68600500D01*
X167984111Y-68600500D01*
X168115890Y-68600500D01*
X168115892Y-68600500D01*
X168243186Y-68566392D01*
X168357314Y-68500500D01*
X168450500Y-68407314D01*
X168516392Y-68293186D01*
X168550500Y-68165892D01*
X168550500Y-68165888D01*
X168551630Y-68161671D01*
X168557999Y-68143613D01*
X168565037Y-68127706D01*
X168610157Y-68074370D01*
X168615259Y-68071005D01*
X168665763Y-68051801D01*
X168665915Y-68051779D01*
X168683677Y-68050500D01*
X169367463Y-68050500D01*
X169367465Y-68050500D01*
X169456609Y-68026614D01*
X169536533Y-67980470D01*
X171880470Y-65636531D01*
X171926614Y-65556607D01*
X171930842Y-65540827D01*
X171931505Y-65538355D01*
X171934270Y-65528032D01*
X171934273Y-65528032D01*
X171934273Y-65528017D01*
X171950500Y-65467463D01*
X171950500Y-65305020D01*
X171951560Y-65288840D01*
X171953665Y-65272851D01*
X171956825Y-65256961D01*
X171960500Y-65243250D01*
X171960500Y-62649022D01*
X171960501Y-62649019D01*
X171960500Y-62615213D01*
X171960500Y-62556749D01*
X171960500Y-62556742D01*
X171956829Y-62543044D01*
X171953665Y-62527141D01*
X171951559Y-62511148D01*
X171950500Y-62494970D01*
X171950500Y-61939646D01*
X171950500Y-61939644D01*
X171926614Y-61850500D01*
X171926611Y-61850495D01*
X171926610Y-61850491D01*
X171880478Y-61770589D01*
X171880474Y-61770582D01*
X171880468Y-61770574D01*
X171880466Y-61770572D01*
X171880463Y-61770568D01*
X170229433Y-60119538D01*
X170229426Y-60119532D01*
X170229420Y-60119527D01*
X170229415Y-60119523D01*
X170163637Y-60081547D01*
X170157108Y-60076537D01*
X170141894Y-60070235D01*
X170133732Y-60069161D01*
X170127059Y-60067373D01*
X170060356Y-60049500D01*
X170060355Y-60049500D01*
X169621480Y-60049500D01*
X169586544Y-60044477D01*
X169561302Y-60037065D01*
X169508557Y-60005769D01*
X168599426Y-59096638D01*
X168578274Y-59068382D01*
X168565667Y-59045293D01*
X168550500Y-58985868D01*
X168550500Y-57953858D01*
X168550500Y-57953856D01*
X168526614Y-57864712D01*
X168487184Y-57796417D01*
X168480472Y-57784791D01*
X168480468Y-57784786D01*
X167815211Y-57119529D01*
X167815204Y-57119524D01*
X167749425Y-57081547D01*
X167742896Y-57076537D01*
X167727682Y-57070235D01*
X167719520Y-57069161D01*
X167646144Y-57049500D01*
X167646143Y-57049500D01*
X165478880Y-57049500D01*
X165389749Y-57073382D01*
X165389732Y-57073387D01*
X165389727Y-57073389D01*
X165309815Y-57119526D01*
X165309811Y-57119530D01*
X165309801Y-57119538D01*
X164655797Y-57773542D01*
X164637018Y-57788956D01*
X164625854Y-57796416D01*
X164625851Y-57796419D01*
X164475074Y-57947195D01*
X164449490Y-57978376D01*
X164448949Y-57979107D01*
X164446194Y-57982682D01*
X164444341Y-57984998D01*
X164444335Y-57985006D01*
X164398197Y-58064920D01*
X164398195Y-58064925D01*
X164398192Y-58064933D01*
X164398191Y-58064936D01*
X164393985Y-58080632D01*
X164380095Y-58113068D01*
X164371961Y-58126414D01*
X164320263Y-58173414D01*
X164315668Y-58175646D01*
X164312281Y-58177292D01*
X164258092Y-58189752D01*
X163657832Y-58189681D01*
X163641657Y-58188620D01*
X163625688Y-58186517D01*
X163609786Y-58183353D01*
X163533043Y-58162790D01*
X163533038Y-58162790D01*
X163533037Y-58162790D01*
X163425483Y-58162790D01*
X163390547Y-58157767D01*
X163365305Y-58150355D01*
X163312559Y-58119058D01*
X163263039Y-58069537D01*
X163263027Y-58069527D01*
X163263022Y-58069523D01*
X163254849Y-58064805D01*
X163226403Y-58034972D01*
X163180661Y-58022730D01*
X163180629Y-58022710D01*
X163180627Y-58022721D01*
X163137294Y-58011110D01*
X163093965Y-57999500D01*
X163093963Y-57999500D01*
X160803856Y-57999500D01*
X160716518Y-58022902D01*
X160714796Y-58023335D01*
X160634804Y-58069519D01*
X160634786Y-58069531D01*
X160569531Y-58134786D01*
X160569519Y-58134804D01*
X160523389Y-58214704D01*
X160523388Y-58214705D01*
X160523384Y-58214716D01*
X160499500Y-58303856D01*
X160499500Y-58396142D01*
X160523384Y-58485282D01*
X160523388Y-58485293D01*
X160523389Y-58485294D01*
X160569521Y-58565199D01*
X160569526Y-58565205D01*
X160569529Y-58565209D01*
X160569531Y-58565212D01*
X160634788Y-58630469D01*
X160634789Y-58630469D01*
X160634869Y-58630549D01*
X160636392Y-58631459D01*
X160643036Y-58635566D01*
X160645651Y-58636741D01*
X160713935Y-58676166D01*
X160714683Y-58676606D01*
X160714711Y-58676613D01*
X160714712Y-58676614D01*
X160803856Y-58700500D01*
X161504385Y-58700500D01*
X161539312Y-58705521D01*
X161550165Y-58708707D01*
X161608946Y-58746477D01*
X161637975Y-58810031D01*
X161628036Y-58879190D01*
X161628031Y-58879201D01*
X161624453Y-58887035D01*
X161607860Y-58912848D01*
X161608141Y-58913059D01*
X161605513Y-58916561D01*
X161523896Y-59038706D01*
X161523881Y-59038733D01*
X161467678Y-59174422D01*
X161467665Y-59174461D01*
X161439009Y-59318525D01*
X161439009Y-59465452D01*
X161464068Y-59591430D01*
X161465743Y-59602392D01*
X161469487Y-59637285D01*
X161457067Y-59706042D01*
X161409456Y-59757163D01*
X161404948Y-59759837D01*
X161341687Y-59777188D01*
X159490992Y-59777188D01*
X157748324Y-59777188D01*
X163020075Y-54505436D01*
X163048326Y-54484288D01*
X163064842Y-54475269D01*
X163127217Y-54460138D01*
X163137634Y-54460386D01*
X163166772Y-54464575D01*
X163215158Y-54477541D01*
X163215160Y-54477541D01*
X163380868Y-54477541D01*
X163382772Y-54477541D01*
X163382835Y-54477540D01*
X166534340Y-54477540D01*
X166534403Y-54477541D01*
X166536307Y-54477541D01*
X166543903Y-54477541D01*
X166702014Y-54477541D01*
X166702017Y-54477541D01*
X166854745Y-54436617D01*
X166904864Y-54407679D01*
X166952539Y-54380153D01*
X166985295Y-54367040D01*
X167000490Y-54363354D01*
X167070278Y-54366679D01*
G37*
%TD.AperFunction*%
%TD*%
%TA.AperFunction,Conductor*%
%TO.N,GND*%
G36*
X168682132Y-81062868D02*
G01*
X168606858Y-81138141D01*
X169070707Y-81875707D01*
X168570000Y-82082106D01*
X168257868Y-81487132D01*
X168111421Y-81575000D01*
X168111421Y-80975000D01*
X168470000Y-80975000D01*
X168682132Y-81062868D01*
G37*
%TD.AperFunction*%
%TD*%
%TA.AperFunction,Conductor*%
%TO.N,Net-(J1-SWO)*%
G36*
X166447761Y-59371654D02*
G01*
X166447949Y-59371771D01*
X166450031Y-59373426D01*
X166647682Y-59571077D01*
X166650219Y-59574873D01*
X166651314Y-59577517D01*
X166651903Y-59584629D01*
X166651854Y-59584841D01*
X166650939Y-59587400D01*
X166364378Y-60165865D01*
X166361593Y-60169481D01*
X166360055Y-60170825D01*
X166352022Y-60173710D01*
X166350588Y-60173669D01*
X166346555Y-60172829D01*
X165998503Y-60032807D01*
X165994683Y-60030310D01*
X165991699Y-60027387D01*
X165989032Y-60023398D01*
X165849054Y-59675456D01*
X165848211Y-59670977D01*
X165848232Y-59668926D01*
X165851426Y-59661016D01*
X165852416Y-59659967D01*
X165855718Y-59657525D01*
X166433526Y-59371289D01*
X166437928Y-59370102D01*
X166440789Y-59369909D01*
X166447761Y-59371654D01*
G37*
%TD.AperFunction*%
%TD*%
%TA.AperFunction,Conductor*%
%TO.N,Net-(J1-~{RESET})*%
G36*
X164787710Y-57941728D02*
G01*
X164979770Y-58133788D01*
X164983197Y-58142061D01*
X164979770Y-58150334D01*
X164976455Y-58152658D01*
X164874809Y-58200214D01*
X164874809Y-58200215D01*
X165082627Y-58595093D01*
X165083447Y-58604010D01*
X165077722Y-58610896D01*
X165076860Y-58611305D01*
X164729396Y-58759402D01*
X164720442Y-58759494D01*
X164720222Y-58759402D01*
X164372757Y-58611305D01*
X164366489Y-58604909D01*
X164366581Y-58595955D01*
X164366982Y-58595108D01*
X164574809Y-58200215D01*
X164617853Y-58096297D01*
X164620385Y-58092506D01*
X164771164Y-57941728D01*
X164779437Y-57938301D01*
X164787710Y-57941728D01*
G37*
%TD.AperFunction*%
%TD*%
%TA.AperFunction,Conductor*%
%TO.N,Net-(J1-SWDIO)*%
G36*
X163615676Y-59669153D02*
G01*
X163616865Y-59669742D01*
X163975195Y-59873625D01*
X163980691Y-59880695D01*
X163981109Y-59883794D01*
X163981109Y-60170185D01*
X163977682Y-60178458D01*
X163975195Y-60180354D01*
X163616875Y-60384232D01*
X163607990Y-60385345D01*
X163600920Y-60379849D01*
X163600326Y-60378650D01*
X163452396Y-60031577D01*
X163452304Y-60022623D01*
X163452396Y-60022403D01*
X163515808Y-59873625D01*
X163600326Y-59675328D01*
X163606722Y-59669061D01*
X163615676Y-59669153D01*
G37*
%TD.AperFunction*%
%TD*%
%TA.AperFunction,Conductor*%
%TO.N,Net-(J1-SWCLK)*%
G36*
X165082868Y-59880413D02*
G01*
X165090780Y-59883606D01*
X165091825Y-59884593D01*
X165094275Y-59887905D01*
X165345742Y-60395527D01*
X165380506Y-60465702D01*
X165381696Y-60470111D01*
X165381888Y-60472968D01*
X165380166Y-60479906D01*
X165380051Y-60480092D01*
X165378372Y-60482212D01*
X165183408Y-60677176D01*
X165179616Y-60679711D01*
X165177971Y-60680393D01*
X165169016Y-60680395D01*
X165167364Y-60679711D01*
X165163571Y-60677176D01*
X164976619Y-60490224D01*
X164976610Y-60490216D01*
X164896711Y-60444086D01*
X164896689Y-60444074D01*
X164896687Y-60444073D01*
X164807551Y-60420190D01*
X164807549Y-60420190D01*
X164807547Y-60420190D01*
X164637725Y-60420190D01*
X164635059Y-60419882D01*
X164632493Y-60419281D01*
X164629969Y-60418374D01*
X164585932Y-60396559D01*
X164582319Y-60393776D01*
X164580971Y-60392233D01*
X164578087Y-60384204D01*
X164578128Y-60382766D01*
X164578968Y-60378736D01*
X164718993Y-60030677D01*
X164721486Y-60026864D01*
X164724415Y-60023875D01*
X164728397Y-60021214D01*
X165076342Y-59881234D01*
X165080819Y-59880392D01*
X165082868Y-59880413D01*
G37*
%TD.AperFunction*%
%TD*%
M02*
