%TF.GenerationSoftware,KiCad,Pcbnew,10.0.5*%
%TF.CreationDate,2026-08-19T19:39:00+02:00*%
%TF.ProjectId,Leucht-Ohrringe,4c657563-6874-42d4-9f68-7272696e6765,rev?*%
%TF.SameCoordinates,Original*%
%TF.FileFunction,Legend,Top*%
%TF.FilePolarity,Positive*%
%FSLAX46Y46*%
G04 Gerber Fmt 4.6, Leading zero omitted, Abs format (unit mm)*
G04 Created by KiCad (PCBNEW 10.0.5) date 2026-08-19 19:39:00*
%MOMM*%
%LPD*%
G01*
G04 APERTURE LIST*
%ADD10C,0.150000*%
%ADD11C,0.100000*%
%ADD12C,0.120000*%
%ADD13C,0.300000*%
G04 APERTURE END LIST*
D10*
X158933333Y-70959580D02*
X158885714Y-71007200D01*
X158885714Y-71007200D02*
X158742857Y-71054819D01*
X158742857Y-71054819D02*
X158647619Y-71054819D01*
X158647619Y-71054819D02*
X158504762Y-71007200D01*
X158504762Y-71007200D02*
X158409524Y-70911961D01*
X158409524Y-70911961D02*
X158361905Y-70816723D01*
X158361905Y-70816723D02*
X158314286Y-70626247D01*
X158314286Y-70626247D02*
X158314286Y-70483390D01*
X158314286Y-70483390D02*
X158361905Y-70292914D01*
X158361905Y-70292914D02*
X158409524Y-70197676D01*
X158409524Y-70197676D02*
X158504762Y-70102438D01*
X158504762Y-70102438D02*
X158647619Y-70054819D01*
X158647619Y-70054819D02*
X158742857Y-70054819D01*
X158742857Y-70054819D02*
X158885714Y-70102438D01*
X158885714Y-70102438D02*
X158933333Y-70150057D01*
X159885714Y-71054819D02*
X159314286Y-71054819D01*
X159600000Y-71054819D02*
X159600000Y-70054819D01*
X159600000Y-70054819D02*
X159504762Y-70197676D01*
X159504762Y-70197676D02*
X159409524Y-70292914D01*
X159409524Y-70292914D02*
X159314286Y-70340533D01*
X167254819Y-71961904D02*
X168064342Y-71961904D01*
X168064342Y-71961904D02*
X168159580Y-71914285D01*
X168159580Y-71914285D02*
X168207200Y-71866666D01*
X168207200Y-71866666D02*
X168254819Y-71771428D01*
X168254819Y-71771428D02*
X168254819Y-71580952D01*
X168254819Y-71580952D02*
X168207200Y-71485714D01*
X168207200Y-71485714D02*
X168159580Y-71438095D01*
X168159580Y-71438095D02*
X168064342Y-71390476D01*
X168064342Y-71390476D02*
X167254819Y-71390476D01*
X167254819Y-70438095D02*
X167254819Y-70914285D01*
X167254819Y-70914285D02*
X167731009Y-70961904D01*
X167731009Y-70961904D02*
X167683390Y-70914285D01*
X167683390Y-70914285D02*
X167635771Y-70819047D01*
X167635771Y-70819047D02*
X167635771Y-70580952D01*
X167635771Y-70580952D02*
X167683390Y-70485714D01*
X167683390Y-70485714D02*
X167731009Y-70438095D01*
X167731009Y-70438095D02*
X167826247Y-70390476D01*
X167826247Y-70390476D02*
X168064342Y-70390476D01*
X168064342Y-70390476D02*
X168159580Y-70438095D01*
X168159580Y-70438095D02*
X168207200Y-70485714D01*
X168207200Y-70485714D02*
X168254819Y-70580952D01*
X168254819Y-70580952D02*
X168254819Y-70819047D01*
X168254819Y-70819047D02*
X168207200Y-70914285D01*
X168207200Y-70914285D02*
X168159580Y-70961904D01*
X160033333Y-66959580D02*
X159985714Y-67007200D01*
X159985714Y-67007200D02*
X159842857Y-67054819D01*
X159842857Y-67054819D02*
X159747619Y-67054819D01*
X159747619Y-67054819D02*
X159604762Y-67007200D01*
X159604762Y-67007200D02*
X159509524Y-66911961D01*
X159509524Y-66911961D02*
X159461905Y-66816723D01*
X159461905Y-66816723D02*
X159414286Y-66626247D01*
X159414286Y-66626247D02*
X159414286Y-66483390D01*
X159414286Y-66483390D02*
X159461905Y-66292914D01*
X159461905Y-66292914D02*
X159509524Y-66197676D01*
X159509524Y-66197676D02*
X159604762Y-66102438D01*
X159604762Y-66102438D02*
X159747619Y-66054819D01*
X159747619Y-66054819D02*
X159842857Y-66054819D01*
X159842857Y-66054819D02*
X159985714Y-66102438D01*
X159985714Y-66102438D02*
X160033333Y-66150057D01*
X160414286Y-66150057D02*
X160461905Y-66102438D01*
X160461905Y-66102438D02*
X160557143Y-66054819D01*
X160557143Y-66054819D02*
X160795238Y-66054819D01*
X160795238Y-66054819D02*
X160890476Y-66102438D01*
X160890476Y-66102438D02*
X160938095Y-66150057D01*
X160938095Y-66150057D02*
X160985714Y-66245295D01*
X160985714Y-66245295D02*
X160985714Y-66340533D01*
X160985714Y-66340533D02*
X160938095Y-66483390D01*
X160938095Y-66483390D02*
X160366667Y-67054819D01*
X160366667Y-67054819D02*
X160985714Y-67054819D01*
X158659580Y-73566666D02*
X158707200Y-73614285D01*
X158707200Y-73614285D02*
X158754819Y-73757142D01*
X158754819Y-73757142D02*
X158754819Y-73852380D01*
X158754819Y-73852380D02*
X158707200Y-73995237D01*
X158707200Y-73995237D02*
X158611961Y-74090475D01*
X158611961Y-74090475D02*
X158516723Y-74138094D01*
X158516723Y-74138094D02*
X158326247Y-74185713D01*
X158326247Y-74185713D02*
X158183390Y-74185713D01*
X158183390Y-74185713D02*
X157992914Y-74138094D01*
X157992914Y-74138094D02*
X157897676Y-74090475D01*
X157897676Y-74090475D02*
X157802438Y-73995237D01*
X157802438Y-73995237D02*
X157754819Y-73852380D01*
X157754819Y-73852380D02*
X157754819Y-73757142D01*
X157754819Y-73757142D02*
X157802438Y-73614285D01*
X157802438Y-73614285D02*
X157850057Y-73566666D01*
X157754819Y-73233332D02*
X157754819Y-72614285D01*
X157754819Y-72614285D02*
X158135771Y-72947618D01*
X158135771Y-72947618D02*
X158135771Y-72804761D01*
X158135771Y-72804761D02*
X158183390Y-72709523D01*
X158183390Y-72709523D02*
X158231009Y-72661904D01*
X158231009Y-72661904D02*
X158326247Y-72614285D01*
X158326247Y-72614285D02*
X158564342Y-72614285D01*
X158564342Y-72614285D02*
X158659580Y-72661904D01*
X158659580Y-72661904D02*
X158707200Y-72709523D01*
X158707200Y-72709523D02*
X158754819Y-72804761D01*
X158754819Y-72804761D02*
X158754819Y-73090475D01*
X158754819Y-73090475D02*
X158707200Y-73185713D01*
X158707200Y-73185713D02*
X158659580Y-73233332D01*
D11*
X159632134Y-62650465D02*
X159632134Y-62174275D01*
X159917849Y-62745703D02*
X158917849Y-62412370D01*
X158917849Y-62412370D02*
X159917849Y-62079037D01*
X159394039Y-61745703D02*
X159394039Y-61412370D01*
X159917849Y-61269513D02*
X159917849Y-61745703D01*
X159917849Y-61745703D02*
X158917849Y-61745703D01*
X158917849Y-61745703D02*
X158917849Y-61269513D01*
X159917849Y-60317132D02*
X159917849Y-60888560D01*
X159917849Y-60602846D02*
X158917849Y-60602846D01*
X158917849Y-60602846D02*
X159060706Y-60698084D01*
X159060706Y-60698084D02*
X159155944Y-60793322D01*
X159155944Y-60793322D02*
X159203563Y-60888560D01*
D10*
X164254819Y-63866666D02*
X163778628Y-64199999D01*
X164254819Y-64438094D02*
X163254819Y-64438094D01*
X163254819Y-64438094D02*
X163254819Y-64057142D01*
X163254819Y-64057142D02*
X163302438Y-63961904D01*
X163302438Y-63961904D02*
X163350057Y-63914285D01*
X163350057Y-63914285D02*
X163445295Y-63866666D01*
X163445295Y-63866666D02*
X163588152Y-63866666D01*
X163588152Y-63866666D02*
X163683390Y-63914285D01*
X163683390Y-63914285D02*
X163731009Y-63961904D01*
X163731009Y-63961904D02*
X163778628Y-64057142D01*
X163778628Y-64057142D02*
X163778628Y-64438094D01*
X163350057Y-63485713D02*
X163302438Y-63438094D01*
X163302438Y-63438094D02*
X163254819Y-63342856D01*
X163254819Y-63342856D02*
X163254819Y-63104761D01*
X163254819Y-63104761D02*
X163302438Y-63009523D01*
X163302438Y-63009523D02*
X163350057Y-62961904D01*
X163350057Y-62961904D02*
X163445295Y-62914285D01*
X163445295Y-62914285D02*
X163540533Y-62914285D01*
X163540533Y-62914285D02*
X163683390Y-62961904D01*
X163683390Y-62961904D02*
X164254819Y-63533332D01*
X164254819Y-63533332D02*
X164254819Y-62914285D01*
X159633333Y-65554819D02*
X159157143Y-65554819D01*
X159157143Y-65554819D02*
X159157143Y-64554819D01*
X160490476Y-65554819D02*
X159919048Y-65554819D01*
X160204762Y-65554819D02*
X160204762Y-64554819D01*
X160204762Y-64554819D02*
X160109524Y-64697676D01*
X160109524Y-64697676D02*
X160014286Y-64792914D01*
X160014286Y-64792914D02*
X159919048Y-64840533D01*
X165159580Y-65566666D02*
X165207200Y-65614285D01*
X165207200Y-65614285D02*
X165254819Y-65757142D01*
X165254819Y-65757142D02*
X165254819Y-65852380D01*
X165254819Y-65852380D02*
X165207200Y-65995237D01*
X165207200Y-65995237D02*
X165111961Y-66090475D01*
X165111961Y-66090475D02*
X165016723Y-66138094D01*
X165016723Y-66138094D02*
X164826247Y-66185713D01*
X164826247Y-66185713D02*
X164683390Y-66185713D01*
X164683390Y-66185713D02*
X164492914Y-66138094D01*
X164492914Y-66138094D02*
X164397676Y-66090475D01*
X164397676Y-66090475D02*
X164302438Y-65995237D01*
X164302438Y-65995237D02*
X164254819Y-65852380D01*
X164254819Y-65852380D02*
X164254819Y-65757142D01*
X164254819Y-65757142D02*
X164302438Y-65614285D01*
X164302438Y-65614285D02*
X164350057Y-65566666D01*
X164588152Y-64709523D02*
X165254819Y-64709523D01*
X164207200Y-64947618D02*
X164921485Y-65185713D01*
X164921485Y-65185713D02*
X164921485Y-64566666D01*
X164473333Y-88084819D02*
X164140000Y-87608628D01*
X163901905Y-88084819D02*
X163901905Y-87084819D01*
X163901905Y-87084819D02*
X164282857Y-87084819D01*
X164282857Y-87084819D02*
X164378095Y-87132438D01*
X164378095Y-87132438D02*
X164425714Y-87180057D01*
X164425714Y-87180057D02*
X164473333Y-87275295D01*
X164473333Y-87275295D02*
X164473333Y-87418152D01*
X164473333Y-87418152D02*
X164425714Y-87513390D01*
X164425714Y-87513390D02*
X164378095Y-87561009D01*
X164378095Y-87561009D02*
X164282857Y-87608628D01*
X164282857Y-87608628D02*
X163901905Y-87608628D01*
X165425714Y-88084819D02*
X164854286Y-88084819D01*
X165140000Y-88084819D02*
X165140000Y-87084819D01*
X165140000Y-87084819D02*
X165044762Y-87227676D01*
X165044762Y-87227676D02*
X164949524Y-87322914D01*
X164949524Y-87322914D02*
X164854286Y-87370533D01*
X166061905Y-85554819D02*
X166061905Y-84554819D01*
X166061905Y-84554819D02*
X166300000Y-84554819D01*
X166300000Y-84554819D02*
X166442857Y-84602438D01*
X166442857Y-84602438D02*
X166538095Y-84697676D01*
X166538095Y-84697676D02*
X166585714Y-84792914D01*
X166585714Y-84792914D02*
X166633333Y-84983390D01*
X166633333Y-84983390D02*
X166633333Y-85126247D01*
X166633333Y-85126247D02*
X166585714Y-85316723D01*
X166585714Y-85316723D02*
X166538095Y-85411961D01*
X166538095Y-85411961D02*
X166442857Y-85507200D01*
X166442857Y-85507200D02*
X166300000Y-85554819D01*
X166300000Y-85554819D02*
X166061905Y-85554819D01*
X167490476Y-84888152D02*
X167490476Y-85554819D01*
X167252381Y-84507200D02*
X167014286Y-85221485D01*
X167014286Y-85221485D02*
X167633333Y-85221485D01*
X161961905Y-85654819D02*
X161961905Y-84654819D01*
X161961905Y-84654819D02*
X162200000Y-84654819D01*
X162200000Y-84654819D02*
X162342857Y-84702438D01*
X162342857Y-84702438D02*
X162438095Y-84797676D01*
X162438095Y-84797676D02*
X162485714Y-84892914D01*
X162485714Y-84892914D02*
X162533333Y-85083390D01*
X162533333Y-85083390D02*
X162533333Y-85226247D01*
X162533333Y-85226247D02*
X162485714Y-85416723D01*
X162485714Y-85416723D02*
X162438095Y-85511961D01*
X162438095Y-85511961D02*
X162342857Y-85607200D01*
X162342857Y-85607200D02*
X162200000Y-85654819D01*
X162200000Y-85654819D02*
X161961905Y-85654819D01*
X162866667Y-84654819D02*
X163485714Y-84654819D01*
X163485714Y-84654819D02*
X163152381Y-85035771D01*
X163152381Y-85035771D02*
X163295238Y-85035771D01*
X163295238Y-85035771D02*
X163390476Y-85083390D01*
X163390476Y-85083390D02*
X163438095Y-85131009D01*
X163438095Y-85131009D02*
X163485714Y-85226247D01*
X163485714Y-85226247D02*
X163485714Y-85464342D01*
X163485714Y-85464342D02*
X163438095Y-85559580D01*
X163438095Y-85559580D02*
X163390476Y-85607200D01*
X163390476Y-85607200D02*
X163295238Y-85654819D01*
X163295238Y-85654819D02*
X163009524Y-85654819D01*
X163009524Y-85654819D02*
X162914286Y-85607200D01*
X162914286Y-85607200D02*
X162866667Y-85559580D01*
X162038095Y-76554819D02*
X162038095Y-77364342D01*
X162038095Y-77364342D02*
X162085714Y-77459580D01*
X162085714Y-77459580D02*
X162133333Y-77507200D01*
X162133333Y-77507200D02*
X162228571Y-77554819D01*
X162228571Y-77554819D02*
X162419047Y-77554819D01*
X162419047Y-77554819D02*
X162514285Y-77507200D01*
X162514285Y-77507200D02*
X162561904Y-77459580D01*
X162561904Y-77459580D02*
X162609523Y-77364342D01*
X162609523Y-77364342D02*
X162609523Y-76554819D01*
X163514285Y-76888152D02*
X163514285Y-77554819D01*
X163276190Y-76507200D02*
X163038095Y-77221485D01*
X163038095Y-77221485D02*
X163657142Y-77221485D01*
%TO.C,U5*%
D12*
X160460000Y-67060000D02*
X161010000Y-67060000D01*
X160460000Y-67610000D02*
X160460000Y-67060000D01*
X160460000Y-73280000D02*
X160460000Y-72730000D01*
X161010000Y-73280000D02*
X160460000Y-73280000D01*
X166130000Y-67060000D02*
X166680000Y-67060000D01*
X166680000Y-67060000D02*
X166680000Y-67610000D01*
X166680000Y-72730000D02*
X166680000Y-73280000D01*
X166680000Y-73280000D02*
X166130000Y-73280000D01*
X161370000Y-73780000D02*
X161610000Y-74110000D01*
X161130000Y-74110000D01*
X161370000Y-73780000D01*
G36*
X161610000Y-74110000D02*
G01*
X161130000Y-74110000D01*
X161370000Y-73780000D01*
X161610000Y-74110000D01*
G37*
%TO.C,AE1*%
D13*
X160060430Y-62483799D02*
X161660430Y-62483799D01*
%TO.C,R2*%
D12*
X163144889Y-64533971D02*
X163144889Y-64749643D01*
X162424889Y-64533971D02*
X162424889Y-64749643D01*
%TO.C,L1*%
X161457673Y-65460467D02*
X161242001Y-65460467D01*
X161457673Y-64740467D02*
X161242001Y-64740467D01*
%TO.C,C4*%
X163407338Y-65687836D02*
X163407338Y-65472164D01*
X164127338Y-65687836D02*
X164127338Y-65472164D01*
%TO.C,R1*%
X164877258Y-86722500D02*
X164402742Y-86722500D01*
X164877258Y-85677500D02*
X164402742Y-85677500D01*
%TO.C,D4*%
X165190000Y-83150000D02*
X165190000Y-84850000D01*
X165190000Y-83150000D02*
X167850000Y-83150000D01*
X165190000Y-84850000D02*
X167850000Y-84850000D01*
%TO.C,D3*%
X164410000Y-84850000D02*
X164410000Y-83150000D01*
X164410000Y-84850000D02*
X161750000Y-84850000D01*
X164410000Y-83150000D02*
X161750000Y-83150000D01*
%TO.C,D23*%
X172300000Y-63833948D02*
X172300000Y-67033948D01*
X172300000Y-63833948D02*
X174300000Y-63833948D01*
X174600000Y-64133948D02*
X174300000Y-63833948D01*
X174600000Y-64133948D02*
X174600000Y-67033948D01*
X174600000Y-67033948D02*
X172300000Y-67033948D01*
%TO.C,D26*%
X165283361Y-54325977D02*
X166697575Y-52911763D01*
X165283361Y-54325977D02*
X167546103Y-56588719D01*
X167121839Y-52911763D02*
X166697575Y-52911763D01*
X167121839Y-52911763D02*
X169172449Y-54962373D01*
X169172449Y-54962373D02*
X167546103Y-56588719D01*
%TO.C,D20*%
X172300000Y-74371171D02*
X172300000Y-77571171D01*
X172300000Y-74371171D02*
X174300000Y-74371171D01*
X174600000Y-74671171D02*
X174300000Y-74371171D01*
X174600000Y-74671171D02*
X174600000Y-77571171D01*
X174600000Y-77571171D02*
X172300000Y-77571171D01*
%TO.C,D21*%
X172300000Y-70792883D02*
X172300000Y-73992883D01*
X172300000Y-70792883D02*
X174300000Y-70792883D01*
X174600000Y-71092883D02*
X174300000Y-70792883D01*
X174600000Y-71092883D02*
X174600000Y-73992883D01*
X174600000Y-73992883D02*
X172300000Y-73992883D01*
%TO.C,D18*%
X172300000Y-81400000D02*
X172300000Y-84600000D01*
X172300000Y-81400000D02*
X174300000Y-81400000D01*
X174600000Y-81700000D02*
X174300000Y-81400000D01*
X174600000Y-81700000D02*
X174600000Y-84600000D01*
X174600000Y-84600000D02*
X172300000Y-84600000D01*
%TO.C,D14*%
X163418109Y-97199728D02*
X163418109Y-94899728D01*
X166318109Y-97199728D02*
X163418109Y-97199728D01*
X166318109Y-97199728D02*
X166618109Y-96899728D01*
X166618109Y-94899728D02*
X163418109Y-94899728D01*
X166618109Y-94899728D02*
X166618109Y-96899728D01*
%TO.C,D25*%
X168584223Y-57412449D02*
X169998437Y-55998235D01*
X168584223Y-57412449D02*
X170846965Y-59675191D01*
X170422701Y-55998235D02*
X169998437Y-55998235D01*
X170422701Y-55998235D02*
X172473311Y-58048845D01*
X172473311Y-58048845D02*
X170846965Y-59675191D01*
%TO.C,D22*%
X172300000Y-67346306D02*
X172300000Y-70546306D01*
X172300000Y-67346306D02*
X174300000Y-67346306D01*
X174600000Y-67646306D02*
X174300000Y-67346306D01*
X174600000Y-67646306D02*
X174600000Y-70546306D01*
X174600000Y-70546306D02*
X172300000Y-70546306D01*
%TO.C,D19*%
X172300000Y-77833393D02*
X172300000Y-81033393D01*
X172300000Y-77833393D02*
X174300000Y-77833393D01*
X174600000Y-78133393D02*
X174300000Y-77833393D01*
X174600000Y-78133393D02*
X174600000Y-81033393D01*
X174600000Y-81033393D02*
X172300000Y-81033393D01*
%TO.C,D5*%
X155262822Y-63756130D02*
X157562822Y-63756130D01*
X155262822Y-66656130D02*
X155262822Y-63756130D01*
X155262822Y-66656130D02*
X155562822Y-66956130D01*
X157562822Y-66956130D02*
X155562822Y-66956130D01*
X157562822Y-66956130D02*
X157562822Y-63756130D01*
%TO.C,D11*%
X155972554Y-85962727D02*
X157901495Y-84710057D01*
X157552007Y-88394873D02*
X155972554Y-85962727D01*
X157552007Y-88394873D02*
X157966999Y-88483083D01*
X159644340Y-87393805D02*
X157901495Y-84710057D01*
X159644340Y-87393805D02*
X157966999Y-88483083D01*
%TO.C,D13*%
X159873355Y-91903260D02*
X161802298Y-90650590D01*
X161452809Y-94335405D02*
X159873355Y-91903260D01*
X161452809Y-94335405D02*
X161867801Y-94423614D01*
X163545143Y-93334336D02*
X161802298Y-90650590D01*
X163545143Y-93334336D02*
X161867801Y-94423614D01*
%TO.C,D24*%
X172300000Y-60353432D02*
X172300000Y-63553432D01*
X172300000Y-60353432D02*
X174300000Y-60353432D01*
X174600000Y-60653432D02*
X174300000Y-60353432D01*
X174600000Y-60653432D02*
X174600000Y-63553432D01*
X174600000Y-63553432D02*
X172300000Y-63553432D01*
%TO.C,D8*%
X155262822Y-74383603D02*
X157562822Y-74383603D01*
X155262822Y-77283603D02*
X155262822Y-74383603D01*
X155262822Y-77283603D02*
X155562822Y-77583603D01*
X157562822Y-77583603D02*
X155562822Y-77583603D01*
X157562822Y-77583603D02*
X157562822Y-74383603D01*
%TO.C,D10*%
X155262822Y-81354759D02*
X157562822Y-81354759D01*
X155262822Y-84254759D02*
X155262822Y-81354759D01*
X155262822Y-84254759D02*
X155562822Y-84554759D01*
X157562822Y-84554759D02*
X155562822Y-84554759D01*
X157562822Y-84554759D02*
X157562822Y-81354759D01*
%TO.C,D1*%
X155262822Y-60315000D02*
X157562822Y-60315000D01*
X155262822Y-63215000D02*
X155262822Y-60315000D01*
X155262822Y-63215000D02*
X155562822Y-63515000D01*
X157562822Y-63515000D02*
X155562822Y-63515000D01*
X157562822Y-63515000D02*
X157562822Y-60315000D01*
%TO.C,U4*%
X160590000Y-74055000D02*
X164710000Y-74055000D01*
X160590000Y-74175000D02*
X160590000Y-74055000D01*
X160590000Y-79175000D02*
X160590000Y-79055000D01*
X164710000Y-74055000D02*
X164710000Y-74175000D01*
X164710000Y-79055000D02*
X164710000Y-79175000D01*
X164710000Y-79175000D02*
X160590000Y-79175000D01*
X165310000Y-79065000D02*
X165550000Y-79395000D01*
X165070000Y-79395000D01*
X165310000Y-79065000D01*
G36*
X165550000Y-79395000D02*
G01*
X165070000Y-79395000D01*
X165310000Y-79065000D01*
X165550000Y-79395000D01*
G37*
%TO.C,D6*%
X155262822Y-67280720D02*
X157562822Y-67280720D01*
X155262822Y-70180720D02*
X155262822Y-67280720D01*
X155262822Y-70180720D02*
X155562822Y-70480720D01*
X157562822Y-70480720D02*
X155562822Y-70480720D01*
X157562822Y-70480720D02*
X157562822Y-67280720D01*
%TO.C,D7*%
X155262822Y-70836381D02*
X157562822Y-70836381D01*
X155262822Y-73736381D02*
X155262822Y-70836381D01*
X155262822Y-73736381D02*
X155562822Y-74036381D01*
X157562822Y-74036381D02*
X155562822Y-74036381D01*
X157562822Y-74036381D02*
X157562822Y-70836381D01*
%TO.C,D16*%
X169976540Y-87666986D02*
X168233695Y-90350732D01*
X169976540Y-87666986D02*
X171653881Y-88756264D01*
X170162638Y-91603402D02*
X168233695Y-90350732D01*
X171742091Y-89171257D02*
X170162638Y-91603402D01*
X171742091Y-89171257D02*
X171653881Y-88756264D01*
%TO.C,D15*%
X168068646Y-90653400D02*
X166325801Y-93337146D01*
X168068646Y-90653400D02*
X169745988Y-91742679D01*
X168254744Y-94589816D02*
X166325801Y-93337146D01*
X169834197Y-92157671D02*
X168254744Y-94589816D01*
X169834197Y-92157671D02*
X169745988Y-91742679D01*
%TO.C,D17*%
X171964608Y-84706746D02*
X170221763Y-87390492D01*
X171964608Y-84706746D02*
X173641949Y-85796024D01*
X172150706Y-88643162D02*
X170221763Y-87390492D01*
X173730159Y-86211017D02*
X172150706Y-88643162D01*
X173730159Y-86211017D02*
X173641949Y-85796024D01*
%TO.C,D28*%
X158123507Y-57825890D02*
X158123507Y-58250154D01*
X158123507Y-57825890D02*
X160174117Y-55775280D01*
X159537721Y-59664368D02*
X158123507Y-58250154D01*
X159537721Y-59664368D02*
X161800463Y-57401626D01*
X160174117Y-55775280D02*
X161800463Y-57401626D01*
%TO.C,D27*%
X161056221Y-54771529D02*
X161056221Y-55195793D01*
X161056221Y-54771529D02*
X163106831Y-52720919D01*
X162470435Y-56610007D02*
X161056221Y-55195793D01*
X162470435Y-56610007D02*
X164733177Y-54347265D01*
X163106831Y-52720919D02*
X164733177Y-54347265D01*
%TO.C,D12*%
X157955656Y-88889174D02*
X159884599Y-87636504D01*
X159535110Y-91321319D02*
X157955656Y-88889174D01*
X159535110Y-91321319D02*
X159950102Y-91409528D01*
X161627444Y-90320250D02*
X159884599Y-87636504D01*
X161627444Y-90320250D02*
X159950102Y-91409528D01*
%TO.C,D9*%
X155262822Y-77822447D02*
X157562822Y-77822447D01*
X155262822Y-80722447D02*
X155262822Y-77822447D01*
X155262822Y-80722447D02*
X155562822Y-81022447D01*
X157562822Y-81022447D02*
X155562822Y-81022447D01*
X157562822Y-81022447D02*
X157562822Y-77822447D01*
%TD*%
M02*
