%TF.GenerationSoftware,KiCad,Pcbnew,10.0.5*%
%TF.CreationDate,2026-08-19T19:39:00+02:00*%
%TF.ProjectId,Leucht-Ohrringe,4c657563-6874-42d4-9f68-7272696e6765,rev?*%
%TF.SameCoordinates,Original*%
%TF.FileFunction,Legend,Bot*%
%TF.FilePolarity,Positive*%
%FSLAX46Y46*%
G04 Gerber Fmt 4.6, Leading zero omitted, Abs format (unit mm)*
G04 Created by KiCad (PCBNEW 10.0.5) date 2026-08-19 19:39:00*
%MOMM*%
%LPD*%
G01*
G04 APERTURE LIST*
%ADD10C,0.125000*%
%ADD11C,0.250000*%
%ADD12C,0.100000*%
%ADD13C,0.150000*%
%ADD14C,0.120000*%
G04 APERTURE END LIST*
D10*
G36*
X165933926Y-56832665D02*
G01*
X165910026Y-56824323D01*
X165890661Y-56811964D01*
X165875086Y-56795475D01*
X165862973Y-56774260D01*
X165854720Y-56747273D01*
X165851860Y-56716528D01*
X165854791Y-56687101D01*
X165863298Y-56661085D01*
X165877355Y-56637754D01*
X165897472Y-56616632D01*
X165921028Y-56600635D01*
X165950782Y-56588423D01*
X165988108Y-56580436D01*
X166034676Y-56577523D01*
X166081630Y-56580771D01*
X166117605Y-56589524D01*
X166144882Y-56602705D01*
X166165254Y-56619868D01*
X166182294Y-56642218D01*
X166194131Y-56665490D01*
X166201187Y-56690005D01*
X166203570Y-56716192D01*
X166200054Y-56750371D01*
X166190077Y-56778896D01*
X166173894Y-56802959D01*
X166152262Y-56822473D01*
X166126612Y-56836320D01*
X166096103Y-56844633D01*
X166096103Y-56728160D01*
X166010129Y-56728160D01*
X166010129Y-56937873D01*
X166279774Y-56937873D01*
X166279774Y-56868202D01*
X166217247Y-56857608D01*
X166248647Y-56826947D01*
X166266523Y-56802959D01*
X166280005Y-56774175D01*
X166288492Y-56740371D01*
X166291497Y-56700499D01*
X166288587Y-56660934D01*
X166280156Y-56625333D01*
X166266429Y-56593050D01*
X166247320Y-56563574D01*
X166222437Y-56536551D01*
X166193742Y-56513305D01*
X166161074Y-56494953D01*
X166123858Y-56481420D01*
X166081349Y-56472919D01*
X166032661Y-56469934D01*
X165983536Y-56472915D01*
X165940187Y-56481443D01*
X165901809Y-56495081D01*
X165867719Y-56513647D01*
X165837389Y-56537223D01*
X165811129Y-56565636D01*
X165790836Y-56597118D01*
X165776160Y-56632100D01*
X165767084Y-56671198D01*
X165763933Y-56715184D01*
X165767305Y-56763088D01*
X165776847Y-56804034D01*
X165791994Y-56839156D01*
X165812598Y-56869363D01*
X165838853Y-56895745D01*
X165867529Y-56915343D01*
X165899014Y-56928760D01*
X165933926Y-56936163D01*
X165933926Y-56832665D01*
G37*
G36*
X165775656Y-57036638D02*
G01*
X165775656Y-57146975D01*
X166124893Y-57347468D01*
X165775656Y-57347468D01*
X165775656Y-57445501D01*
X166279774Y-57445501D01*
X166279774Y-57340293D01*
X165921622Y-57134671D01*
X166279774Y-57134671D01*
X166279774Y-57036638D01*
X165775656Y-57036638D01*
G37*
G36*
X166279774Y-57760330D02*
G01*
X166276964Y-57797991D01*
X166268914Y-57830998D01*
X166255949Y-57860113D01*
X166238049Y-57885937D01*
X166214859Y-57908866D01*
X166185709Y-57929071D01*
X166150358Y-57946131D01*
X166110640Y-57958722D01*
X166065906Y-57966613D01*
X166015411Y-57969371D01*
X165975339Y-57967047D01*
X165931972Y-57959785D01*
X165903537Y-57951581D01*
X165876466Y-57939681D01*
X165850547Y-57923942D01*
X165822600Y-57899656D01*
X165801460Y-57871276D01*
X165786586Y-57838213D01*
X165778989Y-57805037D01*
X165775656Y-57760330D01*
X165775656Y-57742561D01*
X165861630Y-57742561D01*
X165864782Y-57778444D01*
X165873228Y-57805026D01*
X165886054Y-57824504D01*
X165903243Y-57838365D01*
X165932090Y-57850853D01*
X165970954Y-57859289D01*
X166022525Y-57862454D01*
X166059838Y-57860507D01*
X166091940Y-57855016D01*
X166119550Y-57846395D01*
X166147375Y-57832128D01*
X166167770Y-57814931D01*
X166182020Y-57794726D01*
X166190740Y-57770936D01*
X166193800Y-57742561D01*
X166193800Y-57645566D01*
X165861630Y-57645566D01*
X165861630Y-57742561D01*
X165775656Y-57742561D01*
X165775656Y-57543442D01*
X166279774Y-57543442D01*
X166279774Y-57760330D01*
G37*
G36*
X164915000Y-55958483D02*
G01*
X164717651Y-55958483D01*
X164717651Y-56067110D01*
X164719929Y-56097898D01*
X164725659Y-56117970D01*
X164733710Y-56130460D01*
X164745791Y-56138944D01*
X164765990Y-56145201D01*
X164797885Y-56148046D01*
X164844658Y-56148748D01*
X164888011Y-56153175D01*
X164915000Y-56160013D01*
X164915000Y-56275785D01*
X164902360Y-56275785D01*
X164890806Y-56263646D01*
X164873692Y-56256673D01*
X164858636Y-56254791D01*
X164826919Y-56253925D01*
X164793092Y-56253925D01*
X164757776Y-56251953D01*
X164732248Y-56246805D01*
X164714262Y-56239392D01*
X164698826Y-56227972D01*
X164685505Y-56211849D01*
X164674268Y-56190055D01*
X164662058Y-56215797D01*
X164645778Y-56235404D01*
X164625175Y-56249834D01*
X164601519Y-56260022D01*
X164578075Y-56265975D01*
X164554558Y-56267938D01*
X164525858Y-56265447D01*
X164501527Y-56258382D01*
X164479299Y-56247120D01*
X164459120Y-56232431D01*
X164438708Y-56210472D01*
X164423888Y-56184071D01*
X164417654Y-56164612D01*
X164413101Y-56138053D01*
X164410882Y-56102616D01*
X164410882Y-56080757D01*
X164496856Y-56080757D01*
X164499455Y-56112573D01*
X164505832Y-56131987D01*
X164515190Y-56144805D01*
X164528041Y-56154141D01*
X164545209Y-56160171D01*
X164568022Y-56162395D01*
X164588830Y-56160163D01*
X164604608Y-56154060D01*
X164616553Y-56144454D01*
X164625327Y-56130979D01*
X164631215Y-56110847D01*
X164633632Y-56077673D01*
X164633632Y-55958483D01*
X164496856Y-55958483D01*
X164496856Y-56080757D01*
X164410882Y-56080757D01*
X164410882Y-55855687D01*
X164915000Y-55855687D01*
X164915000Y-55958483D01*
G37*
G36*
X164500764Y-56730687D02*
G01*
X164500764Y-56464248D01*
X164608230Y-56464248D01*
X164608230Y-56708827D01*
X164696158Y-56708827D01*
X164696158Y-56464248D01*
X164825118Y-56464248D01*
X164825118Y-56742960D01*
X164915000Y-56742960D01*
X164915000Y-56361453D01*
X164410882Y-56361453D01*
X164410882Y-56730687D01*
X164500764Y-56730687D01*
G37*
G36*
X164758684Y-56901046D02*
G01*
X164780588Y-56905695D01*
X164796852Y-56912073D01*
X164808662Y-56919822D01*
X164820945Y-56933563D01*
X164830311Y-56951925D01*
X164836502Y-56976098D01*
X164838796Y-57007628D01*
X164836561Y-57043000D01*
X164830766Y-57068078D01*
X164820858Y-57088160D01*
X164808283Y-57101466D01*
X164792813Y-57109365D01*
X164773491Y-57112133D01*
X164758397Y-57109696D01*
X164746023Y-57102598D01*
X164735664Y-57090273D01*
X164724256Y-57064974D01*
X164712278Y-57021611D01*
X164700249Y-56968335D01*
X164686268Y-56915713D01*
X164673307Y-56881067D01*
X164661536Y-56859708D01*
X164642131Y-56837859D01*
X164618196Y-56822181D01*
X164588797Y-56812337D01*
X164552482Y-56808814D01*
X164519627Y-56811977D01*
X164490399Y-56821167D01*
X164464040Y-56836342D01*
X164440039Y-56857998D01*
X164421492Y-56883611D01*
X164407535Y-56915314D01*
X164398514Y-56954406D01*
X164395251Y-57002499D01*
X164398041Y-57041943D01*
X164406105Y-57077315D01*
X164419189Y-57109252D01*
X164437322Y-57138267D01*
X164455433Y-57158395D01*
X164476260Y-57174187D01*
X164500145Y-57185954D01*
X164527621Y-57193714D01*
X164559382Y-57197191D01*
X164559382Y-57096074D01*
X164537931Y-57092384D01*
X164520677Y-57084588D01*
X164506739Y-57072782D01*
X164495665Y-57056446D01*
X164486530Y-57029981D01*
X164483178Y-56995324D01*
X164485215Y-56968644D01*
X164490817Y-56947361D01*
X164499481Y-56930416D01*
X164511891Y-56916847D01*
X164526756Y-56908917D01*
X164544911Y-56906175D01*
X164561385Y-56908872D01*
X164574440Y-56916646D01*
X164584936Y-56930081D01*
X164593198Y-56949977D01*
X164605788Y-56995660D01*
X164626732Y-57082427D01*
X164637853Y-57119965D01*
X164650194Y-57148039D01*
X164663399Y-57168492D01*
X164682770Y-57187908D01*
X164705825Y-57201829D01*
X164733307Y-57210510D01*
X164766317Y-57213586D01*
X164799703Y-57210222D01*
X164829475Y-57200424D01*
X164856428Y-57184162D01*
X164881080Y-57160799D01*
X164900105Y-57133429D01*
X164914328Y-57100279D01*
X164923449Y-57060188D01*
X164926723Y-57011719D01*
X164923528Y-56962187D01*
X164914590Y-56920728D01*
X164900610Y-56886024D01*
X164881905Y-56856991D01*
X164862661Y-56836725D01*
X164841112Y-56821175D01*
X164816949Y-56809971D01*
X164789684Y-56803044D01*
X164758684Y-56800632D01*
X164758684Y-56901046D01*
G37*
G36*
X164500764Y-57663695D02*
G01*
X164500764Y-57397256D01*
X164608230Y-57397256D01*
X164608230Y-57641835D01*
X164696158Y-57641835D01*
X164696158Y-57397256D01*
X164825118Y-57397256D01*
X164825118Y-57675968D01*
X164915000Y-57675968D01*
X164915000Y-57294460D01*
X164410882Y-57294460D01*
X164410882Y-57663695D01*
X164500764Y-57663695D01*
G37*
G36*
X164410882Y-58123695D02*
G01*
X164500764Y-58123695D01*
X164500764Y-57973059D01*
X164915000Y-57973059D01*
X164915000Y-57867179D01*
X164500764Y-57867179D01*
X164500764Y-57715871D01*
X164410882Y-57715871D01*
X164410882Y-58123695D01*
G37*
G36*
X163535345Y-60744048D02*
G01*
X163557249Y-60748697D01*
X163573513Y-60755075D01*
X163585323Y-60762824D01*
X163597606Y-60776565D01*
X163606972Y-60794927D01*
X163613163Y-60819100D01*
X163615457Y-60850630D01*
X163613222Y-60886002D01*
X163607427Y-60911080D01*
X163597519Y-60931162D01*
X163584944Y-60944468D01*
X163569474Y-60952367D01*
X163550152Y-60955135D01*
X163535058Y-60952698D01*
X163522684Y-60945600D01*
X163512325Y-60933275D01*
X163500917Y-60907976D01*
X163488939Y-60864613D01*
X163476910Y-60811337D01*
X163462929Y-60758715D01*
X163449968Y-60724069D01*
X163438197Y-60702710D01*
X163418792Y-60680861D01*
X163394857Y-60665183D01*
X163365458Y-60655339D01*
X163329143Y-60651816D01*
X163296288Y-60654979D01*
X163267060Y-60664169D01*
X163240701Y-60679344D01*
X163216700Y-60701000D01*
X163198153Y-60726613D01*
X163184196Y-60758316D01*
X163175175Y-60797408D01*
X163171912Y-60845501D01*
X163174702Y-60884945D01*
X163182766Y-60920317D01*
X163195850Y-60952254D01*
X163213983Y-60981269D01*
X163232094Y-61001396D01*
X163252921Y-61017189D01*
X163276806Y-61028956D01*
X163304282Y-61036716D01*
X163336043Y-61040193D01*
X163336043Y-60939076D01*
X163314592Y-60935386D01*
X163297338Y-60927590D01*
X163283400Y-60915784D01*
X163272326Y-60899448D01*
X163263191Y-60872983D01*
X163259839Y-60838326D01*
X163261876Y-60811646D01*
X163267478Y-60790363D01*
X163276142Y-60773418D01*
X163288552Y-60759849D01*
X163303417Y-60751919D01*
X163321572Y-60749177D01*
X163338046Y-60751874D01*
X163351101Y-60759648D01*
X163361597Y-60773083D01*
X163369859Y-60792979D01*
X163382449Y-60838662D01*
X163403393Y-60925429D01*
X163414514Y-60962967D01*
X163426855Y-60991041D01*
X163440060Y-61011494D01*
X163459431Y-61030910D01*
X163482486Y-61044831D01*
X163509968Y-61053512D01*
X163542978Y-61056587D01*
X163576364Y-61053224D01*
X163606136Y-61043426D01*
X163633089Y-61027164D01*
X163657741Y-61003800D01*
X163676766Y-60976431D01*
X163690989Y-60943281D01*
X163700110Y-60903190D01*
X163703384Y-60854721D01*
X163700189Y-60805189D01*
X163691251Y-60763730D01*
X163677271Y-60729026D01*
X163658566Y-60699993D01*
X163639322Y-60679727D01*
X163617773Y-60664177D01*
X163593610Y-60652973D01*
X163566345Y-60646046D01*
X163535345Y-60643634D01*
X163535345Y-60744048D01*
G37*
G36*
X163187543Y-61203042D02*
G01*
X163476208Y-61269659D01*
X163556564Y-61283978D01*
X163477917Y-61298663D01*
X163187543Y-61355388D01*
X163187543Y-61466396D01*
X163476208Y-61526144D01*
X163556564Y-61541532D01*
X163479261Y-61556888D01*
X163187543Y-61624177D01*
X163187543Y-61731095D01*
X163691661Y-61589342D01*
X163691661Y-61488928D01*
X163396859Y-61428142D01*
X163299376Y-61410373D01*
X163396859Y-61392605D01*
X163691661Y-61331819D01*
X163691661Y-61234121D01*
X163187543Y-61091362D01*
X163187543Y-61203042D01*
G37*
G36*
X163691661Y-62011699D02*
G01*
X163688851Y-62049361D01*
X163680801Y-62082367D01*
X163667836Y-62111482D01*
X163649936Y-62137306D01*
X163626746Y-62160236D01*
X163597596Y-62180440D01*
X163562245Y-62197500D01*
X163522527Y-62210091D01*
X163477793Y-62217983D01*
X163427298Y-62220740D01*
X163387226Y-62218416D01*
X163343859Y-62211154D01*
X163315424Y-62202950D01*
X163288353Y-62191050D01*
X163262434Y-62175311D01*
X163234487Y-62151025D01*
X163213347Y-62122646D01*
X163198473Y-62089582D01*
X163190876Y-62056406D01*
X163187543Y-62011699D01*
X163187543Y-61993930D01*
X163273517Y-61993930D01*
X163276669Y-62029813D01*
X163285115Y-62056395D01*
X163297941Y-62075873D01*
X163315130Y-62089735D01*
X163343977Y-62102223D01*
X163382841Y-62110658D01*
X163434412Y-62113823D01*
X163471725Y-62111877D01*
X163503827Y-62106385D01*
X163531437Y-62097764D01*
X163559262Y-62083497D01*
X163579657Y-62066300D01*
X163593907Y-62046095D01*
X163602627Y-62022305D01*
X163605687Y-61993930D01*
X163605687Y-61896936D01*
X163273517Y-61896936D01*
X163273517Y-61993930D01*
X163187543Y-61993930D01*
X163187543Y-61794811D01*
X163691661Y-61794811D01*
X163691661Y-62011699D01*
G37*
G36*
X163691661Y-62396229D02*
G01*
X163187543Y-62396229D01*
X163187543Y-62291724D01*
X163691661Y-62291724D01*
X163691661Y-62396229D01*
G37*
G36*
X163492465Y-62479028D02*
G01*
X163539512Y-62488875D01*
X163579970Y-62504448D01*
X163614820Y-62525473D01*
X163644796Y-62552056D01*
X163665045Y-62575706D01*
X163681137Y-62603331D01*
X163693105Y-62635538D01*
X163700695Y-62673125D01*
X163703384Y-62717042D01*
X163700696Y-62760944D01*
X163693106Y-62798522D01*
X163681138Y-62830724D01*
X163665046Y-62858346D01*
X163644796Y-62881997D01*
X163614839Y-62908450D01*
X163579999Y-62929382D01*
X163539542Y-62944892D01*
X163492485Y-62954702D01*
X163437648Y-62958171D01*
X163381455Y-62954643D01*
X163333868Y-62944727D01*
X163293544Y-62929153D01*
X163259367Y-62908265D01*
X163230499Y-62881997D01*
X163210250Y-62858346D01*
X163194158Y-62830724D01*
X163182190Y-62798522D01*
X163174600Y-62760944D01*
X163171912Y-62717042D01*
X163171914Y-62717011D01*
X163259839Y-62717011D01*
X163262881Y-62747327D01*
X163271618Y-62773441D01*
X163285922Y-62796225D01*
X163306276Y-62816235D01*
X163330124Y-62831422D01*
X163359229Y-62842890D01*
X163394647Y-62850295D01*
X163437648Y-62852963D01*
X163480842Y-62850289D01*
X163516338Y-62842874D01*
X163545433Y-62831405D01*
X163569203Y-62816235D01*
X163589468Y-62796236D01*
X163603717Y-62773457D01*
X163612424Y-62747338D01*
X163615457Y-62717011D01*
X163612433Y-62686704D01*
X163603737Y-62660492D01*
X163589486Y-62637529D01*
X163569203Y-62617269D01*
X163545401Y-62601880D01*
X163516293Y-62590262D01*
X163480808Y-62582758D01*
X163437648Y-62580052D01*
X163394488Y-62582758D01*
X163359002Y-62590262D01*
X163329895Y-62601880D01*
X163306093Y-62617269D01*
X163285810Y-62637529D01*
X163271559Y-62660492D01*
X163262863Y-62686704D01*
X163259839Y-62717011D01*
X163171914Y-62717011D01*
X163174600Y-62673125D01*
X163182191Y-62635538D01*
X163194159Y-62603331D01*
X163210251Y-62575706D01*
X163230499Y-62552056D01*
X163259386Y-62525658D01*
X163293575Y-62504677D01*
X163333900Y-62489040D01*
X163381477Y-62479087D01*
X163437648Y-62475547D01*
X163492465Y-62479028D01*
G37*
G36*
X164839888Y-60731464D02*
G01*
X164861792Y-60736113D01*
X164878056Y-60742491D01*
X164889866Y-60750240D01*
X164902149Y-60763981D01*
X164911515Y-60782343D01*
X164917706Y-60806516D01*
X164920000Y-60838046D01*
X164917765Y-60873418D01*
X164911970Y-60898496D01*
X164902062Y-60918578D01*
X164889487Y-60931884D01*
X164874017Y-60939783D01*
X164854695Y-60942551D01*
X164839601Y-60940114D01*
X164827227Y-60933016D01*
X164816868Y-60920691D01*
X164805460Y-60895392D01*
X164793482Y-60852029D01*
X164781453Y-60798753D01*
X164767472Y-60746131D01*
X164754511Y-60711485D01*
X164742740Y-60690126D01*
X164723335Y-60668277D01*
X164699400Y-60652599D01*
X164670001Y-60642755D01*
X164633686Y-60639232D01*
X164600831Y-60642395D01*
X164571603Y-60651585D01*
X164545244Y-60666760D01*
X164521243Y-60688416D01*
X164502696Y-60714029D01*
X164488739Y-60745732D01*
X164479718Y-60784824D01*
X164476455Y-60832917D01*
X164479245Y-60872361D01*
X164487309Y-60907733D01*
X164500393Y-60939670D01*
X164518526Y-60968685D01*
X164536637Y-60988812D01*
X164557464Y-61004605D01*
X164581349Y-61016372D01*
X164608825Y-61024132D01*
X164640586Y-61027609D01*
X164640586Y-60926492D01*
X164619135Y-60922802D01*
X164601881Y-60915006D01*
X164587943Y-60903200D01*
X164576869Y-60886864D01*
X164567734Y-60860399D01*
X164564382Y-60825742D01*
X164566419Y-60799062D01*
X164572021Y-60777779D01*
X164580685Y-60760834D01*
X164593095Y-60747265D01*
X164607960Y-60739335D01*
X164626115Y-60736593D01*
X164642589Y-60739290D01*
X164655644Y-60747064D01*
X164666140Y-60760499D01*
X164674402Y-60780395D01*
X164686992Y-60826078D01*
X164707936Y-60912845D01*
X164719057Y-60950383D01*
X164731398Y-60978457D01*
X164744603Y-60998910D01*
X164763974Y-61018326D01*
X164787029Y-61032247D01*
X164814511Y-61040928D01*
X164847521Y-61044003D01*
X164880907Y-61040640D01*
X164910679Y-61030842D01*
X164937632Y-61014580D01*
X164962284Y-60991216D01*
X164981309Y-60963847D01*
X164995532Y-60930697D01*
X165004653Y-60890606D01*
X165007927Y-60842137D01*
X165004732Y-60792605D01*
X164995794Y-60751146D01*
X164981814Y-60716442D01*
X164963109Y-60687409D01*
X164943865Y-60667143D01*
X164922316Y-60651593D01*
X164898153Y-60640389D01*
X164870888Y-60633462D01*
X164839888Y-60631050D01*
X164839888Y-60731464D01*
G37*
G36*
X164492086Y-61190458D02*
G01*
X164780751Y-61257075D01*
X164861107Y-61271394D01*
X164782460Y-61286079D01*
X164492086Y-61342804D01*
X164492086Y-61453812D01*
X164780751Y-61513560D01*
X164861107Y-61528948D01*
X164783804Y-61544304D01*
X164492086Y-61611593D01*
X164492086Y-61718511D01*
X164996204Y-61576758D01*
X164996204Y-61476344D01*
X164701402Y-61415558D01*
X164603919Y-61397789D01*
X164701402Y-61380021D01*
X164996204Y-61319235D01*
X164996204Y-61221537D01*
X164492086Y-61078778D01*
X164492086Y-61190458D01*
G37*
G36*
X164746984Y-61760368D02*
G01*
X164693536Y-61763598D01*
X164647555Y-61772738D01*
X164607941Y-61787175D01*
X164573768Y-61806611D01*
X164544324Y-61831076D01*
X164522093Y-61856884D01*
X164504933Y-61885032D01*
X164492560Y-61915857D01*
X164484946Y-61949825D01*
X164482317Y-61987514D01*
X164484954Y-62030725D01*
X164492430Y-62068038D01*
X164504265Y-62100315D01*
X164520234Y-62128282D01*
X164540376Y-62152497D01*
X164564993Y-62173321D01*
X164597053Y-62192133D01*
X164627932Y-62203464D01*
X164658171Y-62208156D01*
X164658171Y-62102949D01*
X164624656Y-62090488D01*
X164603217Y-62076662D01*
X164589268Y-62061264D01*
X164579052Y-62042475D01*
X164572568Y-62019580D01*
X164570244Y-61991605D01*
X164573228Y-61964004D01*
X164581828Y-61940219D01*
X164596026Y-61919410D01*
X164616467Y-61901082D01*
X164639995Y-61887487D01*
X164668892Y-61877124D01*
X164704227Y-61870391D01*
X164747259Y-61867957D01*
X164790358Y-61870574D01*
X164824860Y-61877741D01*
X164852310Y-61888674D01*
X164873990Y-61902944D01*
X164892647Y-61921938D01*
X164905606Y-61942787D01*
X164913411Y-61965905D01*
X164916092Y-61991940D01*
X164913625Y-62019136D01*
X164906680Y-62041699D01*
X164895586Y-62060543D01*
X164880188Y-62076296D01*
X164857842Y-62090159D01*
X164822303Y-62102949D01*
X164822303Y-62207149D01*
X164862456Y-62197363D01*
X164897750Y-62182447D01*
X164928867Y-62162495D01*
X164956300Y-62137296D01*
X164978533Y-62107815D01*
X164994550Y-62074511D01*
X165004466Y-62036662D01*
X165007927Y-61993314D01*
X165004885Y-61949893D01*
X164996186Y-61911861D01*
X164982226Y-61878374D01*
X164963069Y-61848756D01*
X164938440Y-61822528D01*
X164909827Y-61801018D01*
X164877056Y-61783903D01*
X164839519Y-61771203D01*
X164796458Y-61763189D01*
X164746984Y-61760368D01*
G37*
G36*
X164492086Y-62287322D02*
G01*
X164492086Y-62392529D01*
X164908276Y-62392529D01*
X164908276Y-62641871D01*
X164996204Y-62641871D01*
X164996204Y-62287322D01*
X164492086Y-62287322D01*
G37*
G36*
X164492086Y-62716456D02*
G01*
X164492086Y-62819954D01*
X164699265Y-62819954D01*
X164492086Y-63014311D01*
X164492086Y-63150232D01*
X164699693Y-62943938D01*
X164996204Y-63160826D01*
X164996204Y-63025576D01*
X164776354Y-62870177D01*
X164827584Y-62819954D01*
X164996204Y-62819954D01*
X164996204Y-62716456D01*
X164492086Y-62716456D01*
G37*
G36*
X166119264Y-60727269D02*
G01*
X166141168Y-60731918D01*
X166157432Y-60738296D01*
X166169242Y-60746045D01*
X166181525Y-60759786D01*
X166190891Y-60778148D01*
X166197082Y-60802321D01*
X166199376Y-60833851D01*
X166197141Y-60869223D01*
X166191346Y-60894301D01*
X166181438Y-60914383D01*
X166168863Y-60927689D01*
X166153393Y-60935588D01*
X166134071Y-60938356D01*
X166118977Y-60935919D01*
X166106603Y-60928821D01*
X166096244Y-60916496D01*
X166084836Y-60891197D01*
X166072858Y-60847834D01*
X166060829Y-60794558D01*
X166046848Y-60741936D01*
X166033887Y-60707290D01*
X166022116Y-60685931D01*
X166002711Y-60664082D01*
X165978776Y-60648404D01*
X165949377Y-60638560D01*
X165913062Y-60635037D01*
X165880207Y-60638200D01*
X165850979Y-60647390D01*
X165824620Y-60662565D01*
X165800619Y-60684221D01*
X165782072Y-60709834D01*
X165768115Y-60741537D01*
X165759094Y-60780629D01*
X165755831Y-60828722D01*
X165758621Y-60868166D01*
X165766685Y-60903538D01*
X165779769Y-60935475D01*
X165797902Y-60964490D01*
X165816013Y-60984617D01*
X165836840Y-61000410D01*
X165860725Y-61012177D01*
X165888201Y-61019937D01*
X165919962Y-61023414D01*
X165919962Y-60922297D01*
X165898511Y-60918607D01*
X165881257Y-60910811D01*
X165867319Y-60899005D01*
X165856245Y-60882669D01*
X165847110Y-60856204D01*
X165843758Y-60821547D01*
X165845795Y-60794867D01*
X165851397Y-60773584D01*
X165860061Y-60756639D01*
X165872471Y-60743070D01*
X165887336Y-60735140D01*
X165905491Y-60732398D01*
X165921965Y-60735095D01*
X165935020Y-60742869D01*
X165945516Y-60756304D01*
X165953778Y-60776200D01*
X165966368Y-60821883D01*
X165987312Y-60908650D01*
X165998433Y-60946188D01*
X166010774Y-60974262D01*
X166023979Y-60994715D01*
X166043350Y-61014131D01*
X166066405Y-61028052D01*
X166093887Y-61036733D01*
X166126897Y-61039808D01*
X166160283Y-61036445D01*
X166190055Y-61026647D01*
X166217008Y-61010385D01*
X166241660Y-60987021D01*
X166260685Y-60959652D01*
X166274908Y-60926502D01*
X166284029Y-60886411D01*
X166287303Y-60837942D01*
X166284108Y-60788410D01*
X166275170Y-60746951D01*
X166261190Y-60712247D01*
X166242485Y-60683214D01*
X166223241Y-60662948D01*
X166201692Y-60647398D01*
X166177529Y-60636194D01*
X166150264Y-60629267D01*
X166119264Y-60626855D01*
X166119264Y-60727269D01*
G37*
G36*
X165771462Y-61186263D02*
G01*
X166060127Y-61252880D01*
X166140483Y-61267199D01*
X166061836Y-61281884D01*
X165771462Y-61338609D01*
X165771462Y-61449617D01*
X166060127Y-61509365D01*
X166140483Y-61524753D01*
X166063180Y-61540109D01*
X165771462Y-61607398D01*
X165771462Y-61714316D01*
X166275580Y-61572563D01*
X166275580Y-61472149D01*
X165980778Y-61411363D01*
X165883295Y-61393594D01*
X165980778Y-61375826D01*
X166275580Y-61315040D01*
X166275580Y-61217342D01*
X165771462Y-61074583D01*
X165771462Y-61186263D01*
G37*
G36*
X166076384Y-61762737D02*
G01*
X166123431Y-61772584D01*
X166163889Y-61788158D01*
X166198739Y-61809183D01*
X166228715Y-61835765D01*
X166248964Y-61859416D01*
X166265056Y-61887040D01*
X166277024Y-61919248D01*
X166284614Y-61956835D01*
X166287303Y-62000751D01*
X166284615Y-62044654D01*
X166277025Y-62082232D01*
X166265057Y-62114434D01*
X166248965Y-62142056D01*
X166228715Y-62165707D01*
X166198758Y-62192159D01*
X166163918Y-62213091D01*
X166123461Y-62228602D01*
X166076404Y-62238412D01*
X166021567Y-62241880D01*
X165965374Y-62238353D01*
X165917787Y-62228437D01*
X165877463Y-62212863D01*
X165843286Y-62191974D01*
X165814418Y-62165707D01*
X165794169Y-62142056D01*
X165778077Y-62114434D01*
X165766109Y-62082232D01*
X165758519Y-62044654D01*
X165755831Y-62000751D01*
X165755833Y-62000721D01*
X165843758Y-62000721D01*
X165846800Y-62031036D01*
X165855537Y-62057150D01*
X165869841Y-62079934D01*
X165890195Y-62099945D01*
X165914043Y-62115132D01*
X165943148Y-62126599D01*
X165978566Y-62134004D01*
X166021567Y-62136673D01*
X166064761Y-62133998D01*
X166100257Y-62126583D01*
X166129352Y-62115115D01*
X166153122Y-62099945D01*
X166173387Y-62079946D01*
X166187636Y-62057166D01*
X166196343Y-62031048D01*
X166199376Y-62000721D01*
X166196352Y-61970413D01*
X166187656Y-61944201D01*
X166173405Y-61921238D01*
X166153122Y-61900978D01*
X166129320Y-61885590D01*
X166100212Y-61873972D01*
X166064727Y-61866467D01*
X166021567Y-61863762D01*
X165978407Y-61866467D01*
X165942921Y-61873972D01*
X165913814Y-61885590D01*
X165890012Y-61900978D01*
X165869729Y-61921238D01*
X165855478Y-61944201D01*
X165846782Y-61970413D01*
X165843758Y-62000721D01*
X165755833Y-62000721D01*
X165758519Y-61956835D01*
X165766110Y-61919248D01*
X165778078Y-61887040D01*
X165794170Y-61859416D01*
X165814418Y-61835765D01*
X165843305Y-61809368D01*
X165877494Y-61788386D01*
X165917819Y-61772750D01*
X165965396Y-61762796D01*
X166021567Y-61759256D01*
X166076384Y-61762737D01*
G37*
D11*
G36*
X173641889Y-70273523D02*
G01*
X173709403Y-70283616D01*
X173771693Y-70303394D01*
X173823831Y-70334113D01*
X173863178Y-70369786D01*
X173895577Y-70413187D01*
X173920468Y-70462163D01*
X173935502Y-70515239D01*
X173940640Y-70573471D01*
X173935974Y-70630047D01*
X173922685Y-70678663D01*
X173901317Y-70720750D01*
X173871533Y-70756994D01*
X173833201Y-70786471D01*
X173784874Y-70809410D01*
X173830921Y-70838104D01*
X173861383Y-70867051D01*
X173886438Y-70906969D01*
X173902206Y-70955853D01*
X173907850Y-71016039D01*
X173902435Y-71074452D01*
X173886847Y-71125441D01*
X173861383Y-71170462D01*
X173828437Y-71206434D01*
X173787374Y-71235378D01*
X173736820Y-71257462D01*
X173674842Y-71272146D01*
X173599066Y-71278234D01*
X173109970Y-71278234D01*
X173109970Y-71106287D01*
X173310799Y-71106287D01*
X173532144Y-71106287D01*
X173601783Y-71101854D01*
X173652372Y-71090228D01*
X173682185Y-71070046D01*
X173700327Y-71039690D01*
X173707021Y-70995401D01*
X173701831Y-70954389D01*
X173687856Y-70925352D01*
X173665683Y-70905092D01*
X173637022Y-70891525D01*
X173601667Y-70882787D01*
X173558094Y-70879630D01*
X173310799Y-70879630D01*
X173310799Y-71106287D01*
X173109970Y-71106287D01*
X173109970Y-70711591D01*
X173310799Y-70711591D01*
X173561514Y-70711591D01*
X173623099Y-70706378D01*
X173663302Y-70694433D01*
X173691717Y-70676584D01*
X173711514Y-70653365D01*
X173723796Y-70623835D01*
X173728210Y-70586050D01*
X173723446Y-70540559D01*
X173710409Y-70505858D01*
X173689914Y-70479414D01*
X173661287Y-70459776D01*
X173620272Y-70446989D01*
X173558094Y-70441946D01*
X173310799Y-70441946D01*
X173310799Y-70711591D01*
X173109970Y-70711591D01*
X173109970Y-70270000D01*
X173566277Y-70270000D01*
X173641889Y-70273523D01*
G37*
G36*
X174042306Y-70750669D02*
G01*
X174434377Y-70750669D01*
X174434377Y-70566999D01*
X174042306Y-70566999D01*
X174042306Y-70750669D01*
G37*
G36*
X173641889Y-74173523D02*
G01*
X173709403Y-74183616D01*
X173771693Y-74203394D01*
X173823831Y-74234113D01*
X173863178Y-74269786D01*
X173895577Y-74313187D01*
X173920468Y-74362163D01*
X173935502Y-74415239D01*
X173940640Y-74473471D01*
X173935974Y-74530047D01*
X173922685Y-74578663D01*
X173901317Y-74620750D01*
X173871533Y-74656994D01*
X173833201Y-74686471D01*
X173784874Y-74709410D01*
X173830921Y-74738104D01*
X173861383Y-74767051D01*
X173886438Y-74806969D01*
X173902206Y-74855853D01*
X173907850Y-74916039D01*
X173902435Y-74974452D01*
X173886847Y-75025441D01*
X173861383Y-75070462D01*
X173828437Y-75106434D01*
X173787374Y-75135378D01*
X173736820Y-75157462D01*
X173674842Y-75172146D01*
X173599066Y-75178234D01*
X173109970Y-75178234D01*
X173109970Y-75006287D01*
X173310799Y-75006287D01*
X173532144Y-75006287D01*
X173601783Y-75001854D01*
X173652372Y-74990228D01*
X173682185Y-74970046D01*
X173700327Y-74939690D01*
X173707021Y-74895401D01*
X173701831Y-74854389D01*
X173687856Y-74825352D01*
X173665683Y-74805092D01*
X173637022Y-74791525D01*
X173601667Y-74782787D01*
X173558094Y-74779630D01*
X173310799Y-74779630D01*
X173310799Y-75006287D01*
X173109970Y-75006287D01*
X173109970Y-74611591D01*
X173310799Y-74611591D01*
X173561514Y-74611591D01*
X173623099Y-74606378D01*
X173663302Y-74594433D01*
X173691717Y-74576584D01*
X173711514Y-74553365D01*
X173723796Y-74523835D01*
X173728210Y-74486050D01*
X173723446Y-74440559D01*
X173710409Y-74405858D01*
X173689914Y-74379414D01*
X173661287Y-74359776D01*
X173620272Y-74346989D01*
X173558094Y-74341946D01*
X173310799Y-74341946D01*
X173310799Y-74611591D01*
X173109970Y-74611591D01*
X173109970Y-74170000D01*
X173566277Y-74170000D01*
X173641889Y-74173523D01*
G37*
G36*
X174060075Y-74451367D02*
G01*
X174060075Y-74627222D01*
X174340160Y-74627222D01*
X174340160Y-74908590D01*
X174519801Y-74908590D01*
X174519801Y-74627222D01*
X174799886Y-74627222D01*
X174799886Y-74451367D01*
X174519801Y-74451367D01*
X174519801Y-74170000D01*
X174340160Y-74170000D01*
X174340160Y-74451367D01*
X174060075Y-74451367D01*
G37*
D12*
G36*
X162307096Y-57613264D02*
G01*
X162162962Y-58040536D01*
X162020538Y-57613264D01*
X161944364Y-57613264D01*
X162127424Y-58115000D01*
X162199507Y-58115000D01*
X162382231Y-57613264D01*
X162307096Y-57613264D01*
G37*
G36*
X161877137Y-58115000D02*
G01*
X161674598Y-58115000D01*
X161632218Y-58111587D01*
X161595764Y-58101869D01*
X161564193Y-58086265D01*
X161536717Y-58064693D01*
X161512871Y-58036581D01*
X161492546Y-58000908D01*
X161476070Y-57956971D01*
X161465955Y-57909048D01*
X161463241Y-57868039D01*
X161531808Y-57868039D01*
X161533034Y-57892740D01*
X161536937Y-57920643D01*
X161544535Y-57951782D01*
X161554303Y-57977477D01*
X161565971Y-57998526D01*
X161584789Y-58021436D01*
X161606298Y-58038298D01*
X161630879Y-58049756D01*
X161654688Y-58054946D01*
X161687574Y-58056931D01*
X161808840Y-58056931D01*
X161808840Y-57671668D01*
X161688245Y-57671668D01*
X161654972Y-57674048D01*
X161627251Y-57680708D01*
X161604125Y-57691167D01*
X161584834Y-57705277D01*
X161568872Y-57723234D01*
X161553623Y-57749503D01*
X161542031Y-57781597D01*
X161534518Y-57820659D01*
X161531808Y-57868039D01*
X161463241Y-57868039D01*
X161462473Y-57856438D01*
X161465965Y-57804773D01*
X161475904Y-57759931D01*
X161491756Y-57720857D01*
X161513367Y-57686689D01*
X161537904Y-57660384D01*
X161565672Y-57640148D01*
X161597105Y-57625517D01*
X161632885Y-57616436D01*
X161673896Y-57613264D01*
X161877137Y-57613264D01*
X161877137Y-58115000D01*
G37*
G36*
X161372042Y-58115000D02*
G01*
X161169504Y-58115000D01*
X161127123Y-58111587D01*
X161090670Y-58101869D01*
X161059098Y-58086265D01*
X161031623Y-58064693D01*
X161007777Y-58036581D01*
X160987452Y-58000908D01*
X160970976Y-57956971D01*
X160960861Y-57909048D01*
X160958147Y-57868039D01*
X161026714Y-57868039D01*
X161027939Y-57892740D01*
X161031843Y-57920643D01*
X161039441Y-57951782D01*
X161049209Y-57977477D01*
X161060877Y-57998526D01*
X161079695Y-58021436D01*
X161101204Y-58038298D01*
X161125785Y-58049756D01*
X161149594Y-58054946D01*
X161182479Y-58056931D01*
X161303746Y-58056931D01*
X161303746Y-57671668D01*
X161183151Y-57671668D01*
X161149878Y-57674048D01*
X161122157Y-57680708D01*
X161099030Y-57691167D01*
X161079740Y-57705277D01*
X161063777Y-57723234D01*
X161048528Y-57749503D01*
X161036937Y-57781597D01*
X161029424Y-57820659D01*
X161026714Y-57868039D01*
X160958147Y-57868039D01*
X160957379Y-57856438D01*
X160960871Y-57804773D01*
X160970810Y-57759931D01*
X160986662Y-57720857D01*
X161008273Y-57686689D01*
X161032809Y-57660384D01*
X161060578Y-57640148D01*
X161092011Y-57625517D01*
X161127791Y-57616436D01*
X161168802Y-57613264D01*
X161372042Y-57613264D01*
X161372042Y-58115000D01*
G37*
D13*
X171731009Y-71914285D02*
X171778628Y-72057142D01*
X171778628Y-72057142D02*
X171826247Y-72104761D01*
X171826247Y-72104761D02*
X171921485Y-72152380D01*
X171921485Y-72152380D02*
X172064342Y-72152380D01*
X172064342Y-72152380D02*
X172159580Y-72104761D01*
X172159580Y-72104761D02*
X172207200Y-72057142D01*
X172207200Y-72057142D02*
X172254819Y-71961904D01*
X172254819Y-71961904D02*
X172254819Y-71580952D01*
X172254819Y-71580952D02*
X171254819Y-71580952D01*
X171254819Y-71580952D02*
X171254819Y-71914285D01*
X171254819Y-71914285D02*
X171302438Y-72009523D01*
X171302438Y-72009523D02*
X171350057Y-72057142D01*
X171350057Y-72057142D02*
X171445295Y-72104761D01*
X171445295Y-72104761D02*
X171540533Y-72104761D01*
X171540533Y-72104761D02*
X171635771Y-72057142D01*
X171635771Y-72057142D02*
X171683390Y-72009523D01*
X171683390Y-72009523D02*
X171731009Y-71914285D01*
X171731009Y-71914285D02*
X171731009Y-71580952D01*
X171254819Y-72438095D02*
X171254819Y-73009523D01*
X172254819Y-72723809D02*
X171254819Y-72723809D01*
X172254819Y-73866666D02*
X172254819Y-73295238D01*
X172254819Y-73580952D02*
X171254819Y-73580952D01*
X171254819Y-73580952D02*
X171397676Y-73485714D01*
X171397676Y-73485714D02*
X171492914Y-73390476D01*
X171492914Y-73390476D02*
X171540533Y-73295238D01*
X168528873Y-81154819D02*
X168528873Y-80154819D01*
X168528873Y-80154819D02*
X168290778Y-80154819D01*
X168290778Y-80154819D02*
X168147921Y-80202438D01*
X168147921Y-80202438D02*
X168052683Y-80297676D01*
X168052683Y-80297676D02*
X168005064Y-80392914D01*
X168005064Y-80392914D02*
X167957445Y-80583390D01*
X167957445Y-80583390D02*
X167957445Y-80726247D01*
X167957445Y-80726247D02*
X168005064Y-80916723D01*
X168005064Y-80916723D02*
X168052683Y-81011961D01*
X168052683Y-81011961D02*
X168147921Y-81107200D01*
X168147921Y-81107200D02*
X168290778Y-81154819D01*
X168290778Y-81154819D02*
X168528873Y-81154819D01*
X167576492Y-80250057D02*
X167528873Y-80202438D01*
X167528873Y-80202438D02*
X167433635Y-80154819D01*
X167433635Y-80154819D02*
X167195540Y-80154819D01*
X167195540Y-80154819D02*
X167100302Y-80202438D01*
X167100302Y-80202438D02*
X167052683Y-80250057D01*
X167052683Y-80250057D02*
X167005064Y-80345295D01*
X167005064Y-80345295D02*
X167005064Y-80440533D01*
X167005064Y-80440533D02*
X167052683Y-80583390D01*
X167052683Y-80583390D02*
X167624111Y-81154819D01*
X167624111Y-81154819D02*
X167005064Y-81154819D01*
X167733333Y-56454819D02*
X167733333Y-57169104D01*
X167733333Y-57169104D02*
X167780952Y-57311961D01*
X167780952Y-57311961D02*
X167876190Y-57407200D01*
X167876190Y-57407200D02*
X168019047Y-57454819D01*
X168019047Y-57454819D02*
X168114285Y-57454819D01*
X166733333Y-57454819D02*
X167304761Y-57454819D01*
X167019047Y-57454819D02*
X167019047Y-56454819D01*
X167019047Y-56454819D02*
X167114285Y-56597676D01*
X167114285Y-56597676D02*
X167209523Y-56692914D01*
X167209523Y-56692914D02*
X167304761Y-56740533D01*
X165488094Y-79954819D02*
X165488094Y-78954819D01*
X165488094Y-78954819D02*
X165107142Y-78954819D01*
X165107142Y-78954819D02*
X165011904Y-79002438D01*
X165011904Y-79002438D02*
X164964285Y-79050057D01*
X164964285Y-79050057D02*
X164916666Y-79145295D01*
X164916666Y-79145295D02*
X164916666Y-79288152D01*
X164916666Y-79288152D02*
X164964285Y-79383390D01*
X164964285Y-79383390D02*
X165011904Y-79431009D01*
X165011904Y-79431009D02*
X165107142Y-79478628D01*
X165107142Y-79478628D02*
X165488094Y-79478628D01*
X163964285Y-79954819D02*
X164535713Y-79954819D01*
X164249999Y-79954819D02*
X164249999Y-78954819D01*
X164249999Y-78954819D02*
X164345237Y-79097676D01*
X164345237Y-79097676D02*
X164440475Y-79192914D01*
X164440475Y-79192914D02*
X164535713Y-79240533D01*
X157818439Y-68450277D02*
X158627962Y-68450277D01*
X158627962Y-68450277D02*
X158723200Y-68497896D01*
X158723200Y-68497896D02*
X158770820Y-68545515D01*
X158770820Y-68545515D02*
X158818439Y-68640753D01*
X158818439Y-68640753D02*
X158818439Y-68831229D01*
X158818439Y-68831229D02*
X158770820Y-68926467D01*
X158770820Y-68926467D02*
X158723200Y-68974086D01*
X158723200Y-68974086D02*
X158627962Y-69021705D01*
X158627962Y-69021705D02*
X157818439Y-69021705D01*
X158818439Y-70021705D02*
X158818439Y-69450277D01*
X158818439Y-69735991D02*
X157818439Y-69735991D01*
X157818439Y-69735991D02*
X157961296Y-69640753D01*
X157961296Y-69640753D02*
X158056534Y-69545515D01*
X158056534Y-69545515D02*
X158104153Y-69450277D01*
X159014819Y-77158095D02*
X159824342Y-77158095D01*
X159824342Y-77158095D02*
X159919580Y-77205714D01*
X159919580Y-77205714D02*
X159967200Y-77253333D01*
X159967200Y-77253333D02*
X160014819Y-77348571D01*
X160014819Y-77348571D02*
X160014819Y-77539047D01*
X160014819Y-77539047D02*
X159967200Y-77634285D01*
X159967200Y-77634285D02*
X159919580Y-77681904D01*
X159919580Y-77681904D02*
X159824342Y-77729523D01*
X159824342Y-77729523D02*
X159014819Y-77729523D01*
X159110057Y-78158095D02*
X159062438Y-78205714D01*
X159062438Y-78205714D02*
X159014819Y-78300952D01*
X159014819Y-78300952D02*
X159014819Y-78539047D01*
X159014819Y-78539047D02*
X159062438Y-78634285D01*
X159062438Y-78634285D02*
X159110057Y-78681904D01*
X159110057Y-78681904D02*
X159205295Y-78729523D01*
X159205295Y-78729523D02*
X159300533Y-78729523D01*
X159300533Y-78729523D02*
X159443390Y-78681904D01*
X159443390Y-78681904D02*
X160014819Y-78110476D01*
X160014819Y-78110476D02*
X160014819Y-78729523D01*
%TO.C,D2*%
D14*
X166530779Y-80000000D02*
X166530779Y-78800000D01*
X168490779Y-80000000D02*
X166530779Y-80000000D01*
X168490779Y-78800000D02*
X166530779Y-78800000D01*
%TO.C,J1*%
X162819809Y-58121990D02*
X162819809Y-58756990D01*
X163454809Y-58121990D02*
X162819809Y-58121990D01*
%TO.C,P1*%
X160170000Y-85070000D02*
X160170000Y-83150000D01*
X160170000Y-87080000D02*
X160170000Y-88785000D01*
X160170000Y-88785000D02*
X169330000Y-88785000D01*
X169330000Y-83150000D02*
X169330000Y-85070000D01*
X169330000Y-88785000D02*
X169330000Y-87080000D01*
%TO.C,U1*%
X160383620Y-67762182D02*
X160713620Y-68002182D01*
X160713620Y-67522182D01*
X160383620Y-67762182D01*
G36*
X160713620Y-68002182D02*
G01*
X160383620Y-67762182D01*
X160713620Y-67522182D01*
X160713620Y-68002182D01*
G37*
%TO.C,U2*%
X160400000Y-77010000D02*
X160400000Y-78830000D01*
X160400000Y-78830000D02*
X161400000Y-78830000D01*
X160450000Y-77010000D02*
X160400000Y-77010000D01*
X162350000Y-77010000D02*
X161570000Y-77010000D01*
X162520000Y-78830000D02*
X163520000Y-78830000D01*
X163520000Y-77010000D02*
X163470000Y-77010000D01*
X163520000Y-78830000D02*
X163520000Y-77010000D01*
X161580000Y-76470000D02*
X161910000Y-76710000D01*
X161910000Y-76230000D01*
X161580000Y-76470000D01*
G36*
X161910000Y-76710000D02*
G01*
X161580000Y-76470000D01*
X161910000Y-76230000D01*
X161910000Y-76710000D01*
G37*
%TD*%
M02*
