%TF.GenerationSoftware,KiCad,Pcbnew,10.0.5*%
%TF.CreationDate,2026-08-19T19:39:00+02:00*%
%TF.ProjectId,Leucht-Ohrringe,4c657563-6874-42d4-9f68-7272696e6765,rev?*%
%TF.SameCoordinates,Original*%
%TF.FileFunction,Soldermask,Bot*%
%TF.FilePolarity,Negative*%
%FSLAX46Y46*%
G04 Gerber Fmt 4.6, Leading zero omitted, Abs format (unit mm)*
G04 Created by KiCad (PCBNEW 10.0.5) date 2026-08-19 19:39:00*
%MOMM*%
%LPD*%
G01*
G04 APERTURE LIST*
G04 Aperture macros list*
%AMRoundRect*
0 Rectangle with rounded corners*
0 $1 Rounding radius*
0 $2 $3 $4 $5 $6 $7 $8 $9 X,Y pos of 4 corners*
0 Add a 4 corners polygon primitive as box body*
4,1,4,$2,$3,$4,$5,$6,$7,$8,$9,$2,$3,0*
0 Add four circle primitives for the rounded corners*
1,1,$1+$1,$2,$3*
1,1,$1+$1,$4,$5*
1,1,$1+$1,$6,$7*
1,1,$1+$1,$8,$9*
0 Add four rect primitives between the rounded corners*
20,1,$1+$1,$2,$3,$4,$5,0*
20,1,$1+$1,$4,$5,$6,$7,0*
20,1,$1+$1,$6,$7,$8,$9,0*
20,1,$1+$1,$8,$9,$2,$3,0*%
G04 Aperture macros list end*
%ADD10RoundRect,0.250000X1.100000X-0.250000X1.100000X0.250000X-1.100000X0.250000X-1.100000X-0.250000X0*%
%ADD11RoundRect,0.150000X0.700000X-0.150000X0.700000X0.150000X-0.700000X0.150000X-0.700000X-0.150000X0*%
%ADD12RoundRect,0.150000X0.150000X0.200000X-0.150000X0.200000X-0.150000X-0.200000X0.150000X-0.200000X0*%
%ADD13C,0.990600*%
%ADD14C,0.787400*%
%ADD15C,0.650000*%
%ADD16RoundRect,0.150000X0.150000X0.470000X-0.150000X0.470000X-0.150000X-0.470000X0.150000X-0.470000X0*%
%ADD17RoundRect,0.075000X0.075000X0.545000X-0.075000X0.545000X-0.075000X-0.545000X0.075000X-0.545000X0*%
%ADD18O,1.000000X1.800000*%
%ADD19O,1.000000X2.100000*%
%ADD20RoundRect,0.150000X-0.150000X0.512500X-0.150000X-0.512500X0.150000X-0.512500X0.150000X0.512500X0*%
G04 APERTURE END LIST*
D10*
%TO.C,BT1*%
X170350000Y-70225000D03*
X170350000Y-75175000D03*
D11*
X173550000Y-72075000D03*
X173550000Y-73325000D03*
%TD*%
D12*
%TO.C,D2*%
X167090779Y-79400000D03*
X168490779Y-79400000D03*
%TD*%
D13*
%TO.C,J1*%
X162184809Y-59391990D03*
X167264809Y-58375990D03*
X167264809Y-60407990D03*
D14*
X163454809Y-58756990D03*
X163454809Y-60026990D03*
X164724809Y-58756990D03*
X164724809Y-60026990D03*
X165994809Y-58756990D03*
X165994809Y-60026990D03*
%TD*%
D15*
%TO.C,P1*%
X167640000Y-82395000D03*
X161860000Y-82395000D03*
D16*
X167950000Y-81275000D03*
X167150000Y-81275000D03*
D17*
X166000000Y-81275000D03*
X165000000Y-81275000D03*
X164500000Y-81275000D03*
X163500000Y-81275000D03*
D16*
X162350000Y-81275000D03*
X161550000Y-81275000D03*
X161550000Y-81275000D03*
X162350000Y-81275000D03*
D17*
X163000000Y-81275000D03*
X164000000Y-81275000D03*
X165500000Y-81275000D03*
X166500000Y-81275000D03*
D16*
X167150000Y-81275000D03*
X167950000Y-81275000D03*
D18*
X169070000Y-86075000D03*
D19*
X169070000Y-81875000D03*
D18*
X160430000Y-86075000D03*
D19*
X160430000Y-81875000D03*
%TD*%
D20*
%TO.C,U1*%
X160763620Y-70349682D03*
X161713620Y-68074682D03*
X159813620Y-68074682D03*
%TD*%
%TO.C,U2*%
X161010001Y-76782500D03*
X162909999Y-76782500D03*
X161960000Y-79057500D03*
%TD*%
M02*
