%TF.GenerationSoftware,KiCad,Pcbnew,10.0.5*%
%TF.CreationDate,2026-08-19T19:39:00+02:00*%
%TF.ProjectId,Leucht-Ohrringe,4c657563-6874-42d4-9f68-7272696e6765,rev?*%
%TF.SameCoordinates,Original*%
%TF.FileFunction,Soldermask,Top*%
%TF.FilePolarity,Negative*%
%FSLAX46Y46*%
G04 Gerber Fmt 4.6, Leading zero omitted, Abs format (unit mm)*
G04 Created by KiCad (PCBNEW 10.0.5) date 2026-08-19 19:39:00*
%MOMM*%
%LPD*%
G01*
G04 APERTURE LIST*
G04 Aperture macros list*
%AMRoundRect*
0 Rectangle with rounded corners*
0 $1 Rounding radius*
0 $2 $3 $4 $5 $6 $7 $8 $9 X,Y pos of 4 corners*
0 Add a 4 corners polygon primitive as box body*
4,1,4,$2,$3,$4,$5,$6,$7,$8,$9,$2,$3,0*
0 Add four circle primitives for the rounded corners*
1,1,$1+$1,$2,$3*
1,1,$1+$1,$4,$5*
1,1,$1+$1,$6,$7*
1,1,$1+$1,$8,$9*
0 Add four rect primitives between the rounded corners*
20,1,$1+$1,$2,$3,$4,$5,0*
20,1,$1+$1,$4,$5,$6,$7,0*
20,1,$1+$1,$6,$7,$8,$9,0*
20,1,$1+$1,$8,$9,$2,$3,0*%
%AMRotRect*
0 Rectangle, with rotation*
0 The origin of the aperture is its center*
0 $1 length*
0 $2 width*
0 $3 Rotation angle, in degrees counterclockwise*
0 Add horizontal line*
21,1,$1,$2,0,0,$3*%
G04 Aperture macros list end*
%ADD10RoundRect,0.100000X0.130000X0.100000X-0.130000X0.100000X-0.130000X-0.100000X0.130000X-0.100000X0*%
%ADD11RoundRect,0.050000X0.050000X-0.350000X0.050000X0.350000X-0.050000X0.350000X-0.050000X-0.350000X0*%
%ADD12RoundRect,0.050000X0.350000X-0.050000X0.350000X0.050000X-0.350000X0.050000X-0.350000X-0.050000X0*%
%ADD13R,4.600000X4.600000*%
%ADD14R,1.660000X0.800000*%
%ADD15RoundRect,0.140000X-0.170000X0.140000X-0.170000X-0.140000X0.170000X-0.140000X0.170000X0.140000X0*%
%ADD16RoundRect,0.140000X0.140000X0.170000X-0.140000X0.170000X-0.140000X-0.170000X0.140000X-0.170000X0*%
%ADD17RoundRect,0.140000X0.170000X-0.140000X0.170000X0.140000X-0.170000X0.140000X-0.170000X-0.140000X0*%
%ADD18RoundRect,0.200000X0.200000X0.275000X-0.200000X0.275000X-0.200000X-0.275000X0.200000X-0.275000X0*%
%ADD19RoundRect,0.112500X-0.187500X-0.112500X0.187500X-0.112500X0.187500X0.112500X-0.187500X0.112500X0*%
%ADD20RoundRect,0.112500X0.187500X0.112500X-0.187500X0.112500X-0.187500X-0.112500X0.187500X-0.112500X0*%
%ADD21C,0.990600*%
%ADD22R,0.700000X0.700000*%
%ADD23RotRect,0.700000X0.700000X315.000000*%
%ADD24RotRect,0.700000X0.700000X123.000000*%
%ADD25RoundRect,0.137500X0.612500X0.137500X-0.612500X0.137500X-0.612500X-0.137500X0.612500X-0.137500X0*%
%ADD26RotRect,0.700000X0.700000X237.000000*%
%ADD27RotRect,0.700000X0.700000X45.000000*%
%ADD28C,0.650000*%
%ADD29O,1.000000X1.800000*%
%ADD30O,1.000000X2.100000*%
G04 APERTURE END LIST*
D10*
%TO.C,C1*%
X158946604Y-71583893D03*
X159586604Y-71583893D03*
%TD*%
D11*
%TO.C,U5*%
X161370000Y-73120000D03*
X161770000Y-73120000D03*
X162170000Y-73120000D03*
X162570000Y-73120000D03*
X162970000Y-73120000D03*
X163370000Y-73120000D03*
X163770000Y-73120000D03*
X164170000Y-73120000D03*
X164570000Y-73120000D03*
X164970000Y-73120000D03*
X165370000Y-73120000D03*
X165770000Y-73120000D03*
D12*
X166520000Y-72370000D03*
X166520000Y-71970000D03*
X166520000Y-71570000D03*
X166520000Y-71170000D03*
X166520000Y-70770000D03*
X166520000Y-70370000D03*
X166520000Y-69970000D03*
X166520000Y-69570000D03*
X166520000Y-69170000D03*
X166520000Y-68770000D03*
X166520000Y-68370000D03*
X166520000Y-67970000D03*
D11*
X165770000Y-67220000D03*
X165370000Y-67220000D03*
X164970000Y-67220000D03*
X164570000Y-67220000D03*
X164170000Y-67220000D03*
X163770000Y-67220000D03*
X163370000Y-67220000D03*
X162970000Y-67220000D03*
X162570000Y-67220000D03*
X162170000Y-67220000D03*
X161770000Y-67220000D03*
X161370000Y-67220000D03*
D12*
X160620000Y-67970000D03*
X160620000Y-68370000D03*
X160620000Y-68770000D03*
X160620000Y-69170000D03*
X160620000Y-69570000D03*
X160620000Y-69970000D03*
X160620000Y-70370000D03*
X160620000Y-70770000D03*
X160620000Y-71170000D03*
X160620000Y-71570000D03*
X160620000Y-71970000D03*
X160620000Y-72370000D03*
D13*
X163570000Y-70170000D03*
%TD*%
D10*
%TO.C,C2*%
X161940000Y-66170000D03*
X162580000Y-66170000D03*
%TD*%
%TO.C,C3*%
X159287825Y-73123151D03*
X159927825Y-73123151D03*
%TD*%
D14*
%TO.C,AE1*%
X160860430Y-60883799D03*
X160860430Y-63183799D03*
%TD*%
D15*
%TO.C,R2*%
X162784889Y-64161807D03*
X162784889Y-65121807D03*
%TD*%
D16*
%TO.C,L1*%
X161829837Y-65100467D03*
X160869837Y-65100467D03*
%TD*%
D17*
%TO.C,C4*%
X163767338Y-66060000D03*
X163767338Y-65100000D03*
%TD*%
D18*
%TO.C,R1*%
X163815000Y-86200000D03*
X165465000Y-86200000D03*
%TD*%
D19*
%TO.C,D4*%
X165750000Y-84000000D03*
X167850000Y-84000000D03*
%TD*%
D20*
%TO.C,D3*%
X163850000Y-84000000D03*
X161750000Y-84000000D03*
%TD*%
D21*
%TO.C,J1*%
X162184809Y-59391990D03*
X167264809Y-58375990D03*
X167264809Y-60407990D03*
%TD*%
D22*
%TO.C,D23*%
X174000000Y-64518948D03*
X172900000Y-64518948D03*
X172900000Y-66348948D03*
X174000000Y-66348948D03*
%TD*%
D23*
%TO.C,D26*%
X166969811Y-53608264D03*
X166191994Y-54386081D03*
X167485999Y-55680086D03*
X168263816Y-54902269D03*
%TD*%
D22*
%TO.C,D20*%
X174000000Y-75056171D03*
X172900000Y-75056171D03*
X172900000Y-76886171D03*
X174000000Y-76886171D03*
%TD*%
%TO.C,D21*%
X174000000Y-71477883D03*
X172900000Y-71477883D03*
X172900000Y-73307883D03*
X174000000Y-73307883D03*
%TD*%
%TO.C,D18*%
X174000000Y-82085000D03*
X172900000Y-82085000D03*
X172900000Y-83915000D03*
X174000000Y-83915000D03*
%TD*%
%TO.C,D14*%
X165933109Y-96599728D03*
X165933109Y-95499728D03*
X164103109Y-95499728D03*
X164103109Y-96599728D03*
%TD*%
D23*
%TO.C,D25*%
X170270673Y-56694736D03*
X169492856Y-57472553D03*
X170786861Y-58766558D03*
X171564678Y-57988741D03*
%TD*%
D22*
%TO.C,D22*%
X174000000Y-68031306D03*
X172900000Y-68031306D03*
X172900000Y-69861306D03*
X174000000Y-69861306D03*
%TD*%
%TO.C,D19*%
X174000000Y-78518393D03*
X172900000Y-78518393D03*
X172900000Y-80348393D03*
X174000000Y-80348393D03*
%TD*%
%TO.C,D5*%
X155862822Y-66271130D03*
X156962822Y-66271130D03*
X156962822Y-64441130D03*
X155862822Y-64441130D03*
%TD*%
D24*
%TO.C,D11*%
X157845523Y-87745201D03*
X158768061Y-87146098D03*
X157771371Y-85611331D03*
X156848833Y-86210434D03*
%TD*%
%TO.C,D13*%
X161746325Y-93685733D03*
X162668863Y-93086630D03*
X161672173Y-91551863D03*
X160749635Y-92150966D03*
%TD*%
D22*
%TO.C,D24*%
X174000000Y-61038432D03*
X172900000Y-61038432D03*
X172900000Y-62868432D03*
X174000000Y-62868432D03*
%TD*%
%TO.C,D8*%
X155862822Y-76898603D03*
X156962822Y-76898603D03*
X156962822Y-75068603D03*
X155862822Y-75068603D03*
%TD*%
%TO.C,D10*%
X155862822Y-83869759D03*
X156962822Y-83869759D03*
X156962822Y-82039759D03*
X155862822Y-82039759D03*
%TD*%
%TO.C,D1*%
X155862822Y-62830000D03*
X156962822Y-62830000D03*
X156962822Y-61000000D03*
X155862822Y-61000000D03*
%TD*%
D25*
%TO.C,U4*%
X165300000Y-78520000D03*
X165300000Y-77250000D03*
X165300000Y-75980000D03*
X165300000Y-74710000D03*
X160000000Y-74710000D03*
X160000000Y-75980000D03*
X160000000Y-77250000D03*
X160000000Y-78520000D03*
%TD*%
D22*
%TO.C,D6*%
X155862822Y-69795720D03*
X156962822Y-69795720D03*
X156962822Y-67965720D03*
X155862822Y-67965720D03*
%TD*%
%TO.C,D7*%
X155862822Y-73351381D03*
X156962822Y-73351381D03*
X156962822Y-71521381D03*
X155862822Y-71521381D03*
%TD*%
D26*
%TO.C,D16*%
X171029203Y-89167362D03*
X170106665Y-88568259D03*
X169109975Y-90103026D03*
X170032513Y-90702129D03*
%TD*%
%TO.C,D15*%
X169121309Y-92153776D03*
X168198771Y-91554673D03*
X167202081Y-93089440D03*
X168124619Y-93688543D03*
%TD*%
%TO.C,D17*%
X173017271Y-86207122D03*
X172094733Y-85608019D03*
X171098043Y-87142786D03*
X172020581Y-87741889D03*
%TD*%
D27*
%TO.C,D28*%
X158820008Y-57977918D03*
X159597825Y-58755735D03*
X160891830Y-57461730D03*
X160114013Y-56683913D03*
%TD*%
%TO.C,D27*%
X161752722Y-54923557D03*
X162530539Y-55701374D03*
X163824544Y-54407369D03*
X163046727Y-53629552D03*
%TD*%
D24*
%TO.C,D12*%
X159828626Y-90671647D03*
X160751164Y-90072544D03*
X159754474Y-88537777D03*
X158831936Y-89136880D03*
%TD*%
D22*
%TO.C,D9*%
X155862822Y-80337447D03*
X156962822Y-80337447D03*
X156962822Y-78507447D03*
X155862822Y-78507447D03*
%TD*%
D28*
%TO.C,P1*%
X167640000Y-82395000D03*
X161860000Y-82395000D03*
D29*
X169070000Y-86075000D03*
D30*
X169070000Y-81875000D03*
D29*
X160430000Y-86075000D03*
D30*
X160430000Y-81875000D03*
%TD*%
M02*
