%TF.GenerationSoftware,KiCad,Pcbnew,10.0.5*%
%TF.CreationDate,2026-08-28T14:23:02+02:00*%
%TF.ProjectId,Leucht-Ohrringe,4c657563-6874-42d4-9f68-7272696e6765,rev?*%
%TF.SameCoordinates,Original*%
%TF.FileFunction,Legend,Bot*%
%TF.FilePolarity,Positive*%
%FSLAX46Y46*%
G04 Gerber Fmt 4.6, Leading zero omitted, Abs format (unit mm)*
G04 Created by KiCad (PCBNEW 10.0.5) date 2026-08-28 14:23:02*
%MOMM*%
%LPD*%
G01*
G04 APERTURE LIST*
G04 Aperture macros list*
%AMRoundRect*
0 Rectangle with rounded corners*
0 $1 Rounding radius*
0 $2 $3 $4 $5 $6 $7 $8 $9 X,Y pos of 4 corners*
0 Add a 4 corners polygon primitive as box body*
4,1,4,$2,$3,$4,$5,$6,$7,$8,$9,$2,$3,0*
0 Add four circle primitives for the rounded corners*
1,1,$1+$1,$2,$3*
1,1,$1+$1,$4,$5*
1,1,$1+$1,$6,$7*
1,1,$1+$1,$8,$9*
0 Add four rect primitives between the rounded corners*
20,1,$1+$1,$2,$3,$4,$5,0*
20,1,$1+$1,$4,$5,$6,$7,0*
20,1,$1+$1,$6,$7,$8,$9,0*
20,1,$1+$1,$8,$9,$2,$3,0*%
%AMHorizOval*
0 Thick line with rounded ends*
0 $1 width*
0 $2 $3 position (X,Y) of the first rounded end (center of the circle)*
0 $4 $5 position (X,Y) of the second rounded end (center of the circle)*
0 Add line between two ends*
20,1,$1,$2,$3,$4,$5,0*
0 Add two circle primitives to create the rounded ends*
1,1,$1,$2,$3*
1,1,$1,$4,$5*%
G04 Aperture macros list end*
%ADD10C,0.125000*%
%ADD11C,0.250000*%
%ADD12C,0.100000*%
%ADD13C,0.150000*%
%ADD14C,0.120000*%
%ADD15RoundRect,0.112500X-0.262500X1.137500X-0.262500X-1.137500X0.262500X-1.137500X0.262500X1.137500X0*%
%ADD16C,0.990600*%
%ADD17C,0.787400*%
%ADD18RoundRect,0.155000X-0.212500X-0.155000X0.212500X-0.155000X0.212500X0.155000X-0.212500X0.155000X0*%
%ADD19C,0.500000*%
%ADD20RoundRect,0.135000X-0.490000X0.315000X-0.490000X-0.315000X0.490000X-0.315000X0.490000X0.315000X0*%
%ADD21RoundRect,0.120000X-0.330000X0.280000X-0.330000X-0.280000X0.330000X-0.280000X0.330000X0.280000X0*%
%ADD22RoundRect,0.160000X-0.160000X0.197500X-0.160000X-0.197500X0.160000X-0.197500X0.160000X0.197500X0*%
%ADD23RoundRect,0.160000X0.160000X-0.197500X0.160000X0.197500X-0.160000X0.197500X-0.160000X-0.197500X0*%
%ADD24RoundRect,0.150000X0.150000X-0.512500X0.150000X0.512500X-0.150000X0.512500X-0.150000X-0.512500X0*%
%ADD25RoundRect,0.237500X-0.300000X-0.237500X0.300000X-0.237500X0.300000X0.237500X-0.300000X0.237500X0*%
%ADD26RoundRect,0.150000X0.625000X-0.150000X0.625000X0.150000X-0.625000X0.150000X-0.625000X-0.150000X0*%
%ADD27RoundRect,0.250000X0.650000X-0.350000X0.650000X0.350000X-0.650000X0.350000X-0.650000X-0.350000X0*%
%ADD28C,0.650000*%
%ADD29RoundRect,0.150000X-0.312479X0.381781X-0.475871X0.130180X0.312479X-0.381781X0.475871X-0.130180X0*%
%ADD30RoundRect,0.075000X-0.416228X0.359729X-0.497923X0.233928X0.416228X-0.359729X0.497923X-0.233928X0*%
%ADD31HorizOval,1.000000X-0.335468X0.217856X0.335468X-0.217856X0*%
%ADD32HorizOval,1.000000X-0.461269X0.299551X0.461269X-0.299551X0*%
%ADD33RoundRect,0.250000X0.650000X-0.412500X0.650000X0.412500X-0.650000X0.412500X-0.650000X-0.412500X0*%
%ADD34RoundRect,0.150000X0.150000X0.200000X-0.150000X0.200000X-0.150000X-0.200000X0.150000X-0.200000X0*%
%ADD35RoundRect,0.160000X0.197500X0.160000X-0.197500X0.160000X-0.197500X-0.160000X0.197500X-0.160000X0*%
%ADD36RoundRect,0.155000X0.259862X-0.040659X-0.040659X0.259862X-0.259862X0.040659X0.040659X-0.259862X0*%
G04 APERTURE END LIST*
D10*
G36*
X163502131Y-57085435D02*
G01*
X163522092Y-57090816D01*
X163537726Y-57098282D01*
X163549820Y-57107630D01*
X163558808Y-57119591D01*
X163564525Y-57135174D01*
X163566612Y-57155471D01*
X163563626Y-57178358D01*
X163555233Y-57196353D01*
X163541424Y-57210640D01*
X163523749Y-57220930D01*
X163502881Y-57227336D01*
X163478043Y-57229599D01*
X163453574Y-57227490D01*
X163432668Y-57221489D01*
X163414662Y-57211830D01*
X163400564Y-57198162D01*
X163391918Y-57180196D01*
X163388803Y-57156509D01*
X163389938Y-57139414D01*
X163393046Y-57125765D01*
X163399785Y-57111685D01*
X163409346Y-57100303D01*
X163422020Y-57091266D01*
X163418112Y-57003827D01*
X163146514Y-57038662D01*
X163146514Y-57311573D01*
X163226625Y-57311573D01*
X163226625Y-57109004D01*
X163336321Y-57091266D01*
X163323143Y-57112833D01*
X163316629Y-57126437D01*
X163310831Y-57148937D01*
X163308691Y-57178003D01*
X163311314Y-57207991D01*
X163319011Y-57235542D01*
X163331789Y-57261170D01*
X163349999Y-57285256D01*
X163372062Y-57304636D01*
X163398754Y-57318822D01*
X163431032Y-57327809D01*
X163470197Y-57331021D01*
X163503740Y-57328243D01*
X163535043Y-57320048D01*
X163564596Y-57306405D01*
X163592776Y-57286966D01*
X163611633Y-57268279D01*
X163626441Y-57246334D01*
X163637368Y-57220647D01*
X163644276Y-57190524D01*
X163646723Y-57155105D01*
X163644166Y-57119994D01*
X163636865Y-57089402D01*
X163625150Y-57062597D01*
X163609049Y-57038998D01*
X163588722Y-57019179D01*
X163564611Y-57004184D01*
X163536060Y-56993846D01*
X163502131Y-56988440D01*
X163502131Y-57085435D01*
G37*
G36*
X163130882Y-57706880D02*
G01*
X163130882Y-57816179D01*
X163635000Y-57644385D01*
X163635000Y-57544978D01*
X163130882Y-57374893D01*
X163130882Y-57487275D01*
X163513580Y-57596574D01*
X163130882Y-57706880D01*
G37*
G36*
X163535345Y-60744048D02*
G01*
X163557249Y-60748697D01*
X163573513Y-60755075D01*
X163585323Y-60762824D01*
X163597606Y-60776565D01*
X163606972Y-60794927D01*
X163613163Y-60819100D01*
X163615457Y-60850630D01*
X163613222Y-60886002D01*
X163607427Y-60911080D01*
X163597519Y-60931162D01*
X163584944Y-60944468D01*
X163569474Y-60952367D01*
X163550152Y-60955135D01*
X163535058Y-60952698D01*
X163522684Y-60945600D01*
X163512325Y-60933275D01*
X163500917Y-60907976D01*
X163488939Y-60864613D01*
X163476910Y-60811337D01*
X163462929Y-60758715D01*
X163449968Y-60724069D01*
X163438197Y-60702710D01*
X163418792Y-60680861D01*
X163394857Y-60665183D01*
X163365458Y-60655339D01*
X163329143Y-60651816D01*
X163296288Y-60654979D01*
X163267060Y-60664169D01*
X163240701Y-60679344D01*
X163216700Y-60701000D01*
X163198153Y-60726613D01*
X163184196Y-60758316D01*
X163175175Y-60797408D01*
X163171912Y-60845501D01*
X163174702Y-60884945D01*
X163182766Y-60920317D01*
X163195850Y-60952254D01*
X163213983Y-60981269D01*
X163232094Y-61001396D01*
X163252921Y-61017189D01*
X163276806Y-61028956D01*
X163304282Y-61036716D01*
X163336043Y-61040193D01*
X163336043Y-60939076D01*
X163314592Y-60935386D01*
X163297338Y-60927590D01*
X163283400Y-60915784D01*
X163272326Y-60899448D01*
X163263191Y-60872983D01*
X163259839Y-60838326D01*
X163261876Y-60811646D01*
X163267478Y-60790363D01*
X163276142Y-60773418D01*
X163288552Y-60759849D01*
X163303417Y-60751919D01*
X163321572Y-60749177D01*
X163338046Y-60751874D01*
X163351101Y-60759648D01*
X163361597Y-60773083D01*
X163369859Y-60792979D01*
X163382449Y-60838662D01*
X163403393Y-60925429D01*
X163414514Y-60962967D01*
X163426855Y-60991041D01*
X163440060Y-61011494D01*
X163459431Y-61030910D01*
X163482486Y-61044831D01*
X163509968Y-61053512D01*
X163542978Y-61056587D01*
X163576364Y-61053224D01*
X163606136Y-61043426D01*
X163633089Y-61027164D01*
X163657741Y-61003800D01*
X163676766Y-60976431D01*
X163690989Y-60943281D01*
X163700110Y-60903190D01*
X163703384Y-60854721D01*
X163700189Y-60805189D01*
X163691251Y-60763730D01*
X163677271Y-60729026D01*
X163658566Y-60699993D01*
X163639322Y-60679727D01*
X163617773Y-60664177D01*
X163593610Y-60652973D01*
X163566345Y-60646046D01*
X163535345Y-60643634D01*
X163535345Y-60744048D01*
G37*
G36*
X163187543Y-61203042D02*
G01*
X163476208Y-61269659D01*
X163556564Y-61283978D01*
X163477917Y-61298663D01*
X163187543Y-61355388D01*
X163187543Y-61466396D01*
X163476208Y-61526144D01*
X163556564Y-61541532D01*
X163479261Y-61556888D01*
X163187543Y-61624177D01*
X163187543Y-61731095D01*
X163691661Y-61589342D01*
X163691661Y-61488928D01*
X163396859Y-61428142D01*
X163299376Y-61410373D01*
X163396859Y-61392605D01*
X163691661Y-61331819D01*
X163691661Y-61234121D01*
X163187543Y-61091362D01*
X163187543Y-61203042D01*
G37*
G36*
X163691661Y-62011699D02*
G01*
X163688851Y-62049361D01*
X163680801Y-62082367D01*
X163667836Y-62111482D01*
X163649936Y-62137306D01*
X163626746Y-62160236D01*
X163597596Y-62180440D01*
X163562245Y-62197500D01*
X163522527Y-62210091D01*
X163477793Y-62217983D01*
X163427298Y-62220740D01*
X163387226Y-62218416D01*
X163343859Y-62211154D01*
X163315424Y-62202950D01*
X163288353Y-62191050D01*
X163262434Y-62175311D01*
X163234487Y-62151025D01*
X163213347Y-62122646D01*
X163198473Y-62089582D01*
X163190876Y-62056406D01*
X163187543Y-62011699D01*
X163187543Y-61993930D01*
X163273517Y-61993930D01*
X163276669Y-62029813D01*
X163285115Y-62056395D01*
X163297941Y-62075873D01*
X163315130Y-62089735D01*
X163343977Y-62102223D01*
X163382841Y-62110658D01*
X163434412Y-62113823D01*
X163471725Y-62111877D01*
X163503827Y-62106385D01*
X163531437Y-62097764D01*
X163559262Y-62083497D01*
X163579657Y-62066300D01*
X163593907Y-62046095D01*
X163602627Y-62022305D01*
X163605687Y-61993930D01*
X163605687Y-61896936D01*
X163273517Y-61896936D01*
X163273517Y-61993930D01*
X163187543Y-61993930D01*
X163187543Y-61794811D01*
X163691661Y-61794811D01*
X163691661Y-62011699D01*
G37*
G36*
X163691661Y-62396229D02*
G01*
X163187543Y-62396229D01*
X163187543Y-62291724D01*
X163691661Y-62291724D01*
X163691661Y-62396229D01*
G37*
G36*
X163492465Y-62479028D02*
G01*
X163539512Y-62488875D01*
X163579970Y-62504448D01*
X163614820Y-62525473D01*
X163644796Y-62552056D01*
X163665045Y-62575706D01*
X163681137Y-62603331D01*
X163693105Y-62635538D01*
X163700695Y-62673125D01*
X163703384Y-62717042D01*
X163700696Y-62760944D01*
X163693106Y-62798522D01*
X163681138Y-62830724D01*
X163665046Y-62858346D01*
X163644796Y-62881997D01*
X163614839Y-62908450D01*
X163579999Y-62929382D01*
X163539542Y-62944892D01*
X163492485Y-62954702D01*
X163437648Y-62958171D01*
X163381455Y-62954643D01*
X163333868Y-62944727D01*
X163293544Y-62929153D01*
X163259367Y-62908265D01*
X163230499Y-62881997D01*
X163210250Y-62858346D01*
X163194158Y-62830724D01*
X163182190Y-62798522D01*
X163174600Y-62760944D01*
X163171912Y-62717042D01*
X163171914Y-62717011D01*
X163259839Y-62717011D01*
X163262881Y-62747327D01*
X163271618Y-62773441D01*
X163285922Y-62796225D01*
X163306276Y-62816235D01*
X163330124Y-62831422D01*
X163359229Y-62842890D01*
X163394647Y-62850295D01*
X163437648Y-62852963D01*
X163480842Y-62850289D01*
X163516338Y-62842874D01*
X163545433Y-62831405D01*
X163569203Y-62816235D01*
X163589468Y-62796236D01*
X163603717Y-62773457D01*
X163612424Y-62747338D01*
X163615457Y-62717011D01*
X163612433Y-62686704D01*
X163603737Y-62660492D01*
X163589486Y-62637529D01*
X163569203Y-62617269D01*
X163545401Y-62601880D01*
X163516293Y-62590262D01*
X163480808Y-62582758D01*
X163437648Y-62580052D01*
X163394488Y-62582758D01*
X163359002Y-62590262D01*
X163329895Y-62601880D01*
X163306093Y-62617269D01*
X163285810Y-62637529D01*
X163271559Y-62660492D01*
X163262863Y-62686704D01*
X163259839Y-62717011D01*
X163171914Y-62717011D01*
X163174600Y-62673125D01*
X163182191Y-62635538D01*
X163194159Y-62603331D01*
X163210251Y-62575706D01*
X163230499Y-62552056D01*
X163259386Y-62525658D01*
X163293575Y-62504677D01*
X163333900Y-62489040D01*
X163381477Y-62479087D01*
X163437648Y-62475547D01*
X163492465Y-62479028D01*
G37*
G36*
X164915000Y-55958483D02*
G01*
X164717651Y-55958483D01*
X164717651Y-56067110D01*
X164719929Y-56097898D01*
X164725659Y-56117970D01*
X164733710Y-56130460D01*
X164745791Y-56138944D01*
X164765990Y-56145201D01*
X164797885Y-56148046D01*
X164844658Y-56148748D01*
X164888011Y-56153175D01*
X164915000Y-56160013D01*
X164915000Y-56275785D01*
X164902360Y-56275785D01*
X164890806Y-56263646D01*
X164873692Y-56256673D01*
X164858636Y-56254791D01*
X164826919Y-56253925D01*
X164793092Y-56253925D01*
X164757776Y-56251953D01*
X164732248Y-56246805D01*
X164714262Y-56239392D01*
X164698826Y-56227972D01*
X164685505Y-56211849D01*
X164674268Y-56190055D01*
X164662058Y-56215797D01*
X164645778Y-56235404D01*
X164625175Y-56249834D01*
X164601519Y-56260022D01*
X164578075Y-56265975D01*
X164554558Y-56267938D01*
X164525858Y-56265447D01*
X164501527Y-56258382D01*
X164479299Y-56247120D01*
X164459120Y-56232431D01*
X164438708Y-56210472D01*
X164423888Y-56184071D01*
X164417654Y-56164612D01*
X164413101Y-56138053D01*
X164410882Y-56102616D01*
X164410882Y-56080757D01*
X164496856Y-56080757D01*
X164499455Y-56112573D01*
X164505832Y-56131987D01*
X164515190Y-56144805D01*
X164528041Y-56154141D01*
X164545209Y-56160171D01*
X164568022Y-56162395D01*
X164588830Y-56160163D01*
X164604608Y-56154060D01*
X164616553Y-56144454D01*
X164625327Y-56130979D01*
X164631215Y-56110847D01*
X164633632Y-56077673D01*
X164633632Y-55958483D01*
X164496856Y-55958483D01*
X164496856Y-56080757D01*
X164410882Y-56080757D01*
X164410882Y-55855687D01*
X164915000Y-55855687D01*
X164915000Y-55958483D01*
G37*
G36*
X164500764Y-56730687D02*
G01*
X164500764Y-56464248D01*
X164608230Y-56464248D01*
X164608230Y-56708827D01*
X164696158Y-56708827D01*
X164696158Y-56464248D01*
X164825118Y-56464248D01*
X164825118Y-56742960D01*
X164915000Y-56742960D01*
X164915000Y-56361453D01*
X164410882Y-56361453D01*
X164410882Y-56730687D01*
X164500764Y-56730687D01*
G37*
G36*
X164758684Y-56901046D02*
G01*
X164780588Y-56905695D01*
X164796852Y-56912073D01*
X164808662Y-56919822D01*
X164820945Y-56933563D01*
X164830311Y-56951925D01*
X164836502Y-56976098D01*
X164838796Y-57007628D01*
X164836561Y-57043000D01*
X164830766Y-57068078D01*
X164820858Y-57088160D01*
X164808283Y-57101466D01*
X164792813Y-57109365D01*
X164773491Y-57112133D01*
X164758397Y-57109696D01*
X164746023Y-57102598D01*
X164735664Y-57090273D01*
X164724256Y-57064974D01*
X164712278Y-57021611D01*
X164700249Y-56968335D01*
X164686268Y-56915713D01*
X164673307Y-56881067D01*
X164661536Y-56859708D01*
X164642131Y-56837859D01*
X164618196Y-56822181D01*
X164588797Y-56812337D01*
X164552482Y-56808814D01*
X164519627Y-56811977D01*
X164490399Y-56821167D01*
X164464040Y-56836342D01*
X164440039Y-56857998D01*
X164421492Y-56883611D01*
X164407535Y-56915314D01*
X164398514Y-56954406D01*
X164395251Y-57002499D01*
X164398041Y-57041943D01*
X164406105Y-57077315D01*
X164419189Y-57109252D01*
X164437322Y-57138267D01*
X164455433Y-57158395D01*
X164476260Y-57174187D01*
X164500145Y-57185954D01*
X164527621Y-57193714D01*
X164559382Y-57197191D01*
X164559382Y-57096074D01*
X164537931Y-57092384D01*
X164520677Y-57084588D01*
X164506739Y-57072782D01*
X164495665Y-57056446D01*
X164486530Y-57029981D01*
X164483178Y-56995324D01*
X164485215Y-56968644D01*
X164490817Y-56947361D01*
X164499481Y-56930416D01*
X164511891Y-56916847D01*
X164526756Y-56908917D01*
X164544911Y-56906175D01*
X164561385Y-56908872D01*
X164574440Y-56916646D01*
X164584936Y-56930081D01*
X164593198Y-56949977D01*
X164605788Y-56995660D01*
X164626732Y-57082427D01*
X164637853Y-57119965D01*
X164650194Y-57148039D01*
X164663399Y-57168492D01*
X164682770Y-57187908D01*
X164705825Y-57201829D01*
X164733307Y-57210510D01*
X164766317Y-57213586D01*
X164799703Y-57210222D01*
X164829475Y-57200424D01*
X164856428Y-57184162D01*
X164881080Y-57160799D01*
X164900105Y-57133429D01*
X164914328Y-57100279D01*
X164923449Y-57060188D01*
X164926723Y-57011719D01*
X164923528Y-56962187D01*
X164914590Y-56920728D01*
X164900610Y-56886024D01*
X164881905Y-56856991D01*
X164862661Y-56836725D01*
X164841112Y-56821175D01*
X164816949Y-56809971D01*
X164789684Y-56803044D01*
X164758684Y-56800632D01*
X164758684Y-56901046D01*
G37*
G36*
X164500764Y-57663695D02*
G01*
X164500764Y-57397256D01*
X164608230Y-57397256D01*
X164608230Y-57641835D01*
X164696158Y-57641835D01*
X164696158Y-57397256D01*
X164825118Y-57397256D01*
X164825118Y-57675968D01*
X164915000Y-57675968D01*
X164915000Y-57294460D01*
X164410882Y-57294460D01*
X164410882Y-57663695D01*
X164500764Y-57663695D01*
G37*
G36*
X164410882Y-58123695D02*
G01*
X164500764Y-58123695D01*
X164500764Y-57973059D01*
X164915000Y-57973059D01*
X164915000Y-57867179D01*
X164500764Y-57867179D01*
X164500764Y-57715871D01*
X164410882Y-57715871D01*
X164410882Y-58123695D01*
G37*
G36*
X164839888Y-60731464D02*
G01*
X164861792Y-60736113D01*
X164878056Y-60742491D01*
X164889866Y-60750240D01*
X164902149Y-60763981D01*
X164911515Y-60782343D01*
X164917706Y-60806516D01*
X164920000Y-60838046D01*
X164917765Y-60873418D01*
X164911970Y-60898496D01*
X164902062Y-60918578D01*
X164889487Y-60931884D01*
X164874017Y-60939783D01*
X164854695Y-60942551D01*
X164839601Y-60940114D01*
X164827227Y-60933016D01*
X164816868Y-60920691D01*
X164805460Y-60895392D01*
X164793482Y-60852029D01*
X164781453Y-60798753D01*
X164767472Y-60746131D01*
X164754511Y-60711485D01*
X164742740Y-60690126D01*
X164723335Y-60668277D01*
X164699400Y-60652599D01*
X164670001Y-60642755D01*
X164633686Y-60639232D01*
X164600831Y-60642395D01*
X164571603Y-60651585D01*
X164545244Y-60666760D01*
X164521243Y-60688416D01*
X164502696Y-60714029D01*
X164488739Y-60745732D01*
X164479718Y-60784824D01*
X164476455Y-60832917D01*
X164479245Y-60872361D01*
X164487309Y-60907733D01*
X164500393Y-60939670D01*
X164518526Y-60968685D01*
X164536637Y-60988812D01*
X164557464Y-61004605D01*
X164581349Y-61016372D01*
X164608825Y-61024132D01*
X164640586Y-61027609D01*
X164640586Y-60926492D01*
X164619135Y-60922802D01*
X164601881Y-60915006D01*
X164587943Y-60903200D01*
X164576869Y-60886864D01*
X164567734Y-60860399D01*
X164564382Y-60825742D01*
X164566419Y-60799062D01*
X164572021Y-60777779D01*
X164580685Y-60760834D01*
X164593095Y-60747265D01*
X164607960Y-60739335D01*
X164626115Y-60736593D01*
X164642589Y-60739290D01*
X164655644Y-60747064D01*
X164666140Y-60760499D01*
X164674402Y-60780395D01*
X164686992Y-60826078D01*
X164707936Y-60912845D01*
X164719057Y-60950383D01*
X164731398Y-60978457D01*
X164744603Y-60998910D01*
X164763974Y-61018326D01*
X164787029Y-61032247D01*
X164814511Y-61040928D01*
X164847521Y-61044003D01*
X164880907Y-61040640D01*
X164910679Y-61030842D01*
X164937632Y-61014580D01*
X164962284Y-60991216D01*
X164981309Y-60963847D01*
X164995532Y-60930697D01*
X165004653Y-60890606D01*
X165007927Y-60842137D01*
X165004732Y-60792605D01*
X164995794Y-60751146D01*
X164981814Y-60716442D01*
X164963109Y-60687409D01*
X164943865Y-60667143D01*
X164922316Y-60651593D01*
X164898153Y-60640389D01*
X164870888Y-60633462D01*
X164839888Y-60631050D01*
X164839888Y-60731464D01*
G37*
G36*
X164492086Y-61190458D02*
G01*
X164780751Y-61257075D01*
X164861107Y-61271394D01*
X164782460Y-61286079D01*
X164492086Y-61342804D01*
X164492086Y-61453812D01*
X164780751Y-61513560D01*
X164861107Y-61528948D01*
X164783804Y-61544304D01*
X164492086Y-61611593D01*
X164492086Y-61718511D01*
X164996204Y-61576758D01*
X164996204Y-61476344D01*
X164701402Y-61415558D01*
X164603919Y-61397789D01*
X164701402Y-61380021D01*
X164996204Y-61319235D01*
X164996204Y-61221537D01*
X164492086Y-61078778D01*
X164492086Y-61190458D01*
G37*
G36*
X164746984Y-61760368D02*
G01*
X164693536Y-61763598D01*
X164647555Y-61772738D01*
X164607941Y-61787175D01*
X164573768Y-61806611D01*
X164544324Y-61831076D01*
X164522093Y-61856884D01*
X164504933Y-61885032D01*
X164492560Y-61915857D01*
X164484946Y-61949825D01*
X164482317Y-61987514D01*
X164484954Y-62030725D01*
X164492430Y-62068038D01*
X164504265Y-62100315D01*
X164520234Y-62128282D01*
X164540376Y-62152497D01*
X164564993Y-62173321D01*
X164597053Y-62192133D01*
X164627932Y-62203464D01*
X164658171Y-62208156D01*
X164658171Y-62102949D01*
X164624656Y-62090488D01*
X164603217Y-62076662D01*
X164589268Y-62061264D01*
X164579052Y-62042475D01*
X164572568Y-62019580D01*
X164570244Y-61991605D01*
X164573228Y-61964004D01*
X164581828Y-61940219D01*
X164596026Y-61919410D01*
X164616467Y-61901082D01*
X164639995Y-61887487D01*
X164668892Y-61877124D01*
X164704227Y-61870391D01*
X164747259Y-61867957D01*
X164790358Y-61870574D01*
X164824860Y-61877741D01*
X164852310Y-61888674D01*
X164873990Y-61902944D01*
X164892647Y-61921938D01*
X164905606Y-61942787D01*
X164913411Y-61965905D01*
X164916092Y-61991940D01*
X164913625Y-62019136D01*
X164906680Y-62041699D01*
X164895586Y-62060543D01*
X164880188Y-62076296D01*
X164857842Y-62090159D01*
X164822303Y-62102949D01*
X164822303Y-62207149D01*
X164862456Y-62197363D01*
X164897750Y-62182447D01*
X164928867Y-62162495D01*
X164956300Y-62137296D01*
X164978533Y-62107815D01*
X164994550Y-62074511D01*
X165004466Y-62036662D01*
X165007927Y-61993314D01*
X165004885Y-61949893D01*
X164996186Y-61911861D01*
X164982226Y-61878374D01*
X164963069Y-61848756D01*
X164938440Y-61822528D01*
X164909827Y-61801018D01*
X164877056Y-61783903D01*
X164839519Y-61771203D01*
X164796458Y-61763189D01*
X164746984Y-61760368D01*
G37*
G36*
X164492086Y-62287322D02*
G01*
X164492086Y-62392529D01*
X164908276Y-62392529D01*
X164908276Y-62641871D01*
X164996204Y-62641871D01*
X164996204Y-62287322D01*
X164492086Y-62287322D01*
G37*
G36*
X164492086Y-62716456D02*
G01*
X164492086Y-62819954D01*
X164699265Y-62819954D01*
X164492086Y-63014311D01*
X164492086Y-63150232D01*
X164699693Y-62943938D01*
X164996204Y-63160826D01*
X164996204Y-63025576D01*
X164776354Y-62870177D01*
X164827584Y-62819954D01*
X164996204Y-62819954D01*
X164996204Y-62716456D01*
X164492086Y-62716456D01*
G37*
G36*
X166119264Y-60727269D02*
G01*
X166141168Y-60731918D01*
X166157432Y-60738296D01*
X166169242Y-60746045D01*
X166181525Y-60759786D01*
X166190891Y-60778148D01*
X166197082Y-60802321D01*
X166199376Y-60833851D01*
X166197141Y-60869223D01*
X166191346Y-60894301D01*
X166181438Y-60914383D01*
X166168863Y-60927689D01*
X166153393Y-60935588D01*
X166134071Y-60938356D01*
X166118977Y-60935919D01*
X166106603Y-60928821D01*
X166096244Y-60916496D01*
X166084836Y-60891197D01*
X166072858Y-60847834D01*
X166060829Y-60794558D01*
X166046848Y-60741936D01*
X166033887Y-60707290D01*
X166022116Y-60685931D01*
X166002711Y-60664082D01*
X165978776Y-60648404D01*
X165949377Y-60638560D01*
X165913062Y-60635037D01*
X165880207Y-60638200D01*
X165850979Y-60647390D01*
X165824620Y-60662565D01*
X165800619Y-60684221D01*
X165782072Y-60709834D01*
X165768115Y-60741537D01*
X165759094Y-60780629D01*
X165755831Y-60828722D01*
X165758621Y-60868166D01*
X165766685Y-60903538D01*
X165779769Y-60935475D01*
X165797902Y-60964490D01*
X165816013Y-60984617D01*
X165836840Y-61000410D01*
X165860725Y-61012177D01*
X165888201Y-61019937D01*
X165919962Y-61023414D01*
X165919962Y-60922297D01*
X165898511Y-60918607D01*
X165881257Y-60910811D01*
X165867319Y-60899005D01*
X165856245Y-60882669D01*
X165847110Y-60856204D01*
X165843758Y-60821547D01*
X165845795Y-60794867D01*
X165851397Y-60773584D01*
X165860061Y-60756639D01*
X165872471Y-60743070D01*
X165887336Y-60735140D01*
X165905491Y-60732398D01*
X165921965Y-60735095D01*
X165935020Y-60742869D01*
X165945516Y-60756304D01*
X165953778Y-60776200D01*
X165966368Y-60821883D01*
X165987312Y-60908650D01*
X165998433Y-60946188D01*
X166010774Y-60974262D01*
X166023979Y-60994715D01*
X166043350Y-61014131D01*
X166066405Y-61028052D01*
X166093887Y-61036733D01*
X166126897Y-61039808D01*
X166160283Y-61036445D01*
X166190055Y-61026647D01*
X166217008Y-61010385D01*
X166241660Y-60987021D01*
X166260685Y-60959652D01*
X166274908Y-60926502D01*
X166284029Y-60886411D01*
X166287303Y-60837942D01*
X166284108Y-60788410D01*
X166275170Y-60746951D01*
X166261190Y-60712247D01*
X166242485Y-60683214D01*
X166223241Y-60662948D01*
X166201692Y-60647398D01*
X166177529Y-60636194D01*
X166150264Y-60629267D01*
X166119264Y-60626855D01*
X166119264Y-60727269D01*
G37*
G36*
X165771462Y-61186263D02*
G01*
X166060127Y-61252880D01*
X166140483Y-61267199D01*
X166061836Y-61281884D01*
X165771462Y-61338609D01*
X165771462Y-61449617D01*
X166060127Y-61509365D01*
X166140483Y-61524753D01*
X166063180Y-61540109D01*
X165771462Y-61607398D01*
X165771462Y-61714316D01*
X166275580Y-61572563D01*
X166275580Y-61472149D01*
X165980778Y-61411363D01*
X165883295Y-61393594D01*
X165980778Y-61375826D01*
X166275580Y-61315040D01*
X166275580Y-61217342D01*
X165771462Y-61074583D01*
X165771462Y-61186263D01*
G37*
G36*
X166076384Y-61762737D02*
G01*
X166123431Y-61772584D01*
X166163889Y-61788158D01*
X166198739Y-61809183D01*
X166228715Y-61835765D01*
X166248964Y-61859416D01*
X166265056Y-61887040D01*
X166277024Y-61919248D01*
X166284614Y-61956835D01*
X166287303Y-62000751D01*
X166284615Y-62044654D01*
X166277025Y-62082232D01*
X166265057Y-62114434D01*
X166248965Y-62142056D01*
X166228715Y-62165707D01*
X166198758Y-62192159D01*
X166163918Y-62213091D01*
X166123461Y-62228602D01*
X166076404Y-62238412D01*
X166021567Y-62241880D01*
X165965374Y-62238353D01*
X165917787Y-62228437D01*
X165877463Y-62212863D01*
X165843286Y-62191974D01*
X165814418Y-62165707D01*
X165794169Y-62142056D01*
X165778077Y-62114434D01*
X165766109Y-62082232D01*
X165758519Y-62044654D01*
X165755831Y-62000751D01*
X165755833Y-62000721D01*
X165843758Y-62000721D01*
X165846800Y-62031036D01*
X165855537Y-62057150D01*
X165869841Y-62079934D01*
X165890195Y-62099945D01*
X165914043Y-62115132D01*
X165943148Y-62126599D01*
X165978566Y-62134004D01*
X166021567Y-62136673D01*
X166064761Y-62133998D01*
X166100257Y-62126583D01*
X166129352Y-62115115D01*
X166153122Y-62099945D01*
X166173387Y-62079946D01*
X166187636Y-62057166D01*
X166196343Y-62031048D01*
X166199376Y-62000721D01*
X166196352Y-61970413D01*
X166187656Y-61944201D01*
X166173405Y-61921238D01*
X166153122Y-61900978D01*
X166129320Y-61885590D01*
X166100212Y-61873972D01*
X166064727Y-61866467D01*
X166021567Y-61863762D01*
X165978407Y-61866467D01*
X165942921Y-61873972D01*
X165913814Y-61885590D01*
X165890012Y-61900978D01*
X165869729Y-61921238D01*
X165855478Y-61944201D01*
X165846782Y-61970413D01*
X165843758Y-62000721D01*
X165755833Y-62000721D01*
X165758519Y-61956835D01*
X165766110Y-61919248D01*
X165778078Y-61887040D01*
X165794170Y-61859416D01*
X165814418Y-61835765D01*
X165843305Y-61809368D01*
X165877494Y-61788386D01*
X165917819Y-61772750D01*
X165965396Y-61762796D01*
X166021567Y-61759256D01*
X166076384Y-61762737D01*
G37*
G36*
X165933926Y-56832665D02*
G01*
X165910026Y-56824323D01*
X165890661Y-56811964D01*
X165875086Y-56795475D01*
X165862973Y-56774260D01*
X165854720Y-56747273D01*
X165851860Y-56716528D01*
X165854791Y-56687101D01*
X165863298Y-56661085D01*
X165877355Y-56637754D01*
X165897472Y-56616632D01*
X165921028Y-56600635D01*
X165950782Y-56588423D01*
X165988108Y-56580436D01*
X166034676Y-56577523D01*
X166081630Y-56580771D01*
X166117605Y-56589524D01*
X166144882Y-56602705D01*
X166165254Y-56619868D01*
X166182294Y-56642218D01*
X166194131Y-56665490D01*
X166201187Y-56690005D01*
X166203570Y-56716192D01*
X166200054Y-56750371D01*
X166190077Y-56778896D01*
X166173894Y-56802959D01*
X166152262Y-56822473D01*
X166126612Y-56836320D01*
X166096103Y-56844633D01*
X166096103Y-56728160D01*
X166010129Y-56728160D01*
X166010129Y-56937873D01*
X166279774Y-56937873D01*
X166279774Y-56868202D01*
X166217247Y-56857608D01*
X166248647Y-56826947D01*
X166266523Y-56802959D01*
X166280005Y-56774175D01*
X166288492Y-56740371D01*
X166291497Y-56700499D01*
X166288587Y-56660934D01*
X166280156Y-56625333D01*
X166266429Y-56593050D01*
X166247320Y-56563574D01*
X166222437Y-56536551D01*
X166193742Y-56513305D01*
X166161074Y-56494953D01*
X166123858Y-56481420D01*
X166081349Y-56472919D01*
X166032661Y-56469934D01*
X165983536Y-56472915D01*
X165940187Y-56481443D01*
X165901809Y-56495081D01*
X165867719Y-56513647D01*
X165837389Y-56537223D01*
X165811129Y-56565636D01*
X165790836Y-56597118D01*
X165776160Y-56632100D01*
X165767084Y-56671198D01*
X165763933Y-56715184D01*
X165767305Y-56763088D01*
X165776847Y-56804034D01*
X165791994Y-56839156D01*
X165812598Y-56869363D01*
X165838853Y-56895745D01*
X165867529Y-56915343D01*
X165899014Y-56928760D01*
X165933926Y-56936163D01*
X165933926Y-56832665D01*
G37*
G36*
X165775656Y-57036638D02*
G01*
X165775656Y-57146975D01*
X166124893Y-57347468D01*
X165775656Y-57347468D01*
X165775656Y-57445501D01*
X166279774Y-57445501D01*
X166279774Y-57340293D01*
X165921622Y-57134671D01*
X166279774Y-57134671D01*
X166279774Y-57036638D01*
X165775656Y-57036638D01*
G37*
G36*
X166279774Y-57760330D02*
G01*
X166276964Y-57797991D01*
X166268914Y-57830998D01*
X166255949Y-57860113D01*
X166238049Y-57885937D01*
X166214859Y-57908866D01*
X166185709Y-57929071D01*
X166150358Y-57946131D01*
X166110640Y-57958722D01*
X166065906Y-57966613D01*
X166015411Y-57969371D01*
X165975339Y-57967047D01*
X165931972Y-57959785D01*
X165903537Y-57951581D01*
X165876466Y-57939681D01*
X165850547Y-57923942D01*
X165822600Y-57899656D01*
X165801460Y-57871276D01*
X165786586Y-57838213D01*
X165778989Y-57805037D01*
X165775656Y-57760330D01*
X165775656Y-57742561D01*
X165861630Y-57742561D01*
X165864782Y-57778444D01*
X165873228Y-57805026D01*
X165886054Y-57824504D01*
X165903243Y-57838365D01*
X165932090Y-57850853D01*
X165970954Y-57859289D01*
X166022525Y-57862454D01*
X166059838Y-57860507D01*
X166091940Y-57855016D01*
X166119550Y-57846395D01*
X166147375Y-57832128D01*
X166167770Y-57814931D01*
X166182020Y-57794726D01*
X166190740Y-57770936D01*
X166193800Y-57742561D01*
X166193800Y-57645566D01*
X165861630Y-57645566D01*
X165861630Y-57742561D01*
X165775656Y-57742561D01*
X165775656Y-57543442D01*
X166279774Y-57543442D01*
X166279774Y-57760330D01*
G37*
D11*
G36*
X172021889Y-69973523D02*
G01*
X172089403Y-69983616D01*
X172151693Y-70003394D01*
X172203831Y-70034113D01*
X172243178Y-70069786D01*
X172275577Y-70113187D01*
X172300468Y-70162163D01*
X172315502Y-70215239D01*
X172320640Y-70273471D01*
X172315974Y-70330047D01*
X172302685Y-70378663D01*
X172281317Y-70420750D01*
X172251533Y-70456994D01*
X172213201Y-70486471D01*
X172164874Y-70509410D01*
X172210921Y-70538104D01*
X172241383Y-70567051D01*
X172266438Y-70606969D01*
X172282206Y-70655853D01*
X172287850Y-70716039D01*
X172282435Y-70774452D01*
X172266847Y-70825441D01*
X172241383Y-70870462D01*
X172208437Y-70906434D01*
X172167374Y-70935378D01*
X172116820Y-70957462D01*
X172054842Y-70972146D01*
X171979066Y-70978234D01*
X171489970Y-70978234D01*
X171489970Y-70806287D01*
X171690799Y-70806287D01*
X171912144Y-70806287D01*
X171981783Y-70801854D01*
X172032372Y-70790228D01*
X172062185Y-70770046D01*
X172080327Y-70739690D01*
X172087021Y-70695401D01*
X172081831Y-70654389D01*
X172067856Y-70625352D01*
X172045683Y-70605092D01*
X172017022Y-70591525D01*
X171981667Y-70582787D01*
X171938094Y-70579630D01*
X171690799Y-70579630D01*
X171690799Y-70806287D01*
X171489970Y-70806287D01*
X171489970Y-70411591D01*
X171690799Y-70411591D01*
X171941514Y-70411591D01*
X172003099Y-70406378D01*
X172043302Y-70394433D01*
X172071717Y-70376584D01*
X172091514Y-70353365D01*
X172103796Y-70323835D01*
X172108210Y-70286050D01*
X172103446Y-70240559D01*
X172090409Y-70205858D01*
X172069914Y-70179414D01*
X172041287Y-70159776D01*
X172000272Y-70146989D01*
X171938094Y-70141946D01*
X171690799Y-70141946D01*
X171690799Y-70411591D01*
X171489970Y-70411591D01*
X171489970Y-69970000D01*
X171946277Y-69970000D01*
X172021889Y-69973523D01*
G37*
G36*
X172422306Y-70450669D02*
G01*
X172814377Y-70450669D01*
X172814377Y-70266999D01*
X172422306Y-70266999D01*
X172422306Y-70450669D01*
G37*
G36*
X172081889Y-72843523D02*
G01*
X172149403Y-72853616D01*
X172211693Y-72873394D01*
X172263831Y-72904113D01*
X172303178Y-72939786D01*
X172335577Y-72983187D01*
X172360468Y-73032163D01*
X172375502Y-73085239D01*
X172380640Y-73143471D01*
X172375974Y-73200047D01*
X172362685Y-73248663D01*
X172341317Y-73290750D01*
X172311533Y-73326994D01*
X172273201Y-73356471D01*
X172224874Y-73379410D01*
X172270921Y-73408104D01*
X172301383Y-73437051D01*
X172326438Y-73476969D01*
X172342206Y-73525853D01*
X172347850Y-73586039D01*
X172342435Y-73644452D01*
X172326847Y-73695441D01*
X172301383Y-73740462D01*
X172268437Y-73776434D01*
X172227374Y-73805378D01*
X172176820Y-73827462D01*
X172114842Y-73842146D01*
X172039066Y-73848234D01*
X171549970Y-73848234D01*
X171549970Y-73676287D01*
X171750799Y-73676287D01*
X171972144Y-73676287D01*
X172041783Y-73671854D01*
X172092372Y-73660228D01*
X172122185Y-73640046D01*
X172140327Y-73609690D01*
X172147021Y-73565401D01*
X172141831Y-73524389D01*
X172127856Y-73495352D01*
X172105683Y-73475092D01*
X172077022Y-73461525D01*
X172041667Y-73452787D01*
X171998094Y-73449630D01*
X171750799Y-73449630D01*
X171750799Y-73676287D01*
X171549970Y-73676287D01*
X171549970Y-73281591D01*
X171750799Y-73281591D01*
X172001514Y-73281591D01*
X172063099Y-73276378D01*
X172103302Y-73264433D01*
X172131717Y-73246584D01*
X172151514Y-73223365D01*
X172163796Y-73193835D01*
X172168210Y-73156050D01*
X172163446Y-73110559D01*
X172150409Y-73075858D01*
X172129914Y-73049414D01*
X172101287Y-73029776D01*
X172060272Y-73016989D01*
X171998094Y-73011946D01*
X171750799Y-73011946D01*
X171750799Y-73281591D01*
X171549970Y-73281591D01*
X171549970Y-72840000D01*
X172006277Y-72840000D01*
X172081889Y-72843523D01*
G37*
G36*
X172500075Y-73121367D02*
G01*
X172500075Y-73297222D01*
X172780160Y-73297222D01*
X172780160Y-73578590D01*
X172959801Y-73578590D01*
X172959801Y-73297222D01*
X173239886Y-73297222D01*
X173239886Y-73121367D01*
X172959801Y-73121367D01*
X172959801Y-72840000D01*
X172780160Y-72840000D01*
X172780160Y-73121367D01*
X172500075Y-73121367D01*
G37*
D12*
G36*
X163479637Y-77828881D02*
G01*
X163479637Y-77964864D01*
X164363552Y-77964864D01*
X164363552Y-78473072D01*
X164483109Y-78473072D01*
X164483109Y-77828881D01*
X163479637Y-77828881D01*
G37*
G36*
X164483109Y-78543719D02*
G01*
X164399840Y-78553025D01*
X164326990Y-78570677D01*
X164263168Y-78595987D01*
X164220513Y-78621821D01*
X164178102Y-78658637D01*
X164135638Y-78708325D01*
X164093053Y-78773246D01*
X164017215Y-78904405D01*
X163965867Y-78984787D01*
X163929776Y-79028053D01*
X163889326Y-79059662D01*
X163846492Y-79077935D01*
X163799961Y-79084045D01*
X163745192Y-79077934D01*
X163700780Y-79060723D01*
X163664406Y-79032815D01*
X163637033Y-78995880D01*
X163620142Y-78951091D01*
X163614154Y-78896223D01*
X163620799Y-78835014D01*
X163639186Y-78787306D01*
X163668472Y-78749987D01*
X163709836Y-78721345D01*
X163745021Y-78707599D01*
X163791486Y-78697654D01*
X163851924Y-78692646D01*
X163851924Y-78567655D01*
X163767656Y-78574443D01*
X163699131Y-78590613D01*
X163643585Y-78614794D01*
X163593497Y-78650665D01*
X163554705Y-78695207D01*
X163526170Y-78749597D01*
X163508011Y-78815901D01*
X163501496Y-78896894D01*
X163508123Y-78981054D01*
X163526336Y-79047878D01*
X163554522Y-79100826D01*
X163592355Y-79142481D01*
X163640047Y-79177015D01*
X163689192Y-79200983D01*
X163740414Y-79215233D01*
X163794527Y-79220028D01*
X163851662Y-79214760D01*
X163903484Y-79199355D01*
X163951115Y-79173814D01*
X163995356Y-79137351D01*
X164043509Y-79078447D01*
X164112836Y-78965893D01*
X164164799Y-78872287D01*
X164202703Y-78809731D01*
X164235141Y-78767079D01*
X164277738Y-78725943D01*
X164321464Y-78697833D01*
X164366971Y-78681045D01*
X164366971Y-79215204D01*
X164483109Y-79215204D01*
X164483109Y-78543719D01*
G37*
D13*
G36*
X164404173Y-71705468D02*
G01*
X164411255Y-71800682D01*
X164431095Y-71879941D01*
X164462319Y-71946065D01*
X164504617Y-72001246D01*
X164558237Y-72049307D01*
X164613672Y-72083999D01*
X164671539Y-72106715D01*
X164732740Y-72118116D01*
X164732740Y-71985553D01*
X164671205Y-71964944D01*
X164620550Y-71935028D01*
X164579050Y-71895733D01*
X164555413Y-71860908D01*
X164537730Y-71818837D01*
X164526392Y-71768082D01*
X164522325Y-71706872D01*
X164529166Y-71634653D01*
X164548849Y-71571809D01*
X164581023Y-71516477D01*
X164626556Y-71467392D01*
X164680424Y-71430237D01*
X164749209Y-71401771D01*
X164836319Y-71383073D01*
X164945903Y-71376229D01*
X165034216Y-71381952D01*
X165110080Y-71398155D01*
X165175411Y-71423818D01*
X165231789Y-71458538D01*
X165270570Y-71493944D01*
X165300684Y-71535181D01*
X165322697Y-71583065D01*
X165336517Y-71638845D01*
X165341393Y-71704125D01*
X165336447Y-71763274D01*
X165322303Y-71814503D01*
X165299462Y-71859239D01*
X165267679Y-71898533D01*
X165225989Y-71932980D01*
X165183801Y-71957158D01*
X165131150Y-71978069D01*
X165066132Y-71995140D01*
X165066132Y-72127642D01*
X165143777Y-72113208D01*
X165213209Y-72088758D01*
X165275608Y-72054512D01*
X165331868Y-72010161D01*
X165377687Y-71959859D01*
X165413304Y-71903483D01*
X165439218Y-71840178D01*
X165455331Y-71768744D01*
X165460950Y-71687699D01*
X165453981Y-71601655D01*
X165433839Y-71525068D01*
X165401008Y-71456270D01*
X165355071Y-71393997D01*
X165307213Y-71348621D01*
X165251343Y-71310738D01*
X165186435Y-71280201D01*
X165111136Y-71257295D01*
X165023821Y-71242719D01*
X164922639Y-71237560D01*
X164833125Y-71242716D01*
X164753117Y-71257539D01*
X164681363Y-71281339D01*
X164616789Y-71313809D01*
X164558534Y-71355040D01*
X164503323Y-71409294D01*
X164460751Y-71470309D01*
X164429946Y-71539009D01*
X164410838Y-71616797D01*
X164404173Y-71705468D01*
G37*
G36*
X165185689Y-72359062D02*
G01*
X165235978Y-72370411D01*
X165275758Y-72390422D01*
X165307115Y-72418859D01*
X165331135Y-72456759D01*
X165346298Y-72502807D01*
X165351652Y-72557875D01*
X165346771Y-72611760D01*
X165333166Y-72655425D01*
X165311648Y-72690947D01*
X165281981Y-72719747D01*
X165233421Y-72749197D01*
X165182344Y-72766548D01*
X165127620Y-72772382D01*
X165076979Y-72768069D01*
X165034651Y-72755916D01*
X164999070Y-72736554D01*
X164969106Y-72709856D01*
X164938051Y-72665536D01*
X164919485Y-72616100D01*
X164913114Y-72559951D01*
X164919592Y-72499497D01*
X164937721Y-72450958D01*
X164966855Y-72409091D01*
X165005987Y-72373411D01*
X164999881Y-72266860D01*
X164473171Y-72341354D01*
X164473171Y-72849562D01*
X164592056Y-72849562D01*
X164592056Y-72433556D01*
X164863899Y-72391851D01*
X164840557Y-72426252D01*
X164825003Y-72456759D01*
X164808337Y-72514145D01*
X164802411Y-72583155D01*
X164808041Y-72649054D01*
X164824400Y-72708253D01*
X164851264Y-72762015D01*
X164889178Y-72811277D01*
X164935582Y-72852313D01*
X164986948Y-72881220D01*
X165044312Y-72898809D01*
X165109180Y-72904883D01*
X165177149Y-72899412D01*
X165239925Y-72883355D01*
X165298521Y-72856784D01*
X165353728Y-72819154D01*
X165390086Y-72782957D01*
X165419036Y-72739012D01*
X165440721Y-72686043D01*
X165454624Y-72622288D01*
X165459607Y-72545602D01*
X165455272Y-72486695D01*
X165442580Y-72432318D01*
X165421683Y-72381681D01*
X165392318Y-72334149D01*
X165355377Y-72294282D01*
X165309801Y-72263901D01*
X165254008Y-72242675D01*
X165185689Y-72231323D01*
X165185689Y-72359062D01*
G37*
D12*
G36*
X157291195Y-78679623D02*
G01*
X157347172Y-78686752D01*
X157392786Y-78700449D01*
X157429863Y-78719923D01*
X157464010Y-78749156D01*
X157491177Y-78786012D01*
X157511624Y-78831801D01*
X157524850Y-78888436D01*
X157529637Y-78958304D01*
X157523980Y-79032603D01*
X157507777Y-79097644D01*
X157486564Y-79144151D01*
X157461105Y-79177626D01*
X157431494Y-79200595D01*
X157396987Y-79214452D01*
X157356102Y-79219277D01*
X157304045Y-79212882D01*
X157266351Y-79195554D01*
X157239293Y-79168047D01*
X157219678Y-79131796D01*
X157199713Y-79079103D01*
X157179881Y-79005443D01*
X157149106Y-78869522D01*
X157125661Y-78780403D01*
X157103456Y-78719873D01*
X157082855Y-78680966D01*
X157047629Y-78639203D01*
X157005598Y-78609830D01*
X156955453Y-78591732D01*
X156894972Y-78585345D01*
X156829024Y-78591452D01*
X156771012Y-78609090D01*
X156719370Y-78637987D01*
X156673016Y-78678890D01*
X156636648Y-78727826D01*
X156609650Y-78786865D01*
X156592419Y-78858047D01*
X156586249Y-78943955D01*
X156591362Y-79022571D01*
X156606080Y-79092672D01*
X156629800Y-79155496D01*
X156662391Y-79212072D01*
X156695446Y-79250804D01*
X156735110Y-79281021D01*
X156782342Y-79303280D01*
X156838632Y-79317386D01*
X156905901Y-79322409D01*
X156905901Y-79194670D01*
X156853068Y-79184369D01*
X156812666Y-79169521D01*
X156782254Y-79150950D01*
X156749878Y-79117210D01*
X156725528Y-79072711D01*
X156709595Y-79014790D01*
X156703729Y-78939864D01*
X156707620Y-78878364D01*
X156718120Y-78830817D01*
X156733901Y-78794447D01*
X156754288Y-78767001D01*
X156790593Y-78737307D01*
X156829332Y-78720167D01*
X156871769Y-78714427D01*
X156907076Y-78718491D01*
X156935990Y-78730001D01*
X156959957Y-78748809D01*
X156979724Y-78775916D01*
X157000515Y-78829301D01*
X157034373Y-78958304D01*
X157066430Y-79099049D01*
X157085312Y-79166095D01*
X157106710Y-79217522D01*
X157129994Y-79256158D01*
X157168715Y-79297639D01*
X157214584Y-79327096D01*
X157269020Y-79345339D01*
X157334242Y-79351779D01*
X157400587Y-79346341D01*
X157455828Y-79331059D01*
X157502021Y-79306832D01*
X157540689Y-79273631D01*
X157572684Y-79230513D01*
X157603507Y-79168761D01*
X157625858Y-79101775D01*
X157639627Y-79028758D01*
X157644370Y-78948778D01*
X157637636Y-78855143D01*
X157618741Y-78776734D01*
X157588990Y-78710937D01*
X157548749Y-78655687D01*
X157497863Y-78610073D01*
X157439149Y-78577719D01*
X157371015Y-78558073D01*
X157291195Y-78551884D01*
X157291195Y-78679623D01*
G37*
G36*
X156611528Y-79590038D02*
G01*
X157427848Y-79779265D01*
X156611528Y-80006106D01*
X156611528Y-80153628D01*
X157427848Y-80380408D01*
X156611528Y-80569635D01*
X156611528Y-80718562D01*
X157615000Y-80454902D01*
X157615000Y-80312142D01*
X156782986Y-80080539D01*
X157615000Y-79847592D01*
X157615000Y-79704832D01*
X156611528Y-79442515D01*
X156611528Y-79590038D01*
G37*
G36*
X156922327Y-80872008D02*
G01*
X156828049Y-80872008D01*
X156815666Y-80961554D01*
X156800732Y-81020803D01*
X156784696Y-81057754D01*
X156759380Y-81086611D01*
X156714224Y-81113145D01*
X156640898Y-81136339D01*
X156640898Y-81233365D01*
X157615000Y-81233365D01*
X157615000Y-81102207D01*
X156922327Y-81102207D01*
X156922327Y-80872008D01*
G37*
D13*
G36*
X170863374Y-65107835D02*
G01*
X170433018Y-65107835D01*
X170433018Y-65417291D01*
X170438470Y-65494806D01*
X170451458Y-65539595D01*
X170471393Y-65568855D01*
X170498792Y-65590663D01*
X170535218Y-65605541D01*
X170583288Y-65612685D01*
X170750655Y-65620867D01*
X170829912Y-65627706D01*
X170863374Y-65638636D01*
X170863374Y-65805331D01*
X170840842Y-65805331D01*
X170828877Y-65787463D01*
X170809200Y-65772851D01*
X170779354Y-65761612D01*
X170747620Y-65755854D01*
X170693930Y-65752025D01*
X170559413Y-65747263D01*
X170501487Y-65741156D01*
X170460776Y-65729589D01*
X170433018Y-65714107D01*
X170398870Y-65678568D01*
X170370186Y-65625630D01*
X170343911Y-65667692D01*
X170313245Y-65702138D01*
X170277984Y-65729799D01*
X170238076Y-65749755D01*
X170189538Y-65762480D01*
X170130401Y-65767046D01*
X170062490Y-65760790D01*
X170006900Y-65743263D01*
X169961139Y-65715380D01*
X169923525Y-65676729D01*
X169893363Y-65625630D01*
X169875642Y-65574882D01*
X169864089Y-65512565D01*
X169860090Y-65439822D01*
X169976711Y-65439822D01*
X169982386Y-65505455D01*
X169997166Y-65551197D01*
X170020273Y-65584587D01*
X170051065Y-65608430D01*
X170091149Y-65623544D01*
X170143346Y-65629049D01*
X170193354Y-65624878D01*
X170231391Y-65613600D01*
X170260112Y-65596380D01*
X170281404Y-65573362D01*
X170301658Y-65534433D01*
X170314819Y-65484891D01*
X170319628Y-65422053D01*
X170319628Y-65107835D01*
X169976711Y-65107835D01*
X169976711Y-65439822D01*
X169860090Y-65439822D01*
X169859902Y-65436403D01*
X169859902Y-64971914D01*
X170863374Y-64971914D01*
X170863374Y-65107835D01*
G37*
G36*
X170624260Y-66323676D02*
G01*
X170863374Y-66323676D01*
X170863374Y-66446591D01*
X170624260Y-66446591D01*
X170624260Y-66590755D01*
X170517037Y-66590755D01*
X170517037Y-66446591D01*
X169882433Y-66446591D01*
X169882433Y-66342788D01*
X169911823Y-66321600D01*
X170073675Y-66321600D01*
X170517037Y-66321600D01*
X170517037Y-66008053D01*
X170073675Y-66321600D01*
X169911823Y-66321600D01*
X170504031Y-65894663D01*
X170624260Y-65894663D01*
X170624260Y-66323676D01*
G37*
G36*
X158475000Y-71004969D02*
G01*
X158044644Y-71004969D01*
X158044644Y-71314425D01*
X158050096Y-71391940D01*
X158063084Y-71436729D01*
X158083019Y-71465989D01*
X158110418Y-71487797D01*
X158146844Y-71502675D01*
X158194914Y-71509819D01*
X158362281Y-71518001D01*
X158441538Y-71524840D01*
X158475000Y-71535770D01*
X158475000Y-71702465D01*
X158452468Y-71702465D01*
X158440503Y-71684597D01*
X158420826Y-71669985D01*
X158390980Y-71658746D01*
X158359246Y-71652988D01*
X158305556Y-71649159D01*
X158171039Y-71644397D01*
X158113113Y-71638290D01*
X158072402Y-71626723D01*
X158044644Y-71611241D01*
X158010496Y-71575702D01*
X157981812Y-71522764D01*
X157955537Y-71564826D01*
X157924871Y-71599272D01*
X157889610Y-71626933D01*
X157849702Y-71646889D01*
X157801164Y-71659614D01*
X157742027Y-71664180D01*
X157674116Y-71657924D01*
X157618526Y-71640397D01*
X157572765Y-71612514D01*
X157535151Y-71573863D01*
X157504989Y-71522764D01*
X157487268Y-71472016D01*
X157475715Y-71409699D01*
X157471716Y-71336956D01*
X157588337Y-71336956D01*
X157594012Y-71402589D01*
X157608792Y-71448331D01*
X157631899Y-71481721D01*
X157662691Y-71505564D01*
X157702775Y-71520678D01*
X157754972Y-71526183D01*
X157804980Y-71522012D01*
X157843017Y-71510734D01*
X157871738Y-71493514D01*
X157893030Y-71470496D01*
X157913284Y-71431567D01*
X157926445Y-71382025D01*
X157931254Y-71319187D01*
X157931254Y-71004969D01*
X157588337Y-71004969D01*
X157588337Y-71336956D01*
X157471716Y-71336956D01*
X157471528Y-71333537D01*
X157471528Y-70869048D01*
X158475000Y-70869048D01*
X158475000Y-71004969D01*
G37*
G36*
X158225689Y-71929062D02*
G01*
X158275978Y-71940411D01*
X158315758Y-71960422D01*
X158347115Y-71988859D01*
X158371135Y-72026759D01*
X158386298Y-72072807D01*
X158391652Y-72127875D01*
X158386771Y-72181760D01*
X158373166Y-72225425D01*
X158351648Y-72260947D01*
X158321981Y-72289747D01*
X158273421Y-72319197D01*
X158222344Y-72336548D01*
X158167620Y-72342382D01*
X158116979Y-72338069D01*
X158074651Y-72325916D01*
X158039070Y-72306554D01*
X158009106Y-72279856D01*
X157978051Y-72235536D01*
X157959485Y-72186100D01*
X157953114Y-72129951D01*
X157959592Y-72069497D01*
X157977721Y-72020958D01*
X158006855Y-71979091D01*
X158045987Y-71943411D01*
X158039881Y-71836860D01*
X157513171Y-71911354D01*
X157513171Y-72419562D01*
X157632056Y-72419562D01*
X157632056Y-72003556D01*
X157903899Y-71961851D01*
X157880557Y-71996252D01*
X157865003Y-72026759D01*
X157848337Y-72084145D01*
X157842411Y-72153155D01*
X157848041Y-72219054D01*
X157864400Y-72278253D01*
X157891264Y-72332015D01*
X157929178Y-72381277D01*
X157975582Y-72422313D01*
X158026948Y-72451220D01*
X158084312Y-72468809D01*
X158149180Y-72474883D01*
X158217149Y-72469412D01*
X158279925Y-72453355D01*
X158338521Y-72426784D01*
X158393728Y-72389154D01*
X158430086Y-72352957D01*
X158459036Y-72309012D01*
X158480721Y-72256043D01*
X158494624Y-72192288D01*
X158499607Y-72115602D01*
X158495272Y-72056695D01*
X158482580Y-72002318D01*
X158461683Y-71951681D01*
X158432318Y-71904149D01*
X158395377Y-71864282D01*
X158349801Y-71833901D01*
X158294008Y-71812675D01*
X158225689Y-71801323D01*
X158225689Y-71929062D01*
G37*
G36*
X162091528Y-73790206D02*
G01*
X162711782Y-73790206D01*
X162783720Y-73795217D01*
X162843600Y-73809226D01*
X162893499Y-73831178D01*
X162932601Y-73858619D01*
X162962528Y-73891845D01*
X162984264Y-73931541D01*
X162997936Y-73979018D01*
X163002798Y-74036098D01*
X162997265Y-74105709D01*
X162981963Y-74161728D01*
X162958121Y-74206798D01*
X162925943Y-74242888D01*
X162884584Y-74271120D01*
X162840463Y-74288669D01*
X162783832Y-74300297D01*
X162711782Y-74304582D01*
X162091528Y-74304582D01*
X162091528Y-74442579D01*
X162655057Y-74442579D01*
X162750788Y-74438775D01*
X162828342Y-74428369D01*
X162890539Y-74412671D01*
X162939905Y-74392692D01*
X162994376Y-74358487D01*
X163038477Y-74316434D01*
X163073312Y-74265868D01*
X163099215Y-74205455D01*
X163115728Y-74133294D01*
X163121622Y-74047028D01*
X163115722Y-73960765D01*
X163099201Y-73888674D01*
X163073293Y-73828378D01*
X163038461Y-73777965D01*
X162994369Y-73736092D01*
X162939905Y-73702096D01*
X162890539Y-73682117D01*
X162828342Y-73666419D01*
X162750788Y-73656013D01*
X162655057Y-73652209D01*
X162091528Y-73652209D01*
X162091528Y-73790206D01*
G37*
G36*
X162402327Y-74680166D02*
G01*
X162308049Y-74680166D01*
X162295666Y-74769713D01*
X162280732Y-74828961D01*
X162264696Y-74865913D01*
X162239380Y-74894770D01*
X162194224Y-74921303D01*
X162120898Y-74944498D01*
X162120898Y-75041523D01*
X163095000Y-75041523D01*
X163095000Y-74910365D01*
X162402327Y-74910365D01*
X162402327Y-74680166D01*
G37*
G36*
X169234173Y-76815468D02*
G01*
X169241255Y-76910682D01*
X169261095Y-76989941D01*
X169292319Y-77056065D01*
X169334617Y-77111246D01*
X169388237Y-77159307D01*
X169443672Y-77193999D01*
X169501539Y-77216715D01*
X169562740Y-77228116D01*
X169562740Y-77095553D01*
X169501205Y-77074944D01*
X169450550Y-77045028D01*
X169409050Y-77005733D01*
X169385413Y-76970908D01*
X169367730Y-76928837D01*
X169356392Y-76878082D01*
X169352325Y-76816872D01*
X169359166Y-76744653D01*
X169378849Y-76681809D01*
X169411023Y-76626477D01*
X169456556Y-76577392D01*
X169510424Y-76540237D01*
X169579209Y-76511771D01*
X169666319Y-76493073D01*
X169775903Y-76486229D01*
X169864216Y-76491952D01*
X169940080Y-76508155D01*
X170005411Y-76533818D01*
X170061789Y-76568538D01*
X170100570Y-76603944D01*
X170130684Y-76645181D01*
X170152697Y-76693065D01*
X170166517Y-76748845D01*
X170171393Y-76814125D01*
X170166447Y-76873274D01*
X170152303Y-76924503D01*
X170129462Y-76969239D01*
X170097679Y-77008533D01*
X170055989Y-77042980D01*
X170013801Y-77067158D01*
X169961150Y-77088069D01*
X169896132Y-77105140D01*
X169896132Y-77237642D01*
X169973777Y-77223208D01*
X170043209Y-77198758D01*
X170105608Y-77164512D01*
X170161868Y-77120161D01*
X170207687Y-77069859D01*
X170243304Y-77013483D01*
X170269218Y-76950178D01*
X170285331Y-76878744D01*
X170290950Y-76797699D01*
X170283981Y-76711655D01*
X170263839Y-76635068D01*
X170231008Y-76566270D01*
X170185071Y-76503997D01*
X170137213Y-76458621D01*
X170081343Y-76420738D01*
X170016435Y-76390201D01*
X169941136Y-76367295D01*
X169853821Y-76352719D01*
X169752639Y-76347560D01*
X169663125Y-76352716D01*
X169583117Y-76367539D01*
X169511363Y-76391339D01*
X169446789Y-76423809D01*
X169388534Y-76465040D01*
X169333323Y-76519294D01*
X169290751Y-76580309D01*
X169259946Y-76649009D01*
X169240838Y-76726797D01*
X169234173Y-76815468D01*
G37*
G36*
X169689231Y-77351664D02*
G01*
X169748887Y-77367470D01*
X169801308Y-77393000D01*
X169847650Y-77428456D01*
X169885524Y-77472320D01*
X169912805Y-77523218D01*
X169929784Y-77582534D01*
X169935760Y-77652183D01*
X169929092Y-77719985D01*
X169909443Y-77782303D01*
X169888188Y-77819640D01*
X169858198Y-77853333D01*
X169818218Y-77883725D01*
X169937247Y-77865347D01*
X170021633Y-77843592D01*
X170079147Y-77820004D01*
X170116439Y-77795614D01*
X170149347Y-77761911D01*
X170171906Y-77726100D01*
X170185294Y-77687567D01*
X170189834Y-77645344D01*
X170184596Y-77600092D01*
X170169378Y-77560653D01*
X170146653Y-77529036D01*
X170116710Y-77505597D01*
X170078153Y-77489723D01*
X170028633Y-77482068D01*
X170028633Y-77357748D01*
X170084128Y-77362616D01*
X170133311Y-77376691D01*
X170177377Y-77399722D01*
X170217189Y-77432181D01*
X170248665Y-77471473D01*
X170272026Y-77519568D01*
X170286978Y-77578313D01*
X170292355Y-77650107D01*
X170285918Y-77718039D01*
X170267381Y-77777296D01*
X170237040Y-77829622D01*
X170194040Y-77876200D01*
X170136453Y-77917530D01*
X170061423Y-77953395D01*
X169967497Y-77982651D01*
X169861963Y-78000974D01*
X169743114Y-78007373D01*
X169637461Y-78001768D01*
X169550063Y-77986233D01*
X169478049Y-77962310D01*
X169417652Y-77930545D01*
X169370211Y-77892604D01*
X169333873Y-77848370D01*
X169307584Y-77797060D01*
X169291180Y-77737293D01*
X169285629Y-77669951D01*
X169397449Y-77669951D01*
X169403607Y-77723804D01*
X169421261Y-77769275D01*
X169450389Y-77808254D01*
X169478328Y-77830782D01*
X169513339Y-77847663D01*
X169556986Y-77858578D01*
X169611284Y-77862537D01*
X169672087Y-77857944D01*
X169718489Y-77845555D01*
X169753580Y-77826793D01*
X169779689Y-77802087D01*
X169806707Y-77759801D01*
X169822514Y-77715631D01*
X169827805Y-77668547D01*
X169823704Y-77617661D01*
X169812432Y-77577314D01*
X169794962Y-77545380D01*
X169771446Y-77520292D01*
X169731446Y-77495385D01*
X169681648Y-77479582D01*
X169619466Y-77473886D01*
X169553987Y-77480302D01*
X169501014Y-77498236D01*
X169457899Y-77526825D01*
X169424673Y-77565679D01*
X169404533Y-77612570D01*
X169397449Y-77669951D01*
X169285629Y-77669951D01*
X169285403Y-77667204D01*
X169292404Y-77589131D01*
X169312049Y-77524815D01*
X169343301Y-77471538D01*
X169386519Y-77427418D01*
X169439198Y-77391797D01*
X169495262Y-77366599D01*
X169555474Y-77351349D01*
X169620809Y-77346147D01*
X169689231Y-77351664D01*
G37*
G36*
X166515000Y-85770139D02*
G01*
X166090811Y-85770139D01*
X166090811Y-86085761D01*
X166084586Y-86161226D01*
X166067337Y-86222035D01*
X166040359Y-86271078D01*
X166003738Y-86310465D01*
X165958205Y-86342506D01*
X165909426Y-86365176D01*
X165856688Y-86378917D01*
X165799063Y-86383615D01*
X165731519Y-86377957D01*
X165674927Y-86362004D01*
X165627249Y-86336597D01*
X165586999Y-86301611D01*
X165554738Y-86258654D01*
X165531303Y-86209235D01*
X165516671Y-86152134D01*
X165511528Y-86085761D01*
X165511528Y-86040637D01*
X165628337Y-86040637D01*
X165634278Y-86114555D01*
X165649464Y-86164285D01*
X165673157Y-86199555D01*
X165704807Y-86224646D01*
X165746041Y-86240514D01*
X165799795Y-86246290D01*
X165848887Y-86242075D01*
X165886600Y-86230618D01*
X165915430Y-86212996D01*
X165937121Y-86189259D01*
X165957942Y-86149449D01*
X165971234Y-86100621D01*
X165976017Y-86040637D01*
X165976017Y-85770139D01*
X165628337Y-85770139D01*
X165628337Y-86040637D01*
X165511528Y-86040637D01*
X165511528Y-85634217D01*
X166515000Y-85634217D01*
X166515000Y-85770139D01*
G37*
G36*
X165822327Y-86581574D02*
G01*
X165728049Y-86581574D01*
X165715666Y-86671121D01*
X165700732Y-86730369D01*
X165684696Y-86767321D01*
X165659380Y-86796178D01*
X165614224Y-86822711D01*
X165540898Y-86845906D01*
X165540898Y-86942932D01*
X166515000Y-86942932D01*
X166515000Y-86811773D01*
X165822327Y-86811773D01*
X165822327Y-86581574D01*
G37*
G36*
X161524173Y-67205468D02*
G01*
X161531255Y-67300682D01*
X161551095Y-67379941D01*
X161582319Y-67446065D01*
X161624617Y-67501246D01*
X161678237Y-67549307D01*
X161733672Y-67583999D01*
X161791539Y-67606715D01*
X161852740Y-67618116D01*
X161852740Y-67485553D01*
X161791205Y-67464944D01*
X161740550Y-67435028D01*
X161699050Y-67395733D01*
X161675413Y-67360908D01*
X161657730Y-67318837D01*
X161646392Y-67268082D01*
X161642325Y-67206872D01*
X161649166Y-67134653D01*
X161668849Y-67071809D01*
X161701023Y-67016477D01*
X161746556Y-66967392D01*
X161800424Y-66930237D01*
X161869209Y-66901771D01*
X161956319Y-66883073D01*
X162065903Y-66876229D01*
X162154216Y-66881952D01*
X162230080Y-66898155D01*
X162295411Y-66923818D01*
X162351789Y-66958538D01*
X162390570Y-66993944D01*
X162420684Y-67035181D01*
X162442697Y-67083065D01*
X162456517Y-67138845D01*
X162461393Y-67204125D01*
X162456447Y-67263274D01*
X162442303Y-67314503D01*
X162419462Y-67359239D01*
X162387679Y-67398533D01*
X162345989Y-67432980D01*
X162303801Y-67457158D01*
X162251150Y-67478069D01*
X162186132Y-67495140D01*
X162186132Y-67627642D01*
X162263777Y-67613208D01*
X162333209Y-67588758D01*
X162395608Y-67554512D01*
X162451868Y-67510161D01*
X162497687Y-67459859D01*
X162533304Y-67403483D01*
X162559218Y-67340178D01*
X162575331Y-67268744D01*
X162580950Y-67187699D01*
X162573981Y-67101655D01*
X162553839Y-67025068D01*
X162521008Y-66956270D01*
X162475071Y-66893997D01*
X162427213Y-66848621D01*
X162371343Y-66810738D01*
X162306435Y-66780201D01*
X162231136Y-66757295D01*
X162143821Y-66742719D01*
X162042639Y-66737560D01*
X161953125Y-66742716D01*
X161873117Y-66757539D01*
X161801363Y-66781339D01*
X161736789Y-66813809D01*
X161678534Y-66855040D01*
X161623323Y-66909294D01*
X161580751Y-66970309D01*
X161549946Y-67039009D01*
X161530838Y-67116797D01*
X161524173Y-67205468D01*
G37*
G36*
X162352720Y-67738063D02*
G01*
X162412848Y-67757078D01*
X162463221Y-67787557D01*
X162505479Y-67830058D01*
X162538899Y-67881223D01*
X162563003Y-67937834D01*
X162577872Y-68000869D01*
X162583026Y-68071553D01*
X162576756Y-68150281D01*
X162559146Y-68215897D01*
X162531277Y-68270796D01*
X162493206Y-68316773D01*
X162445668Y-68354830D01*
X162393985Y-68381666D01*
X162337256Y-68397948D01*
X162274242Y-68403540D01*
X162220293Y-68399172D01*
X162173491Y-68386686D01*
X162132580Y-68366556D01*
X162096617Y-68338633D01*
X162063667Y-68299098D01*
X162032442Y-68243011D01*
X161999590Y-68292695D01*
X161969549Y-68323612D01*
X161929424Y-68348727D01*
X161880760Y-68364467D01*
X161821355Y-68370079D01*
X161773726Y-68365160D01*
X161729584Y-68350588D01*
X161687957Y-68325988D01*
X161648187Y-68290150D01*
X161616893Y-68248312D01*
X161593846Y-68198675D01*
X161579251Y-68139715D01*
X161574059Y-68069477D01*
X161574581Y-68062638D01*
X161686777Y-68062638D01*
X161692576Y-68120544D01*
X161708261Y-68163777D01*
X161732573Y-68195873D01*
X161765048Y-68220752D01*
X161798193Y-68234924D01*
X161832957Y-68239592D01*
X161872960Y-68234491D01*
X161908645Y-68219448D01*
X161941217Y-68193797D01*
X161965752Y-68160674D01*
X161981121Y-68119127D01*
X161986646Y-68066729D01*
X161986513Y-68065386D01*
X162093869Y-68065386D01*
X162099725Y-68124166D01*
X162116305Y-68173130D01*
X162143084Y-68214313D01*
X162169570Y-68239027D01*
X162201579Y-68256998D01*
X162240251Y-68268336D01*
X162287187Y-68272382D01*
X162345633Y-68265502D01*
X162390436Y-68246498D01*
X162424879Y-68216023D01*
X162450025Y-68176221D01*
X162465531Y-68129568D01*
X162470980Y-68074301D01*
X162466922Y-68020799D01*
X162455746Y-67978012D01*
X162438449Y-67943862D01*
X162415293Y-67916764D01*
X162375744Y-67888447D01*
X162332137Y-67871637D01*
X162283096Y-67865901D01*
X162226372Y-67872543D01*
X162180913Y-67891219D01*
X162144122Y-67921588D01*
X162116709Y-67961320D01*
X162099823Y-68008572D01*
X162093869Y-68065386D01*
X161986513Y-68065386D01*
X161982174Y-68021601D01*
X161969195Y-67981668D01*
X161947751Y-67945829D01*
X161918580Y-67917464D01*
X161883257Y-67900526D01*
X161839795Y-67894599D01*
X161800277Y-67899068D01*
X161764881Y-67912176D01*
X161732573Y-67934227D01*
X161708393Y-67963848D01*
X161692662Y-68005302D01*
X161686777Y-68062638D01*
X161574581Y-68062638D01*
X161579595Y-67996905D01*
X161595096Y-67936644D01*
X161619508Y-67886479D01*
X161652644Y-67844712D01*
X161694419Y-67809660D01*
X161739107Y-67785213D01*
X161787441Y-67770525D01*
X161840467Y-67765517D01*
X161896541Y-67771855D01*
X161943204Y-67789907D01*
X161982555Y-67819494D01*
X162009023Y-67852209D01*
X162033785Y-67899423D01*
X162060302Y-67846965D01*
X162092490Y-67805588D01*
X162130444Y-67773699D01*
X162174309Y-67750511D01*
X162223861Y-67736271D01*
X162280409Y-67731323D01*
X162352720Y-67738063D01*
G37*
G36*
X170265000Y-79083866D02*
G01*
X170258174Y-79168628D01*
X170238739Y-79241535D01*
X170207531Y-79304678D01*
X170164387Y-79359628D01*
X170108162Y-79407320D01*
X170036816Y-79447971D01*
X169948943Y-79480922D01*
X169853096Y-79501153D01*
X169747876Y-79508116D01*
X169644546Y-79501132D01*
X169554863Y-79481254D01*
X169476714Y-79449551D01*
X169408379Y-79406328D01*
X169355769Y-79357256D01*
X169315296Y-79301719D01*
X169286035Y-79238853D01*
X169267873Y-79167293D01*
X169261528Y-79085271D01*
X169261528Y-79056572D01*
X169378337Y-79056572D01*
X169383096Y-79123119D01*
X169396417Y-79178561D01*
X169417335Y-79224813D01*
X169445554Y-79263394D01*
X169481468Y-79295320D01*
X169534007Y-79325818D01*
X169598194Y-79349001D01*
X169676319Y-79364027D01*
X169771079Y-79369447D01*
X169820481Y-79366996D01*
X169876287Y-79359189D01*
X169938565Y-79343993D01*
X169989955Y-79324457D01*
X170032053Y-79301120D01*
X170077873Y-79263484D01*
X170111597Y-79220466D01*
X170134513Y-79171305D01*
X170144893Y-79123687D01*
X170148862Y-79057916D01*
X170148862Y-78815382D01*
X169378337Y-78815382D01*
X169378337Y-79056572D01*
X169261528Y-79056572D01*
X169261528Y-78678790D01*
X170265000Y-78678790D01*
X170265000Y-79083866D01*
G37*
G36*
X170265000Y-79619979D02*
G01*
X170181731Y-79629285D01*
X170108881Y-79646937D01*
X170045059Y-79672247D01*
X170002404Y-79698081D01*
X169959993Y-79734897D01*
X169917529Y-79784585D01*
X169874944Y-79849507D01*
X169799106Y-79980665D01*
X169747758Y-80061047D01*
X169711667Y-80104313D01*
X169671217Y-80135923D01*
X169628383Y-80154195D01*
X169581852Y-80160306D01*
X169527083Y-80154195D01*
X169482671Y-80136983D01*
X169446297Y-80109076D01*
X169418924Y-80072141D01*
X169402033Y-80027351D01*
X169396045Y-79972483D01*
X169402690Y-79911274D01*
X169421077Y-79863566D01*
X169450363Y-79826247D01*
X169491727Y-79797605D01*
X169526912Y-79783860D01*
X169573377Y-79773915D01*
X169633815Y-79768906D01*
X169633815Y-79643915D01*
X169549547Y-79650703D01*
X169481022Y-79666874D01*
X169425476Y-79691054D01*
X169375388Y-79726925D01*
X169336596Y-79771467D01*
X169308061Y-79825858D01*
X169289902Y-79892161D01*
X169283387Y-79973155D01*
X169290014Y-80057314D01*
X169308227Y-80124138D01*
X169336413Y-80177086D01*
X169374246Y-80218741D01*
X169421938Y-80253276D01*
X169471083Y-80277243D01*
X169522305Y-80291494D01*
X169576418Y-80296288D01*
X169633553Y-80291020D01*
X169685375Y-80275615D01*
X169733006Y-80250074D01*
X169777247Y-80213612D01*
X169825400Y-80154707D01*
X169894727Y-80042153D01*
X169946690Y-79948547D01*
X169984594Y-79885991D01*
X170017032Y-79843339D01*
X170059629Y-79802203D01*
X170103355Y-79774093D01*
X170148862Y-79757305D01*
X170148862Y-80291464D01*
X170265000Y-80291464D01*
X170265000Y-79619979D01*
G37*
G36*
X169678780Y-65107835D02*
G01*
X169248424Y-65107835D01*
X169248424Y-65417291D01*
X169253876Y-65494806D01*
X169266864Y-65539595D01*
X169286799Y-65568855D01*
X169314198Y-65590663D01*
X169350624Y-65605541D01*
X169398694Y-65612685D01*
X169566061Y-65620867D01*
X169645318Y-65627706D01*
X169678780Y-65638636D01*
X169678780Y-65805331D01*
X169656248Y-65805331D01*
X169644283Y-65787463D01*
X169624606Y-65772851D01*
X169594760Y-65761612D01*
X169563026Y-65755854D01*
X169509336Y-65752025D01*
X169374819Y-65747263D01*
X169316893Y-65741156D01*
X169276182Y-65729589D01*
X169248424Y-65714107D01*
X169214276Y-65678568D01*
X169185592Y-65625630D01*
X169159317Y-65667692D01*
X169128651Y-65702138D01*
X169093390Y-65729799D01*
X169053482Y-65749755D01*
X169004944Y-65762480D01*
X168945807Y-65767046D01*
X168877896Y-65760790D01*
X168822306Y-65743263D01*
X168776545Y-65715380D01*
X168738931Y-65676729D01*
X168708769Y-65625630D01*
X168691048Y-65574882D01*
X168679495Y-65512565D01*
X168675496Y-65439822D01*
X168792117Y-65439822D01*
X168797792Y-65505455D01*
X168812572Y-65551197D01*
X168835679Y-65584587D01*
X168866471Y-65608430D01*
X168906555Y-65623544D01*
X168958752Y-65629049D01*
X169008760Y-65624878D01*
X169046797Y-65613600D01*
X169075518Y-65596380D01*
X169096810Y-65573362D01*
X169117064Y-65534433D01*
X169130225Y-65484891D01*
X169135034Y-65422053D01*
X169135034Y-65107835D01*
X168792117Y-65107835D01*
X168792117Y-65439822D01*
X168675496Y-65439822D01*
X168675308Y-65436403D01*
X168675308Y-64971914D01*
X169678780Y-64971914D01*
X169678780Y-65107835D01*
G37*
G36*
X169705402Y-66222559D02*
G01*
X169698443Y-66135715D01*
X169679347Y-66067114D01*
X169649818Y-66013056D01*
X169610147Y-65970806D01*
X169560546Y-65936942D01*
X169506010Y-65912656D01*
X169445614Y-65897742D01*
X169378178Y-65892587D01*
X169378178Y-66020998D01*
X169441543Y-66029742D01*
X169486052Y-66042003D01*
X169516175Y-66056535D01*
X169548559Y-66083660D01*
X169572366Y-66119883D01*
X169587761Y-66167375D01*
X169593417Y-66229398D01*
X169587161Y-66292117D01*
X169569615Y-66343197D01*
X169541515Y-66385103D01*
X169503574Y-66417750D01*
X169459591Y-66437183D01*
X169407609Y-66443904D01*
X169357429Y-66439393D01*
X169318673Y-66427077D01*
X169288828Y-66407996D01*
X169266192Y-66382050D01*
X169245015Y-66338925D01*
X169231050Y-66282776D01*
X169225892Y-66210225D01*
X169226259Y-66185312D01*
X169227236Y-66159728D01*
X169118609Y-66159728D01*
X169121356Y-66191785D01*
X169122028Y-66219812D01*
X169116080Y-66285100D01*
X169100168Y-66333201D01*
X169077439Y-66367132D01*
X169048105Y-66390945D01*
X169010937Y-66405780D01*
X168963575Y-66411115D01*
X168917419Y-66405015D01*
X168880597Y-66387748D01*
X168850857Y-66359152D01*
X168828935Y-66322856D01*
X168815748Y-66282905D01*
X168811229Y-66238252D01*
X168817116Y-66177775D01*
X168833236Y-66131159D01*
X168858428Y-66095269D01*
X168893172Y-66068137D01*
X168924409Y-66054351D01*
X168966327Y-66044192D01*
X169021644Y-66038767D01*
X169021644Y-65917195D01*
X168949877Y-65922438D01*
X168888522Y-65937287D01*
X168835836Y-65960914D01*
X168787434Y-65994835D01*
X168750104Y-66036789D01*
X168722750Y-66087811D01*
X168705396Y-66149792D01*
X168699183Y-66225307D01*
X168704000Y-66300875D01*
X168717391Y-66363237D01*
X168738178Y-66414618D01*
X168765800Y-66456849D01*
X168801921Y-66492029D01*
X168845064Y-66517367D01*
X168896652Y-66533225D01*
X168958752Y-66538854D01*
X169017090Y-66533037D01*
X169065095Y-66516653D01*
X169104931Y-66490310D01*
X169135629Y-66456389D01*
X169159580Y-66412458D01*
X169178448Y-66460881D01*
X169205535Y-66500624D01*
X169241218Y-66532992D01*
X169283430Y-66556654D01*
X169332208Y-66571281D01*
X169389107Y-66576406D01*
X169457698Y-66570308D01*
X169517573Y-66552777D01*
X169570380Y-66524240D01*
X169617291Y-66484143D01*
X169654308Y-66435773D01*
X169681705Y-66377484D01*
X169699158Y-66307271D01*
X169705402Y-66222559D01*
G37*
G36*
X155971528Y-69415484D02*
G01*
X156091024Y-69415484D01*
X156091024Y-69077329D01*
X156975000Y-69077329D01*
X156975000Y-68939332D01*
X156091024Y-68939332D01*
X156091024Y-68601178D01*
X155971528Y-68601178D01*
X155971528Y-69415484D01*
G37*
G36*
X155971528Y-69543467D02*
G01*
X155971528Y-69680792D01*
X156386130Y-69680792D01*
X156386130Y-70202678D01*
X155971528Y-70202678D01*
X155971528Y-70340004D01*
X156975000Y-70340004D01*
X156975000Y-70202678D01*
X156505687Y-70202678D01*
X156505687Y-69680792D01*
X156975000Y-69680792D01*
X156975000Y-69543467D01*
X155971528Y-69543467D01*
G37*
G36*
X156282327Y-70577591D02*
G01*
X156188049Y-70577591D01*
X156175666Y-70667138D01*
X156160732Y-70726386D01*
X156144696Y-70763338D01*
X156119380Y-70792195D01*
X156074224Y-70818728D01*
X156000898Y-70841923D01*
X156000898Y-70938948D01*
X156975000Y-70938948D01*
X156975000Y-70807790D01*
X156282327Y-70807790D01*
X156282327Y-70577591D01*
G37*
G36*
X164974173Y-69015468D02*
G01*
X164981255Y-69110682D01*
X165001095Y-69189941D01*
X165032319Y-69256065D01*
X165074617Y-69311246D01*
X165128237Y-69359307D01*
X165183672Y-69393999D01*
X165241539Y-69416715D01*
X165302740Y-69428116D01*
X165302740Y-69295553D01*
X165241205Y-69274944D01*
X165190550Y-69245028D01*
X165149050Y-69205733D01*
X165125413Y-69170908D01*
X165107730Y-69128837D01*
X165096392Y-69078082D01*
X165092325Y-69016872D01*
X165099166Y-68944653D01*
X165118849Y-68881809D01*
X165151023Y-68826477D01*
X165196556Y-68777392D01*
X165250424Y-68740237D01*
X165319209Y-68711771D01*
X165406319Y-68693073D01*
X165515903Y-68686229D01*
X165604216Y-68691952D01*
X165680080Y-68708155D01*
X165745411Y-68733818D01*
X165801789Y-68768538D01*
X165840570Y-68803944D01*
X165870684Y-68845181D01*
X165892697Y-68893065D01*
X165906517Y-68948845D01*
X165911393Y-69014125D01*
X165906447Y-69073274D01*
X165892303Y-69124503D01*
X165869462Y-69169239D01*
X165837679Y-69208533D01*
X165795989Y-69242980D01*
X165753801Y-69267158D01*
X165701150Y-69288069D01*
X165636132Y-69305140D01*
X165636132Y-69437642D01*
X165713777Y-69423208D01*
X165783209Y-69398758D01*
X165845608Y-69364512D01*
X165901868Y-69320161D01*
X165947687Y-69269859D01*
X165983304Y-69213483D01*
X166009218Y-69150178D01*
X166025331Y-69078744D01*
X166030950Y-68997699D01*
X166023981Y-68911655D01*
X166003839Y-68835068D01*
X165971008Y-68766270D01*
X165925071Y-68703997D01*
X165877213Y-68658621D01*
X165821343Y-68620738D01*
X165756435Y-68590201D01*
X165681136Y-68567295D01*
X165593821Y-68552719D01*
X165492639Y-68547560D01*
X165403125Y-68552716D01*
X165323117Y-68567539D01*
X165251363Y-68591339D01*
X165186789Y-68623809D01*
X165128534Y-68665040D01*
X165073323Y-68719294D01*
X165030751Y-68780309D01*
X164999946Y-68849009D01*
X164980838Y-68926797D01*
X164974173Y-69015468D01*
G37*
G36*
X165679247Y-69553898D02*
G01*
X165763252Y-69567779D01*
X165830586Y-69588837D01*
X165884091Y-69615942D01*
X165926109Y-69648545D01*
X165972452Y-69701857D01*
X166004567Y-69758462D01*
X166023758Y-69819280D01*
X166030279Y-69885644D01*
X166023235Y-69964618D01*
X166003357Y-70030611D01*
X165971564Y-70086133D01*
X165927452Y-70132940D01*
X165873615Y-70171211D01*
X165816886Y-70198072D01*
X165756499Y-70214223D01*
X165691453Y-70219707D01*
X165614151Y-70213245D01*
X165551042Y-70195228D01*
X165499378Y-70166858D01*
X165457163Y-70128116D01*
X165422656Y-70080178D01*
X165398317Y-70028995D01*
X165383601Y-69973820D01*
X165378578Y-69913671D01*
X165380917Y-69890407D01*
X165490624Y-69890407D01*
X165495641Y-69946832D01*
X165509260Y-69989872D01*
X165530224Y-70022529D01*
X165558585Y-70046844D01*
X165605355Y-70071029D01*
X165652805Y-70085188D01*
X165701711Y-70089892D01*
X165759301Y-70084336D01*
X165810193Y-70068236D01*
X165855767Y-70041715D01*
X165883764Y-70015255D01*
X165903879Y-69983119D01*
X165916486Y-69944143D01*
X165920980Y-69896574D01*
X165916705Y-69849299D01*
X165904569Y-69809298D01*
X165885035Y-69775169D01*
X165857782Y-69745937D01*
X165813023Y-69716113D01*
X165761606Y-69697968D01*
X165701711Y-69691654D01*
X165648962Y-69695913D01*
X165606168Y-69707739D01*
X165571407Y-69726256D01*
X165543258Y-69751372D01*
X165513885Y-69793637D01*
X165496519Y-69839540D01*
X165490624Y-69890407D01*
X165380917Y-69890407D01*
X165385605Y-69843774D01*
X165405933Y-69782513D01*
X165429723Y-69742366D01*
X165460463Y-69706963D01*
X165498806Y-69675901D01*
X165407782Y-69683682D01*
X165333674Y-69698309D01*
X165273830Y-69718550D01*
X165225926Y-69743556D01*
X165182985Y-69777858D01*
X165153847Y-69815978D01*
X165136541Y-69858684D01*
X165130610Y-69907504D01*
X165134840Y-69951660D01*
X165146707Y-69987804D01*
X165165663Y-70017585D01*
X165192098Y-70042082D01*
X165228979Y-70061853D01*
X165282957Y-70076886D01*
X165282957Y-70198519D01*
X165224858Y-70191691D01*
X165166871Y-70170734D01*
X165107712Y-70133917D01*
X165072848Y-70098651D01*
X165046478Y-70051118D01*
X165029097Y-69988140D01*
X165022655Y-69905428D01*
X165029519Y-69833220D01*
X165049183Y-69771056D01*
X165081211Y-69716923D01*
X165126455Y-69669474D01*
X165186974Y-69628161D01*
X165265860Y-69593285D01*
X165351711Y-69569626D01*
X165453973Y-69554321D01*
X165575315Y-69548833D01*
X165679247Y-69553898D01*
G37*
%TO.C,L2*%
D12*
X162518109Y-77000000D02*
X165481891Y-77000000D01*
X165481891Y-80000000D02*
X162518109Y-80000000D01*
%TO.C,J1*%
D14*
X162819809Y-58121990D02*
X162819809Y-58756990D01*
X163454809Y-58121990D02*
X162819809Y-58121990D01*
%TO.C,C5*%
X166484165Y-71140000D02*
X166715835Y-71140000D01*
X166484165Y-71860000D02*
X166715835Y-71860000D01*
%TO.C,R4*%
X169920000Y-67632379D02*
X169920000Y-67967621D01*
X170680000Y-67632379D02*
X170680000Y-67967621D01*
%TO.C,R5*%
X158610000Y-71767621D02*
X158610000Y-71432379D01*
X159370000Y-71767621D02*
X159370000Y-71432379D01*
%TO.C,U1*%
X164180000Y-76350000D02*
X163850000Y-76110000D01*
X163850000Y-76590000D01*
X164180000Y-76350000D01*
G36*
X164180000Y-76350000D02*
G01*
X163850000Y-76590000D01*
X163850000Y-76110000D01*
X164180000Y-76350000D01*
G37*
%TO.C,C9*%
X167253733Y-76790000D02*
X167546267Y-76790000D01*
X167253733Y-77810000D02*
X167546267Y-77810000D01*
%TO.C,BT1*%
X169315000Y-72880000D02*
X169315000Y-71000000D01*
X171285000Y-69830000D02*
X173785000Y-69830000D01*
X171285000Y-74050000D02*
X173785000Y-74050000D01*
X173785000Y-69830000D02*
X173785000Y-70880000D01*
X173785000Y-73000000D02*
X174775000Y-73000000D01*
X173785000Y-74050000D02*
X173785000Y-73000000D01*
%TO.C,C8*%
X161168776Y-71818051D02*
X161168776Y-70395547D01*
X162988776Y-71818051D02*
X162988776Y-70395547D01*
%TO.C,D2*%
X166640000Y-79900000D02*
X166640000Y-78700000D01*
X168600000Y-78700000D02*
X166640000Y-78700000D01*
X168600000Y-79900000D02*
X166640000Y-79900000D01*
%TO.C,R3*%
X168920000Y-67632379D02*
X168920000Y-67967621D01*
X169680000Y-67632379D02*
X169680000Y-67967621D01*
%TO.C,TH1*%
X158437621Y-69520000D02*
X158102379Y-69520000D01*
X158437621Y-70280000D02*
X158102379Y-70280000D01*
%TO.C,C6*%
X166894849Y-70236466D02*
X166731034Y-70072651D01*
X167403966Y-69727349D02*
X167240151Y-69563534D01*
%TD*%
%LPC*%
D15*
%TO.C,L2*%
X162868109Y-78500000D03*
X165118109Y-78500000D03*
%TD*%
D16*
%TO.C,J1*%
X162184809Y-59391990D03*
X167264809Y-58375990D03*
X167264809Y-60407990D03*
D17*
X163454809Y-58756990D03*
X163454809Y-60026990D03*
X164724809Y-58756990D03*
X164724809Y-60026990D03*
X165994809Y-58756990D03*
X165994809Y-60026990D03*
%TD*%
D18*
%TO.C,C5*%
X166032500Y-71500000D03*
X167167500Y-71500000D03*
%TD*%
D19*
%TO.C,TP5*%
X158660000Y-68670000D03*
%TD*%
D20*
%TO.C,SW1*%
X160275000Y-77750000D03*
X160275000Y-79250000D03*
X160275000Y-82250000D03*
D21*
X159300000Y-76200000D03*
X157100000Y-76200000D03*
X159300000Y-83800000D03*
X157100000Y-83800000D03*
%TD*%
D22*
%TO.C,R4*%
X170300000Y-67202500D03*
X170300000Y-68397500D03*
%TD*%
D23*
%TO.C,R5*%
X158990000Y-72197500D03*
X158990000Y-71002500D03*
%TD*%
D24*
%TO.C,U1*%
X164750000Y-76037500D03*
X162850000Y-76037500D03*
X163800000Y-73762500D03*
%TD*%
D25*
%TO.C,C9*%
X166537500Y-77300000D03*
X168262500Y-77300000D03*
%TD*%
D26*
%TO.C,BT1*%
X174000000Y-72440000D03*
X174000000Y-71440000D03*
D27*
X170125000Y-73740000D03*
X170125000Y-70140000D03*
%TD*%
D28*
%TO.C,P1*%
X166985531Y-83286930D03*
X163837517Y-88134446D03*
D29*
X166215058Y-82416947D03*
X165779347Y-83087883D03*
D30*
X165153012Y-84052354D03*
X164608373Y-84891025D03*
X164336053Y-85310360D03*
X163791414Y-86149031D03*
D29*
X163165079Y-87113502D03*
X162729368Y-87784438D03*
X162729368Y-87784438D03*
X163165079Y-87113502D03*
D30*
X163519095Y-86568366D03*
X164063734Y-85729695D03*
X164880693Y-84471690D03*
X165425331Y-83633019D03*
D29*
X165779347Y-83087883D03*
X166215058Y-82416947D03*
D31*
X170850672Y-84091903D03*
D32*
X167328256Y-81804419D03*
D31*
X166144991Y-91338015D03*
D32*
X162622575Y-89050533D03*
%TD*%
D33*
%TO.C,C8*%
X162078776Y-72669299D03*
X162078776Y-69544299D03*
%TD*%
D34*
%TO.C,D2*%
X167200000Y-79300000D03*
X168600000Y-79300000D03*
%TD*%
D19*
%TO.C,TP6*%
X158660000Y-67460000D03*
%TD*%
D22*
%TO.C,R3*%
X169300000Y-67202500D03*
X169300000Y-68397500D03*
%TD*%
D35*
%TO.C,TH1*%
X158867500Y-69900000D03*
X157672500Y-69900000D03*
%TD*%
D36*
%TO.C,C6*%
X167468783Y-70301283D03*
X166666217Y-69498717D03*
%TD*%
%LPD*%
M02*
