%TF.GenerationSoftware,KiCad,Pcbnew,10.0.5*%
%TF.CreationDate,2026-08-28T18:51:13+02:00*%
%TF.ProjectId,Leucht-Ohrringe,4c657563-6874-42d4-9f68-7272696e6765,rev?*%
%TF.SameCoordinates,Original*%
%TF.FileFunction,Soldermask,Top*%
%TF.FilePolarity,Negative*%
%FSLAX46Y46*%
G04 Gerber Fmt 4.6, Leading zero omitted, Abs format (unit mm)*
G04 Created by KiCad (PCBNEW 10.0.5) date 2026-08-28 18:51:13*
%MOMM*%
%LPD*%
G01*
G04 APERTURE LIST*
G04 Aperture macros list*
%AMRoundRect*
0 Rectangle with rounded corners*
0 $1 Rounding radius*
0 $2 $3 $4 $5 $6 $7 $8 $9 X,Y pos of 4 corners*
0 Add a 4 corners polygon primitive as box body*
4,1,4,$2,$3,$4,$5,$6,$7,$8,$9,$2,$3,0*
0 Add four circle primitives for the rounded corners*
1,1,$1+$1,$2,$3*
1,1,$1+$1,$4,$5*
1,1,$1+$1,$6,$7*
1,1,$1+$1,$8,$9*
0 Add four rect primitives between the rounded corners*
20,1,$1+$1,$2,$3,$4,$5,0*
20,1,$1+$1,$4,$5,$6,$7,0*
20,1,$1+$1,$6,$7,$8,$9,0*
20,1,$1+$1,$8,$9,$2,$3,0*%
%AMHorizOval*
0 Thick line with rounded ends*
0 $1 width*
0 $2 $3 position (X,Y) of the first rounded end (center of the circle)*
0 $4 $5 position (X,Y) of the second rounded end (center of the circle)*
0 Add line between two ends*
20,1,$1,$2,$3,$4,$5,0*
0 Add two circle primitives to create the rounded ends*
1,1,$1,$2,$3*
1,1,$1,$4,$5*%
%AMRotRect*
0 Rectangle, with rotation*
0 The origin of the aperture is its center*
0 $1 length*
0 $2 width*
0 $3 Rotation angle, in degrees counterclockwise*
0 Add horizontal line*
21,1,$1,$2,0,0,$3*%
G04 Aperture macros list end*
%ADD10R,0.700000X0.700000*%
%ADD11RotRect,0.700000X0.700000X315.000000*%
%ADD12RoundRect,0.112500X0.007769X0.218523X-0.196470X-0.095979X-0.007769X-0.218523X0.196470X0.095979X0*%
%ADD13C,0.500000*%
%ADD14RoundRect,0.147500X0.147500X0.172500X-0.147500X0.172500X-0.147500X-0.172500X0.147500X-0.172500X0*%
%ADD15R,0.250000X0.675000*%
%ADD16R,0.675000X0.250000*%
%ADD17RoundRect,0.155000X0.155000X-0.212500X0.155000X0.212500X-0.155000X0.212500X-0.155000X-0.212500X0*%
%ADD18RoundRect,0.050000X0.050000X-0.350000X0.050000X0.350000X-0.050000X0.350000X-0.050000X-0.350000X0*%
%ADD19RoundRect,0.050000X0.350000X-0.050000X0.350000X0.050000X-0.350000X0.050000X-0.350000X-0.050000X0*%
%ADD20R,4.600000X4.600000*%
%ADD21RoundRect,0.140000X0.170000X-0.140000X0.170000X0.140000X-0.170000X0.140000X-0.170000X-0.140000X0*%
%ADD22RoundRect,0.200000X-0.121707X0.317510X-0.339562X-0.017958X0.121707X-0.317510X0.339562X0.017958X0*%
%ADD23R,1.660000X0.800000*%
%ADD24RotRect,0.700000X0.700000X123.000000*%
%ADD25RoundRect,0.137500X0.612500X0.137500X-0.612500X0.137500X-0.612500X-0.137500X0.612500X-0.137500X0*%
%ADD26RoundRect,0.150000X0.200000X-0.150000X0.200000X0.150000X-0.200000X0.150000X-0.200000X-0.150000X0*%
%ADD27RoundRect,0.112500X-0.007769X-0.218523X0.196470X0.095979X0.007769X0.218523X-0.196470X-0.095979X0*%
%ADD28RotRect,0.700000X0.700000X237.000000*%
%ADD29RoundRect,0.140000X0.140000X0.170000X-0.140000X0.170000X-0.140000X-0.170000X0.140000X-0.170000X0*%
%ADD30RoundRect,0.135000X-0.185000X0.135000X-0.185000X-0.135000X0.185000X-0.135000X0.185000X0.135000X0*%
%ADD31RotRect,0.700000X0.700000X45.000000*%
%ADD32RoundRect,0.155000X-0.155000X0.212500X-0.155000X-0.212500X0.155000X-0.212500X0.155000X0.212500X0*%
%ADD33HorizOval,1.000000X-0.335468X0.217856X0.335468X-0.217856X0*%
%ADD34HorizOval,1.000000X-0.461269X0.299551X0.461269X-0.299551X0*%
G04 APERTURE END LIST*
D10*
%TO.C,D23*%
X174000000Y-64518948D03*
X172900000Y-64518948D03*
X172900000Y-66348948D03*
X174000000Y-66348948D03*
%TD*%
D11*
%TO.C,D26*%
X167111906Y-53544089D03*
X166334089Y-54321906D03*
X167628094Y-55615911D03*
X168405911Y-54838094D03*
%TD*%
D12*
%TO.C,D3*%
X166519714Y-86913904D03*
X165375972Y-88675112D03*
%TD*%
D13*
%TO.C,TP2*%
X161700000Y-74500000D03*
%TD*%
D14*
%TO.C,L1*%
X161834837Y-65100467D03*
X160864837Y-65100467D03*
%TD*%
D10*
%TO.C,D20*%
X174000000Y-75056171D03*
X172900000Y-75056171D03*
X172900000Y-76886171D03*
X174000000Y-76886171D03*
%TD*%
D15*
%TO.C,U3*%
X168850000Y-72062500D03*
X169350000Y-72062500D03*
X169850000Y-72062500D03*
X170350000Y-72062500D03*
D16*
X170612500Y-71300000D03*
X170612500Y-70800000D03*
X170612500Y-70300000D03*
D15*
X170350000Y-69537500D03*
X169850000Y-69537500D03*
X169350000Y-69537500D03*
X168850000Y-69537500D03*
D16*
X168587500Y-70300000D03*
X168587500Y-70800000D03*
X168587500Y-71300000D03*
%TD*%
D17*
%TO.C,C12*%
X159000000Y-75567500D03*
X159000000Y-74432500D03*
%TD*%
D18*
%TO.C,U5*%
X161370000Y-73120000D03*
X161770000Y-73120000D03*
X162170000Y-73120000D03*
X162570000Y-73120000D03*
X162970000Y-73120000D03*
X163370000Y-73120000D03*
X163770000Y-73120000D03*
X164170000Y-73120000D03*
X164570000Y-73120000D03*
X164970000Y-73120000D03*
X165370000Y-73120000D03*
X165770000Y-73120000D03*
D19*
X166520000Y-72370000D03*
X166520000Y-71970000D03*
X166520000Y-71570000D03*
X166520000Y-71170000D03*
X166520000Y-70770000D03*
X166520000Y-70370000D03*
X166520000Y-69970000D03*
X166520000Y-69570000D03*
X166520000Y-69170000D03*
X166520000Y-68770000D03*
X166520000Y-68370000D03*
X166520000Y-67970000D03*
D18*
X165770000Y-67220000D03*
X165370000Y-67220000D03*
X164970000Y-67220000D03*
X164570000Y-67220000D03*
X164170000Y-67220000D03*
X163770000Y-67220000D03*
X163370000Y-67220000D03*
X162970000Y-67220000D03*
X162570000Y-67220000D03*
X162170000Y-67220000D03*
X161770000Y-67220000D03*
X161370000Y-67220000D03*
D19*
X160620000Y-67970000D03*
X160620000Y-68370000D03*
X160620000Y-68770000D03*
X160620000Y-69170000D03*
X160620000Y-69570000D03*
X160620000Y-69970000D03*
X160620000Y-70370000D03*
X160620000Y-70770000D03*
X160620000Y-71170000D03*
X160620000Y-71570000D03*
X160620000Y-71970000D03*
X160620000Y-72370000D03*
D20*
X163570000Y-70170000D03*
%TD*%
D10*
%TO.C,D21*%
X174000000Y-71477883D03*
X172900000Y-71477883D03*
X172900000Y-73307883D03*
X174000000Y-73307883D03*
%TD*%
D13*
%TO.C,TP3*%
X162700000Y-74500000D03*
%TD*%
D21*
%TO.C,C1*%
X158900000Y-71080000D03*
X158900000Y-70120000D03*
%TD*%
D10*
%TO.C,D18*%
X174000000Y-82085000D03*
X172900000Y-82085000D03*
X172900000Y-83915000D03*
X174000000Y-83915000D03*
%TD*%
%TO.C,D14*%
X165933109Y-96599728D03*
X165933109Y-95499728D03*
X164103109Y-95499728D03*
X164103109Y-96599728D03*
%TD*%
D11*
%TO.C,D25*%
X170270673Y-56694736D03*
X169492856Y-57472553D03*
X170786861Y-58766558D03*
X171564678Y-57988741D03*
%TD*%
D21*
%TO.C,C4*%
X163767338Y-66060000D03*
X163767338Y-65100000D03*
%TD*%
D10*
%TO.C,D22*%
X174000000Y-68031306D03*
X172900000Y-68031306D03*
X172900000Y-69861306D03*
X174000000Y-69861306D03*
%TD*%
D22*
%TO.C,R1*%
X169200000Y-87000000D03*
X168301346Y-88383806D03*
%TD*%
D10*
%TO.C,D19*%
X174000000Y-78518393D03*
X172900000Y-78518393D03*
X172900000Y-80348393D03*
X174000000Y-80348393D03*
%TD*%
D23*
%TO.C,AE1*%
X160860430Y-63183799D03*
X160860430Y-60883799D03*
%TD*%
D10*
%TO.C,D5*%
X155862822Y-66271130D03*
X156962822Y-66271130D03*
X156962822Y-64441130D03*
X155862822Y-64441130D03*
%TD*%
D24*
%TO.C,D11*%
X157845523Y-87745201D03*
X158768061Y-87146098D03*
X157771371Y-85611331D03*
X156848833Y-86210434D03*
%TD*%
%TO.C,D13*%
X161746325Y-93685733D03*
X162668863Y-93086630D03*
X161672173Y-91551863D03*
X160749635Y-92150966D03*
%TD*%
D10*
%TO.C,D24*%
X174000000Y-61038432D03*
X172900000Y-61038432D03*
X172900000Y-62868432D03*
X174000000Y-62868432D03*
%TD*%
%TO.C,D8*%
X155862822Y-76898603D03*
X156962822Y-76898603D03*
X156962822Y-75068603D03*
X155862822Y-75068603D03*
%TD*%
%TO.C,D10*%
X155862822Y-83869759D03*
X156962822Y-83869759D03*
X156962822Y-82039759D03*
X155862822Y-82039759D03*
%TD*%
D17*
%TO.C,C7*%
X169900000Y-75235000D03*
X169900000Y-74100000D03*
%TD*%
D10*
%TO.C,D1*%
X155862822Y-62830000D03*
X156962822Y-62830000D03*
X156962822Y-61000000D03*
X155862822Y-61000000D03*
%TD*%
D25*
%TO.C,U4*%
X165800000Y-79510000D03*
X165800000Y-78240000D03*
X165800000Y-76970000D03*
X165800000Y-75700000D03*
X160500000Y-75700000D03*
X160500000Y-76970000D03*
X160500000Y-78240000D03*
X160500000Y-79510000D03*
%TD*%
D13*
%TO.C,TP4*%
X163350000Y-74130000D03*
%TD*%
%TO.C,TP1*%
X160510000Y-74110000D03*
%TD*%
D26*
%TO.C,D29*%
X168000000Y-74200000D03*
X168000000Y-75600000D03*
%TD*%
D10*
%TO.C,D6*%
X155862822Y-69795720D03*
X156962822Y-69795720D03*
X156962822Y-67965720D03*
X155862822Y-67965720D03*
%TD*%
D27*
%TO.C,D4*%
X167178802Y-85872507D03*
X168322544Y-84111299D03*
%TD*%
D10*
%TO.C,D7*%
X155862822Y-73351381D03*
X156962822Y-73351381D03*
X156962822Y-71521381D03*
X155862822Y-71521381D03*
%TD*%
D28*
%TO.C,D16*%
X171029203Y-89167362D03*
X170106665Y-88568259D03*
X169109975Y-90103026D03*
X170032513Y-90702129D03*
%TD*%
%TO.C,D15*%
X169121309Y-92153776D03*
X168198771Y-91554673D03*
X167202081Y-93089440D03*
X168124619Y-93688543D03*
%TD*%
D29*
%TO.C,C3*%
X159880000Y-73200000D03*
X158920000Y-73200000D03*
%TD*%
%TO.C,C2*%
X162580000Y-66100000D03*
X161620000Y-66100000D03*
%TD*%
D30*
%TO.C,R2*%
X162784889Y-64131807D03*
X162784889Y-65151807D03*
%TD*%
D28*
%TO.C,D17*%
X173017271Y-86207122D03*
X172094733Y-85608019D03*
X171098043Y-87142786D03*
X172020581Y-87741889D03*
%TD*%
D31*
%TO.C,D28*%
X158645995Y-57844005D03*
X159423812Y-58621822D03*
X160717817Y-57327817D03*
X159940000Y-56550000D03*
%TD*%
%TO.C,D27*%
X161660000Y-54790000D03*
X162437817Y-55567817D03*
X163731822Y-54273812D03*
X162954005Y-53495995D03*
%TD*%
D32*
%TO.C,C11*%
X160400000Y-80632500D03*
X160400000Y-81767500D03*
%TD*%
D24*
%TO.C,D12*%
X159828626Y-90671647D03*
X160751164Y-90072544D03*
X159754474Y-88537777D03*
X158831936Y-89136880D03*
%TD*%
D10*
%TO.C,D9*%
X155862822Y-80337447D03*
X156962822Y-80337447D03*
X156962822Y-78507447D03*
X155862822Y-78507447D03*
%TD*%
D33*
%TO.C,P1*%
X170850672Y-84091903D03*
D34*
X167328256Y-81804419D03*
D33*
X166144991Y-91338015D03*
D34*
X162622575Y-89050533D03*
%TD*%
M02*
