M48
; DRILL file KiCad 10.0.5 date 2026-08-28T14:23:02
; FORMAT={-:-/ absolute / inch / decimal}
; #@! TF.CreationDate,2026-08-28T14:23:02+02:00
; #@! TF.GenerationSoftware,Kicad,Pcbnew,10.0.5
; #@! TF.FileFunction,Plated,1,2,PTH
FMAT,2
INCH
; #@! TA.AperFunction,Plated,PTH,ViaDrill
T1C0.0079
; #@! TA.AperFunction,Plated,PTH,ViaDrill
T2C0.0118
; #@! TA.AperFunction,Plated,PTH,ComponentDrill
T3C0.0236
%
G90
G05
T1
X6.2992Y-2.9413
T2
X6.1363Y-2.5371
X6.1363Y-2.6758
X6.1363Y-2.8158
X6.1363Y-2.9555
X6.1363Y-3.0908
X6.1363Y-3.2299
X6.1378Y-2.4016
X6.1752Y-3.3941
X6.1772Y-2.3157
X6.1811Y-2.437
X6.2146Y-2.95
X6.2165Y-2.7039
X6.2205Y-2.8441
X6.2244Y-2.6339
X6.2362Y-3.1299
X6.2532Y-3.5093
X6.266Y-2.4209
X6.2667Y-2.5514
X6.2667Y-2.4552
X6.267Y-2.3893
X6.2672Y-2.3596
X6.2672Y-2.4894
X6.2677Y-2.5197
X6.2795Y-3.1772
X6.2823Y-2.7228
X6.2838Y-2.6902
X6.2871Y-2.8467
X6.2889Y-2.7702
X6.2953Y-2.563
X6.2969Y-2.2264
X6.3115Y-2.3415
X6.3157Y-2.1772
X6.3228Y-3.2992
X6.3287Y-3.628
X6.3293Y-2.647
X6.3346Y-2.9465
X6.3418Y-2.339
X6.3535Y-2.3087
X6.3594Y-3.0043
X6.374Y-2.7942
X6.3787Y-2.9693
X6.3819Y-2.2949
X6.3858Y-2.2441
X6.4016Y-2.3819
X6.4016Y-2.4134
X6.4016Y-2.4449
X6.4016Y-2.4764
X6.4055Y-3.2283
X6.4089Y-2.5249
X6.4089Y-3.3614
X6.4154Y-2.2783
X6.4155Y-2.1061
X6.4213Y-2.7795
X6.4213Y-2.811
X6.4291Y-2.4882
X6.4331Y-2.0669
X6.437Y-2.2205
X6.4409Y-3.2283
X6.4417Y-3.6378
X6.4449Y-2.5276
X6.4488Y-2.6969
X6.4488Y-2.752
X6.4528Y-2.1811
X6.4608Y-3.8031
X6.4646Y-2.5039
X6.4685Y-3.252
X6.4709Y-3.8457
X6.4764Y-2.4331
X6.4803Y-2.5912
X6.4803Y-2.5315
X6.4835Y-3.6969
X6.4867Y-2.8071
X6.4888Y-2.5624
X6.4961Y-2.7795
X6.4961Y-3.8819
X6.4969Y-2.2118
X6.5039Y-2.4724
X6.5039Y-2.6969
X6.5039Y-2.7441
X6.5118Y-2.6063
X6.5264Y-3.8453
X6.5276Y-2.1811
X6.5512Y-2.6457
X6.552Y-2.924
X6.5551Y-3.3386
X6.5559Y-2.8772
X6.5591Y-2.0669
X6.5654Y-2.337
X6.6043Y-2.6494
X6.6079Y-2.6165
X6.6142Y-2.9764
X6.6191Y-3.6885
X6.624Y-3.0866
X6.6302Y-2.159
X6.6354Y-2.8913
X6.6378Y-2.4488
X6.6554Y-2.5902
X6.6654Y-2.6457
X6.6693Y-2.4843
X6.6693Y-2.5433
X6.6705Y-2.311
X6.6716Y-2.8057
X6.6783Y-3.0799
X6.6854Y-2.6142
X6.689Y-2.4291
X6.6942Y-3.5709
X6.6969Y-2.3425
X6.7008Y-2.389
X6.7039Y-2.6929
X6.7051Y-3.1827
X6.7362Y-2.5118
X6.7429Y-2.6382
X6.7545Y-2.283
X6.7579Y-3.0913
X6.7681Y-3.0283
X6.7725Y-3.4544
X6.8504Y-2.4751
X6.8504Y-2.6122
X6.8504Y-2.7504
X6.8504Y-2.8861
X6.8504Y-3.027
X6.8504Y-3.1633
X6.8504Y-3.3037
T3
G00X6.4206Y-3.5177
M15
G01X6.3843Y-3.4941
M16
G05
G00X6.5543Y-3.6046
M15
G01X6.5279Y-3.5874
M16
G05
G00X6.6059Y-3.2324
M15
G01X6.5696Y-3.2089
M16
G05
G00X6.7396Y-3.3193
M15
G01X6.7132Y-3.3021
M16
G05
M30
