%TF.GenerationSoftware,KiCad,Pcbnew,10.0.5*%
%TF.CreationDate,2026-08-20T17:54:57+02:00*%
%TF.ProjectId,Leucht-Ohrringe,4c657563-6874-42d4-9f68-7272696e6765,rev?*%
%TF.SameCoordinates,Original*%
%TF.FileFunction,Copper,L2,Bot*%
%TF.FilePolarity,Positive*%
%FSLAX46Y46*%
G04 Gerber Fmt 4.6, Leading zero omitted, Abs format (unit mm)*
G04 Created by KiCad (PCBNEW 10.0.5) date 2026-08-20 17:54:57*
%MOMM*%
%LPD*%
G01*
G04 APERTURE LIST*
G04 Aperture macros list*
%AMRoundRect*
0 Rectangle with rounded corners*
0 $1 Rounding radius*
0 $2 $3 $4 $5 $6 $7 $8 $9 X,Y pos of 4 corners*
0 Add a 4 corners polygon primitive as box body*
4,1,4,$2,$3,$4,$5,$6,$7,$8,$9,$2,$3,0*
0 Add four circle primitives for the rounded corners*
1,1,$1+$1,$2,$3*
1,1,$1+$1,$4,$5*
1,1,$1+$1,$6,$7*
1,1,$1+$1,$8,$9*
0 Add four rect primitives between the rounded corners*
20,1,$1+$1,$2,$3,$4,$5,0*
20,1,$1+$1,$4,$5,$6,$7,0*
20,1,$1+$1,$6,$7,$8,$9,0*
20,1,$1+$1,$8,$9,$2,$3,0*%
%AMHorizOval*
0 Thick line with rounded ends*
0 $1 width*
0 $2 $3 position (X,Y) of the first rounded end (center of the circle)*
0 $4 $5 position (X,Y) of the second rounded end (center of the circle)*
0 Add line between two ends*
20,1,$1,$2,$3,$4,$5,0*
0 Add two circle primitives to create the rounded ends*
1,1,$1,$2,$3*
1,1,$1,$4,$5*%
G04 Aperture macros list end*
%ADD10C,0.600000*%
%ADD11C,0.300000*%
%ADD12C,0.500000*%
%TA.AperFunction,ConnectorPad*%
%ADD13C,0.787400*%
%TD*%
%TA.AperFunction,SMDPad,CuDef*%
%ADD14RoundRect,0.160000X-0.160000X0.197500X-0.160000X-0.197500X0.160000X-0.197500X0.160000X0.197500X0*%
%TD*%
%TA.AperFunction,SMDPad,CuDef*%
%ADD15RoundRect,0.150000X-0.150000X0.512500X-0.150000X-0.512500X0.150000X-0.512500X0.150000X0.512500X0*%
%TD*%
%TA.AperFunction,SMDPad,CuDef*%
%ADD16RoundRect,0.150000X0.700000X-0.150000X0.700000X0.150000X-0.700000X0.150000X-0.700000X-0.150000X0*%
%TD*%
%TA.AperFunction,SMDPad,CuDef*%
%ADD17RoundRect,0.250000X1.100000X-0.250000X1.100000X0.250000X-1.100000X0.250000X-1.100000X-0.250000X0*%
%TD*%
%TA.AperFunction,SMDPad,CuDef*%
%ADD18RoundRect,0.150000X-0.312479X0.381781X-0.475871X0.130180X0.312479X-0.381781X0.475871X-0.130180X0*%
%TD*%
%TA.AperFunction,SMDPad,CuDef*%
%ADD19RoundRect,0.075000X-0.416228X0.359729X-0.497923X0.233928X0.416228X-0.359729X0.497923X-0.233928X0*%
%TD*%
%TA.AperFunction,ComponentPad*%
%ADD20HorizOval,1.000000X-0.335468X0.217856X0.335468X-0.217856X0*%
%TD*%
%TA.AperFunction,ComponentPad*%
%ADD21HorizOval,1.000000X-0.461269X0.299551X0.461269X-0.299551X0*%
%TD*%
%TA.AperFunction,SMDPad,CuDef*%
%ADD22RoundRect,0.150000X0.150000X0.200000X-0.150000X0.200000X-0.150000X-0.200000X0.150000X-0.200000X0*%
%TD*%
%TA.AperFunction,ViaPad*%
%ADD23C,0.600000*%
%TD*%
%TA.AperFunction,ViaPad*%
%ADD24C,0.450000*%
%TD*%
%TA.AperFunction,Conductor*%
%ADD25C,0.300000*%
%TD*%
%TA.AperFunction,Conductor*%
%ADD26C,0.700000*%
%TD*%
%TA.AperFunction,Conductor*%
%ADD27C,0.200000*%
%TD*%
%TA.AperFunction,Conductor*%
%ADD28C,0.800000*%
%TD*%
%TA.AperFunction,Conductor*%
%ADD29C,0.600000*%
%TD*%
G04 APERTURE END LIST*
D10*
X162717042Y-86822234D02*
X162709453Y-86816771D01*
X162701912Y-86811318D01*
X162694457Y-86805902D01*
X162687051Y-86800497D01*
X162679728Y-86795128D01*
X162672452Y-86789768D01*
X162665258Y-86784444D01*
X162658111Y-86779130D01*
X162651044Y-86773850D01*
X162644023Y-86768580D01*
X162637080Y-86763343D01*
X162630182Y-86758116D01*
X162623360Y-86752921D01*
X162616583Y-86747734D01*
X162609881Y-86742580D01*
X162603223Y-86737435D01*
X162596638Y-86732320D01*
X162590096Y-86727214D01*
X162583626Y-86722138D01*
X162577198Y-86717070D01*
X162570840Y-86712032D01*
X162564524Y-86707002D01*
X162558277Y-86702000D01*
X162552071Y-86697006D01*
X162545931Y-86692040D01*
X162539833Y-86687082D01*
X162533800Y-86682150D01*
X162527808Y-86677226D01*
X162521879Y-86672329D01*
X162515990Y-86667438D01*
X162510163Y-86662573D01*
X162504376Y-86657715D01*
X162498650Y-86652882D01*
X162492963Y-86648056D01*
X162487335Y-86643254D01*
X162481746Y-86638459D01*
X162476215Y-86633687D01*
X162470721Y-86628921D01*
X162465285Y-86624178D01*
X162459886Y-86619442D01*
X162454544Y-86614727D01*
X162449237Y-86610019D01*
X162443986Y-86605332D01*
X162438770Y-86600651D01*
X162433609Y-86595991D01*
X162428483Y-86591336D01*
X162423409Y-86586702D01*
X162418371Y-86582073D01*
X162413384Y-86577464D01*
X162408431Y-86572859D01*
X162403529Y-86568274D01*
X162398662Y-86563694D01*
X162393843Y-86559133D01*
X162389058Y-86554576D01*
X162384322Y-86550037D01*
X162379618Y-86545503D01*
X162374962Y-86540986D01*
X162370339Y-86536473D01*
X162365762Y-86531978D01*
X162361218Y-86527486D01*
X162356718Y-86523011D01*
X162352251Y-86518539D01*
X162347828Y-86514084D01*
X162343437Y-86509632D01*
X162339089Y-86505195D01*
X162334772Y-86500762D01*
X162330497Y-86496344D01*
X162326254Y-86491929D01*
X162322052Y-86487528D01*
X162317880Y-86483130D01*
X162313750Y-86478746D01*
X162309649Y-86474364D01*
X162305588Y-86469996D01*
X162301557Y-86465631D01*
X162297564Y-86461278D01*
X162293602Y-86456928D01*
X162289677Y-86452590D01*
X162285781Y-86448254D01*
X162281923Y-86443930D01*
X162278093Y-86439608D01*
X162274300Y-86435297D01*
X162270536Y-86430988D01*
X162266807Y-86426690D01*
X162263106Y-86422393D01*
X162259440Y-86418107D01*
X162255802Y-86413822D01*
X162252198Y-86409547D01*
X162248622Y-86405273D01*
X162245079Y-86401008D01*
X162241564Y-86396745D01*
X162238081Y-86392490D01*
X162234625Y-86388236D01*
X162231201Y-86383990D01*
X162227804Y-86379745D01*
X162224438Y-86375508D01*
X162221099Y-86371271D01*
X162217790Y-86367041D01*
X162214507Y-86362812D01*
X162211255Y-86358590D01*
X162208028Y-86354368D01*
X162204831Y-86350151D01*
X162201659Y-86345936D01*
X162198516Y-86341725D01*
X162195399Y-86337515D01*
X162192310Y-86333309D01*
X162189245Y-86329104D01*
X162186209Y-86324903D01*
X162183197Y-86320702D01*
X162180212Y-86316504D01*
X162177252Y-86312306D01*
X162174318Y-86308112D01*
X162171409Y-86303917D01*
X162168525Y-86299724D01*
X162165666Y-86295532D01*
X162162832Y-86291341D01*
X162160022Y-86287149D01*
X162157236Y-86282959D01*
X162154475Y-86278769D01*
X162151738Y-86274579D01*
X162149024Y-86270388D01*
X162146334Y-86266197D01*
X162143667Y-86262006D01*
X162141024Y-86257814D01*
X162138403Y-86253621D01*
X162135806Y-86249427D01*
X162133231Y-86245232D01*
X162130679Y-86241036D01*
X162128149Y-86236838D01*
X162125641Y-86232638D01*
X162123156Y-86228436D01*
X162120692Y-86224231D01*
X162118251Y-86220025D01*
X162115830Y-86215816D01*
X162113432Y-86211605D01*
X162111054Y-86207389D01*
X162108698Y-86203172D01*
X162106363Y-86198950D01*
X162104049Y-86194726D01*
X162099482Y-86186265D01*
X162094997Y-86177788D01*
X162090593Y-86169292D01*
X162086268Y-86160777D01*
X162082022Y-86152240D01*
X162077854Y-86143680D01*
X162073762Y-86135095D01*
X162069746Y-86126483D01*
X162065805Y-86117843D01*
X162061937Y-86109172D01*
X162058143Y-86100468D01*
X162054421Y-86091731D01*
X162050770Y-86082957D01*
X162047189Y-86074145D01*
X162043678Y-86065292D01*
X162040236Y-86056397D01*
X162036863Y-86047457D01*
X162033557Y-86038470D01*
X162030318Y-86029433D01*
X162027145Y-86020345D01*
X162024038Y-86011203D01*
X162020996Y-86002004D01*
X162018018Y-85992746D01*
X162015105Y-85983426D01*
X162012254Y-85974041D01*
X162009467Y-85964588D01*
X162006742Y-85955064D01*
X162004079Y-85945467D01*
X162001477Y-85935793D01*
X161998936Y-85926038D01*
X161996456Y-85916199D01*
X161994036Y-85906273D01*
X161991677Y-85896256D01*
X161989376Y-85886143D01*
X161987135Y-85875931D01*
X161984953Y-85865616D01*
X161982830Y-85855192D01*
X161980765Y-85844655D01*
X161978758Y-85834000D01*
X161976809Y-85823222D01*
X161974918Y-85812315D01*
X161973084Y-85801273D01*
X161971308Y-85790091D01*
X161969590Y-85778761D01*
X161967928Y-85767277D01*
X161966324Y-85755630D01*
X161964777Y-85743815D01*
X161963287Y-85731820D01*
X161961854Y-85719639D01*
X161960478Y-85707260D01*
X161959160Y-85694674D01*
X161957898Y-85681869D01*
X161956694Y-85668833D01*
X161955547Y-85655553D01*
X161954458Y-85642014D01*
X161953427Y-85628200D01*
X161952453Y-85614093D01*
X161951538Y-85599675D01*
X161950681Y-85584925D01*
X161949884Y-85569818D01*
X161949146Y-85554328D01*
X161948467Y-85538425D01*
X161947850Y-85522076D01*
X161947293Y-85505240D01*
X161946798Y-85487874D01*
X161946366Y-85469924D01*
X161945997Y-85451331D01*
X161945694Y-85432019D01*
X161945456Y-85411901D01*
X161945287Y-85390867D01*
X161945188Y-85368779D01*
X161945162Y-85345458D01*
X161945213Y-85320666D01*
X161945310Y-85300000D01*
D11*
X163859876Y-85001262D02*
X163848905Y-84994237D01*
X163837994Y-84987156D01*
X163827142Y-84980018D01*
X163816350Y-84972824D01*
X163805618Y-84965573D01*
X163794944Y-84958266D01*
X163784329Y-84950902D01*
X163773772Y-84943482D01*
X163763273Y-84936004D01*
X163752833Y-84928470D01*
X163742450Y-84920879D01*
X163732124Y-84913231D01*
X163721855Y-84905525D01*
X163711644Y-84897763D01*
X163701489Y-84889943D01*
X163691390Y-84882066D01*
X163681348Y-84874132D01*
X163671361Y-84866139D01*
X163661430Y-84858090D01*
X163651555Y-84849982D01*
X163641735Y-84841816D01*
X163631970Y-84833592D01*
X163622260Y-84825310D01*
X163612604Y-84816970D01*
X163603003Y-84808571D01*
X163593456Y-84800113D01*
X163583964Y-84791597D01*
X163574525Y-84783021D01*
X163565140Y-84774387D01*
X163555808Y-84765693D01*
X163546530Y-84756939D01*
X163537304Y-84748126D01*
X163528132Y-84739253D01*
X163519013Y-84730320D01*
X163509946Y-84721327D01*
X163500932Y-84712273D01*
X163491970Y-84703159D01*
X163483061Y-84693984D01*
X163474203Y-84684748D01*
X163465397Y-84675450D01*
X163456643Y-84666091D01*
X163447941Y-84656671D01*
X163439291Y-84647188D01*
X163430691Y-84637643D01*
X163422143Y-84628036D01*
X163413647Y-84618366D01*
X163405201Y-84608634D01*
X163396806Y-84598838D01*
X163388462Y-84588978D01*
X163380169Y-84579055D01*
X163371927Y-84569068D01*
X163363735Y-84559017D01*
X163355594Y-84548902D01*
X163347503Y-84538721D01*
X163339463Y-84528476D01*
X163331472Y-84518165D01*
X163323532Y-84507789D01*
X163315643Y-84497347D01*
X163307803Y-84486838D01*
X163300013Y-84476264D01*
X163292274Y-84465622D01*
X163284584Y-84454913D01*
X163276944Y-84444137D01*
X163269355Y-84433293D01*
X163261815Y-84422381D01*
X163254324Y-84411400D01*
X163246884Y-84400351D01*
X163239494Y-84389233D01*
X163232153Y-84378045D01*
X163224862Y-84366787D01*
X163217621Y-84355460D01*
X163210429Y-84344062D01*
X163203288Y-84332593D01*
X163196196Y-84321053D01*
X163189154Y-84309442D01*
X163182162Y-84297758D01*
X163175219Y-84286002D01*
X163168327Y-84274174D01*
X163161484Y-84262273D01*
X163154692Y-84250298D01*
X163147949Y-84238249D01*
X163141257Y-84226126D01*
X163134614Y-84213929D01*
X163128022Y-84201657D01*
X163121479Y-84189309D01*
X163114987Y-84176885D01*
X163108546Y-84164386D01*
X163102154Y-84151809D01*
X163095813Y-84139156D01*
X163089523Y-84126425D01*
X163083283Y-84113616D01*
X163077094Y-84100729D01*
X163070956Y-84087763D01*
X163064869Y-84074718D01*
X163058832Y-84061593D01*
X163052847Y-84048388D01*
X163046913Y-84035102D01*
X163041030Y-84021736D01*
X163035198Y-84008288D01*
X163029418Y-83994758D01*
X163023690Y-83981146D01*
X163018014Y-83967451D01*
X163012389Y-83953672D01*
X163006817Y-83939810D01*
X163001296Y-83925863D01*
X162995828Y-83911831D01*
X162990413Y-83897715D01*
X162985050Y-83883512D01*
X162979740Y-83869223D01*
X162974482Y-83854847D01*
X162969278Y-83840384D01*
X162964127Y-83825833D01*
X162959030Y-83811194D01*
X162953986Y-83796465D01*
X162948996Y-83781648D01*
X162944060Y-83766740D01*
X162939178Y-83751742D01*
X162934351Y-83736652D01*
X162929578Y-83721471D01*
X162924859Y-83706198D01*
X162920196Y-83690832D01*
X162915587Y-83675373D01*
X162911035Y-83659819D01*
X162906537Y-83644172D01*
X162902095Y-83628429D01*
X162897710Y-83612590D01*
X162893380Y-83596656D01*
X162889107Y-83580624D01*
X162884890Y-83564495D01*
X162880731Y-83548268D01*
X162876628Y-83531941D01*
X162872583Y-83515516D01*
X162868595Y-83498990D01*
X162864666Y-83482364D01*
X162860794Y-83465636D01*
X162856981Y-83448807D01*
X162853226Y-83431874D01*
X162849530Y-83414838D01*
X162845893Y-83397698D01*
X162842315Y-83380454D01*
X162838797Y-83363103D01*
X162835339Y-83345647D01*
X162831941Y-83328083D01*
X162828604Y-83310412D01*
X162825327Y-83292632D01*
X162822111Y-83274743D01*
X162818957Y-83256743D01*
X162815864Y-83238633D01*
X162812833Y-83220411D01*
X162809864Y-83202076D01*
X162806958Y-83183628D01*
X162804114Y-83165066D01*
X162801334Y-83146389D01*
X162798616Y-83127595D01*
X162795963Y-83108685D01*
X162793373Y-83089656D01*
X162790848Y-83070509D01*
X162788388Y-83051242D01*
X162785992Y-83031854D01*
X162783662Y-83012344D01*
X162781398Y-82992711D01*
X162779199Y-82972954D01*
X162777067Y-82953072D01*
X162775001Y-82933064D01*
X162773002Y-82912928D01*
X162771071Y-82892664D01*
X162769207Y-82872269D01*
X162767412Y-82851744D01*
X162765685Y-82831085D01*
X162764027Y-82810293D01*
X162762437Y-82789366D01*
X162760918Y-82768302D01*
X162759468Y-82747100D01*
X162758089Y-82725757D01*
X162756780Y-82704274D01*
X162755543Y-82682647D01*
X162754377Y-82660875D01*
X162753283Y-82638957D01*
X162752261Y-82616889D01*
X162751312Y-82594671D01*
X162750436Y-82572301D01*
X162749634Y-82549775D01*
X162748906Y-82527093D01*
X162748252Y-82504250D01*
X162747673Y-82481246D01*
X162747170Y-82458076D01*
X162746743Y-82434739D01*
X162746392Y-82411232D01*
X162746119Y-82387550D01*
X162745923Y-82363692D01*
X162745804Y-82339653D01*
X162745765Y-82315429D01*
X162745805Y-82291017D01*
X162745924Y-82266413D01*
X162746124Y-82241611D01*
X162746405Y-82216607D01*
X162746768Y-82191396D01*
X162747213Y-82165972D01*
X162747742Y-82140328D01*
X162748355Y-82114458D01*
X162749053Y-82088355D01*
X162749836Y-82062010D01*
X162750706Y-82035416D01*
X162751665Y-82008562D01*
X162752712Y-81981439D01*
X162753849Y-81954034D01*
X162755078Y-81926334D01*
X162756400Y-81898326D01*
X162757816Y-81869993D01*
X162759329Y-81841317D01*
X162760940Y-81812278D01*
X162762651Y-81782852D01*
X162764466Y-81753013D01*
X162766387Y-81722728D01*
X162768418Y-81691962D01*
X162770562Y-81660672D01*
X162772824Y-81628807D01*
X162775210Y-81596305D01*
X162777727Y-81563090D01*
X162780384Y-81529068D01*
X162783192Y-81494118D01*
X162786165Y-81458083D01*
X162789323Y-81420751D01*
X162792693Y-81381822D01*
X162796317Y-81340854D01*
X162800000Y-81300000D01*
X164113886Y-84568441D02*
X164103662Y-84559499D01*
X164093500Y-84550505D01*
X164083399Y-84541459D01*
X164073360Y-84532361D01*
X164063382Y-84523210D01*
X164053465Y-84514007D01*
X164043609Y-84504752D01*
X164033815Y-84495445D01*
X164024081Y-84486085D01*
X164014409Y-84476674D01*
X164004797Y-84467210D01*
X163995247Y-84457694D01*
X163985757Y-84448126D01*
X163976328Y-84438506D01*
X163966960Y-84428834D01*
X163957653Y-84419110D01*
X163948406Y-84409334D01*
X163939221Y-84399506D01*
X163930095Y-84389626D01*
X163921031Y-84379694D01*
X163912027Y-84369709D01*
X163903084Y-84359673D01*
X163894202Y-84349585D01*
X163885380Y-84339445D01*
X163876619Y-84329253D01*
X163867918Y-84319009D01*
X163859278Y-84308713D01*
X163850699Y-84298365D01*
X163842181Y-84287965D01*
X163833723Y-84277513D01*
X163825326Y-84267010D01*
X163816990Y-84256454D01*
X163808715Y-84245847D01*
X163800500Y-84235188D01*
X163792347Y-84224477D01*
X163784254Y-84213714D01*
X163776223Y-84202900D01*
X163768252Y-84192033D01*
X163760343Y-84181115D01*
X163752495Y-84170146D01*
X163744708Y-84159124D01*
X163736982Y-84148051D01*
X163729318Y-84136927D01*
X163721715Y-84125751D01*
X163714174Y-84114523D01*
X163706694Y-84103244D01*
X163699276Y-84091913D01*
X163691920Y-84080531D01*
X163684626Y-84069098D01*
X163677394Y-84057613D01*
X163670224Y-84046077D01*
X163663116Y-84034490D01*
X163656070Y-84022852D01*
X163649087Y-84011162D01*
X163642167Y-83999422D01*
X163635309Y-83987631D01*
X163628514Y-83975789D01*
X163621782Y-83963896D01*
X163615113Y-83951952D01*
X163608508Y-83939958D01*
X163601965Y-83927914D01*
X163595487Y-83915819D01*
X163589071Y-83903673D01*
X163582720Y-83891478D01*
X163576433Y-83879232D01*
X163570210Y-83866937D01*
X163564051Y-83854591D01*
X163557956Y-83842196D01*
X163551926Y-83829752D01*
X163545961Y-83817258D01*
X163540061Y-83804714D01*
X163534227Y-83792122D01*
X163528457Y-83779481D01*
X163522753Y-83766790D01*
X163517115Y-83754052D01*
X163511543Y-83741265D01*
X163506036Y-83728429D01*
X163500596Y-83715546D01*
X163495223Y-83702615D01*
X163489916Y-83689636D01*
X163484677Y-83676610D01*
X163479504Y-83663536D01*
X163474399Y-83650416D01*
X163469361Y-83637250D01*
X163464391Y-83624036D01*
X163459489Y-83610777D01*
X163454655Y-83597472D01*
X163449890Y-83584121D01*
X163445193Y-83570725D01*
X163440565Y-83557285D01*
X163436006Y-83543799D01*
X163431517Y-83530269D01*
X163427097Y-83516696D01*
X163422747Y-83503079D01*
X163418467Y-83489418D01*
X163414258Y-83475715D01*
X163410118Y-83461969D01*
X163406050Y-83448182D01*
X163402052Y-83434352D01*
X163398126Y-83420482D01*
X163394271Y-83406570D01*
X163390488Y-83392619D01*
X163386777Y-83378628D01*
X163383138Y-83364597D01*
X163379572Y-83350527D01*
X163376078Y-83336419D01*
X163372657Y-83322274D01*
X163369309Y-83308091D01*
X163366035Y-83293871D01*
X163362834Y-83279615D01*
X163359707Y-83265324D01*
X163356655Y-83250998D01*
X163353676Y-83236637D01*
X163350772Y-83222243D01*
X163347943Y-83207816D01*
X163345189Y-83193356D01*
X163342511Y-83178865D01*
X163339907Y-83164343D01*
X163337380Y-83149790D01*
X163334928Y-83135208D01*
X163332553Y-83120598D01*
X163330254Y-83105959D01*
X163328031Y-83091293D01*
X163325885Y-83076601D01*
X163323816Y-83061884D01*
X163321825Y-83047141D01*
X163319911Y-83032375D01*
X163318074Y-83017587D01*
X163316315Y-83002776D01*
X163314634Y-82987944D01*
X163313031Y-82973092D01*
X163311506Y-82958221D01*
X163310060Y-82943332D01*
X163308692Y-82928426D01*
X163307403Y-82913504D01*
X163306193Y-82898567D01*
X163305062Y-82883616D01*
X163304010Y-82868652D01*
X163303037Y-82853676D01*
X163302144Y-82838691D01*
X163301329Y-82823695D01*
X163300595Y-82808692D01*
X163299940Y-82793681D01*
X163299365Y-82778665D01*
X163298869Y-82763645D01*
X163298454Y-82748621D01*
X163298118Y-82733596D01*
X163297862Y-82718570D01*
X163297685Y-82703544D01*
X163297589Y-82688521D01*
X163297573Y-82673501D01*
X163297636Y-82658487D01*
X163297779Y-82643479D01*
X163298002Y-82628478D01*
X163298305Y-82613487D01*
X163298688Y-82598506D01*
X163299149Y-82583538D01*
X163299691Y-82568584D01*
X163300312Y-82553645D01*
X163301012Y-82538723D01*
X163301791Y-82523819D01*
X163302648Y-82508936D01*
X163303585Y-82494074D01*
X163304600Y-82479235D01*
X163305694Y-82464422D01*
X163306865Y-82449635D01*
X163308115Y-82434877D01*
X163309442Y-82420149D01*
X163310846Y-82405452D01*
X163312327Y-82390789D01*
X163313885Y-82376161D01*
X163315520Y-82361570D01*
X163317230Y-82347018D01*
X163319016Y-82332507D01*
X163320878Y-82318038D01*
X163321836Y-82310818D01*
X163322814Y-82303612D01*
X163323810Y-82296416D01*
X163324824Y-82289233D01*
X163325857Y-82282060D01*
X163326909Y-82274901D01*
X163327979Y-82267753D01*
X163329067Y-82260619D01*
X163330173Y-82253497D01*
X163331297Y-82246389D01*
X163332440Y-82239292D01*
X163333601Y-82232211D01*
X163334780Y-82225142D01*
X163335976Y-82218088D01*
X163337191Y-82211048D01*
X163338423Y-82204022D01*
X163339673Y-82197011D01*
X163340941Y-82190015D01*
X163342226Y-82183034D01*
X163343529Y-82176068D01*
X163344849Y-82169118D01*
X163346186Y-82162183D01*
X163347541Y-82155265D01*
X163348913Y-82148363D01*
X163350302Y-82141477D01*
X163351708Y-82134608D01*
X163353131Y-82127756D01*
X163354571Y-82120921D01*
X163356027Y-82114103D01*
X163357500Y-82107303D01*
X163358990Y-82100521D01*
X163360497Y-82093757D01*
X163362019Y-82087011D01*
X163363558Y-82080283D01*
X163365114Y-82073575D01*
X163366685Y-82066885D01*
X163368272Y-82060215D01*
X163369876Y-82053563D01*
X163371495Y-82046932D01*
X163373130Y-82040319D01*
X163374780Y-82033728D01*
X163376447Y-82027155D01*
X163378128Y-82020605D01*
X163379825Y-82014073D01*
X163381537Y-82007564D01*
X163383265Y-82001075D01*
X163385007Y-81994608D01*
X163386764Y-81988161D01*
X163388536Y-81981738D01*
X163390323Y-81975334D01*
X163392124Y-81968955D01*
X163393940Y-81962596D01*
X163395770Y-81956262D01*
X163397614Y-81949948D01*
X163399473Y-81943659D01*
X163401346Y-81937391D01*
X163403232Y-81931149D01*
X163405132Y-81924927D01*
X163407046Y-81918733D01*
X163408974Y-81912559D01*
X163410914Y-81906412D01*
X163412869Y-81900286D01*
X163414836Y-81894188D01*
X163416817Y-81888111D01*
X163418810Y-81882062D01*
X163420816Y-81876035D01*
X163422835Y-81870036D01*
X163424867Y-81864059D01*
X163426910Y-81858112D01*
X163428967Y-81852186D01*
X163431035Y-81846290D01*
X163433117Y-81840415D01*
X163435208Y-81834572D01*
X163437314Y-81828750D01*
X163439429Y-81822959D01*
X163441558Y-81817190D01*
X163443696Y-81811453D01*
X163445847Y-81805737D01*
X163448008Y-81800054D01*
X163450181Y-81794393D01*
X163452364Y-81788764D01*
X163454559Y-81783158D01*
X163456763Y-81777585D01*
X163458980Y-81772034D01*
X163461205Y-81766516D01*
X163463442Y-81761021D01*
X163465687Y-81755560D01*
X163467945Y-81750121D01*
X163470210Y-81744717D01*
X163472487Y-81739335D01*
X163474771Y-81733988D01*
X163477067Y-81728663D01*
X163479370Y-81723374D01*
X163481685Y-81718108D01*
X163484006Y-81712876D01*
X163486339Y-81707668D01*
X163488677Y-81702496D01*
X163491028Y-81697346D01*
X163493384Y-81692233D01*
X163495751Y-81687143D01*
X163498123Y-81682088D01*
X163500507Y-81677058D01*
X163502895Y-81672063D01*
X163505295Y-81667092D01*
X163507699Y-81662158D01*
X163510114Y-81657247D01*
X163512533Y-81652373D01*
X163514962Y-81647523D01*
X163517396Y-81642710D01*
X163519840Y-81637920D01*
X163522287Y-81633168D01*
X163524744Y-81628439D01*
X163527205Y-81623748D01*
X163529676Y-81619081D01*
X163532149Y-81614451D01*
X163534633Y-81609845D01*
X163537119Y-81605277D01*
X163539615Y-81600733D01*
X163542112Y-81596227D01*
X163544620Y-81591744D01*
X163547129Y-81587300D01*
X163549647Y-81582879D01*
X163552167Y-81578497D01*
X163554696Y-81574138D01*
X163557226Y-81569818D01*
X163559766Y-81565522D01*
X163562305Y-81561264D01*
X163564854Y-81557030D01*
X163567404Y-81552834D01*
X163569962Y-81548663D01*
X163572520Y-81544529D01*
X163575086Y-81540420D01*
X163577653Y-81536349D01*
X163580228Y-81532302D01*
X163582802Y-81528294D01*
X163585384Y-81524309D01*
X163587966Y-81520363D01*
X163590556Y-81516441D01*
X163593144Y-81512557D01*
X163595741Y-81508697D01*
X163598336Y-81504875D01*
X163600939Y-81501077D01*
X163603540Y-81497318D01*
X163606149Y-81493582D01*
X163608755Y-81489885D01*
X163611370Y-81486211D01*
X163613981Y-81482576D01*
X163616601Y-81478964D01*
X163619217Y-81475390D01*
X163621841Y-81471841D01*
X163624462Y-81468329D01*
X163627090Y-81464840D01*
X163629715Y-81461390D01*
X163632347Y-81457963D01*
X163634975Y-81454574D01*
X163637610Y-81451208D01*
X163640241Y-81447880D01*
X163642880Y-81444575D01*
X163645514Y-81441308D01*
X163648154Y-81438064D01*
X163650791Y-81434858D01*
X163653434Y-81431675D01*
X163656073Y-81428528D01*
X163658717Y-81425406D01*
X163661358Y-81422319D01*
X163664004Y-81419257D01*
X163666646Y-81416230D01*
X163669293Y-81413227D01*
X163671936Y-81410260D01*
X163674584Y-81407317D01*
X163677228Y-81404409D01*
X163679877Y-81401525D01*
X163682520Y-81398677D01*
X163685170Y-81395851D01*
X163690380Y-81390380D01*
D12*
X165500000Y-82900000D02*
X165494153Y-82896445D01*
X165488295Y-82892790D01*
X165482426Y-82889034D01*
X165476547Y-82885177D01*
X165470657Y-82881216D01*
X165464756Y-82877152D01*
X165458843Y-82872983D01*
X165452919Y-82868708D01*
X165446983Y-82864326D01*
X165441036Y-82859835D01*
X165435076Y-82855236D01*
X165429105Y-82850526D01*
X165423122Y-82845706D01*
X165417126Y-82840772D01*
X165411119Y-82835725D01*
X165405099Y-82830563D01*
X165399067Y-82825286D01*
X165393022Y-82819891D01*
X165386965Y-82814378D01*
X165380896Y-82808746D01*
X165374814Y-82802993D01*
X165368720Y-82797119D01*
X165362614Y-82791121D01*
X165356495Y-82784999D01*
X165350365Y-82778752D01*
X165344222Y-82772379D01*
X165338067Y-82765878D01*
X165331900Y-82759248D01*
X165325721Y-82752487D01*
X165319531Y-82745596D01*
X165313329Y-82738572D01*
X165307115Y-82731414D01*
X165300890Y-82724121D01*
X165294655Y-82716692D01*
X165288408Y-82709126D01*
X165282151Y-82701421D01*
X165275883Y-82693577D01*
X165269605Y-82685592D01*
X165263318Y-82677465D01*
X165257020Y-82669195D01*
X165250713Y-82660780D01*
X165244398Y-82652220D01*
X165238073Y-82643514D01*
X165231740Y-82634661D01*
X165225399Y-82625658D01*
X165219051Y-82616506D01*
X165212695Y-82607204D01*
X165206333Y-82597749D01*
X165199964Y-82588142D01*
X165193589Y-82578382D01*
X165187208Y-82568466D01*
X165180823Y-82558396D01*
X165174433Y-82548169D01*
X165168039Y-82537785D01*
X165161641Y-82527242D01*
X165155241Y-82516541D01*
X165148839Y-82505681D01*
X165142434Y-82494660D01*
X165136029Y-82483479D01*
X165129623Y-82472136D01*
X165123218Y-82460631D01*
X165116813Y-82448963D01*
X165110411Y-82437133D01*
X165104010Y-82425139D01*
X165097613Y-82412981D01*
X165091220Y-82400660D01*
X165084831Y-82388174D01*
X165078448Y-82375524D01*
X165072072Y-82362709D01*
X165065703Y-82349730D01*
X165059342Y-82336586D01*
X165052991Y-82323279D01*
X165046649Y-82309807D01*
X165040319Y-82296171D01*
X165034001Y-82282373D01*
X165027697Y-82268411D01*
X165021407Y-82254287D01*
X165015132Y-82240002D01*
X165008874Y-82225557D01*
X165002634Y-82210951D01*
X164996413Y-82196187D01*
X164990212Y-82181265D01*
X164984032Y-82166188D01*
X164977876Y-82150955D01*
X164971744Y-82135570D01*
X164965637Y-82120033D01*
X164959557Y-82104346D01*
X164953506Y-82088512D01*
X164947484Y-82072532D01*
X164941494Y-82056409D01*
X164935537Y-82040146D01*
X164929614Y-82023745D01*
X164923727Y-82007209D01*
X164917878Y-81990540D01*
X164912068Y-81973743D01*
X164906299Y-81956821D01*
X164900574Y-81939776D01*
X164894892Y-81922614D01*
X164889257Y-81905338D01*
X164883670Y-81887952D01*
X164878133Y-81870460D01*
X164872648Y-81852869D01*
X164867216Y-81835181D01*
X164861841Y-81817403D01*
X164856522Y-81799540D01*
X164851263Y-81781598D01*
X164846066Y-81763581D01*
X164840932Y-81745497D01*
X164835864Y-81727352D01*
X164830863Y-81709151D01*
X164825932Y-81690903D01*
X164821072Y-81672614D01*
X164816286Y-81654290D01*
X164811575Y-81635941D01*
X164806941Y-81617573D01*
X164802388Y-81599194D01*
X164797915Y-81580813D01*
X164793526Y-81562437D01*
X164789223Y-81544076D01*
X164785007Y-81525737D01*
X164780879Y-81507430D01*
X164776843Y-81489165D01*
X164772900Y-81470949D01*
X164770962Y-81461859D01*
X164769050Y-81452792D01*
X164767161Y-81443736D01*
X164765297Y-81434704D01*
X164763457Y-81425687D01*
X164761642Y-81416695D01*
X164759851Y-81407721D01*
X164758086Y-81398773D01*
X164756345Y-81389847D01*
X164754630Y-81380949D01*
X164752940Y-81372076D01*
X164751276Y-81363231D01*
X164749638Y-81354416D01*
X164748025Y-81345631D01*
X164746439Y-81336878D01*
X164744879Y-81328156D01*
X164743346Y-81319471D01*
X164741838Y-81310818D01*
X164740358Y-81302205D01*
X164738904Y-81293625D01*
X164737477Y-81285089D01*
X164736077Y-81276587D01*
X164734704Y-81268132D01*
X164733358Y-81259713D01*
X164732040Y-81251345D01*
X164730747Y-81243013D01*
X164729484Y-81234735D01*
X164728246Y-81226494D01*
X164727037Y-81218312D01*
X164725855Y-81210167D01*
X164724701Y-81202084D01*
X164723573Y-81194040D01*
X164722474Y-81186060D01*
X164721401Y-81178120D01*
X164720357Y-81170248D01*
X164719339Y-81162417D01*
X164718350Y-81154656D01*
X164717386Y-81146937D01*
X164716452Y-81139292D01*
X164715544Y-81131689D01*
X164714664Y-81124162D01*
X164713810Y-81116679D01*
X164712985Y-81109274D01*
X164712185Y-81101913D01*
X164711413Y-81094634D01*
X164710667Y-81087399D01*
X164709950Y-81080248D01*
X164709257Y-81073142D01*
X164708592Y-81066122D01*
X164707952Y-81059148D01*
X164707341Y-81052262D01*
X164706753Y-81045422D01*
X164706193Y-81038671D01*
X164705657Y-81031968D01*
X164705149Y-81025356D01*
X164704664Y-81018790D01*
X164704207Y-81012318D01*
X164703772Y-81005893D01*
X164703365Y-80999563D01*
X164702980Y-80993280D01*
X164702621Y-80987092D01*
X164702285Y-80980952D01*
X164701975Y-80974909D01*
X164701687Y-80968914D01*
X164701423Y-80963017D01*
X164701182Y-80957167D01*
X164700965Y-80951415D01*
X164700770Y-80945711D01*
X164700598Y-80940106D01*
X164700448Y-80934549D01*
X164700321Y-80929091D01*
X164700215Y-80923681D01*
X164700130Y-80918370D01*
X164700067Y-80913106D01*
X164700025Y-80907942D01*
X164700003Y-80902825D01*
X164700000Y-80900000D01*
D11*
X165643781Y-84368756D02*
X165669793Y-84383227D01*
X165696890Y-84398389D01*
X165725508Y-84414489D01*
X165756394Y-84431952D01*
X165791066Y-84451638D01*
X165833745Y-84475948D01*
X165846315Y-84483116D01*
X165889400Y-84507670D01*
X165910572Y-84519709D01*
X165931519Y-84531591D01*
X165952261Y-84543314D01*
X165972815Y-84554879D01*
X165993199Y-84566286D01*
X166013431Y-84577535D01*
X166033529Y-84588625D01*
X166043534Y-84594111D01*
X166053511Y-84599557D01*
X166063464Y-84604963D01*
X166073395Y-84610330D01*
X166083306Y-84615658D01*
X166093198Y-84620946D01*
X166103076Y-84626194D01*
X166112939Y-84631403D01*
X166122792Y-84636572D01*
X166132636Y-84641702D01*
X166142473Y-84646792D01*
X166152306Y-84651842D01*
X166162137Y-84656853D01*
X166171967Y-84661825D01*
X166181800Y-84666756D01*
X166191638Y-84671648D01*
X166201482Y-84676501D01*
X166211336Y-84681314D01*
X166221201Y-84686087D01*
X166231079Y-84690821D01*
X166240973Y-84695515D01*
X166250885Y-84700170D01*
X166260817Y-84704785D01*
X166270772Y-84709360D01*
X166280752Y-84713896D01*
X166290758Y-84718392D01*
X166300794Y-84722849D01*
X166310861Y-84727266D01*
X166320962Y-84731643D01*
X166331098Y-84735981D01*
X166341273Y-84740279D01*
X166351489Y-84744538D01*
X166361747Y-84748757D01*
X166372049Y-84752936D01*
X166382399Y-84757076D01*
X166392799Y-84761177D01*
X166403250Y-84765237D01*
X166413754Y-84769258D01*
X166424315Y-84773239D01*
X166434935Y-84777181D01*
X166445614Y-84781083D01*
X166456357Y-84784946D01*
X166467164Y-84788769D01*
X166478039Y-84792552D01*
X166488984Y-84796296D01*
X166500000Y-84800000D01*
D13*
%TO.P,J1,1,VCC_1*%
%TO.N,+5V*%
X163454809Y-58756990D03*
%TO.P,J1,2,SWDIO_2*%
%TO.N,Net-(J1-SWDIO)*%
X163454809Y-60026990D03*
%TO.P,J1,3,~{RESET}_3*%
%TO.N,Net-(J1-~{RESET})*%
X164724809Y-58756990D03*
%TO.P,J1,4,SWCLK_4*%
%TO.N,Net-(J1-SWCLK)*%
X164724809Y-60026990D03*
%TO.P,J1,5,GND_5*%
%TO.N,GND*%
X165994809Y-58756990D03*
%TO.P,J1,6,SWO_6*%
%TO.N,Net-(J1-SWO)*%
X165994809Y-60026990D03*
%TD*%
D14*
%TO.P,R4,1*%
%TO.N,Net-(U3-AP_SDA)*%
X170300000Y-67502500D03*
%TO.P,R4,2*%
%TO.N,VDD*%
X170300000Y-68697500D03*
%TD*%
D15*
%TO.P,U2,1,GND_1*%
%TO.N,GND*%
X161010001Y-76782500D03*
%TO.P,U2,2,SW_2*%
%TO.N,+5V*%
X162909999Y-76782500D03*
%TO.P,U2,3,VOUT_3*%
%TO.N,VDD*%
X161960000Y-79057500D03*
%TD*%
%TO.P,U1,1,GND_1*%
%TO.N,GND*%
X159813620Y-68074682D03*
%TO.P,U1,2,SW_2*%
%TO.N,+BATT*%
X161713620Y-68074682D03*
%TO.P,U1,3,VOUT_3*%
%TO.N,VDD*%
X160763620Y-70349682D03*
%TD*%
D16*
%TO.P,BT1,1,+_1*%
%TO.N,+BATT*%
X173550000Y-73325000D03*
%TO.P,BT1,2,-_2*%
%TO.N,GND*%
X173550000Y-72075000D03*
D17*
%TO.P,BT1,MP*%
%TO.N,N/C*%
X170350000Y-75175000D03*
X170350000Y-70225000D03*
%TD*%
D18*
%TO.P,P1,A1,GND_A1*%
%TO.N,GND*%
X166215058Y-82416947D03*
%TO.P,P1,A4,VBUS_A4*%
%TO.N,+5V*%
X165779347Y-83087883D03*
D19*
%TO.P,P1,A5,CC_A5*%
%TO.N,Net-(P1-CC)*%
X165153012Y-84052354D03*
%TO.P,P1,A6,D+_A6*%
%TO.N,/D-*%
X164608373Y-84891025D03*
%TO.P,P1,A7,D-_A7*%
%TO.N,/D+*%
X164336053Y-85310360D03*
%TO.P,P1,A8*%
%TO.N,N/C*%
X163791414Y-86149031D03*
D18*
%TO.P,P1,A9,VBUS_A9*%
%TO.N,+5V*%
X163165079Y-87113502D03*
%TO.P,P1,A12,GND_A12*%
%TO.N,GND*%
X162729368Y-87784438D03*
%TO.P,P1,B1,GND_B1*%
X162729368Y-87784438D03*
%TO.P,P1,B4,VBUS_B4*%
%TO.N,+5V*%
X163165079Y-87113502D03*
D19*
%TO.P,P1,B5,VCONN_B5*%
%TO.N,unconnected-(P1-VCONN-PadB5)*%
X163519095Y-86568366D03*
%TO.P,P1,B6*%
%TO.N,N/C*%
X164063734Y-85729695D03*
%TO.P,P1,B7*%
X164880693Y-84471690D03*
%TO.P,P1,B8*%
X165425331Y-83633019D03*
D18*
%TO.P,P1,B9,VBUS_B9*%
%TO.N,+5V*%
X165779347Y-83087883D03*
%TO.P,P1,B12,GND_B12*%
%TO.N,GND*%
X166215058Y-82416947D03*
D20*
%TO.P,P1,SH,SHIELD_SH*%
X170850672Y-84091903D03*
D21*
X167328256Y-81804419D03*
D20*
X166144991Y-91338015D03*
D21*
X162622575Y-89050533D03*
%TD*%
D22*
%TO.P,D2,1,K_1*%
%TO.N,+5V*%
X167200000Y-79300000D03*
%TO.P,D2,2,A_2*%
%TO.N,GND*%
X168600000Y-79300000D03*
%TD*%
D14*
%TO.P,R3,1*%
%TO.N,Net-(U3-AP_SCL)*%
X169300000Y-67502500D03*
%TO.P,R3,2*%
%TO.N,VDD*%
X169300000Y-68697500D03*
%TD*%
D23*
%TO.N,GND*%
X157000000Y-61900000D03*
X165600000Y-55400000D03*
X162600000Y-60700000D03*
X161000000Y-59500000D03*
X158100000Y-77100000D03*
X171500000Y-60100000D03*
X163900000Y-55400000D03*
X158000000Y-75300000D03*
X165000000Y-96700000D03*
X159800000Y-65100000D03*
X157676230Y-70827963D03*
X159000000Y-69250000D03*
X163700000Y-64200000D03*
X159200000Y-64000000D03*
X164800000Y-55100000D03*
X163500000Y-56400000D03*
X168900000Y-58700000D03*
X164300000Y-82600000D03*
X162600000Y-61400000D03*
X163800000Y-70900000D03*
X159200000Y-61900000D03*
X162400000Y-70040000D03*
X163537500Y-71702500D03*
X159200000Y-60700000D03*
X167700000Y-94700000D03*
X159200000Y-62600000D03*
X163000000Y-75600000D03*
X162400000Y-70900000D03*
X162600000Y-62100000D03*
X158800000Y-80100000D03*
X164000000Y-76800000D03*
X163400000Y-63000000D03*
X159600000Y-83000000D03*
X163800000Y-63600000D03*
X159200000Y-61300000D03*
X163800000Y-70040000D03*
D24*
X166120000Y-57990000D03*
D23*
X170100000Y-59500000D03*
X158000000Y-67800000D03*
X159200000Y-60000000D03*
X162400000Y-69240000D03*
X162600000Y-62900000D03*
X165200000Y-69240000D03*
X165200000Y-70040000D03*
X163800000Y-69240000D03*
X160400000Y-79800000D03*
X162786098Y-85380382D03*
X165000000Y-98600000D03*
X158000000Y-73300000D03*
X165200000Y-70915000D03*
X165500000Y-94300000D03*
X165000000Y-97700000D03*
X159200000Y-63300000D03*
X159200000Y-64700000D03*
X160300000Y-59500000D03*
D24*
%TO.N,+BATT*%
X155825945Y-78507447D03*
X164103109Y-96599728D03*
X173889729Y-69861306D03*
X155900000Y-61000000D03*
X156848833Y-86210434D03*
X171564678Y-57988741D03*
X155862822Y-82039759D03*
X155927117Y-75068603D03*
X173834359Y-66348948D03*
X173992612Y-73307883D03*
X158831936Y-89136880D03*
X172020581Y-87741889D03*
X173863440Y-62868432D03*
X155906546Y-71521381D03*
X160749635Y-92150966D03*
X160114013Y-56683913D03*
X170032513Y-90702129D03*
X155885801Y-64441130D03*
X163046727Y-53629552D03*
X173936667Y-76886171D03*
X155870961Y-67965720D03*
X168263816Y-54902269D03*
X168124619Y-93688543D03*
X174000000Y-83915000D03*
X174028618Y-80348393D03*
D23*
%TO.N,/D+*%
X162800000Y-81300000D03*
%TO.N,VDD*%
X160771228Y-66877763D03*
D24*
X159700000Y-74710000D03*
D23*
X166520000Y-73080000D03*
X159500000Y-72300000D03*
X170420521Y-73282086D03*
X161960000Y-78500000D03*
X170400000Y-68900000D03*
X168224998Y-69800000D03*
%TO.N,Net-(U3-AP_SCL)*%
X169300000Y-67500000D03*
%TO.N,Net-(U3-AP_SDA)*%
X169600000Y-71225000D03*
%TO.N,Net-(J1-SWO)*%
X167406613Y-68598624D03*
%TO.N,Net-(J1-~{RESET})*%
X168050000Y-68100000D03*
%TO.N,Net-(J1-SWCLK)*%
X166400000Y-67200000D03*
%TO.N,Net-(J1-SWDIO)*%
X165400000Y-66200000D03*
%TO.N,Net-(P1-CC)*%
X166500000Y-84800000D03*
%TO.N,/D-*%
X163700000Y-81400000D03*
%TO.N,+5V*%
X168400000Y-75300000D03*
X169050000Y-59850000D03*
X163454809Y-57454809D03*
X171658370Y-67941630D03*
%TD*%
%TO.N,GND*%
D25*
X165994809Y-58756990D02*
X165994809Y-58115191D01*
X166215058Y-81775041D02*
X166677583Y-81312516D01*
D26*
X173550000Y-72075000D02*
X173510000Y-72035000D01*
D27*
X166110000Y-58890889D02*
X165999889Y-59001000D01*
D25*
X166215058Y-82416947D02*
X166215058Y-81775041D01*
D26*
X162415000Y-70915000D02*
X162400000Y-70900000D01*
D25*
X165994809Y-58115191D02*
X166120000Y-57990000D01*
X165944086Y-82220000D02*
X166000000Y-82164086D01*
%TO.N,+BATT*%
D28*
X167175937Y-53600000D02*
X171564678Y-57988741D01*
X170032513Y-90702129D02*
X168124619Y-92610023D01*
X160205489Y-66100000D02*
X156127117Y-66100000D01*
X155900000Y-61000000D02*
X155900000Y-60776279D01*
X155825945Y-78507447D02*
X155825945Y-75169775D01*
X164103109Y-93688543D02*
X164091652Y-93700000D01*
X166900000Y-53600000D02*
X167175937Y-53600000D01*
X161721228Y-66484261D02*
X161164730Y-65927763D01*
X156848833Y-86210434D02*
X156848833Y-85748833D01*
X170032513Y-89729957D02*
X170032513Y-90702129D01*
X155825945Y-75169775D02*
X155927117Y-75068603D01*
X174200000Y-69551035D02*
X173889729Y-69861306D01*
X162298669Y-93700000D02*
X160749635Y-92150966D01*
X172020581Y-87741889D02*
X170032513Y-89729957D01*
X161164730Y-65927763D02*
X160377726Y-65927763D01*
X164103109Y-93688543D02*
X164103109Y-96599728D01*
X158831936Y-88193537D02*
X156848833Y-86210434D01*
X155862822Y-78544324D02*
X155825945Y-78507447D01*
X161721228Y-67271265D02*
X161721228Y-66484261D01*
X155927117Y-75068603D02*
X155825945Y-74967431D01*
X166622960Y-53877040D02*
X166900000Y-53600000D01*
X155862822Y-82039759D02*
X155862822Y-78544324D01*
X173992612Y-85207388D02*
X172020581Y-87179419D01*
X155862822Y-84762822D02*
X155862822Y-83900000D01*
X172020581Y-87179419D02*
X172020581Y-87741889D01*
X155877822Y-83915000D02*
X155862822Y-83900000D01*
X168124619Y-92610023D02*
X168124619Y-93688543D01*
X155862822Y-83900000D02*
X155862822Y-82039759D01*
X155825945Y-61074055D02*
X155900000Y-61000000D01*
X160749635Y-91054579D02*
X158831936Y-89136880D01*
X156848833Y-85748833D02*
X155862822Y-84762822D01*
X155900000Y-60776279D02*
X163046727Y-53629552D01*
X165181629Y-92610023D02*
X168124619Y-92610023D01*
X163046727Y-53629552D02*
X163294215Y-53877040D01*
X174200000Y-60624063D02*
X174200000Y-69551035D01*
X155825945Y-74967431D02*
X155825945Y-61074055D01*
X156127117Y-66100000D02*
X155927117Y-65900000D01*
X163294215Y-53877040D02*
X166622960Y-53877040D01*
X173992612Y-73307883D02*
X173992612Y-85207388D01*
X164103109Y-93688543D02*
X165181629Y-92610023D01*
X158831936Y-89136880D02*
X158831936Y-88193537D01*
X160749635Y-92150966D02*
X160749635Y-91054579D01*
X164091652Y-93700000D02*
X162298669Y-93700000D01*
X161713620Y-68074682D02*
X161713620Y-67278873D01*
X161713620Y-67278873D02*
X161721228Y-67271265D01*
X160377726Y-65927763D02*
X160205489Y-66100000D01*
X171564678Y-57988741D02*
X174200000Y-60624063D01*
%TO.N,VDD*%
D29*
X170420521Y-73282086D02*
X170420521Y-73220521D01*
X170420521Y-73220521D02*
X170400000Y-73200000D01*
D26*
X160594107Y-74710000D02*
X161960000Y-76075893D01*
D29*
X168224998Y-69800000D02*
X168224998Y-69875002D01*
D26*
X160762500Y-74237500D02*
X160762500Y-70100000D01*
X159700000Y-74710000D02*
X160594107Y-74710000D01*
D29*
X168300000Y-69800000D02*
X169200000Y-68900000D01*
X168500000Y-73200000D02*
X167450000Y-72150000D01*
D26*
X160763620Y-66885371D02*
X160763620Y-70349682D01*
D29*
X166520000Y-73080000D02*
X167450000Y-72150000D01*
D26*
X165362500Y-74237500D02*
X160762500Y-74237500D01*
D29*
X168224998Y-69800000D02*
X168300000Y-69800000D01*
X169200000Y-68900000D02*
X170400000Y-68900000D01*
D26*
X159700000Y-74710000D02*
X160290000Y-74710000D01*
X160562500Y-72300000D02*
X159500000Y-72300000D01*
D29*
X170400000Y-73200000D02*
X168500000Y-73200000D01*
D26*
X161960000Y-76075893D02*
X161960000Y-78500000D01*
X160290000Y-74710000D02*
X160762500Y-74237500D01*
X160771228Y-66877763D02*
X160763620Y-66885371D01*
X166520000Y-73080000D02*
X165362500Y-74237500D01*
D29*
X168224998Y-69875002D02*
X167450000Y-70650000D01*
X167450000Y-70650000D02*
X167450000Y-72150000D01*
D26*
X161960000Y-78500000D02*
X161960000Y-79057500D01*
%TO.N,Net-(U3-AP_SDA)*%
D25*
X171705456Y-69375000D02*
X171675000Y-69375000D01*
X171050000Y-68750000D02*
X171050000Y-68252501D01*
X169625000Y-71200000D02*
X171580456Y-71200000D01*
X169600000Y-71225000D02*
X169625000Y-71200000D01*
X171675000Y-69375000D02*
X171050000Y-68750000D01*
X172050000Y-70730456D02*
X172050000Y-69719544D01*
X171050000Y-68252501D02*
X170300000Y-67502500D01*
X172050000Y-69719544D02*
X171705456Y-69375000D01*
X171580456Y-71200000D02*
X172050000Y-70730456D01*
%TO.N,Net-(J1-SWO)*%
X166893964Y-66774725D02*
X166893964Y-61303290D01*
X167400000Y-67280761D02*
X166893964Y-66774725D01*
X166893964Y-61303290D02*
X165994809Y-60404135D01*
X167400000Y-68592011D02*
X167400000Y-67280761D01*
X167406613Y-68598624D02*
X167400000Y-68592011D01*
X165994809Y-60404135D02*
X165994809Y-60026990D01*
%TO.N,Net-(J1-~{RESET})*%
X168200000Y-58000000D02*
X167600000Y-57400000D01*
X165881827Y-57415000D02*
X165545000Y-57751827D01*
X167900000Y-67073654D02*
X167393964Y-66567619D01*
X168050000Y-67250000D02*
X167900000Y-67100000D01*
X165885000Y-57415000D02*
X165881827Y-57415000D01*
X167600000Y-57400000D02*
X165900000Y-57400000D01*
X168050000Y-68100000D02*
X168050000Y-67250000D01*
X167393964Y-61606036D02*
X168200000Y-60800000D01*
X167900000Y-68100000D02*
X168050000Y-68100000D01*
X165900000Y-57400000D02*
X165885000Y-57415000D01*
X167393964Y-66567619D02*
X167393964Y-61606036D01*
X165545000Y-57755000D02*
X164724809Y-58575191D01*
X168200000Y-60800000D02*
X168200000Y-58000000D01*
X165545000Y-57751827D02*
X165545000Y-57755000D01*
X167900000Y-67100000D02*
X167900000Y-67073654D01*
X164724809Y-58575191D02*
X164724809Y-58756990D01*
%TO.N,Net-(J1-SWCLK)*%
X166090000Y-61392180D02*
X164724809Y-60026990D01*
X166400000Y-66987868D02*
X166393964Y-66981831D01*
X166400000Y-67200000D02*
X166400000Y-66987868D01*
X166090000Y-61400000D02*
X166090000Y-61392180D01*
X166393964Y-66981831D02*
X166393964Y-61703964D01*
X166393964Y-61703964D02*
X166090000Y-61400000D01*
%TO.N,Net-(J1-SWDIO)*%
X163673058Y-60026990D02*
X163454809Y-60026990D01*
X165893964Y-62247896D02*
X163673058Y-60026990D01*
X165400000Y-66200000D02*
X165893964Y-65706036D01*
X165893964Y-65706036D02*
X165893964Y-62247896D01*
%TO.N,+5V*%
X170480684Y-66600000D02*
X168133453Y-66600000D01*
X170970000Y-67089316D02*
X170480684Y-66600000D01*
X168400000Y-76200000D02*
X168400000Y-75300000D01*
D29*
X165900000Y-78700000D02*
X166600000Y-78700000D01*
D25*
X167893964Y-66360512D02*
X167893964Y-61813142D01*
D26*
X165900000Y-78700000D02*
X163300000Y-78700000D01*
D25*
X166600000Y-78700000D02*
X166600000Y-78000000D01*
X171658370Y-67941630D02*
X171446236Y-67941630D01*
D29*
X161945310Y-81054690D02*
X161945310Y-85300000D01*
X163468629Y-79500000D02*
X162000000Y-80968629D01*
D26*
X162909999Y-78309999D02*
X162909999Y-76782500D01*
D29*
X164697747Y-80900000D02*
X164697747Y-80697747D01*
X163500000Y-79500000D02*
X163468629Y-79500000D01*
D25*
X163454809Y-57454809D02*
X163454809Y-57445191D01*
X168700000Y-61007106D02*
X168700000Y-60200000D01*
X171446236Y-67941630D02*
X170970000Y-67465394D01*
X168133453Y-66600000D02*
X167893964Y-66360512D01*
D29*
X162000000Y-81000000D02*
X161945310Y-81054690D01*
X164697747Y-80697747D02*
X163300000Y-79300000D01*
D25*
X163454809Y-58756990D02*
X163454809Y-57454809D01*
X170970000Y-67465394D02*
X170970000Y-67089316D01*
X166600000Y-78000000D02*
X168400000Y-76200000D01*
D26*
X163300000Y-78700000D02*
X162909999Y-78309999D01*
D25*
X168700000Y-60200000D02*
X169050000Y-59850000D01*
D29*
X162000000Y-80968629D02*
X162000000Y-81000000D01*
X163300000Y-79300000D02*
X163300000Y-78700000D01*
D25*
X167893964Y-61813142D02*
X168700000Y-61007106D01*
D29*
X166600000Y-78700000D02*
X167200000Y-79300000D01*
D25*
X165779347Y-83034568D02*
X165779347Y-83087883D01*
%TD*%
%TA.AperFunction,Conductor*%
%TO.N,GND*%
G36*
X167417225Y-93215546D02*
G01*
X167432223Y-93219950D01*
X167490974Y-93257695D01*
X167492161Y-93259064D01*
X167519637Y-93313925D01*
X167521282Y-93321483D01*
X167524119Y-93347854D01*
X167524119Y-93767599D01*
X167559843Y-93900926D01*
X167559854Y-93900962D01*
X167565041Y-93920324D01*
X167565044Y-93920331D01*
X167565047Y-93920336D01*
X167642248Y-94054056D01*
X167643631Y-94056627D01*
X167644017Y-94057177D01*
X167755955Y-94169115D01*
X167756471Y-94169495D01*
X167759094Y-94170906D01*
X167828016Y-94210697D01*
X167862559Y-94230641D01*
X167862560Y-94230641D01*
X167892835Y-94248120D01*
X168045562Y-94289043D01*
X168045564Y-94289043D01*
X168203673Y-94289043D01*
X168203676Y-94289043D01*
X168310373Y-94260453D01*
X168345410Y-94256264D01*
X168356718Y-94256533D01*
X168423269Y-94277807D01*
X168467755Y-94331685D01*
X168476053Y-94401043D01*
X168475157Y-94406376D01*
X168456046Y-94454613D01*
X165167654Y-99387273D01*
X165153916Y-99404381D01*
X165140162Y-99418703D01*
X165107051Y-99443282D01*
X165091722Y-99451098D01*
X165073767Y-99458543D01*
X165063079Y-99462021D01*
X165044171Y-99466569D01*
X165042571Y-99466824D01*
X165025156Y-99469592D01*
X165005792Y-99471129D01*
X164994551Y-99471138D01*
X164975156Y-99469627D01*
X164956125Y-99466629D01*
X164937217Y-99462108D01*
X164926527Y-99458646D01*
X164908563Y-99451227D01*
X164893347Y-99443496D01*
X164860140Y-99418901D01*
X164857972Y-99416647D01*
X164846393Y-99404606D01*
X164832600Y-99387443D01*
X160928573Y-93531402D01*
X160913374Y-93499547D01*
X160911553Y-93493711D01*
X160910385Y-93423852D01*
X160947170Y-93364450D01*
X161010231Y-93334366D01*
X161079545Y-93343150D01*
X161081201Y-93343873D01*
X161119267Y-93369833D01*
X161812754Y-94063320D01*
X161812775Y-94063342D01*
X161813818Y-94064385D01*
X161818148Y-94068715D01*
X161818149Y-94068716D01*
X161929953Y-94180520D01*
X162016764Y-94230639D01*
X162016766Y-94230641D01*
X162054812Y-94252606D01*
X162054818Y-94252612D01*
X162054819Y-94252611D01*
X162066880Y-94259575D01*
X162066881Y-94259575D01*
X162066884Y-94259577D01*
X162219612Y-94300501D01*
X162219615Y-94300501D01*
X162385322Y-94300501D01*
X162387226Y-94300501D01*
X162387289Y-94300500D01*
X163360779Y-94300500D01*
X163395715Y-94305523D01*
X163410713Y-94309927D01*
X163469464Y-94347672D01*
X163470651Y-94349041D01*
X163498127Y-94403902D01*
X163499772Y-94411460D01*
X163502609Y-94437831D01*
X163502609Y-96678784D01*
X163526235Y-96766958D01*
X163543531Y-96831508D01*
X163543533Y-96831515D01*
X163543534Y-96831516D01*
X163543537Y-96831521D01*
X163620738Y-96965241D01*
X163622121Y-96967812D01*
X163622507Y-96968362D01*
X163734445Y-97080300D01*
X163734961Y-97080680D01*
X163737584Y-97082091D01*
X163871318Y-97159301D01*
X163871325Y-97159305D01*
X164024052Y-97200228D01*
X164024054Y-97200228D01*
X164182164Y-97200228D01*
X164182166Y-97200228D01*
X164334893Y-97159305D01*
X164471825Y-97080248D01*
X164583629Y-96968444D01*
X164662686Y-96831512D01*
X164703609Y-96678785D01*
X164703609Y-94006469D01*
X164708631Y-93971536D01*
X164716043Y-93946291D01*
X164747337Y-93893549D01*
X165381441Y-93259446D01*
X165409691Y-93238298D01*
X165432783Y-93225690D01*
X165492208Y-93210523D01*
X167382289Y-93210523D01*
X167417225Y-93215546D01*
G37*
%TD.AperFunction*%
%TA.AperFunction,Conductor*%
G36*
X167070278Y-54366679D02*
G01*
X167071313Y-54367038D01*
X167078665Y-54369583D01*
X167125781Y-54399079D01*
X173550573Y-60823871D01*
X173571723Y-60852123D01*
X173584331Y-60875212D01*
X173599500Y-60934641D01*
X173599500Y-62461432D01*
X173594476Y-62496369D01*
X173587064Y-62521610D01*
X173555768Y-62574355D01*
X173522958Y-62607163D01*
X173522955Y-62607167D01*
X173522954Y-62607168D01*
X173466939Y-62704190D01*
X173466938Y-62704191D01*
X173466934Y-62704202D01*
X173437940Y-62812414D01*
X173437940Y-62924450D01*
X173466937Y-63032669D01*
X173522955Y-63129695D01*
X173522957Y-63129697D01*
X173550573Y-63157313D01*
X173571723Y-63185565D01*
X173584331Y-63208654D01*
X173599500Y-63268083D01*
X173599500Y-65912866D01*
X173594476Y-65947805D01*
X173587063Y-65973048D01*
X173555769Y-66025790D01*
X173493871Y-66087688D01*
X173493372Y-66088381D01*
X173492012Y-66090909D01*
X173437858Y-66184706D01*
X173437857Y-66184707D01*
X173437853Y-66184718D01*
X173415347Y-66268715D01*
X173408859Y-66292930D01*
X173408859Y-66404966D01*
X173437856Y-66513185D01*
X173493874Y-66610211D01*
X173493876Y-66610213D01*
X173550573Y-66666910D01*
X173571723Y-66695162D01*
X173584331Y-66718251D01*
X173599500Y-66777680D01*
X173599500Y-69233108D01*
X173594476Y-69268047D01*
X173587064Y-69293287D01*
X173555769Y-69346029D01*
X173409214Y-69492583D01*
X173409212Y-69492587D01*
X173409210Y-69492590D01*
X173340678Y-69611290D01*
X173330150Y-69629524D01*
X173320143Y-69666868D01*
X173320144Y-69666869D01*
X173289228Y-69782249D01*
X173289228Y-69898266D01*
X173283329Y-69918352D01*
X173318335Y-70048991D01*
X173329669Y-70091287D01*
X173330152Y-70093091D01*
X173409210Y-70230022D01*
X173521013Y-70341825D01*
X173657944Y-70420883D01*
X173810672Y-70461807D01*
X173810675Y-70461807D01*
X173968783Y-70461807D01*
X173968786Y-70461807D01*
X174121514Y-70420883D01*
X174258445Y-70341825D01*
X174551273Y-70048994D01*
X174551279Y-70048991D01*
X174568715Y-70031555D01*
X174568716Y-70031555D01*
X174575212Y-70025058D01*
X174603457Y-70003912D01*
X174613391Y-69998488D01*
X174681661Y-69983635D01*
X174747126Y-70008049D01*
X174788999Y-70063981D01*
X174789001Y-70063985D01*
X174791682Y-70071173D01*
X174799500Y-70114507D01*
X174799500Y-71259585D01*
X174794475Y-71294526D01*
X174790564Y-71307843D01*
X174752787Y-71366619D01*
X174689229Y-71395641D01*
X174689220Y-71395642D01*
X174687953Y-71395824D01*
X174629147Y-71390048D01*
X174623852Y-71388184D01*
X174601907Y-71377953D01*
X174510198Y-71323717D01*
X174510187Y-71323713D01*
X174352505Y-71277902D01*
X174352501Y-71277901D01*
X174352495Y-71277900D01*
X174352489Y-71277899D01*
X174341963Y-71277070D01*
X174315654Y-71275000D01*
X174315649Y-71275000D01*
X173800000Y-71275000D01*
X173800000Y-71933170D01*
X173794975Y-71968114D01*
X173790570Y-71983112D01*
X173752827Y-72041855D01*
X173751458Y-72043042D01*
X173696597Y-72070518D01*
X173689039Y-72072163D01*
X173662668Y-72075000D01*
X173550000Y-72075000D01*
X173550000Y-72183170D01*
X173544975Y-72218114D01*
X173540570Y-72233112D01*
X173502827Y-72291855D01*
X173501458Y-72293042D01*
X173446597Y-72320518D01*
X173439039Y-72322163D01*
X173412668Y-72325000D01*
X172202703Y-72325000D01*
X172202898Y-72327480D01*
X172202898Y-72327483D01*
X172202899Y-72327486D01*
X172248718Y-72485198D01*
X172332314Y-72626552D01*
X172332321Y-72626561D01*
X172448438Y-72742678D01*
X172448447Y-72742685D01*
X172448449Y-72742686D01*
X172509140Y-72778579D01*
X172536651Y-72800684D01*
X172546910Y-72811671D01*
X172578276Y-72874105D01*
X172572203Y-72940313D01*
X172565934Y-72956824D01*
X172561411Y-72967267D01*
X172509426Y-73073607D01*
X172509426Y-73073608D01*
X172499500Y-73141736D01*
X172499500Y-73508260D01*
X172509426Y-73576391D01*
X172560803Y-73681485D01*
X172643514Y-73764196D01*
X172643515Y-73764196D01*
X172643753Y-73764434D01*
X172646952Y-73765877D01*
X172748607Y-73815573D01*
X172767277Y-73818293D01*
X172782438Y-73820502D01*
X172782440Y-73820502D01*
X172782673Y-73820536D01*
X172816739Y-73825500D01*
X172816740Y-73825500D01*
X173250282Y-73825500D01*
X173285218Y-73830523D01*
X173300216Y-73834927D01*
X173358967Y-73872672D01*
X173360154Y-73874041D01*
X173387630Y-73928902D01*
X173389275Y-73936460D01*
X173392112Y-73962831D01*
X173392112Y-84889460D01*
X173387088Y-84924397D01*
X173379676Y-84949638D01*
X173348381Y-85002382D01*
X171540062Y-86810700D01*
X171539558Y-86811399D01*
X171538202Y-86813921D01*
X171522129Y-86841762D01*
X171509397Y-86863815D01*
X171461004Y-86947634D01*
X171420080Y-87100362D01*
X171420080Y-87100364D01*
X171420080Y-87270819D01*
X171420081Y-87270870D01*
X171420081Y-87423961D01*
X171415057Y-87458898D01*
X171407645Y-87484139D01*
X171376350Y-87536883D01*
X169551996Y-89361235D01*
X169551992Y-89361240D01*
X169505937Y-89441013D01*
X169505935Y-89441017D01*
X169481098Y-89484032D01*
X169472937Y-89498166D01*
X169457056Y-89557431D01*
X169432012Y-89650898D01*
X169432012Y-89821357D01*
X169432013Y-89821408D01*
X169432013Y-90384201D01*
X169426989Y-90419138D01*
X169419577Y-90444379D01*
X169388282Y-90497123D01*
X167924810Y-91960596D01*
X167896559Y-91981745D01*
X167873471Y-91994353D01*
X167814041Y-92009523D01*
X167576923Y-92009523D01*
X167541984Y-92004499D01*
X167528666Y-92000588D01*
X167469889Y-91962812D01*
X167440868Y-91899263D01*
X167440053Y-91893596D01*
X167445403Y-91838300D01*
X167445214Y-91838255D01*
X167445154Y-91838244D01*
X167445154Y-91838240D01*
X167444978Y-91838198D01*
X167445119Y-91837612D01*
X167444977Y-91837570D01*
X167445710Y-91835124D01*
X167445714Y-91835088D01*
X167445747Y-91834991D01*
X167445762Y-91834955D01*
X167445765Y-91834945D01*
X167446008Y-91833637D01*
X167481659Y-91641287D01*
X167481662Y-91641273D01*
X167481663Y-91641261D01*
X167479085Y-91444305D01*
X167479084Y-91444297D01*
X167477890Y-91438681D01*
X167455538Y-91333521D01*
X167438131Y-91251626D01*
X167438130Y-91251622D01*
X167425649Y-91222573D01*
X167400519Y-91164080D01*
X167360370Y-91070632D01*
X167248801Y-90908297D01*
X167248800Y-90908295D01*
X167107700Y-90770845D01*
X167107696Y-90770841D01*
X166899297Y-90635504D01*
X166899296Y-90635504D01*
X166585584Y-91118577D01*
X166532563Y-91164080D01*
X166463358Y-91173694D01*
X166414054Y-91155037D01*
X166202708Y-91017787D01*
X166157205Y-90964766D01*
X166147591Y-90895561D01*
X166166246Y-90846260D01*
X166479962Y-90363183D01*
X166479960Y-90363182D01*
X166479961Y-90363182D01*
X166271561Y-90227846D01*
X166088622Y-90154859D01*
X166088609Y-90154855D01*
X166088603Y-90154853D01*
X166088597Y-90154852D01*
X166054043Y-90148447D01*
X165894935Y-90118956D01*
X165894926Y-90118955D01*
X165894925Y-90118955D01*
X165894913Y-90118954D01*
X165894910Y-90118954D01*
X165697963Y-90121531D01*
X165697938Y-90121534D01*
X165505290Y-90162483D01*
X165505271Y-90162487D01*
X165324281Y-90240248D01*
X165161946Y-90351818D01*
X165132284Y-90382266D01*
X165605855Y-90689806D01*
X165651358Y-90742827D01*
X165660972Y-90812032D01*
X165631645Y-90875449D01*
X165621295Y-90885949D01*
X165596476Y-90908297D01*
X165579433Y-90923643D01*
X165536411Y-90989891D01*
X165519002Y-91043466D01*
X165479566Y-91101140D01*
X165415207Y-91128338D01*
X165346361Y-91116423D01*
X165333538Y-91109141D01*
X164859967Y-90801599D01*
X164844216Y-90841079D01*
X164844216Y-90841080D01*
X164844213Y-90841092D01*
X164808321Y-91034741D01*
X164808319Y-91034757D01*
X164808318Y-91034764D01*
X164808318Y-91034777D01*
X164810895Y-91231717D01*
X164810898Y-91231742D01*
X164851847Y-91424390D01*
X164851851Y-91424409D01*
X164929610Y-91605395D01*
X164929612Y-91605399D01*
X165041185Y-91767738D01*
X165080117Y-91805663D01*
X165101636Y-91833637D01*
X165108447Y-91845731D01*
X165124192Y-91913804D01*
X165100635Y-91979583D01*
X165100628Y-91979593D01*
X165099925Y-91980558D01*
X165054595Y-92018731D01*
X165049424Y-92021284D01*
X165026624Y-92029871D01*
X164951666Y-92049957D01*
X164949963Y-92050386D01*
X164949846Y-92050445D01*
X164949820Y-92050458D01*
X164812927Y-92129493D01*
X164812923Y-92129495D01*
X164812919Y-92129498D01*
X164812911Y-92129504D01*
X164812907Y-92129507D01*
X164812906Y-92129507D01*
X163891843Y-93050573D01*
X163863592Y-93071722D01*
X163840504Y-93084330D01*
X163781074Y-93099500D01*
X162616596Y-93099500D01*
X162581660Y-93094477D01*
X162556418Y-93087065D01*
X162503673Y-93055769D01*
X161399061Y-91951157D01*
X161377909Y-91922901D01*
X161365302Y-91899812D01*
X161350135Y-91840387D01*
X161350135Y-91146030D01*
X161350136Y-91145979D01*
X161350136Y-90975524D01*
X161350136Y-90975522D01*
X161309212Y-90822794D01*
X161266187Y-90748273D01*
X161238829Y-90700887D01*
X161230157Y-90685866D01*
X161230153Y-90685861D01*
X161112998Y-90568706D01*
X161112955Y-90568664D01*
X159481361Y-88937070D01*
X159460209Y-88908814D01*
X159454053Y-88897539D01*
X159454052Y-88897538D01*
X159452119Y-88894530D01*
X159432436Y-88827493D01*
X159432436Y-88114484D01*
X159432436Y-88114483D01*
X159432435Y-88114476D01*
X159420117Y-88068503D01*
X159391513Y-87961752D01*
X159327156Y-87850283D01*
X159312456Y-87824821D01*
X159200652Y-87713017D01*
X159200651Y-87713016D01*
X159196321Y-87708686D01*
X159195299Y-87707664D01*
X159195256Y-87707622D01*
X157498259Y-86010625D01*
X157477107Y-85982369D01*
X157464500Y-85959280D01*
X157449333Y-85899855D01*
X157449333Y-85669778D01*
X157449322Y-85669735D01*
X157441376Y-85640080D01*
X157408410Y-85517048D01*
X157366569Y-85444578D01*
X157329353Y-85380117D01*
X157217549Y-85268313D01*
X157213218Y-85263982D01*
X157212196Y-85262960D01*
X157212153Y-85262918D01*
X156512248Y-84563013D01*
X156491096Y-84534757D01*
X156478489Y-84511668D01*
X156463322Y-84452243D01*
X156463322Y-84074487D01*
X156464382Y-84058307D01*
X156466487Y-84042318D01*
X156469653Y-84026409D01*
X156471801Y-84018394D01*
X156474671Y-84007681D01*
X156478322Y-83994057D01*
X156478322Y-83835942D01*
X156469649Y-83803579D01*
X156466485Y-83787666D01*
X156464382Y-83771682D01*
X156463322Y-83755507D01*
X156463322Y-78635775D01*
X156463323Y-78635724D01*
X156463323Y-78465269D01*
X156463323Y-78465267D01*
X156432770Y-78351243D01*
X156429609Y-78335352D01*
X156427504Y-78319361D01*
X156426445Y-78303186D01*
X156426445Y-77360649D01*
X160210001Y-77360649D01*
X160212900Y-77397487D01*
X160212902Y-77397501D01*
X160212903Y-77397505D01*
X160258708Y-77555165D01*
X160258718Y-77555196D01*
X160258719Y-77555199D01*
X160342311Y-77696546D01*
X160342315Y-77696552D01*
X160342322Y-77696561D01*
X160458439Y-77812678D01*
X160458448Y-77812685D01*
X160599802Y-77896281D01*
X160664409Y-77915050D01*
X160699661Y-77937563D01*
X160757510Y-77942098D01*
X160757515Y-77942100D01*
X160757512Y-77942100D01*
X160759999Y-77942295D01*
X160760001Y-77942295D01*
X160760001Y-77032500D01*
X160210001Y-77032500D01*
X160210001Y-77360649D01*
X156426445Y-77360649D01*
X156426445Y-75454291D01*
X156430670Y-75422198D01*
X156438832Y-75391736D01*
X156451218Y-75361832D01*
X156486694Y-75300388D01*
X156527618Y-75147660D01*
X156527618Y-74989546D01*
X156486694Y-74836818D01*
X156486692Y-74836815D01*
X156486693Y-74836815D01*
X156472788Y-74812732D01*
X156472786Y-74812729D01*
X156451220Y-74775374D01*
X156438833Y-74745469D01*
X156430670Y-74715004D01*
X156426445Y-74682911D01*
X156426445Y-68652836D01*
X159013620Y-68652836D01*
X159016519Y-68689669D01*
X159016521Y-68689683D01*
X159016522Y-68689687D01*
X159062327Y-68847347D01*
X159062337Y-68847378D01*
X159062338Y-68847381D01*
X159113784Y-68934371D01*
X159145934Y-68988734D01*
X159145941Y-68988743D01*
X159262058Y-69104860D01*
X159262067Y-69104867D01*
X159403421Y-69188463D01*
X159468028Y-69207232D01*
X159503280Y-69229745D01*
X159561129Y-69234280D01*
X159561134Y-69234282D01*
X159561131Y-69234282D01*
X159563618Y-69234477D01*
X159563620Y-69234477D01*
X159563620Y-68324682D01*
X159013620Y-68324682D01*
X159013620Y-68652836D01*
X156426445Y-68652836D01*
X156426445Y-66842329D01*
X156431468Y-66807393D01*
X156435872Y-66792395D01*
X156473617Y-66733644D01*
X156474986Y-66732457D01*
X156529865Y-66704977D01*
X156537424Y-66703333D01*
X156563777Y-66700500D01*
X159410625Y-66700500D01*
X159445542Y-66705518D01*
X159449417Y-66706655D01*
X159451403Y-66707238D01*
X159510187Y-66745003D01*
X159539221Y-66808555D01*
X159529288Y-66877715D01*
X159483541Y-66930525D01*
X159483521Y-66930538D01*
X159478535Y-66933742D01*
X159446097Y-66948500D01*
X159403425Y-66960898D01*
X159403419Y-66960900D01*
X159262072Y-67044492D01*
X159262067Y-67044495D01*
X159262056Y-67044504D01*
X159145942Y-67160618D01*
X159145933Y-67160629D01*
X159145930Y-67160634D01*
X159062338Y-67301981D01*
X159062337Y-67301984D01*
X159062327Y-67302015D01*
X159016522Y-67459675D01*
X159016521Y-67459679D01*
X159016519Y-67459693D01*
X159013957Y-67492252D01*
X159013620Y-67496532D01*
X159013620Y-67824682D01*
X159671790Y-67824682D01*
X159706726Y-67829705D01*
X159721724Y-67834109D01*
X159780475Y-67871854D01*
X159781662Y-67873223D01*
X159809138Y-67928084D01*
X159810783Y-67935642D01*
X159813620Y-67962013D01*
X159813620Y-68074682D01*
X159921790Y-68074682D01*
X159956726Y-68079705D01*
X159971724Y-68084109D01*
X160030475Y-68121854D01*
X160031662Y-68123223D01*
X160059138Y-68178084D01*
X160060783Y-68185642D01*
X160063620Y-68212013D01*
X160063620Y-69234477D01*
X160063630Y-69234487D01*
X160076388Y-69235156D01*
X160098358Y-69237468D01*
X160162968Y-69264057D01*
X160202947Y-69321355D01*
X160206654Y-69332408D01*
X160206684Y-69332495D01*
X160213120Y-69371926D01*
X160213120Y-70006837D01*
X160212854Y-70014953D01*
X160212325Y-70023018D01*
X160212236Y-70023922D01*
X160212000Y-70027526D01*
X160212000Y-71607670D01*
X160206975Y-71642614D01*
X160202570Y-71657612D01*
X160164827Y-71716355D01*
X160163458Y-71717542D01*
X160108597Y-71745018D01*
X160101039Y-71746663D01*
X160074668Y-71749500D01*
X159427525Y-71749500D01*
X159298994Y-71783939D01*
X159298993Y-71783940D01*
X159291338Y-71785991D01*
X159287510Y-71787017D01*
X159161991Y-71859485D01*
X159161984Y-71859490D01*
X159161968Y-71859505D01*
X159059505Y-71961968D01*
X159059490Y-71961984D01*
X159059485Y-71961992D01*
X158987017Y-72087509D01*
X158986989Y-72087578D01*
X158986748Y-72088511D01*
X158949500Y-72227525D01*
X158949500Y-72372474D01*
X158987013Y-72512477D01*
X158987016Y-72512485D01*
X158987017Y-72512488D01*
X159018497Y-72567013D01*
X159057635Y-72634802D01*
X159059123Y-72637568D01*
X159059353Y-72637877D01*
X159161985Y-72740509D01*
X159162674Y-72741005D01*
X159165178Y-72742353D01*
X159284069Y-72810995D01*
X159287087Y-72812869D01*
X159287514Y-72812983D01*
X159287515Y-72812984D01*
X159427525Y-72850500D01*
X160070170Y-72850500D01*
X160105106Y-72855523D01*
X160120104Y-72859927D01*
X160178855Y-72897672D01*
X160180042Y-72899041D01*
X160207518Y-72953902D01*
X160209163Y-72961460D01*
X160212000Y-72987831D01*
X160212000Y-73940283D01*
X160206976Y-73975220D01*
X160199564Y-74000461D01*
X160168269Y-74053205D01*
X160110901Y-74110573D01*
X160082650Y-74131722D01*
X160059562Y-74144330D01*
X160000132Y-74159500D01*
X159627525Y-74159500D01*
X159498994Y-74193939D01*
X159498993Y-74193940D01*
X159491338Y-74195991D01*
X159487510Y-74197017D01*
X159361991Y-74269485D01*
X159361984Y-74269490D01*
X159361968Y-74269505D01*
X159259505Y-74371968D01*
X159259490Y-74371984D01*
X159259485Y-74371992D01*
X159187017Y-74497509D01*
X159186989Y-74497578D01*
X159186748Y-74498511D01*
X159158791Y-74602850D01*
X159149500Y-74637525D01*
X159149500Y-74782475D01*
X159177875Y-74888370D01*
X159177874Y-74888370D01*
X159187016Y-74922486D01*
X159187018Y-74922491D01*
X159257635Y-75044802D01*
X159259123Y-75047568D01*
X159259353Y-75047877D01*
X159361985Y-75150509D01*
X159362674Y-75151005D01*
X159365178Y-75152353D01*
X159484069Y-75220995D01*
X159487087Y-75222869D01*
X159487514Y-75222983D01*
X159487515Y-75222984D01*
X159627525Y-75260500D01*
X160217526Y-75260500D01*
X160296890Y-75260500D01*
X160331822Y-75265521D01*
X160357066Y-75272934D01*
X160409812Y-75304230D01*
X160583807Y-75478225D01*
X160604957Y-75506477D01*
X160606713Y-75509693D01*
X160611610Y-75518660D01*
X160626462Y-75586933D01*
X160602046Y-75652398D01*
X160602038Y-75652407D01*
X160596734Y-75659491D01*
X160560595Y-75691904D01*
X160458453Y-75752310D01*
X160458448Y-75752313D01*
X160458437Y-75752322D01*
X160342323Y-75868436D01*
X160342314Y-75868447D01*
X160342311Y-75868452D01*
X160258719Y-76009799D01*
X160258718Y-76009802D01*
X160258708Y-76009833D01*
X160212903Y-76167493D01*
X160212902Y-76167497D01*
X160212901Y-76167504D01*
X160212900Y-76167510D01*
X160210001Y-76204350D01*
X160210001Y-76532500D01*
X160868171Y-76532500D01*
X160903107Y-76537523D01*
X160918105Y-76541927D01*
X160976856Y-76579672D01*
X160978043Y-76581041D01*
X161005519Y-76635902D01*
X161007164Y-76643460D01*
X161010001Y-76669831D01*
X161010001Y-76782500D01*
X161118171Y-76782500D01*
X161153107Y-76787523D01*
X161168105Y-76791927D01*
X161226856Y-76829672D01*
X161228043Y-76831041D01*
X161255519Y-76885902D01*
X161257164Y-76893460D01*
X161260001Y-76919831D01*
X161260001Y-77942295D01*
X161260011Y-77942305D01*
X161272769Y-77942974D01*
X161294737Y-77945285D01*
X161359348Y-77971875D01*
X161399326Y-78029172D01*
X161403064Y-78040317D01*
X161409500Y-78079744D01*
X161409500Y-78427525D01*
X161409500Y-79129975D01*
X161430610Y-79208758D01*
X161437403Y-79234108D01*
X161447015Y-79269983D01*
X161448223Y-79273539D01*
X161452421Y-79289204D01*
X161455140Y-79302873D01*
X161457117Y-79312808D01*
X161459500Y-79337001D01*
X161459500Y-79603260D01*
X161469426Y-79671391D01*
X161520803Y-79776485D01*
X161603514Y-79859196D01*
X161603515Y-79859196D01*
X161603753Y-79859434D01*
X161606952Y-79860877D01*
X161708607Y-79910573D01*
X161727277Y-79913293D01*
X161742438Y-79915502D01*
X161742440Y-79915502D01*
X161742673Y-79915536D01*
X161776739Y-79920500D01*
X162023123Y-79920500D01*
X162058050Y-79925521D01*
X162068903Y-79928707D01*
X162127684Y-79966477D01*
X162156713Y-80030031D01*
X162146774Y-80099190D01*
X162146773Y-80099192D01*
X162143588Y-80106167D01*
X162118472Y-80142342D01*
X161599505Y-80661307D01*
X161599495Y-80661322D01*
X161568865Y-80714372D01*
X161559864Y-80727844D01*
X161550128Y-80740535D01*
X161549634Y-80741097D01*
X161544814Y-80747367D01*
X161478918Y-80861500D01*
X161444810Y-80988798D01*
X161444810Y-85222712D01*
X161444588Y-85230122D01*
X161444082Y-85238571D01*
X161444081Y-85238611D01*
X161444797Y-85301785D01*
X161444801Y-85302211D01*
X161444806Y-85302844D01*
X161444810Y-85303823D01*
X161444810Y-85367096D01*
X161445412Y-85375562D01*
X161445716Y-85382951D01*
X161446621Y-85462683D01*
X161446213Y-85474233D01*
X161445271Y-85485711D01*
X161443792Y-85497161D01*
X161443492Y-85498855D01*
X161443491Y-85498862D01*
X161446957Y-85538748D01*
X161447273Y-85543410D01*
X161447500Y-85548042D01*
X161447641Y-85552703D01*
X161448088Y-85592031D01*
X161448091Y-85592710D01*
X161448096Y-85592742D01*
X161448562Y-85594405D01*
X161451158Y-85605668D01*
X161453217Y-85616990D01*
X161454752Y-85628439D01*
X161468881Y-85790992D01*
X161469301Y-85798348D01*
X161469502Y-85805714D01*
X161469484Y-85813075D01*
X161468680Y-85838115D01*
X161468680Y-85838131D01*
X161472492Y-85854437D01*
X161474199Y-85863134D01*
X161475588Y-85871843D01*
X161476670Y-85880635D01*
X161478119Y-85897313D01*
X161478122Y-85897324D01*
X161478123Y-85897327D01*
X161486679Y-85920877D01*
X161488985Y-85927862D01*
X161491081Y-85934908D01*
X161492972Y-85942034D01*
X161526986Y-86087519D01*
X161528073Y-86092657D01*
X161529055Y-86097838D01*
X161529926Y-86103038D01*
X161535222Y-86139363D01*
X161535225Y-86139375D01*
X161535228Y-86139384D01*
X161537214Y-86143996D01*
X161541095Y-86154235D01*
X161544513Y-86164614D01*
X161547477Y-86175161D01*
X161548623Y-86180062D01*
X161548624Y-86180066D01*
X161565971Y-86212474D01*
X161568356Y-86217167D01*
X161570634Y-86221895D01*
X161572815Y-86226680D01*
X161627281Y-86353178D01*
X161630081Y-86360273D01*
X161632656Y-86367437D01*
X161635016Y-86374699D01*
X161641608Y-86397330D01*
X161641613Y-86397342D01*
X161651078Y-86412947D01*
X161655283Y-86420457D01*
X161659202Y-86428063D01*
X161662863Y-86435814D01*
X161670082Y-86452579D01*
X161670084Y-86452583D01*
X161670087Y-86452587D01*
X161684684Y-86471074D01*
X161689223Y-86477201D01*
X161693571Y-86483464D01*
X161697733Y-86489872D01*
X161702623Y-86497934D01*
X161707767Y-86507304D01*
X161712488Y-86516857D01*
X161716801Y-86526620D01*
X161719203Y-86532762D01*
X161740043Y-86561066D01*
X161743229Y-86565602D01*
X161746314Y-86570210D01*
X161749297Y-86574889D01*
X161767548Y-86604981D01*
X161772313Y-86609544D01*
X161779694Y-86617248D01*
X161785811Y-86624212D01*
X161798624Y-86641662D01*
X161803614Y-86649876D01*
X161808902Y-86659520D01*
X161811114Y-86664017D01*
X161811439Y-86664486D01*
X161813730Y-86666934D01*
X161826529Y-86681556D01*
X161826533Y-86681564D01*
X161826535Y-86681563D01*
X161835365Y-86691652D01*
X161838715Y-86695647D01*
X161841987Y-86699720D01*
X161845148Y-86703828D01*
X161858944Y-86722567D01*
X161867067Y-86733600D01*
X161867068Y-86733601D01*
X161867069Y-86733602D01*
X161870841Y-86736617D01*
X161879115Y-86743855D01*
X161885243Y-86749716D01*
X161887048Y-86751442D01*
X161894655Y-86759394D01*
X161900630Y-86766222D01*
X161907786Y-86775207D01*
X161914476Y-86784456D01*
X161922234Y-86796613D01*
X161938127Y-86825037D01*
X161953664Y-86893158D01*
X161953663Y-86893174D01*
X161953309Y-86898923D01*
X161938371Y-86950736D01*
X161938004Y-86951408D01*
X161928453Y-86966069D01*
X161928484Y-86966247D01*
X162746579Y-87497523D01*
X162750277Y-87501832D01*
X162755552Y-87503935D01*
X162773146Y-87520767D01*
X162783325Y-87532629D01*
X162790659Y-87548886D01*
X162792082Y-87550544D01*
X162792382Y-87552705D01*
X162812038Y-87596275D01*
X162812288Y-87598070D01*
X162805446Y-87659064D01*
X162802708Y-87666299D01*
X162790730Y-87689945D01*
X162670453Y-87875157D01*
X162647214Y-87901720D01*
X162635351Y-87911901D01*
X162622088Y-87917882D01*
X162611577Y-87927935D01*
X162590889Y-87931953D01*
X162571670Y-87940621D01*
X162569877Y-87940870D01*
X162554105Y-87939099D01*
X162542989Y-87941259D01*
X162531085Y-87936513D01*
X162508909Y-87934023D01*
X162501670Y-87931283D01*
X162478030Y-87919307D01*
X161656166Y-87385581D01*
X161656164Y-87385582D01*
X161654972Y-87387779D01*
X161647595Y-87412214D01*
X161607504Y-87544999D01*
X161607503Y-87545000D01*
X161607503Y-87545004D01*
X161600627Y-87709069D01*
X161600627Y-87709079D01*
X161600628Y-87709090D01*
X161600629Y-87709095D01*
X161619352Y-87797178D01*
X161621703Y-87832391D01*
X161620514Y-87847978D01*
X161595787Y-87913326D01*
X161587576Y-87924187D01*
X161558896Y-87951599D01*
X161513731Y-87982639D01*
X161513722Y-87982648D01*
X161484068Y-88013088D01*
X161957639Y-88320628D01*
X162003142Y-88373649D01*
X162012756Y-88442854D01*
X161983429Y-88506271D01*
X161973078Y-88516771D01*
X161931219Y-88554462D01*
X161931214Y-88554468D01*
X161888197Y-88620709D01*
X161888192Y-88620718D01*
X161870786Y-88674288D01*
X161831348Y-88731963D01*
X161766989Y-88759160D01*
X161698143Y-88747245D01*
X161685321Y-88739963D01*
X161628452Y-88703032D01*
X161211750Y-88432422D01*
X161211749Y-88432422D01*
X161195998Y-88471903D01*
X161193991Y-88482348D01*
X161193922Y-88483107D01*
X161160256Y-88664755D01*
X161160107Y-88665528D01*
X161160100Y-88665598D01*
X161162679Y-88862538D01*
X161162679Y-88862546D01*
X161162683Y-88862569D01*
X161203631Y-89055215D01*
X161203635Y-89055234D01*
X161281393Y-89236217D01*
X161281395Y-89236221D01*
X161392967Y-89398559D01*
X161534064Y-89536008D01*
X161534067Y-89536011D01*
X161868266Y-89753043D01*
X162181979Y-89269966D01*
X162234999Y-89224465D01*
X162304204Y-89214851D01*
X162353508Y-89233508D01*
X162377484Y-89249078D01*
X162562308Y-89369104D01*
X162564854Y-89370757D01*
X162610357Y-89423778D01*
X162619972Y-89492983D01*
X162601314Y-89542287D01*
X162287602Y-90025361D01*
X162287603Y-90025361D01*
X162287603Y-90025362D01*
X162621807Y-90242397D01*
X162804664Y-90315349D01*
X162804686Y-90315367D01*
X162804765Y-90315390D01*
X162804767Y-90315391D01*
X162804769Y-90315391D01*
X162804771Y-90315392D01*
X162850263Y-90323822D01*
X162997719Y-90351151D01*
X162998403Y-90351283D01*
X162998452Y-90351287D01*
X162998456Y-90351288D01*
X162998459Y-90351287D01*
X162998460Y-90351288D01*
X163070076Y-90350350D01*
X163195413Y-90348709D01*
X163195421Y-90348708D01*
X163388090Y-90307755D01*
X163388099Y-90307753D01*
X163569076Y-90230000D01*
X163731423Y-90118421D01*
X163761080Y-90087977D01*
X163761080Y-90087976D01*
X163761080Y-90087975D01*
X163287511Y-89780436D01*
X163242008Y-89727415D01*
X163232394Y-89658210D01*
X163261721Y-89594793D01*
X163272066Y-89584299D01*
X163313934Y-89546600D01*
X163356957Y-89480351D01*
X163374364Y-89426776D01*
X163413800Y-89369104D01*
X163478159Y-89341905D01*
X163547005Y-89353819D01*
X163559829Y-89361102D01*
X164033398Y-89668642D01*
X164049148Y-89629166D01*
X164049148Y-89629164D01*
X164049150Y-89629160D01*
X164084903Y-89436249D01*
X164085042Y-89435531D01*
X164085048Y-89435467D01*
X164082469Y-89238526D01*
X164082469Y-89238518D01*
X164082469Y-89238517D01*
X164082468Y-89238508D01*
X164047958Y-89076150D01*
X164041518Y-89045850D01*
X164041516Y-89045843D01*
X164041515Y-89045837D01*
X164041512Y-89045827D01*
X164041511Y-89045824D01*
X164041510Y-89045821D01*
X164041508Y-89045817D01*
X163969531Y-88878283D01*
X163965624Y-88867942D01*
X163955515Y-88837087D01*
X163953349Y-88767251D01*
X163989282Y-88707331D01*
X163993943Y-88703032D01*
X164045923Y-88674405D01*
X164059652Y-88670727D01*
X164190882Y-88594961D01*
X164298032Y-88487811D01*
X164373798Y-88356581D01*
X164413017Y-88210212D01*
X164413017Y-88058680D01*
X164373798Y-87912311D01*
X164298032Y-87781081D01*
X164190882Y-87673931D01*
X164059652Y-87598165D01*
X164059651Y-87598164D01*
X164059650Y-87598164D01*
X164044928Y-87594219D01*
X164012487Y-87580327D01*
X164000635Y-87573103D01*
X163953636Y-87521403D01*
X163942049Y-87452503D01*
X163943283Y-87442181D01*
X163953756Y-87405080D01*
X163981801Y-87344136D01*
X163988528Y-87288924D01*
X163997736Y-87254867D01*
X164005230Y-87237475D01*
X164044844Y-87187244D01*
X164053038Y-87181117D01*
X164078347Y-87166495D01*
X164094424Y-87159589D01*
X164151599Y-87100898D01*
X164262848Y-86929587D01*
X164283127Y-86878758D01*
X164288581Y-86871807D01*
X164293049Y-86855812D01*
X164295266Y-86849253D01*
X164296007Y-86845225D01*
X164296974Y-86841761D01*
X164296975Y-86841762D01*
X164302235Y-86822931D01*
X164339227Y-86763665D01*
X164354914Y-86749706D01*
X164364645Y-86742406D01*
X164366741Y-86740254D01*
X164366743Y-86740254D01*
X164371515Y-86735355D01*
X164377901Y-86729251D01*
X164379247Y-86728052D01*
X164379289Y-86727957D01*
X164385976Y-86720510D01*
X164423918Y-86681563D01*
X164535167Y-86510252D01*
X164555446Y-86459423D01*
X164560900Y-86452472D01*
X164565368Y-86436477D01*
X164567586Y-86429917D01*
X164568326Y-86425891D01*
X164569294Y-86422427D01*
X164574554Y-86403596D01*
X164611545Y-86344331D01*
X164627991Y-86329695D01*
X164637773Y-86322007D01*
X164639055Y-86320923D01*
X164639064Y-86320917D01*
X164643853Y-86316000D01*
X164650231Y-86309905D01*
X164651583Y-86308701D01*
X164651633Y-86308586D01*
X164658281Y-86301189D01*
X164669678Y-86289491D01*
X164696238Y-86262227D01*
X164807487Y-86090916D01*
X164827766Y-86040087D01*
X164833220Y-86033136D01*
X164837688Y-86017141D01*
X164839905Y-86010582D01*
X164840646Y-86006554D01*
X164841613Y-86003090D01*
X164841614Y-86003091D01*
X164846874Y-85984260D01*
X164883866Y-85924994D01*
X164899553Y-85911035D01*
X164909284Y-85903735D01*
X164911380Y-85901583D01*
X164911382Y-85901583D01*
X164916154Y-85896684D01*
X164922540Y-85890580D01*
X164923886Y-85889381D01*
X164923928Y-85889286D01*
X164930615Y-85881839D01*
X164968557Y-85842892D01*
X165079806Y-85671581D01*
X165100087Y-85620747D01*
X165105541Y-85613796D01*
X165110009Y-85597801D01*
X165112225Y-85591246D01*
X165112965Y-85587220D01*
X165113932Y-85583755D01*
X165113934Y-85583756D01*
X165119195Y-85564923D01*
X165156185Y-85505660D01*
X165172619Y-85491037D01*
X165181781Y-85483864D01*
X165183695Y-85482252D01*
X165183703Y-85482247D01*
X165188487Y-85477335D01*
X165194856Y-85471249D01*
X165196206Y-85470047D01*
X165196249Y-85469948D01*
X165202944Y-85462494D01*
X165208703Y-85456584D01*
X165240877Y-85423557D01*
X165352126Y-85252246D01*
X165372407Y-85201412D01*
X165377861Y-85194461D01*
X165382329Y-85178466D01*
X165384545Y-85171911D01*
X165385285Y-85167885D01*
X165386252Y-85164420D01*
X165386254Y-85164421D01*
X165391515Y-85145588D01*
X165428505Y-85086325D01*
X165444939Y-85071702D01*
X165454101Y-85064529D01*
X165456010Y-85062920D01*
X165456023Y-85062912D01*
X165460794Y-85058013D01*
X165467177Y-85051912D01*
X165468527Y-85050710D01*
X165468569Y-85050613D01*
X165475262Y-85043162D01*
X165512672Y-85004760D01*
X165513168Y-85004258D01*
X165513198Y-85004221D01*
X165586374Y-84891536D01*
X165586392Y-84891520D01*
X165586399Y-84891497D01*
X165586402Y-84891492D01*
X165609610Y-84864974D01*
X165621478Y-84854788D01*
X165637729Y-84847460D01*
X165639394Y-84846032D01*
X165641566Y-84845730D01*
X165685163Y-84826070D01*
X165689372Y-84825485D01*
X165745989Y-84830783D01*
X165749288Y-84831893D01*
X165769384Y-84840706D01*
X165842072Y-84880595D01*
X165855773Y-84888114D01*
X165957127Y-84943735D01*
X165967469Y-84950088D01*
X165978772Y-84957819D01*
X165980034Y-84958754D01*
X165982090Y-84960030D01*
X165982093Y-84960032D01*
X165982095Y-84960033D01*
X165987407Y-84963329D01*
X166003938Y-84975599D01*
X166025953Y-84994971D01*
X166028320Y-84997054D01*
X166053790Y-85028143D01*
X166099500Y-85107314D01*
X166192686Y-85200500D01*
X166282318Y-85252249D01*
X166300869Y-85262960D01*
X166306814Y-85266392D01*
X166434108Y-85300500D01*
X166434110Y-85300500D01*
X166565890Y-85300500D01*
X166565892Y-85300500D01*
X166693186Y-85266392D01*
X166807314Y-85200500D01*
X166900500Y-85107314D01*
X166966392Y-84993186D01*
X167000500Y-84865892D01*
X167000500Y-84734108D01*
X166966392Y-84606814D01*
X166963693Y-84602140D01*
X166963692Y-84602138D01*
X166963693Y-84602137D01*
X166963688Y-84602132D01*
X166948839Y-84576412D01*
X166946738Y-84572773D01*
X166900504Y-84492692D01*
X166900498Y-84492684D01*
X166807316Y-84399502D01*
X166807314Y-84399500D01*
X166747389Y-84364902D01*
X166734416Y-84357412D01*
X166693188Y-84333608D01*
X166606732Y-84310443D01*
X166565892Y-84299500D01*
X166565891Y-84299500D01*
X166434104Y-84299500D01*
X166369179Y-84316896D01*
X166334135Y-84321086D01*
X166307343Y-84320448D01*
X166250646Y-84305193D01*
X166240276Y-84299503D01*
X166240271Y-84299498D01*
X166240270Y-84299500D01*
X166174337Y-84263317D01*
X166146125Y-84242104D01*
X166135354Y-84231287D01*
X166102000Y-84169893D01*
X166105702Y-84104232D01*
X166109373Y-84093328D01*
X166122890Y-84065372D01*
X166169084Y-83994240D01*
X166199448Y-83918136D01*
X166199259Y-83903751D01*
X166203824Y-83868754D01*
X166205592Y-83862430D01*
X166208919Y-83850523D01*
X166241454Y-83795432D01*
X166248749Y-83788267D01*
X166271866Y-83770389D01*
X166272645Y-83769921D01*
X166283124Y-83763637D01*
X166283127Y-83763637D01*
X166296685Y-83755507D01*
X166322232Y-83740189D01*
X166362782Y-83694014D01*
X166382196Y-83676160D01*
X166395909Y-83666014D01*
X166461509Y-83641967D01*
X166529390Y-83657035D01*
X166541391Y-83663632D01*
X166569332Y-83684611D01*
X166632166Y-83747445D01*
X166763396Y-83823211D01*
X166909765Y-83862430D01*
X166909767Y-83862430D01*
X167061295Y-83862430D01*
X167061297Y-83862430D01*
X167207666Y-83823211D01*
X167267524Y-83788652D01*
X169513999Y-83788652D01*
X169513999Y-83788665D01*
X169516576Y-83985605D01*
X169516579Y-83985630D01*
X169557528Y-84178278D01*
X169557532Y-84178297D01*
X169635293Y-84359287D01*
X169746861Y-84521621D01*
X169839832Y-84612187D01*
X169887966Y-84659076D01*
X170096364Y-84794412D01*
X170410077Y-84311336D01*
X170463097Y-84265835D01*
X170532302Y-84256221D01*
X170581606Y-84274878D01*
X170792951Y-84412127D01*
X170838454Y-84465148D01*
X170848068Y-84534353D01*
X170829411Y-84583657D01*
X170515698Y-85066732D01*
X170515699Y-85066732D01*
X170515699Y-85066733D01*
X170724101Y-85202071D01*
X170825293Y-85242443D01*
X170907039Y-85275057D01*
X170907043Y-85275058D01*
X170907050Y-85275061D01*
X170907065Y-85275065D01*
X171100737Y-85310962D01*
X171100749Y-85310963D01*
X171297705Y-85308385D01*
X171297713Y-85308384D01*
X171297721Y-85308382D01*
X171297723Y-85308382D01*
X171334809Y-85300499D01*
X171490384Y-85267431D01*
X171490388Y-85267430D01*
X171671378Y-85189670D01*
X171833715Y-85078099D01*
X171863376Y-85047651D01*
X171863376Y-85047650D01*
X171863375Y-85047649D01*
X171389807Y-84740110D01*
X171344304Y-84687089D01*
X171334690Y-84617884D01*
X171364017Y-84554467D01*
X171374358Y-84543976D01*
X171416230Y-84506275D01*
X171459252Y-84440027D01*
X171476660Y-84386451D01*
X171516097Y-84328777D01*
X171580455Y-84301579D01*
X171649302Y-84313494D01*
X171662120Y-84320773D01*
X171802792Y-84412127D01*
X172116030Y-84615547D01*
X172135693Y-84628316D01*
X172135695Y-84628315D01*
X172151443Y-84588844D01*
X172151447Y-84588830D01*
X172187343Y-84395161D01*
X172187344Y-84395149D01*
X172184766Y-84198193D01*
X172184765Y-84198185D01*
X172180537Y-84178295D01*
X172156745Y-84066362D01*
X172143812Y-84005514D01*
X172143811Y-84005510D01*
X172142275Y-84001936D01*
X172114990Y-83938428D01*
X172066051Y-83824520D01*
X172028848Y-83770389D01*
X171954481Y-83662183D01*
X171813381Y-83524732D01*
X171813378Y-83524730D01*
X171813377Y-83524729D01*
X171604977Y-83389391D01*
X171604975Y-83389391D01*
X171291264Y-83872464D01*
X171238243Y-83917967D01*
X171169038Y-83927581D01*
X171119734Y-83908924D01*
X170908389Y-83771675D01*
X170862886Y-83718654D01*
X170853272Y-83649449D01*
X170871927Y-83600148D01*
X171185643Y-83117071D01*
X171185641Y-83117070D01*
X171185642Y-83117070D01*
X170977242Y-82981734D01*
X170794303Y-82908747D01*
X170794290Y-82908743D01*
X170794284Y-82908741D01*
X170794278Y-82908740D01*
X170746401Y-82899866D01*
X170600616Y-82872844D01*
X170600607Y-82872843D01*
X170600606Y-82872843D01*
X170600594Y-82872842D01*
X170600591Y-82872842D01*
X170403644Y-82875419D01*
X170403619Y-82875422D01*
X170210971Y-82916371D01*
X170210952Y-82916375D01*
X170029962Y-82994136D01*
X169867627Y-83105706D01*
X169837965Y-83136154D01*
X170311536Y-83443694D01*
X170357039Y-83496715D01*
X170366653Y-83565920D01*
X170337326Y-83629337D01*
X170326976Y-83639837D01*
X170285113Y-83677532D01*
X170244423Y-83740189D01*
X170242092Y-83743779D01*
X170224683Y-83797354D01*
X170185247Y-83855028D01*
X170120888Y-83882226D01*
X170052042Y-83870311D01*
X170039219Y-83863029D01*
X169565648Y-83555487D01*
X169549897Y-83594967D01*
X169549897Y-83594968D01*
X169549894Y-83594980D01*
X169514002Y-83788629D01*
X169514000Y-83788645D01*
X169513999Y-83788652D01*
X167267524Y-83788652D01*
X167338896Y-83747445D01*
X167446046Y-83640295D01*
X167521812Y-83509065D01*
X167561031Y-83362696D01*
X167561031Y-83245574D01*
X167566053Y-83210641D01*
X167569964Y-83197322D01*
X167607737Y-83138545D01*
X167671291Y-83109520D01*
X167693280Y-83106358D01*
X167709302Y-83105106D01*
X167901094Y-83102595D01*
X167901102Y-83102594D01*
X168093771Y-83061641D01*
X168093780Y-83061639D01*
X168274756Y-82983886D01*
X168274757Y-82983885D01*
X168274793Y-82983859D01*
X168283559Y-82977920D01*
X168284142Y-82977434D01*
X168437104Y-82872307D01*
X168466761Y-82841863D01*
X168466761Y-82841862D01*
X168466761Y-82841861D01*
X167993192Y-82534323D01*
X167947689Y-82481302D01*
X167938075Y-82412097D01*
X167967402Y-82348680D01*
X167977754Y-82338179D01*
X167992383Y-82325006D01*
X168019615Y-82300486D01*
X168062638Y-82234237D01*
X168080045Y-82180662D01*
X168119481Y-82122990D01*
X168183840Y-82095791D01*
X168252686Y-82107705D01*
X168265510Y-82114988D01*
X168739079Y-82422528D01*
X168754829Y-82383052D01*
X168754829Y-82383050D01*
X168754831Y-82383046D01*
X168790584Y-82190135D01*
X168790723Y-82189417D01*
X168790729Y-82189353D01*
X168788150Y-81992412D01*
X168788150Y-81992404D01*
X168788150Y-81992403D01*
X168788149Y-81992394D01*
X168758462Y-81852724D01*
X168747199Y-81799736D01*
X168747197Y-81799729D01*
X168747196Y-81799723D01*
X168747193Y-81799713D01*
X168669441Y-81618737D01*
X168557864Y-81456392D01*
X168516855Y-81416444D01*
X168416768Y-81318945D01*
X168416764Y-81318941D01*
X168082563Y-81101907D01*
X168082562Y-81101907D01*
X167768848Y-81584981D01*
X167715826Y-81630484D01*
X167646621Y-81640097D01*
X167597318Y-81621440D01*
X167385973Y-81484192D01*
X167340470Y-81431171D01*
X167330855Y-81361966D01*
X167349513Y-81312662D01*
X167353440Y-81306616D01*
X167663226Y-80829588D01*
X167546352Y-80753689D01*
X167329022Y-80612553D01*
X167146171Y-80539603D01*
X167146156Y-80539597D01*
X167146068Y-80539562D01*
X167146063Y-80539560D01*
X167146061Y-80539559D01*
X167146058Y-80539558D01*
X166953226Y-80503821D01*
X166952436Y-80503668D01*
X166952369Y-80503662D01*
X166755429Y-80506241D01*
X166755421Y-80506241D01*
X166755398Y-80506245D01*
X166562752Y-80547193D01*
X166562733Y-80547197D01*
X166381750Y-80624955D01*
X166381744Y-80624959D01*
X166219405Y-80736532D01*
X166189749Y-80766974D01*
X166663320Y-81074514D01*
X166708823Y-81127535D01*
X166718437Y-81196740D01*
X166689110Y-81260157D01*
X166678759Y-81270657D01*
X166636900Y-81308348D01*
X166636895Y-81308354D01*
X166593878Y-81374595D01*
X166593876Y-81374599D01*
X166593875Y-81374601D01*
X166580279Y-81416444D01*
X166576468Y-81428174D01*
X166537029Y-81485849D01*
X166472671Y-81513047D01*
X166403824Y-81501132D01*
X166391002Y-81493850D01*
X166384240Y-81489459D01*
X165917431Y-81186309D01*
X165901679Y-81225793D01*
X165901677Y-81225799D01*
X165892041Y-81277789D01*
X165880737Y-81311221D01*
X165873674Y-81325165D01*
X165825821Y-81376075D01*
X165825818Y-81376077D01*
X165814073Y-81382970D01*
X165777092Y-81397317D01*
X165687119Y-81416441D01*
X165687115Y-81416442D01*
X165687114Y-81416443D01*
X165687111Y-81416444D01*
X165687108Y-81416445D01*
X165687106Y-81416446D01*
X165540021Y-81489459D01*
X165540008Y-81489467D01*
X165462502Y-81556369D01*
X165432777Y-81575392D01*
X165420143Y-81581133D01*
X165350966Y-81590946D01*
X165287465Y-81561802D01*
X165287451Y-81561790D01*
X165284919Y-81559587D01*
X165252378Y-81514978D01*
X165251613Y-81513197D01*
X165245143Y-81493904D01*
X165234265Y-81449726D01*
X165202200Y-81319496D01*
X165201228Y-81315223D01*
X165200693Y-81312662D01*
X165200328Y-81310918D01*
X165199509Y-81306616D01*
X165197564Y-81295319D01*
X165190710Y-81255496D01*
X165173175Y-81153630D01*
X165172654Y-81150321D01*
X165172163Y-81146905D01*
X165171734Y-81143587D01*
X165169432Y-81123629D01*
X165168951Y-81100335D01*
X165170641Y-81077379D01*
X165174531Y-81054398D01*
X165187685Y-81005308D01*
X165198247Y-80965892D01*
X165198247Y-80631855D01*
X165164139Y-80504561D01*
X165163623Y-80503668D01*
X165155310Y-80489268D01*
X165098247Y-80390433D01*
X165005061Y-80297247D01*
X164182602Y-79474788D01*
X164161453Y-79446538D01*
X164158892Y-79441848D01*
X164156031Y-79436608D01*
X164141178Y-79368338D01*
X164165592Y-79302873D01*
X164221522Y-79261001D01*
X164225401Y-79259554D01*
X164228737Y-79258311D01*
X164272051Y-79250500D01*
X165972472Y-79250500D01*
X165972475Y-79250500D01*
X166112485Y-79212984D01*
X166112486Y-79212982D01*
X166128253Y-79208758D01*
X166128500Y-79209681D01*
X166136746Y-79206575D01*
X166155314Y-79202882D01*
X166179503Y-79200500D01*
X166323494Y-79200500D01*
X166358426Y-79205521D01*
X166383670Y-79212934D01*
X166436416Y-79244230D01*
X166653375Y-79461189D01*
X166674526Y-79489444D01*
X166689216Y-79516347D01*
X166703088Y-79557894D01*
X166709425Y-79601389D01*
X166709426Y-79601391D01*
X166760803Y-79706485D01*
X166843514Y-79789196D01*
X166843515Y-79789196D01*
X166843753Y-79789434D01*
X166846952Y-79790877D01*
X166948607Y-79840573D01*
X166967277Y-79843293D01*
X166982438Y-79845502D01*
X166982440Y-79845502D01*
X166982673Y-79845536D01*
X167016739Y-79850500D01*
X167016740Y-79850500D01*
X167016741Y-79850500D01*
X167383261Y-79850500D01*
X167383262Y-79850500D01*
X167387803Y-79849838D01*
X167405971Y-79847191D01*
X167451393Y-79840573D01*
X167556483Y-79789198D01*
X167628593Y-79717087D01*
X167656842Y-79695940D01*
X167669027Y-79689286D01*
X167737299Y-79674436D01*
X167802763Y-79698854D01*
X167802765Y-79698856D01*
X167804615Y-79700241D01*
X167841257Y-79744144D01*
X167843629Y-79748898D01*
X167846478Y-79755020D01*
X167848718Y-79760198D01*
X167908260Y-79860880D01*
X167932314Y-79901552D01*
X167932321Y-79901561D01*
X168048438Y-80017678D01*
X168048447Y-80017685D01*
X168189801Y-80101281D01*
X168254408Y-80120050D01*
X168289660Y-80142563D01*
X168347509Y-80147098D01*
X168347514Y-80147100D01*
X168347511Y-80147100D01*
X168349998Y-80147295D01*
X168350000Y-80147295D01*
X168850000Y-80147295D01*
X168850001Y-80147295D01*
X168850003Y-80147295D01*
X168850003Y-80147294D01*
X168852486Y-80147100D01*
X169010198Y-80101281D01*
X169151552Y-80017685D01*
X169151561Y-80017678D01*
X169267678Y-79901561D01*
X169267685Y-79901552D01*
X169351282Y-79760196D01*
X169351283Y-79760193D01*
X169397099Y-79602495D01*
X169397100Y-79602489D01*
X169399999Y-79565649D01*
X169400000Y-79565634D01*
X169400000Y-79550000D01*
X168850000Y-79550000D01*
X168850000Y-80147295D01*
X168350000Y-80147295D01*
X168350000Y-79050000D01*
X168850000Y-79050000D01*
X169400000Y-79050000D01*
X169400000Y-79034365D01*
X169399999Y-79034350D01*
X169397100Y-78997510D01*
X169397099Y-78997504D01*
X169381747Y-78944664D01*
X169351291Y-78839833D01*
X169351289Y-78839828D01*
X169351283Y-78839806D01*
X169351282Y-78839803D01*
X169294370Y-78743570D01*
X169267688Y-78698452D01*
X169267685Y-78698447D01*
X169267676Y-78698436D01*
X169151562Y-78582322D01*
X169151551Y-78582313D01*
X169151546Y-78582310D01*
X169010199Y-78498718D01*
X169010196Y-78498717D01*
X169010182Y-78498712D01*
X168967180Y-78486219D01*
X168945621Y-78479956D01*
X168910409Y-78457469D01*
X168850000Y-78452703D01*
X168850000Y-79050000D01*
X168350000Y-79050000D01*
X168350000Y-78452703D01*
X168347505Y-78452899D01*
X168347497Y-78452901D01*
X168189833Y-78498707D01*
X168189802Y-78498717D01*
X168189799Y-78498718D01*
X168048452Y-78582310D01*
X168048447Y-78582313D01*
X168048436Y-78582322D01*
X167932322Y-78698436D01*
X167932313Y-78698447D01*
X167932310Y-78698452D01*
X167844743Y-78846523D01*
X167844699Y-78846497D01*
X167841446Y-78852618D01*
X167830890Y-78869148D01*
X167778218Y-78915054D01*
X167709089Y-78925197D01*
X167709063Y-78925194D01*
X167706773Y-78924871D01*
X167653505Y-78904034D01*
X167650381Y-78901871D01*
X167633287Y-78887604D01*
X167556487Y-78810804D01*
X167451389Y-78759425D01*
X167411243Y-78753576D01*
X167377401Y-78743570D01*
X167349541Y-78730784D01*
X167313581Y-78705767D01*
X166999426Y-78391612D01*
X166978274Y-78363356D01*
X166965667Y-78340267D01*
X166950500Y-78280842D01*
X166950500Y-78214372D01*
X166955522Y-78179439D01*
X166956848Y-78174923D01*
X166962934Y-78154194D01*
X166994228Y-78101452D01*
X167735032Y-77360649D01*
X168680469Y-76415212D01*
X168683560Y-76409856D01*
X168683573Y-76409844D01*
X168683569Y-76409842D01*
X168726613Y-76335290D01*
X168726614Y-76335289D01*
X168726614Y-76335287D01*
X168739183Y-76288379D01*
X168739183Y-76288378D01*
X168750500Y-76246144D01*
X168750500Y-75879718D01*
X168755521Y-75844790D01*
X168756122Y-75842744D01*
X168759132Y-75832491D01*
X168796902Y-75773712D01*
X168860456Y-75744684D01*
X168925174Y-75752700D01*
X168933920Y-75756288D01*
X168960489Y-75771239D01*
X169000136Y-75800499D01*
X169037118Y-75827793D01*
X169079845Y-75842744D01*
X169165299Y-75872646D01*
X169165303Y-75872647D01*
X169183742Y-75874375D01*
X169195730Y-75875500D01*
X169195734Y-75875500D01*
X169195739Y-75875500D01*
X171504270Y-75875500D01*
X171504271Y-75875500D01*
X171528920Y-75873188D01*
X171532498Y-75873020D01*
X171534699Y-75872646D01*
X171534701Y-75872646D01*
X171598790Y-75850219D01*
X171662882Y-75827793D01*
X171772150Y-75747150D01*
X171852793Y-75637882D01*
X171882790Y-75552156D01*
X171897646Y-75509701D01*
X171897646Y-75509699D01*
X171897647Y-75509693D01*
X171898020Y-75507497D01*
X171898188Y-75503919D01*
X171900500Y-75479270D01*
X171900500Y-74870728D01*
X171898188Y-74846079D01*
X171898020Y-74842502D01*
X171897646Y-74840297D01*
X171858392Y-74728120D01*
X171858391Y-74728117D01*
X171857993Y-74726981D01*
X171852793Y-74712118D01*
X171772150Y-74602850D01*
X171662882Y-74522207D01*
X171662880Y-74522206D01*
X171534704Y-74477354D01*
X171534702Y-74477353D01*
X171534700Y-74477353D01*
X171504270Y-74474500D01*
X171504266Y-74474500D01*
X171504264Y-74474500D01*
X169195734Y-74474500D01*
X169195730Y-74474500D01*
X169177074Y-74476249D01*
X169171069Y-74476812D01*
X169167499Y-74476978D01*
X169165297Y-74477353D01*
X169037118Y-74522206D01*
X168927849Y-74602849D01*
X168847207Y-74712116D01*
X168824463Y-74777113D01*
X168808185Y-74808424D01*
X168800097Y-74819701D01*
X168745031Y-74862703D01*
X168675456Y-74869109D01*
X168675451Y-74869108D01*
X168664218Y-74866903D01*
X168626106Y-74852614D01*
X168614786Y-74846079D01*
X168604781Y-74840302D01*
X168604777Y-74840298D01*
X168604777Y-74840300D01*
X168593188Y-74833608D01*
X168529539Y-74816554D01*
X168465892Y-74799500D01*
X168465891Y-74799500D01*
X168334108Y-74799500D01*
X168206808Y-74833609D01*
X168206806Y-74833610D01*
X168092696Y-74899493D01*
X168092682Y-74899502D01*
X168092677Y-74899506D01*
X167999506Y-74992677D01*
X167999502Y-74992682D01*
X167999493Y-74992696D01*
X167933610Y-75106806D01*
X167933609Y-75106808D01*
X167933608Y-75106812D01*
X167902481Y-75222982D01*
X167902480Y-75222986D01*
X167899500Y-75234105D01*
X167899500Y-75234108D01*
X167899500Y-75365892D01*
X167906425Y-75391736D01*
X167916554Y-75429539D01*
X167933608Y-75493188D01*
X167938207Y-75501152D01*
X167943139Y-75509694D01*
X167943141Y-75509701D01*
X167943143Y-75509701D01*
X167999500Y-75607314D01*
X167999502Y-75607316D01*
X168000573Y-75608387D01*
X168021723Y-75636639D01*
X168030328Y-75652398D01*
X168034201Y-75659491D01*
X168034331Y-75659728D01*
X168049500Y-75719157D01*
X168049500Y-75985626D01*
X168044476Y-76020563D01*
X168037064Y-76045804D01*
X168005769Y-76098548D01*
X166319534Y-77784782D01*
X166319528Y-77784789D01*
X166319526Y-77784791D01*
X166273389Y-77864703D01*
X166273387Y-77864708D01*
X166273382Y-77864725D01*
X166249500Y-77953856D01*
X166249500Y-78044299D01*
X166244475Y-78079240D01*
X166240564Y-78092557D01*
X166202787Y-78151333D01*
X166139242Y-78180353D01*
X166130829Y-78181563D01*
X166081083Y-78178601D01*
X165990008Y-78154198D01*
X165972475Y-78149500D01*
X165972474Y-78149500D01*
X163602329Y-78149500D01*
X163567388Y-78144475D01*
X163552389Y-78140070D01*
X163493643Y-78102327D01*
X163492456Y-78100958D01*
X163464976Y-78046083D01*
X163463331Y-78038521D01*
X163460499Y-78012168D01*
X163460499Y-76710027D01*
X163460499Y-76710025D01*
X163422983Y-76570015D01*
X163422982Y-76570013D01*
X163422981Y-76570012D01*
X163421811Y-76565643D01*
X163417638Y-76551108D01*
X163412879Y-76527180D01*
X163410499Y-76502998D01*
X163410499Y-76236738D01*
X163401868Y-76177501D01*
X163401520Y-76172707D01*
X163400572Y-76168608D01*
X163400035Y-76167510D01*
X163350876Y-76066952D01*
X163349433Y-76063753D01*
X163349195Y-76063514D01*
X163266484Y-75980803D01*
X163161390Y-75929426D01*
X163093260Y-75919500D01*
X163093259Y-75919500D01*
X163093254Y-75919500D01*
X162726743Y-75919500D01*
X162726739Y-75919500D01*
X162726738Y-75919500D01*
X162658606Y-75929426D01*
X162658605Y-75929426D01*
X162658601Y-75929427D01*
X162649401Y-75932270D01*
X162649304Y-75931958D01*
X162627809Y-75938889D01*
X162614131Y-75941224D01*
X162544736Y-75933101D01*
X162490748Y-75888751D01*
X162481732Y-75875500D01*
X162472648Y-75862150D01*
X162467779Y-75854393D01*
X162465367Y-75850216D01*
X162436664Y-75800500D01*
X162400510Y-75737878D01*
X161674920Y-75012288D01*
X161653771Y-74984038D01*
X161648349Y-74974108D01*
X161633496Y-74905838D01*
X161657910Y-74840373D01*
X161713840Y-74798501D01*
X161717719Y-74797054D01*
X161721055Y-74795811D01*
X161764369Y-74788000D01*
X165434972Y-74788000D01*
X165434974Y-74788000D01*
X165434975Y-74788000D01*
X165574985Y-74750484D01*
X165613724Y-74728118D01*
X165700515Y-74678010D01*
X166960510Y-73418015D01*
X166964426Y-73411230D01*
X167038555Y-73282837D01*
X167038939Y-73283059D01*
X167043611Y-73273785D01*
X167056127Y-73255052D01*
X167071541Y-73236270D01*
X167349714Y-72958098D01*
X167377964Y-72936950D01*
X167391688Y-72929456D01*
X167459946Y-72914605D01*
X167461756Y-72914734D01*
X167519953Y-72934100D01*
X167526471Y-72938289D01*
X167547106Y-72954919D01*
X168094105Y-73501918D01*
X168094126Y-73501940D01*
X168094127Y-73501940D01*
X168095159Y-73502972D01*
X168095169Y-73502983D01*
X168192687Y-73600501D01*
X168216951Y-73614509D01*
X168216953Y-73614511D01*
X168275594Y-73648367D01*
X168275595Y-73648368D01*
X168275596Y-73648368D01*
X168306814Y-73666392D01*
X168434107Y-73700500D01*
X168434108Y-73700500D01*
X170094684Y-73700500D01*
X170126773Y-73704724D01*
X170132878Y-73706359D01*
X170157240Y-73712887D01*
X170187140Y-73725271D01*
X170227335Y-73748478D01*
X170354629Y-73782586D01*
X170354631Y-73782586D01*
X170486411Y-73782586D01*
X170486413Y-73782586D01*
X170613707Y-73748478D01*
X170727835Y-73682586D01*
X170821021Y-73589400D01*
X170886913Y-73475272D01*
X170921021Y-73347978D01*
X170921021Y-73154629D01*
X170917567Y-73141740D01*
X170886913Y-73027335D01*
X170821021Y-72913207D01*
X170707314Y-72799500D01*
X170618644Y-72748306D01*
X170618644Y-72748305D01*
X170618642Y-72748305D01*
X170608894Y-72742677D01*
X170593187Y-72733608D01*
X170529539Y-72716554D01*
X170465892Y-72699500D01*
X170465891Y-72699500D01*
X168776505Y-72699500D01*
X168741569Y-72694477D01*
X168716327Y-72687065D01*
X168663582Y-72655769D01*
X167999426Y-71991612D01*
X167978274Y-71963356D01*
X167965667Y-71940267D01*
X167950500Y-71880842D01*
X167950500Y-71824996D01*
X172202703Y-71824996D01*
X172202704Y-71824999D01*
X172202705Y-71825000D01*
X173300000Y-71825000D01*
X173300000Y-71275000D01*
X172784344Y-71275000D01*
X172752772Y-71277484D01*
X172747510Y-71277899D01*
X172747504Y-71277900D01*
X172747497Y-71277901D01*
X172747493Y-71277902D01*
X172589833Y-71323707D01*
X172589802Y-71323717D01*
X172589799Y-71323718D01*
X172448452Y-71407310D01*
X172448447Y-71407313D01*
X172448436Y-71407322D01*
X172332321Y-71523437D01*
X172332312Y-71523449D01*
X172248719Y-71664799D01*
X172248718Y-71664801D01*
X172202899Y-71822513D01*
X172202899Y-71822514D01*
X172202898Y-71822519D01*
X172202703Y-71824996D01*
X167950500Y-71824996D01*
X167950500Y-70926505D01*
X167955522Y-70891572D01*
X167962934Y-70866327D01*
X167994228Y-70813585D01*
X168575213Y-70232600D01*
X168590616Y-70224189D01*
X168603459Y-70211454D01*
X168613391Y-70206031D01*
X168630813Y-70202240D01*
X168636534Y-70199117D01*
X168643034Y-70199581D01*
X168681661Y-70191178D01*
X168747126Y-70215592D01*
X168788999Y-70271524D01*
X168789001Y-70271528D01*
X168791682Y-70278716D01*
X168799500Y-70322050D01*
X168799500Y-70529269D01*
X168801986Y-70555794D01*
X168802107Y-70557699D01*
X168802053Y-70557936D01*
X168802353Y-70559699D01*
X168802353Y-70559701D01*
X168847206Y-70687880D01*
X168847207Y-70687882D01*
X168927850Y-70797150D01*
X169037118Y-70877793D01*
X169037636Y-70877974D01*
X169068954Y-70894252D01*
X169081659Y-70903365D01*
X169124662Y-70958431D01*
X169126243Y-70962419D01*
X169134516Y-71018606D01*
X169134225Y-71022027D01*
X169130446Y-71043609D01*
X169099500Y-71159104D01*
X169099500Y-71159106D01*
X169099500Y-71290891D01*
X169108296Y-71323718D01*
X169133608Y-71418188D01*
X169166554Y-71475250D01*
X169199500Y-71532314D01*
X169292686Y-71625500D01*
X169406814Y-71691392D01*
X169534108Y-71725500D01*
X169534110Y-71725500D01*
X169665890Y-71725500D01*
X169665892Y-71725500D01*
X169793186Y-71691392D01*
X169907314Y-71625500D01*
X169933392Y-71599421D01*
X169961640Y-71578275D01*
X169984732Y-71565667D01*
X170044157Y-71550500D01*
X171626598Y-71550500D01*
X171626600Y-71550500D01*
X171715744Y-71526614D01*
X171795668Y-71480470D01*
X172330469Y-70945669D01*
X172376614Y-70865744D01*
X172380966Y-70849501D01*
X172400500Y-70776600D01*
X172400500Y-69673400D01*
X172376614Y-69584256D01*
X172374640Y-69580837D01*
X172330470Y-69504332D01*
X171920668Y-69094530D01*
X171869780Y-69065149D01*
X171856301Y-69056143D01*
X171843504Y-69046323D01*
X171831317Y-69035635D01*
X171449426Y-68653744D01*
X171428274Y-68625488D01*
X171422952Y-68615741D01*
X171408101Y-68547467D01*
X171432519Y-68482003D01*
X171488454Y-68440133D01*
X171514123Y-68433580D01*
X171519173Y-68432854D01*
X171568917Y-68435816D01*
X171592478Y-68442130D01*
X171592481Y-68442130D01*
X171724260Y-68442130D01*
X171724262Y-68442130D01*
X171851556Y-68408022D01*
X171965684Y-68342130D01*
X172058870Y-68248944D01*
X172124762Y-68134816D01*
X172158870Y-68007522D01*
X172158870Y-67875738D01*
X172124762Y-67748444D01*
X172058870Y-67634316D01*
X171965684Y-67541130D01*
X171891414Y-67498250D01*
X171851557Y-67475238D01*
X171787909Y-67458184D01*
X171724262Y-67441130D01*
X171724261Y-67441130D01*
X171592481Y-67441130D01*
X171592478Y-67441130D01*
X171592476Y-67441130D01*
X171592471Y-67441131D01*
X171572105Y-67446588D01*
X171572103Y-67446588D01*
X171566678Y-67448042D01*
X171559707Y-67449910D01*
X171524659Y-67454099D01*
X171505848Y-67453650D01*
X171444269Y-67435566D01*
X171435377Y-67430146D01*
X171412234Y-67411946D01*
X171369426Y-67369138D01*
X171348274Y-67340882D01*
X171335667Y-67317793D01*
X171320500Y-67258368D01*
X171320500Y-67043174D01*
X171320500Y-67043172D01*
X171296614Y-66954028D01*
X171296611Y-66954022D01*
X171256744Y-66884972D01*
X171255565Y-66882351D01*
X171251456Y-66875701D01*
X171250550Y-66874185D01*
X171185212Y-66808847D01*
X170695896Y-66319530D01*
X170695895Y-66319529D01*
X170695888Y-66319524D01*
X170630109Y-66281547D01*
X170623580Y-66276537D01*
X170608365Y-66270234D01*
X170600208Y-66269161D01*
X170547528Y-66255046D01*
X170537932Y-66252475D01*
X170526830Y-66249500D01*
X170526828Y-66249500D01*
X170526827Y-66249500D01*
X168386294Y-66249500D01*
X168351353Y-66244475D01*
X168336354Y-66240070D01*
X168277608Y-66202327D01*
X168276421Y-66200958D01*
X168248941Y-66146083D01*
X168247296Y-66138521D01*
X168244464Y-66112168D01*
X168244464Y-62027515D01*
X168249486Y-61992582D01*
X168256898Y-61967337D01*
X168288192Y-61914595D01*
X168606079Y-61596709D01*
X168980470Y-61222318D01*
X169026614Y-61142394D01*
X169034835Y-61111711D01*
X169050500Y-61053250D01*
X169050500Y-60480999D01*
X169055523Y-60446063D01*
X169056142Y-60443957D01*
X169059927Y-60431064D01*
X169097696Y-60372293D01*
X169104398Y-60366485D01*
X169153513Y-60340418D01*
X169243186Y-60316392D01*
X169357314Y-60250500D01*
X169450500Y-60157314D01*
X169516392Y-60043186D01*
X169550500Y-59915892D01*
X169550500Y-59784108D01*
X169516392Y-59656814D01*
X169450500Y-59542686D01*
X169357314Y-59449500D01*
X169295170Y-59413621D01*
X169243187Y-59383608D01*
X169179539Y-59366554D01*
X169115892Y-59349500D01*
X169115891Y-59349500D01*
X168984106Y-59349500D01*
X168858619Y-59383123D01*
X168856902Y-59383555D01*
X168751935Y-59444158D01*
X168719179Y-59457272D01*
X168705696Y-59460544D01*
X168635905Y-59457225D01*
X168578989Y-59416702D01*
X168577983Y-59415423D01*
X168553685Y-59362212D01*
X168552737Y-59357291D01*
X168550500Y-59333845D01*
X168550500Y-57953858D01*
X168550500Y-57953856D01*
X168526614Y-57864712D01*
X168525906Y-57863485D01*
X168480478Y-57784800D01*
X168480467Y-57784785D01*
X168480463Y-57784780D01*
X167815221Y-57119538D01*
X167815214Y-57119532D01*
X167815208Y-57119527D01*
X167815203Y-57119523D01*
X167749425Y-57081547D01*
X167742896Y-57076537D01*
X167727682Y-57070235D01*
X167719520Y-57069161D01*
X167646144Y-57049500D01*
X167646143Y-57049500D01*
X165853856Y-57049500D01*
X165764725Y-57073382D01*
X165764708Y-57073387D01*
X165764698Y-57073392D01*
X165713259Y-57103090D01*
X165702541Y-57105689D01*
X165652748Y-57143942D01*
X165649699Y-57150836D01*
X165642704Y-57158439D01*
X165288447Y-57512694D01*
X165276789Y-57519059D01*
X165253571Y-57549265D01*
X165242940Y-57561376D01*
X164963141Y-57841175D01*
X164938940Y-57860013D01*
X164937503Y-57860869D01*
X164524567Y-58165554D01*
X164458935Y-58189517D01*
X164450930Y-58189775D01*
X163947120Y-58189716D01*
X163912189Y-58184689D01*
X163897188Y-58180283D01*
X163838417Y-58142502D01*
X163837209Y-58141107D01*
X163809783Y-58086286D01*
X163808140Y-58078730D01*
X163805309Y-58052383D01*
X163805309Y-57881314D01*
X163810331Y-57846381D01*
X163811860Y-57841175D01*
X163817743Y-57821136D01*
X163849039Y-57768392D01*
X163855309Y-57762123D01*
X163921201Y-57647995D01*
X163955309Y-57520701D01*
X163955309Y-57388917D01*
X163921201Y-57261623D01*
X163921196Y-57261615D01*
X163912372Y-57246330D01*
X163855309Y-57147495D01*
X163762123Y-57054309D01*
X163705059Y-57021363D01*
X163647996Y-56988417D01*
X163584348Y-56971363D01*
X163520701Y-56954309D01*
X163520700Y-56954309D01*
X163388917Y-56954309D01*
X163261617Y-56988418D01*
X163261615Y-56988419D01*
X163147505Y-57054302D01*
X163147491Y-57054311D01*
X163147486Y-57054315D01*
X163054315Y-57147486D01*
X163054311Y-57147491D01*
X163054302Y-57147505D01*
X162988419Y-57261615D01*
X162988418Y-57261617D01*
X162988417Y-57261621D01*
X162954309Y-57388917D01*
X162954309Y-57520700D01*
X162960300Y-57543060D01*
X162988417Y-57647997D01*
X163021363Y-57705059D01*
X163054309Y-57762123D01*
X163054311Y-57762125D01*
X163055382Y-57763196D01*
X163076532Y-57791448D01*
X163089140Y-57814537D01*
X163104309Y-57873966D01*
X163104309Y-58047773D01*
X163099284Y-58082717D01*
X163094879Y-58097715D01*
X163057126Y-58156467D01*
X163055759Y-58157652D01*
X163000898Y-58185122D01*
X162997430Y-58185876D01*
X162993334Y-58186767D01*
X162966962Y-58189601D01*
X162929598Y-58189596D01*
X162931956Y-58422772D01*
X162927898Y-58455513D01*
X162919745Y-58486568D01*
X162907197Y-58517080D01*
X162901102Y-58527635D01*
X162901103Y-58527636D01*
X162860609Y-58678762D01*
X162860609Y-58697130D01*
X162855586Y-58732067D01*
X162852247Y-58743438D01*
X162814471Y-58802215D01*
X162750915Y-58831239D01*
X162683274Y-58821975D01*
X162666324Y-58814507D01*
X162647429Y-58804135D01*
X162538097Y-58731081D01*
X162538089Y-58731076D01*
X162538084Y-58731073D01*
X162538075Y-58731068D01*
X162538072Y-58731067D01*
X162538064Y-58731062D01*
X162493020Y-58712405D01*
X162477503Y-58699900D01*
X162402353Y-58674851D01*
X162402354Y-58674851D01*
X162402351Y-58674850D01*
X162402347Y-58674849D01*
X162402343Y-58674848D01*
X162402341Y-58674847D01*
X162402317Y-58674842D01*
X162258271Y-58646190D01*
X162258268Y-58646190D01*
X162258264Y-58646190D01*
X162111354Y-58646190D01*
X162111349Y-58646190D01*
X162111344Y-58646190D01*
X161967280Y-58674846D01*
X161967274Y-58674848D01*
X161967264Y-58674851D01*
X161967259Y-58674852D01*
X161967241Y-58674859D01*
X161831552Y-58731062D01*
X161831525Y-58731077D01*
X161709382Y-58812692D01*
X161605511Y-58916563D01*
X161523896Y-59038706D01*
X161523881Y-59038733D01*
X161467678Y-59174422D01*
X161467665Y-59174461D01*
X161439009Y-59318525D01*
X161439009Y-59465452D01*
X161464068Y-59591430D01*
X161465743Y-59602392D01*
X161469487Y-59637285D01*
X161457067Y-59706042D01*
X161409456Y-59757163D01*
X161404948Y-59759837D01*
X161341687Y-59777188D01*
X159490992Y-59777188D01*
X159490992Y-64777188D01*
X162240992Y-64777188D01*
X162240992Y-60260819D01*
X162246015Y-60225883D01*
X162250419Y-60210885D01*
X162288190Y-60152111D01*
X162293743Y-60147299D01*
X162350740Y-60119395D01*
X162358390Y-60117873D01*
X162358406Y-60117874D01*
X162358406Y-60117870D01*
X162358407Y-60117870D01*
X162402351Y-60109130D01*
X162538078Y-60052910D01*
X162538084Y-60052906D01*
X162646814Y-59980254D01*
X162667203Y-59969237D01*
X162685241Y-59961572D01*
X162754638Y-59953473D01*
X162817398Y-59984179D01*
X162853161Y-60042348D01*
X162856040Y-60052656D01*
X162860609Y-60086005D01*
X162860609Y-60105218D01*
X162901103Y-60256343D01*
X162979331Y-60391837D01*
X163089962Y-60502468D01*
X163225456Y-60580696D01*
X163376581Y-60621190D01*
X163376584Y-60621190D01*
X163533034Y-60621190D01*
X163533036Y-60621190D01*
X163533037Y-60621190D01*
X163598708Y-60603593D01*
X163668557Y-60605254D01*
X163695502Y-60617585D01*
X163869553Y-60724045D01*
X163892531Y-60742144D01*
X165494537Y-62344150D01*
X165515687Y-62372402D01*
X165528295Y-62395491D01*
X165543464Y-62454920D01*
X165543464Y-65491662D01*
X165538440Y-65526599D01*
X165531028Y-65551840D01*
X165499733Y-65604584D01*
X165453744Y-65650573D01*
X165425493Y-65671722D01*
X165402405Y-65684330D01*
X165342975Y-65699500D01*
X165334108Y-65699500D01*
X165206808Y-65733609D01*
X165206806Y-65733610D01*
X165092696Y-65799493D01*
X165092682Y-65799502D01*
X165092677Y-65799506D01*
X164999506Y-65892677D01*
X164999502Y-65892682D01*
X164999493Y-65892696D01*
X164933610Y-66006806D01*
X164933609Y-66006808D01*
X164933608Y-66006812D01*
X164899500Y-66134108D01*
X164899500Y-66265891D01*
X164933608Y-66393187D01*
X164952451Y-66425823D01*
X164999500Y-66507314D01*
X165092686Y-66600500D01*
X165206814Y-66666392D01*
X165334108Y-66700500D01*
X165334110Y-66700500D01*
X165465890Y-66700500D01*
X165465892Y-66700500D01*
X165593186Y-66666392D01*
X165707314Y-66600500D01*
X165800500Y-66507314D01*
X165803160Y-66502705D01*
X165805086Y-66500869D01*
X165805820Y-66498311D01*
X165824976Y-66474961D01*
X165833171Y-66467147D01*
X165849004Y-66458985D01*
X165853722Y-66454487D01*
X165860128Y-66453251D01*
X165895271Y-66435136D01*
X165964824Y-66441780D01*
X166019718Y-66484936D01*
X166020076Y-66485440D01*
X166041372Y-66536824D01*
X166041745Y-66539041D01*
X166043464Y-66559614D01*
X166043464Y-66779530D01*
X166038440Y-66814470D01*
X166031028Y-66839709D01*
X166020914Y-66856755D01*
X166016784Y-66871155D01*
X166007579Y-66879231D01*
X166002729Y-66887406D01*
X166003387Y-66887945D01*
X165999853Y-66892255D01*
X165999743Y-66892441D01*
X165999509Y-66892674D01*
X165999500Y-66892685D01*
X165999493Y-66892696D01*
X165933610Y-67006806D01*
X165933609Y-67006807D01*
X165933608Y-67006812D01*
X165926112Y-67034788D01*
X165926112Y-67034789D01*
X165926111Y-67034788D01*
X165899500Y-67134106D01*
X165899500Y-67134108D01*
X165899500Y-67265892D01*
X165901835Y-67274607D01*
X165933608Y-67393187D01*
X165961407Y-67441336D01*
X165999500Y-67507314D01*
X166092686Y-67600500D01*
X166206814Y-67666392D01*
X166334108Y-67700500D01*
X166334110Y-67700500D01*
X166465890Y-67700500D01*
X166465892Y-67700500D01*
X166593186Y-67666392D01*
X166707314Y-67600500D01*
X166800500Y-67507314D01*
X166809197Y-67492248D01*
X166831019Y-67464500D01*
X166839203Y-67456697D01*
X166901306Y-67424682D01*
X166970859Y-67431326D01*
X167025755Y-67474483D01*
X167026112Y-67474984D01*
X167047407Y-67526361D01*
X167047780Y-67528577D01*
X167049500Y-67549159D01*
X167049500Y-68178731D01*
X167044476Y-68213671D01*
X167037064Y-68238910D01*
X167009184Y-68285900D01*
X167010000Y-68286569D01*
X167006113Y-68291309D01*
X167006106Y-68291320D01*
X166940223Y-68405430D01*
X166940222Y-68405432D01*
X166932680Y-68433579D01*
X166906113Y-68532732D01*
X166906113Y-68664515D01*
X166940221Y-68791811D01*
X166941279Y-68793644D01*
X166941286Y-68793670D01*
X166941293Y-68793667D01*
X167006113Y-68905938D01*
X167099299Y-68999124D01*
X167172492Y-69041382D01*
X167206623Y-69061088D01*
X167206625Y-69061089D01*
X167206624Y-69061089D01*
X167210785Y-69063490D01*
X167213427Y-69065016D01*
X167213429Y-69065016D01*
X167213430Y-69065017D01*
X167234304Y-69070610D01*
X167340721Y-69099124D01*
X167340723Y-69099124D01*
X167472503Y-69099124D01*
X167472505Y-69099124D01*
X167599799Y-69065016D01*
X167713927Y-68999124D01*
X167807113Y-68905938D01*
X167873005Y-68791810D01*
X167895026Y-68709622D01*
X167908917Y-68677183D01*
X167917055Y-68663832D01*
X167968754Y-68616836D01*
X167971010Y-68615741D01*
X167976734Y-68612961D01*
X168030909Y-68600500D01*
X168115890Y-68600500D01*
X168115892Y-68600500D01*
X168243186Y-68566392D01*
X168357314Y-68500500D01*
X168450500Y-68407314D01*
X168516392Y-68293186D01*
X168550500Y-68165892D01*
X168550500Y-68034108D01*
X168516392Y-67906814D01*
X168450500Y-67792686D01*
X168449426Y-67791612D01*
X168448811Y-67790485D01*
X168445553Y-67786240D01*
X168446215Y-67785731D01*
X168445677Y-67784747D01*
X168428274Y-67763356D01*
X168415667Y-67740267D01*
X168400500Y-67680842D01*
X168400500Y-67203858D01*
X168400500Y-67203856D01*
X168382806Y-67137821D01*
X168382981Y-67130469D01*
X168379291Y-67118980D01*
X168377891Y-67105954D01*
X168377892Y-67105954D01*
X168376222Y-67090419D01*
X168388631Y-67021663D01*
X168436239Y-66970531D01*
X168439120Y-66968822D01*
X168440765Y-66967847D01*
X168504019Y-66950500D01*
X168695557Y-66950500D01*
X168730489Y-66955521D01*
X168743808Y-66959432D01*
X168802586Y-66997206D01*
X168831610Y-67060753D01*
X168832162Y-67064590D01*
X168827926Y-67118766D01*
X168827632Y-67119720D01*
X168820532Y-67137663D01*
X168789708Y-67200711D01*
X168788761Y-67204803D01*
X168788413Y-67209602D01*
X168779500Y-67270785D01*
X168779500Y-67270789D01*
X168779500Y-67270790D01*
X168779500Y-67734213D01*
X168783746Y-67763356D01*
X168785654Y-67776453D01*
X168788414Y-67795397D01*
X168788769Y-67800310D01*
X168789659Y-67804077D01*
X168789710Y-67804296D01*
X168789907Y-67804694D01*
X168842546Y-67912369D01*
X168842548Y-67912372D01*
X168842550Y-67912375D01*
X168927020Y-67996845D01*
X168936903Y-68007995D01*
X168949483Y-68024035D01*
X168975366Y-68088934D01*
X168962057Y-68157515D01*
X168958730Y-68163949D01*
X168931044Y-68198707D01*
X168931256Y-68198919D01*
X168929387Y-68200787D01*
X168928734Y-68201608D01*
X168927641Y-68202533D01*
X168842550Y-68287623D01*
X168842546Y-68287629D01*
X168789929Y-68395259D01*
X168789711Y-68395698D01*
X168788769Y-68399688D01*
X168788414Y-68404602D01*
X168788019Y-68407313D01*
X168779500Y-68465785D01*
X168779500Y-68465789D01*
X168779500Y-68543494D01*
X168774476Y-68578431D01*
X168767064Y-68603672D01*
X168735769Y-68656416D01*
X168103412Y-69288772D01*
X168077736Y-69308475D01*
X168047345Y-69326023D01*
X168032788Y-69333202D01*
X168031809Y-69333607D01*
X167917694Y-69399493D01*
X167917680Y-69399502D01*
X167917675Y-69399506D01*
X167824504Y-69492677D01*
X167824501Y-69492681D01*
X167752754Y-69616947D01*
X167749241Y-69625429D01*
X167733473Y-69652737D01*
X167713770Y-69678413D01*
X167142686Y-70249499D01*
X167049502Y-70342682D01*
X167049501Y-70342683D01*
X167049493Y-70342696D01*
X166983610Y-70456806D01*
X166983609Y-70456808D01*
X166949500Y-70584108D01*
X166949500Y-71873493D01*
X166944476Y-71908430D01*
X166937064Y-71933671D01*
X166905769Y-71986415D01*
X166363730Y-72528453D01*
X166344945Y-72543871D01*
X166324942Y-72557238D01*
X166310890Y-72565351D01*
X166307525Y-72567010D01*
X166181986Y-72639488D01*
X166181979Y-72639493D01*
X165183401Y-73638073D01*
X165155150Y-73659222D01*
X165132062Y-73671830D01*
X165072632Y-73687000D01*
X161454830Y-73687000D01*
X161419889Y-73681975D01*
X161404890Y-73677570D01*
X161346144Y-73639827D01*
X161344957Y-73638458D01*
X161317477Y-73583583D01*
X161315832Y-73576021D01*
X161313000Y-73549668D01*
X161313000Y-70442848D01*
X161313266Y-70434734D01*
X161313797Y-70426637D01*
X161313884Y-70425748D01*
X161314120Y-70422153D01*
X161314120Y-69067380D01*
X161319142Y-69032447D01*
X161323053Y-69019128D01*
X161360826Y-68960351D01*
X161424378Y-68931326D01*
X161438004Y-68929367D01*
X161473524Y-68929400D01*
X161499452Y-68933178D01*
X161530359Y-68937682D01*
X161896881Y-68937682D01*
X161896882Y-68937682D01*
X161903229Y-68936757D01*
X161919591Y-68934373D01*
X161965013Y-68927755D01*
X162070103Y-68876380D01*
X162152818Y-68793665D01*
X162204193Y-68688575D01*
X162214120Y-68620442D01*
X162214120Y-68458342D01*
X162218345Y-68426250D01*
X162226508Y-68395784D01*
X162238892Y-68365882D01*
X162273197Y-68306466D01*
X162314120Y-68153739D01*
X162314120Y-67403164D01*
X162315179Y-67386992D01*
X162317285Y-67370995D01*
X162320449Y-67355093D01*
X162321728Y-67350323D01*
X162321728Y-67192208D01*
X162321728Y-66575712D01*
X162321729Y-66575661D01*
X162321729Y-66405206D01*
X162321729Y-66405204D01*
X162280805Y-66252476D01*
X162251867Y-66202356D01*
X162201748Y-66115545D01*
X162089944Y-66003741D01*
X162089943Y-66003740D01*
X162085613Y-65999410D01*
X162084591Y-65998388D01*
X162084548Y-65998346D01*
X161656658Y-65570456D01*
X161656638Y-65570434D01*
X161533455Y-65447251D01*
X161533448Y-65447245D01*
X161533444Y-65447242D01*
X161533442Y-65447240D01*
X161533441Y-65447239D01*
X161415979Y-65379424D01*
X161415979Y-65379423D01*
X161415976Y-65379422D01*
X161396515Y-65368186D01*
X161396504Y-65368182D01*
X161366556Y-65360158D01*
X161366556Y-65360157D01*
X161269730Y-65334213D01*
X161243787Y-65327262D01*
X161243786Y-65327262D01*
X161076173Y-65327262D01*
X161076110Y-65327263D01*
X160466346Y-65327263D01*
X160466283Y-65327262D01*
X160464379Y-65327262D01*
X160456783Y-65327262D01*
X160298669Y-65327262D01*
X160201844Y-65353205D01*
X160201844Y-65353206D01*
X160161709Y-65363960D01*
X160145095Y-65366147D01*
X160131803Y-65376347D01*
X160009011Y-65447241D01*
X160009009Y-65447242D01*
X160009005Y-65447246D01*
X160009000Y-65447250D01*
X160005676Y-65450575D01*
X159977424Y-65471725D01*
X159954339Y-65484331D01*
X159894910Y-65499500D01*
X156568275Y-65499500D01*
X156533334Y-65494475D01*
X156518335Y-65490070D01*
X156459589Y-65452327D01*
X156458402Y-65450958D01*
X156430922Y-65396083D01*
X156429277Y-65388521D01*
X156426445Y-65362168D01*
X156426445Y-61338719D01*
X156426551Y-61337999D01*
X156426450Y-61337642D01*
X156430669Y-61306629D01*
X156438832Y-61276160D01*
X156442568Y-61267142D01*
X156446331Y-61254724D01*
X156459577Y-61231784D01*
X156462110Y-61222328D01*
X156462115Y-61222319D01*
X156462113Y-61222319D01*
X156480476Y-61153790D01*
X156500501Y-61079057D01*
X156500501Y-61076374D01*
X156501141Y-61074193D01*
X156501212Y-61073653D01*
X156501999Y-61071055D01*
X156502060Y-61071063D01*
X156512935Y-61034025D01*
X156544229Y-60981283D01*
X163020075Y-54505436D01*
X163048326Y-54484288D01*
X163064842Y-54475269D01*
X163127217Y-54460138D01*
X163137634Y-54460386D01*
X163166772Y-54464575D01*
X163215158Y-54477541D01*
X163215160Y-54477541D01*
X163380868Y-54477541D01*
X163382772Y-54477541D01*
X163382835Y-54477540D01*
X166534340Y-54477540D01*
X166534403Y-54477541D01*
X166536307Y-54477541D01*
X166543903Y-54477541D01*
X166702014Y-54477541D01*
X166702017Y-54477541D01*
X166854745Y-54436617D01*
X166904864Y-54407679D01*
X166952539Y-54380153D01*
X166985295Y-54367040D01*
X167000490Y-54363354D01*
X167070278Y-54366679D01*
G37*
%TD.AperFunction*%
%TA.AperFunction,Conductor*%
G36*
X162623960Y-84011971D02*
G01*
X162672457Y-84051456D01*
X162675362Y-84055419D01*
X162689151Y-84079473D01*
X162767208Y-84259818D01*
X162770358Y-84267852D01*
X162773225Y-84275989D01*
X162775809Y-84284227D01*
X162778121Y-84292612D01*
X162778124Y-84292619D01*
X162784847Y-84304070D01*
X162788482Y-84310719D01*
X162791904Y-84317460D01*
X162795133Y-84324334D01*
X162800406Y-84336517D01*
X162805809Y-84343332D01*
X162810945Y-84350296D01*
X162815819Y-84357412D01*
X162820446Y-84364700D01*
X162934177Y-84558405D01*
X162938054Y-84565532D01*
X162941691Y-84572773D01*
X162945096Y-84580144D01*
X162949367Y-84590248D01*
X162949369Y-84590251D01*
X162953058Y-84594987D01*
X162953062Y-84594992D01*
X162956138Y-84598941D01*
X162960909Y-84605500D01*
X162965447Y-84612187D01*
X162969773Y-84619032D01*
X162975352Y-84628534D01*
X162975356Y-84628540D01*
X162983162Y-84636233D01*
X162988751Y-84642115D01*
X162994142Y-84648173D01*
X162999340Y-84654413D01*
X163132290Y-84825118D01*
X163136878Y-84831407D01*
X163141249Y-84837811D01*
X163145426Y-84844363D01*
X163147267Y-84847460D01*
X163151786Y-84855064D01*
X163158620Y-84861728D01*
X163164454Y-84867818D01*
X163170083Y-84874110D01*
X163175498Y-84880595D01*
X163181354Y-84888114D01*
X163181358Y-84888117D01*
X163191269Y-84895610D01*
X163197311Y-84900482D01*
X163203200Y-84905543D01*
X163208939Y-84910797D01*
X163222886Y-84924397D01*
X163245714Y-84946658D01*
X163362221Y-85060272D01*
X163363462Y-85062479D01*
X163367532Y-85065781D01*
X163371872Y-85070570D01*
X163387626Y-85092272D01*
X163389197Y-85095019D01*
X163389197Y-85095020D01*
X163398067Y-85110527D01*
X163400372Y-85114556D01*
X163416570Y-85182519D01*
X163416198Y-85189720D01*
X163396359Y-85250857D01*
X163320969Y-85366950D01*
X163320967Y-85366954D01*
X163319981Y-85368473D01*
X163299618Y-85419507D01*
X163299412Y-85420017D01*
X163294138Y-85426652D01*
X163280589Y-85475137D01*
X163243588Y-85534404D01*
X163227161Y-85549019D01*
X163218129Y-85556085D01*
X163216074Y-85557815D01*
X163211374Y-85562640D01*
X163204985Y-85568747D01*
X163203540Y-85570031D01*
X163203481Y-85570171D01*
X163196825Y-85577577D01*
X163158906Y-85616502D01*
X163047662Y-85787806D01*
X163027390Y-85838616D01*
X163021934Y-85845569D01*
X163006782Y-85899792D01*
X162969781Y-85959060D01*
X162960183Y-85966780D01*
X162949002Y-85974892D01*
X162943766Y-85977143D01*
X162938615Y-85982429D01*
X162938615Y-85982430D01*
X162931803Y-85989422D01*
X162931802Y-85989421D01*
X162886591Y-86035831D01*
X162859968Y-86076827D01*
X162856733Y-86079602D01*
X162836732Y-86103387D01*
X162826200Y-86112426D01*
X162809942Y-86119757D01*
X162806946Y-86122329D01*
X162803035Y-86122872D01*
X162762507Y-86141149D01*
X162693397Y-86130878D01*
X162693392Y-86130876D01*
X162686077Y-86127493D01*
X162644819Y-86096613D01*
X162636860Y-86087519D01*
X162626739Y-86075956D01*
X162623406Y-86071983D01*
X162620081Y-86067844D01*
X162616911Y-86063722D01*
X162596380Y-86035836D01*
X162596380Y-86035835D01*
X162582569Y-86017076D01*
X162579388Y-86012546D01*
X162576303Y-86007938D01*
X162573332Y-86003276D01*
X162557491Y-85977161D01*
X162557490Y-85977160D01*
X162557480Y-85977143D01*
X162556368Y-85975309D01*
X162552192Y-85967855D01*
X162548232Y-85960170D01*
X162544580Y-85952436D01*
X162540101Y-85942034D01*
X162504746Y-85859920D01*
X162500868Y-85849691D01*
X162497444Y-85839293D01*
X162494483Y-85828754D01*
X162484909Y-85787806D01*
X162469577Y-85722233D01*
X162467872Y-85713544D01*
X162466482Y-85704827D01*
X162465403Y-85696053D01*
X162448679Y-85503622D01*
X162448363Y-85498982D01*
X162448131Y-85494265D01*
X162447992Y-85489622D01*
X162447909Y-85482341D01*
X162445821Y-85298184D01*
X162445816Y-85297492D01*
X162445812Y-85296780D01*
X162445810Y-85296083D01*
X162445810Y-84133749D01*
X162450833Y-84098813D01*
X162453471Y-84089829D01*
X162491246Y-84031052D01*
X162554802Y-84002027D01*
X162623960Y-84011971D01*
G37*
%TD.AperFunction*%
%TA.AperFunction,Conductor*%
G36*
X164287908Y-81601780D02*
G01*
X164342831Y-81644969D01*
X164342835Y-81644974D01*
X164346824Y-81650576D01*
X164366219Y-81692854D01*
X164392724Y-81800498D01*
X164405585Y-81852724D01*
X164407678Y-81863120D01*
X164409319Y-81873560D01*
X164410316Y-81882340D01*
X164410416Y-81882675D01*
X164410852Y-81888850D01*
X164421592Y-81919978D01*
X164422324Y-81922419D01*
X164422475Y-81922928D01*
X164424075Y-81928353D01*
X164425544Y-81933783D01*
X164432805Y-81963273D01*
X164432807Y-81963277D01*
X164435111Y-81967462D01*
X164439811Y-81976937D01*
X164444108Y-81986617D01*
X164447983Y-81996463D01*
X164535154Y-82249097D01*
X164538019Y-82258623D01*
X164540496Y-82268243D01*
X164542592Y-82277991D01*
X164543971Y-82285951D01*
X164555348Y-82310539D01*
X164557833Y-82316284D01*
X164560173Y-82322094D01*
X164562367Y-82327968D01*
X164571210Y-82353594D01*
X164571212Y-82353597D01*
X164571213Y-82353599D01*
X164575735Y-82360294D01*
X164580964Y-82368749D01*
X164585849Y-82377406D01*
X164590392Y-82386273D01*
X164682280Y-82584857D01*
X164685629Y-82592809D01*
X164688690Y-82600849D01*
X164691470Y-82608989D01*
X164700262Y-82637986D01*
X164699276Y-82638284D01*
X164704224Y-82657323D01*
X164721830Y-82674929D01*
X164729376Y-82683188D01*
X164735402Y-82690413D01*
X164740691Y-82697223D01*
X164745732Y-82704201D01*
X164750528Y-82711350D01*
X164842721Y-82859660D01*
X164846042Y-82865332D01*
X164849214Y-82871095D01*
X164852270Y-82877018D01*
X164853020Y-82878573D01*
X164860030Y-82896571D01*
X164868764Y-82925472D01*
X164869317Y-82995331D01*
X164867168Y-83002871D01*
X164836739Y-83055409D01*
X164792823Y-83100489D01*
X164681579Y-83271794D01*
X164661307Y-83322604D01*
X164655851Y-83329557D01*
X164642185Y-83378461D01*
X164605183Y-83437729D01*
X164605178Y-83437733D01*
X164588730Y-83452365D01*
X164579379Y-83459700D01*
X164577673Y-83461138D01*
X164572982Y-83465954D01*
X164566588Y-83472065D01*
X164565138Y-83473354D01*
X164565079Y-83473493D01*
X164558418Y-83480904D01*
X164520508Y-83519819D01*
X164409260Y-83691129D01*
X164388979Y-83741960D01*
X164382894Y-83751181D01*
X164369867Y-83797796D01*
X164332865Y-83857063D01*
X164316422Y-83871692D01*
X164307157Y-83878953D01*
X164305356Y-83880471D01*
X164300660Y-83885292D01*
X164294269Y-83891400D01*
X164292802Y-83892705D01*
X164292735Y-83892861D01*
X164286122Y-83900215D01*
X164248186Y-83939157D01*
X164244382Y-83943919D01*
X164243966Y-83943586D01*
X164225944Y-83964181D01*
X164215414Y-83973217D01*
X164151720Y-84001936D01*
X164082610Y-83991660D01*
X164082605Y-83991658D01*
X164076742Y-83988946D01*
X164030792Y-83952366D01*
X164019989Y-83938428D01*
X164015292Y-83931946D01*
X164010790Y-83925288D01*
X164006519Y-83918510D01*
X163890449Y-83720352D01*
X163886698Y-83713457D01*
X163883172Y-83706456D01*
X163879866Y-83699341D01*
X163848009Y-83624675D01*
X163786449Y-83480391D01*
X163783681Y-83473306D01*
X163783239Y-83472065D01*
X163781133Y-83466144D01*
X163778815Y-83458939D01*
X163750209Y-83359626D01*
X163724909Y-83271794D01*
X163709940Y-83219826D01*
X163708110Y-83212681D01*
X163706494Y-83205487D01*
X163705091Y-83198236D01*
X163703091Y-83185946D01*
X163663447Y-82942316D01*
X163662498Y-82935174D01*
X163661755Y-82927983D01*
X163661221Y-82920761D01*
X163661025Y-82916375D01*
X163660685Y-82908744D01*
X163649375Y-82655470D01*
X163649265Y-82648240D01*
X163649366Y-82640989D01*
X163649675Y-82633808D01*
X163652936Y-82588771D01*
X163669239Y-82363552D01*
X163669766Y-82358016D01*
X163670430Y-82352394D01*
X163671209Y-82346879D01*
X163690450Y-82229849D01*
X163691148Y-82225991D01*
X163691910Y-82222127D01*
X163692727Y-82218305D01*
X163699197Y-82190197D01*
X163719337Y-82102693D01*
X163720305Y-82098779D01*
X163721395Y-82094672D01*
X163722486Y-82090820D01*
X163745622Y-82014087D01*
X163754051Y-81986125D01*
X163755407Y-81981898D01*
X163756874Y-81977602D01*
X163758349Y-81973521D01*
X163759601Y-81970242D01*
X163776753Y-81939397D01*
X163790205Y-81921713D01*
X163835129Y-81885054D01*
X163836266Y-81884506D01*
X163839245Y-81883073D01*
X163860909Y-81875039D01*
X163893186Y-81866392D01*
X164007314Y-81800500D01*
X164100500Y-81707314D01*
X164126255Y-81662704D01*
X164148065Y-81634967D01*
X164156257Y-81627156D01*
X164218355Y-81595141D01*
X164287908Y-81601780D01*
G37*
%TD.AperFunction*%
%TD*%
%TA.AperFunction,Conductor*%
%TO.N,GND*%
G36*
X166757675Y-81232424D02*
G01*
X166702787Y-81994417D01*
X166321124Y-81881107D01*
X166365058Y-82038795D01*
X166065058Y-82038795D01*
X166065058Y-81775041D01*
X166108992Y-81668975D01*
X166486784Y-81180145D01*
X166757675Y-81232424D01*
G37*
%TD.AperFunction*%
%TD*%
%TA.AperFunction,Conductor*%
%TO.N,Net-(J1-SWO)*%
G36*
X166379657Y-59980490D02*
G01*
X166384973Y-59987696D01*
X166385316Y-59990371D01*
X166392390Y-60584715D01*
X166389062Y-60593028D01*
X166388964Y-60593127D01*
X166188894Y-60793197D01*
X166180621Y-60796624D01*
X166172348Y-60793197D01*
X166172055Y-60792894D01*
X165975941Y-60582101D01*
X165687330Y-60271887D01*
X165684205Y-60263497D01*
X165684892Y-60259946D01*
X165726777Y-60144100D01*
X165732812Y-60137487D01*
X165734962Y-60136724D01*
X166370805Y-59979154D01*
X166379657Y-59980490D01*
G37*
%TD.AperFunction*%
%TD*%
%TA.AperFunction,Conductor*%
%TO.N,Net-(J1-~{RESET})*%
G36*
X165074735Y-58027371D02*
G01*
X165273546Y-58226182D01*
X165276973Y-58234455D01*
X165275534Y-58240076D01*
X165085126Y-58587676D01*
X165078146Y-58593285D01*
X165077114Y-58593537D01*
X164623027Y-58682462D01*
X164614249Y-58680689D01*
X164611764Y-58678439D01*
X164541517Y-58593537D01*
X164454304Y-58488130D01*
X164451671Y-58479573D01*
X164455860Y-58471659D01*
X164456335Y-58471286D01*
X165059515Y-58026228D01*
X165068207Y-58024075D01*
X165074735Y-58027371D01*
G37*
%TD.AperFunction*%
%TD*%
%TA.AperFunction,Conductor*%
%TO.N,Net-(J1-SWCLK)*%
G36*
X165082868Y-59880413D02*
G01*
X165090780Y-59883606D01*
X165091825Y-59884593D01*
X165094275Y-59887905D01*
X165345742Y-60395527D01*
X165380506Y-60465702D01*
X165381696Y-60470111D01*
X165381888Y-60472968D01*
X165380166Y-60479906D01*
X165380051Y-60480092D01*
X165378372Y-60482212D01*
X165180721Y-60679863D01*
X165176925Y-60682400D01*
X165174281Y-60683495D01*
X165167169Y-60684084D01*
X165166957Y-60684035D01*
X165164398Y-60683120D01*
X164758835Y-60482212D01*
X164585931Y-60396558D01*
X164582319Y-60393776D01*
X164580971Y-60392233D01*
X164578087Y-60384204D01*
X164578128Y-60382766D01*
X164578968Y-60378736D01*
X164718993Y-60030677D01*
X164721486Y-60026864D01*
X164724415Y-60023875D01*
X164728397Y-60021214D01*
X165076342Y-59881234D01*
X165080819Y-59880392D01*
X165082868Y-59880413D01*
G37*
%TD.AperFunction*%
%TD*%
%TA.AperFunction,Conductor*%
%TO.N,Net-(J1-SWDIO)*%
G36*
X163740300Y-59757612D02*
G01*
X164197650Y-60337723D01*
X164200081Y-60346342D01*
X164196735Y-60353240D01*
X163998472Y-60551503D01*
X163990199Y-60554930D01*
X163984094Y-60553211D01*
X163670454Y-60361370D01*
X163665267Y-60354451D01*
X163542607Y-59902094D01*
X163543749Y-59893212D01*
X163546833Y-59889706D01*
X163724049Y-59755527D01*
X163732714Y-59753266D01*
X163740300Y-59757612D01*
G37*
%TD.AperFunction*%
%TD*%
M02*
