%TF.GenerationSoftware,KiCad,Pcbnew,10.0.5*%
%TF.CreationDate,2026-08-28T18:36:34+02:00*%
%TF.ProjectId,Leucht-Ohrringe,4c657563-6874-42d4-9f68-7272696e6765,rev?*%
%TF.SameCoordinates,Original*%
%TF.FileFunction,Legend,Top*%
%TF.FilePolarity,Positive*%
%FSLAX46Y46*%
G04 Gerber Fmt 4.6, Leading zero omitted, Abs format (unit mm)*
G04 Created by KiCad (PCBNEW 10.0.5) date 2026-08-28 18:36:34*
%MOMM*%
%LPD*%
G01*
G04 APERTURE LIST*
G04 Aperture macros list*
%AMRoundRect*
0 Rectangle with rounded corners*
0 $1 Rounding radius*
0 $2 $3 $4 $5 $6 $7 $8 $9 X,Y pos of 4 corners*
0 Add a 4 corners polygon primitive as box body*
4,1,4,$2,$3,$4,$5,$6,$7,$8,$9,$2,$3,0*
0 Add four circle primitives for the rounded corners*
1,1,$1+$1,$2,$3*
1,1,$1+$1,$4,$5*
1,1,$1+$1,$6,$7*
1,1,$1+$1,$8,$9*
0 Add four rect primitives between the rounded corners*
20,1,$1+$1,$2,$3,$4,$5,0*
20,1,$1+$1,$4,$5,$6,$7,0*
20,1,$1+$1,$6,$7,$8,$9,0*
20,1,$1+$1,$8,$9,$2,$3,0*%
%AMHorizOval*
0 Thick line with rounded ends*
0 $1 width*
0 $2 $3 position (X,Y) of the first rounded end (center of the circle)*
0 $4 $5 position (X,Y) of the second rounded end (center of the circle)*
0 Add line between two ends*
20,1,$1,$2,$3,$4,$5,0*
0 Add two circle primitives to create the rounded ends*
1,1,$1,$2,$3*
1,1,$1,$4,$5*%
%AMRotRect*
0 Rectangle, with rotation*
0 The origin of the aperture is its center*
0 $1 length*
0 $2 width*
0 $3 Rotation angle, in degrees counterclockwise*
0 Add horizontal line*
21,1,$1,$2,0,0,$3*%
G04 Aperture macros list end*
%ADD10C,0.150000*%
%ADD11C,0.100000*%
%ADD12C,0.120000*%
%ADD13C,0.300000*%
%ADD14R,0.700000X0.700000*%
%ADD15RotRect,0.700000X0.700000X315.000000*%
%ADD16RoundRect,0.112500X0.007769X0.218523X-0.196470X-0.095979X-0.007769X-0.218523X0.196470X0.095979X0*%
%ADD17C,0.500000*%
%ADD18RoundRect,0.147500X0.147500X0.172500X-0.147500X0.172500X-0.147500X-0.172500X0.147500X-0.172500X0*%
%ADD19R,0.250000X0.675000*%
%ADD20R,0.675000X0.250000*%
%ADD21RoundRect,0.155000X0.155000X-0.212500X0.155000X0.212500X-0.155000X0.212500X-0.155000X-0.212500X0*%
%ADD22RoundRect,0.050000X0.050000X-0.350000X0.050000X0.350000X-0.050000X0.350000X-0.050000X-0.350000X0*%
%ADD23RoundRect,0.050000X0.350000X-0.050000X0.350000X0.050000X-0.350000X0.050000X-0.350000X-0.050000X0*%
%ADD24R,4.600000X4.600000*%
%ADD25RoundRect,0.140000X0.170000X-0.140000X0.170000X0.140000X-0.170000X0.140000X-0.170000X-0.140000X0*%
%ADD26RoundRect,0.200000X-0.121707X0.317510X-0.339562X-0.017958X0.121707X-0.317510X0.339562X0.017958X0*%
%ADD27R,1.660000X0.800000*%
%ADD28RotRect,0.700000X0.700000X123.000000*%
%ADD29RoundRect,0.137500X0.612500X0.137500X-0.612500X0.137500X-0.612500X-0.137500X0.612500X-0.137500X0*%
%ADD30RoundRect,0.150000X0.200000X-0.150000X0.200000X0.150000X-0.200000X0.150000X-0.200000X-0.150000X0*%
%ADD31RoundRect,0.112500X-0.007769X-0.218523X0.196470X0.095979X0.007769X0.218523X-0.196470X-0.095979X0*%
%ADD32RotRect,0.700000X0.700000X237.000000*%
%ADD33RoundRect,0.140000X0.140000X0.170000X-0.140000X0.170000X-0.140000X-0.170000X0.140000X-0.170000X0*%
%ADD34RoundRect,0.135000X-0.185000X0.135000X-0.185000X-0.135000X0.185000X-0.135000X0.185000X0.135000X0*%
%ADD35RotRect,0.700000X0.700000X45.000000*%
%ADD36RoundRect,0.155000X-0.155000X0.212500X-0.155000X-0.212500X0.155000X-0.212500X0.155000X0.212500X0*%
%ADD37C,0.990600*%
%ADD38C,0.650000*%
%ADD39HorizOval,1.000000X-0.335468X0.217856X0.335468X-0.217856X0*%
%ADD40HorizOval,1.000000X-0.461269X0.299551X0.461269X-0.299551X0*%
G04 APERTURE END LIST*
D10*
G36*
X164602476Y-86817077D02*
G01*
X164679154Y-86833262D01*
X164749452Y-86859623D01*
X164806530Y-86892144D01*
X164851510Y-86930297D01*
X164886025Y-86974257D01*
X164910991Y-87024772D01*
X164926539Y-87083098D01*
X164932000Y-87150907D01*
X164932000Y-87474968D01*
X164129222Y-87474968D01*
X164129222Y-87172742D01*
X164222669Y-87172742D01*
X164222669Y-87365694D01*
X164839090Y-87365694D01*
X164839090Y-87171667D01*
X164835914Y-87119050D01*
X164827610Y-87080955D01*
X164809277Y-87041627D01*
X164782299Y-87007213D01*
X164745642Y-86977103D01*
X164711964Y-86958434D01*
X164670852Y-86942806D01*
X164621030Y-86930648D01*
X164576385Y-86924403D01*
X164536863Y-86922442D01*
X164461055Y-86926778D01*
X164398555Y-86938799D01*
X164347205Y-86957346D01*
X164305175Y-86981744D01*
X164276443Y-87007285D01*
X164253868Y-87038149D01*
X164237133Y-87075151D01*
X164226476Y-87119504D01*
X164222669Y-87172742D01*
X164129222Y-87172742D01*
X164129222Y-87149783D01*
X164134299Y-87084165D01*
X164148828Y-87026917D01*
X164172237Y-86976624D01*
X164204615Y-86932195D01*
X164246703Y-86892937D01*
X164301371Y-86858359D01*
X164363890Y-86832996D01*
X164435637Y-86817094D01*
X164518301Y-86811507D01*
X164602476Y-86817077D01*
G37*
G36*
X164953297Y-86466245D02*
G01*
X164947730Y-86535721D01*
X164932454Y-86590601D01*
X164908830Y-86633848D01*
X164877094Y-86667648D01*
X164837413Y-86694739D01*
X164793784Y-86714168D01*
X164745467Y-86726099D01*
X164691518Y-86730223D01*
X164691518Y-86627494D01*
X164742210Y-86620499D01*
X164777817Y-86610690D01*
X164801916Y-86599064D01*
X164827823Y-86577364D01*
X164846868Y-86548386D01*
X164859184Y-86510392D01*
X164863709Y-86460774D01*
X164858705Y-86410599D01*
X164844668Y-86369735D01*
X164822188Y-86336210D01*
X164791835Y-86310092D01*
X164756648Y-86294546D01*
X164715063Y-86289169D01*
X164674919Y-86292778D01*
X164643915Y-86302631D01*
X164620038Y-86317896D01*
X164601930Y-86338653D01*
X164584988Y-86373152D01*
X164573816Y-86418072D01*
X164569690Y-86476112D01*
X164569983Y-86496043D01*
X164570764Y-86516510D01*
X164483863Y-86516510D01*
X164486061Y-86490865D01*
X164486598Y-86468443D01*
X164481840Y-86416213D01*
X164469110Y-86377731D01*
X164450927Y-86350587D01*
X164427460Y-86331537D01*
X164397726Y-86319668D01*
X164359836Y-86315401D01*
X164322911Y-86320281D01*
X164293454Y-86334094D01*
X164269662Y-86356971D01*
X164252124Y-86386008D01*
X164241575Y-86417969D01*
X164237959Y-86453691D01*
X164242669Y-86502073D01*
X164255565Y-86539365D01*
X164275719Y-86568077D01*
X164303514Y-86589783D01*
X164328503Y-86600812D01*
X164362038Y-86608939D01*
X164406291Y-86613279D01*
X164406291Y-86710537D01*
X164348878Y-86706342D01*
X164299793Y-86694463D01*
X164257645Y-86675561D01*
X164218923Y-86648424D01*
X164189059Y-86614862D01*
X164167176Y-86574044D01*
X164153293Y-86524459D01*
X164148322Y-86464047D01*
X164152176Y-86403592D01*
X164162889Y-86353703D01*
X164179519Y-86312598D01*
X164201616Y-86278813D01*
X164230513Y-86250670D01*
X164265027Y-86230399D01*
X164306297Y-86217713D01*
X164355977Y-86213209D01*
X164402648Y-86217863D01*
X164441052Y-86230970D01*
X164472921Y-86252044D01*
X164497479Y-86279181D01*
X164516640Y-86314326D01*
X164531735Y-86275588D01*
X164553404Y-86243793D01*
X164581951Y-86217899D01*
X164615720Y-86198969D01*
X164654742Y-86187268D01*
X164700262Y-86183168D01*
X164755134Y-86188046D01*
X164803034Y-86202071D01*
X164845280Y-86224901D01*
X164882809Y-86256978D01*
X164912422Y-86295674D01*
X164934340Y-86342305D01*
X164948302Y-86398476D01*
X164953297Y-86466245D01*
G37*
G36*
X159389222Y-65866894D02*
G01*
X159389222Y-65758108D01*
X160096354Y-65758108D01*
X160096354Y-65351541D01*
X160192000Y-65351541D01*
X160192000Y-65866894D01*
X159389222Y-65866894D01*
G37*
G36*
X159637861Y-65222874D02*
G01*
X159562439Y-65222874D01*
X159552532Y-65151237D01*
X159540586Y-65103838D01*
X159527757Y-65074277D01*
X159507504Y-65051191D01*
X159471379Y-65029965D01*
X159412718Y-65011409D01*
X159412718Y-64933788D01*
X160192000Y-64933788D01*
X160192000Y-65038715D01*
X159637861Y-65038715D01*
X159637861Y-65222874D01*
G37*
G36*
X168959222Y-68701835D02*
G01*
X169455426Y-68701835D01*
X169512976Y-68697826D01*
X169560880Y-68686619D01*
X169600799Y-68669057D01*
X169632081Y-68647105D01*
X169656022Y-68620524D01*
X169673411Y-68588767D01*
X169684349Y-68550785D01*
X169688238Y-68505122D01*
X169683812Y-68449433D01*
X169671570Y-68404617D01*
X169652497Y-68368561D01*
X169626754Y-68339690D01*
X169593667Y-68317103D01*
X169558370Y-68303065D01*
X169513066Y-68293762D01*
X169455426Y-68290334D01*
X168959222Y-68290334D01*
X168959222Y-68179937D01*
X169410046Y-68179937D01*
X169486630Y-68182980D01*
X169548673Y-68191305D01*
X169598431Y-68203863D01*
X169637924Y-68219846D01*
X169681501Y-68247210D01*
X169716782Y-68280853D01*
X169744649Y-68321305D01*
X169765372Y-68369635D01*
X169778582Y-68427364D01*
X169783297Y-68496378D01*
X169778578Y-68565387D01*
X169765361Y-68623061D01*
X169744634Y-68671297D01*
X169716769Y-68711628D01*
X169681495Y-68745126D01*
X169637924Y-68772323D01*
X169598431Y-68788306D01*
X169548673Y-68800865D01*
X169486630Y-68809189D01*
X169410046Y-68812233D01*
X168959222Y-68812233D01*
X168959222Y-68701835D01*
G37*
G36*
X169783297Y-67806245D02*
G01*
X169777730Y-67875721D01*
X169762454Y-67930601D01*
X169738830Y-67973848D01*
X169707094Y-68007648D01*
X169667413Y-68034739D01*
X169623784Y-68054168D01*
X169575467Y-68066099D01*
X169521518Y-68070223D01*
X169521518Y-67967494D01*
X169572210Y-67960499D01*
X169607817Y-67950690D01*
X169631916Y-67939064D01*
X169657823Y-67917364D01*
X169676868Y-67888386D01*
X169689184Y-67850392D01*
X169693709Y-67800774D01*
X169688705Y-67750599D01*
X169674668Y-67709735D01*
X169652188Y-67676210D01*
X169621835Y-67650092D01*
X169586648Y-67634546D01*
X169545063Y-67629169D01*
X169504919Y-67632778D01*
X169473915Y-67642631D01*
X169450038Y-67657896D01*
X169431930Y-67678653D01*
X169414988Y-67713152D01*
X169403816Y-67758072D01*
X169399690Y-67816112D01*
X169399983Y-67836043D01*
X169400764Y-67856510D01*
X169313863Y-67856510D01*
X169316061Y-67830865D01*
X169316598Y-67808443D01*
X169311840Y-67756213D01*
X169299110Y-67717731D01*
X169280927Y-67690587D01*
X169257460Y-67671537D01*
X169227726Y-67659668D01*
X169189836Y-67655401D01*
X169152911Y-67660281D01*
X169123454Y-67674094D01*
X169099662Y-67696971D01*
X169082124Y-67726008D01*
X169071575Y-67757969D01*
X169067959Y-67793691D01*
X169072669Y-67842073D01*
X169085565Y-67879365D01*
X169105719Y-67908077D01*
X169133514Y-67929783D01*
X169158503Y-67940812D01*
X169192038Y-67948939D01*
X169236291Y-67953279D01*
X169236291Y-68050537D01*
X169178878Y-68046342D01*
X169129793Y-68034463D01*
X169087645Y-68015561D01*
X169048923Y-67988424D01*
X169019059Y-67954862D01*
X168997176Y-67914044D01*
X168983293Y-67864459D01*
X168978322Y-67804047D01*
X168982176Y-67743592D01*
X168992889Y-67693703D01*
X169009519Y-67652598D01*
X169031616Y-67618813D01*
X169060513Y-67590670D01*
X169095027Y-67570399D01*
X169136297Y-67557713D01*
X169185977Y-67553209D01*
X169232648Y-67557863D01*
X169271052Y-67570970D01*
X169302921Y-67592044D01*
X169327479Y-67619181D01*
X169346640Y-67654326D01*
X169361735Y-67615588D01*
X169383404Y-67583793D01*
X169411951Y-67557899D01*
X169445720Y-67538969D01*
X169484742Y-67527268D01*
X169530262Y-67523168D01*
X169585134Y-67528046D01*
X169633034Y-67542071D01*
X169675280Y-67564901D01*
X169712809Y-67596978D01*
X169742422Y-67635674D01*
X169764340Y-67682305D01*
X169778302Y-67738476D01*
X169783297Y-67806245D01*
G37*
G36*
X157617338Y-75672692D02*
G01*
X157623004Y-75596521D01*
X157638876Y-75533114D01*
X157663855Y-75480214D01*
X157697694Y-75436070D01*
X157740589Y-75397621D01*
X157784938Y-75369868D01*
X157831231Y-75351695D01*
X157880192Y-75342574D01*
X157880192Y-75448624D01*
X157830964Y-75465111D01*
X157790440Y-75489044D01*
X157757240Y-75520480D01*
X157738330Y-75548340D01*
X157724184Y-75581997D01*
X157715113Y-75622601D01*
X157711860Y-75671569D01*
X157717333Y-75729345D01*
X157733079Y-75779619D01*
X157758818Y-75823885D01*
X157795244Y-75863153D01*
X157838339Y-75892877D01*
X157893367Y-75915650D01*
X157963055Y-75930608D01*
X158050722Y-75936084D01*
X158121373Y-75931505D01*
X158182064Y-75918542D01*
X158234329Y-75898013D01*
X158279431Y-75870236D01*
X158310456Y-75841912D01*
X158334547Y-75808922D01*
X158352158Y-75770615D01*
X158363213Y-75725991D01*
X158367115Y-75673767D01*
X158363157Y-75626448D01*
X158351842Y-75585464D01*
X158333569Y-75549676D01*
X158308143Y-75518240D01*
X158274791Y-75490683D01*
X158241041Y-75471340D01*
X158198920Y-75454612D01*
X158146905Y-75440955D01*
X158146905Y-75334953D01*
X158209022Y-75346500D01*
X158264567Y-75366061D01*
X158314486Y-75393457D01*
X158359494Y-75428938D01*
X158396150Y-75469179D01*
X158424643Y-75514280D01*
X158445374Y-75564924D01*
X158458264Y-75622072D01*
X158462760Y-75686907D01*
X158457185Y-75755743D01*
X158441071Y-75817012D01*
X158414806Y-75872051D01*
X158378057Y-75921869D01*
X158339770Y-75958170D01*
X158295075Y-75988476D01*
X158243148Y-76012906D01*
X158182908Y-76031231D01*
X158113057Y-76042892D01*
X158032111Y-76047019D01*
X157960500Y-76042894D01*
X157896494Y-76031035D01*
X157839091Y-76011995D01*
X157787431Y-75986019D01*
X157740827Y-75953034D01*
X157696658Y-75909631D01*
X157662601Y-75860820D01*
X157637956Y-75805860D01*
X157622670Y-75743629D01*
X157617338Y-75672692D01*
G37*
G36*
X157887861Y-75180934D02*
G01*
X157812439Y-75180934D01*
X157802532Y-75109296D01*
X157790586Y-75061898D01*
X157777757Y-75032337D01*
X157757504Y-75009251D01*
X157721379Y-74988024D01*
X157662718Y-74969468D01*
X157662718Y-74891848D01*
X158442000Y-74891848D01*
X158442000Y-74996775D01*
X157887861Y-74996775D01*
X157887861Y-75180934D01*
G37*
G36*
X158442000Y-74630948D02*
G01*
X158375385Y-74623503D01*
X158317105Y-74609381D01*
X158266047Y-74589133D01*
X158231923Y-74568467D01*
X158197994Y-74539014D01*
X158164023Y-74499263D01*
X158129955Y-74447326D01*
X158069285Y-74342399D01*
X158028207Y-74278094D01*
X157999334Y-74243481D01*
X157966974Y-74218193D01*
X157932707Y-74203575D01*
X157895482Y-74198687D01*
X157851666Y-74203576D01*
X157816137Y-74217345D01*
X157787038Y-74239671D01*
X157765139Y-74269219D01*
X157751626Y-74305051D01*
X157746836Y-74348945D01*
X157752152Y-74397912D01*
X157766862Y-74436079D01*
X157790290Y-74465934D01*
X157823381Y-74488847D01*
X157851529Y-74499844D01*
X157888701Y-74507800D01*
X157937052Y-74511806D01*
X157937052Y-74611799D01*
X157869637Y-74606369D01*
X157814817Y-74593432D01*
X157770381Y-74574088D01*
X157730310Y-74545392D01*
X157699276Y-74509757D01*
X157676449Y-74466245D01*
X157661921Y-74413202D01*
X157656710Y-74348408D01*
X157662011Y-74281080D01*
X157676581Y-74227621D01*
X157699130Y-74185262D01*
X157729397Y-74151939D01*
X157767550Y-74124311D01*
X157806866Y-74105137D01*
X157847844Y-74093736D01*
X157891134Y-74089901D01*
X157936842Y-74094115D01*
X157978300Y-74106439D01*
X158016405Y-74126872D01*
X158051797Y-74156042D01*
X158090320Y-74203166D01*
X158145782Y-74293209D01*
X158187352Y-74368094D01*
X158217675Y-74418139D01*
X158243625Y-74452260D01*
X158277703Y-74485169D01*
X158312684Y-74507657D01*
X158349090Y-74521087D01*
X158349090Y-74093760D01*
X158442000Y-74093760D01*
X158442000Y-74630948D01*
G37*
G36*
X166259222Y-66321835D02*
G01*
X166755426Y-66321835D01*
X166812976Y-66317826D01*
X166860880Y-66306619D01*
X166900799Y-66289057D01*
X166932081Y-66267105D01*
X166956022Y-66240524D01*
X166973411Y-66208767D01*
X166984349Y-66170785D01*
X166988238Y-66125122D01*
X166983812Y-66069433D01*
X166971570Y-66024617D01*
X166952497Y-65988561D01*
X166926754Y-65959690D01*
X166893667Y-65937103D01*
X166858370Y-65923065D01*
X166813066Y-65913762D01*
X166755426Y-65910334D01*
X166259222Y-65910334D01*
X166259222Y-65799937D01*
X166710046Y-65799937D01*
X166786630Y-65802980D01*
X166848673Y-65811305D01*
X166898431Y-65823863D01*
X166937924Y-65839846D01*
X166981501Y-65867210D01*
X167016782Y-65900853D01*
X167044649Y-65941305D01*
X167065372Y-65989635D01*
X167078582Y-66047364D01*
X167083297Y-66116378D01*
X167078578Y-66185387D01*
X167065361Y-66243061D01*
X167044634Y-66291297D01*
X167016769Y-66331628D01*
X166981495Y-66365126D01*
X166937924Y-66392323D01*
X166898431Y-66408306D01*
X166848673Y-66420865D01*
X166786630Y-66429189D01*
X166710046Y-66432233D01*
X166259222Y-66432233D01*
X166259222Y-66321835D01*
G37*
G36*
X166862551Y-65578750D02*
G01*
X166902783Y-65569671D01*
X166934606Y-65553662D01*
X166959692Y-65530913D01*
X166978908Y-65500593D01*
X166991039Y-65463754D01*
X166995321Y-65419699D01*
X166991416Y-65376591D01*
X166980533Y-65341660D01*
X166963318Y-65313242D01*
X166939585Y-65290202D01*
X166900737Y-65266642D01*
X166859875Y-65252761D01*
X166816096Y-65248094D01*
X166775583Y-65251545D01*
X166741721Y-65261267D01*
X166713256Y-65276756D01*
X166689285Y-65298115D01*
X166664441Y-65333571D01*
X166649588Y-65373119D01*
X166644491Y-65418039D01*
X166649673Y-65466402D01*
X166664177Y-65505233D01*
X166687484Y-65538727D01*
X166718789Y-65567271D01*
X166713905Y-65652512D01*
X166292537Y-65592916D01*
X166292537Y-65186350D01*
X166387645Y-65186350D01*
X166387645Y-65519155D01*
X166605119Y-65552519D01*
X166586446Y-65524998D01*
X166574002Y-65500593D01*
X166560670Y-65454684D01*
X166555928Y-65399476D01*
X166560432Y-65346757D01*
X166573520Y-65299398D01*
X166595011Y-65256387D01*
X166625342Y-65216978D01*
X166662466Y-65184149D01*
X166703558Y-65161024D01*
X166749449Y-65146953D01*
X166801344Y-65142093D01*
X166855719Y-65146470D01*
X166905940Y-65159316D01*
X166952816Y-65180573D01*
X166996982Y-65210676D01*
X167026069Y-65239634D01*
X167049229Y-65274790D01*
X167066577Y-65317166D01*
X167077699Y-65368169D01*
X167081685Y-65429518D01*
X167078218Y-65476644D01*
X167068064Y-65520145D01*
X167051346Y-65560655D01*
X167027854Y-65598681D01*
X166998301Y-65630574D01*
X166961840Y-65654879D01*
X166917207Y-65671860D01*
X166862551Y-65680942D01*
X166862551Y-65578750D01*
G37*
G36*
X157517338Y-70881625D02*
G01*
X157523004Y-70805454D01*
X157538876Y-70742047D01*
X157563855Y-70689147D01*
X157597694Y-70645003D01*
X157640589Y-70606554D01*
X157684938Y-70578801D01*
X157731231Y-70560628D01*
X157780192Y-70551507D01*
X157780192Y-70657557D01*
X157730964Y-70674044D01*
X157690440Y-70697977D01*
X157657240Y-70729413D01*
X157638330Y-70757273D01*
X157624184Y-70790930D01*
X157615113Y-70831534D01*
X157611860Y-70880502D01*
X157617333Y-70938278D01*
X157633079Y-70988552D01*
X157658818Y-71032818D01*
X157695244Y-71072086D01*
X157738339Y-71101810D01*
X157793367Y-71124583D01*
X157863055Y-71139541D01*
X157950722Y-71145017D01*
X158021373Y-71140438D01*
X158082064Y-71127475D01*
X158134329Y-71106946D01*
X158179431Y-71079169D01*
X158210456Y-71050845D01*
X158234547Y-71017855D01*
X158252158Y-70979548D01*
X158263213Y-70934924D01*
X158267115Y-70882700D01*
X158263157Y-70835381D01*
X158251842Y-70794397D01*
X158233569Y-70758609D01*
X158208143Y-70727173D01*
X158174791Y-70699616D01*
X158141041Y-70680273D01*
X158098920Y-70663545D01*
X158046905Y-70649888D01*
X158046905Y-70543886D01*
X158109022Y-70555433D01*
X158164567Y-70574994D01*
X158214486Y-70602390D01*
X158259494Y-70637871D01*
X158296150Y-70678112D01*
X158324643Y-70723213D01*
X158345374Y-70773857D01*
X158358264Y-70831005D01*
X158362760Y-70895840D01*
X158357185Y-70964676D01*
X158341071Y-71025945D01*
X158314806Y-71080984D01*
X158278057Y-71130802D01*
X158239770Y-71167103D01*
X158195075Y-71197409D01*
X158143148Y-71221839D01*
X158082908Y-71240164D01*
X158013057Y-71251825D01*
X157932111Y-71255952D01*
X157860500Y-71251827D01*
X157796494Y-71239968D01*
X157739091Y-71220928D01*
X157687431Y-71194952D01*
X157640827Y-71161967D01*
X157596658Y-71118564D01*
X157562601Y-71069753D01*
X157537956Y-71014793D01*
X157522670Y-70952562D01*
X157517338Y-70881625D01*
G37*
G36*
X157787861Y-70389867D02*
G01*
X157712439Y-70389867D01*
X157702532Y-70318229D01*
X157690586Y-70270831D01*
X157677757Y-70241270D01*
X157657504Y-70218184D01*
X157621379Y-70196957D01*
X157562718Y-70178401D01*
X157562718Y-70100781D01*
X158342000Y-70100781D01*
X158342000Y-70205708D01*
X157787861Y-70205708D01*
X157787861Y-70389867D01*
G37*
G36*
X164307338Y-65691625D02*
G01*
X164313004Y-65615454D01*
X164328876Y-65552047D01*
X164353855Y-65499147D01*
X164387694Y-65455003D01*
X164430589Y-65416554D01*
X164474938Y-65388801D01*
X164521231Y-65370628D01*
X164570192Y-65361507D01*
X164570192Y-65467557D01*
X164520964Y-65484044D01*
X164480440Y-65507977D01*
X164447240Y-65539413D01*
X164428330Y-65567273D01*
X164414184Y-65600930D01*
X164405113Y-65641534D01*
X164401860Y-65690502D01*
X164407333Y-65748278D01*
X164423079Y-65798552D01*
X164448818Y-65842818D01*
X164485244Y-65882086D01*
X164528339Y-65911810D01*
X164583367Y-65934583D01*
X164653055Y-65949541D01*
X164740722Y-65955017D01*
X164811373Y-65950438D01*
X164872064Y-65937475D01*
X164924329Y-65916946D01*
X164969431Y-65889169D01*
X165000456Y-65860845D01*
X165024547Y-65827855D01*
X165042158Y-65789548D01*
X165053213Y-65744924D01*
X165057115Y-65692700D01*
X165053157Y-65645381D01*
X165041842Y-65604397D01*
X165023569Y-65568609D01*
X164998143Y-65537173D01*
X164964791Y-65509616D01*
X164931041Y-65490273D01*
X164888920Y-65473545D01*
X164836905Y-65459888D01*
X164836905Y-65353886D01*
X164899022Y-65365433D01*
X164954567Y-65384994D01*
X165004486Y-65412390D01*
X165049494Y-65447871D01*
X165086150Y-65488112D01*
X165114643Y-65533213D01*
X165135374Y-65583857D01*
X165148264Y-65641005D01*
X165152760Y-65705840D01*
X165147185Y-65774676D01*
X165131071Y-65835945D01*
X165104806Y-65890984D01*
X165068057Y-65940802D01*
X165029770Y-65977103D01*
X164985075Y-66007409D01*
X164933148Y-66031839D01*
X164872908Y-66050164D01*
X164803057Y-66061825D01*
X164722111Y-66065952D01*
X164650500Y-66061827D01*
X164586494Y-66049968D01*
X164529091Y-66030928D01*
X164477431Y-66004952D01*
X164430827Y-65971967D01*
X164386658Y-65928564D01*
X164352601Y-65879753D01*
X164327956Y-65824793D01*
X164312670Y-65762562D01*
X164307338Y-65691625D01*
G37*
G36*
X164940709Y-64837020D02*
G01*
X165132000Y-64837020D01*
X165132000Y-64935352D01*
X164940709Y-64935352D01*
X164940709Y-65278562D01*
X164844526Y-65278562D01*
X164370760Y-64937013D01*
X164500241Y-64937013D01*
X164854930Y-65187850D01*
X164854930Y-64937013D01*
X164500241Y-64937013D01*
X164370760Y-64937013D01*
X164347247Y-64920062D01*
X164347247Y-64837020D01*
X164854930Y-64837020D01*
X164854930Y-64721688D01*
X164940709Y-64721688D01*
X164940709Y-64837020D01*
G37*
G36*
X168012000Y-89613384D02*
G01*
X167985230Y-89622128D01*
X167921825Y-89627599D01*
X167787931Y-89634145D01*
X167749475Y-89639860D01*
X167720334Y-89651762D01*
X167698415Y-89669209D01*
X167682467Y-89692616D01*
X167672076Y-89728448D01*
X167667715Y-89790460D01*
X167667715Y-90038025D01*
X168012000Y-90038025D01*
X168012000Y-90146761D01*
X167209222Y-90146761D01*
X167209222Y-89775170D01*
X167209372Y-89772435D01*
X167302669Y-89772435D01*
X167302669Y-90038025D01*
X167577003Y-90038025D01*
X167577003Y-89786650D01*
X167573156Y-89736380D01*
X167562627Y-89696746D01*
X167546424Y-89665603D01*
X167529391Y-89647188D01*
X167506414Y-89633413D01*
X167475984Y-89624390D01*
X167435977Y-89621053D01*
X167394220Y-89625457D01*
X167362153Y-89637548D01*
X167337519Y-89656623D01*
X167319034Y-89683335D01*
X167307209Y-89719928D01*
X167302669Y-89772435D01*
X167209372Y-89772435D01*
X167212572Y-89714241D01*
X167221814Y-89664387D01*
X167235991Y-89623789D01*
X167260120Y-89582909D01*
X167290212Y-89551988D01*
X167326820Y-89529682D01*
X167371293Y-89515661D01*
X167425621Y-89510655D01*
X167472931Y-89514309D01*
X167511761Y-89524489D01*
X167543688Y-89540453D01*
X167571896Y-89562582D01*
X167596430Y-89590139D01*
X167617450Y-89623789D01*
X167640397Y-89581438D01*
X167667715Y-89553007D01*
X167689921Y-89540622D01*
X167722490Y-89531367D01*
X167768831Y-89526482D01*
X167876445Y-89522672D01*
X167919397Y-89519609D01*
X167944784Y-89515003D01*
X167968661Y-89506012D01*
X167984402Y-89494322D01*
X167993974Y-89480027D01*
X168012000Y-89480027D01*
X168012000Y-89613384D01*
G37*
G36*
X167457861Y-89329867D02*
G01*
X167382439Y-89329867D01*
X167372532Y-89258229D01*
X167360586Y-89210831D01*
X167347757Y-89181270D01*
X167327504Y-89158184D01*
X167291379Y-89136957D01*
X167232718Y-89118401D01*
X167232718Y-89040781D01*
X168012000Y-89040781D01*
X168012000Y-89145708D01*
X167457861Y-89145708D01*
X167457861Y-89329867D01*
G37*
D11*
G36*
X159612000Y-63453739D02*
G01*
X159371518Y-63535170D01*
X159371518Y-63852685D01*
X159612000Y-63939587D01*
X159612000Y-64051059D01*
X158809222Y-63748882D01*
X158809222Y-63692022D01*
X158928315Y-63692022D01*
X159283004Y-63821569D01*
X159283004Y-63570145D01*
X158928315Y-63692022D01*
X158809222Y-63692022D01*
X158809222Y-63625881D01*
X159612000Y-63334646D01*
X159612000Y-63453739D01*
G37*
G36*
X159612000Y-63225421D02*
G01*
X158809222Y-63225421D01*
X158809222Y-62640117D01*
X158907554Y-62640117D01*
X158907554Y-63119419D01*
X159151309Y-63119419D01*
X159151309Y-62676216D01*
X159244219Y-62676216D01*
X159244219Y-63119419D01*
X159516354Y-63119419D01*
X159516354Y-62631960D01*
X159612000Y-62631960D01*
X159612000Y-63225421D01*
G37*
G36*
X159057861Y-62467535D02*
G01*
X158982439Y-62467535D01*
X158972532Y-62395898D01*
X158960586Y-62348499D01*
X158947757Y-62318938D01*
X158927504Y-62295852D01*
X158891379Y-62274626D01*
X158832718Y-62256070D01*
X158832718Y-62178449D01*
X159612000Y-62178449D01*
X159612000Y-62283376D01*
X159057861Y-62283376D01*
X159057861Y-62467535D01*
G37*
D10*
G36*
X169487338Y-76811625D02*
G01*
X169493004Y-76735454D01*
X169508876Y-76672047D01*
X169533855Y-76619147D01*
X169567694Y-76575003D01*
X169610589Y-76536554D01*
X169654938Y-76508801D01*
X169701231Y-76490628D01*
X169750192Y-76481507D01*
X169750192Y-76587557D01*
X169700964Y-76604044D01*
X169660440Y-76627977D01*
X169627240Y-76659413D01*
X169608330Y-76687273D01*
X169594184Y-76720930D01*
X169585113Y-76761534D01*
X169581860Y-76810502D01*
X169587333Y-76868278D01*
X169603079Y-76918552D01*
X169628818Y-76962818D01*
X169665244Y-77002086D01*
X169708339Y-77031810D01*
X169763367Y-77054583D01*
X169833055Y-77069541D01*
X169920722Y-77075017D01*
X169991373Y-77070438D01*
X170052064Y-77057475D01*
X170104329Y-77036946D01*
X170149431Y-77009169D01*
X170180456Y-76980845D01*
X170204547Y-76947855D01*
X170222158Y-76909548D01*
X170233213Y-76864924D01*
X170237115Y-76812700D01*
X170233157Y-76765381D01*
X170221842Y-76724397D01*
X170203569Y-76688609D01*
X170178143Y-76657173D01*
X170144791Y-76629616D01*
X170111041Y-76610273D01*
X170068920Y-76593545D01*
X170016905Y-76579888D01*
X170016905Y-76473886D01*
X170079022Y-76485433D01*
X170134567Y-76504994D01*
X170184486Y-76532390D01*
X170229494Y-76567871D01*
X170266150Y-76608112D01*
X170294643Y-76653213D01*
X170315374Y-76703857D01*
X170328264Y-76761005D01*
X170332760Y-76825840D01*
X170327185Y-76894676D01*
X170311071Y-76955945D01*
X170284806Y-77010984D01*
X170248057Y-77060802D01*
X170209770Y-77097103D01*
X170165075Y-77127409D01*
X170113148Y-77151839D01*
X170052908Y-77170164D01*
X169983057Y-77181825D01*
X169902111Y-77185952D01*
X169830500Y-77181827D01*
X169766494Y-77169968D01*
X169709091Y-77150928D01*
X169657431Y-77124952D01*
X169610827Y-77091967D01*
X169566658Y-77048564D01*
X169532601Y-76999753D01*
X169507956Y-76944793D01*
X169492670Y-76882562D01*
X169487338Y-76811625D01*
G37*
G36*
X169542537Y-75841688D02*
G01*
X169628315Y-75841688D01*
X169672725Y-75881053D01*
X169755663Y-75941974D01*
X169849381Y-76000624D01*
X169951302Y-76052665D01*
X170052072Y-76095645D01*
X170137659Y-76124766D01*
X170312000Y-76165750D01*
X170312000Y-76274535D01*
X170202315Y-76250934D01*
X170091720Y-76216139D01*
X169979772Y-76169589D01*
X169866061Y-76110551D01*
X169780816Y-76058180D01*
X169706252Y-76005705D01*
X169641455Y-75953161D01*
X169641455Y-76386008D01*
X169542537Y-76386008D01*
X169542537Y-75841688D01*
G37*
G36*
X163979222Y-79671835D02*
G01*
X164475426Y-79671835D01*
X164532976Y-79667826D01*
X164580880Y-79656619D01*
X164620799Y-79639057D01*
X164652081Y-79617105D01*
X164676022Y-79590524D01*
X164693411Y-79558767D01*
X164704349Y-79520785D01*
X164708238Y-79475122D01*
X164703812Y-79419433D01*
X164691570Y-79374617D01*
X164672497Y-79338561D01*
X164646754Y-79309690D01*
X164613667Y-79287103D01*
X164578370Y-79273065D01*
X164533066Y-79263762D01*
X164475426Y-79260334D01*
X163979222Y-79260334D01*
X163979222Y-79149937D01*
X164430046Y-79149937D01*
X164506630Y-79152980D01*
X164568673Y-79161305D01*
X164618431Y-79173863D01*
X164657924Y-79189846D01*
X164701501Y-79217210D01*
X164736782Y-79250853D01*
X164764649Y-79291305D01*
X164785372Y-79339635D01*
X164798582Y-79397364D01*
X164803297Y-79466378D01*
X164798578Y-79535387D01*
X164785361Y-79593061D01*
X164764634Y-79641297D01*
X164736769Y-79681628D01*
X164701495Y-79715126D01*
X164657924Y-79742323D01*
X164618431Y-79758306D01*
X164568673Y-79770865D01*
X164506630Y-79779189D01*
X164430046Y-79782233D01*
X163979222Y-79782233D01*
X163979222Y-79671835D01*
G37*
G36*
X164590709Y-78597020D02*
G01*
X164782000Y-78597020D01*
X164782000Y-78695352D01*
X164590709Y-78695352D01*
X164590709Y-79038562D01*
X164494526Y-79038562D01*
X164020760Y-78697013D01*
X164150241Y-78697013D01*
X164504930Y-78947850D01*
X164504930Y-78697013D01*
X164150241Y-78697013D01*
X164020760Y-78697013D01*
X163997247Y-78680062D01*
X163997247Y-78597020D01*
X164504930Y-78597020D01*
X164504930Y-78481688D01*
X164590709Y-78481688D01*
X164590709Y-78597020D01*
G37*
G36*
X168072476Y-77408144D02*
G01*
X168149154Y-77424329D01*
X168219452Y-77450690D01*
X168276530Y-77483211D01*
X168321510Y-77521364D01*
X168356025Y-77565324D01*
X168380991Y-77615839D01*
X168396539Y-77674165D01*
X168402000Y-77741974D01*
X168402000Y-78066035D01*
X167599222Y-78066035D01*
X167599222Y-77763809D01*
X167692669Y-77763809D01*
X167692669Y-77956761D01*
X168309090Y-77956761D01*
X168309090Y-77762734D01*
X168305914Y-77710117D01*
X168297610Y-77672022D01*
X168279277Y-77632694D01*
X168252299Y-77598280D01*
X168215642Y-77568170D01*
X168181964Y-77549501D01*
X168140852Y-77533873D01*
X168091030Y-77521715D01*
X168046385Y-77515470D01*
X168006863Y-77513509D01*
X167931055Y-77517845D01*
X167868555Y-77529866D01*
X167817205Y-77548413D01*
X167775175Y-77572811D01*
X167746443Y-77598352D01*
X167723868Y-77629216D01*
X167707133Y-77666218D01*
X167696476Y-77710571D01*
X167692669Y-77763809D01*
X167599222Y-77763809D01*
X167599222Y-77740850D01*
X167604299Y-77675232D01*
X167618828Y-77617984D01*
X167642237Y-77567691D01*
X167674615Y-77523262D01*
X167716703Y-77484004D01*
X167771371Y-77449426D01*
X167833890Y-77424063D01*
X167905637Y-77408161D01*
X167988301Y-77402574D01*
X168072476Y-77408144D01*
G37*
G36*
X168402000Y-77313083D02*
G01*
X168335385Y-77305638D01*
X168277105Y-77291517D01*
X168226047Y-77271269D01*
X168191923Y-77250602D01*
X168157994Y-77221149D01*
X168124023Y-77181398D01*
X168089955Y-77129461D01*
X168029285Y-77024535D01*
X167988207Y-76960229D01*
X167959334Y-76925616D01*
X167926974Y-76900329D01*
X167892707Y-76885711D01*
X167855482Y-76880822D01*
X167811666Y-76885711D01*
X167776137Y-76899480D01*
X167747038Y-76921806D01*
X167725139Y-76951354D01*
X167711626Y-76987186D01*
X167706836Y-77031080D01*
X167712152Y-77080047D01*
X167726862Y-77118214D01*
X167750290Y-77148069D01*
X167783381Y-77170983D01*
X167811529Y-77181979D01*
X167848701Y-77189935D01*
X167897052Y-77193942D01*
X167897052Y-77293935D01*
X167829637Y-77288504D01*
X167774817Y-77275568D01*
X167730381Y-77256223D01*
X167690310Y-77227527D01*
X167659276Y-77191893D01*
X167636449Y-77148381D01*
X167621921Y-77095338D01*
X167616710Y-77030543D01*
X167622011Y-76963216D01*
X167636581Y-76909756D01*
X167659130Y-76867398D01*
X167689397Y-76834074D01*
X167727550Y-76806446D01*
X167766866Y-76787272D01*
X167807844Y-76775872D01*
X167851134Y-76772036D01*
X167896842Y-76776251D01*
X167938300Y-76788575D01*
X167976405Y-76809007D01*
X168011797Y-76838177D01*
X168050320Y-76885301D01*
X168105782Y-76975344D01*
X168147352Y-77050229D01*
X168177675Y-77100274D01*
X168203625Y-77134395D01*
X168237703Y-77167304D01*
X168272684Y-77189792D01*
X168309090Y-77203223D01*
X168309090Y-76775895D01*
X168402000Y-76775895D01*
X168402000Y-77313083D01*
G37*
G36*
X168079570Y-76162152D02*
G01*
X168163998Y-76176811D01*
X168239138Y-76200215D01*
X168299162Y-76228908D01*
X168345232Y-76261972D01*
X168379632Y-76299234D01*
X168403905Y-76341095D01*
X168418734Y-76388500D01*
X168423884Y-76442846D01*
X168419582Y-76500281D01*
X168407621Y-76547277D01*
X168388932Y-76585753D01*
X168363751Y-76617186D01*
X168331902Y-76643153D01*
X168296649Y-76661578D01*
X168257302Y-76672839D01*
X168212907Y-76676733D01*
X168212907Y-76577277D01*
X168252522Y-76571153D01*
X168283368Y-76558454D01*
X168307322Y-76539702D01*
X168325503Y-76514409D01*
X168337677Y-76482858D01*
X168341867Y-76446656D01*
X168338235Y-76412878D01*
X168327525Y-76382052D01*
X168309478Y-76353403D01*
X168283151Y-76326440D01*
X168253318Y-76306928D01*
X168207307Y-76288058D01*
X168139797Y-76270653D01*
X168044575Y-76255951D01*
X168076558Y-76280265D01*
X168100550Y-76307219D01*
X168117554Y-76337089D01*
X168133274Y-76386943D01*
X168138608Y-76441185D01*
X168133827Y-76496904D01*
X168120244Y-76544357D01*
X168098419Y-76585076D01*
X168068120Y-76620166D01*
X168031046Y-76648532D01*
X167989110Y-76668955D01*
X167941385Y-76681600D01*
X167886647Y-76686014D01*
X167834379Y-76681852D01*
X167786210Y-76669652D01*
X167741358Y-76649494D01*
X167699215Y-76620997D01*
X167664640Y-76585701D01*
X167639639Y-76543080D01*
X167623923Y-76491627D01*
X167618322Y-76429168D01*
X167618503Y-76426970D01*
X167707959Y-76426970D01*
X167713626Y-76472876D01*
X167729739Y-76510388D01*
X167756319Y-76541471D01*
X167790811Y-76564342D01*
X167833190Y-76578689D01*
X167885572Y-76583823D01*
X167935318Y-76579266D01*
X167975157Y-76566623D01*
X168007157Y-76546698D01*
X168025969Y-76526628D01*
X168039945Y-76501080D01*
X168048963Y-76468803D01*
X168052244Y-76428094D01*
X168048011Y-76390426D01*
X168035366Y-76355090D01*
X168013751Y-76321262D01*
X167992864Y-76301497D01*
X167964791Y-76286487D01*
X167927669Y-76276576D01*
X167879027Y-76272902D01*
X167835589Y-76276069D01*
X167800671Y-76284801D01*
X167772662Y-76298306D01*
X167750311Y-76316328D01*
X167727009Y-76347511D01*
X167712886Y-76383888D01*
X167707959Y-76426970D01*
X167618503Y-76426970D01*
X167622944Y-76373097D01*
X167636067Y-76325284D01*
X167657098Y-76284235D01*
X167686169Y-76248848D01*
X167724122Y-76218496D01*
X167772439Y-76193083D01*
X167830050Y-76173945D01*
X167899969Y-76161517D01*
X167984491Y-76157033D01*
X168079570Y-76162152D01*
G37*
G36*
X165792476Y-84677077D02*
G01*
X165869154Y-84693262D01*
X165939452Y-84719623D01*
X165996530Y-84752144D01*
X166041510Y-84790297D01*
X166076025Y-84834257D01*
X166100991Y-84884772D01*
X166116539Y-84943098D01*
X166122000Y-85010907D01*
X166122000Y-85334968D01*
X165319222Y-85334968D01*
X165319222Y-85032742D01*
X165412669Y-85032742D01*
X165412669Y-85225694D01*
X166029090Y-85225694D01*
X166029090Y-85031667D01*
X166025914Y-84979050D01*
X166017610Y-84940955D01*
X165999277Y-84901627D01*
X165972299Y-84867213D01*
X165935642Y-84837103D01*
X165901964Y-84818434D01*
X165860852Y-84802806D01*
X165811030Y-84790648D01*
X165766385Y-84784403D01*
X165726863Y-84782442D01*
X165651055Y-84786778D01*
X165588555Y-84798799D01*
X165537205Y-84817346D01*
X165495175Y-84841744D01*
X165466443Y-84867285D01*
X165443868Y-84898149D01*
X165427133Y-84935151D01*
X165416476Y-84979504D01*
X165412669Y-85032742D01*
X165319222Y-85032742D01*
X165319222Y-85009783D01*
X165324299Y-84944165D01*
X165338828Y-84886917D01*
X165362237Y-84836624D01*
X165394615Y-84792195D01*
X165436703Y-84752937D01*
X165491371Y-84718359D01*
X165553890Y-84692996D01*
X165625637Y-84677094D01*
X165708301Y-84671507D01*
X165792476Y-84677077D01*
G37*
G36*
X165930709Y-84147020D02*
G01*
X166122000Y-84147020D01*
X166122000Y-84245352D01*
X165930709Y-84245352D01*
X165930709Y-84588562D01*
X165834526Y-84588562D01*
X165360760Y-84247013D01*
X165490241Y-84247013D01*
X165844930Y-84497850D01*
X165844930Y-84247013D01*
X165490241Y-84247013D01*
X165360760Y-84247013D01*
X165337247Y-84230062D01*
X165337247Y-84147020D01*
X165844930Y-84147020D01*
X165844930Y-84031688D01*
X165930709Y-84031688D01*
X165930709Y-84147020D01*
G37*
G36*
X157597338Y-73311625D02*
G01*
X157603004Y-73235454D01*
X157618876Y-73172047D01*
X157643855Y-73119147D01*
X157677694Y-73075003D01*
X157720589Y-73036554D01*
X157764938Y-73008801D01*
X157811231Y-72990628D01*
X157860192Y-72981507D01*
X157860192Y-73087557D01*
X157810964Y-73104044D01*
X157770440Y-73127977D01*
X157737240Y-73159413D01*
X157718330Y-73187273D01*
X157704184Y-73220930D01*
X157695113Y-73261534D01*
X157691860Y-73310502D01*
X157697333Y-73368278D01*
X157713079Y-73418552D01*
X157738818Y-73462818D01*
X157775244Y-73502086D01*
X157818339Y-73531810D01*
X157873367Y-73554583D01*
X157943055Y-73569541D01*
X158030722Y-73575017D01*
X158101373Y-73570438D01*
X158162064Y-73557475D01*
X158214329Y-73536946D01*
X158259431Y-73509169D01*
X158290456Y-73480845D01*
X158314547Y-73447855D01*
X158332158Y-73409548D01*
X158343213Y-73364924D01*
X158347115Y-73312700D01*
X158343157Y-73265381D01*
X158331842Y-73224397D01*
X158313569Y-73188609D01*
X158288143Y-73157173D01*
X158254791Y-73129616D01*
X158221041Y-73110273D01*
X158178920Y-73093545D01*
X158126905Y-73079888D01*
X158126905Y-72973886D01*
X158189022Y-72985433D01*
X158244567Y-73004994D01*
X158294486Y-73032390D01*
X158339494Y-73067871D01*
X158376150Y-73108112D01*
X158404643Y-73153213D01*
X158425374Y-73203857D01*
X158438264Y-73261005D01*
X158442760Y-73325840D01*
X158437185Y-73394676D01*
X158421071Y-73455945D01*
X158394806Y-73510984D01*
X158358057Y-73560802D01*
X158319770Y-73597103D01*
X158275075Y-73627409D01*
X158223148Y-73651839D01*
X158162908Y-73670164D01*
X158093057Y-73681825D01*
X158012111Y-73685952D01*
X157940500Y-73681827D01*
X157876494Y-73669968D01*
X157819091Y-73650928D01*
X157767431Y-73624952D01*
X157720827Y-73591967D01*
X157676658Y-73548564D01*
X157642601Y-73499753D01*
X157617956Y-73444793D01*
X157602670Y-73382562D01*
X157597338Y-73311625D01*
G37*
G36*
X158443297Y-72636245D02*
G01*
X158437730Y-72705721D01*
X158422454Y-72760601D01*
X158398830Y-72803848D01*
X158367094Y-72837648D01*
X158327413Y-72864739D01*
X158283784Y-72884168D01*
X158235467Y-72896099D01*
X158181518Y-72900223D01*
X158181518Y-72797494D01*
X158232210Y-72790499D01*
X158267817Y-72780690D01*
X158291916Y-72769064D01*
X158317823Y-72747364D01*
X158336868Y-72718386D01*
X158349184Y-72680392D01*
X158353709Y-72630774D01*
X158348705Y-72580599D01*
X158334668Y-72539735D01*
X158312188Y-72506210D01*
X158281835Y-72480092D01*
X158246648Y-72464546D01*
X158205063Y-72459169D01*
X158164919Y-72462778D01*
X158133915Y-72472631D01*
X158110038Y-72487896D01*
X158091930Y-72508653D01*
X158074988Y-72543152D01*
X158063816Y-72588072D01*
X158059690Y-72646112D01*
X158059983Y-72666043D01*
X158060764Y-72686510D01*
X157973863Y-72686510D01*
X157976061Y-72660865D01*
X157976598Y-72638443D01*
X157971840Y-72586213D01*
X157959110Y-72547731D01*
X157940927Y-72520587D01*
X157917460Y-72501537D01*
X157887726Y-72489668D01*
X157849836Y-72485401D01*
X157812911Y-72490281D01*
X157783454Y-72504094D01*
X157759662Y-72526971D01*
X157742124Y-72556008D01*
X157731575Y-72587969D01*
X157727959Y-72623691D01*
X157732669Y-72672073D01*
X157745565Y-72709365D01*
X157765719Y-72738077D01*
X157793514Y-72759783D01*
X157818503Y-72770812D01*
X157852038Y-72778939D01*
X157896291Y-72783279D01*
X157896291Y-72880537D01*
X157838878Y-72876342D01*
X157789793Y-72864463D01*
X157747645Y-72845561D01*
X157708923Y-72818424D01*
X157679059Y-72784862D01*
X157657176Y-72744044D01*
X157643293Y-72694459D01*
X157638322Y-72634047D01*
X157642176Y-72573592D01*
X157652889Y-72523703D01*
X157669519Y-72482598D01*
X157691616Y-72448813D01*
X157720513Y-72420670D01*
X157755027Y-72400399D01*
X157796297Y-72387713D01*
X157845977Y-72383209D01*
X157892648Y-72387863D01*
X157931052Y-72400970D01*
X157962921Y-72422044D01*
X157987479Y-72449181D01*
X158006640Y-72484326D01*
X158021735Y-72445588D01*
X158043404Y-72413793D01*
X158071951Y-72387899D01*
X158105720Y-72368969D01*
X158144742Y-72357268D01*
X158190262Y-72353168D01*
X158245134Y-72358046D01*
X158293034Y-72372071D01*
X158335280Y-72394901D01*
X158372809Y-72426978D01*
X158402422Y-72465674D01*
X158424340Y-72512305D01*
X158438302Y-72568476D01*
X158443297Y-72636245D01*
G37*
G36*
X160217338Y-66561625D02*
G01*
X160223004Y-66485454D01*
X160238876Y-66422047D01*
X160263855Y-66369147D01*
X160297694Y-66325003D01*
X160340589Y-66286554D01*
X160384938Y-66258801D01*
X160431231Y-66240628D01*
X160480192Y-66231507D01*
X160480192Y-66337557D01*
X160430964Y-66354044D01*
X160390440Y-66377977D01*
X160357240Y-66409413D01*
X160338330Y-66437273D01*
X160324184Y-66470930D01*
X160315113Y-66511534D01*
X160311860Y-66560502D01*
X160317333Y-66618278D01*
X160333079Y-66668552D01*
X160358818Y-66712818D01*
X160395244Y-66752086D01*
X160438339Y-66781810D01*
X160493367Y-66804583D01*
X160563055Y-66819541D01*
X160650722Y-66825017D01*
X160721373Y-66820438D01*
X160782064Y-66807475D01*
X160834329Y-66786946D01*
X160879431Y-66759169D01*
X160910456Y-66730845D01*
X160934547Y-66697855D01*
X160952158Y-66659548D01*
X160963213Y-66614924D01*
X160967115Y-66562700D01*
X160963157Y-66515381D01*
X160951842Y-66474397D01*
X160933569Y-66438609D01*
X160908143Y-66407173D01*
X160874791Y-66379616D01*
X160841041Y-66360273D01*
X160798920Y-66343545D01*
X160746905Y-66329888D01*
X160746905Y-66223886D01*
X160809022Y-66235433D01*
X160864567Y-66254994D01*
X160914486Y-66282390D01*
X160959494Y-66317871D01*
X160996150Y-66358112D01*
X161024643Y-66403213D01*
X161045374Y-66453857D01*
X161058264Y-66511005D01*
X161062760Y-66575840D01*
X161057185Y-66644676D01*
X161041071Y-66705945D01*
X161014806Y-66760984D01*
X160978057Y-66810802D01*
X160939770Y-66847103D01*
X160895075Y-66877409D01*
X160843148Y-66901839D01*
X160782908Y-66920164D01*
X160713057Y-66931825D01*
X160632111Y-66935952D01*
X160560500Y-66931827D01*
X160496494Y-66919968D01*
X160439091Y-66900928D01*
X160387431Y-66874952D01*
X160340827Y-66841967D01*
X160296658Y-66798564D01*
X160262601Y-66749753D01*
X160237956Y-66694793D01*
X160222670Y-66632562D01*
X160217338Y-66561625D01*
G37*
G36*
X161042000Y-66142016D02*
G01*
X160975385Y-66134571D01*
X160917105Y-66120450D01*
X160866047Y-66100202D01*
X160831923Y-66079535D01*
X160797994Y-66050082D01*
X160764023Y-66010331D01*
X160729955Y-65958394D01*
X160669285Y-65853468D01*
X160628207Y-65789162D01*
X160599334Y-65754549D01*
X160566974Y-65729262D01*
X160532707Y-65714644D01*
X160495482Y-65709755D01*
X160451666Y-65714644D01*
X160416137Y-65728413D01*
X160387038Y-65750739D01*
X160365139Y-65780287D01*
X160351626Y-65816119D01*
X160346836Y-65860013D01*
X160352152Y-65908980D01*
X160366862Y-65947147D01*
X160390290Y-65977002D01*
X160423381Y-65999916D01*
X160451529Y-66010912D01*
X160488701Y-66018868D01*
X160537052Y-66022875D01*
X160537052Y-66122868D01*
X160469637Y-66117437D01*
X160414817Y-66104501D01*
X160370381Y-66085156D01*
X160330310Y-66056460D01*
X160299276Y-66020826D01*
X160276449Y-65977314D01*
X160261921Y-65924271D01*
X160256710Y-65859476D01*
X160262011Y-65792149D01*
X160276581Y-65738689D01*
X160299130Y-65696331D01*
X160329397Y-65663007D01*
X160367550Y-65635379D01*
X160406866Y-65616205D01*
X160447844Y-65604805D01*
X160491134Y-65600969D01*
X160536842Y-65605184D01*
X160578300Y-65617508D01*
X160616405Y-65637940D01*
X160651797Y-65667110D01*
X160690320Y-65714234D01*
X160745782Y-65804277D01*
X160787352Y-65879162D01*
X160817675Y-65929207D01*
X160843625Y-65963328D01*
X160877703Y-65996237D01*
X160912684Y-66018725D01*
X160949090Y-66032156D01*
X160949090Y-65604828D01*
X161042000Y-65604828D01*
X161042000Y-66142016D01*
G37*
G36*
X163132000Y-63023384D02*
G01*
X163105230Y-63032128D01*
X163041825Y-63037599D01*
X162907931Y-63044145D01*
X162869475Y-63049860D01*
X162840334Y-63061762D01*
X162818415Y-63079209D01*
X162802467Y-63102616D01*
X162792076Y-63138448D01*
X162787715Y-63200460D01*
X162787715Y-63448025D01*
X163132000Y-63448025D01*
X163132000Y-63556761D01*
X162329222Y-63556761D01*
X162329222Y-63185170D01*
X162329372Y-63182435D01*
X162422669Y-63182435D01*
X162422669Y-63448025D01*
X162697003Y-63448025D01*
X162697003Y-63196650D01*
X162693156Y-63146380D01*
X162682627Y-63106746D01*
X162666424Y-63075603D01*
X162649391Y-63057188D01*
X162626414Y-63043413D01*
X162595984Y-63034390D01*
X162555977Y-63031053D01*
X162514220Y-63035457D01*
X162482153Y-63047548D01*
X162457519Y-63066623D01*
X162439034Y-63093335D01*
X162427209Y-63129928D01*
X162422669Y-63182435D01*
X162329372Y-63182435D01*
X162332572Y-63124241D01*
X162341814Y-63074387D01*
X162355991Y-63033789D01*
X162380120Y-62992909D01*
X162410212Y-62961988D01*
X162446820Y-62939682D01*
X162491293Y-62925661D01*
X162545621Y-62920655D01*
X162592931Y-62924309D01*
X162631761Y-62934489D01*
X162663688Y-62950453D01*
X162691896Y-62972582D01*
X162716430Y-63000139D01*
X162737450Y-63033789D01*
X162760397Y-62991438D01*
X162787715Y-62963007D01*
X162809921Y-62950622D01*
X162842490Y-62941367D01*
X162888831Y-62936482D01*
X162996445Y-62932672D01*
X163039397Y-62929609D01*
X163064784Y-62925003D01*
X163088661Y-62916012D01*
X163104402Y-62904322D01*
X163113974Y-62890027D01*
X163132000Y-62890027D01*
X163132000Y-63023384D01*
G37*
G36*
X163132000Y-62812016D02*
G01*
X163065385Y-62804571D01*
X163007105Y-62790450D01*
X162956047Y-62770202D01*
X162921923Y-62749535D01*
X162887994Y-62720082D01*
X162854023Y-62680331D01*
X162819955Y-62628394D01*
X162759285Y-62523468D01*
X162718207Y-62459162D01*
X162689334Y-62424549D01*
X162656974Y-62399262D01*
X162622707Y-62384644D01*
X162585482Y-62379755D01*
X162541666Y-62384644D01*
X162506137Y-62398413D01*
X162477038Y-62420739D01*
X162455139Y-62450287D01*
X162441626Y-62486119D01*
X162436836Y-62530013D01*
X162442152Y-62578980D01*
X162456862Y-62617147D01*
X162480290Y-62647002D01*
X162513381Y-62669916D01*
X162541529Y-62680912D01*
X162578701Y-62688868D01*
X162627052Y-62692875D01*
X162627052Y-62792868D01*
X162559637Y-62787437D01*
X162504817Y-62774501D01*
X162460381Y-62755156D01*
X162420310Y-62726460D01*
X162389276Y-62690826D01*
X162366449Y-62647314D01*
X162351921Y-62594271D01*
X162346710Y-62529476D01*
X162352011Y-62462149D01*
X162366581Y-62408689D01*
X162389130Y-62366331D01*
X162419397Y-62333007D01*
X162457550Y-62305379D01*
X162496866Y-62286205D01*
X162537844Y-62274805D01*
X162581134Y-62270969D01*
X162626842Y-62275184D01*
X162668300Y-62287508D01*
X162706405Y-62307940D01*
X162741797Y-62337110D01*
X162780320Y-62384234D01*
X162835782Y-62474277D01*
X162877352Y-62549162D01*
X162907675Y-62599207D01*
X162933625Y-62633328D01*
X162967703Y-62666237D01*
X163002684Y-62688725D01*
X163039090Y-62702156D01*
X163039090Y-62274828D01*
X163132000Y-62274828D01*
X163132000Y-62812016D01*
G37*
G36*
X159017338Y-81561659D02*
G01*
X159023004Y-81485488D01*
X159038876Y-81422081D01*
X159063855Y-81369181D01*
X159097694Y-81325037D01*
X159140589Y-81286588D01*
X159184938Y-81258835D01*
X159231231Y-81240662D01*
X159280192Y-81231541D01*
X159280192Y-81337591D01*
X159230964Y-81354078D01*
X159190440Y-81378011D01*
X159157240Y-81409447D01*
X159138330Y-81437307D01*
X159124184Y-81470964D01*
X159115113Y-81511568D01*
X159111860Y-81560536D01*
X159117333Y-81618312D01*
X159133079Y-81668586D01*
X159158818Y-81712852D01*
X159195244Y-81752120D01*
X159238339Y-81781844D01*
X159293367Y-81804617D01*
X159363055Y-81819575D01*
X159450722Y-81825051D01*
X159521373Y-81820472D01*
X159582064Y-81807509D01*
X159634329Y-81786980D01*
X159679431Y-81759203D01*
X159710456Y-81730879D01*
X159734547Y-81697889D01*
X159752158Y-81659582D01*
X159763213Y-81614958D01*
X159767115Y-81562734D01*
X159763157Y-81515415D01*
X159751842Y-81474431D01*
X159733569Y-81438643D01*
X159708143Y-81407207D01*
X159674791Y-81379650D01*
X159641041Y-81360307D01*
X159598920Y-81343579D01*
X159546905Y-81329922D01*
X159546905Y-81223920D01*
X159609022Y-81235467D01*
X159664567Y-81255028D01*
X159714486Y-81282424D01*
X159759494Y-81317905D01*
X159796150Y-81358146D01*
X159824643Y-81403247D01*
X159845374Y-81453891D01*
X159858264Y-81511039D01*
X159862760Y-81575874D01*
X159857185Y-81644710D01*
X159841071Y-81705979D01*
X159814806Y-81761018D01*
X159778057Y-81810836D01*
X159739770Y-81847137D01*
X159695075Y-81877443D01*
X159643148Y-81901873D01*
X159582908Y-81920198D01*
X159513057Y-81931859D01*
X159432111Y-81935986D01*
X159360500Y-81931861D01*
X159296494Y-81920002D01*
X159239091Y-81900962D01*
X159187431Y-81874986D01*
X159140827Y-81842001D01*
X159096658Y-81798598D01*
X159062601Y-81749787D01*
X159037956Y-81694827D01*
X159022670Y-81632596D01*
X159017338Y-81561659D01*
G37*
G36*
X159287861Y-81069901D02*
G01*
X159212439Y-81069901D01*
X159202532Y-80998263D01*
X159190586Y-80950865D01*
X159177757Y-80921304D01*
X159157504Y-80898218D01*
X159121379Y-80876991D01*
X159062718Y-80858435D01*
X159062718Y-80780815D01*
X159842000Y-80780815D01*
X159842000Y-80885742D01*
X159287861Y-80885742D01*
X159287861Y-81069901D01*
G37*
G36*
X159287861Y-80529831D02*
G01*
X159212439Y-80529831D01*
X159202532Y-80458194D01*
X159190586Y-80410795D01*
X159177757Y-80381234D01*
X159157504Y-80358148D01*
X159121379Y-80336921D01*
X159062718Y-80318366D01*
X159062718Y-80240745D01*
X159842000Y-80240745D01*
X159842000Y-80345672D01*
X159287861Y-80345672D01*
X159287861Y-80529831D01*
G37*
%TO.C,D23*%
D12*
X174600000Y-64133948D02*
X174300000Y-63833948D01*
%TO.C,D26*%
X167263934Y-52847588D02*
X166839670Y-52847588D01*
%TO.C,D3*%
X166111842Y-85981305D02*
X164663102Y-88212169D01*
X167537582Y-86907192D02*
X166088842Y-89138055D01*
X167537582Y-86907192D02*
X166111842Y-85981305D01*
%TO.C,D20*%
X174600000Y-74671171D02*
X174300000Y-74371171D01*
%TO.C,U3*%
D11*
X168250000Y-69200000D02*
X168470000Y-69200000D01*
X168250000Y-69920000D02*
X168250000Y-69200000D01*
X168250000Y-72200000D02*
X168250000Y-71680000D01*
X170730000Y-69200000D02*
X170950000Y-69200000D01*
X170950000Y-69200000D02*
X170950000Y-69920000D01*
X170950000Y-72400000D02*
X170730000Y-72400000D01*
X170950000Y-72400000D02*
X170950000Y-71680000D01*
X168250000Y-72400000D02*
X168250000Y-72760000D01*
X167890000Y-72400000D01*
X168250000Y-72400000D01*
G36*
X168250000Y-72760000D02*
G01*
X167890000Y-72400000D01*
X168250000Y-72400000D01*
X168250000Y-72760000D01*
G37*
%TO.C,C12*%
D12*
X158640000Y-75115835D02*
X158640000Y-74884165D01*
X159360000Y-75115835D02*
X159360000Y-74884165D01*
%TO.C,U5*%
X160460000Y-67060000D02*
X161010000Y-67060000D01*
X160460000Y-67610000D02*
X160460000Y-67060000D01*
X160460000Y-73280000D02*
X160460000Y-72730000D01*
X161010000Y-73280000D02*
X160460000Y-73280000D01*
X166130000Y-67060000D02*
X166680000Y-67060000D01*
X166680000Y-67060000D02*
X166680000Y-67610000D01*
X166680000Y-72730000D02*
X166680000Y-73280000D01*
X166680000Y-73280000D02*
X166130000Y-73280000D01*
X161370000Y-73780000D02*
X161610000Y-74110000D01*
X161130000Y-74110000D01*
X161370000Y-73780000D01*
G36*
X161610000Y-74110000D02*
G01*
X161130000Y-74110000D01*
X161370000Y-73780000D01*
X161610000Y-74110000D01*
G37*
%TO.C,D21*%
X174600000Y-71092883D02*
X174300000Y-70792883D01*
%TO.C,C1*%
X158540000Y-70707836D02*
X158540000Y-70492164D01*
X159260000Y-70707836D02*
X159260000Y-70492164D01*
%TO.C,D18*%
X174600000Y-81700000D02*
X174300000Y-81400000D01*
%TO.C,D14*%
X166318109Y-97199728D02*
X166618109Y-96899728D01*
%TO.C,D25*%
X170422701Y-55998235D02*
X169998437Y-55998235D01*
%TO.C,C4*%
X163407338Y-65687836D02*
X163407338Y-65472164D01*
X164127338Y-65687836D02*
X164127338Y-65472164D01*
%TO.C,D22*%
X174600000Y-67646306D02*
X174300000Y-67346306D01*
%TO.C,R1*%
X168441688Y-87208348D02*
X168183248Y-87606310D01*
X169318098Y-87777496D02*
X169059658Y-88175458D01*
%TO.C,D19*%
X174600000Y-78133393D02*
X174300000Y-77833393D01*
%TO.C,AE1*%
D13*
X160060430Y-62483799D02*
X161660430Y-62483799D01*
%TO.C,D5*%
D12*
X155262822Y-66656130D02*
X155562822Y-66956130D01*
%TO.C,D11*%
X157552007Y-88394873D02*
X157966999Y-88483083D01*
%TO.C,D13*%
X161452809Y-94335405D02*
X161867801Y-94423614D01*
%TO.C,D24*%
X174600000Y-60653432D02*
X174300000Y-60353432D01*
%TO.C,D8*%
X155262822Y-77283603D02*
X155562822Y-77583603D01*
%TO.C,D10*%
X155262822Y-84254759D02*
X155562822Y-84554759D01*
%TO.C,C7*%
X169540000Y-74783335D02*
X169540000Y-74551665D01*
X170260000Y-74783335D02*
X170260000Y-74551665D01*
%TO.C,D1*%
X155262822Y-63215000D02*
X155562822Y-63515000D01*
%TO.C,U4*%
X161090000Y-75045000D02*
X165210000Y-75045000D01*
X161090000Y-75165000D02*
X161090000Y-75045000D01*
X161090000Y-80165000D02*
X161090000Y-80045000D01*
X165210000Y-75045000D02*
X165210000Y-75165000D01*
X165210000Y-80045000D02*
X165210000Y-80165000D01*
X165210000Y-80165000D02*
X161090000Y-80165000D01*
X165810000Y-80055000D02*
X166050000Y-80385000D01*
X165570000Y-80385000D01*
X165810000Y-80055000D01*
G36*
X166050000Y-80385000D02*
G01*
X165570000Y-80385000D01*
X165810000Y-80055000D01*
X166050000Y-80385000D01*
G37*
%TO.C,D29*%
X167400000Y-75600000D02*
X167400000Y-73640000D01*
X168600000Y-73640000D02*
X167400000Y-73640000D01*
X168600000Y-75600000D02*
X168600000Y-73640000D01*
%TO.C,D6*%
X155262822Y-70180720D02*
X155562822Y-70480720D01*
%TO.C,D4*%
X166160934Y-85879219D02*
X167586674Y-86805106D01*
X166160934Y-85879219D02*
X167609674Y-83648356D01*
X167586674Y-86805106D02*
X169035414Y-84574242D01*
%TO.C,D7*%
X155262822Y-73736381D02*
X155562822Y-74036381D01*
%TO.C,D16*%
X171742091Y-89171257D02*
X171653881Y-88756264D01*
%TO.C,D15*%
X169834197Y-92157671D02*
X169745988Y-91742679D01*
%TO.C,C3*%
X159507836Y-72840000D02*
X159292164Y-72840000D01*
X159507836Y-73560000D02*
X159292164Y-73560000D01*
%TO.C,C2*%
X162207836Y-65740000D02*
X161992164Y-65740000D01*
X162207836Y-66460000D02*
X161992164Y-66460000D01*
%TO.C,R2*%
X162404889Y-64488166D02*
X162404889Y-64795448D01*
X163164889Y-64488166D02*
X163164889Y-64795448D01*
%TO.C,D17*%
X173730159Y-86211017D02*
X173641949Y-85796024D01*
%TO.C,D28*%
X157949494Y-57691977D02*
X157949494Y-58116241D01*
%TO.C,D27*%
X160963499Y-54637972D02*
X160963499Y-55062236D01*
%TO.C,C11*%
X160040000Y-81084165D02*
X160040000Y-81315835D01*
X160760000Y-81084165D02*
X160760000Y-81315835D01*
%TO.C,D12*%
X159535110Y-91321319D02*
X159950102Y-91409528D01*
%TO.C,D9*%
X155262822Y-80722447D02*
X155562822Y-81022447D01*
%TD*%
%LPC*%
D14*
%TO.C,D23*%
X174000000Y-64518948D03*
X172900000Y-64518948D03*
X172900000Y-66348948D03*
X174000000Y-66348948D03*
%TD*%
D15*
%TO.C,D26*%
X167111906Y-53544089D03*
X166334089Y-54321906D03*
X167628094Y-55615911D03*
X168405911Y-54838094D03*
%TD*%
D16*
%TO.C,D3*%
X166519714Y-86913904D03*
X165375972Y-88675112D03*
%TD*%
D17*
%TO.C,TP2*%
X161700000Y-74500000D03*
%TD*%
D18*
%TO.C,L1*%
X161834837Y-65100467D03*
X160864837Y-65100467D03*
%TD*%
D14*
%TO.C,D20*%
X174000000Y-75056171D03*
X172900000Y-75056171D03*
X172900000Y-76886171D03*
X174000000Y-76886171D03*
%TD*%
D19*
%TO.C,U3*%
X168850000Y-72062500D03*
X169350000Y-72062500D03*
X169850000Y-72062500D03*
X170350000Y-72062500D03*
D20*
X170612500Y-71300000D03*
X170612500Y-70800000D03*
X170612500Y-70300000D03*
D19*
X170350000Y-69537500D03*
X169850000Y-69537500D03*
X169350000Y-69537500D03*
X168850000Y-69537500D03*
D20*
X168587500Y-70300000D03*
X168587500Y-70800000D03*
X168587500Y-71300000D03*
%TD*%
D21*
%TO.C,C12*%
X159000000Y-75567500D03*
X159000000Y-74432500D03*
%TD*%
D22*
%TO.C,U5*%
X161370000Y-73120000D03*
X161770000Y-73120000D03*
X162170000Y-73120000D03*
X162570000Y-73120000D03*
X162970000Y-73120000D03*
X163370000Y-73120000D03*
X163770000Y-73120000D03*
X164170000Y-73120000D03*
X164570000Y-73120000D03*
X164970000Y-73120000D03*
X165370000Y-73120000D03*
X165770000Y-73120000D03*
D23*
X166520000Y-72370000D03*
X166520000Y-71970000D03*
X166520000Y-71570000D03*
X166520000Y-71170000D03*
X166520000Y-70770000D03*
X166520000Y-70370000D03*
X166520000Y-69970000D03*
X166520000Y-69570000D03*
X166520000Y-69170000D03*
X166520000Y-68770000D03*
X166520000Y-68370000D03*
X166520000Y-67970000D03*
D22*
X165770000Y-67220000D03*
X165370000Y-67220000D03*
X164970000Y-67220000D03*
X164570000Y-67220000D03*
X164170000Y-67220000D03*
X163770000Y-67220000D03*
X163370000Y-67220000D03*
X162970000Y-67220000D03*
X162570000Y-67220000D03*
X162170000Y-67220000D03*
X161770000Y-67220000D03*
X161370000Y-67220000D03*
D23*
X160620000Y-67970000D03*
X160620000Y-68370000D03*
X160620000Y-68770000D03*
X160620000Y-69170000D03*
X160620000Y-69570000D03*
X160620000Y-69970000D03*
X160620000Y-70370000D03*
X160620000Y-70770000D03*
X160620000Y-71170000D03*
X160620000Y-71570000D03*
X160620000Y-71970000D03*
X160620000Y-72370000D03*
D24*
X163570000Y-70170000D03*
%TD*%
D14*
%TO.C,D21*%
X174000000Y-71477883D03*
X172900000Y-71477883D03*
X172900000Y-73307883D03*
X174000000Y-73307883D03*
%TD*%
D17*
%TO.C,TP3*%
X162700000Y-74500000D03*
%TD*%
D25*
%TO.C,C1*%
X158900000Y-71080000D03*
X158900000Y-70120000D03*
%TD*%
D14*
%TO.C,D18*%
X174000000Y-82085000D03*
X172900000Y-82085000D03*
X172900000Y-83915000D03*
X174000000Y-83915000D03*
%TD*%
%TO.C,D14*%
X165933109Y-96599728D03*
X165933109Y-95499728D03*
X164103109Y-95499728D03*
X164103109Y-96599728D03*
%TD*%
D15*
%TO.C,D25*%
X170270673Y-56694736D03*
X169492856Y-57472553D03*
X170786861Y-58766558D03*
X171564678Y-57988741D03*
%TD*%
D25*
%TO.C,C4*%
X163767338Y-66060000D03*
X163767338Y-65100000D03*
%TD*%
D14*
%TO.C,D22*%
X174000000Y-68031306D03*
X172900000Y-68031306D03*
X172900000Y-69861306D03*
X174000000Y-69861306D03*
%TD*%
D26*
%TO.C,R1*%
X169200000Y-87000000D03*
X168301346Y-88383806D03*
%TD*%
D14*
%TO.C,D19*%
X174000000Y-78518393D03*
X172900000Y-78518393D03*
X172900000Y-80348393D03*
X174000000Y-80348393D03*
%TD*%
D27*
%TO.C,AE1*%
X160860430Y-63183799D03*
X160860430Y-60883799D03*
%TD*%
D14*
%TO.C,D5*%
X155862822Y-66271130D03*
X156962822Y-66271130D03*
X156962822Y-64441130D03*
X155862822Y-64441130D03*
%TD*%
D28*
%TO.C,D11*%
X157845523Y-87745201D03*
X158768061Y-87146098D03*
X157771371Y-85611331D03*
X156848833Y-86210434D03*
%TD*%
%TO.C,D13*%
X161746325Y-93685733D03*
X162668863Y-93086630D03*
X161672173Y-91551863D03*
X160749635Y-92150966D03*
%TD*%
D14*
%TO.C,D24*%
X174000000Y-61038432D03*
X172900000Y-61038432D03*
X172900000Y-62868432D03*
X174000000Y-62868432D03*
%TD*%
%TO.C,D8*%
X155862822Y-76898603D03*
X156962822Y-76898603D03*
X156962822Y-75068603D03*
X155862822Y-75068603D03*
%TD*%
%TO.C,D10*%
X155862822Y-83869759D03*
X156962822Y-83869759D03*
X156962822Y-82039759D03*
X155862822Y-82039759D03*
%TD*%
D21*
%TO.C,C7*%
X169900000Y-75235000D03*
X169900000Y-74100000D03*
%TD*%
D14*
%TO.C,D1*%
X155862822Y-62830000D03*
X156962822Y-62830000D03*
X156962822Y-61000000D03*
X155862822Y-61000000D03*
%TD*%
D29*
%TO.C,U4*%
X165800000Y-79510000D03*
X165800000Y-78240000D03*
X165800000Y-76970000D03*
X165800000Y-75700000D03*
X160500000Y-75700000D03*
X160500000Y-76970000D03*
X160500000Y-78240000D03*
X160500000Y-79510000D03*
%TD*%
D17*
%TO.C,TP4*%
X163350000Y-74130000D03*
%TD*%
%TO.C,TP1*%
X160510000Y-74110000D03*
%TD*%
D30*
%TO.C,D29*%
X168000000Y-74200000D03*
X168000000Y-75600000D03*
%TD*%
D14*
%TO.C,D6*%
X155862822Y-69795720D03*
X156962822Y-69795720D03*
X156962822Y-67965720D03*
X155862822Y-67965720D03*
%TD*%
D31*
%TO.C,D4*%
X167178802Y-85872507D03*
X168322544Y-84111299D03*
%TD*%
D14*
%TO.C,D7*%
X155862822Y-73351381D03*
X156962822Y-73351381D03*
X156962822Y-71521381D03*
X155862822Y-71521381D03*
%TD*%
D32*
%TO.C,D16*%
X171029203Y-89167362D03*
X170106665Y-88568259D03*
X169109975Y-90103026D03*
X170032513Y-90702129D03*
%TD*%
%TO.C,D15*%
X169121309Y-92153776D03*
X168198771Y-91554673D03*
X167202081Y-93089440D03*
X168124619Y-93688543D03*
%TD*%
D33*
%TO.C,C3*%
X159880000Y-73200000D03*
X158920000Y-73200000D03*
%TD*%
%TO.C,C2*%
X162580000Y-66100000D03*
X161620000Y-66100000D03*
%TD*%
D34*
%TO.C,R2*%
X162784889Y-64131807D03*
X162784889Y-65151807D03*
%TD*%
D32*
%TO.C,D17*%
X173017271Y-86207122D03*
X172094733Y-85608019D03*
X171098043Y-87142786D03*
X172020581Y-87741889D03*
%TD*%
D35*
%TO.C,D28*%
X158645995Y-57844005D03*
X159423812Y-58621822D03*
X160717817Y-57327817D03*
X159940000Y-56550000D03*
%TD*%
%TO.C,D27*%
X161660000Y-54790000D03*
X162437817Y-55567817D03*
X163731822Y-54273812D03*
X162954005Y-53495995D03*
%TD*%
D36*
%TO.C,C11*%
X160400000Y-80632500D03*
X160400000Y-81767500D03*
%TD*%
D28*
%TO.C,D12*%
X159828626Y-90671647D03*
X160751164Y-90072544D03*
X159754474Y-88537777D03*
X158831936Y-89136880D03*
%TD*%
D14*
%TO.C,D9*%
X155862822Y-80337447D03*
X156962822Y-80337447D03*
X156962822Y-78507447D03*
X155862822Y-78507447D03*
%TD*%
D37*
%TO.C,J1*%
X162184809Y-59391990D03*
X167264809Y-58375990D03*
X167264809Y-60407990D03*
%TD*%
D38*
%TO.C,P1*%
X166985531Y-83286930D03*
X163837517Y-88134446D03*
D39*
X170850672Y-84091903D03*
D40*
X167328256Y-81804419D03*
D39*
X166144991Y-91338015D03*
D40*
X162622575Y-89050533D03*
%TD*%
%LPD*%
M02*
