%TF.GenerationSoftware,KiCad,Pcbnew,10.0.5*%
%TF.CreationDate,2026-08-22T12:14:02+02:00*%
%TF.ProjectId,Leucht-Ohrringe,4c657563-6874-42d4-9f68-7272696e6765,rev?*%
%TF.SameCoordinates,Original*%
%TF.FileFunction,Soldermask,Bot*%
%TF.FilePolarity,Negative*%
%FSLAX46Y46*%
G04 Gerber Fmt 4.6, Leading zero omitted, Abs format (unit mm)*
G04 Created by KiCad (PCBNEW 10.0.5) date 2026-08-22 12:14:02*
%MOMM*%
%LPD*%
G01*
G04 APERTURE LIST*
G04 Aperture macros list*
%AMRoundRect*
0 Rectangle with rounded corners*
0 $1 Rounding radius*
0 $2 $3 $4 $5 $6 $7 $8 $9 X,Y pos of 4 corners*
0 Add a 4 corners polygon primitive as box body*
4,1,4,$2,$3,$4,$5,$6,$7,$8,$9,$2,$3,0*
0 Add four circle primitives for the rounded corners*
1,1,$1+$1,$2,$3*
1,1,$1+$1,$4,$5*
1,1,$1+$1,$6,$7*
1,1,$1+$1,$8,$9*
0 Add four rect primitives between the rounded corners*
20,1,$1+$1,$2,$3,$4,$5,0*
20,1,$1+$1,$4,$5,$6,$7,0*
20,1,$1+$1,$6,$7,$8,$9,0*
20,1,$1+$1,$8,$9,$2,$3,0*%
%AMHorizOval*
0 Thick line with rounded ends*
0 $1 width*
0 $2 $3 position (X,Y) of the first rounded end (center of the circle)*
0 $4 $5 position (X,Y) of the second rounded end (center of the circle)*
0 Add line between two ends*
20,1,$1,$2,$3,$4,$5,0*
0 Add two circle primitives to create the rounded ends*
1,1,$1,$2,$3*
1,1,$1,$4,$5*%
G04 Aperture macros list end*
%ADD10C,0.650000*%
%ADD11RoundRect,0.150000X-0.312479X0.381781X-0.475871X0.130180X0.312479X-0.381781X0.475871X-0.130180X0*%
%ADD12RoundRect,0.075000X-0.416228X0.359729X-0.497923X0.233928X0.416228X-0.359729X0.497923X-0.233928X0*%
%ADD13HorizOval,1.000000X-0.335468X0.217856X0.335468X-0.217856X0*%
%ADD14HorizOval,1.000000X-0.461269X0.299551X0.461269X-0.299551X0*%
%ADD15RoundRect,0.155000X0.259862X-0.040659X-0.040659X0.259862X-0.259862X0.040659X0.040659X-0.259862X0*%
%ADD16RoundRect,0.155000X-0.212500X-0.155000X0.212500X-0.155000X0.212500X0.155000X-0.212500X0.155000X0*%
%ADD17RoundRect,0.160000X0.160000X-0.197500X0.160000X0.197500X-0.160000X0.197500X-0.160000X-0.197500X0*%
%ADD18RoundRect,0.160000X0.197500X0.160000X-0.197500X0.160000X-0.197500X-0.160000X0.197500X-0.160000X0*%
%ADD19C,0.990600*%
%ADD20C,0.787400*%
%ADD21RoundRect,0.160000X-0.160000X0.197500X-0.160000X-0.197500X0.160000X-0.197500X0.160000X0.197500X0*%
%ADD22RoundRect,0.150000X-0.150000X0.512500X-0.150000X-0.512500X0.150000X-0.512500X0.150000X0.512500X0*%
%ADD23RoundRect,0.150000X0.700000X-0.150000X0.700000X0.150000X-0.700000X0.150000X-0.700000X-0.150000X0*%
%ADD24RoundRect,0.250000X1.100000X-0.250000X1.100000X0.250000X-1.100000X0.250000X-1.100000X-0.250000X0*%
%ADD25RoundRect,0.150000X0.150000X0.200000X-0.150000X0.200000X-0.150000X-0.200000X0.150000X-0.200000X0*%
G04 APERTURE END LIST*
D10*
%TO.C,P1*%
X166985531Y-83286930D03*
X163837517Y-88134446D03*
D11*
X166215058Y-82416947D03*
X165779347Y-83087883D03*
D12*
X165153012Y-84052354D03*
X164608373Y-84891025D03*
X164336053Y-85310360D03*
X163791414Y-86149031D03*
D11*
X163165079Y-87113502D03*
X162729368Y-87784438D03*
X162729368Y-87784438D03*
X163165079Y-87113502D03*
D12*
X163519095Y-86568366D03*
X164063734Y-85729695D03*
X164880693Y-84471690D03*
X165425331Y-83633019D03*
D11*
X165779347Y-83087883D03*
X166215058Y-82416947D03*
D13*
X170850672Y-84091903D03*
D14*
X167328256Y-81804419D03*
D13*
X166144991Y-91338015D03*
D14*
X162622575Y-89050533D03*
%TD*%
D15*
%TO.C,C6*%
X167468783Y-70301283D03*
X166666217Y-69498717D03*
%TD*%
D16*
%TO.C,C5*%
X166032500Y-71500000D03*
X167167500Y-71500000D03*
%TD*%
D17*
%TO.C,R5*%
X158600000Y-72297500D03*
X158600000Y-71102500D03*
%TD*%
D18*
%TO.C,TH1*%
X158197500Y-69900000D03*
X157002500Y-69900000D03*
%TD*%
D19*
%TO.C,J1*%
X162184809Y-59391990D03*
X167264809Y-58375990D03*
X167264809Y-60407990D03*
D20*
X163454809Y-58756990D03*
X163454809Y-60026990D03*
X164724809Y-58756990D03*
X164724809Y-60026990D03*
X165994809Y-58756990D03*
X165994809Y-60026990D03*
%TD*%
D21*
%TO.C,R4*%
X170300000Y-67502500D03*
X170300000Y-68697500D03*
%TD*%
D22*
%TO.C,U2*%
X161010001Y-76782500D03*
X162909999Y-76782500D03*
X161960000Y-79057500D03*
%TD*%
%TO.C,U1*%
X159813620Y-68074682D03*
X161713620Y-68074682D03*
X160763620Y-70349682D03*
%TD*%
D23*
%TO.C,BT1*%
X173550000Y-73325000D03*
X173550000Y-72075000D03*
D24*
X170350000Y-75175000D03*
X170350000Y-70225000D03*
%TD*%
D25*
%TO.C,D2*%
X167200000Y-79300000D03*
X168600000Y-79300000D03*
%TD*%
D21*
%TO.C,R3*%
X169300000Y-67502500D03*
X169300000Y-68697500D03*
%TD*%
M02*
