M48
; DRILL file KiCad 10.0.5 date 2026-08-22T12:14:02
; FORMAT={-:-/ absolute / inch / decimal}
; #@! TF.CreationDate,2026-08-22T12:14:02+02:00
; #@! TF.GenerationSoftware,Kicad,Pcbnew,10.0.5
; #@! TF.FileFunction,Plated,1,2,PTH
FMAT,2
INCH
; #@! TA.AperFunction,Plated,PTH,ViaDrill
T1C0.0079
; #@! TA.AperFunction,Plated,PTH,ViaDrill
T2C0.0118
; #@! TA.AperFunction,Plated,PTH,ComponentDrill
T3C0.0236
%
G90
G05
T1
X6.1349Y-3.0908
X6.1363Y-3.2299
X6.1367Y-2.6758
X6.1372Y-2.5371
X6.1378Y-2.4016
X6.1381Y-2.8158
X6.1389Y-2.9555
X6.1752Y-3.3941
X6.2532Y-3.5093
X6.2874Y-2.9413
X6.3037Y-2.2317
X6.3287Y-3.628
X6.4192Y-2.1114
X6.4608Y-3.8031
X6.5402Y-2.2831
X6.6191Y-3.6885
X6.6246Y-2.1615
X6.6942Y-3.5709
X6.7545Y-2.283
X6.7725Y-3.4544
X6.8479Y-3.027
X6.8501Y-2.8861
X6.8504Y-2.4751
X6.8504Y-2.6122
X6.8504Y-2.7504
X6.8504Y-3.3037
X6.8515Y-3.1633
T2
X6.1378Y-2.3622
X6.1811Y-2.437
X6.2077Y-2.7885
X6.2087Y-2.2913
X6.219Y-2.6622
X6.2205Y-2.9646
X6.2244Y-2.9173
X6.2244Y-3.0354
X6.2362Y-2.7126
X6.252Y-3.1535
X6.266Y-2.4209
X6.2667Y-2.5514
X6.2667Y-2.4552
X6.267Y-2.3893
X6.2672Y-2.3596
X6.2672Y-2.4894
X6.2677Y-2.5197
X6.2835Y-3.2677
X6.2871Y-2.8467
X6.2886Y-2.7633
X6.2953Y-2.563
X6.311Y-2.3425
X6.315Y-3.1417
X6.3293Y-2.647
X6.3418Y-2.339
X6.374Y-2.7942
X6.3764Y-3.0906
X6.3937Y-2.726
X6.4016Y-2.3819
X6.4016Y-2.4134
X6.4016Y-2.4449
X6.4016Y-2.4764
X6.4089Y-2.5249
X6.4089Y-3.3614
X6.4094Y-3.2008
X6.4109Y-2.8386
X6.4173Y-2.9764
X6.4213Y-2.7795
X6.4291Y-2.4882
X6.4331Y-2.0669
X6.4352Y-2.262
X6.437Y-2.2205
X6.4449Y-2.5276
X6.4449Y-3.2047
X6.4488Y-2.6969
X6.4488Y-2.752
X6.4528Y-2.1811
X6.4567Y-3.0236
X6.4646Y-2.5039
X6.4685Y-3.252
X6.4764Y-2.8307
X6.4803Y-2.5912
X6.4803Y-2.5315
X6.4888Y-2.5624
X6.4961Y-2.7795
X6.4961Y-3.8071
X6.4961Y-3.8465
X6.4961Y-3.8819
X6.5Y-2.2205
X6.5039Y-2.6969
X6.5039Y-2.7441
X6.5118Y-2.6063
X6.5157Y-3.7126
X6.5276Y-2.1811
X6.5512Y-2.6457
X6.5551Y-3.3386
X6.5559Y-2.8772
X6.5591Y-2.0669
X6.5908Y-2.7007
X6.5945Y-3.0118
X6.6024Y-3.7283
X6.6161Y-2.6811
X6.623Y-2.748
X6.6496Y-2.311
X6.6555Y-2.3563
X6.6654Y-2.6575
X6.6693Y-2.4843
X6.6693Y-2.5433
X6.6772Y-2.8041
X6.689Y-2.4291
X6.6969Y-2.3425
X6.7087Y-2.7126
X6.7205Y-2.8827
X6.7323Y-2.5866
X6.7362Y-2.5118
X6.752Y-2.3661
X6.7582Y-2.6749
X6.8277Y-2.3282
T3
G00X6.4206Y-3.5177
M15
G01X6.3843Y-3.4941
M16
G05
G00X6.5543Y-3.6046
M15
G01X6.5279Y-3.5874
M16
G05
G00X6.6059Y-3.2324
M15
G01X6.5696Y-3.2089
M16
G05
G00X6.7396Y-3.3193
M15
G01X6.7132Y-3.3021
M16
G05
M30
