%TF.GenerationSoftware,KiCad,Pcbnew,10.0.5*%
%TF.CreationDate,2026-08-24T17:28:23+02:00*%
%TF.ProjectId,Leucht-Ohrringe,4c657563-6874-42d4-9f68-7272696e6765,rev?*%
%TF.SameCoordinates,Original*%
%TF.FileFunction,Copper,L2,Bot*%
%TF.FilePolarity,Positive*%
%FSLAX46Y46*%
G04 Gerber Fmt 4.6, Leading zero omitted, Abs format (unit mm)*
G04 Created by KiCad (PCBNEW 10.0.5) date 2026-08-24 17:28:23*
%MOMM*%
%LPD*%
G01*
G04 APERTURE LIST*
G04 Aperture macros list*
%AMRoundRect*
0 Rectangle with rounded corners*
0 $1 Rounding radius*
0 $2 $3 $4 $5 $6 $7 $8 $9 X,Y pos of 4 corners*
0 Add a 4 corners polygon primitive as box body*
4,1,4,$2,$3,$4,$5,$6,$7,$8,$9,$2,$3,0*
0 Add four circle primitives for the rounded corners*
1,1,$1+$1,$2,$3*
1,1,$1+$1,$4,$5*
1,1,$1+$1,$6,$7*
1,1,$1+$1,$8,$9*
0 Add four rect primitives between the rounded corners*
20,1,$1+$1,$2,$3,$4,$5,0*
20,1,$1+$1,$4,$5,$6,$7,0*
20,1,$1+$1,$6,$7,$8,$9,0*
20,1,$1+$1,$8,$9,$2,$3,0*%
%AMHorizOval*
0 Thick line with rounded ends*
0 $1 width*
0 $2 $3 position (X,Y) of the first rounded end (center of the circle)*
0 $4 $5 position (X,Y) of the second rounded end (center of the circle)*
0 Add line between two ends*
20,1,$1,$2,$3,$4,$5,0*
0 Add two circle primitives to create the rounded ends*
1,1,$1,$2,$3*
1,1,$1,$4,$5*%
G04 Aperture macros list end*
%ADD10C,0.600000*%
%ADD11C,0.300000*%
%ADD12C,0.500000*%
%TA.AperFunction,SMDPad,CuDef*%
%ADD13RoundRect,0.112500X-0.262500X1.137500X-0.262500X-1.137500X0.262500X-1.137500X0.262500X1.137500X0*%
%TD*%
%TA.AperFunction,ConnectorPad*%
%ADD14C,0.787400*%
%TD*%
%TA.AperFunction,SMDPad,CuDef*%
%ADD15RoundRect,0.155000X-0.212500X-0.155000X0.212500X-0.155000X0.212500X0.155000X-0.212500X0.155000X0*%
%TD*%
%TA.AperFunction,SMDPad,CuDef*%
%ADD16RoundRect,0.135000X-0.490000X0.315000X-0.490000X-0.315000X0.490000X-0.315000X0.490000X0.315000X0*%
%TD*%
%TA.AperFunction,SMDPad,CuDef*%
%ADD17RoundRect,0.120000X-0.330000X0.280000X-0.330000X-0.280000X0.330000X-0.280000X0.330000X0.280000X0*%
%TD*%
%TA.AperFunction,SMDPad,CuDef*%
%ADD18RoundRect,0.160000X-0.160000X0.197500X-0.160000X-0.197500X0.160000X-0.197500X0.160000X0.197500X0*%
%TD*%
%TA.AperFunction,SMDPad,CuDef*%
%ADD19RoundRect,0.160000X0.160000X-0.197500X0.160000X0.197500X-0.160000X0.197500X-0.160000X-0.197500X0*%
%TD*%
%TA.AperFunction,SMDPad,CuDef*%
%ADD20RoundRect,0.150000X0.150000X-0.512500X0.150000X0.512500X-0.150000X0.512500X-0.150000X-0.512500X0*%
%TD*%
%TA.AperFunction,SMDPad,CuDef*%
%ADD21RoundRect,0.237500X-0.300000X-0.237500X0.300000X-0.237500X0.300000X0.237500X-0.300000X0.237500X0*%
%TD*%
%TA.AperFunction,SMDPad,CuDef*%
%ADD22RoundRect,0.150000X0.700000X-0.150000X0.700000X0.150000X-0.700000X0.150000X-0.700000X-0.150000X0*%
%TD*%
%TA.AperFunction,SMDPad,CuDef*%
%ADD23RoundRect,0.250000X1.100000X-0.250000X1.100000X0.250000X-1.100000X0.250000X-1.100000X-0.250000X0*%
%TD*%
%TA.AperFunction,SMDPad,CuDef*%
%ADD24RoundRect,0.150000X-0.312479X0.381781X-0.475871X0.130180X0.312479X-0.381781X0.475871X-0.130180X0*%
%TD*%
%TA.AperFunction,SMDPad,CuDef*%
%ADD25RoundRect,0.075000X-0.416228X0.359729X-0.497923X0.233928X0.416228X-0.359729X0.497923X-0.233928X0*%
%TD*%
%TA.AperFunction,ComponentPad*%
%ADD26HorizOval,1.000000X-0.335468X0.217856X0.335468X-0.217856X0*%
%TD*%
%TA.AperFunction,ComponentPad*%
%ADD27HorizOval,1.000000X-0.461269X0.299551X0.461269X-0.299551X0*%
%TD*%
%TA.AperFunction,SMDPad,CuDef*%
%ADD28RoundRect,0.250000X0.650000X-0.412500X0.650000X0.412500X-0.650000X0.412500X-0.650000X-0.412500X0*%
%TD*%
%TA.AperFunction,SMDPad,CuDef*%
%ADD29RoundRect,0.150000X0.150000X0.200000X-0.150000X0.200000X-0.150000X-0.200000X0.150000X-0.200000X0*%
%TD*%
%TA.AperFunction,SMDPad,CuDef*%
%ADD30RoundRect,0.160000X0.197500X0.160000X-0.197500X0.160000X-0.197500X-0.160000X0.197500X-0.160000X0*%
%TD*%
%TA.AperFunction,SMDPad,CuDef*%
%ADD31RoundRect,0.155000X0.259862X-0.040659X-0.040659X0.259862X-0.259862X0.040659X0.040659X-0.259862X0*%
%TD*%
%TA.AperFunction,ViaPad*%
%ADD32C,0.600000*%
%TD*%
%TA.AperFunction,ViaPad*%
%ADD33C,0.450000*%
%TD*%
%TA.AperFunction,Conductor*%
%ADD34C,0.300000*%
%TD*%
%TA.AperFunction,Conductor*%
%ADD35C,0.700000*%
%TD*%
%TA.AperFunction,Conductor*%
%ADD36C,0.200000*%
%TD*%
%TA.AperFunction,Conductor*%
%ADD37C,0.800000*%
%TD*%
%TA.AperFunction,Conductor*%
%ADD38C,0.600000*%
%TD*%
G04 APERTURE END LIST*
D10*
X162717042Y-86822234D02*
X162686410Y-86800217D01*
X162656168Y-86778437D01*
X162637507Y-86764966D01*
X162618998Y-86751576D01*
X162603407Y-86740271D01*
X162587928Y-86729018D01*
X162574122Y-86718956D01*
X162560405Y-86708933D01*
X162547834Y-86699720D01*
X162535339Y-86690538D01*
X162523700Y-86681959D01*
X162512128Y-86673403D01*
X162501233Y-86665321D01*
X162490398Y-86657259D01*
X162480116Y-86649582D01*
X162469890Y-86641921D01*
X162460129Y-86634584D01*
X162450419Y-86627258D01*
X162441108Y-86620208D01*
X162431844Y-86613169D01*
X162422929Y-86606368D01*
X162414058Y-86599575D01*
X162405495Y-86592993D01*
X162396974Y-86586416D01*
X162388727Y-86580026D01*
X162380519Y-86573641D01*
X162372559Y-86567422D01*
X162364637Y-86561207D01*
X162356938Y-86555142D01*
X162349276Y-86549079D01*
X162341819Y-86543153D01*
X162334396Y-86537228D01*
X162327161Y-86531427D01*
X162319959Y-86525627D01*
X162312931Y-86519940D01*
X162305934Y-86514254D01*
X162299099Y-86508671D01*
X162292294Y-86503088D01*
X162285639Y-86497602D01*
X162279014Y-86492114D01*
X162272528Y-86486715D01*
X162266071Y-86481314D01*
X162259745Y-86475996D01*
X162253448Y-86470676D01*
X162247272Y-86465432D01*
X162241125Y-86460186D01*
X162235093Y-86455011D01*
X162229087Y-86449833D01*
X162223191Y-86444722D01*
X162217321Y-86439607D01*
X162211554Y-86434555D01*
X162205812Y-86429499D01*
X162200168Y-86424502D01*
X162194549Y-86419499D01*
X162189022Y-86414553D01*
X162183520Y-86409601D01*
X162178106Y-86404701D01*
X162172716Y-86399796D01*
X162167410Y-86394940D01*
X162162127Y-86390078D01*
X162156925Y-86385262D01*
X162151745Y-86380440D01*
X162146642Y-86375662D01*
X162141561Y-86370877D01*
X162136553Y-86366134D01*
X162131568Y-86361384D01*
X162126652Y-86356672D01*
X162121758Y-86351954D01*
X162116932Y-86347272D01*
X162112126Y-86342583D01*
X162107386Y-86337929D01*
X162102666Y-86333267D01*
X162098008Y-86328638D01*
X162093370Y-86324001D01*
X162088793Y-86319396D01*
X162084235Y-86314782D01*
X162079735Y-86310197D01*
X162075255Y-86305605D01*
X162070830Y-86301040D01*
X162066425Y-86296466D01*
X162062073Y-86291919D01*
X162057740Y-86287363D01*
X162053459Y-86282832D01*
X162049197Y-86278292D01*
X162044984Y-86273775D01*
X162040791Y-86269249D01*
X162036645Y-86264745D01*
X162032518Y-86260232D01*
X162028437Y-86255740D01*
X162024375Y-86251238D01*
X162020358Y-86246756D01*
X162016358Y-86242264D01*
X162012402Y-86237790D01*
X162008465Y-86233307D01*
X162004569Y-86228841D01*
X162000691Y-86224365D01*
X161996853Y-86219905D01*
X161993034Y-86215435D01*
X161989253Y-86210980D01*
X161985491Y-86206514D01*
X161981766Y-86202063D01*
X161978059Y-86197602D01*
X161974389Y-86193153D01*
X161970736Y-86188694D01*
X161967119Y-86184247D01*
X161963519Y-86179789D01*
X161959954Y-86175343D01*
X161956406Y-86170885D01*
X161952892Y-86166439D01*
X161949395Y-86161980D01*
X161945930Y-86157532D01*
X161942483Y-86153072D01*
X161939067Y-86148621D01*
X161935668Y-86144158D01*
X161932300Y-86139703D01*
X161928949Y-86135237D01*
X161925628Y-86130778D01*
X161922323Y-86126307D01*
X161919048Y-86121842D01*
X161915789Y-86117365D01*
X161912558Y-86112894D01*
X161909344Y-86108411D01*
X161906158Y-86103933D01*
X161902988Y-86099442D01*
X161899846Y-86094956D01*
X161896719Y-86090457D01*
X161893619Y-86085962D01*
X161890534Y-86081454D01*
X161887476Y-86076948D01*
X161884433Y-86072430D01*
X161881416Y-86067914D01*
X161878415Y-86063385D01*
X161875438Y-86058858D01*
X161872477Y-86054317D01*
X161869540Y-86049778D01*
X161866619Y-86045224D01*
X161863721Y-86040671D01*
X161860839Y-86036105D01*
X161857980Y-86031538D01*
X161855136Y-86026957D01*
X161852315Y-86022375D01*
X161849509Y-86017780D01*
X161846725Y-86013182D01*
X161843956Y-86008571D01*
X161841210Y-86003957D01*
X161838478Y-85999329D01*
X161835767Y-85994698D01*
X161833072Y-85990053D01*
X161830398Y-85985404D01*
X161827738Y-85980740D01*
X161825099Y-85976073D01*
X161822475Y-85971390D01*
X161819871Y-85966703D01*
X161817281Y-85962001D01*
X161814712Y-85957293D01*
X161812157Y-85952571D01*
X161809622Y-85947842D01*
X161807101Y-85943099D01*
X161804600Y-85938348D01*
X161802113Y-85933583D01*
X161799644Y-85928810D01*
X161797191Y-85924021D01*
X161794756Y-85919225D01*
X161792335Y-85914413D01*
X161789933Y-85909592D01*
X161787545Y-85904756D01*
X161785175Y-85899911D01*
X161782819Y-85895049D01*
X161780481Y-85890178D01*
X161778157Y-85885291D01*
X161775851Y-85880394D01*
X161773559Y-85875480D01*
X161771284Y-85870555D01*
X161769024Y-85865614D01*
X161766780Y-85860661D01*
X161764551Y-85855692D01*
X161762338Y-85850710D01*
X161760140Y-85845712D01*
X161757958Y-85840701D01*
X161755791Y-85835673D01*
X161753639Y-85830631D01*
X161751502Y-85825572D01*
X161749381Y-85820500D01*
X161747274Y-85815410D01*
X161745183Y-85810305D01*
X161743107Y-85805183D01*
X161741045Y-85800046D01*
X161738999Y-85794891D01*
X161736967Y-85789720D01*
X161734950Y-85784532D01*
X161732948Y-85779326D01*
X161730961Y-85774103D01*
X161728988Y-85768863D01*
X161727031Y-85763604D01*
X161725087Y-85758328D01*
X161723159Y-85753033D01*
X161721245Y-85747720D01*
X161719345Y-85742389D01*
X161717460Y-85737038D01*
X161715590Y-85731668D01*
X161713734Y-85726279D01*
X161711893Y-85720871D01*
X161710065Y-85715443D01*
X161708253Y-85709995D01*
X161706455Y-85704526D01*
X161704671Y-85699038D01*
X161702901Y-85693529D01*
X161701146Y-85687999D01*
X161699405Y-85682448D01*
X161697679Y-85676877D01*
X161695967Y-85671282D01*
X161694269Y-85665668D01*
X161690916Y-85654372D01*
X161687621Y-85642986D01*
X161684382Y-85631510D01*
X161681201Y-85619940D01*
X161678077Y-85608276D01*
X161675009Y-85596515D01*
X161671999Y-85584656D01*
X161669046Y-85572696D01*
X161666151Y-85560634D01*
X161663313Y-85548467D01*
X161660532Y-85536194D01*
X161657809Y-85523813D01*
X161655144Y-85511321D01*
X161652537Y-85498718D01*
X161649988Y-85485999D01*
X161647498Y-85473164D01*
X161645066Y-85460211D01*
X161642693Y-85447136D01*
X161640380Y-85433939D01*
X161638126Y-85420616D01*
X161635931Y-85407166D01*
X161633797Y-85393586D01*
X161631723Y-85379874D01*
X161629709Y-85366027D01*
X161627757Y-85352044D01*
X161625867Y-85337921D01*
X161624038Y-85323657D01*
X161622272Y-85309249D01*
X161620568Y-85294693D01*
X161618928Y-85279989D01*
X161617352Y-85265133D01*
X161615840Y-85250122D01*
X161614392Y-85234954D01*
X161613010Y-85219626D01*
X161611694Y-85204136D01*
X161610444Y-85188480D01*
X161609261Y-85172655D01*
X161608146Y-85156660D01*
X161607099Y-85140490D01*
X161606121Y-85124143D01*
X161605212Y-85107616D01*
X161604374Y-85090906D01*
X161603607Y-85074009D01*
X161602911Y-85056923D01*
X161602288Y-85039643D01*
X161601738Y-85022168D01*
X161601262Y-85004492D01*
X161600860Y-84986614D01*
X161600534Y-84968529D01*
X161600285Y-84950234D01*
X161600113Y-84931726D01*
X161600019Y-84913000D01*
X161600000Y-84900000D01*
D11*
X163886925Y-85025190D02*
X163876243Y-85017875D01*
X163865579Y-85010475D01*
X163854931Y-85002989D01*
X163844301Y-84995418D01*
X163833689Y-84987761D01*
X163823094Y-84980019D01*
X163812518Y-84972191D01*
X163801960Y-84964277D01*
X163791422Y-84956278D01*
X163780902Y-84948193D01*
X163770403Y-84940022D01*
X163759923Y-84931765D01*
X163749463Y-84923422D01*
X163739024Y-84914993D01*
X163728606Y-84906479D01*
X163718209Y-84897879D01*
X163707833Y-84889192D01*
X163697480Y-84880420D01*
X163687149Y-84871562D01*
X163676841Y-84862618D01*
X163666556Y-84853589D01*
X163656294Y-84844473D01*
X163646056Y-84835272D01*
X163635843Y-84825986D01*
X163625654Y-84816613D01*
X163615491Y-84807155D01*
X163605353Y-84797612D01*
X163595241Y-84787983D01*
X163585155Y-84778269D01*
X163575096Y-84768470D01*
X163565065Y-84758586D01*
X163555061Y-84748616D01*
X163545085Y-84738562D01*
X163535138Y-84728423D01*
X163525220Y-84718200D01*
X163515331Y-84707892D01*
X163505473Y-84697500D01*
X163495645Y-84687023D01*
X163485847Y-84676463D01*
X163476082Y-84665819D01*
X163466348Y-84655092D01*
X163456646Y-84644281D01*
X163446978Y-84633388D01*
X163437343Y-84622411D01*
X163427741Y-84611352D01*
X163418174Y-84600210D01*
X163408642Y-84588987D01*
X163399146Y-84577681D01*
X163389685Y-84566294D01*
X163380261Y-84554826D01*
X163370874Y-84543277D01*
X163361525Y-84531647D01*
X163352213Y-84519937D01*
X163342940Y-84508147D01*
X163333707Y-84496277D01*
X163324513Y-84484328D01*
X163315359Y-84472301D01*
X163306246Y-84460195D01*
X163297174Y-84448011D01*
X163288145Y-84435749D01*
X163279158Y-84423410D01*
X163270213Y-84410994D01*
X163261313Y-84398502D01*
X163252456Y-84385934D01*
X163243645Y-84373291D01*
X163234878Y-84360573D01*
X163226158Y-84347780D01*
X163217484Y-84334914D01*
X163208857Y-84321974D01*
X163200277Y-84308962D01*
X163191746Y-84295877D01*
X163183263Y-84282720D01*
X163174830Y-84269493D01*
X163166447Y-84256194D01*
X163158114Y-84242826D01*
X163149832Y-84229389D01*
X163141601Y-84215883D01*
X163133423Y-84202309D01*
X163125298Y-84188667D01*
X163117226Y-84174959D01*
X163109208Y-84161184D01*
X163101244Y-84147344D01*
X163093336Y-84133440D01*
X163085483Y-84119471D01*
X163077686Y-84105440D01*
X163069946Y-84091345D01*
X163062264Y-84077189D01*
X163054639Y-84062972D01*
X163047073Y-84048695D01*
X163039566Y-84034358D01*
X163032118Y-84019963D01*
X163024730Y-84005510D01*
X163017404Y-83990999D01*
X163010138Y-83976433D01*
X163002934Y-83961811D01*
X162995792Y-83947134D01*
X162988714Y-83932404D01*
X162981698Y-83917621D01*
X162974747Y-83902786D01*
X162967860Y-83887900D01*
X162961037Y-83872963D01*
X162954281Y-83857978D01*
X162947590Y-83842944D01*
X162940965Y-83827862D01*
X162934408Y-83812734D01*
X162927918Y-83797561D01*
X162921496Y-83782343D01*
X162915142Y-83767081D01*
X162908857Y-83751776D01*
X162902642Y-83736430D01*
X162896496Y-83721043D01*
X162890421Y-83705616D01*
X162884416Y-83690150D01*
X162878482Y-83674647D01*
X162872620Y-83659107D01*
X162866830Y-83643530D01*
X162861113Y-83627920D01*
X162855468Y-83612275D01*
X162849896Y-83596598D01*
X162844398Y-83580889D01*
X162838974Y-83565149D01*
X162833625Y-83549379D01*
X162828350Y-83533581D01*
X162825741Y-83525672D01*
X162823151Y-83517756D01*
X162820579Y-83509833D01*
X162818027Y-83501904D01*
X162815493Y-83493968D01*
X162812978Y-83486026D01*
X162810483Y-83478078D01*
X162808006Y-83470124D01*
X162805549Y-83462164D01*
X162803111Y-83454198D01*
X162800692Y-83446228D01*
X162798292Y-83438251D01*
X162795912Y-83430269D01*
X162793550Y-83422282D01*
X162791209Y-83414290D01*
X162788886Y-83406292D01*
X162786584Y-83398291D01*
X162784300Y-83390284D01*
X162782036Y-83382273D01*
X162779792Y-83374258D01*
X162777567Y-83366238D01*
X162775362Y-83358214D01*
X162773176Y-83350187D01*
X162771010Y-83342154D01*
X162768864Y-83334120D01*
X162766738Y-83326080D01*
X162764631Y-83318038D01*
X162762545Y-83309992D01*
X162760478Y-83301943D01*
X162758430Y-83293891D01*
X162756403Y-83285836D01*
X162754396Y-83277778D01*
X162752409Y-83269718D01*
X162750441Y-83261654D01*
X162748494Y-83253589D01*
X162746567Y-83245521D01*
X162744659Y-83237452D01*
X162742772Y-83229379D01*
X162740905Y-83221306D01*
X162739058Y-83213229D01*
X162737231Y-83205153D01*
X162735425Y-83197073D01*
X162733638Y-83188994D01*
X162731872Y-83180912D01*
X162730126Y-83172830D01*
X162728400Y-83164746D01*
X162726695Y-83156663D01*
X162725009Y-83148576D01*
X162723345Y-83140492D01*
X162721700Y-83132405D01*
X162720076Y-83124319D01*
X162718472Y-83116231D01*
X162716889Y-83108146D01*
X162715326Y-83100058D01*
X162713783Y-83091973D01*
X162712261Y-83083885D01*
X162710759Y-83075801D01*
X162709278Y-83067714D01*
X162707817Y-83059631D01*
X162706377Y-83051545D01*
X162704957Y-83043464D01*
X162703557Y-83035380D01*
X162702179Y-83027301D01*
X162700820Y-83019220D01*
X162699483Y-83011144D01*
X162698165Y-83003066D01*
X162696869Y-82994992D01*
X162695592Y-82986918D01*
X162694337Y-82978848D01*
X162693101Y-82970777D01*
X162691887Y-82962712D01*
X162690693Y-82954645D01*
X162689520Y-82946585D01*
X162688367Y-82938523D01*
X162687235Y-82930468D01*
X162686123Y-82922411D01*
X162685033Y-82914362D01*
X162683962Y-82906311D01*
X162682912Y-82898267D01*
X162681883Y-82890223D01*
X162680875Y-82882186D01*
X162679886Y-82874148D01*
X162678919Y-82866118D01*
X162677972Y-82858087D01*
X162677046Y-82850065D01*
X162676141Y-82842042D01*
X162675256Y-82834027D01*
X162674391Y-82826012D01*
X162673548Y-82818006D01*
X162672724Y-82810000D01*
X162671922Y-82802002D01*
X162671139Y-82794005D01*
X162670378Y-82786016D01*
X162669637Y-82778028D01*
X162668917Y-82770050D01*
X162668217Y-82762072D01*
X162667538Y-82754103D01*
X162666879Y-82746136D01*
X162666241Y-82738178D01*
X162665623Y-82730220D01*
X162665026Y-82722274D01*
X162664449Y-82714327D01*
X162663893Y-82706392D01*
X162663357Y-82698457D01*
X162662842Y-82690534D01*
X162662347Y-82682611D01*
X162661872Y-82674700D01*
X162661418Y-82666789D01*
X162660985Y-82658890D01*
X162660571Y-82650993D01*
X162660179Y-82643107D01*
X162659806Y-82635222D01*
X162659454Y-82627350D01*
X162659122Y-82619479D01*
X162658811Y-82611620D01*
X162658520Y-82603763D01*
X162658249Y-82595918D01*
X162657998Y-82588076D01*
X162657768Y-82580245D01*
X162657558Y-82572417D01*
X162657368Y-82564602D01*
X162657199Y-82556789D01*
X162657049Y-82548989D01*
X162656920Y-82541191D01*
X162656811Y-82533407D01*
X162656722Y-82525625D01*
X162656653Y-82517857D01*
X162656604Y-82510091D01*
X162656576Y-82502339D01*
X162656567Y-82494589D01*
X162656579Y-82486854D01*
X162656610Y-82479121D01*
X162656661Y-82471403D01*
X162656733Y-82463687D01*
X162656824Y-82455986D01*
X162656935Y-82448288D01*
X162657066Y-82440604D01*
X162657217Y-82432924D01*
X162657388Y-82425259D01*
X162657579Y-82417596D01*
X162657789Y-82409949D01*
X162658019Y-82402305D01*
X162658269Y-82394677D01*
X162658539Y-82387052D01*
X162658828Y-82379442D01*
X162659138Y-82371836D01*
X162659466Y-82364245D01*
X162659815Y-82356659D01*
X162660182Y-82349088D01*
X162660570Y-82341520D01*
X162660977Y-82333969D01*
X162661403Y-82326422D01*
X162661849Y-82318891D01*
X162662315Y-82311364D01*
X162662800Y-82303853D01*
X162663304Y-82296346D01*
X162663828Y-82288856D01*
X162664371Y-82281370D01*
X162664933Y-82273901D01*
X162665515Y-82266436D01*
X162666115Y-82258988D01*
X162666736Y-82251544D01*
X162667375Y-82244117D01*
X162668033Y-82236695D01*
X162668711Y-82229290D01*
X162669408Y-82221889D01*
X162670123Y-82214506D01*
X162670858Y-82207127D01*
X162671612Y-82199766D01*
X162672385Y-82192410D01*
X162673176Y-82185071D01*
X162673987Y-82177738D01*
X162674817Y-82170421D01*
X162675666Y-82163110D01*
X162676532Y-82155817D01*
X162677419Y-82148529D01*
X162678323Y-82141259D01*
X162679247Y-82133994D01*
X162680189Y-82126747D01*
X162681151Y-82119505D01*
X162682130Y-82112281D01*
X162683128Y-82105063D01*
X162684145Y-82097863D01*
X162685180Y-82090669D01*
X162686234Y-82083493D01*
X162687307Y-82076322D01*
X162688397Y-82069170D01*
X162689506Y-82062024D01*
X162690634Y-82054896D01*
X162691780Y-82047774D01*
X162692944Y-82040671D01*
X162694127Y-82033574D01*
X162695327Y-82026495D01*
X162696546Y-82019422D01*
X162697783Y-82012368D01*
X162699039Y-82005320D01*
X162700000Y-82000000D01*
X164159808Y-84602115D02*
X164149768Y-84594130D01*
X164139768Y-84586074D01*
X164129808Y-84577948D01*
X164119887Y-84569751D01*
X164110007Y-84561484D01*
X164100167Y-84553146D01*
X164090369Y-84544739D01*
X164080612Y-84536262D01*
X164070897Y-84527715D01*
X164061224Y-84519099D01*
X164051593Y-84510414D01*
X164042006Y-84501660D01*
X164032462Y-84492838D01*
X164022962Y-84483947D01*
X164013506Y-84474988D01*
X164004095Y-84465961D01*
X163994728Y-84456867D01*
X163985407Y-84447705D01*
X163976132Y-84438477D01*
X163966903Y-84429181D01*
X163957721Y-84419820D01*
X163948586Y-84410392D01*
X163939499Y-84400898D01*
X163930459Y-84391339D01*
X163921468Y-84381714D01*
X163912526Y-84372025D01*
X163903633Y-84362272D01*
X163894790Y-84352454D01*
X163885997Y-84342573D01*
X163877255Y-84332629D01*
X163868563Y-84322621D01*
X163859924Y-84312551D01*
X163851336Y-84302419D01*
X163842801Y-84292225D01*
X163834319Y-84281970D01*
X163825891Y-84271655D01*
X163817516Y-84261279D01*
X163809196Y-84250843D01*
X163800930Y-84240347D01*
X163792720Y-84229793D01*
X163784566Y-84219180D01*
X163776468Y-84208509D01*
X163768426Y-84197781D01*
X163760442Y-84186996D01*
X163752516Y-84176155D01*
X163744648Y-84165257D01*
X163736839Y-84154305D01*
X163729089Y-84143298D01*
X163721398Y-84132236D01*
X163713768Y-84121121D01*
X163706198Y-84109954D01*
X163698689Y-84098733D01*
X163691242Y-84087462D01*
X163683857Y-84076139D01*
X163676535Y-84064765D01*
X163669275Y-84053342D01*
X163662079Y-84041870D01*
X163654947Y-84030349D01*
X163647880Y-84018780D01*
X163640877Y-84007164D01*
X163633940Y-83995502D01*
X163627068Y-83983795D01*
X163620263Y-83972042D01*
X163613525Y-83960245D01*
X163606854Y-83948404D01*
X163600250Y-83936521D01*
X163593715Y-83924596D01*
X163587248Y-83912630D01*
X163580851Y-83900623D01*
X163574522Y-83888576D01*
X163568264Y-83876491D01*
X163562076Y-83864367D01*
X163555959Y-83852207D01*
X163549913Y-83840010D01*
X163543938Y-83827777D01*
X163538036Y-83815510D01*
X163532206Y-83803209D01*
X163526449Y-83790875D01*
X163520765Y-83778508D01*
X163515154Y-83766110D01*
X163509618Y-83753682D01*
X163504156Y-83741225D01*
X163498769Y-83728738D01*
X163493457Y-83716224D01*
X163488220Y-83703684D01*
X163483060Y-83691117D01*
X163477975Y-83678525D01*
X163472967Y-83665909D01*
X163468036Y-83653270D01*
X163465599Y-83646942D01*
X163463181Y-83640609D01*
X163460783Y-83634270D01*
X163458405Y-83627926D01*
X163456046Y-83621577D01*
X163453706Y-83615223D01*
X163451386Y-83608864D01*
X163449085Y-83602501D01*
X163446804Y-83596132D01*
X163444543Y-83589760D01*
X163442301Y-83583383D01*
X163440079Y-83577001D01*
X163437877Y-83570616D01*
X163435694Y-83564226D01*
X163433531Y-83557833D01*
X163431389Y-83551436D01*
X163429265Y-83545035D01*
X163427162Y-83538631D01*
X163425079Y-83532223D01*
X163423016Y-83525812D01*
X163420973Y-83519398D01*
X163418949Y-83512980D01*
X163416946Y-83506560D01*
X163414963Y-83500137D01*
X163413000Y-83493711D01*
X163411057Y-83487283D01*
X163409134Y-83480852D01*
X163407231Y-83474419D01*
X163405349Y-83467984D01*
X163403487Y-83461546D01*
X163401645Y-83455107D01*
X163399823Y-83448665D01*
X163398022Y-83442223D01*
X163396241Y-83435778D01*
X163394480Y-83429332D01*
X163392740Y-83422884D01*
X163391020Y-83416436D01*
X163389320Y-83409985D01*
X163387641Y-83403535D01*
X163385982Y-83397083D01*
X163384344Y-83390631D01*
X163382726Y-83384177D01*
X163381129Y-83377724D01*
X163379552Y-83371270D01*
X163377996Y-83364816D01*
X163376460Y-83358361D01*
X163374945Y-83351907D01*
X163373450Y-83345452D01*
X163371976Y-83338999D01*
X163370523Y-83332544D01*
X163369090Y-83326091D01*
X163367678Y-83319637D01*
X163366286Y-83313186D01*
X163364915Y-83306734D01*
X163363565Y-83300284D01*
X163362235Y-83293834D01*
X163360926Y-83287386D01*
X163359638Y-83280938D01*
X163358370Y-83274494D01*
X163357123Y-83268048D01*
X163355897Y-83261607D01*
X163354691Y-83255165D01*
X163353507Y-83248727D01*
X163352342Y-83242289D01*
X163351199Y-83235855D01*
X163350076Y-83229421D01*
X163348974Y-83222992D01*
X163347892Y-83216563D01*
X163346832Y-83210139D01*
X163345792Y-83203715D01*
X163344773Y-83197296D01*
X163343774Y-83190878D01*
X163342797Y-83184465D01*
X163341839Y-83178052D01*
X163340903Y-83171646D01*
X163339987Y-83165240D01*
X163339093Y-83158841D01*
X163338218Y-83152442D01*
X163337365Y-83146049D01*
X163336532Y-83139658D01*
X163335720Y-83133273D01*
X163334928Y-83126889D01*
X163334157Y-83120513D01*
X163333407Y-83114138D01*
X163332678Y-83107770D01*
X163331969Y-83101403D01*
X163331281Y-83095044D01*
X163330613Y-83088686D01*
X163329966Y-83082337D01*
X163329339Y-83075989D01*
X163328734Y-83069649D01*
X163328148Y-83063311D01*
X163327584Y-83056981D01*
X163327040Y-83050654D01*
X163326516Y-83044335D01*
X163326013Y-83038018D01*
X163325531Y-83031710D01*
X163325069Y-83025405D01*
X163324627Y-83019108D01*
X163324206Y-83012814D01*
X163323806Y-83006530D01*
X163323426Y-83000248D01*
X163323066Y-82993976D01*
X163322727Y-82987706D01*
X163322408Y-82981446D01*
X163322109Y-82975189D01*
X163321831Y-82968943D01*
X163321573Y-82962699D01*
X163321336Y-82956466D01*
X163321118Y-82950236D01*
X163320921Y-82944016D01*
X163320745Y-82937800D01*
X163320588Y-82931595D01*
X163320452Y-82925393D01*
X163320336Y-82919202D01*
X163320240Y-82913015D01*
X163320164Y-82906839D01*
X163320108Y-82900666D01*
X163320072Y-82894506D01*
X163320057Y-82888348D01*
X163320061Y-82882203D01*
X163320086Y-82876062D01*
X163320130Y-82869933D01*
X163320194Y-82863807D01*
X163320279Y-82857694D01*
X163320383Y-82851585D01*
X163320507Y-82845489D01*
X163320651Y-82839397D01*
X163320815Y-82833317D01*
X163320998Y-82827242D01*
X163321201Y-82821179D01*
X163321425Y-82815121D01*
X163321667Y-82809077D01*
X163321930Y-82803036D01*
X163322212Y-82797009D01*
X163322513Y-82790987D01*
X163322835Y-82784978D01*
X163323176Y-82778974D01*
X163323536Y-82772983D01*
X163323916Y-82766998D01*
X163324315Y-82761026D01*
X163324734Y-82755059D01*
X163325172Y-82749106D01*
X163325629Y-82743159D01*
X163326106Y-82737225D01*
X163326602Y-82731297D01*
X163327118Y-82725383D01*
X163327653Y-82719475D01*
X163328206Y-82713581D01*
X163328779Y-82707692D01*
X163329371Y-82701818D01*
X163329983Y-82695949D01*
X163330613Y-82690096D01*
X163331262Y-82684248D01*
X163331930Y-82678415D01*
X163332618Y-82672588D01*
X163333324Y-82666775D01*
X163334049Y-82660969D01*
X163334793Y-82655178D01*
X163335556Y-82649393D01*
X163336337Y-82643623D01*
X163337138Y-82637859D01*
X163337956Y-82632111D01*
X163338795Y-82626369D01*
X163339650Y-82620643D01*
X163340526Y-82614922D01*
X163341419Y-82609218D01*
X163342331Y-82603520D01*
X163343261Y-82597838D01*
X163344211Y-82592162D01*
X163345178Y-82586502D01*
X163346164Y-82580849D01*
X163347168Y-82575212D01*
X163348191Y-82569581D01*
X163349231Y-82563967D01*
X163350290Y-82558359D01*
X163351367Y-82552768D01*
X163352463Y-82547183D01*
X163353576Y-82541615D01*
X163354708Y-82536053D01*
X163355857Y-82530509D01*
X163357025Y-82524971D01*
X163358210Y-82519449D01*
X163359414Y-82513935D01*
X163360635Y-82508438D01*
X163361874Y-82502947D01*
X163363131Y-82497474D01*
X163364406Y-82492007D01*
X163365698Y-82486558D01*
X163367009Y-82481115D01*
X163368337Y-82475690D01*
X163369683Y-82470272D01*
X163371045Y-82464871D01*
X163372427Y-82459477D01*
X163373824Y-82454101D01*
X163375241Y-82448731D01*
X163376674Y-82443380D01*
X163378125Y-82438035D01*
X163379592Y-82432708D01*
X163381078Y-82427389D01*
X163382580Y-82422086D01*
X163384101Y-82416792D01*
X163385637Y-82411515D01*
X163387193Y-82406245D01*
X163388763Y-82400993D01*
X163390353Y-82395749D01*
X163391958Y-82390522D01*
X163393581Y-82385304D01*
X163395220Y-82380102D01*
X163396878Y-82374909D01*
X163398551Y-82369733D01*
X163400242Y-82364565D01*
X163401949Y-82359415D01*
X163403674Y-82354273D01*
X163405415Y-82349148D01*
X163407173Y-82344032D01*
X163408947Y-82338933D01*
X163410739Y-82333843D01*
X163412546Y-82328770D01*
X163414372Y-82323706D01*
X163416212Y-82318659D01*
X163418071Y-82313620D01*
X163419944Y-82308600D01*
X163421836Y-82303587D01*
X163423743Y-82298593D01*
X163425667Y-82293607D01*
X163427606Y-82288638D01*
X163429564Y-82283679D01*
X163431536Y-82278737D01*
X163433525Y-82273803D01*
X163435530Y-82268888D01*
X163437552Y-82263981D01*
X163439589Y-82259092D01*
X163441644Y-82254211D01*
X163443713Y-82249349D01*
X163445800Y-82244495D01*
X163447902Y-82239659D01*
X163450021Y-82234832D01*
X163452154Y-82230022D01*
X163454305Y-82225222D01*
X163456471Y-82220439D01*
X163458654Y-82215665D01*
X163460851Y-82210909D01*
X163463066Y-82206163D01*
X163465295Y-82201433D01*
X163467541Y-82196714D01*
X163469802Y-82192011D01*
X163472080Y-82187318D01*
X163474371Y-82182643D01*
X163476681Y-82177977D01*
X163479004Y-82173328D01*
X163481345Y-82168689D01*
X163483699Y-82164068D01*
X163486071Y-82159456D01*
X163488457Y-82154861D01*
X163490860Y-82150276D01*
X163493277Y-82145709D01*
X163495711Y-82141151D01*
X163498158Y-82136611D01*
X163500623Y-82132080D01*
X163503102Y-82127567D01*
X163505597Y-82123063D01*
X163508107Y-82118577D01*
X163510633Y-82114101D01*
X163513173Y-82109642D01*
X163515730Y-82105193D01*
X163518300Y-82100762D01*
X163520888Y-82096340D01*
X163523489Y-82091935D01*
X163526107Y-82087541D01*
X163528738Y-82083164D01*
X163531386Y-82078797D01*
X163534048Y-82074447D01*
X163536726Y-82070107D01*
X163539418Y-82065784D01*
X163542127Y-82061472D01*
X163544849Y-82057177D01*
X163547588Y-82052892D01*
X163550340Y-82048624D01*
X163553109Y-82044366D01*
X163555890Y-82040125D01*
X163558689Y-82035895D01*
X163561501Y-82031682D01*
X163564330Y-82027479D01*
X163567172Y-82023293D01*
X163570030Y-82019118D01*
X163572902Y-82014959D01*
X163575790Y-82010811D01*
X163578691Y-82006680D01*
X163581609Y-82002560D01*
X163584540Y-81998456D01*
X163587488Y-81994363D01*
X163590380Y-81990380D01*
D12*
X165500000Y-82900000D02*
X165492258Y-82895308D01*
X165484562Y-82890551D01*
X165476913Y-82885728D01*
X165469312Y-82880842D01*
X165461759Y-82875891D01*
X165454255Y-82870876D01*
X165450520Y-82868345D01*
X165446799Y-82865798D01*
X165443089Y-82863235D01*
X165439393Y-82860657D01*
X165435708Y-82858063D01*
X165432036Y-82855453D01*
X165428377Y-82852827D01*
X165424730Y-82850186D01*
X165421096Y-82847530D01*
X165417475Y-82844858D01*
X165413866Y-82842171D01*
X165410271Y-82839468D01*
X165406688Y-82836750D01*
X165403118Y-82834017D01*
X165399561Y-82831268D01*
X165396018Y-82828505D01*
X165392487Y-82825726D01*
X165388970Y-82822932D01*
X165385466Y-82820123D01*
X165381975Y-82817300D01*
X165378498Y-82814461D01*
X165375034Y-82811607D01*
X165371583Y-82808739D01*
X165368146Y-82805856D01*
X165364722Y-82802958D01*
X165361313Y-82800045D01*
X165357916Y-82797118D01*
X165354534Y-82794176D01*
X165351165Y-82791220D01*
X165347810Y-82788249D01*
X165344469Y-82785264D01*
X165341142Y-82782265D01*
X165337829Y-82779251D01*
X165334530Y-82776223D01*
X165331245Y-82773180D01*
X165327975Y-82770124D01*
X165324718Y-82767054D01*
X165321476Y-82763969D01*
X165318248Y-82760870D01*
X165315034Y-82757758D01*
X165311835Y-82754632D01*
X165308650Y-82751491D01*
X165305480Y-82748337D01*
X165302325Y-82745170D01*
X165299184Y-82741988D01*
X165296057Y-82738793D01*
X165292945Y-82735585D01*
X165289848Y-82732362D01*
X165286766Y-82729127D01*
X165283699Y-82725878D01*
X165280647Y-82722616D01*
X165277609Y-82719340D01*
X165274587Y-82716051D01*
X165271580Y-82712749D01*
X165268588Y-82709434D01*
X165265611Y-82706106D01*
X165262649Y-82702765D01*
X165259702Y-82699411D01*
X165256771Y-82696044D01*
X165253855Y-82692664D01*
X165250954Y-82689271D01*
X165248069Y-82685866D01*
X165245200Y-82682448D01*
X165242345Y-82679017D01*
X165239507Y-82675574D01*
X165236684Y-82672118D01*
X165233877Y-82668650D01*
X165231085Y-82665169D01*
X165228309Y-82661677D01*
X165225549Y-82658171D01*
X165222805Y-82654654D01*
X165220077Y-82651124D01*
X165217364Y-82647583D01*
X165214668Y-82644029D01*
X165211988Y-82640464D01*
X165209323Y-82636886D01*
X165206675Y-82633296D01*
X165204043Y-82629695D01*
X165201427Y-82626082D01*
X165198827Y-82622457D01*
X165196244Y-82618821D01*
X165193676Y-82615172D01*
X165191126Y-82611513D01*
X165188591Y-82607842D01*
X165186074Y-82604160D01*
X165183572Y-82600465D01*
X165181087Y-82596761D01*
X165178619Y-82593044D01*
X165176167Y-82589317D01*
X165173731Y-82585578D01*
X165171313Y-82581828D01*
X165168911Y-82578067D01*
X165166526Y-82574296D01*
X165164158Y-82570513D01*
X165161806Y-82566720D01*
X165159472Y-82562915D01*
X165157154Y-82559100D01*
X165154853Y-82555274D01*
X165152569Y-82551439D01*
X165150302Y-82547591D01*
X165148053Y-82543734D01*
X165145820Y-82539866D01*
X165143604Y-82535989D01*
X165141406Y-82532100D01*
X165139225Y-82528201D01*
X165137060Y-82524292D01*
X165134914Y-82520373D01*
X165132784Y-82516444D01*
X165130672Y-82512505D01*
X165128577Y-82508555D01*
X165126500Y-82504597D01*
X165124439Y-82500627D01*
X165122397Y-82496649D01*
X165120372Y-82492660D01*
X165118364Y-82488662D01*
X165116374Y-82484653D01*
X165114402Y-82480636D01*
X165112447Y-82476609D01*
X165110510Y-82472573D01*
X165108590Y-82468526D01*
X165106688Y-82464471D01*
X165104804Y-82460406D01*
X165102938Y-82456333D01*
X165101089Y-82452249D01*
X165099259Y-82448158D01*
X165097445Y-82444056D01*
X165095651Y-82439946D01*
X165093873Y-82435826D01*
X165092115Y-82431698D01*
X165090373Y-82427561D01*
X165088650Y-82423415D01*
X165086945Y-82419260D01*
X165085258Y-82415097D01*
X165083589Y-82410924D01*
X165081938Y-82406744D01*
X165080305Y-82402554D01*
X165078691Y-82398357D01*
X165077095Y-82394151D01*
X165075517Y-82389937D01*
X165073957Y-82385713D01*
X165072415Y-82381483D01*
X165070892Y-82377243D01*
X165069387Y-82372996D01*
X165067900Y-82368739D01*
X165066432Y-82364476D01*
X165064982Y-82360204D01*
X165063551Y-82355925D01*
X165062138Y-82351636D01*
X165060744Y-82347342D01*
X165059368Y-82343038D01*
X165058011Y-82338727D01*
X165056672Y-82334408D01*
X165055352Y-82330082D01*
X165054050Y-82325747D01*
X165052767Y-82321406D01*
X165051502Y-82317057D01*
X165050257Y-82312701D01*
X165049030Y-82308336D01*
X165047822Y-82303965D01*
X165046632Y-82299586D01*
X165045462Y-82295201D01*
X165044310Y-82290807D01*
X165043177Y-82286407D01*
X165042062Y-82281999D01*
X165040967Y-82277586D01*
X165039890Y-82273164D01*
X165038833Y-82268736D01*
X165037794Y-82264300D01*
X165036774Y-82259858D01*
X165035773Y-82255409D01*
X165034792Y-82250954D01*
X165033829Y-82246491D01*
X165032885Y-82242022D01*
X165031961Y-82237546D01*
X165031055Y-82233064D01*
X165030169Y-82228574D01*
X165029301Y-82224080D01*
X165028453Y-82219577D01*
X165027624Y-82215070D01*
X165026814Y-82210554D01*
X165026024Y-82206034D01*
X165025252Y-82201506D01*
X165024500Y-82196974D01*
X165023767Y-82192433D01*
X165023054Y-82187888D01*
X165022359Y-82183336D01*
X165021684Y-82178779D01*
X165021029Y-82174214D01*
X165020392Y-82169645D01*
X165019776Y-82165069D01*
X165019178Y-82160488D01*
X165018600Y-82155900D01*
X165018042Y-82151308D01*
X165017502Y-82146708D01*
X165016983Y-82142104D01*
X165016483Y-82137493D01*
X165016002Y-82132878D01*
X165015541Y-82128256D01*
X165015100Y-82123630D01*
X165014678Y-82118997D01*
X165014276Y-82114360D01*
X165013893Y-82109716D01*
X165013530Y-82105068D01*
X165013187Y-82100414D01*
X165012863Y-82095756D01*
X165012559Y-82091091D01*
X165012275Y-82086422D01*
X165012010Y-82081746D01*
X165011766Y-82077067D01*
X165011541Y-82072382D01*
X165011336Y-82067692D01*
X165011151Y-82062997D01*
X165010985Y-82058298D01*
X165010839Y-82053592D01*
X165010714Y-82048883D01*
X165010608Y-82044168D01*
X165010522Y-82039450D01*
X165010456Y-82034725D01*
X165010410Y-82029997D01*
X165010384Y-82025263D01*
X165010378Y-82020525D01*
X165010392Y-82015782D01*
X165010426Y-82011035D01*
X165010480Y-82006283D01*
X165010554Y-82001527D01*
X165010649Y-81996766D01*
X165010763Y-81992001D01*
X165010898Y-81987231D01*
X165011052Y-81982458D01*
X165011227Y-81977679D01*
X165011422Y-81972897D01*
X165011637Y-81968110D01*
X165011873Y-81963319D01*
X165012129Y-81958524D01*
X165012404Y-81953725D01*
X165012701Y-81948921D01*
X165013017Y-81944114D01*
X165013354Y-81939302D01*
X165013711Y-81934487D01*
X165014089Y-81929667D01*
X165014487Y-81924845D01*
X165014906Y-81920017D01*
X165015344Y-81915186D01*
X165015804Y-81910351D01*
X165016284Y-81905513D01*
X165016784Y-81900669D01*
X165017305Y-81895824D01*
X165017846Y-81890973D01*
X165018408Y-81886120D01*
X165018990Y-81881263D01*
X165019593Y-81876402D01*
X165020217Y-81871537D01*
X165020861Y-81866670D01*
X165021527Y-81861798D01*
X165022212Y-81856924D01*
X165022919Y-81852045D01*
X165023646Y-81847164D01*
X165024394Y-81842279D01*
X165025162Y-81837391D01*
X165025952Y-81832499D01*
X165026762Y-81827604D01*
X165027593Y-81822706D01*
X165028445Y-81817805D01*
X165029317Y-81812900D01*
X165030211Y-81807993D01*
X165031126Y-81803081D01*
X165032061Y-81798168D01*
X165033018Y-81793251D01*
X165033995Y-81788331D01*
X165034994Y-81783408D01*
X165036013Y-81778482D01*
X165037054Y-81773553D01*
X165038115Y-81768622D01*
X165039198Y-81763687D01*
X165040302Y-81758750D01*
X165041427Y-81753809D01*
X165042573Y-81748866D01*
X165043741Y-81743920D01*
X165044929Y-81738972D01*
X165046139Y-81734020D01*
X165047370Y-81729067D01*
X165048622Y-81724110D01*
X165049896Y-81719152D01*
X165051191Y-81714189D01*
X165052507Y-81709226D01*
X165053845Y-81704258D01*
X165055204Y-81699290D01*
X165056585Y-81694318D01*
X165057987Y-81689344D01*
X165059411Y-81684367D01*
X165060856Y-81679389D01*
X165062322Y-81674407D01*
X165063810Y-81669424D01*
X165065320Y-81664438D01*
X165066851Y-81659450D01*
X165068404Y-81654459D01*
X165069979Y-81649467D01*
X165071575Y-81644472D01*
X165073193Y-81639476D01*
X165074833Y-81634476D01*
X165076494Y-81629476D01*
X165078178Y-81624472D01*
X165079883Y-81619467D01*
X165081610Y-81614460D01*
X165083358Y-81609451D01*
X165085129Y-81604439D01*
X165086922Y-81599427D01*
X165088736Y-81594412D01*
X165090573Y-81589395D01*
X165092431Y-81584376D01*
X165094312Y-81579356D01*
X165096215Y-81574334D01*
X165098139Y-81569310D01*
X165100086Y-81564284D01*
X165102055Y-81559257D01*
X165104046Y-81554227D01*
X165106059Y-81549197D01*
X165108095Y-81544164D01*
X165110152Y-81539131D01*
X165112232Y-81534095D01*
X165114335Y-81529058D01*
X165116459Y-81524019D01*
X165118606Y-81518979D01*
X165120776Y-81513937D01*
X165122967Y-81508895D01*
X165125182Y-81503850D01*
X165127418Y-81498804D01*
X165129678Y-81493757D01*
X165131959Y-81488709D01*
X165134264Y-81483659D01*
X165136591Y-81478608D01*
X165138940Y-81473555D01*
X165141312Y-81468502D01*
X165143707Y-81463447D01*
X165146125Y-81458391D01*
X165148565Y-81453334D01*
X165151028Y-81448276D01*
X165153514Y-81443217D01*
X165156023Y-81438157D01*
X165158555Y-81433095D01*
X165161109Y-81428033D01*
X165163687Y-81422969D01*
X165166287Y-81417905D01*
X165168910Y-81412840D01*
X165171557Y-81407774D01*
X165174226Y-81402707D01*
X165176918Y-81397639D01*
X165179634Y-81392570D01*
X165182373Y-81387501D01*
X165185135Y-81382430D01*
X165187920Y-81377359D01*
X165190729Y-81372288D01*
X165193560Y-81367215D01*
X165196415Y-81362142D01*
X165199293Y-81357068D01*
X165202195Y-81351994D01*
X165205120Y-81346919D01*
X165208069Y-81341844D01*
X165211041Y-81336768D01*
X165214036Y-81331691D01*
X165217055Y-81326614D01*
X165220098Y-81321536D01*
X165223164Y-81316459D01*
X165226254Y-81311380D01*
X165229367Y-81306302D01*
X165232505Y-81301223D01*
X165235665Y-81296143D01*
X165238850Y-81291064D01*
X165242059Y-81285984D01*
X165245291Y-81280904D01*
X165248547Y-81275823D01*
X165251827Y-81270743D01*
X165255131Y-81265662D01*
X165258459Y-81260581D01*
X165261811Y-81255500D01*
X165265188Y-81250419D01*
X165268588Y-81245338D01*
X165272012Y-81240257D01*
X165275460Y-81235176D01*
X165278933Y-81230095D01*
X165282430Y-81225014D01*
X165285951Y-81219933D01*
X165289496Y-81214852D01*
X165293066Y-81209771D01*
X165300000Y-81200000D01*
D11*
X165643781Y-84368756D02*
X165669793Y-84383227D01*
X165696890Y-84398389D01*
X165725508Y-84414489D01*
X165756394Y-84431952D01*
X165791066Y-84451638D01*
X165833745Y-84475948D01*
X165846315Y-84483116D01*
X165889400Y-84507670D01*
X165910572Y-84519709D01*
X165931519Y-84531591D01*
X165952261Y-84543314D01*
X165972815Y-84554879D01*
X165993199Y-84566286D01*
X166013431Y-84577535D01*
X166033529Y-84588625D01*
X166043534Y-84594111D01*
X166053511Y-84599557D01*
X166063464Y-84604963D01*
X166073395Y-84610330D01*
X166083306Y-84615658D01*
X166093198Y-84620946D01*
X166103076Y-84626194D01*
X166112939Y-84631403D01*
X166122792Y-84636572D01*
X166132636Y-84641702D01*
X166142473Y-84646792D01*
X166152306Y-84651842D01*
X166162137Y-84656853D01*
X166171967Y-84661825D01*
X166181800Y-84666756D01*
X166191638Y-84671648D01*
X166201482Y-84676501D01*
X166211336Y-84681314D01*
X166221201Y-84686087D01*
X166231079Y-84690821D01*
X166240973Y-84695515D01*
X166250885Y-84700170D01*
X166260817Y-84704785D01*
X166270772Y-84709360D01*
X166280752Y-84713896D01*
X166290758Y-84718392D01*
X166300794Y-84722849D01*
X166310861Y-84727266D01*
X166320962Y-84731643D01*
X166331098Y-84735981D01*
X166341273Y-84740279D01*
X166351489Y-84744538D01*
X166361747Y-84748757D01*
X166372049Y-84752936D01*
X166382399Y-84757076D01*
X166392799Y-84761177D01*
X166403250Y-84765237D01*
X166413754Y-84769258D01*
X166424315Y-84773239D01*
X166434935Y-84777181D01*
X166445614Y-84781083D01*
X166456357Y-84784946D01*
X166467164Y-84788769D01*
X166478039Y-84792552D01*
X166488984Y-84796296D01*
X166500000Y-84800000D01*
D13*
%TO.P,L2,1,1_1*%
%TO.N,Net-(U1-SW)*%
X162868109Y-78500000D03*
%TO.P,L2,2,2_2*%
%TO.N,Net-(SW1-B)*%
X165118109Y-78500000D03*
%TD*%
D14*
%TO.P,J1,1,VCC_1*%
%TO.N,+5V*%
X163454809Y-58756990D03*
%TO.P,J1,2,SWDIO_2*%
%TO.N,Net-(J1-SWDIO)*%
X163454809Y-60026990D03*
%TO.P,J1,3,~{RESET}_3*%
%TO.N,RESET*%
X164724809Y-58756990D03*
%TO.P,J1,4,SWCLK_4*%
%TO.N,Net-(J1-SWCLK)*%
X164724809Y-60026990D03*
%TO.P,J1,5,GND_5*%
%TO.N,GND*%
X165994809Y-58756990D03*
%TO.P,J1,6,SWO_6*%
%TO.N,Net-(J1-SWO)*%
X165994809Y-60026990D03*
%TD*%
D15*
%TO.P,C5,1*%
%TO.N,GND*%
X166032500Y-71500000D03*
%TO.P,C5,2*%
%TO.N,VDD*%
X167167500Y-71500000D03*
%TD*%
D16*
%TO.P,SW1,1,A_1*%
%TO.N,+BATT*%
X160275000Y-77750000D03*
%TO.P,SW1,2,B_2*%
%TO.N,Net-(SW1-B)*%
X160275000Y-79250000D03*
%TO.P,SW1,3,C_3*%
%TO.N,+5V*%
X160275000Y-82250000D03*
D17*
%TO.P,SW1,GND*%
%TO.N,N/C*%
X159300000Y-76200000D03*
X157100000Y-76200000D03*
X159300000Y-83800000D03*
X157100000Y-83800000D03*
%TD*%
D18*
%TO.P,R4,1*%
%TO.N,Net-(U3-AP_SDA)*%
X170300000Y-67202500D03*
%TO.P,R4,2*%
%TO.N,VDD*%
X170300000Y-68397500D03*
%TD*%
D19*
%TO.P,R5,1*%
%TO.N,VDD*%
X159100000Y-72197500D03*
%TO.P,R5,2*%
%TO.N,Net-(U5-P0.30{slash}AIN6)*%
X159100000Y-71002500D03*
%TD*%
D20*
%TO.P,U1,1,GND_1*%
%TO.N,GND*%
X164750000Y-76037500D03*
%TO.P,U1,2,SW_2*%
%TO.N,Net-(U1-SW)*%
X162850000Y-76037500D03*
%TO.P,U1,3,VOUT_3*%
%TO.N,VDD*%
X163800000Y-73762500D03*
%TD*%
D21*
%TO.P,C9,1*%
%TO.N,Net-(SW1-B)*%
X166537500Y-77300000D03*
%TO.P,C9,2*%
%TO.N,GND*%
X168262500Y-77300000D03*
%TD*%
D22*
%TO.P,BT1,1,+_1*%
%TO.N,+BATT*%
X173550000Y-73325000D03*
%TO.P,BT1,2,-_2*%
%TO.N,GND*%
X173550000Y-72075000D03*
D23*
%TO.P,BT1,MP*%
%TO.N,N/C*%
X170350000Y-75175000D03*
X170350000Y-70225000D03*
%TD*%
D24*
%TO.P,P1,A1,GND_A1*%
%TO.N,GND*%
X166215058Y-82416947D03*
%TO.P,P1,A4,VBUS_A4*%
%TO.N,+5V*%
X165779347Y-83087883D03*
D25*
%TO.P,P1,A5,CC_A5*%
%TO.N,Net-(P1-CC)*%
X165153012Y-84052354D03*
%TO.P,P1,A6,D+_A6*%
%TO.N,/D-*%
X164608373Y-84891025D03*
%TO.P,P1,A7,D-_A7*%
%TO.N,/D+*%
X164336053Y-85310360D03*
%TO.P,P1,A8*%
%TO.N,N/C*%
X163791414Y-86149031D03*
D24*
%TO.P,P1,A9,VBUS_A9*%
%TO.N,+5V*%
X163165079Y-87113502D03*
%TO.P,P1,A12,GND_A12*%
%TO.N,GND*%
X162729368Y-87784438D03*
%TO.P,P1,B1,GND_B1*%
X162729368Y-87784438D03*
%TO.P,P1,B4,VBUS_B4*%
%TO.N,+5V*%
X163165079Y-87113502D03*
D25*
%TO.P,P1,B5,VCONN_B5*%
%TO.N,unconnected-(P1-VCONN-PadB5)*%
X163519095Y-86568366D03*
%TO.P,P1,B6*%
%TO.N,N/C*%
X164063734Y-85729695D03*
%TO.P,P1,B7*%
X164880693Y-84471690D03*
%TO.P,P1,B8*%
X165425331Y-83633019D03*
D24*
%TO.P,P1,B9,VBUS_B9*%
%TO.N,+5V*%
X165779347Y-83087883D03*
%TO.P,P1,B12,GND_B12*%
%TO.N,GND*%
X166215058Y-82416947D03*
D26*
%TO.P,P1,SH,SHIELD_SH*%
X170850672Y-84091903D03*
D27*
X167328256Y-81804419D03*
D26*
X166144991Y-91338015D03*
D27*
X162622575Y-89050533D03*
%TD*%
D28*
%TO.P,C8,1*%
%TO.N,VDD*%
X162078776Y-72669299D03*
%TO.P,C8,2*%
%TO.N,GND*%
X162078776Y-69544299D03*
%TD*%
D29*
%TO.P,D2,1,K_1*%
%TO.N,+5V*%
X167200000Y-79300000D03*
%TO.P,D2,2,A_2*%
%TO.N,GND*%
X168600000Y-79300000D03*
%TD*%
D18*
%TO.P,R3,1*%
%TO.N,Net-(U3-AP_SCL)*%
X169300000Y-67202500D03*
%TO.P,R3,2*%
%TO.N,VDD*%
X169300000Y-68397500D03*
%TD*%
D30*
%TO.P,TH1,1*%
%TO.N,Net-(U5-P0.30{slash}AIN6)*%
X158997500Y-69900000D03*
%TO.P,TH1,2*%
%TO.N,GND*%
X157802500Y-69900000D03*
%TD*%
D31*
%TO.P,C6,1*%
%TO.N,VDD*%
X167468783Y-70301283D03*
%TO.P,C6,2*%
%TO.N,GND*%
X166666217Y-69498717D03*
%TD*%
D32*
%TO.N,GND*%
X165020000Y-56180000D03*
X162600000Y-60500000D03*
X161082842Y-59411591D03*
X158400000Y-79500000D03*
X169430000Y-58700000D03*
X163900000Y-55400000D03*
X164500000Y-61800000D03*
X158200000Y-76300000D03*
X165000000Y-96700000D03*
X159900000Y-65100000D03*
X173423732Y-59137293D03*
X158000000Y-72700000D03*
X158400000Y-68900000D03*
X163700000Y-64200000D03*
X159200000Y-64000000D03*
X164814422Y-65083909D03*
X165800000Y-55400000D03*
X164598784Y-65816800D03*
X163500000Y-56400000D03*
X164200000Y-63600000D03*
X166600000Y-52500000D03*
X170200000Y-60680000D03*
X164300000Y-82600000D03*
X165200000Y-62800000D03*
X162600000Y-61300000D03*
X164762500Y-71300000D03*
X171100000Y-63800000D03*
X163100000Y-70600000D03*
X155900000Y-60000000D03*
X163100000Y-71400000D03*
X159181271Y-60687530D03*
X167700000Y-94700000D03*
X159174665Y-62363197D03*
X168600000Y-62200000D03*
X157700000Y-58200000D03*
X166600000Y-74400000D03*
X161900000Y-70972500D03*
X162600000Y-62100000D03*
X159500000Y-80700000D03*
X169900000Y-61700000D03*
X163300000Y-63200000D03*
X160600000Y-83800000D03*
X162784889Y-64131807D03*
X159157539Y-61491030D03*
X162585628Y-58264649D03*
X163400000Y-52500000D03*
X163800000Y-69900000D03*
D33*
X166000000Y-57935000D03*
D32*
X170100000Y-59500000D03*
X157962731Y-67619184D03*
X159188051Y-59934884D03*
X169400000Y-64600000D03*
X162600000Y-62900000D03*
X165200000Y-68500000D03*
X164600000Y-64300000D03*
X165200000Y-69700000D03*
X163800000Y-68500000D03*
X161600000Y-58100000D03*
X162786098Y-85380382D03*
X165000000Y-98600000D03*
X162200000Y-57000000D03*
X169400000Y-63100000D03*
X157000000Y-61900000D03*
X165000000Y-70600000D03*
X165500000Y-94300000D03*
X165000000Y-97700000D03*
X159188051Y-63230252D03*
X159174490Y-64806739D03*
X160300000Y-59500000D03*
%TO.N,+BATT*%
X174000000Y-80348393D03*
X170032513Y-90702129D03*
X171564678Y-57988741D03*
X155862822Y-82039759D03*
X163046727Y-53629552D03*
X155862822Y-71521381D03*
X155862822Y-75068603D03*
X168263816Y-54902269D03*
X155862822Y-64441130D03*
X174000000Y-83915000D03*
X174000000Y-76886171D03*
X168124619Y-93688543D03*
X174000000Y-73307883D03*
X172020581Y-87741889D03*
X164103109Y-96599728D03*
X155862822Y-78507447D03*
X174000000Y-69861306D03*
X174000000Y-62868432D03*
X155862822Y-67965720D03*
X160114013Y-56683913D03*
X155900000Y-61000000D03*
X156848833Y-86210434D03*
X174000000Y-66348948D03*
X160749635Y-92150966D03*
X158831936Y-89136880D03*
%TO.N,/D+*%
X162700000Y-82000000D03*
%TO.N,VDD*%
X160763620Y-67233508D03*
D33*
X160000000Y-74710000D03*
D32*
X166520000Y-73080000D03*
X159693466Y-72306534D03*
X169053818Y-73589138D03*
X170278260Y-68400000D03*
%TO.N,Net-(U3-AP_SCL)*%
X169300000Y-67200000D03*
%TO.N,Net-(U3-AP_SDA)*%
X169458858Y-71264998D03*
%TO.N,Net-(J1-SWO)*%
X167750000Y-67293767D03*
%TO.N,Net-(J1-SWCLK)*%
X166400000Y-67200000D03*
%TO.N,Net-(J1-SWDIO)*%
X165400000Y-66200000D03*
%TO.N,Net-(U5-P0.30{slash}AIN6)*%
X159700000Y-70402500D03*
%TO.N,Net-(P1-CC)*%
X166500000Y-84800000D03*
%TO.N,/D-*%
X163600000Y-82000000D03*
%TO.N,+5V*%
X167817775Y-78400000D03*
X171050000Y-66550000D03*
%TO.N,RESET*%
X169046336Y-65790000D03*
X167840380Y-66459620D03*
X168000000Y-75600000D03*
%TD*%
%TO.N,GND*%
D34*
X166215058Y-81775041D02*
X166677583Y-81312516D01*
D35*
X173550000Y-72075000D02*
X173510000Y-72035000D01*
D34*
X166000000Y-57935000D02*
X165994809Y-57940191D01*
D36*
X166110000Y-58890889D02*
X165999889Y-59001000D01*
D34*
X166215058Y-82416947D02*
X166215058Y-81775041D01*
X165944086Y-82220000D02*
X166000000Y-82164086D01*
X165994809Y-57940191D02*
X165994809Y-58756990D01*
%TO.N,+BATT*%
D37*
X171088741Y-57988741D02*
X168263816Y-55163816D01*
X173992612Y-80355781D02*
X174000000Y-80348393D01*
X172020581Y-87741889D02*
X172020581Y-87179419D01*
X155825945Y-64404253D02*
X155825945Y-61074055D01*
X155825945Y-74967431D02*
X155862822Y-75004308D01*
X173992612Y-83907612D02*
X173992612Y-80355781D01*
X171564678Y-58564678D02*
X171564678Y-57988741D01*
X173992612Y-80341005D02*
X173992612Y-76893559D01*
X162298669Y-93700000D02*
X164091652Y-93700000D01*
X168263816Y-55163816D02*
X168263816Y-54902269D01*
X160749635Y-92150966D02*
X162298669Y-93700000D01*
X155825945Y-71484504D02*
X155862822Y-71521381D01*
X155862822Y-71521381D02*
X155825945Y-71558258D01*
X155825945Y-78470570D02*
X155862822Y-78507447D01*
X164103109Y-93688543D02*
X164103109Y-96599728D01*
X157815075Y-77400000D02*
X155862822Y-79352253D01*
X167434642Y-93300000D02*
X168124619Y-92610023D01*
X155862822Y-64441130D02*
X155825945Y-64404253D01*
X163046727Y-54153273D02*
X160300000Y-56900000D01*
X166622960Y-53877040D02*
X163294215Y-53877040D01*
X156848833Y-85748833D02*
X156848833Y-86210434D01*
X157900000Y-77400000D02*
X157815075Y-77400000D01*
X170032513Y-90702129D02*
X170032513Y-89729957D01*
X172020581Y-87179419D02*
X173992612Y-85207388D01*
X160749635Y-91054579D02*
X160749635Y-92150966D01*
X173992612Y-76893559D02*
X174000000Y-76886171D01*
X156848833Y-86210434D02*
X158831936Y-88193537D01*
X174000000Y-83915000D02*
X173992612Y-83907612D01*
X171564678Y-57988741D02*
X171088741Y-57988741D01*
D35*
X160114013Y-56714013D02*
X160300000Y-56900000D01*
D37*
X155862822Y-82039759D02*
X155862822Y-84762822D01*
X174000000Y-66348948D02*
X174000000Y-62868432D01*
X173992612Y-76878783D02*
X173992612Y-73315271D01*
X163294215Y-53877040D02*
X163046727Y-53629552D01*
X155862822Y-79352253D02*
X155862822Y-78507447D01*
X167648189Y-54902269D02*
X166622960Y-53877040D01*
X155862822Y-75068603D02*
X155862822Y-75132898D01*
X174000000Y-62868432D02*
X174000000Y-61000000D01*
X155862822Y-75004308D02*
X155862822Y-75068603D01*
D35*
X160114013Y-56683913D02*
X160114013Y-56714013D01*
D37*
X158831936Y-89136880D02*
X160749635Y-91054579D01*
X155862822Y-82039759D02*
X155862822Y-79352253D01*
X173992612Y-73315271D02*
X174000000Y-73307883D01*
X174000000Y-69861306D02*
X174000000Y-66348948D01*
X173992612Y-83922388D02*
X174000000Y-83915000D01*
X155862822Y-75132898D02*
X155825945Y-75169775D01*
X155900000Y-61000000D02*
X156200000Y-61000000D01*
X157900000Y-77400000D02*
X155825945Y-77400000D01*
X157900000Y-77400000D02*
X156970269Y-77400000D01*
X168263816Y-54902269D02*
X167648189Y-54902269D01*
X173992612Y-85207388D02*
X173992612Y-83922388D01*
X160275000Y-77750000D02*
X159925000Y-77400000D01*
X155825945Y-77400000D02*
X155825945Y-78470570D01*
X174000000Y-80348393D02*
X173992612Y-80341005D01*
X155862822Y-64441130D02*
X155825945Y-64478007D01*
X170032513Y-89729957D02*
X172020581Y-87741889D01*
X155862822Y-84762822D02*
X156848833Y-85748833D01*
X164491652Y-93300000D02*
X167434642Y-93300000D01*
X155825945Y-75169775D02*
X155825945Y-77400000D01*
X164091652Y-93700000D02*
X164103109Y-93688543D01*
X174000000Y-76886171D02*
X173992612Y-76878783D01*
X168124619Y-92610023D02*
X168124619Y-93688543D01*
X170032513Y-90702129D02*
X168124619Y-92610023D01*
X155825945Y-71558258D02*
X155825945Y-74967431D01*
X156970269Y-77400000D02*
X155862822Y-78507447D01*
X163046727Y-53629552D02*
X163046727Y-54153273D01*
X158831936Y-88193537D02*
X158831936Y-89136880D01*
X159925000Y-77400000D02*
X157900000Y-77400000D01*
X155825945Y-61074055D02*
X155900000Y-61000000D01*
X174000000Y-61000000D02*
X171564678Y-58564678D01*
X164103109Y-93688543D02*
X164491652Y-93300000D01*
X156200000Y-61000000D02*
X160300000Y-56900000D01*
X155825945Y-64478007D02*
X155825945Y-71484504D01*
%TO.N,VDD*%
D38*
X169020000Y-73200000D02*
X166640000Y-73200000D01*
D35*
X159700000Y-72313068D02*
X159693466Y-72306534D01*
D38*
X159100000Y-72197500D02*
X159200000Y-72297500D01*
X169053818Y-73589138D02*
X169053818Y-73233818D01*
D35*
X164444106Y-72350000D02*
X164454106Y-72360000D01*
X160010000Y-72350000D02*
X160000000Y-72360000D01*
X164454106Y-72360000D02*
X165800000Y-72360000D01*
D38*
X169053818Y-73233818D02*
X169020000Y-73200000D01*
D35*
X163800000Y-72350000D02*
X160010000Y-72350000D01*
D38*
X170275760Y-68397500D02*
X169300000Y-68397500D01*
D35*
X163800000Y-72350000D02*
X164444106Y-72350000D01*
D38*
X159684432Y-72297500D02*
X159693466Y-72306534D01*
D35*
X159990000Y-74700000D02*
X159700000Y-74410000D01*
D38*
X159200000Y-72297500D02*
X159684432Y-72297500D01*
X166640000Y-73200000D02*
X166520000Y-73080000D01*
X167450000Y-72150000D02*
X166520000Y-73080000D01*
X169300000Y-68397500D02*
X168102500Y-68397500D01*
X167450000Y-70650000D02*
X167450000Y-72150000D01*
X167600000Y-70500000D02*
X167450000Y-70650000D01*
X167600000Y-68900000D02*
X167600000Y-70500000D01*
D35*
X159700000Y-74410000D02*
X159700000Y-72313068D01*
D38*
X168102500Y-68397500D02*
X167600000Y-68900000D01*
D35*
X165800000Y-72360000D02*
X166520000Y-73080000D01*
D37*
X163800000Y-73762500D02*
X163800000Y-72350000D01*
D35*
X160550000Y-72200000D02*
X160400000Y-72350000D01*
X160763620Y-67233508D02*
X160550000Y-67447128D01*
X160550000Y-67447128D02*
X160550000Y-72200000D01*
D38*
X170278260Y-68400000D02*
X170275760Y-68397500D01*
%TO.N,Net-(U3-AP_SDA)*%
D34*
X170320203Y-67202500D02*
X170300000Y-67202500D01*
X169418860Y-71225000D02*
X169144544Y-71225000D01*
X168650000Y-70730456D02*
X168650000Y-69450000D01*
X168650000Y-69450000D02*
X168900000Y-69200000D01*
X170600000Y-69200000D02*
X171050000Y-68750000D01*
X168900000Y-69200000D02*
X170600000Y-69200000D01*
X171050000Y-67932297D02*
X170320203Y-67202500D01*
X169144544Y-71225000D02*
X168650000Y-70730456D01*
X169458858Y-71264998D02*
X169418860Y-71225000D01*
X171050000Y-68750000D02*
X171050000Y-67932297D01*
%TO.N,Net-(J1-SWO)*%
X167736994Y-67280761D02*
X167400000Y-67280761D01*
X166893964Y-61303290D02*
X165994809Y-60404135D01*
X167750000Y-67293767D02*
X167736994Y-67280761D01*
X165994809Y-60404135D02*
X165994809Y-60026990D01*
X167400000Y-67280761D02*
X166893964Y-66774725D01*
X166893964Y-66774725D02*
X166893964Y-61303290D01*
%TO.N,Net-(J1-SWCLK)*%
X166393964Y-66981831D02*
X166393964Y-61463964D01*
X166400000Y-66987868D02*
X166393964Y-66981831D01*
X164956990Y-60026990D02*
X164724809Y-60026990D01*
X166393964Y-61463964D02*
X164956990Y-60026990D01*
X166400000Y-67200000D02*
X166400000Y-66987868D01*
%TO.N,Net-(J1-SWDIO)*%
X165010152Y-60730690D02*
X164433326Y-60730690D01*
X163729626Y-60026990D02*
X163454809Y-60026990D01*
X165893964Y-65706036D02*
X165893964Y-61614502D01*
X165400000Y-66200000D02*
X165893964Y-65706036D01*
X164433326Y-60730690D02*
X163729626Y-60026990D01*
X165893964Y-61614502D02*
X165010152Y-60730690D01*
%TO.N,Net-(U5-P0.30{slash}AIN6)*%
X159700000Y-70402500D02*
X159100000Y-71002500D01*
X159442337Y-69900000D02*
X158997500Y-69900000D01*
X159731036Y-70371464D02*
X159731036Y-70266464D01*
X159700000Y-70402500D02*
X159731036Y-70371464D01*
X159700000Y-70402500D02*
X159700000Y-70157663D01*
X159700000Y-70157663D02*
X159442337Y-69900000D01*
%TO.N,Net-(U1-SW)*%
D37*
X162850000Y-78381891D02*
X162868109Y-78400000D01*
X162850000Y-76037500D02*
X162850000Y-78381891D01*
%TO.N,Net-(SW1-B)*%
X166218109Y-77300000D02*
X165118109Y-78400000D01*
D35*
X161652082Y-80300000D02*
X164568108Y-80300000D01*
X165118109Y-79749999D02*
X165118109Y-78500000D01*
X164568108Y-80300000D02*
X165118109Y-79749999D01*
D37*
X166537500Y-77300000D02*
X166218109Y-77300000D01*
D35*
X160602082Y-79250000D02*
X161652082Y-80300000D01*
X160275000Y-79250000D02*
X160602082Y-79250000D01*
%TO.N,+5V*%
D38*
X167200000Y-79300000D02*
X167200000Y-79017775D01*
D34*
X168660000Y-60920538D02*
X168660000Y-57809462D01*
D38*
X161600000Y-81968629D02*
X162368629Y-81200000D01*
D34*
X163703010Y-58756990D02*
X163454809Y-58756990D01*
X170900000Y-66400000D02*
X168700000Y-66400000D01*
X167790538Y-56940000D02*
X165520000Y-56940000D01*
X168700000Y-66400000D02*
X167893964Y-65593964D01*
D38*
X161600000Y-84800000D02*
X161600000Y-81968629D01*
D34*
X168660000Y-57809462D02*
X167790538Y-56940000D01*
X167817775Y-78400000D02*
X167700000Y-78400000D01*
X167893964Y-65593964D02*
X167893964Y-61695518D01*
X168620109Y-60960429D02*
X168660000Y-60920538D01*
D38*
X165300000Y-81200000D02*
X167200000Y-79300000D01*
D34*
X171050000Y-66550000D02*
X170900000Y-66400000D01*
X165779347Y-83034568D02*
X165779347Y-83087883D01*
D38*
X167200000Y-79017775D02*
X167817775Y-78400000D01*
D34*
X165520000Y-56940000D02*
X163703010Y-58756990D01*
D38*
X160275000Y-82250000D02*
X161504690Y-82250000D01*
X162368629Y-81200000D02*
X165300000Y-81200000D01*
D34*
X167893964Y-61695518D02*
X168620109Y-60969373D01*
X168620109Y-60969373D02*
X168620109Y-60960429D01*
%TO.N,RESET*%
X171260000Y-65790000D02*
X171790000Y-66320000D01*
X167600000Y-57400000D02*
X165770000Y-57400000D01*
X169046336Y-65790000D02*
X171260000Y-65790000D01*
X172010000Y-69736112D02*
X172010000Y-70713888D01*
X169011112Y-74365000D02*
X168690000Y-74686112D01*
X171790000Y-66320000D02*
X171790000Y-69516112D01*
X171400000Y-73439760D02*
X170514760Y-74325000D01*
X168690000Y-74686112D02*
X168690000Y-74690000D01*
X167393964Y-66013204D02*
X167393964Y-61536036D01*
X167393964Y-61536036D02*
X167626710Y-61303290D01*
X169015000Y-74365000D02*
X169011112Y-74365000D01*
X170514760Y-74325000D02*
X169055000Y-74325000D01*
X167635654Y-61303290D02*
X168160109Y-60778835D01*
X167626710Y-61303290D02*
X167635654Y-61303290D01*
X168200000Y-60730000D02*
X168200000Y-58000000D01*
X171400000Y-71323888D02*
X171400000Y-73439760D01*
X168690000Y-74690000D02*
X168000000Y-75380000D01*
X164724809Y-58445191D02*
X164724809Y-58756990D01*
X171790000Y-69516112D02*
X172010000Y-69736112D01*
X168200000Y-58000000D02*
X167600000Y-57400000D01*
X167840380Y-66459620D02*
X167393964Y-66013204D01*
X168000000Y-75380000D02*
X168000000Y-75600000D01*
X172010000Y-70713888D02*
X171400000Y-71323888D01*
X169055000Y-74325000D02*
X169015000Y-74365000D01*
X168160109Y-60769891D02*
X168200000Y-60730000D01*
X165770000Y-57400000D02*
X164724809Y-58445191D01*
X168160109Y-60778835D02*
X168160109Y-60769891D01*
%TD*%
%TA.AperFunction,Conductor*%
%TO.N,GND*%
G36*
X160966395Y-93173438D02*
G01*
X160966408Y-93173444D01*
X160968064Y-93174167D01*
X161006129Y-93200126D01*
X161954514Y-94148512D01*
X162082324Y-94222303D01*
X162224878Y-94260500D01*
X162372461Y-94260500D01*
X163400779Y-94260500D01*
X163435715Y-94265523D01*
X163450713Y-94269927D01*
X163509464Y-94307672D01*
X163510651Y-94309041D01*
X163538127Y-94363902D01*
X163539772Y-94371460D01*
X163542609Y-94397831D01*
X163542609Y-96673519D01*
X163580806Y-96816073D01*
X163654597Y-96943883D01*
X163758954Y-97048240D01*
X163886764Y-97122031D01*
X164029318Y-97160228D01*
X164029320Y-97160228D01*
X164176898Y-97160228D01*
X164176900Y-97160228D01*
X164319454Y-97122031D01*
X164447264Y-97048240D01*
X164551621Y-96943883D01*
X164625412Y-96816073D01*
X164663609Y-96673519D01*
X164663609Y-94002329D01*
X164668632Y-93967393D01*
X164673036Y-93952395D01*
X164710781Y-93893644D01*
X164712150Y-93892457D01*
X164767029Y-93864977D01*
X164774588Y-93863333D01*
X164800941Y-93860500D01*
X167487267Y-93860500D01*
X167522199Y-93865522D01*
X167530076Y-93867834D01*
X167540255Y-93870823D01*
X167595062Y-93904228D01*
X167602250Y-93911766D01*
X167619895Y-93935337D01*
X167676107Y-94032698D01*
X167780464Y-94137055D01*
X167908274Y-94210846D01*
X168050828Y-94249043D01*
X168050830Y-94249043D01*
X168198407Y-94249043D01*
X168198408Y-94249043D01*
X168198410Y-94249043D01*
X168340964Y-94210846D01*
X168340968Y-94210843D01*
X168344194Y-94209979D01*
X168363021Y-94206467D01*
X168376486Y-94205019D01*
X168445243Y-94217427D01*
X168496379Y-94265040D01*
X168513655Y-94332735D01*
X168513571Y-94335087D01*
X168492825Y-94399443D01*
X165167654Y-99387273D01*
X165153916Y-99404381D01*
X165140162Y-99418703D01*
X165107051Y-99443282D01*
X165091722Y-99451098D01*
X165073767Y-99458543D01*
X165063079Y-99462021D01*
X165044171Y-99466569D01*
X165042571Y-99466824D01*
X165025156Y-99469592D01*
X165005792Y-99471129D01*
X164994551Y-99471138D01*
X164975156Y-99469627D01*
X164956125Y-99466629D01*
X164937217Y-99462108D01*
X164926527Y-99458646D01*
X164908563Y-99451227D01*
X164893347Y-99443496D01*
X164860140Y-99418901D01*
X164857972Y-99416647D01*
X164846393Y-99404606D01*
X164832600Y-99387443D01*
X161197865Y-93935339D01*
X160815438Y-93361698D01*
X160800240Y-93329848D01*
X160798421Y-93324018D01*
X160797245Y-93254158D01*
X160834024Y-93194752D01*
X160897082Y-93164662D01*
X160966395Y-93173438D01*
G37*
%TD.AperFunction*%
%TA.AperFunction,Conductor*%
G36*
X162239132Y-82170280D02*
G01*
X162239695Y-82170537D01*
X162283859Y-82204405D01*
X162285290Y-82206138D01*
X162297059Y-82223088D01*
X162315242Y-82254582D01*
X162325082Y-82271625D01*
X162337995Y-82303561D01*
X162346103Y-82336006D01*
X162349731Y-82370268D01*
X162347977Y-82422035D01*
X162346917Y-82434545D01*
X162342258Y-82468803D01*
X162342516Y-82469453D01*
X162341381Y-82475248D01*
X162340509Y-82481664D01*
X162346500Y-82528788D01*
X162347451Y-82541324D01*
X162349318Y-82615944D01*
X162348987Y-82628612D01*
X162346358Y-82662575D01*
X162347034Y-82664033D01*
X162345350Y-82676199D01*
X162354048Y-82722820D01*
X162355731Y-82735366D01*
X162362269Y-82814622D01*
X162362663Y-82827362D01*
X162361968Y-82861165D01*
X162362783Y-82862683D01*
X162361781Y-82875362D01*
X162373063Y-82921218D01*
X162375467Y-82933735D01*
X162386493Y-83012898D01*
X162387603Y-83025654D01*
X162388778Y-83059140D01*
X162389905Y-83060986D01*
X162389596Y-83074359D01*
X162403207Y-83118864D01*
X162406317Y-83131300D01*
X162422164Y-83212230D01*
X162423976Y-83224947D01*
X162426962Y-83258140D01*
X162428376Y-83260202D01*
X162428787Y-83273928D01*
X162444653Y-83317190D01*
X162448451Y-83329484D01*
X162470330Y-83416005D01*
X162472587Y-83427007D01*
X162474554Y-83439426D01*
X162475251Y-83444499D01*
X162475307Y-83444985D01*
X162475309Y-83444995D01*
X162475310Y-83445001D01*
X162479521Y-83457367D01*
X162482034Y-83464747D01*
X162483546Y-83469501D01*
X162484970Y-83474309D01*
X162486290Y-83479120D01*
X162490240Y-83494741D01*
X162491409Y-83499361D01*
X162492243Y-83501457D01*
X162494385Y-83505737D01*
X162498931Y-83515949D01*
X162503025Y-83526398D01*
X162595764Y-83798746D01*
X162598494Y-83807903D01*
X162600867Y-83817153D01*
X162602886Y-83826511D01*
X162603317Y-83828967D01*
X162603321Y-83828978D01*
X162609010Y-83841200D01*
X162609011Y-83841200D01*
X162609295Y-83841810D01*
X162611949Y-83847937D01*
X162614430Y-83854115D01*
X162616740Y-83860345D01*
X162621316Y-83873781D01*
X162621317Y-83873782D01*
X162621318Y-83873785D01*
X162622701Y-83875850D01*
X162627714Y-83884001D01*
X162632401Y-83892325D01*
X162636770Y-83900837D01*
X162757866Y-84160996D01*
X162761517Y-84169688D01*
X162764829Y-84178498D01*
X162767811Y-84187451D01*
X162768659Y-84190361D01*
X162768660Y-84190362D01*
X162771448Y-84194960D01*
X162775745Y-84202045D01*
X162779104Y-84207941D01*
X162782295Y-84213917D01*
X162785329Y-84219994D01*
X162788817Y-84227487D01*
X162790596Y-84231788D01*
X162793029Y-84234691D01*
X162798810Y-84242149D01*
X162804289Y-84249801D01*
X162809492Y-84257686D01*
X162931982Y-84459644D01*
X162938920Y-84485768D01*
X162965781Y-84520447D01*
X162965780Y-84520447D01*
X162973500Y-84530414D01*
X162977645Y-84536092D01*
X162981642Y-84541908D01*
X162985472Y-84547837D01*
X162991999Y-84558599D01*
X162992001Y-84558602D01*
X162994956Y-84561432D01*
X163001335Y-84568010D01*
X163007463Y-84574816D01*
X163013342Y-84581852D01*
X163041250Y-84617884D01*
X163171663Y-84786259D01*
X163176791Y-84793388D01*
X163181663Y-84800693D01*
X163186284Y-84808185D01*
X163189056Y-84813059D01*
X163189065Y-84813070D01*
X163189212Y-84813218D01*
X163196839Y-84820944D01*
X163201882Y-84826369D01*
X163206784Y-84831969D01*
X163211511Y-84837707D01*
X163218291Y-84846460D01*
X163218293Y-84846462D01*
X163222767Y-84849863D01*
X163229556Y-84855413D01*
X163236173Y-84861228D01*
X163242545Y-84867239D01*
X163364625Y-84990898D01*
X163409195Y-85036044D01*
X163412670Y-85039563D01*
X163418334Y-85045700D01*
X163419425Y-85046964D01*
X163426381Y-85055813D01*
X163437714Y-85071661D01*
X163437714Y-85071662D01*
X163450846Y-85090026D01*
X163473829Y-85156008D01*
X163473829Y-85156025D01*
X163474062Y-85160734D01*
X163464127Y-85215849D01*
X163463082Y-85218279D01*
X163453164Y-85236827D01*
X163355668Y-85386957D01*
X163329716Y-85452006D01*
X163329716Y-85452011D01*
X163329479Y-85456270D01*
X163329061Y-85456246D01*
X163325140Y-85486290D01*
X163320933Y-85501342D01*
X163283929Y-85560609D01*
X163283928Y-85560610D01*
X163273755Y-85569660D01*
X163240795Y-85590626D01*
X163240812Y-85590662D01*
X163240542Y-85590787D01*
X163240318Y-85590930D01*
X163239194Y-85591412D01*
X163239185Y-85591417D01*
X163239182Y-85591418D01*
X163190317Y-85641579D01*
X163083346Y-85806299D01*
X163057396Y-85871342D01*
X163057396Y-85871347D01*
X163057159Y-85875606D01*
X163056741Y-85875582D01*
X163052820Y-85905625D01*
X163048613Y-85920677D01*
X163011613Y-85979940D01*
X163001438Y-85988992D01*
X162971736Y-86007880D01*
X162971833Y-86008058D01*
X162969287Y-86009438D01*
X162967964Y-86010280D01*
X162966866Y-86010751D01*
X162966859Y-86010757D01*
X162917994Y-86060918D01*
X162917686Y-86061318D01*
X162916801Y-86062756D01*
X162851636Y-86163100D01*
X162828394Y-86189665D01*
X162817234Y-86199242D01*
X162753540Y-86227962D01*
X162686723Y-86218720D01*
X162675287Y-86213710D01*
X162647250Y-86196691D01*
X162558281Y-86125010D01*
X162555774Y-86122935D01*
X162554837Y-86122138D01*
X162553238Y-86120779D01*
X162550751Y-86118606D01*
X162453047Y-86030916D01*
X162449733Y-86027830D01*
X162446467Y-86024676D01*
X162443252Y-86021456D01*
X162393415Y-85969662D01*
X162393413Y-85969660D01*
X162365413Y-85940559D01*
X162361560Y-85936366D01*
X162359372Y-85933872D01*
X162357783Y-85932061D01*
X162354133Y-85927701D01*
X162292864Y-85851007D01*
X162288877Y-85845734D01*
X162285019Y-85840338D01*
X162281334Y-85834882D01*
X162270455Y-85817809D01*
X162232138Y-85757672D01*
X162228510Y-85751602D01*
X162225044Y-85745407D01*
X162221777Y-85739157D01*
X162178157Y-85649522D01*
X162175662Y-85644061D01*
X162173276Y-85638482D01*
X162171054Y-85632915D01*
X162146977Y-85568035D01*
X162145400Y-85563519D01*
X162143904Y-85558952D01*
X162142507Y-85554392D01*
X162136259Y-85532486D01*
X162122392Y-85483866D01*
X162120763Y-85477523D01*
X162119299Y-85471127D01*
X162118006Y-85464701D01*
X162115804Y-85452014D01*
X162097261Y-85345201D01*
X162079806Y-85244654D01*
X162078770Y-85237427D01*
X162077952Y-85230219D01*
X162077342Y-85222943D01*
X162069148Y-85071662D01*
X162060790Y-84917353D01*
X162060661Y-84914203D01*
X162060640Y-84913479D01*
X162060571Y-84911055D01*
X162060523Y-84907907D01*
X162060472Y-84890159D01*
X162060423Y-84873216D01*
X162060489Y-84868815D01*
X162060497Y-84868559D01*
X162060500Y-84868520D01*
X162060500Y-82293957D01*
X162065521Y-82259030D01*
X162068707Y-82248177D01*
X162106477Y-82189396D01*
X162170031Y-82160367D01*
X162239132Y-82170280D01*
G37*
%TD.AperFunction*%
%TA.AperFunction,Conductor*%
G36*
X164508163Y-81665521D02*
G01*
X164521482Y-81669432D01*
X164580260Y-81707206D01*
X164609286Y-81770761D01*
X164609286Y-81770764D01*
X164610902Y-81782004D01*
X164610889Y-81815176D01*
X164611031Y-81815189D01*
X164610889Y-81816749D01*
X164610889Y-81817385D01*
X164610734Y-81818457D01*
X164610733Y-81818467D01*
X164610732Y-81818475D01*
X164610930Y-81821481D01*
X164611171Y-81832075D01*
X164610960Y-81842613D01*
X164610299Y-81853155D01*
X164609393Y-81861733D01*
X164607862Y-81872053D01*
X164605907Y-81882252D01*
X164603516Y-81892396D01*
X164602495Y-81896034D01*
X164602494Y-81896044D01*
X164602493Y-81896049D01*
X164602187Y-81922176D01*
X164601985Y-81927956D01*
X164601649Y-81933705D01*
X164601174Y-81939495D01*
X164598423Y-81965534D01*
X164598655Y-81966902D01*
X164599018Y-81969203D01*
X164600208Y-81979550D01*
X164600960Y-81989911D01*
X164601276Y-82000347D01*
X164601197Y-82007057D01*
X164600651Y-82017311D01*
X164599683Y-82027512D01*
X164598288Y-82037703D01*
X164597504Y-82042069D01*
X164597504Y-82042087D01*
X164599475Y-82065467D01*
X164599476Y-82065483D01*
X164599891Y-82070396D01*
X164600321Y-82082252D01*
X164599990Y-82110678D01*
X164599990Y-82110680D01*
X164602363Y-82119969D01*
X164605780Y-82140230D01*
X164607185Y-82156885D01*
X164607227Y-82177225D01*
X164607185Y-82177749D01*
X164606423Y-82187250D01*
X164611473Y-82214739D01*
X164613074Y-82226716D01*
X164615424Y-82254582D01*
X164618831Y-82264036D01*
X164624135Y-82283677D01*
X164626253Y-82295212D01*
X164626563Y-82297867D01*
X164627381Y-82303626D01*
X164628388Y-82313647D01*
X164628987Y-82323716D01*
X164629087Y-82329058D01*
X164629088Y-82329064D01*
X164635881Y-82352640D01*
X164637435Y-82358587D01*
X164638837Y-82364549D01*
X164640085Y-82370507D01*
X164641291Y-82377065D01*
X164641294Y-82377082D01*
X164644524Y-82394662D01*
X164644526Y-82394669D01*
X164646823Y-82399505D01*
X164650775Y-82408785D01*
X164654340Y-82418199D01*
X164657528Y-82427776D01*
X164658949Y-82432707D01*
X164661337Y-82442463D01*
X164663317Y-82452253D01*
X164664907Y-82462162D01*
X164665574Y-82467765D01*
X164665578Y-82467782D01*
X164674586Y-82490311D01*
X164676737Y-82496107D01*
X164678737Y-82501937D01*
X164680600Y-82507843D01*
X164687314Y-82531146D01*
X164689653Y-82535027D01*
X164690225Y-82535977D01*
X164695048Y-82544770D01*
X164699512Y-82553750D01*
X164703602Y-82562884D01*
X164705113Y-82566662D01*
X164708454Y-82576107D01*
X164709907Y-82580809D01*
X164711403Y-82585651D01*
X164713966Y-82595315D01*
X164715224Y-82600974D01*
X164715917Y-82602595D01*
X164716524Y-82603587D01*
X164717450Y-82605239D01*
X164727807Y-82625101D01*
X164732995Y-82636398D01*
X164743098Y-82661666D01*
X164743100Y-82661669D01*
X164749562Y-82670310D01*
X164760209Y-82687239D01*
X164766767Y-82699815D01*
X164774543Y-82718204D01*
X164777957Y-82728525D01*
X164777957Y-82728526D01*
X164788281Y-82744239D01*
X164792492Y-82750649D01*
X164792858Y-82751205D01*
X164799167Y-82761950D01*
X164811716Y-82786013D01*
X164819066Y-82794022D01*
X164831336Y-82809772D01*
X164838770Y-82821088D01*
X164848356Y-82838609D01*
X164852775Y-82848504D01*
X164852778Y-82848510D01*
X164869896Y-82869602D01*
X164877239Y-82879640D01*
X164882140Y-82887100D01*
X164883203Y-82888839D01*
X164883473Y-82889843D01*
X164890291Y-82902207D01*
X164901753Y-82927433D01*
X164911564Y-82996610D01*
X164883743Y-83058560D01*
X164850110Y-83098534D01*
X164844049Y-83105227D01*
X164824231Y-83125571D01*
X164717264Y-83290284D01*
X164691313Y-83355330D01*
X164691313Y-83355333D01*
X164691076Y-83359594D01*
X164690658Y-83359570D01*
X164686737Y-83389613D01*
X164682530Y-83404665D01*
X164645530Y-83463928D01*
X164635355Y-83472980D01*
X164605653Y-83491868D01*
X164605750Y-83492046D01*
X164603204Y-83493426D01*
X164601881Y-83494268D01*
X164600783Y-83494739D01*
X164551915Y-83544902D01*
X164444944Y-83709622D01*
X164418994Y-83774665D01*
X164418994Y-83774670D01*
X164418757Y-83778929D01*
X164418577Y-83778919D01*
X164418908Y-83780224D01*
X164414418Y-83808947D01*
X164412161Y-83817024D01*
X164408724Y-83829322D01*
X164371719Y-83888588D01*
X164338252Y-83909871D01*
X164328462Y-83914077D01*
X164328461Y-83914077D01*
X164299362Y-83943946D01*
X164299328Y-83943984D01*
X164279590Y-83964245D01*
X164249449Y-84010658D01*
X164226207Y-84037223D01*
X164215676Y-84046260D01*
X164151982Y-84074979D01*
X164082874Y-84064705D01*
X164076065Y-84061556D01*
X164033260Y-84028874D01*
X164018667Y-84011542D01*
X164013631Y-84005146D01*
X164008815Y-83998598D01*
X164004204Y-83991878D01*
X163878347Y-83794837D01*
X163874221Y-83787888D01*
X163870335Y-83780829D01*
X163866674Y-83773632D01*
X163856910Y-83752790D01*
X163769369Y-83565920D01*
X163762641Y-83551557D01*
X163760191Y-83545974D01*
X163757874Y-83540320D01*
X163755713Y-83534657D01*
X163741606Y-83494742D01*
X163741605Y-83494739D01*
X163719013Y-83430815D01*
X163717712Y-83426932D01*
X163716463Y-83422988D01*
X163715292Y-83419067D01*
X163697429Y-83355334D01*
X163683849Y-83306888D01*
X163682810Y-83302922D01*
X163681811Y-83298834D01*
X163680892Y-83294776D01*
X163679971Y-83290367D01*
X163667726Y-83231713D01*
X163657619Y-83183301D01*
X163656838Y-83179209D01*
X163656093Y-83174901D01*
X163655444Y-83170716D01*
X163648060Y-83117070D01*
X163640262Y-83060415D01*
X163639748Y-83056118D01*
X163639306Y-83051773D01*
X163638943Y-83047435D01*
X163631937Y-82941562D01*
X163631721Y-82937069D01*
X163631622Y-82933735D01*
X163631587Y-82932560D01*
X163631536Y-82928090D01*
X163632244Y-82824928D01*
X163632363Y-82820287D01*
X163632572Y-82815592D01*
X163632861Y-82811016D01*
X163640738Y-82715201D01*
X163641222Y-82710448D01*
X163641803Y-82705661D01*
X163642472Y-82700925D01*
X163657304Y-82608925D01*
X163658193Y-82604042D01*
X163658286Y-82603587D01*
X163658815Y-82600976D01*
X163659180Y-82599178D01*
X163660263Y-82594339D01*
X163662572Y-82584908D01*
X163673621Y-82539796D01*
X163686809Y-82507064D01*
X163695894Y-82491408D01*
X163742540Y-82445466D01*
X163752683Y-82439784D01*
X163770386Y-82432589D01*
X163770237Y-82432229D01*
X163777744Y-82429118D01*
X163777747Y-82429118D01*
X163882754Y-82368492D01*
X163968492Y-82282754D01*
X164029118Y-82177747D01*
X164060500Y-82060626D01*
X164060500Y-81939374D01*
X164032214Y-81833809D01*
X164028025Y-81798771D01*
X164028246Y-81789500D01*
X164028355Y-81784894D01*
X164049628Y-81718345D01*
X164103503Y-81673860D01*
X164111337Y-81670505D01*
X164160136Y-81660500D01*
X164473231Y-81660500D01*
X164508163Y-81665521D01*
G37*
%TD.AperFunction*%
%TA.AperFunction,Conductor*%
G36*
X166356534Y-54442561D02*
G01*
X166381778Y-54449974D01*
X166434523Y-54481269D01*
X167199676Y-55246423D01*
X167199677Y-55246424D01*
X167304034Y-55350781D01*
X167431844Y-55424572D01*
X167574398Y-55462769D01*
X167701640Y-55462769D01*
X167736576Y-55467792D01*
X167758767Y-55474308D01*
X167807784Y-55502028D01*
X167808809Y-55502971D01*
X167808809Y-55502970D01*
X167825604Y-55518422D01*
X167829305Y-55521972D01*
X167926726Y-55619393D01*
X167928713Y-55621380D01*
X167928736Y-55621402D01*
X170634834Y-58327500D01*
X170634855Y-58327522D01*
X170635898Y-58328565D01*
X170640228Y-58332895D01*
X170640229Y-58332896D01*
X170744586Y-58437253D01*
X170822850Y-58482438D01*
X170822852Y-58482440D01*
X170822853Y-58482440D01*
X170868028Y-58508523D01*
X170872394Y-58511043D01*
X170872398Y-58511045D01*
X170895051Y-58517114D01*
X170927487Y-58531003D01*
X170940836Y-58539139D01*
X170987836Y-58590833D01*
X170987841Y-58590843D01*
X170992871Y-58601198D01*
X171002895Y-58634590D01*
X171003387Y-58634493D01*
X171004178Y-58638470D01*
X171035584Y-58755682D01*
X171038147Y-58765245D01*
X171039222Y-58773413D01*
X171045524Y-58788628D01*
X171050536Y-58795159D01*
X171116166Y-58908833D01*
X171116168Y-58908835D01*
X171177157Y-58969824D01*
X171229575Y-59022242D01*
X171229598Y-59022264D01*
X173390573Y-61183239D01*
X173411723Y-61211491D01*
X173424331Y-61234580D01*
X173439500Y-61294009D01*
X173439500Y-62794641D01*
X173439500Y-66275157D01*
X173439500Y-69935097D01*
X173477697Y-70077651D01*
X173551488Y-70205461D01*
X173655845Y-70309818D01*
X173783655Y-70383609D01*
X173926209Y-70421806D01*
X173926211Y-70421806D01*
X174073789Y-70421806D01*
X174073791Y-70421806D01*
X174216345Y-70383609D01*
X174344155Y-70309818D01*
X174448512Y-70205461D01*
X174522303Y-70077651D01*
X174551110Y-69970135D01*
X174565004Y-69937690D01*
X174568185Y-69932471D01*
X174619887Y-69885475D01*
X174688790Y-69873892D01*
X174753017Y-69901398D01*
X174792173Y-69959249D01*
X174793609Y-69963740D01*
X174799500Y-70001505D01*
X174799500Y-71259585D01*
X174794475Y-71294526D01*
X174790564Y-71307843D01*
X174752787Y-71366619D01*
X174689229Y-71395641D01*
X174689220Y-71395642D01*
X174687953Y-71395824D01*
X174629147Y-71390048D01*
X174623852Y-71388184D01*
X174601907Y-71377953D01*
X174510198Y-71323717D01*
X174510187Y-71323713D01*
X174352505Y-71277902D01*
X174352501Y-71277901D01*
X174352495Y-71277900D01*
X174352489Y-71277899D01*
X174341700Y-71277050D01*
X174315654Y-71275000D01*
X174315649Y-71275000D01*
X173800000Y-71275000D01*
X173800000Y-71933170D01*
X173794975Y-71968114D01*
X173790570Y-71983112D01*
X173752827Y-72041855D01*
X173751458Y-72043042D01*
X173696597Y-72070518D01*
X173689039Y-72072163D01*
X173662668Y-72075000D01*
X173550000Y-72075000D01*
X173550000Y-72183170D01*
X173544975Y-72218114D01*
X173540570Y-72233112D01*
X173502827Y-72291855D01*
X173501458Y-72293042D01*
X173446597Y-72320518D01*
X173439039Y-72322163D01*
X173412668Y-72325000D01*
X172202703Y-72325000D01*
X172202898Y-72327480D01*
X172202898Y-72327483D01*
X172202899Y-72327486D01*
X172248718Y-72485198D01*
X172248719Y-72485199D01*
X172315341Y-72597853D01*
X172332314Y-72626552D01*
X172332321Y-72626561D01*
X172448438Y-72742678D01*
X172448447Y-72742685D01*
X172448449Y-72742686D01*
X172543557Y-72798933D01*
X172571068Y-72821037D01*
X172580540Y-72831181D01*
X172611906Y-72893615D01*
X172604538Y-72963095D01*
X172604536Y-72963100D01*
X172597421Y-72980346D01*
X172591123Y-72993393D01*
X172589397Y-72996491D01*
X172542513Y-73102673D01*
X172542512Y-73102677D01*
X172539500Y-73128637D01*
X172539500Y-73521357D01*
X172542509Y-73547311D01*
X172542514Y-73547327D01*
X172542514Y-73547328D01*
X172578629Y-73629119D01*
X172589400Y-73653513D01*
X172589401Y-73653514D01*
X172671486Y-73735599D01*
X172777680Y-73782488D01*
X172803643Y-73785500D01*
X173290285Y-73785499D01*
X173325218Y-73790521D01*
X173340215Y-73794925D01*
X173398967Y-73832670D01*
X173400154Y-73834039D01*
X173427631Y-73888903D01*
X173429276Y-73896462D01*
X173432112Y-73922830D01*
X173432112Y-84906029D01*
X173427088Y-84940966D01*
X173419676Y-84966207D01*
X173388381Y-85018951D01*
X171572072Y-86835259D01*
X171572068Y-86835265D01*
X171498280Y-86963069D01*
X171498279Y-86963070D01*
X171498275Y-86963081D01*
X171460081Y-87105628D01*
X171460081Y-87440530D01*
X171455057Y-87475467D01*
X171447645Y-87500708D01*
X171416350Y-87553452D01*
X169584005Y-89385795D01*
X169584004Y-89385796D01*
X169508108Y-89517250D01*
X169507744Y-89522807D01*
X169487765Y-89597376D01*
X169487765Y-89597378D01*
X169472013Y-89656164D01*
X169472013Y-90400770D01*
X169466989Y-90435707D01*
X169459577Y-90460948D01*
X169428282Y-90513692D01*
X167780466Y-92161509D01*
X167780464Y-92161511D01*
X167493794Y-92448182D01*
X167251402Y-92690573D01*
X167223151Y-92711722D01*
X167200063Y-92724330D01*
X167140633Y-92739500D01*
X166879353Y-92739500D01*
X166844417Y-92734477D01*
X166835491Y-92731856D01*
X166776713Y-92694081D01*
X166747689Y-92630525D01*
X166757633Y-92561366D01*
X166797230Y-92512788D01*
X166801231Y-92509862D01*
X166825470Y-92496029D01*
X166965697Y-92435782D01*
X167128034Y-92324211D01*
X167157695Y-92293763D01*
X167157695Y-92293762D01*
X167157694Y-92293761D01*
X166684126Y-91986222D01*
X166638623Y-91933201D01*
X166629009Y-91863996D01*
X166658336Y-91800579D01*
X166668677Y-91790088D01*
X166710549Y-91752387D01*
X166753571Y-91686139D01*
X166770979Y-91632563D01*
X166810416Y-91574889D01*
X166874774Y-91547691D01*
X166943621Y-91559606D01*
X166956439Y-91566885D01*
X167097111Y-91658239D01*
X167419246Y-91867437D01*
X167430012Y-91874428D01*
X167430014Y-91874427D01*
X167445762Y-91834956D01*
X167445766Y-91834942D01*
X167481662Y-91641273D01*
X167481663Y-91641261D01*
X167479085Y-91444305D01*
X167479084Y-91444297D01*
X167474856Y-91424407D01*
X167450910Y-91311749D01*
X167438131Y-91251626D01*
X167438130Y-91251622D01*
X167434931Y-91244177D01*
X167396633Y-91155036D01*
X167360370Y-91070632D01*
X167304877Y-90989889D01*
X167248800Y-90908295D01*
X167107700Y-90770844D01*
X167107697Y-90770842D01*
X167107696Y-90770841D01*
X166899296Y-90635503D01*
X166899294Y-90635503D01*
X166585583Y-91118576D01*
X166532562Y-91164079D01*
X166463357Y-91173693D01*
X166414053Y-91155036D01*
X166202708Y-91017787D01*
X166157205Y-90964766D01*
X166147591Y-90895561D01*
X166166246Y-90846260D01*
X166479962Y-90363183D01*
X166479960Y-90363182D01*
X166479961Y-90363182D01*
X166271561Y-90227846D01*
X166088622Y-90154859D01*
X166088609Y-90154855D01*
X166088603Y-90154853D01*
X166088597Y-90154852D01*
X166054043Y-90148447D01*
X165894935Y-90118956D01*
X165894926Y-90118955D01*
X165894925Y-90118955D01*
X165894913Y-90118954D01*
X165894910Y-90118954D01*
X165697963Y-90121531D01*
X165697938Y-90121534D01*
X165505290Y-90162483D01*
X165505271Y-90162487D01*
X165324281Y-90240248D01*
X165161946Y-90351818D01*
X165132284Y-90382266D01*
X165605855Y-90689806D01*
X165651358Y-90742827D01*
X165660972Y-90812032D01*
X165631645Y-90875449D01*
X165621295Y-90885949D01*
X165579432Y-90923644D01*
X165539579Y-90985012D01*
X165536411Y-90989891D01*
X165519002Y-91043466D01*
X165479566Y-91101140D01*
X165415207Y-91128338D01*
X165346361Y-91116423D01*
X165333538Y-91109141D01*
X164859967Y-90801599D01*
X164844216Y-90841079D01*
X164844216Y-90841080D01*
X164844213Y-90841092D01*
X164808321Y-91034741D01*
X164808319Y-91034757D01*
X164808318Y-91034764D01*
X164808318Y-91034777D01*
X164810895Y-91231717D01*
X164810898Y-91231742D01*
X164851847Y-91424390D01*
X164851851Y-91424409D01*
X164929612Y-91605399D01*
X165041180Y-91767733D01*
X165139999Y-91863996D01*
X165182285Y-91905188D01*
X165390683Y-92040524D01*
X165704396Y-91557448D01*
X165757416Y-91511947D01*
X165826621Y-91502333D01*
X165875925Y-91520990D01*
X166087270Y-91658239D01*
X166132773Y-91711260D01*
X166142387Y-91780465D01*
X166123730Y-91829769D01*
X165810017Y-92312844D01*
X165810018Y-92312844D01*
X165810018Y-92312845D01*
X165827522Y-92324212D01*
X166018419Y-92448182D01*
X166132563Y-92493722D01*
X166163145Y-92511330D01*
X166169976Y-92516689D01*
X166210573Y-92573553D01*
X166213982Y-92643339D01*
X166179121Y-92703890D01*
X166122754Y-92734736D01*
X166117616Y-92735986D01*
X166088308Y-92739500D01*
X164417861Y-92739500D01*
X164275314Y-92777694D01*
X164275303Y-92777698D01*
X164275302Y-92777699D01*
X164147497Y-92851487D01*
X164147493Y-92851490D01*
X163908409Y-93090575D01*
X163880157Y-93111725D01*
X163857072Y-93124331D01*
X163797643Y-93139500D01*
X162600028Y-93139500D01*
X162565092Y-93134477D01*
X162539850Y-93127065D01*
X162487105Y-93095769D01*
X161359061Y-91967725D01*
X161337909Y-91939469D01*
X161325302Y-91916380D01*
X161310135Y-91856955D01*
X161310135Y-90980790D01*
X161310135Y-90980788D01*
X161271938Y-90838234D01*
X161198147Y-90710424D01*
X161093790Y-90606067D01*
X161093789Y-90606066D01*
X159441361Y-88953638D01*
X159420209Y-88925382D01*
X159414053Y-88914107D01*
X159414052Y-88914106D01*
X159412119Y-88911098D01*
X159392436Y-88844061D01*
X159392436Y-88119748D01*
X159392436Y-88119746D01*
X159354239Y-87977192D01*
X159280448Y-87849382D01*
X159176091Y-87745025D01*
X159176090Y-87745024D01*
X159171760Y-87740694D01*
X159170738Y-87739672D01*
X159170695Y-87739630D01*
X157458259Y-86027194D01*
X157437107Y-85998938D01*
X157424500Y-85975849D01*
X157409333Y-85916424D01*
X157409333Y-85675043D01*
X157409333Y-85675042D01*
X157402605Y-85649934D01*
X157371136Y-85532488D01*
X157349126Y-85494366D01*
X157297345Y-85404678D01*
X157192988Y-85300321D01*
X157188657Y-85295990D01*
X157187635Y-85294968D01*
X157187592Y-85294926D01*
X156472248Y-84579582D01*
X156451096Y-84551326D01*
X156438489Y-84528237D01*
X156423322Y-84468812D01*
X156423322Y-84441484D01*
X156428344Y-84406552D01*
X156431686Y-84395169D01*
X156432125Y-84393672D01*
X156469898Y-84334895D01*
X156533453Y-84305869D01*
X156596158Y-84313081D01*
X156597052Y-84313430D01*
X156597052Y-84313429D01*
X156643421Y-84331515D01*
X156643420Y-84331517D01*
X156649204Y-84333289D01*
X156704667Y-84357779D01*
X156728120Y-84360500D01*
X156728121Y-84360500D01*
X157471879Y-84360500D01*
X157471880Y-84360500D01*
X157495333Y-84357779D01*
X157591267Y-84315420D01*
X157665420Y-84241267D01*
X157707779Y-84145333D01*
X157710500Y-84121880D01*
X157710500Y-83478120D01*
X157710499Y-83478113D01*
X158689500Y-83478113D01*
X158689500Y-84121882D01*
X158691395Y-84138213D01*
X158691650Y-84142630D01*
X158692220Y-84145333D01*
X158721572Y-84211807D01*
X158721572Y-84211808D01*
X158734576Y-84241261D01*
X158734579Y-84241265D01*
X158734580Y-84241267D01*
X158808733Y-84315420D01*
X158904667Y-84357779D01*
X158928120Y-84360500D01*
X158928121Y-84360500D01*
X159671879Y-84360500D01*
X159671880Y-84360500D01*
X159695333Y-84357779D01*
X159791267Y-84315420D01*
X159865420Y-84241267D01*
X159907779Y-84145333D01*
X159910500Y-84121880D01*
X159910500Y-83478120D01*
X159907779Y-83454667D01*
X159903508Y-83444995D01*
X159902896Y-83443610D01*
X159878958Y-83389393D01*
X159877375Y-83385809D01*
X159865420Y-83358733D01*
X159791267Y-83284580D01*
X159791264Y-83284578D01*
X159786674Y-83282551D01*
X159786672Y-83282551D01*
X159695336Y-83242221D01*
X159671882Y-83239500D01*
X159671881Y-83239500D01*
X159671880Y-83239500D01*
X158928120Y-83239500D01*
X158928118Y-83239500D01*
X158928116Y-83239500D01*
X158916438Y-83240855D01*
X158911784Y-83241395D01*
X158907367Y-83241650D01*
X158904663Y-83242220D01*
X158808730Y-83284580D01*
X158734580Y-83358730D01*
X158692220Y-83454663D01*
X158691650Y-83457367D01*
X158691395Y-83461784D01*
X158689500Y-83478113D01*
X157710499Y-83478113D01*
X157707779Y-83454667D01*
X157703508Y-83444995D01*
X157702896Y-83443610D01*
X157678958Y-83389393D01*
X157677375Y-83385809D01*
X157665420Y-83358733D01*
X157591267Y-83284580D01*
X157591264Y-83284578D01*
X157586674Y-83282551D01*
X157586672Y-83282551D01*
X157495336Y-83242221D01*
X157471882Y-83239500D01*
X157471881Y-83239500D01*
X157471880Y-83239500D01*
X156728120Y-83239500D01*
X156728118Y-83239500D01*
X156728116Y-83239500D01*
X156716438Y-83240855D01*
X156711784Y-83241395D01*
X156707368Y-83241650D01*
X156704663Y-83242221D01*
X156641148Y-83270266D01*
X156629419Y-83274750D01*
X156587616Y-83288348D01*
X156517776Y-83290367D01*
X156457931Y-83254306D01*
X156428485Y-83198529D01*
X156426547Y-83190202D01*
X156423322Y-83162104D01*
X156423322Y-81537622D01*
X157544237Y-81537622D01*
X157574494Y-81689726D01*
X157574495Y-81689732D01*
X157574502Y-81689753D01*
X157623529Y-81808118D01*
X157623534Y-81808128D01*
X157694724Y-81914670D01*
X157694725Y-81914671D01*
X157694730Y-81914677D01*
X157785321Y-82005268D01*
X157785327Y-82005273D01*
X157785328Y-82005274D01*
X157891869Y-82076463D01*
X157891872Y-82076464D01*
X157891873Y-82076465D01*
X158004651Y-82123179D01*
X158009053Y-82125261D01*
X158010252Y-82125499D01*
X158010256Y-82125501D01*
X158010259Y-82125501D01*
X158010260Y-82125501D01*
X158010261Y-82125502D01*
X158107899Y-82144924D01*
X158135927Y-82150500D01*
X158264071Y-82150500D01*
X158264072Y-82150500D01*
X158315699Y-82140230D01*
X158364839Y-82130455D01*
X158389744Y-82125501D01*
X158508127Y-82076465D01*
X158614669Y-82005276D01*
X158705276Y-81914669D01*
X158776465Y-81808127D01*
X158825501Y-81689744D01*
X158834925Y-81642366D01*
X158835495Y-81639502D01*
X158835495Y-81639499D01*
X158836866Y-81632610D01*
X158850500Y-81564071D01*
X158850500Y-81435928D01*
X158850500Y-81435925D01*
X158825262Y-81309055D01*
X158823176Y-81304644D01*
X158776465Y-81191875D01*
X158776465Y-81191873D01*
X158776464Y-81191872D01*
X158776463Y-81191870D01*
X158776463Y-81191869D01*
X158705274Y-81085328D01*
X158705273Y-81085327D01*
X158705268Y-81085321D01*
X158614677Y-80994730D01*
X158614671Y-80994725D01*
X158614670Y-80994724D01*
X158508127Y-80923534D01*
X158508128Y-80923534D01*
X158508118Y-80923529D01*
X158389753Y-80874502D01*
X158389733Y-80874495D01*
X158389725Y-80874493D01*
X158264074Y-80849500D01*
X158264071Y-80849500D01*
X158264069Y-80849500D01*
X158135931Y-80849500D01*
X158135929Y-80849500D01*
X158135926Y-80849500D01*
X158010273Y-80874493D01*
X158010265Y-80874495D01*
X158010245Y-80874502D01*
X157891880Y-80923529D01*
X157891870Y-80923534D01*
X157785328Y-80994724D01*
X157785327Y-80994725D01*
X157785321Y-80994730D01*
X157694730Y-81085321D01*
X157694725Y-81085327D01*
X157694724Y-81085328D01*
X157623534Y-81191870D01*
X157623529Y-81191880D01*
X157574502Y-81310245D01*
X157574495Y-81310265D01*
X157574493Y-81310273D01*
X157549500Y-81435923D01*
X157549500Y-81519702D01*
X157544237Y-81537622D01*
X156423322Y-81537622D01*
X156423322Y-79653610D01*
X156428344Y-79618677D01*
X156431145Y-79609138D01*
X156435756Y-79593432D01*
X156467050Y-79540690D01*
X156900780Y-79106961D01*
X157355909Y-78651830D01*
X157384158Y-78630684D01*
X157394875Y-78624832D01*
X157396338Y-78624032D01*
X157464610Y-78609180D01*
X157530068Y-78633591D01*
X157532236Y-78635213D01*
X157568562Y-78678481D01*
X157571545Y-78684373D01*
X157573434Y-78688105D01*
X157577361Y-78696654D01*
X157623529Y-78808118D01*
X157623534Y-78808128D01*
X157694724Y-78914670D01*
X157694725Y-78914671D01*
X157694730Y-78914677D01*
X157785321Y-79005268D01*
X157785327Y-79005273D01*
X157785328Y-79005274D01*
X157891869Y-79076463D01*
X157891872Y-79076464D01*
X157891873Y-79076465D01*
X158004651Y-79123179D01*
X158009053Y-79125261D01*
X158010252Y-79125499D01*
X158010256Y-79125501D01*
X158010259Y-79125501D01*
X158010260Y-79125501D01*
X158010261Y-79125502D01*
X158107899Y-79144924D01*
X158135927Y-79150500D01*
X158264071Y-79150500D01*
X158264073Y-79150500D01*
X158348615Y-79133682D01*
X158389744Y-79125501D01*
X158508127Y-79076465D01*
X158614669Y-79005276D01*
X158705276Y-78914669D01*
X158721180Y-78890867D01*
X159489500Y-78890867D01*
X159489500Y-79609123D01*
X159492363Y-79633818D01*
X159492368Y-79633834D01*
X159492371Y-79633841D01*
X159536985Y-79734884D01*
X159536988Y-79734888D01*
X159536989Y-79734890D01*
X159536990Y-79734891D01*
X159615109Y-79813010D01*
X159716173Y-79857634D01*
X159740877Y-79860500D01*
X160421436Y-79860499D01*
X160456370Y-79865522D01*
X160481607Y-79872932D01*
X160534354Y-79904228D01*
X161243580Y-80613454D01*
X161338628Y-80708502D01*
X161455036Y-80775710D01*
X161584873Y-80810500D01*
X161719291Y-80810500D01*
X161789691Y-80810500D01*
X161824618Y-80815521D01*
X161835471Y-80818707D01*
X161894252Y-80856477D01*
X161923281Y-80920031D01*
X161913342Y-80989190D01*
X161913338Y-80989199D01*
X161910153Y-80996173D01*
X161885040Y-81032341D01*
X161555997Y-81361385D01*
X161336124Y-81581258D01*
X161335439Y-81581939D01*
X161283972Y-81632610D01*
X161282362Y-81635020D01*
X161231507Y-81685874D01*
X161231003Y-81686574D01*
X161229649Y-81689092D01*
X161216389Y-81712060D01*
X161194567Y-81739808D01*
X161181621Y-81752151D01*
X161119517Y-81784165D01*
X161061119Y-81781382D01*
X161046414Y-81777064D01*
X161041748Y-81774295D01*
X161037113Y-81773928D01*
X161022885Y-81763103D01*
X160993669Y-81745768D01*
X160934891Y-81686990D01*
X160933949Y-81686574D01*
X160932366Y-81685875D01*
X160932363Y-81685873D01*
X160932363Y-81685872D01*
X160833832Y-81642367D01*
X160833830Y-81642366D01*
X160809126Y-81639500D01*
X160809123Y-81639500D01*
X159740885Y-81639500D01*
X159740875Y-81639500D01*
X159716180Y-81642363D01*
X159716164Y-81642368D01*
X159716157Y-81642371D01*
X159615114Y-81686985D01*
X159615109Y-81686989D01*
X159536989Y-81765108D01*
X159492365Y-81866169D01*
X159491795Y-81868874D01*
X159491540Y-81873287D01*
X159489500Y-81890867D01*
X159489500Y-82609123D01*
X159492363Y-82633818D01*
X159492368Y-82633834D01*
X159492371Y-82633841D01*
X159536985Y-82734884D01*
X159536988Y-82734888D01*
X159536989Y-82734890D01*
X159536990Y-82734891D01*
X159615109Y-82813010D01*
X159716173Y-82857634D01*
X159740877Y-82860500D01*
X160809122Y-82860499D01*
X160817083Y-82859575D01*
X160817083Y-82859581D01*
X160817104Y-82859572D01*
X160826732Y-82858456D01*
X160832450Y-82858126D01*
X160833060Y-82858027D01*
X160835679Y-82856816D01*
X160905433Y-82826016D01*
X160920580Y-82824033D01*
X160946627Y-82809810D01*
X160946628Y-82809811D01*
X160953393Y-82806116D01*
X161021665Y-82791265D01*
X161087130Y-82815682D01*
X161129000Y-82871614D01*
X161131682Y-82878803D01*
X161139500Y-82922137D01*
X161139500Y-84827438D01*
X161139344Y-84832295D01*
X161139373Y-84832296D01*
X161139308Y-84834402D01*
X161139379Y-84858824D01*
X161138731Y-84871847D01*
X161137323Y-84885552D01*
X161136969Y-84890159D01*
X161136968Y-84890161D01*
X161139352Y-84934201D01*
X161139483Y-84937379D01*
X161139573Y-84940546D01*
X161139622Y-84943712D01*
X161139748Y-84987735D01*
X161139749Y-84987745D01*
X161140374Y-84992389D01*
X161142549Y-85005918D01*
X161143940Y-85018893D01*
X161157227Y-85264240D01*
X161157388Y-85273162D01*
X161157229Y-85282057D01*
X161156749Y-85290969D01*
X161155491Y-85304919D01*
X161155500Y-85305069D01*
X161155760Y-85306461D01*
X161156542Y-85310963D01*
X161159342Y-85327097D01*
X161160376Y-85334310D01*
X161161201Y-85341575D01*
X161161810Y-85348839D01*
X161162859Y-85368206D01*
X161163028Y-85371323D01*
X161163030Y-85371335D01*
X161167378Y-85384634D01*
X161169842Y-85393205D01*
X161171993Y-85401846D01*
X161173836Y-85410582D01*
X161207807Y-85606264D01*
X161209087Y-85615843D01*
X161209991Y-85625438D01*
X161210522Y-85635069D01*
X161210685Y-85645229D01*
X161210765Y-85645692D01*
X161211435Y-85647860D01*
X161217915Y-85670578D01*
X161219545Y-85676924D01*
X161221017Y-85683361D01*
X161222303Y-85689762D01*
X161225611Y-85708811D01*
X161226528Y-85714090D01*
X161226813Y-85715732D01*
X161226814Y-85715733D01*
X161231076Y-85724937D01*
X161234789Y-85733849D01*
X161238150Y-85742894D01*
X161241159Y-85752072D01*
X161247313Y-85773647D01*
X161249936Y-85784761D01*
X161252039Y-85795953D01*
X161253628Y-85807245D01*
X161253713Y-85808152D01*
X161253714Y-85808158D01*
X161266085Y-85841496D01*
X161267658Y-85846000D01*
X161268450Y-85848414D01*
X161269161Y-85850584D01*
X161270569Y-85855180D01*
X161280168Y-85888835D01*
X161280322Y-85889386D01*
X161280782Y-85890153D01*
X161286206Y-85900235D01*
X161291130Y-85910496D01*
X161295585Y-85920991D01*
X161300051Y-85933024D01*
X161303195Y-85942698D01*
X161305932Y-85952467D01*
X161308272Y-85962363D01*
X161309682Y-85969654D01*
X161309683Y-85969655D01*
X161309685Y-85969662D01*
X161322403Y-85995798D01*
X161324912Y-86001289D01*
X161327286Y-86006839D01*
X161329530Y-86012460D01*
X161339650Y-86039729D01*
X161339651Y-86039730D01*
X161339652Y-86039733D01*
X161343955Y-86045798D01*
X161349491Y-86054320D01*
X161354491Y-86062756D01*
X161354663Y-86063045D01*
X161359491Y-86072011D01*
X161384272Y-86122935D01*
X161388934Y-86132514D01*
X161392620Y-86140857D01*
X161396000Y-86149340D01*
X161399057Y-86157919D01*
X161400692Y-86163100D01*
X161402944Y-86170239D01*
X161402949Y-86170249D01*
X161415635Y-86190160D01*
X161419277Y-86196254D01*
X161422735Y-86202436D01*
X161426013Y-86208711D01*
X161436337Y-86229925D01*
X161436339Y-86229928D01*
X161436341Y-86229932D01*
X161436343Y-86229934D01*
X161437066Y-86230938D01*
X161439211Y-86233240D01*
X161444800Y-86239681D01*
X161450538Y-86246808D01*
X161455990Y-86254117D01*
X161461171Y-86261624D01*
X161496171Y-86316553D01*
X161501013Y-86324843D01*
X161505531Y-86333316D01*
X161509727Y-86341981D01*
X161513894Y-86351512D01*
X161515556Y-86353948D01*
X161518206Y-86356910D01*
X161530184Y-86371904D01*
X161534172Y-86377178D01*
X161538010Y-86382546D01*
X161541712Y-86388028D01*
X161547263Y-86396739D01*
X161555737Y-86410036D01*
X161555740Y-86410041D01*
X161563418Y-86417075D01*
X161570248Y-86423838D01*
X161576789Y-86430837D01*
X161583075Y-86438108D01*
X161618820Y-86482852D01*
X161625028Y-86491337D01*
X161630864Y-86500070D01*
X161636320Y-86509032D01*
X161639055Y-86513987D01*
X161639057Y-86513990D01*
X161660434Y-86536206D01*
X161664297Y-86540410D01*
X161668063Y-86544703D01*
X161671708Y-86549055D01*
X161690979Y-86573177D01*
X161690981Y-86573179D01*
X161690984Y-86573181D01*
X161695513Y-86576518D01*
X161703708Y-86583109D01*
X161711605Y-86590032D01*
X161719218Y-86597300D01*
X161753615Y-86633049D01*
X161761305Y-86641835D01*
X161768555Y-86650950D01*
X161774955Y-86659822D01*
X161775123Y-86660018D01*
X161775126Y-86660022D01*
X161802629Y-86684705D01*
X161805953Y-86687800D01*
X161809207Y-86690943D01*
X161812380Y-86694122D01*
X161838030Y-86720780D01*
X161844597Y-86725610D01*
X161849303Y-86728497D01*
X161856683Y-86733958D01*
X161865747Y-86741355D01*
X161868411Y-86743747D01*
X161868412Y-86743747D01*
X161898037Y-86770335D01*
X161907191Y-86779455D01*
X161914486Y-86787523D01*
X161932712Y-86813843D01*
X161940201Y-86828364D01*
X161953436Y-86896964D01*
X161952815Y-86903488D01*
X161930815Y-86959380D01*
X161928484Y-86966245D01*
X161928484Y-86966246D01*
X161928484Y-86966247D01*
X162746579Y-87497523D01*
X162750277Y-87501832D01*
X162755552Y-87503935D01*
X162773146Y-87520767D01*
X162783325Y-87532629D01*
X162790659Y-87548886D01*
X162792082Y-87550544D01*
X162792382Y-87552705D01*
X162812038Y-87596275D01*
X162812288Y-87598070D01*
X162805446Y-87659064D01*
X162802708Y-87666299D01*
X162790730Y-87689945D01*
X162670453Y-87875157D01*
X162647214Y-87901720D01*
X162635351Y-87911901D01*
X162622088Y-87917882D01*
X162611577Y-87927935D01*
X162590889Y-87931953D01*
X162571670Y-87940621D01*
X162569877Y-87940870D01*
X162554105Y-87939099D01*
X162542989Y-87941259D01*
X162531085Y-87936513D01*
X162508909Y-87934023D01*
X162501670Y-87931283D01*
X162478030Y-87919307D01*
X161656166Y-87385581D01*
X161656164Y-87385582D01*
X161654972Y-87387779D01*
X161639046Y-87440530D01*
X161607504Y-87544999D01*
X161607503Y-87545000D01*
X161607503Y-87545004D01*
X161600627Y-87709069D01*
X161600627Y-87709079D01*
X161600628Y-87709090D01*
X161600629Y-87709095D01*
X161619352Y-87797178D01*
X161621703Y-87832391D01*
X161620514Y-87847978D01*
X161595787Y-87913326D01*
X161587576Y-87924187D01*
X161558896Y-87951599D01*
X161513731Y-87982639D01*
X161513722Y-87982648D01*
X161484068Y-88013088D01*
X161957639Y-88320628D01*
X162003142Y-88373649D01*
X162012756Y-88442854D01*
X161983429Y-88506271D01*
X161973078Y-88516771D01*
X161931219Y-88554462D01*
X161931214Y-88554468D01*
X161888197Y-88620709D01*
X161888192Y-88620718D01*
X161870786Y-88674288D01*
X161831348Y-88731963D01*
X161766989Y-88759160D01*
X161698143Y-88747245D01*
X161685321Y-88739963D01*
X161628452Y-88703032D01*
X161211750Y-88432422D01*
X161211749Y-88432422D01*
X161195998Y-88471903D01*
X161193991Y-88482348D01*
X161193922Y-88483107D01*
X161160256Y-88664755D01*
X161160107Y-88665528D01*
X161160100Y-88665598D01*
X161162679Y-88862538D01*
X161162679Y-88862546D01*
X161162683Y-88862569D01*
X161203631Y-89055215D01*
X161203635Y-89055234D01*
X161281393Y-89236217D01*
X161281395Y-89236221D01*
X161392967Y-89398559D01*
X161534064Y-89536008D01*
X161534067Y-89536011D01*
X161868266Y-89753043D01*
X162181979Y-89269966D01*
X162234999Y-89224465D01*
X162304204Y-89214851D01*
X162353508Y-89233508D01*
X162377484Y-89249078D01*
X162562308Y-89369104D01*
X162564854Y-89370757D01*
X162610357Y-89423778D01*
X162619972Y-89492983D01*
X162601314Y-89542287D01*
X162287602Y-90025361D01*
X162287603Y-90025361D01*
X162287603Y-90025362D01*
X162621807Y-90242397D01*
X162804664Y-90315349D01*
X162804686Y-90315367D01*
X162804765Y-90315390D01*
X162804767Y-90315391D01*
X162804769Y-90315391D01*
X162804771Y-90315392D01*
X162850263Y-90323822D01*
X162997719Y-90351151D01*
X162998403Y-90351283D01*
X162998452Y-90351287D01*
X162998456Y-90351288D01*
X162998459Y-90351287D01*
X162998460Y-90351288D01*
X163070076Y-90350350D01*
X163195413Y-90348709D01*
X163195421Y-90348708D01*
X163388090Y-90307755D01*
X163388099Y-90307753D01*
X163569076Y-90230000D01*
X163731423Y-90118421D01*
X163761080Y-90087977D01*
X163761080Y-90087976D01*
X163761080Y-90087975D01*
X163287511Y-89780436D01*
X163242008Y-89727415D01*
X163232394Y-89658210D01*
X163261721Y-89594793D01*
X163272066Y-89584299D01*
X163313934Y-89546600D01*
X163356957Y-89480351D01*
X163374364Y-89426776D01*
X163413800Y-89369104D01*
X163478159Y-89341905D01*
X163547005Y-89353819D01*
X163559829Y-89361102D01*
X164033398Y-89668642D01*
X164049148Y-89629166D01*
X164049148Y-89629164D01*
X164049150Y-89629160D01*
X164084903Y-89436249D01*
X164085042Y-89435531D01*
X164085048Y-89435467D01*
X164082607Y-89249078D01*
X164082469Y-89238517D01*
X164082468Y-89238508D01*
X164056922Y-89118321D01*
X164041518Y-89045850D01*
X164041512Y-89045827D01*
X164041510Y-89045821D01*
X164041508Y-89045817D01*
X163969531Y-88878283D01*
X163965624Y-88867942D01*
X163955515Y-88837087D01*
X163953349Y-88767251D01*
X163989282Y-88707331D01*
X163993943Y-88703032D01*
X164045923Y-88674405D01*
X164059652Y-88670727D01*
X164190882Y-88594961D01*
X164298032Y-88487811D01*
X164373798Y-88356581D01*
X164413017Y-88210212D01*
X164413017Y-88058680D01*
X164373798Y-87912311D01*
X164298032Y-87781081D01*
X164190882Y-87673931D01*
X164113856Y-87629460D01*
X164059651Y-87598164D01*
X164004354Y-87583347D01*
X163971915Y-87569457D01*
X163969109Y-87567747D01*
X163960062Y-87562232D01*
X163913063Y-87510535D01*
X163901474Y-87441637D01*
X163902306Y-87434681D01*
X163921436Y-87381870D01*
X163926604Y-87373914D01*
X163938219Y-87350499D01*
X163953557Y-87255541D01*
X163964087Y-87221856D01*
X163972807Y-87203609D01*
X164012374Y-87156345D01*
X164018904Y-87151658D01*
X164042262Y-87138463D01*
X164071324Y-87125979D01*
X164120196Y-87075811D01*
X164227159Y-86911103D01*
X164253112Y-86846051D01*
X164253111Y-86846048D01*
X164253465Y-86844143D01*
X164257686Y-86811778D01*
X164261893Y-86796724D01*
X164298893Y-86737457D01*
X164298920Y-86737433D01*
X164309068Y-86728404D01*
X164342544Y-86707115D01*
X164343643Y-86706644D01*
X164392515Y-86656476D01*
X164499478Y-86491768D01*
X164525431Y-86426716D01*
X164525430Y-86426713D01*
X164525783Y-86424811D01*
X164530005Y-86392442D01*
X164532018Y-86385241D01*
X164534212Y-86377387D01*
X164571212Y-86318121D01*
X164581387Y-86309068D01*
X164614873Y-86287776D01*
X164615963Y-86287308D01*
X164664835Y-86237140D01*
X164771798Y-86072432D01*
X164797751Y-86007380D01*
X164797750Y-86007377D01*
X164798104Y-86005472D01*
X164802325Y-85973107D01*
X164803289Y-85969660D01*
X164806532Y-85958052D01*
X164843532Y-85898786D01*
X164853707Y-85889733D01*
X164887183Y-85868444D01*
X164888282Y-85867973D01*
X164937154Y-85817805D01*
X165044117Y-85653097D01*
X165070070Y-85588045D01*
X165070069Y-85588042D01*
X165070423Y-85586137D01*
X165074644Y-85553772D01*
X165078851Y-85538718D01*
X165115851Y-85479451D01*
X165126026Y-85470398D01*
X165159512Y-85449106D01*
X165160602Y-85448638D01*
X165209474Y-85398470D01*
X165316437Y-85233762D01*
X165342390Y-85168710D01*
X165342389Y-85168707D01*
X165342743Y-85166802D01*
X165346964Y-85134437D01*
X165351171Y-85119383D01*
X165388171Y-85060116D01*
X165398346Y-85051063D01*
X165431832Y-85029771D01*
X165432922Y-85029303D01*
X165481794Y-84979135D01*
X165573059Y-84838596D01*
X165596296Y-84812037D01*
X165608160Y-84801855D01*
X165671847Y-84773136D01*
X165676057Y-84772551D01*
X165732686Y-84777852D01*
X165735980Y-84778961D01*
X165756066Y-84787771D01*
X165942653Y-84890165D01*
X165977867Y-84909489D01*
X165979808Y-84910554D01*
X165990154Y-84916910D01*
X165999163Y-84923072D01*
X166003760Y-84925999D01*
X166003774Y-84926005D01*
X166007318Y-84927949D01*
X166007115Y-84928317D01*
X166032638Y-84944995D01*
X166056654Y-84966130D01*
X166082120Y-84997215D01*
X166131503Y-85082747D01*
X166131506Y-85082751D01*
X166131508Y-85082754D01*
X166217246Y-85168492D01*
X166322253Y-85229118D01*
X166439374Y-85260500D01*
X166439376Y-85260500D01*
X166560624Y-85260500D01*
X166560626Y-85260500D01*
X166677747Y-85229118D01*
X166782754Y-85168492D01*
X166868492Y-85082754D01*
X166929118Y-84977747D01*
X166960500Y-84860626D01*
X166960500Y-84739374D01*
X166929118Y-84622253D01*
X166868492Y-84517246D01*
X166782754Y-84431508D01*
X166677747Y-84370882D01*
X166560626Y-84339500D01*
X166560625Y-84339500D01*
X166439365Y-84339500D01*
X166364016Y-84359689D01*
X166328973Y-84363879D01*
X166302180Y-84363241D01*
X166245477Y-84347983D01*
X166159711Y-84300917D01*
X166117326Y-84277657D01*
X166089114Y-84256444D01*
X166078346Y-84245630D01*
X166044992Y-84184236D01*
X166048693Y-84118577D01*
X166052363Y-84107677D01*
X166065886Y-84079710D01*
X166133393Y-83975759D01*
X166133394Y-83975758D01*
X166159347Y-83910707D01*
X166159347Y-83910706D01*
X166159348Y-83910704D01*
X166158990Y-83883412D01*
X166163553Y-83848422D01*
X166168997Y-83828940D01*
X166199824Y-83775560D01*
X166205450Y-83769815D01*
X166226174Y-83752799D01*
X166310319Y-83697787D01*
X166326986Y-83677653D01*
X166326990Y-83677647D01*
X166329105Y-83674769D01*
X166329271Y-83674891D01*
X166329272Y-83674891D01*
X166329279Y-83674897D01*
X166329445Y-83675019D01*
X166349781Y-83651764D01*
X166360324Y-83642715D01*
X166424010Y-83613993D01*
X166493117Y-83624260D01*
X166502598Y-83628644D01*
X166538231Y-83653510D01*
X166632166Y-83747445D01*
X166744597Y-83812357D01*
X166744602Y-83812362D01*
X166744603Y-83812361D01*
X166752678Y-83817024D01*
X166763392Y-83823209D01*
X166763394Y-83823210D01*
X166763396Y-83823211D01*
X166909765Y-83862430D01*
X166909767Y-83862430D01*
X167061295Y-83862430D01*
X167061297Y-83862430D01*
X167207666Y-83823211D01*
X167267524Y-83788652D01*
X169513999Y-83788652D01*
X169513999Y-83788665D01*
X169516576Y-83985605D01*
X169516579Y-83985630D01*
X169557528Y-84178278D01*
X169557532Y-84178297D01*
X169635293Y-84359287D01*
X169746861Y-84521621D01*
X169845680Y-84617884D01*
X169887966Y-84659076D01*
X170096364Y-84794412D01*
X170410077Y-84311336D01*
X170463097Y-84265835D01*
X170532302Y-84256221D01*
X170581606Y-84274878D01*
X170792951Y-84412127D01*
X170838454Y-84465148D01*
X170848068Y-84534353D01*
X170829411Y-84583657D01*
X170515698Y-85066732D01*
X170515699Y-85066732D01*
X170515699Y-85066733D01*
X170724101Y-85202071D01*
X170811217Y-85236827D01*
X170907039Y-85275057D01*
X170907043Y-85275058D01*
X170907050Y-85275061D01*
X170907065Y-85275065D01*
X171100737Y-85310962D01*
X171100749Y-85310963D01*
X171297705Y-85308385D01*
X171297713Y-85308384D01*
X171297721Y-85308382D01*
X171297723Y-85308382D01*
X171335647Y-85300321D01*
X171490384Y-85267431D01*
X171490388Y-85267430D01*
X171671378Y-85189670D01*
X171833715Y-85078099D01*
X171863376Y-85047651D01*
X171863376Y-85047650D01*
X171863375Y-85047649D01*
X171389807Y-84740110D01*
X171344304Y-84687089D01*
X171334690Y-84617884D01*
X171364017Y-84554467D01*
X171374358Y-84543976D01*
X171416230Y-84506275D01*
X171459252Y-84440027D01*
X171476660Y-84386451D01*
X171516097Y-84328777D01*
X171580455Y-84301579D01*
X171649302Y-84313494D01*
X171662120Y-84320773D01*
X171802792Y-84412127D01*
X172126356Y-84622253D01*
X172135693Y-84628316D01*
X172135695Y-84628315D01*
X172151443Y-84588844D01*
X172151447Y-84588830D01*
X172187343Y-84395161D01*
X172187344Y-84395149D01*
X172184766Y-84198193D01*
X172184765Y-84198185D01*
X172183101Y-84190358D01*
X172159798Y-84080725D01*
X172143812Y-84005514D01*
X172143811Y-84005510D01*
X172140841Y-83998598D01*
X172099232Y-83901751D01*
X172066051Y-83824520D01*
X172043546Y-83791775D01*
X171954481Y-83662183D01*
X171813381Y-83524732D01*
X171813378Y-83524730D01*
X171813377Y-83524729D01*
X171604977Y-83389391D01*
X171604975Y-83389391D01*
X171291264Y-83872464D01*
X171238243Y-83917967D01*
X171169038Y-83927581D01*
X171119734Y-83908924D01*
X170908389Y-83771675D01*
X170862886Y-83718654D01*
X170853272Y-83649449D01*
X170871927Y-83600148D01*
X171185643Y-83117071D01*
X171185641Y-83117070D01*
X171185642Y-83117070D01*
X170977242Y-82981734D01*
X170794303Y-82908747D01*
X170794290Y-82908743D01*
X170794284Y-82908741D01*
X170794278Y-82908740D01*
X170741281Y-82898917D01*
X170600616Y-82872844D01*
X170600607Y-82872843D01*
X170600606Y-82872843D01*
X170600594Y-82872842D01*
X170600591Y-82872842D01*
X170403644Y-82875419D01*
X170403619Y-82875422D01*
X170210971Y-82916371D01*
X170210952Y-82916375D01*
X170029962Y-82994136D01*
X169867627Y-83105706D01*
X169837965Y-83136154D01*
X170311536Y-83443694D01*
X170357039Y-83496715D01*
X170366653Y-83565920D01*
X170337326Y-83629337D01*
X170326976Y-83639837D01*
X170302157Y-83662185D01*
X170288182Y-83674769D01*
X170285113Y-83677532D01*
X170270773Y-83699614D01*
X170242092Y-83743779D01*
X170224683Y-83797354D01*
X170185247Y-83855028D01*
X170120888Y-83882226D01*
X170052042Y-83870311D01*
X170039219Y-83863029D01*
X169565648Y-83555487D01*
X169549897Y-83594967D01*
X169549897Y-83594968D01*
X169549894Y-83594980D01*
X169514002Y-83788629D01*
X169514000Y-83788645D01*
X169513999Y-83788652D01*
X167267524Y-83788652D01*
X167338896Y-83747445D01*
X167446046Y-83640295D01*
X167521812Y-83509065D01*
X167561031Y-83362696D01*
X167561031Y-83245574D01*
X167566053Y-83210641D01*
X167569964Y-83197322D01*
X167607737Y-83138545D01*
X167671291Y-83109520D01*
X167693280Y-83106358D01*
X167709302Y-83105106D01*
X167901094Y-83102595D01*
X167901102Y-83102594D01*
X168093771Y-83061641D01*
X168093780Y-83061639D01*
X168274756Y-82983886D01*
X168274757Y-82983885D01*
X168274793Y-82983859D01*
X168283559Y-82977920D01*
X168284142Y-82977434D01*
X168437104Y-82872307D01*
X168466761Y-82841863D01*
X168466761Y-82841862D01*
X168466761Y-82841861D01*
X167993192Y-82534323D01*
X167947689Y-82481302D01*
X167938075Y-82412097D01*
X167967402Y-82348680D01*
X167977754Y-82338179D01*
X167993816Y-82323716D01*
X168019615Y-82300486D01*
X168062638Y-82234237D01*
X168080045Y-82180662D01*
X168119481Y-82122990D01*
X168183840Y-82095791D01*
X168252686Y-82107705D01*
X168265510Y-82114988D01*
X168739079Y-82422528D01*
X168754829Y-82383052D01*
X168754829Y-82383050D01*
X168754831Y-82383046D01*
X168790584Y-82190135D01*
X168790723Y-82189417D01*
X168790729Y-82189353D01*
X168789504Y-82095791D01*
X168788150Y-81992403D01*
X168788149Y-81992394D01*
X168761319Y-81866169D01*
X168747199Y-81799736D01*
X168747197Y-81799729D01*
X168747196Y-81799723D01*
X168747193Y-81799713D01*
X168669441Y-81618737D01*
X168557864Y-81456392D01*
X168552662Y-81451325D01*
X168416768Y-81318945D01*
X168416764Y-81318941D01*
X168082563Y-81101907D01*
X168082562Y-81101907D01*
X167768848Y-81584981D01*
X167715826Y-81630484D01*
X167646621Y-81640097D01*
X167597318Y-81621440D01*
X167385973Y-81484192D01*
X167340470Y-81431171D01*
X167330855Y-81361966D01*
X167349513Y-81312662D01*
X167351065Y-81310273D01*
X167663226Y-80829588D01*
X167330409Y-80613454D01*
X167329022Y-80612553D01*
X167154946Y-80543104D01*
X167146068Y-80539562D01*
X167146063Y-80539560D01*
X167113938Y-80533606D01*
X167113920Y-80533602D01*
X166965249Y-80506049D01*
X166952379Y-80503664D01*
X166952370Y-80503663D01*
X166951471Y-80503530D01*
X166950229Y-80503265D01*
X166950166Y-80503254D01*
X166950166Y-80503252D01*
X166936246Y-80500289D01*
X166920432Y-80495869D01*
X166861167Y-80458865D01*
X166831316Y-80395693D01*
X166840355Y-80326415D01*
X166843243Y-80319866D01*
X166869013Y-80282230D01*
X167291821Y-79859421D01*
X167320068Y-79838275D01*
X167343476Y-79825494D01*
X167392848Y-79811369D01*
X167392795Y-79810912D01*
X167395573Y-79810589D01*
X167395775Y-79810532D01*
X167396342Y-79810499D01*
X167396348Y-79810499D01*
X167396356Y-79810499D01*
X167404722Y-79809528D01*
X167404722Y-79809533D01*
X167404740Y-79809526D01*
X167415227Y-79808310D01*
X167420944Y-79807980D01*
X167421556Y-79807881D01*
X167424232Y-79806644D01*
X167439447Y-79799925D01*
X167528514Y-79760599D01*
X167610599Y-79678514D01*
X167610600Y-79678510D01*
X167614340Y-79674771D01*
X167623585Y-79666413D01*
X167635911Y-79656350D01*
X167700287Y-79629203D01*
X167769124Y-79641171D01*
X167819707Y-79687053D01*
X167825348Y-79696149D01*
X167839044Y-79726905D01*
X167841365Y-79734892D01*
X167848716Y-79760195D01*
X167848717Y-79760196D01*
X167919676Y-79880183D01*
X167932314Y-79901552D01*
X167932321Y-79901561D01*
X168048438Y-80017678D01*
X168048447Y-80017685D01*
X168189801Y-80101281D01*
X168254408Y-80120050D01*
X168289660Y-80142563D01*
X168347509Y-80147098D01*
X168347514Y-80147100D01*
X168347511Y-80147100D01*
X168349998Y-80147295D01*
X168350000Y-80147295D01*
X168850000Y-80147295D01*
X168850001Y-80147295D01*
X168850003Y-80147295D01*
X168850003Y-80147294D01*
X168852486Y-80147100D01*
X169010198Y-80101281D01*
X169151552Y-80017685D01*
X169151561Y-80017678D01*
X169267678Y-79901561D01*
X169267685Y-79901552D01*
X169351282Y-79760196D01*
X169351283Y-79760193D01*
X169397099Y-79602495D01*
X169397100Y-79602489D01*
X169399999Y-79565649D01*
X169400000Y-79565634D01*
X169400000Y-79550000D01*
X168850000Y-79550000D01*
X168850000Y-80147295D01*
X168350000Y-80147295D01*
X168350000Y-80147294D01*
X168350000Y-79441829D01*
X168355023Y-79406893D01*
X168359427Y-79391895D01*
X168369069Y-79376886D01*
X168369685Y-79374790D01*
X168371334Y-79373360D01*
X168397172Y-79333144D01*
X168398541Y-79331957D01*
X168453420Y-79304477D01*
X168460979Y-79302833D01*
X168487332Y-79300000D01*
X168600000Y-79300000D01*
X168600000Y-79191829D01*
X168605023Y-79156893D01*
X168609427Y-79141895D01*
X168647172Y-79083144D01*
X168648541Y-79081957D01*
X168703420Y-79054477D01*
X168710979Y-79052833D01*
X168737332Y-79050000D01*
X169400000Y-79050000D01*
X169400000Y-79034369D01*
X169400000Y-79034365D01*
X169399999Y-79034350D01*
X169397100Y-78997510D01*
X169397099Y-78997504D01*
X169378968Y-78935099D01*
X169351291Y-78839833D01*
X169351289Y-78839828D01*
X169351283Y-78839806D01*
X169351282Y-78839803D01*
X169338630Y-78818410D01*
X169267688Y-78698452D01*
X169267685Y-78698447D01*
X169267676Y-78698436D01*
X169151562Y-78582322D01*
X169151551Y-78582313D01*
X169151546Y-78582310D01*
X169010197Y-78498717D01*
X169010165Y-78498707D01*
X168875540Y-78459595D01*
X168843394Y-78445026D01*
X168833861Y-78438938D01*
X168787956Y-78386265D01*
X168777814Y-78317135D01*
X168806624Y-78253536D01*
X168806957Y-78253148D01*
X168808314Y-78251573D01*
X168863286Y-78214764D01*
X168876299Y-78210453D01*
X168876311Y-78210448D01*
X169001608Y-78133162D01*
X169023018Y-78119957D01*
X169023019Y-78119956D01*
X169023034Y-78119947D01*
X169023038Y-78119944D01*
X169144944Y-77998038D01*
X169144947Y-77998034D01*
X169235448Y-77851311D01*
X169235453Y-77851300D01*
X169236133Y-77849250D01*
X169253954Y-77795464D01*
X169289680Y-77687652D01*
X169299999Y-77586654D01*
X169300000Y-77586641D01*
X169300000Y-77550000D01*
X168404330Y-77550000D01*
X168369389Y-77544975D01*
X168354390Y-77540570D01*
X168295644Y-77502827D01*
X168294457Y-77501458D01*
X168266977Y-77446583D01*
X168265332Y-77439021D01*
X168262500Y-77412668D01*
X168262500Y-77300000D01*
X168154330Y-77300000D01*
X168119389Y-77294975D01*
X168104390Y-77290570D01*
X168045644Y-77252827D01*
X168044457Y-77251458D01*
X168016977Y-77196583D01*
X168015332Y-77189021D01*
X168012500Y-77162668D01*
X168012500Y-77050000D01*
X168512500Y-77050000D01*
X169299999Y-77050000D01*
X169299999Y-77013360D01*
X169299998Y-77013345D01*
X169289680Y-76912347D01*
X169235453Y-76748699D01*
X169235448Y-76748688D01*
X169176121Y-76652505D01*
X169144957Y-76601980D01*
X169144952Y-76601973D01*
X169144947Y-76601965D01*
X169144944Y-76601961D01*
X169144940Y-76601957D01*
X169144939Y-76601955D01*
X169023043Y-76480059D01*
X169023040Y-76480057D01*
X169023038Y-76480055D01*
X169023034Y-76480052D01*
X169023028Y-76480048D01*
X169023018Y-76480041D01*
X168913439Y-76412452D01*
X168876311Y-76389551D01*
X168876309Y-76389550D01*
X168876295Y-76389543D01*
X168712650Y-76335318D01*
X168611659Y-76325000D01*
X168611654Y-76325000D01*
X168512500Y-76325000D01*
X168512500Y-77050000D01*
X168012500Y-77050000D01*
X168012500Y-76324998D01*
X167913368Y-76324999D01*
X167913348Y-76325000D01*
X167913344Y-76325001D01*
X167913335Y-76325001D01*
X167913334Y-76325002D01*
X167812345Y-76335319D01*
X167648701Y-76389545D01*
X167648689Y-76389550D01*
X167648686Y-76389552D01*
X167501980Y-76480041D01*
X167501958Y-76480057D01*
X167501955Y-76480059D01*
X167380057Y-76601957D01*
X167380040Y-76601982D01*
X167303793Y-76725598D01*
X167281181Y-76752693D01*
X167270863Y-76761974D01*
X167207856Y-76792172D01*
X167138527Y-76783513D01*
X167129801Y-76779722D01*
X167091528Y-76753670D01*
X167074359Y-76736501D01*
X167074356Y-76736499D01*
X167074355Y-76736498D01*
X167035840Y-76716873D01*
X167002862Y-76685727D01*
X166868834Y-76664500D01*
X166868828Y-76664500D01*
X166206178Y-76664500D01*
X166206173Y-76664500D01*
X166113347Y-76679202D01*
X166112985Y-76679258D01*
X166112976Y-76679261D01*
X166000638Y-76736501D01*
X165918923Y-76818217D01*
X165906733Y-76828908D01*
X165893960Y-76838710D01*
X165880476Y-76847721D01*
X165873956Y-76851485D01*
X165873947Y-76851492D01*
X165651404Y-77074035D01*
X165623148Y-77095187D01*
X165609427Y-77102679D01*
X165541198Y-77117533D01*
X165538936Y-77117372D01*
X165473464Y-77092978D01*
X165469949Y-77090248D01*
X165465583Y-77086729D01*
X165425746Y-77029331D01*
X165423238Y-76959612D01*
X165426651Y-76946201D01*
X165440086Y-76913672D01*
X165473314Y-76857487D01*
X165501284Y-76810193D01*
X165547099Y-76652495D01*
X165547100Y-76652489D01*
X165549999Y-76615649D01*
X165550000Y-76615634D01*
X165550000Y-76287500D01*
X163950000Y-76287500D01*
X163950000Y-76615654D01*
X163952899Y-76652487D01*
X163952901Y-76652501D01*
X163952902Y-76652505D01*
X163998707Y-76810165D01*
X163998717Y-76810196D01*
X163998718Y-76810199D01*
X164082277Y-76951490D01*
X164082314Y-76951552D01*
X164082321Y-76951561D01*
X164198438Y-77067678D01*
X164198447Y-77067685D01*
X164339802Y-77151281D01*
X164477680Y-77191338D01*
X164509822Y-77205907D01*
X164522998Y-77214322D01*
X164568901Y-77266992D01*
X164570847Y-77271221D01*
X164582162Y-77326183D01*
X164581309Y-77359971D01*
X164582609Y-77376968D01*
X164582609Y-78208449D01*
X164581547Y-78224639D01*
X164579442Y-78240623D01*
X164576279Y-78256525D01*
X164557609Y-78326202D01*
X164557609Y-78473794D01*
X164564287Y-78498714D01*
X164564287Y-78498717D01*
X164564288Y-78498717D01*
X164576281Y-78543476D01*
X164579445Y-78559384D01*
X164581548Y-78575358D01*
X164582609Y-78591543D01*
X164582609Y-79494351D01*
X164577585Y-79529288D01*
X164570173Y-79554529D01*
X164538878Y-79607273D01*
X164405578Y-79740573D01*
X164377327Y-79761722D01*
X164354239Y-79774330D01*
X164294809Y-79789500D01*
X163545439Y-79789500D01*
X163510498Y-79784475D01*
X163495499Y-79780070D01*
X163436753Y-79742327D01*
X163435566Y-79740958D01*
X163408086Y-79686083D01*
X163406441Y-79678521D01*
X163403609Y-79652168D01*
X163403609Y-78591543D01*
X163404669Y-78575364D01*
X163404670Y-78575358D01*
X163406774Y-78559374D01*
X163409931Y-78543496D01*
X163428609Y-78473792D01*
X163428609Y-78326208D01*
X163416825Y-78282233D01*
X163413663Y-78266329D01*
X163411560Y-78250345D01*
X163410500Y-78234170D01*
X163410500Y-75963711D01*
X163410500Y-75963709D01*
X163372303Y-75821155D01*
X163347243Y-75777749D01*
X163335154Y-75756811D01*
X163331253Y-75743357D01*
X163325092Y-75734581D01*
X163323031Y-75727824D01*
X163322993Y-75727741D01*
X163322993Y-75727738D01*
X163322991Y-75727735D01*
X163321731Y-75724928D01*
X163312172Y-75692215D01*
X163311826Y-75689869D01*
X163310499Y-75671777D01*
X163310499Y-75500728D01*
X163310499Y-75478644D01*
X163308262Y-75459350D01*
X163950000Y-75459350D01*
X163950000Y-75787500D01*
X164500000Y-75787500D01*
X165000000Y-75787500D01*
X165550000Y-75787500D01*
X165550000Y-75459365D01*
X165549999Y-75459350D01*
X165547100Y-75422510D01*
X165547099Y-75422504D01*
X165531486Y-75368766D01*
X165501291Y-75264833D01*
X165501289Y-75264828D01*
X165501283Y-75264806D01*
X165501282Y-75264803D01*
X165501044Y-75264401D01*
X165417688Y-75123452D01*
X165417685Y-75123447D01*
X165417676Y-75123436D01*
X165301562Y-75007322D01*
X165301551Y-75007313D01*
X165301546Y-75007310D01*
X165160199Y-74923718D01*
X165160196Y-74923717D01*
X165160182Y-74923712D01*
X165117180Y-74911219D01*
X165095621Y-74904956D01*
X165060409Y-74882469D01*
X165000000Y-74877703D01*
X165000000Y-75787500D01*
X164500000Y-75787500D01*
X164500000Y-74877703D01*
X164497505Y-74877899D01*
X164497497Y-74877901D01*
X164339833Y-74923707D01*
X164339802Y-74923717D01*
X164339799Y-74923718D01*
X164198452Y-75007310D01*
X164198447Y-75007313D01*
X164198436Y-75007322D01*
X164082322Y-75123436D01*
X164082313Y-75123447D01*
X164082310Y-75123452D01*
X163998718Y-75264799D01*
X163998717Y-75264802D01*
X163998707Y-75264833D01*
X163952902Y-75422493D01*
X163952901Y-75422497D01*
X163952899Y-75422511D01*
X163950161Y-75457307D01*
X163950000Y-75459350D01*
X163308262Y-75459350D01*
X163307488Y-75452680D01*
X163260599Y-75346486D01*
X163178514Y-75264401D01*
X163178512Y-75264400D01*
X163107414Y-75233007D01*
X163072322Y-75217512D01*
X163072323Y-75217512D01*
X163046360Y-75214500D01*
X163046357Y-75214500D01*
X162653651Y-75214500D01*
X162653641Y-75214500D01*
X162627687Y-75217509D01*
X162627671Y-75217514D01*
X162627670Y-75217514D01*
X162521485Y-75264400D01*
X162439403Y-75346482D01*
X162439399Y-75346488D01*
X162392512Y-75452675D01*
X162392512Y-75452677D01*
X162389500Y-75478637D01*
X162389500Y-75664557D01*
X162385274Y-75696653D01*
X162377111Y-75727115D01*
X162364725Y-75757018D01*
X162327698Y-75821151D01*
X162327698Y-75821152D01*
X162327697Y-75821154D01*
X162327697Y-75821155D01*
X162289500Y-75963709D01*
X162289500Y-78308099D01*
X162289500Y-78455683D01*
X162314417Y-78548675D01*
X162323726Y-78583418D01*
X162323726Y-78583419D01*
X162326279Y-78592944D01*
X162329444Y-78608856D01*
X162330047Y-78613435D01*
X162331548Y-78624832D01*
X162332609Y-78641017D01*
X162332609Y-79647670D01*
X162327584Y-79682614D01*
X162323179Y-79697612D01*
X162285436Y-79756355D01*
X162284067Y-79757542D01*
X162229206Y-79785018D01*
X162221648Y-79786663D01*
X162195277Y-79789500D01*
X161932730Y-79789500D01*
X161897794Y-79784477D01*
X161872552Y-79777065D01*
X161819807Y-79745769D01*
X161109425Y-79035387D01*
X161088273Y-79007131D01*
X161075666Y-78984042D01*
X161060499Y-78924617D01*
X161060499Y-78890885D01*
X161060499Y-78890878D01*
X161057634Y-78866173D01*
X161036542Y-78818405D01*
X161013010Y-78765109D01*
X160934891Y-78686990D01*
X160887768Y-78666183D01*
X160833829Y-78642366D01*
X160833830Y-78642366D01*
X160809126Y-78639500D01*
X160809123Y-78639500D01*
X159740885Y-78639500D01*
X159740875Y-78639500D01*
X159716180Y-78642363D01*
X159716164Y-78642368D01*
X159716157Y-78642371D01*
X159615114Y-78686985D01*
X159615109Y-78686989D01*
X159536989Y-78765108D01*
X159492365Y-78866169D01*
X159491795Y-78868874D01*
X159491540Y-78873287D01*
X159489500Y-78890867D01*
X158721180Y-78890867D01*
X158741100Y-78861053D01*
X158769598Y-78818405D01*
X158772661Y-78813818D01*
X158776465Y-78808127D01*
X158825501Y-78689744D01*
X158835550Y-78639228D01*
X158844757Y-78592944D01*
X158850500Y-78564073D01*
X158850500Y-78435925D01*
X158825262Y-78309055D01*
X158823176Y-78304644D01*
X158776465Y-78191873D01*
X158776464Y-78191871D01*
X158776458Y-78191861D01*
X158760654Y-78168209D01*
X158745424Y-78136372D01*
X158744629Y-78133834D01*
X158741355Y-78123375D01*
X158740111Y-78053516D01*
X158776833Y-77994075D01*
X158832261Y-77965399D01*
X158835805Y-77964595D01*
X158840318Y-77963572D01*
X158867746Y-77960500D01*
X159347671Y-77960500D01*
X159382607Y-77965523D01*
X159397605Y-77969927D01*
X159456356Y-78007672D01*
X159457543Y-78009041D01*
X159485019Y-78063902D01*
X159486664Y-78071460D01*
X159489501Y-78097831D01*
X159489501Y-78109126D01*
X159492363Y-78133818D01*
X159492368Y-78133834D01*
X159492371Y-78133841D01*
X159536985Y-78234884D01*
X159536988Y-78234888D01*
X159536989Y-78234890D01*
X159536990Y-78234891D01*
X159615109Y-78313010D01*
X159716173Y-78357634D01*
X159740877Y-78360500D01*
X160809122Y-78360499D01*
X160817083Y-78359575D01*
X160817083Y-78359581D01*
X160817104Y-78359572D01*
X160826732Y-78358456D01*
X160832450Y-78358126D01*
X160833060Y-78358027D01*
X160835675Y-78356817D01*
X160934891Y-78313010D01*
X161013010Y-78234891D01*
X161057634Y-78133827D01*
X161060500Y-78109123D01*
X161060499Y-77390878D01*
X161057634Y-77366173D01*
X161013010Y-77265109D01*
X160934891Y-77186990D01*
X160934889Y-77186989D01*
X160934888Y-77186988D01*
X160908469Y-77175323D01*
X160886624Y-77165678D01*
X160886623Y-77165677D01*
X160833828Y-77142366D01*
X160809128Y-77139500D01*
X160809126Y-77139500D01*
X160809123Y-77139500D01*
X160526359Y-77139500D01*
X160491423Y-77134477D01*
X160466181Y-77127065D01*
X160413435Y-77095768D01*
X160391702Y-77074035D01*
X160373515Y-77055847D01*
X160373514Y-77055846D01*
X160369190Y-77051522D01*
X160369179Y-77051512D01*
X160269157Y-76951490D01*
X160269156Y-76951489D01*
X160269155Y-76951488D01*
X160155486Y-76885861D01*
X160155481Y-76885857D01*
X160141346Y-76877697D01*
X160106582Y-76868382D01*
X160106575Y-76868377D01*
X160012981Y-76843301D01*
X160012981Y-76843302D01*
X160011303Y-76842852D01*
X159998792Y-76839500D01*
X159998791Y-76839500D01*
X159998790Y-76839500D01*
X159982702Y-76839500D01*
X159947759Y-76834475D01*
X159934875Y-76830691D01*
X159876100Y-76792913D01*
X159847079Y-76729355D01*
X159854287Y-76666677D01*
X159856490Y-76661026D01*
X159859811Y-76655143D01*
X159859378Y-76654952D01*
X159907777Y-76545337D01*
X159907779Y-76545333D01*
X159910500Y-76521880D01*
X159910500Y-75878120D01*
X159907779Y-75854667D01*
X159907777Y-75854663D01*
X159873816Y-75777748D01*
X159865420Y-75758733D01*
X159791267Y-75684580D01*
X159791264Y-75684578D01*
X159791263Y-75684578D01*
X159756648Y-75669294D01*
X159695335Y-75642221D01*
X159671882Y-75639500D01*
X159671881Y-75639500D01*
X159671880Y-75639500D01*
X158928120Y-75639500D01*
X158928118Y-75639500D01*
X158928116Y-75639500D01*
X158916438Y-75640855D01*
X158911784Y-75641395D01*
X158907367Y-75641650D01*
X158904663Y-75642220D01*
X158808730Y-75684580D01*
X158734580Y-75758730D01*
X158692220Y-75854663D01*
X158691650Y-75857367D01*
X158691395Y-75861784D01*
X158689500Y-75878113D01*
X158689500Y-76521882D01*
X158691395Y-76538213D01*
X158691650Y-76542631D01*
X158692220Y-76545335D01*
X158736895Y-76646511D01*
X158736463Y-76646701D01*
X158741900Y-76659150D01*
X158747110Y-76675139D01*
X158749164Y-76744978D01*
X158713133Y-76804841D01*
X158657363Y-76834318D01*
X158649024Y-76836262D01*
X158620872Y-76839500D01*
X157782702Y-76839500D01*
X157747759Y-76834475D01*
X157734875Y-76830691D01*
X157676100Y-76792913D01*
X157647079Y-76729355D01*
X157654287Y-76666677D01*
X157656490Y-76661026D01*
X157659811Y-76655143D01*
X157659378Y-76654952D01*
X157707777Y-76545337D01*
X157707779Y-76545333D01*
X157710500Y-76521880D01*
X157710500Y-75878120D01*
X157707779Y-75854667D01*
X157707777Y-75854663D01*
X157673816Y-75777748D01*
X157665420Y-75758733D01*
X157591267Y-75684580D01*
X157591264Y-75684578D01*
X157591263Y-75684578D01*
X157556648Y-75669294D01*
X157495335Y-75642221D01*
X157471882Y-75639500D01*
X157471881Y-75639500D01*
X157471880Y-75639500D01*
X156728120Y-75639500D01*
X156728118Y-75639500D01*
X156728116Y-75639500D01*
X156716438Y-75640855D01*
X156711785Y-75641394D01*
X156710017Y-75641091D01*
X156704665Y-75642220D01*
X156608730Y-75684581D01*
X156600810Y-75690006D01*
X156582477Y-75703732D01*
X156572553Y-75709151D01*
X156504280Y-75724003D01*
X156438815Y-75699587D01*
X156396944Y-75643653D01*
X156396942Y-75643649D01*
X156394258Y-75636451D01*
X156386445Y-75593131D01*
X156386445Y-75368766D01*
X156387505Y-75352587D01*
X156388308Y-75346488D01*
X156389610Y-75336596D01*
X156392773Y-75320698D01*
X156393698Y-75317249D01*
X156400102Y-75293348D01*
X156407859Y-75264399D01*
X156407859Y-75264397D01*
X156414685Y-75238925D01*
X156418903Y-75223185D01*
X156422301Y-75210500D01*
X156423322Y-75206690D01*
X156423322Y-75059106D01*
X156423322Y-74994812D01*
X156423322Y-74930517D01*
X156419580Y-74916553D01*
X156413184Y-74892683D01*
X156392773Y-74816504D01*
X156389609Y-74800597D01*
X156387506Y-74784623D01*
X156386445Y-74768438D01*
X156386445Y-71757249D01*
X156387504Y-71741077D01*
X156389611Y-71725074D01*
X156392768Y-71709199D01*
X156396810Y-71694115D01*
X156423322Y-71595173D01*
X156423322Y-71447589D01*
X156392768Y-71333561D01*
X156389609Y-71317676D01*
X156387504Y-71301687D01*
X156386445Y-71285510D01*
X156386445Y-70150000D01*
X156948331Y-70150000D01*
X156951043Y-70179844D01*
X156959026Y-70205461D01*
X156998722Y-70332856D01*
X156998724Y-70332861D01*
X156998725Y-70332863D01*
X157081638Y-70470018D01*
X157081641Y-70470022D01*
X157081646Y-70470028D01*
X157194970Y-70583352D01*
X157194976Y-70583357D01*
X157194975Y-70583357D01*
X157194980Y-70583360D01*
X157332135Y-70666273D01*
X157332138Y-70666274D01*
X157332140Y-70666275D01*
X157388362Y-70683794D01*
X157393840Y-70685501D01*
X157428875Y-70708841D01*
X157485156Y-70713955D01*
X157485157Y-70713956D01*
X157485156Y-70713956D01*
X157551663Y-70720000D01*
X157552500Y-70720000D01*
X157552500Y-70150000D01*
X156948331Y-70150000D01*
X156386445Y-70150000D01*
X156386445Y-69650000D01*
X156948331Y-69650000D01*
X157552500Y-69650000D01*
X157552500Y-69080000D01*
X158052500Y-69080000D01*
X158052500Y-70720000D01*
X158053334Y-70720000D01*
X158053337Y-70720000D01*
X158119843Y-70713956D01*
X158272859Y-70666275D01*
X158272863Y-70666273D01*
X158410018Y-70583361D01*
X158424232Y-70569146D01*
X158452478Y-70548000D01*
X158459427Y-70544206D01*
X158527697Y-70529355D01*
X158593161Y-70553772D01*
X158635033Y-70609705D01*
X158640790Y-70675551D01*
X158639770Y-70681076D01*
X158630215Y-70710965D01*
X158626366Y-70719220D01*
X158625687Y-70720624D01*
X158625645Y-70720762D01*
X158625644Y-70720768D01*
X158625644Y-70720769D01*
X158619500Y-70767445D01*
X158619500Y-70767450D01*
X158619500Y-71237556D01*
X158625643Y-71284224D01*
X158625645Y-71284232D01*
X158644947Y-71325624D01*
X158673412Y-71386667D01*
X158753333Y-71466588D01*
X158753332Y-71466588D01*
X158782271Y-71480082D01*
X158811813Y-71499400D01*
X158820544Y-71507088D01*
X158857849Y-71566165D01*
X158857293Y-71636033D01*
X158819798Y-71693868D01*
X158811524Y-71701037D01*
X158782730Y-71719702D01*
X158753335Y-71733409D01*
X158753332Y-71733411D01*
X158673411Y-71813333D01*
X158625645Y-71915766D01*
X158625643Y-71915774D01*
X158619500Y-71962442D01*
X158619500Y-72432556D01*
X158625643Y-72479229D01*
X158625687Y-72479371D01*
X158626357Y-72480758D01*
X158673412Y-72581667D01*
X158753333Y-72661588D01*
X158855769Y-72709355D01*
X158902445Y-72715500D01*
X158902446Y-72715500D01*
X158958534Y-72715500D01*
X158982721Y-72717882D01*
X159005876Y-72722487D01*
X159013751Y-72724919D01*
X159013896Y-72724379D01*
X159022253Y-72726618D01*
X159080375Y-72742191D01*
X159112814Y-72756081D01*
X159126165Y-72764219D01*
X159173157Y-72815908D01*
X159177031Y-72823881D01*
X159189500Y-72878073D01*
X159189500Y-74477209D01*
X159203572Y-74529724D01*
X159205146Y-74535599D01*
X159205146Y-74535600D01*
X159224290Y-74607047D01*
X159232450Y-74621182D01*
X159232454Y-74621187D01*
X159257089Y-74663856D01*
X159291498Y-74723454D01*
X159676546Y-75108502D01*
X159792955Y-75175710D01*
X159922791Y-75210500D01*
X159922794Y-75210500D01*
X160057206Y-75210500D01*
X160057209Y-75210500D01*
X160187045Y-75175710D01*
X160303454Y-75108502D01*
X160398502Y-75013454D01*
X160465710Y-74897045D01*
X160500500Y-74767209D01*
X160500500Y-74632791D01*
X160465710Y-74502955D01*
X160398502Y-74386546D01*
X160259426Y-74247470D01*
X160238274Y-74219214D01*
X160225667Y-74196125D01*
X160210500Y-74136700D01*
X160210500Y-73002329D01*
X160215523Y-72967393D01*
X160219927Y-72952395D01*
X160257672Y-72893644D01*
X160259041Y-72892457D01*
X160313920Y-72864977D01*
X160321479Y-72863333D01*
X160347832Y-72860500D01*
X160876447Y-72860500D01*
X160911383Y-72865523D01*
X160926381Y-72869927D01*
X160985132Y-72907672D01*
X160986319Y-72909041D01*
X161013795Y-72963902D01*
X161015440Y-72971460D01*
X161018277Y-72997831D01*
X161018277Y-73114110D01*
X161031973Y-73200591D01*
X161032008Y-73201045D01*
X161033498Y-73210227D01*
X161033849Y-73211280D01*
X161035819Y-73214781D01*
X161092473Y-73325972D01*
X161092537Y-73326096D01*
X161092540Y-73326099D01*
X161092540Y-73326100D01*
X161184473Y-73418033D01*
X161184475Y-73418034D01*
X161184476Y-73418035D01*
X161184480Y-73418038D01*
X161184482Y-73418040D01*
X161300343Y-73477074D01*
X161300971Y-73477394D01*
X161305100Y-73478215D01*
X161305109Y-73478217D01*
X161309974Y-73478600D01*
X161329333Y-73481665D01*
X161329504Y-73481692D01*
X161396469Y-73492299D01*
X162761082Y-73492298D01*
X162761087Y-73492298D01*
X162784766Y-73492298D01*
X162793912Y-73487303D01*
X162800884Y-73485994D01*
X162809145Y-73484686D01*
X162847568Y-73478600D01*
X162854265Y-73478074D01*
X162855464Y-73477350D01*
X162857204Y-73477075D01*
X162857205Y-73477075D01*
X162857206Y-73477074D01*
X162857209Y-73477074D01*
X162973070Y-73418040D01*
X162973075Y-73418035D01*
X163015214Y-73375896D01*
X163043457Y-73354752D01*
X163053391Y-73349328D01*
X163121661Y-73334475D01*
X163187126Y-73358889D01*
X163228999Y-73414821D01*
X163230198Y-73418035D01*
X163231682Y-73422013D01*
X163239500Y-73465347D01*
X163239500Y-73836290D01*
X163273181Y-73961991D01*
X163277696Y-73978841D01*
X163277697Y-73978843D01*
X163277696Y-73978843D01*
X163277700Y-73978850D01*
X163314724Y-74042979D01*
X163327110Y-74072880D01*
X163335274Y-74103344D01*
X163339500Y-74135442D01*
X163339500Y-74321357D01*
X163342509Y-74347311D01*
X163342514Y-74347327D01*
X163342514Y-74347328D01*
X163384321Y-74442011D01*
X163389400Y-74453513D01*
X163389401Y-74453514D01*
X163471486Y-74535599D01*
X163577680Y-74582488D01*
X163603643Y-74585500D01*
X163996356Y-74585499D01*
X164004722Y-74584528D01*
X164004722Y-74584533D01*
X164004740Y-74584526D01*
X164015227Y-74583310D01*
X164020944Y-74582980D01*
X164021556Y-74582881D01*
X164024232Y-74581644D01*
X164059568Y-74566041D01*
X164128514Y-74535599D01*
X164210599Y-74453514D01*
X164257488Y-74347320D01*
X164260500Y-74321357D01*
X164260499Y-74135440D01*
X164264722Y-74103353D01*
X164272890Y-74072874D01*
X164285272Y-74042984D01*
X164317611Y-73986971D01*
X164319852Y-73983689D01*
X164320754Y-73981907D01*
X164324019Y-73975871D01*
X164332783Y-73960690D01*
X164331509Y-73955436D01*
X164335592Y-73929246D01*
X164360500Y-73836291D01*
X164360500Y-73012329D01*
X164365523Y-72977393D01*
X164368460Y-72967393D01*
X164369927Y-72962394D01*
X164407672Y-72903644D01*
X164409041Y-72902457D01*
X164463920Y-72874977D01*
X164471479Y-72873333D01*
X164497832Y-72870500D01*
X165519352Y-72870500D01*
X165554284Y-72875521D01*
X165579528Y-72882934D01*
X165632274Y-72914230D01*
X166206546Y-73488502D01*
X166206547Y-73488503D01*
X166206549Y-73488504D01*
X166322955Y-73555710D01*
X166323853Y-73556082D01*
X166337371Y-73560670D01*
X166342383Y-73562746D01*
X166352257Y-73566835D01*
X166366794Y-73574004D01*
X166415820Y-73602310D01*
X166462254Y-73629119D01*
X166579374Y-73660501D01*
X166579376Y-73660501D01*
X166708222Y-73660501D01*
X166710126Y-73660501D01*
X166710189Y-73660500D01*
X168483216Y-73660500D01*
X168518152Y-73665523D01*
X168533150Y-73669927D01*
X168591918Y-73707691D01*
X168597724Y-73714390D01*
X168622473Y-73761022D01*
X168622474Y-73761022D01*
X168622475Y-73761025D01*
X168623796Y-73763514D01*
X168624697Y-73766880D01*
X168624699Y-73766883D01*
X168624700Y-73766885D01*
X168685326Y-73871892D01*
X168685328Y-73871894D01*
X168773535Y-73960101D01*
X168786001Y-73974662D01*
X168795597Y-73987805D01*
X168819231Y-74053556D01*
X168803927Y-74120999D01*
X168797400Y-74132785D01*
X168776604Y-74160392D01*
X168465242Y-74471753D01*
X168454152Y-74477808D01*
X168429625Y-74509762D01*
X168418943Y-74521940D01*
X167751539Y-75189344D01*
X167746589Y-75195796D01*
X167746486Y-75195717D01*
X167739385Y-75205627D01*
X167715371Y-75233007D01*
X167709829Y-75238925D01*
X167631505Y-75317249D01*
X167631006Y-75317942D01*
X167629646Y-75320470D01*
X167570884Y-75422248D01*
X167570881Y-75422253D01*
X167549855Y-75500728D01*
X167539500Y-75539374D01*
X167539500Y-75660626D01*
X167570882Y-75777747D01*
X167631508Y-75882754D01*
X167717246Y-75968492D01*
X167822253Y-76029118D01*
X167939374Y-76060500D01*
X167939376Y-76060500D01*
X168060624Y-76060500D01*
X168060626Y-76060500D01*
X168177747Y-76029118D01*
X168282754Y-75968492D01*
X168368492Y-75882754D01*
X168429118Y-75777747D01*
X168460500Y-75660626D01*
X168460500Y-75539374D01*
X168445443Y-75483179D01*
X168445724Y-75471355D01*
X168441253Y-75448135D01*
X168441701Y-75429327D01*
X168459784Y-75367744D01*
X168465205Y-75358850D01*
X168483402Y-75335709D01*
X168615215Y-75203896D01*
X168643464Y-75182749D01*
X168653393Y-75177327D01*
X168721665Y-75162476D01*
X168787129Y-75186893D01*
X168829001Y-75242826D01*
X168831682Y-75250014D01*
X168839500Y-75293348D01*
X168839500Y-75457315D01*
X168843597Y-75483181D01*
X168852497Y-75539376D01*
X168853196Y-75543786D01*
X168853231Y-75544240D01*
X168854722Y-75553428D01*
X168855074Y-75554482D01*
X168857045Y-75557987D01*
X168909338Y-75660620D01*
X168909339Y-75660620D01*
X168909342Y-75660626D01*
X168913760Y-75669295D01*
X168913763Y-75669299D01*
X168913764Y-75669301D01*
X169005697Y-75761234D01*
X169005699Y-75761235D01*
X169005700Y-75761236D01*
X169005704Y-75761239D01*
X169005706Y-75761241D01*
X169121567Y-75820275D01*
X169122195Y-75820595D01*
X169126324Y-75821416D01*
X169126333Y-75821418D01*
X169131198Y-75821801D01*
X169150557Y-75824866D01*
X169150728Y-75824893D01*
X169217693Y-75835500D01*
X171482306Y-75835499D01*
X171482311Y-75835499D01*
X171505990Y-75835499D01*
X171515136Y-75830504D01*
X171522108Y-75829195D01*
X171530369Y-75827887D01*
X171568792Y-75821801D01*
X171576972Y-75821158D01*
X171582947Y-75818404D01*
X171590588Y-75815238D01*
X171595919Y-75811365D01*
X171694294Y-75761241D01*
X171786241Y-75669294D01*
X171845275Y-75553433D01*
X171847502Y-75539376D01*
X171860500Y-75457307D01*
X171860500Y-75457301D01*
X171860499Y-74892694D01*
X171860499Y-74892683D01*
X171846803Y-74806212D01*
X171846419Y-74801334D01*
X171845352Y-74796890D01*
X171845275Y-74796567D01*
X171835083Y-74776564D01*
X171786241Y-74680706D01*
X171786239Y-74680704D01*
X171786236Y-74680700D01*
X171786235Y-74680699D01*
X171786234Y-74680697D01*
X171694302Y-74588765D01*
X171694299Y-74588763D01*
X171694295Y-74588760D01*
X171694294Y-74588759D01*
X171578433Y-74529725D01*
X171578432Y-74529724D01*
X171578425Y-74529722D01*
X171482307Y-74514500D01*
X171081565Y-74514500D01*
X171046630Y-74509477D01*
X171035776Y-74506290D01*
X170976998Y-74468516D01*
X170947973Y-74404960D01*
X170957913Y-74335811D01*
X170961103Y-74328824D01*
X170986212Y-74292660D01*
X171648457Y-73630416D01*
X171648461Y-73630412D01*
X171649209Y-73629118D01*
X171689340Y-73559608D01*
X171710500Y-73480638D01*
X171710500Y-71824996D01*
X172202703Y-71824996D01*
X172202704Y-71824999D01*
X172202705Y-71825000D01*
X173300000Y-71825000D01*
X173300000Y-71275000D01*
X172784344Y-71275000D01*
X172752772Y-71277484D01*
X172747510Y-71277899D01*
X172747504Y-71277900D01*
X172747497Y-71277901D01*
X172747493Y-71277902D01*
X172589833Y-71323707D01*
X172589802Y-71323717D01*
X172589799Y-71323718D01*
X172448452Y-71407310D01*
X172448447Y-71407313D01*
X172448436Y-71407322D01*
X172332321Y-71523437D01*
X172332312Y-71523449D01*
X172252674Y-71658112D01*
X172248718Y-71664801D01*
X172205566Y-71813333D01*
X172202899Y-71822514D01*
X172202898Y-71822519D01*
X172202703Y-71824996D01*
X171710500Y-71824996D01*
X171710500Y-71521693D01*
X171715522Y-71486760D01*
X171717483Y-71480082D01*
X171722934Y-71461515D01*
X171754228Y-71408773D01*
X172001757Y-71161245D01*
X172258462Y-70904540D01*
X172293395Y-70844033D01*
X172293396Y-70844032D01*
X172299340Y-70833736D01*
X172313000Y-70782756D01*
X172316668Y-70769068D01*
X172316670Y-70769057D01*
X172317103Y-70767445D01*
X172320500Y-70754767D01*
X172320500Y-70673010D01*
X172320500Y-69695234D01*
X172309926Y-69655769D01*
X172299340Y-69616263D01*
X172283888Y-69589500D01*
X172258464Y-69545463D01*
X172258460Y-69545458D01*
X172258456Y-69545454D01*
X172258452Y-69545449D01*
X172149426Y-69436423D01*
X172128275Y-69408169D01*
X172115668Y-69385081D01*
X172100500Y-69325654D01*
X172100500Y-66279124D01*
X172100500Y-66279122D01*
X172079340Y-66200152D01*
X172050096Y-66149500D01*
X172040305Y-66132541D01*
X172038824Y-66129789D01*
X172038594Y-66129479D01*
X171450661Y-65541546D01*
X171450654Y-65541540D01*
X171450648Y-65541535D01*
X171450643Y-65541531D01*
X171393986Y-65508821D01*
X171387457Y-65503811D01*
X171372243Y-65497509D01*
X171364082Y-65496435D01*
X171325212Y-65486020D01*
X171300879Y-65479500D01*
X171300878Y-65479500D01*
X169456274Y-65479500D01*
X169421338Y-65474477D01*
X169396096Y-65467065D01*
X169343351Y-65435769D01*
X169329092Y-65421510D01*
X169329090Y-65421508D01*
X169259085Y-65381090D01*
X169224085Y-65360883D01*
X169224084Y-65360882D01*
X169224083Y-65360882D01*
X169106962Y-65329500D01*
X169106961Y-65329500D01*
X168985710Y-65329500D01*
X168868589Y-65360881D01*
X168868583Y-65360884D01*
X168763589Y-65421502D01*
X168763583Y-65421506D01*
X168763573Y-65421514D01*
X168677850Y-65507237D01*
X168677842Y-65507247D01*
X168677838Y-65507253D01*
X168617218Y-65612250D01*
X168616071Y-65614544D01*
X168614213Y-65616540D01*
X168611056Y-65623603D01*
X168600124Y-65641539D01*
X168548425Y-65688538D01*
X168479523Y-65700126D01*
X168479518Y-65700126D01*
X168477904Y-65699933D01*
X168423121Y-65679498D01*
X168418971Y-65676689D01*
X168400796Y-65661682D01*
X168253390Y-65514276D01*
X168232238Y-65486020D01*
X168219631Y-65462931D01*
X168215803Y-65447934D01*
X168209217Y-65437507D01*
X168209333Y-65422586D01*
X168204464Y-65403506D01*
X168204464Y-61893323D01*
X168209486Y-61858390D01*
X168216898Y-61833145D01*
X168248192Y-61780403D01*
X168524826Y-61503770D01*
X168868571Y-61160025D01*
X168868573Y-61160020D01*
X168868585Y-61160006D01*
X168877574Y-61146551D01*
X168887393Y-61133755D01*
X168898071Y-61121579D01*
X168899781Y-61119869D01*
X168902116Y-61117955D01*
X168907103Y-61112637D01*
X168909621Y-61110036D01*
X168912516Y-61104165D01*
X168921145Y-61089222D01*
X168949340Y-61040386D01*
X168965933Y-60978462D01*
X168970500Y-60961417D01*
X168970500Y-60879660D01*
X168970500Y-57768584D01*
X168970499Y-57768578D01*
X168954981Y-57710662D01*
X168949341Y-57689616D01*
X168949338Y-57689609D01*
X168908464Y-57618813D01*
X168908463Y-57618811D01*
X168908458Y-57618806D01*
X168908452Y-57618799D01*
X167981199Y-56691546D01*
X167981192Y-56691540D01*
X167981186Y-56691535D01*
X167981181Y-56691531D01*
X167924524Y-56658821D01*
X167917995Y-56653811D01*
X167902781Y-56647509D01*
X167894620Y-56646435D01*
X167865112Y-56638528D01*
X167831417Y-56629500D01*
X167831416Y-56629500D01*
X165479122Y-56629500D01*
X165400147Y-56650660D01*
X165329346Y-56691539D01*
X165329345Y-56691540D01*
X165329340Y-56691544D01*
X163880113Y-58140770D01*
X163851859Y-58161921D01*
X163828773Y-58174527D01*
X163769332Y-58189695D01*
X162929598Y-58189597D01*
X162933105Y-58536389D01*
X162932130Y-58553209D01*
X162930031Y-58569798D01*
X162926787Y-58586324D01*
X162900609Y-58684026D01*
X162900609Y-58735876D01*
X162895585Y-58770814D01*
X162892398Y-58781667D01*
X162854623Y-58840444D01*
X162791066Y-58869467D01*
X162721916Y-58859526D01*
X162714938Y-58856339D01*
X162678764Y-58831223D01*
X162660235Y-58812694D01*
X162660234Y-58812692D01*
X162538091Y-58731077D01*
X162538064Y-58731062D01*
X162493020Y-58712405D01*
X162477503Y-58699900D01*
X162402353Y-58674851D01*
X162402354Y-58674851D01*
X162402351Y-58674850D01*
X162402347Y-58674849D01*
X162402343Y-58674848D01*
X162402341Y-58674847D01*
X162402317Y-58674842D01*
X162258271Y-58646190D01*
X162258268Y-58646190D01*
X162258264Y-58646190D01*
X162111354Y-58646190D01*
X162111349Y-58646190D01*
X162111344Y-58646190D01*
X161967280Y-58674846D01*
X161967274Y-58674848D01*
X161967264Y-58674851D01*
X161967259Y-58674852D01*
X161967241Y-58674859D01*
X161831552Y-58731062D01*
X161831525Y-58731077D01*
X161709382Y-58812692D01*
X161605511Y-58916563D01*
X161523896Y-59038706D01*
X161523881Y-59038733D01*
X161467678Y-59174422D01*
X161467665Y-59174461D01*
X161439009Y-59318525D01*
X161439009Y-59465452D01*
X161464068Y-59591430D01*
X161465743Y-59602392D01*
X161469487Y-59637285D01*
X161457067Y-59706042D01*
X161409456Y-59757163D01*
X161404948Y-59759837D01*
X161341687Y-59777188D01*
X159490992Y-59777188D01*
X159490992Y-64777188D01*
X162240992Y-64777188D01*
X162240992Y-60260819D01*
X162246015Y-60225883D01*
X162250419Y-60210885D01*
X162288190Y-60152111D01*
X162293743Y-60147299D01*
X162350740Y-60119395D01*
X162358390Y-60117873D01*
X162358406Y-60117874D01*
X162358406Y-60117870D01*
X162358407Y-60117870D01*
X162402351Y-60109130D01*
X162538078Y-60052910D01*
X162547326Y-60046731D01*
X162660226Y-59971293D01*
X162660225Y-59971293D01*
X162660229Y-59971291D01*
X162671402Y-59960118D01*
X162676313Y-59955207D01*
X162679982Y-59952460D01*
X162680221Y-59952108D01*
X162680760Y-59951877D01*
X162704569Y-59934051D01*
X162714504Y-59928627D01*
X162782774Y-59913776D01*
X162848238Y-59938193D01*
X162890110Y-59994126D01*
X162892791Y-60001314D01*
X162900609Y-60044648D01*
X162900609Y-60099952D01*
X162909843Y-60134412D01*
X162938378Y-60240907D01*
X162940041Y-60244922D01*
X162942151Y-60252826D01*
X162942113Y-60254360D01*
X162943839Y-60260000D01*
X162947113Y-60276035D01*
X162947114Y-60276038D01*
X162955441Y-60284186D01*
X162966680Y-60296792D01*
X162976971Y-60310053D01*
X162986392Y-60324069D01*
X163011336Y-60367273D01*
X163011338Y-60367276D01*
X163011339Y-60367277D01*
X163114522Y-60470460D01*
X163240896Y-60543422D01*
X163381847Y-60581190D01*
X163381850Y-60581190D01*
X163527768Y-60581190D01*
X163527769Y-60581190D01*
X163527771Y-60581190D01*
X163654458Y-60547243D01*
X163676575Y-60541318D01*
X163677042Y-60543063D01*
X163736439Y-60536672D01*
X163788544Y-60559287D01*
X163915941Y-60654254D01*
X163929512Y-60665990D01*
X164242674Y-60979152D01*
X164243366Y-60979651D01*
X164245888Y-60981008D01*
X164266296Y-60992790D01*
X164313477Y-61020030D01*
X164392447Y-61041190D01*
X164392448Y-61041190D01*
X164812346Y-61041190D01*
X164847278Y-61046211D01*
X164872522Y-61053624D01*
X164925268Y-61084920D01*
X165534537Y-61694188D01*
X165555687Y-61722440D01*
X165568295Y-61745529D01*
X165583464Y-61804958D01*
X165583464Y-65508230D01*
X165578440Y-65543167D01*
X165571028Y-65568408D01*
X165539733Y-65621152D01*
X165470312Y-65690573D01*
X165442061Y-65711722D01*
X165418973Y-65724330D01*
X165359543Y-65739500D01*
X165339374Y-65739500D01*
X165222253Y-65770881D01*
X165222247Y-65770884D01*
X165117253Y-65831502D01*
X165117247Y-65831506D01*
X165117237Y-65831514D01*
X165031514Y-65917237D01*
X165031506Y-65917247D01*
X165031502Y-65917253D01*
X164970884Y-66022247D01*
X164970881Y-66022253D01*
X164942187Y-66129344D01*
X164939500Y-66139374D01*
X164939500Y-66260626D01*
X164963211Y-66349116D01*
X164970882Y-66377746D01*
X164970883Y-66377749D01*
X164991090Y-66412749D01*
X165031508Y-66482754D01*
X165117246Y-66568492D01*
X165222253Y-66629118D01*
X165339374Y-66660500D01*
X165339376Y-66660500D01*
X165460624Y-66660500D01*
X165460626Y-66660500D01*
X165577747Y-66629118D01*
X165682754Y-66568492D01*
X165768492Y-66482754D01*
X165829118Y-66377747D01*
X165835074Y-66355512D01*
X165848965Y-66323072D01*
X165852148Y-66317850D01*
X165903845Y-66270854D01*
X165972747Y-66259267D01*
X166036976Y-66286770D01*
X166076137Y-66344625D01*
X166077573Y-66349116D01*
X166083464Y-66386881D01*
X166083464Y-66796098D01*
X166078440Y-66831037D01*
X166071028Y-66856277D01*
X166039733Y-66909019D01*
X166031517Y-66917234D01*
X166031504Y-66917250D01*
X166031502Y-66917253D01*
X165970884Y-67022247D01*
X165970881Y-67022253D01*
X165941030Y-67133663D01*
X165939500Y-67139374D01*
X165939500Y-67260626D01*
X165970882Y-67377747D01*
X166031508Y-67482754D01*
X166117246Y-67568492D01*
X166222253Y-67629118D01*
X166339374Y-67660500D01*
X166339376Y-67660500D01*
X166460624Y-67660500D01*
X166460626Y-67660500D01*
X166577747Y-67629118D01*
X166682754Y-67568492D01*
X166768492Y-67482754D01*
X166823135Y-67388109D01*
X166844948Y-67360371D01*
X166854996Y-67350789D01*
X166917097Y-67318775D01*
X166986648Y-67325415D01*
X166992972Y-67327947D01*
X166994550Y-67328579D01*
X167036138Y-67356013D01*
X167209348Y-67529223D01*
X167280151Y-67570101D01*
X167351664Y-67589262D01*
X167369718Y-67595631D01*
X167400636Y-67609307D01*
X167403968Y-67610781D01*
X167441488Y-67636501D01*
X167467246Y-67662259D01*
X167572253Y-67722885D01*
X167689374Y-67754267D01*
X167689376Y-67754267D01*
X167808891Y-67754267D01*
X167810626Y-67754267D01*
X167927747Y-67722885D01*
X168032754Y-67662259D01*
X168118492Y-67576521D01*
X168179118Y-67471514D01*
X168210500Y-67354393D01*
X168210500Y-67233141D01*
X168179118Y-67116020D01*
X168118492Y-67011013D01*
X168118491Y-67011012D01*
X168114428Y-67003974D01*
X168114435Y-67003969D01*
X168111534Y-66999512D01*
X168101691Y-66981486D01*
X168086839Y-66913213D01*
X168110842Y-66848305D01*
X168119769Y-66836241D01*
X168119768Y-66836240D01*
X168127842Y-66825329D01*
X168139828Y-66811417D01*
X168208872Y-66742374D01*
X168263518Y-66647723D01*
X168285330Y-66619988D01*
X168295383Y-66610403D01*
X168357484Y-66578393D01*
X168427028Y-66585034D01*
X168434923Y-66588195D01*
X168476517Y-66615631D01*
X168509348Y-66648462D01*
X168580151Y-66689340D01*
X168659121Y-66710500D01*
X168659122Y-66710500D01*
X168711224Y-66710500D01*
X168746156Y-66715521D01*
X168759475Y-66719432D01*
X168818253Y-66757206D01*
X168847278Y-66820757D01*
X168847912Y-66825165D01*
X168837972Y-66894324D01*
X168837558Y-66895220D01*
X168825991Y-66920027D01*
X168825978Y-66920055D01*
X168825644Y-66920770D01*
X168825643Y-66920771D01*
X168819500Y-66967443D01*
X168819500Y-67437556D01*
X168825643Y-67484229D01*
X168825687Y-67484371D01*
X168826357Y-67485758D01*
X168873412Y-67586667D01*
X168873413Y-67586668D01*
X168953333Y-67666588D01*
X168953332Y-67666588D01*
X168982271Y-67680082D01*
X169011813Y-67699400D01*
X169020544Y-67707088D01*
X169057849Y-67766165D01*
X169057293Y-67836033D01*
X169019801Y-67893865D01*
X169011576Y-67900992D01*
X168957214Y-67928338D01*
X168931408Y-67934060D01*
X168904570Y-67937000D01*
X168041874Y-67937000D01*
X167924753Y-67968382D01*
X167889202Y-67988907D01*
X167889200Y-67988908D01*
X167819746Y-68029008D01*
X167819741Y-68029011D01*
X167819737Y-68029014D01*
X167231514Y-68617237D01*
X167231509Y-68617243D01*
X167231507Y-68617246D01*
X167209177Y-68655923D01*
X167187362Y-68683662D01*
X167177316Y-68693240D01*
X167115215Y-68725256D01*
X167045662Y-68718615D01*
X167045661Y-68718614D01*
X167027664Y-68711409D01*
X167014014Y-68704954D01*
X166868602Y-68625013D01*
X166868594Y-68625010D01*
X166708308Y-68583855D01*
X166708306Y-68583855D01*
X166542810Y-68583855D01*
X166542807Y-68583855D01*
X166382521Y-68625010D01*
X166382513Y-68625013D01*
X166237507Y-68704730D01*
X166237502Y-68704733D01*
X166237494Y-68704740D01*
X166231183Y-68710129D01*
X166742705Y-69221651D01*
X166763857Y-69249907D01*
X166771349Y-69263628D01*
X166786201Y-69331888D01*
X166786072Y-69333694D01*
X166766704Y-69391896D01*
X166763898Y-69396264D01*
X166762523Y-69398403D01*
X166745888Y-69419046D01*
X166666217Y-69498717D01*
X166742704Y-69575204D01*
X166763856Y-69603460D01*
X166771348Y-69617181D01*
X166786200Y-69685441D01*
X166786071Y-69687247D01*
X166766703Y-69745450D01*
X166762522Y-69751956D01*
X166745886Y-69772599D01*
X166270236Y-70248249D01*
X166290472Y-70268486D01*
X166290511Y-70268523D01*
X166290515Y-70268526D01*
X166318796Y-70292680D01*
X166318814Y-70292695D01*
X166318818Y-70292698D01*
X166463834Y-70372421D01*
X166507404Y-70383608D01*
X166606873Y-70409148D01*
X166624127Y-70413578D01*
X166624133Y-70413579D01*
X166789616Y-70413579D01*
X166789617Y-70413579D01*
X166806875Y-70409147D01*
X166841955Y-70405323D01*
X166857583Y-70405858D01*
X166923905Y-70427824D01*
X166923911Y-70427828D01*
X166931682Y-70433207D01*
X166969939Y-70475736D01*
X166977989Y-70490478D01*
X166993123Y-70552859D01*
X166992875Y-70563270D01*
X166989804Y-70584658D01*
X166990368Y-70584765D01*
X166989500Y-70589368D01*
X166989500Y-70847627D01*
X166984476Y-70882565D01*
X166981289Y-70893418D01*
X166943514Y-70952195D01*
X166879957Y-70981218D01*
X166810799Y-70971273D01*
X166810798Y-70971272D01*
X166806576Y-70969344D01*
X166770180Y-70942345D01*
X166769419Y-70943107D01*
X166649655Y-70823343D01*
X166649644Y-70823334D01*
X166649637Y-70823330D01*
X166507200Y-70739093D01*
X166507187Y-70739089D01*
X166348289Y-70692923D01*
X166348283Y-70692922D01*
X166348282Y-70692921D01*
X166348280Y-70692921D01*
X166311164Y-70690000D01*
X166311157Y-70690000D01*
X166282500Y-70690000D01*
X166282500Y-71358170D01*
X166277475Y-71393112D01*
X166276679Y-71395824D01*
X166273070Y-71408112D01*
X166235327Y-71466855D01*
X166233958Y-71468042D01*
X166179097Y-71495518D01*
X166171539Y-71497163D01*
X166145168Y-71500000D01*
X166032500Y-71500000D01*
X166032500Y-71608170D01*
X166027475Y-71643114D01*
X166023070Y-71658112D01*
X165985327Y-71716855D01*
X165983958Y-71718042D01*
X165929097Y-71745518D01*
X165921539Y-71747163D01*
X165895168Y-71750000D01*
X165167270Y-71750000D01*
X165154475Y-71763840D01*
X165146761Y-71778783D01*
X165142486Y-71776575D01*
X165124697Y-71809675D01*
X165067543Y-71842612D01*
X165063730Y-71843600D01*
X165056258Y-71845535D01*
X165025157Y-71849500D01*
X164573086Y-71849500D01*
X164556901Y-71848439D01*
X164548913Y-71847387D01*
X164540927Y-71846336D01*
X164525021Y-71843172D01*
X164511317Y-71839500D01*
X164511315Y-71839500D01*
X164511314Y-71839500D01*
X164081719Y-71839500D01*
X164057527Y-71837117D01*
X164033120Y-71832262D01*
X164018120Y-71828288D01*
X164016352Y-71827699D01*
X164016340Y-71827695D01*
X163898176Y-71796034D01*
X163873791Y-71789500D01*
X163873790Y-71789500D01*
X163726209Y-71789500D01*
X163583642Y-71827700D01*
X163582597Y-71828055D01*
X163566935Y-71832251D01*
X163542472Y-71837117D01*
X163518281Y-71839500D01*
X161202330Y-71839500D01*
X161167389Y-71834475D01*
X161152390Y-71830070D01*
X161093644Y-71792327D01*
X161092457Y-71790958D01*
X161064977Y-71736083D01*
X161063332Y-71728521D01*
X161060500Y-71702168D01*
X161060500Y-71250000D01*
X165167270Y-71250000D01*
X165782500Y-71250000D01*
X165782500Y-70690000D01*
X165753834Y-70690000D01*
X165716718Y-70692921D01*
X165716716Y-70692921D01*
X165716715Y-70692922D01*
X165716709Y-70692923D01*
X165557811Y-70739089D01*
X165557798Y-70739093D01*
X165415361Y-70823330D01*
X165415354Y-70823334D01*
X165415343Y-70823343D01*
X165298343Y-70940343D01*
X165298334Y-70940354D01*
X165298330Y-70940361D01*
X165215796Y-71079920D01*
X165214393Y-71082152D01*
X165214089Y-71082804D01*
X165167922Y-71241711D01*
X165167921Y-71241715D01*
X165167921Y-71241718D01*
X165167270Y-71250000D01*
X161060500Y-71250000D01*
X161060500Y-70814417D01*
X161065522Y-70779484D01*
X161067915Y-70771334D01*
X161069433Y-70766165D01*
X161107206Y-70707388D01*
X161170758Y-70678363D01*
X161174363Y-70677844D01*
X161177543Y-70677388D01*
X161234184Y-70682421D01*
X161247718Y-70686905D01*
X161276081Y-70696304D01*
X161276085Y-70696305D01*
X161378795Y-70706798D01*
X161828775Y-70706798D01*
X162328776Y-70706798D01*
X162778736Y-70706798D01*
X162778748Y-70706798D01*
X162778762Y-70706797D01*
X162881473Y-70696304D01*
X163047895Y-70641157D01*
X163047900Y-70641155D01*
X163197121Y-70549114D01*
X163321091Y-70425144D01*
X163413132Y-70275923D01*
X163413134Y-70275918D01*
X163468281Y-70109496D01*
X163468282Y-70109489D01*
X163478775Y-70006785D01*
X163478776Y-70006772D01*
X163478776Y-69794299D01*
X162328776Y-69794299D01*
X162328776Y-70706798D01*
X161828775Y-70706798D01*
X161828776Y-70706797D01*
X161828776Y-69375307D01*
X165751355Y-69375307D01*
X165751355Y-69540808D01*
X165792510Y-69701094D01*
X165792513Y-69701102D01*
X165872232Y-69846110D01*
X165872235Y-69846115D01*
X165872238Y-69846119D01*
X165872242Y-69846124D01*
X165872252Y-69846136D01*
X165896406Y-69874417D01*
X165896417Y-69874429D01*
X165896423Y-69874436D01*
X165896439Y-69874453D01*
X165916682Y-69894696D01*
X165916683Y-69894696D01*
X166312663Y-69498717D01*
X165877629Y-69063683D01*
X165872240Y-69069994D01*
X165872233Y-69070002D01*
X165872230Y-69070007D01*
X165792513Y-69215013D01*
X165792510Y-69215021D01*
X165751355Y-69375307D01*
X161828776Y-69375307D01*
X161828776Y-69294299D01*
X162328776Y-69294299D01*
X163478775Y-69294299D01*
X163478775Y-69081827D01*
X163478774Y-69081812D01*
X163468281Y-68979101D01*
X163413134Y-68812679D01*
X163413132Y-68812674D01*
X163321091Y-68663453D01*
X163197121Y-68539483D01*
X163047900Y-68447442D01*
X163047895Y-68447440D01*
X163047886Y-68447437D01*
X162881475Y-68392293D01*
X162881470Y-68392292D01*
X162778767Y-68381799D01*
X162778762Y-68381799D01*
X162328776Y-68381799D01*
X162328776Y-69294299D01*
X161828776Y-69294299D01*
X161828776Y-68381799D01*
X161378815Y-68381799D01*
X161378804Y-68381799D01*
X161378788Y-68381800D01*
X161378780Y-68381800D01*
X161378776Y-68381801D01*
X161276083Y-68392292D01*
X161276080Y-68392292D01*
X161276076Y-68392293D01*
X161276073Y-68392294D01*
X161240425Y-68404106D01*
X161205686Y-68410326D01*
X161191815Y-68410803D01*
X161124138Y-68393434D01*
X161076596Y-68342234D01*
X161076590Y-68342222D01*
X161073537Y-68336101D01*
X161060500Y-68280755D01*
X161060500Y-67727775D01*
X161065522Y-67692842D01*
X161067056Y-67687618D01*
X161072934Y-67667597D01*
X161104228Y-67614855D01*
X161132417Y-67586667D01*
X161172122Y-67546962D01*
X161239330Y-67430553D01*
X161274120Y-67300717D01*
X161274120Y-67166299D01*
X161239330Y-67036463D01*
X161172122Y-66920054D01*
X161077074Y-66825006D01*
X161032420Y-66799225D01*
X161003987Y-66769405D01*
X160928207Y-66749099D01*
X160928207Y-66749100D01*
X160857614Y-66730185D01*
X160830829Y-66723008D01*
X160830828Y-66723008D01*
X160696411Y-66723008D01*
X160599033Y-66749100D01*
X160599032Y-66749099D01*
X160566578Y-66757796D01*
X160566567Y-66757801D01*
X160450185Y-66824993D01*
X160450169Y-66825003D01*
X160450163Y-66825007D01*
X160450158Y-66825011D01*
X160141506Y-67133663D01*
X160141500Y-67133670D01*
X160141495Y-67133676D01*
X160141494Y-67133677D01*
X160082456Y-67235937D01*
X160082447Y-67235950D01*
X160074289Y-67250079D01*
X160056895Y-67314999D01*
X160039500Y-67379919D01*
X160039500Y-69740857D01*
X160034476Y-69775795D01*
X160031289Y-69786648D01*
X159993514Y-69845425D01*
X159929957Y-69874448D01*
X159860807Y-69864507D01*
X159853829Y-69861320D01*
X159817657Y-69836206D01*
X159632998Y-69651546D01*
X159632991Y-69651540D01*
X159632985Y-69651535D01*
X159632979Y-69651531D01*
X159562193Y-69610664D01*
X159562188Y-69610661D01*
X159562183Y-69610659D01*
X159562176Y-69610657D01*
X159562165Y-69610653D01*
X159548579Y-69607013D01*
X159516135Y-69593119D01*
X159490188Y-69577303D01*
X159466021Y-69556537D01*
X159465407Y-69557152D01*
X159381668Y-69473413D01*
X159381667Y-69473412D01*
X159368208Y-69467136D01*
X159368205Y-69467134D01*
X159368203Y-69467133D01*
X159362454Y-69464453D01*
X159356101Y-69461490D01*
X159321750Y-69431240D01*
X159232557Y-69419500D01*
X159232555Y-69419500D01*
X159232554Y-69419500D01*
X158762446Y-69419500D01*
X158762445Y-69419500D01*
X158739107Y-69422572D01*
X158715765Y-69425644D01*
X158714526Y-69426006D01*
X158698429Y-69429558D01*
X158692411Y-69430471D01*
X158678609Y-69432567D01*
X158609376Y-69423166D01*
X158604506Y-69420988D01*
X158560612Y-69388057D01*
X158559621Y-69386890D01*
X158548022Y-69370775D01*
X158523362Y-69329982D01*
X158523361Y-69329981D01*
X158523359Y-69329979D01*
X158523358Y-69329977D01*
X158410023Y-69216642D01*
X158410022Y-69216641D01*
X158410021Y-69216640D01*
X158410018Y-69216638D01*
X158272863Y-69133725D01*
X158272852Y-69133721D01*
X158211156Y-69114496D01*
X158176121Y-69091156D01*
X158068534Y-69081380D01*
X158053337Y-69080000D01*
X158053336Y-69080000D01*
X158052500Y-69080000D01*
X157552500Y-69080000D01*
X157551655Y-69080000D01*
X157485159Y-69086041D01*
X157485157Y-69086042D01*
X157332139Y-69133724D01*
X157332137Y-69133724D01*
X157332135Y-69133725D01*
X157194980Y-69216638D01*
X157194976Y-69216641D01*
X157194970Y-69216646D01*
X157081646Y-69329970D01*
X157081641Y-69329976D01*
X157081638Y-69329980D01*
X156998727Y-69467134D01*
X156998725Y-69467137D01*
X156998724Y-69467139D01*
X156998724Y-69467140D01*
X156951043Y-69620155D01*
X156948331Y-69650000D01*
X156386445Y-69650000D01*
X156386445Y-64676998D01*
X156387505Y-64660818D01*
X156389610Y-64644829D01*
X156392769Y-64628944D01*
X156423322Y-64514922D01*
X156423322Y-64367338D01*
X156392768Y-64253310D01*
X156389609Y-64237425D01*
X156387504Y-64221436D01*
X156386445Y-64205259D01*
X156386445Y-61628986D01*
X156391468Y-61594052D01*
X156396769Y-61575998D01*
X156430172Y-61521193D01*
X156437717Y-61513999D01*
X156461278Y-61496360D01*
X156544155Y-61448512D01*
X156648512Y-61344155D01*
X156648512Y-61344154D01*
X156665948Y-61326718D01*
X156665952Y-61326711D01*
X160748512Y-57244155D01*
X160748512Y-57244153D01*
X160765948Y-57226718D01*
X160765952Y-57226711D01*
X163473853Y-54518813D01*
X163475923Y-54516792D01*
X163501745Y-54492171D01*
X163501746Y-54492172D01*
X163520543Y-54474249D01*
X163576879Y-54443490D01*
X163587011Y-54441032D01*
X163616232Y-54437540D01*
X166321602Y-54437540D01*
X166356534Y-54442561D01*
G37*
%TD.AperFunction*%
%TA.AperFunction,Conductor*%
G36*
X166237918Y-51530124D02*
G01*
X166243078Y-51533038D01*
X166269773Y-51553323D01*
X169962874Y-55246424D01*
X172053475Y-57337024D01*
X172061345Y-57347537D01*
X172069833Y-57356501D01*
X172099568Y-57410955D01*
X172096239Y-57457503D01*
X172123511Y-57451237D01*
X172178169Y-57470902D01*
X172186202Y-57479385D01*
X172212559Y-57496108D01*
X174750573Y-60034122D01*
X174771723Y-60062374D01*
X174784331Y-60085463D01*
X174799500Y-60144892D01*
X174799500Y-60858468D01*
X174794477Y-60893404D01*
X174792756Y-60899265D01*
X174754981Y-60958043D01*
X174691425Y-60987067D01*
X174622267Y-60977123D01*
X174569470Y-60931379D01*
X174569191Y-60930945D01*
X174566918Y-60927409D01*
X174551454Y-60892453D01*
X174548026Y-60879660D01*
X174522303Y-60783655D01*
X174522303Y-60783653D01*
X174495920Y-60737958D01*
X174495918Y-60737956D01*
X174490538Y-60728637D01*
X174448512Y-60655845D01*
X174344155Y-60551488D01*
X174344154Y-60551487D01*
X172174104Y-58381437D01*
X172152952Y-58353181D01*
X172140345Y-58330092D01*
X172125178Y-58270667D01*
X172125178Y-57914952D01*
X172125178Y-57914950D01*
X172086981Y-57772396D01*
X172013190Y-57644586D01*
X172013188Y-57644584D01*
X172009126Y-57637548D01*
X172012060Y-57635853D01*
X171992532Y-57585301D01*
X171998375Y-57556846D01*
X171987248Y-57560997D01*
X171918975Y-57546145D01*
X171915941Y-57544171D01*
X171915871Y-57544293D01*
X171908834Y-57540230D01*
X171908833Y-57540229D01*
X171894343Y-57531863D01*
X171890043Y-57527322D01*
X171872845Y-57519451D01*
X171781023Y-57466438D01*
X171638469Y-57428241D01*
X171638468Y-57428241D01*
X171390099Y-57428241D01*
X171355163Y-57423218D01*
X171329921Y-57415806D01*
X171277176Y-57384510D01*
X168873242Y-54980576D01*
X168852090Y-54952320D01*
X168839483Y-54929231D01*
X168824316Y-54869806D01*
X168824316Y-54828480D01*
X168824316Y-54828478D01*
X168786119Y-54685924D01*
X168712328Y-54558114D01*
X168607971Y-54453757D01*
X168480161Y-54379966D01*
X168337607Y-54341769D01*
X168337606Y-54341769D01*
X167949548Y-54341769D01*
X167914612Y-54336746D01*
X167889370Y-54329334D01*
X167836625Y-54298038D01*
X167082880Y-53544294D01*
X167082871Y-53544284D01*
X167071469Y-53532882D01*
X166967116Y-53428529D01*
X166967115Y-53428528D01*
X166853446Y-53362901D01*
X166853440Y-53362896D01*
X166839309Y-53354738D01*
X166839306Y-53354737D01*
X166824490Y-53350767D01*
X166823794Y-53350580D01*
X166809674Y-53346796D01*
X166809674Y-53346797D01*
X166761947Y-53334009D01*
X166761946Y-53334008D01*
X166714220Y-53321220D01*
X166696752Y-53316540D01*
X166696751Y-53316540D01*
X165948415Y-53316540D01*
X165913480Y-53311517D01*
X165902626Y-53308330D01*
X165843848Y-53270556D01*
X165814823Y-53207000D01*
X165824763Y-53137851D01*
X165827953Y-53130864D01*
X165853061Y-53094701D01*
X165878711Y-53069052D01*
X165915690Y-53032073D01*
X166026760Y-52879199D01*
X166112547Y-52710832D01*
X166170940Y-52531118D01*
X166178706Y-52482083D01*
X166200500Y-52344486D01*
X166200500Y-52155513D01*
X166170940Y-51968881D01*
X166112545Y-51789163D01*
X166086696Y-51738434D01*
X166086696Y-51738433D01*
X166086694Y-51738431D01*
X166067732Y-51701215D01*
X166056345Y-51667796D01*
X166055063Y-51660966D01*
X166062043Y-51591446D01*
X166105499Y-51536735D01*
X166171637Y-51514204D01*
X166237918Y-51530124D01*
G37*
%TD.AperFunction*%
%TA.AperFunction,Conductor*%
G36*
X163897680Y-51539049D02*
G01*
X163939549Y-51594984D01*
X163944895Y-51662946D01*
X163943719Y-51668748D01*
X163932675Y-51700409D01*
X163913301Y-51738434D01*
X163887455Y-51789160D01*
X163829059Y-51968881D01*
X163829058Y-51968884D01*
X163829058Y-51968886D01*
X163799500Y-52155507D01*
X163799500Y-52344491D01*
X163821292Y-52482080D01*
X163829059Y-52531118D01*
X163887454Y-52710836D01*
X163967545Y-52868022D01*
X163973240Y-52879199D01*
X164084310Y-53032073D01*
X164084312Y-53032075D01*
X164144488Y-53092251D01*
X164165637Y-53120501D01*
X164171058Y-53130428D01*
X164185912Y-53198701D01*
X164161498Y-53264166D01*
X164105566Y-53306039D01*
X164105562Y-53306041D01*
X164098374Y-53308722D01*
X164055040Y-53316540D01*
X163595574Y-53316540D01*
X163560638Y-53311517D01*
X163535396Y-53304105D01*
X163482651Y-53272809D01*
X163390883Y-53181041D01*
X163390882Y-53181040D01*
X163263072Y-53107249D01*
X163120519Y-53069052D01*
X163120517Y-53069052D01*
X162972935Y-53069052D01*
X162830378Y-53107249D01*
X162702573Y-53181038D01*
X162702571Y-53181040D01*
X162598216Y-53285394D01*
X162598215Y-53285395D01*
X162562250Y-53347690D01*
X162562243Y-53347699D01*
X162562244Y-53347700D01*
X162524433Y-53413187D01*
X162524424Y-53413203D01*
X162524393Y-53413287D01*
X162524152Y-53414220D01*
X162520318Y-53428530D01*
X162492357Y-53532885D01*
X162489300Y-53544294D01*
X162486227Y-53555761D01*
X162486227Y-53851914D01*
X162481203Y-53886851D01*
X162473791Y-53912092D01*
X162442496Y-53964836D01*
X160282846Y-56124486D01*
X160254595Y-56145635D01*
X160231507Y-56158243D01*
X160172077Y-56173413D01*
X160046804Y-56173413D01*
X159968901Y-56194287D01*
X159916963Y-56208203D01*
X159902835Y-56216360D01*
X159902822Y-56216369D01*
X159800562Y-56275407D01*
X159800561Y-56275408D01*
X159800555Y-56275413D01*
X159800548Y-56275419D01*
X159705519Y-56370448D01*
X159705513Y-56370455D01*
X159705508Y-56370461D01*
X159705507Y-56370462D01*
X159646469Y-56472722D01*
X159646460Y-56472735D01*
X159638302Y-56486864D01*
X159620908Y-56551784D01*
X159603513Y-56616704D01*
X159603513Y-56734627D01*
X159598489Y-56769564D01*
X159591077Y-56794805D01*
X159559782Y-56847549D01*
X156016761Y-60390572D01*
X155988510Y-60411721D01*
X155965422Y-60424329D01*
X155905992Y-60439499D01*
X155826209Y-60439499D01*
X155699423Y-60473472D01*
X155682807Y-60475659D01*
X155669515Y-60485859D01*
X155636872Y-60504706D01*
X155636871Y-60504707D01*
X155569817Y-60543420D01*
X155569818Y-60543421D01*
X155555840Y-60551491D01*
X155555838Y-60551492D01*
X155424785Y-60682546D01*
X155396532Y-60703697D01*
X155386608Y-60709116D01*
X155318335Y-60723968D01*
X155252870Y-60699552D01*
X155210999Y-60643618D01*
X155210997Y-60643614D01*
X155208313Y-60636416D01*
X155200500Y-60593096D01*
X155200500Y-60152241D01*
X155205522Y-60117308D01*
X155212934Y-60092063D01*
X155244228Y-60039321D01*
X159146456Y-56137094D01*
X163729589Y-51553959D01*
X163757844Y-51532809D01*
X163763943Y-51529479D01*
X163832217Y-51514629D01*
X163897680Y-51539049D01*
G37*
%TD.AperFunction*%
%TD*%
%TA.AperFunction,Conductor*%
%TO.N,GND*%
G36*
X166757675Y-81232424D02*
G01*
X166702787Y-81994417D01*
X166321124Y-81881107D01*
X166365058Y-82038795D01*
X166065058Y-82038795D01*
X166065058Y-81775041D01*
X166108992Y-81668975D01*
X166486784Y-81180145D01*
X166757675Y-81232424D01*
G37*
%TD.AperFunction*%
%TD*%
%TA.AperFunction,Conductor*%
%TO.N,Net-(J1-SWO)*%
G36*
X166374862Y-59979766D02*
G01*
X166382529Y-59984384D01*
X166383046Y-59985084D01*
X166385334Y-59991896D01*
X166392362Y-60582387D01*
X166391525Y-60586874D01*
X166389953Y-60590801D01*
X166387364Y-60594726D01*
X166190539Y-60791551D01*
X166186747Y-60794086D01*
X166185102Y-60794768D01*
X166176147Y-60794770D01*
X166174681Y-60794163D01*
X166170595Y-60791325D01*
X165975941Y-60582101D01*
X165975941Y-60582100D01*
X165688915Y-60273589D01*
X165686517Y-60269704D01*
X165685401Y-60266708D01*
X165685362Y-60258646D01*
X165725986Y-60146286D01*
X165728342Y-60142384D01*
X165730696Y-60139804D01*
X165736519Y-60136337D01*
X166368545Y-59979713D01*
X166373098Y-59979500D01*
X166374862Y-59979766D01*
G37*
%TD.AperFunction*%
%TD*%
%TA.AperFunction,Conductor*%
%TO.N,Net-(J1-SWCLK)*%
G36*
X165006960Y-59755314D02*
G01*
X165008263Y-59756077D01*
X165011455Y-59758821D01*
X165244228Y-60046841D01*
X165468954Y-60324905D01*
X165471075Y-60328946D01*
X165471680Y-60330995D01*
X165471019Y-60339346D01*
X165470456Y-60340526D01*
X165468169Y-60343761D01*
X165275171Y-60536758D01*
X165271379Y-60539293D01*
X165269734Y-60539975D01*
X165260779Y-60539977D01*
X165259127Y-60539293D01*
X165255334Y-60536758D01*
X165200808Y-60482232D01*
X165200799Y-60482224D01*
X165130021Y-60441360D01*
X165129999Y-60441348D01*
X165129997Y-60441347D01*
X165080259Y-60428021D01*
X165078565Y-60427425D01*
X165076935Y-60426706D01*
X165075355Y-60425859D01*
X164958546Y-60351186D01*
X164955514Y-60348382D01*
X164953144Y-60345246D01*
X164951275Y-60341565D01*
X164816571Y-59893749D01*
X164816135Y-59889208D01*
X164816422Y-59886356D01*
X164819290Y-59879790D01*
X164819440Y-59879620D01*
X164821413Y-59877845D01*
X164992339Y-59756320D01*
X164996495Y-59754456D01*
X164998444Y-59754009D01*
X165006960Y-59755314D01*
G37*
%TD.AperFunction*%
%TD*%
%TA.AperFunction,Conductor*%
%TO.N,Net-(J1-SWDIO)*%
G36*
X163739443Y-59755752D02*
G01*
X164208845Y-60293037D01*
X164211707Y-60301522D01*
X164208307Y-60309008D01*
X164011064Y-60506251D01*
X164002791Y-60509678D01*
X163995798Y-60507359D01*
X163994312Y-60506251D01*
X163732308Y-60310942D01*
X163728387Y-60305775D01*
X163556143Y-59859316D01*
X163556363Y-59850366D01*
X163561337Y-59844902D01*
X163724915Y-59753242D01*
X163733805Y-59752189D01*
X163739443Y-59755752D01*
G37*
%TD.AperFunction*%
%TD*%
%TA.AperFunction,Conductor*%
%TO.N,RESET*%
G36*
X164977935Y-57995951D02*
G01*
X165174352Y-58192368D01*
X165177779Y-58200641D01*
X165174919Y-58208306D01*
X164969446Y-58445273D01*
X164965449Y-58448259D01*
X164529503Y-58646490D01*
X164520553Y-58646795D01*
X164514009Y-58640682D01*
X164513875Y-58640376D01*
X164449543Y-58486091D01*
X164449523Y-58477137D01*
X164452341Y-58473053D01*
X164961663Y-57995686D01*
X164970041Y-57992530D01*
X164977935Y-57995951D01*
G37*
%TD.AperFunction*%
%TD*%
M02*
