%TF.GenerationSoftware,KiCad,Pcbnew,10.0.5*%
%TF.CreationDate,2026-08-22T12:14:02+02:00*%
%TF.ProjectId,Leucht-Ohrringe,4c657563-6874-42d4-9f68-7272696e6765,rev?*%
%TF.SameCoordinates,Original*%
%TF.FileFunction,Legend,Top*%
%TF.FilePolarity,Positive*%
%FSLAX46Y46*%
G04 Gerber Fmt 4.6, Leading zero omitted, Abs format (unit mm)*
G04 Created by KiCad (PCBNEW 10.0.5) date 2026-08-22 12:14:02*
%MOMM*%
%LPD*%
G01*
G04 APERTURE LIST*
G04 Aperture macros list*
%AMRoundRect*
0 Rectangle with rounded corners*
0 $1 Rounding radius*
0 $2 $3 $4 $5 $6 $7 $8 $9 X,Y pos of 4 corners*
0 Add a 4 corners polygon primitive as box body*
4,1,4,$2,$3,$4,$5,$6,$7,$8,$9,$2,$3,0*
0 Add four circle primitives for the rounded corners*
1,1,$1+$1,$2,$3*
1,1,$1+$1,$4,$5*
1,1,$1+$1,$6,$7*
1,1,$1+$1,$8,$9*
0 Add four rect primitives between the rounded corners*
20,1,$1+$1,$2,$3,$4,$5,0*
20,1,$1+$1,$4,$5,$6,$7,0*
20,1,$1+$1,$6,$7,$8,$9,0*
20,1,$1+$1,$8,$9,$2,$3,0*%
%AMHorizOval*
0 Thick line with rounded ends*
0 $1 width*
0 $2 $3 position (X,Y) of the first rounded end (center of the circle)*
0 $4 $5 position (X,Y) of the second rounded end (center of the circle)*
0 Add line between two ends*
20,1,$1,$2,$3,$4,$5,0*
0 Add two circle primitives to create the rounded ends*
1,1,$1,$2,$3*
1,1,$1,$4,$5*%
%AMRotRect*
0 Rectangle, with rotation*
0 The origin of the aperture is its center*
0 $1 length*
0 $2 width*
0 $3 Rotation angle, in degrees counterclockwise*
0 Add horizontal line*
21,1,$1,$2,0,0,$3*%
G04 Aperture macros list end*
%ADD10C,0.150000*%
%ADD11C,0.100000*%
%ADD12C,0.120000*%
%ADD13C,0.300000*%
%ADD14C,0.650000*%
%ADD15HorizOval,1.000000X-0.335468X0.217856X0.335468X-0.217856X0*%
%ADD16HorizOval,1.000000X-0.461269X0.299551X0.461269X-0.299551X0*%
%ADD17RoundRect,0.140000X0.170000X-0.140000X0.170000X0.140000X-0.170000X0.140000X-0.170000X-0.140000X0*%
%ADD18R,0.700000X0.700000*%
%ADD19RotRect,0.700000X0.700000X123.000000*%
%ADD20RotRect,0.700000X0.700000X315.000000*%
%ADD21RoundRect,0.140000X0.140000X0.170000X-0.140000X0.170000X-0.140000X-0.170000X0.140000X-0.170000X0*%
%ADD22RotRect,0.700000X0.700000X237.000000*%
%ADD23RotRect,0.700000X0.700000X45.000000*%
%ADD24RoundRect,0.155000X0.155000X-0.212500X0.155000X0.212500X-0.155000X0.212500X-0.155000X-0.212500X0*%
%ADD25RoundRect,0.112500X0.007769X0.218523X-0.196470X-0.095979X-0.007769X-0.218523X0.196470X0.095979X0*%
%ADD26RoundRect,0.147500X0.147500X0.172500X-0.147500X0.172500X-0.147500X-0.172500X0.147500X-0.172500X0*%
%ADD27R,0.250000X0.675000*%
%ADD28R,0.675000X0.250000*%
%ADD29RoundRect,0.050000X0.050000X-0.350000X0.050000X0.350000X-0.050000X0.350000X-0.050000X-0.350000X0*%
%ADD30RoundRect,0.050000X0.350000X-0.050000X0.350000X0.050000X-0.350000X0.050000X-0.350000X-0.050000X0*%
%ADD31R,4.600000X4.600000*%
%ADD32RoundRect,0.200000X-0.121707X0.317510X-0.339562X-0.017958X0.121707X-0.317510X0.339562X0.017958X0*%
%ADD33R,1.660000X0.800000*%
%ADD34RoundRect,0.137500X0.612500X0.137500X-0.612500X0.137500X-0.612500X-0.137500X0.612500X-0.137500X0*%
%ADD35RoundRect,0.112500X-0.007769X-0.218523X0.196470X0.095979X0.007769X0.218523X-0.196470X-0.095979X0*%
%ADD36RoundRect,0.135000X-0.185000X0.135000X-0.185000X-0.135000X0.185000X-0.135000X0.185000X0.135000X0*%
%ADD37C,0.990600*%
G04 APERTURE END LIST*
D10*
X159259580Y-68866666D02*
X159307200Y-68914285D01*
X159307200Y-68914285D02*
X159354819Y-69057142D01*
X159354819Y-69057142D02*
X159354819Y-69152380D01*
X159354819Y-69152380D02*
X159307200Y-69295237D01*
X159307200Y-69295237D02*
X159211961Y-69390475D01*
X159211961Y-69390475D02*
X159116723Y-69438094D01*
X159116723Y-69438094D02*
X158926247Y-69485713D01*
X158926247Y-69485713D02*
X158783390Y-69485713D01*
X158783390Y-69485713D02*
X158592914Y-69438094D01*
X158592914Y-69438094D02*
X158497676Y-69390475D01*
X158497676Y-69390475D02*
X158402438Y-69295237D01*
X158402438Y-69295237D02*
X158354819Y-69152380D01*
X158354819Y-69152380D02*
X158354819Y-69057142D01*
X158354819Y-69057142D02*
X158402438Y-68914285D01*
X158402438Y-68914285D02*
X158450057Y-68866666D01*
X159354819Y-67914285D02*
X159354819Y-68485713D01*
X159354819Y-68199999D02*
X158354819Y-68199999D01*
X158354819Y-68199999D02*
X158497676Y-68295237D01*
X158497676Y-68295237D02*
X158592914Y-68390475D01*
X158592914Y-68390475D02*
X158640533Y-68485713D01*
X158133333Y-74659580D02*
X158085714Y-74707200D01*
X158085714Y-74707200D02*
X157942857Y-74754819D01*
X157942857Y-74754819D02*
X157847619Y-74754819D01*
X157847619Y-74754819D02*
X157704762Y-74707200D01*
X157704762Y-74707200D02*
X157609524Y-74611961D01*
X157609524Y-74611961D02*
X157561905Y-74516723D01*
X157561905Y-74516723D02*
X157514286Y-74326247D01*
X157514286Y-74326247D02*
X157514286Y-74183390D01*
X157514286Y-74183390D02*
X157561905Y-73992914D01*
X157561905Y-73992914D02*
X157609524Y-73897676D01*
X157609524Y-73897676D02*
X157704762Y-73802438D01*
X157704762Y-73802438D02*
X157847619Y-73754819D01*
X157847619Y-73754819D02*
X157942857Y-73754819D01*
X157942857Y-73754819D02*
X158085714Y-73802438D01*
X158085714Y-73802438D02*
X158133333Y-73850057D01*
X158466667Y-73754819D02*
X159085714Y-73754819D01*
X159085714Y-73754819D02*
X158752381Y-74135771D01*
X158752381Y-74135771D02*
X158895238Y-74135771D01*
X158895238Y-74135771D02*
X158990476Y-74183390D01*
X158990476Y-74183390D02*
X159038095Y-74231009D01*
X159038095Y-74231009D02*
X159085714Y-74326247D01*
X159085714Y-74326247D02*
X159085714Y-74564342D01*
X159085714Y-74564342D02*
X159038095Y-74659580D01*
X159038095Y-74659580D02*
X158990476Y-74707200D01*
X158990476Y-74707200D02*
X158895238Y-74754819D01*
X158895238Y-74754819D02*
X158609524Y-74754819D01*
X158609524Y-74754819D02*
X158514286Y-74707200D01*
X158514286Y-74707200D02*
X158466667Y-74659580D01*
X171434442Y-75000943D02*
X171482062Y-75048562D01*
X171482062Y-75048562D02*
X171529681Y-75191419D01*
X171529681Y-75191419D02*
X171529681Y-75286657D01*
X171529681Y-75286657D02*
X171482062Y-75429514D01*
X171482062Y-75429514D02*
X171386823Y-75524752D01*
X171386823Y-75524752D02*
X171291585Y-75572371D01*
X171291585Y-75572371D02*
X171101109Y-75619990D01*
X171101109Y-75619990D02*
X170958252Y-75619990D01*
X170958252Y-75619990D02*
X170767776Y-75572371D01*
X170767776Y-75572371D02*
X170672538Y-75524752D01*
X170672538Y-75524752D02*
X170577300Y-75429514D01*
X170577300Y-75429514D02*
X170529681Y-75286657D01*
X170529681Y-75286657D02*
X170529681Y-75191419D01*
X170529681Y-75191419D02*
X170577300Y-75048562D01*
X170577300Y-75048562D02*
X170624919Y-75000943D01*
X170529681Y-74667609D02*
X170529681Y-74000943D01*
X170529681Y-74000943D02*
X171529681Y-74429514D01*
X166779448Y-90166730D02*
X165940777Y-89622091D01*
X165940777Y-89622091D02*
X166070453Y-89422408D01*
X166070453Y-89422408D02*
X166188195Y-89328533D01*
X166188195Y-89328533D02*
X166319939Y-89300530D01*
X166319939Y-89300530D02*
X166425748Y-89312463D01*
X166425748Y-89312463D02*
X166611430Y-89376267D01*
X166611430Y-89376267D02*
X166731240Y-89454073D01*
X166731240Y-89454073D02*
X166865051Y-89597750D01*
X166865051Y-89597750D02*
X166918989Y-89689558D01*
X166918989Y-89689558D02*
X166946992Y-89821301D01*
X166946992Y-89821301D02*
X166909124Y-89967047D01*
X166909124Y-89967047D02*
X166779448Y-90166730D01*
X166433546Y-88863294D02*
X166770703Y-88344117D01*
X166770703Y-88344117D02*
X166908650Y-88831155D01*
X166908650Y-88831155D02*
X166986456Y-88711345D01*
X166986456Y-88711345D02*
X167078263Y-88657407D01*
X167078263Y-88657407D02*
X167144135Y-88643405D01*
X167144135Y-88643405D02*
X167249944Y-88655339D01*
X167249944Y-88655339D02*
X167449627Y-88785015D01*
X167449627Y-88785015D02*
X167503565Y-88876822D01*
X167503565Y-88876822D02*
X167517567Y-88942694D01*
X167517567Y-88942694D02*
X167505633Y-89048503D01*
X167505633Y-89048503D02*
X167350022Y-89288123D01*
X167350022Y-89288123D02*
X167258215Y-89342061D01*
X167258215Y-89342061D02*
X167192343Y-89356062D01*
X159533333Y-65954819D02*
X159057143Y-65954819D01*
X159057143Y-65954819D02*
X159057143Y-64954819D01*
X160390476Y-65954819D02*
X159819048Y-65954819D01*
X160104762Y-65954819D02*
X160104762Y-64954819D01*
X160104762Y-64954819D02*
X160009524Y-65097676D01*
X160009524Y-65097676D02*
X159914286Y-65192914D01*
X159914286Y-65192914D02*
X159819048Y-65240533D01*
X167104819Y-70024404D02*
X167914342Y-70024404D01*
X167914342Y-70024404D02*
X168009580Y-69976785D01*
X168009580Y-69976785D02*
X168057200Y-69929166D01*
X168057200Y-69929166D02*
X168104819Y-69833928D01*
X168104819Y-69833928D02*
X168104819Y-69643452D01*
X168104819Y-69643452D02*
X168057200Y-69548214D01*
X168057200Y-69548214D02*
X168009580Y-69500595D01*
X168009580Y-69500595D02*
X167914342Y-69452976D01*
X167914342Y-69452976D02*
X167104819Y-69452976D01*
X167104819Y-69072023D02*
X167104819Y-68452976D01*
X167104819Y-68452976D02*
X167485771Y-68786309D01*
X167485771Y-68786309D02*
X167485771Y-68643452D01*
X167485771Y-68643452D02*
X167533390Y-68548214D01*
X167533390Y-68548214D02*
X167581009Y-68500595D01*
X167581009Y-68500595D02*
X167676247Y-68452976D01*
X167676247Y-68452976D02*
X167914342Y-68452976D01*
X167914342Y-68452976D02*
X168009580Y-68500595D01*
X168009580Y-68500595D02*
X168057200Y-68548214D01*
X168057200Y-68548214D02*
X168104819Y-68643452D01*
X168104819Y-68643452D02*
X168104819Y-68929166D01*
X168104819Y-68929166D02*
X168057200Y-69024404D01*
X168057200Y-69024404D02*
X168009580Y-69072023D01*
X162238095Y-73954819D02*
X162238095Y-74764342D01*
X162238095Y-74764342D02*
X162285714Y-74859580D01*
X162285714Y-74859580D02*
X162333333Y-74907200D01*
X162333333Y-74907200D02*
X162428571Y-74954819D01*
X162428571Y-74954819D02*
X162619047Y-74954819D01*
X162619047Y-74954819D02*
X162714285Y-74907200D01*
X162714285Y-74907200D02*
X162761904Y-74859580D01*
X162761904Y-74859580D02*
X162809523Y-74764342D01*
X162809523Y-74764342D02*
X162809523Y-73954819D01*
X163761904Y-73954819D02*
X163285714Y-73954819D01*
X163285714Y-73954819D02*
X163238095Y-74431009D01*
X163238095Y-74431009D02*
X163285714Y-74383390D01*
X163285714Y-74383390D02*
X163380952Y-74335771D01*
X163380952Y-74335771D02*
X163619047Y-74335771D01*
X163619047Y-74335771D02*
X163714285Y-74383390D01*
X163714285Y-74383390D02*
X163761904Y-74431009D01*
X163761904Y-74431009D02*
X163809523Y-74526247D01*
X163809523Y-74526247D02*
X163809523Y-74764342D01*
X163809523Y-74764342D02*
X163761904Y-74859580D01*
X163761904Y-74859580D02*
X163714285Y-74907200D01*
X163714285Y-74907200D02*
X163619047Y-74954819D01*
X163619047Y-74954819D02*
X163380952Y-74954819D01*
X163380952Y-74954819D02*
X163285714Y-74907200D01*
X163285714Y-74907200D02*
X163238095Y-74859580D01*
X165159580Y-65566666D02*
X165207200Y-65614285D01*
X165207200Y-65614285D02*
X165254819Y-65757142D01*
X165254819Y-65757142D02*
X165254819Y-65852380D01*
X165254819Y-65852380D02*
X165207200Y-65995237D01*
X165207200Y-65995237D02*
X165111961Y-66090475D01*
X165111961Y-66090475D02*
X165016723Y-66138094D01*
X165016723Y-66138094D02*
X164826247Y-66185713D01*
X164826247Y-66185713D02*
X164683390Y-66185713D01*
X164683390Y-66185713D02*
X164492914Y-66138094D01*
X164492914Y-66138094D02*
X164397676Y-66090475D01*
X164397676Y-66090475D02*
X164302438Y-65995237D01*
X164302438Y-65995237D02*
X164254819Y-65852380D01*
X164254819Y-65852380D02*
X164254819Y-65757142D01*
X164254819Y-65757142D02*
X164302438Y-65614285D01*
X164302438Y-65614285D02*
X164350057Y-65566666D01*
X164588152Y-64709523D02*
X165254819Y-64709523D01*
X164207200Y-64947618D02*
X164921485Y-65185713D01*
X164921485Y-65185713D02*
X164921485Y-64566666D01*
X170240642Y-88858227D02*
X169659729Y-88878432D01*
X169929420Y-89337467D02*
X169090749Y-88792828D01*
X169090749Y-88792828D02*
X169298231Y-88473334D01*
X169298231Y-88473334D02*
X169390038Y-88419396D01*
X169390038Y-88419396D02*
X169455910Y-88405395D01*
X169455910Y-88405395D02*
X169561718Y-88417328D01*
X169561718Y-88417328D02*
X169681528Y-88495134D01*
X169681528Y-88495134D02*
X169735466Y-88586941D01*
X169735466Y-88586941D02*
X169749468Y-88652813D01*
X169749468Y-88652813D02*
X169737534Y-88758622D01*
X169737534Y-88758622D02*
X169530053Y-89078115D01*
X170759346Y-88059493D02*
X170448123Y-88538733D01*
X170603735Y-88299113D02*
X169765064Y-87754474D01*
X169765064Y-87754474D02*
X169833004Y-87912153D01*
X169833004Y-87912153D02*
X169861007Y-88043897D01*
X169861007Y-88043897D02*
X169849073Y-88149705D01*
D11*
X159371704Y-63166666D02*
X159371704Y-62690476D01*
X159657419Y-63261904D02*
X158657419Y-62928571D01*
X158657419Y-62928571D02*
X159657419Y-62595238D01*
X159133609Y-62261904D02*
X159133609Y-61928571D01*
X159657419Y-61785714D02*
X159657419Y-62261904D01*
X159657419Y-62261904D02*
X158657419Y-62261904D01*
X158657419Y-62261904D02*
X158657419Y-61785714D01*
X159657419Y-60833333D02*
X159657419Y-61404761D01*
X159657419Y-61119047D02*
X158657419Y-61119047D01*
X158657419Y-61119047D02*
X158800276Y-61214285D01*
X158800276Y-61214285D02*
X158895514Y-61309523D01*
X158895514Y-61309523D02*
X158943133Y-61404761D01*
D10*
X161838095Y-77754819D02*
X161838095Y-78564342D01*
X161838095Y-78564342D02*
X161885714Y-78659580D01*
X161885714Y-78659580D02*
X161933333Y-78707200D01*
X161933333Y-78707200D02*
X162028571Y-78754819D01*
X162028571Y-78754819D02*
X162219047Y-78754819D01*
X162219047Y-78754819D02*
X162314285Y-78707200D01*
X162314285Y-78707200D02*
X162361904Y-78659580D01*
X162361904Y-78659580D02*
X162409523Y-78564342D01*
X162409523Y-78564342D02*
X162409523Y-77754819D01*
X163314285Y-78088152D02*
X163314285Y-78754819D01*
X163076190Y-77707200D02*
X162838095Y-78421485D01*
X162838095Y-78421485D02*
X163457142Y-78421485D01*
X169579448Y-86166730D02*
X168740777Y-85622091D01*
X168740777Y-85622091D02*
X168870453Y-85422408D01*
X168870453Y-85422408D02*
X168988195Y-85328533D01*
X168988195Y-85328533D02*
X169119939Y-85300530D01*
X169119939Y-85300530D02*
X169225748Y-85312463D01*
X169225748Y-85312463D02*
X169411430Y-85376267D01*
X169411430Y-85376267D02*
X169531240Y-85454073D01*
X169531240Y-85454073D02*
X169665051Y-85597750D01*
X169665051Y-85597750D02*
X169718989Y-85689558D01*
X169718989Y-85689558D02*
X169746992Y-85821301D01*
X169746992Y-85821301D02*
X169709124Y-85967047D01*
X169709124Y-85967047D02*
X169579448Y-86166730D01*
X169798390Y-84605537D02*
X170357503Y-84968629D01*
X169349220Y-84597738D02*
X169818595Y-85186450D01*
X169818595Y-85186450D02*
X170155752Y-84667273D01*
X159933333Y-67259580D02*
X159885714Y-67307200D01*
X159885714Y-67307200D02*
X159742857Y-67354819D01*
X159742857Y-67354819D02*
X159647619Y-67354819D01*
X159647619Y-67354819D02*
X159504762Y-67307200D01*
X159504762Y-67307200D02*
X159409524Y-67211961D01*
X159409524Y-67211961D02*
X159361905Y-67116723D01*
X159361905Y-67116723D02*
X159314286Y-66926247D01*
X159314286Y-66926247D02*
X159314286Y-66783390D01*
X159314286Y-66783390D02*
X159361905Y-66592914D01*
X159361905Y-66592914D02*
X159409524Y-66497676D01*
X159409524Y-66497676D02*
X159504762Y-66402438D01*
X159504762Y-66402438D02*
X159647619Y-66354819D01*
X159647619Y-66354819D02*
X159742857Y-66354819D01*
X159742857Y-66354819D02*
X159885714Y-66402438D01*
X159885714Y-66402438D02*
X159933333Y-66450057D01*
X160314286Y-66450057D02*
X160361905Y-66402438D01*
X160361905Y-66402438D02*
X160457143Y-66354819D01*
X160457143Y-66354819D02*
X160695238Y-66354819D01*
X160695238Y-66354819D02*
X160790476Y-66402438D01*
X160790476Y-66402438D02*
X160838095Y-66450057D01*
X160838095Y-66450057D02*
X160885714Y-66545295D01*
X160885714Y-66545295D02*
X160885714Y-66640533D01*
X160885714Y-66640533D02*
X160838095Y-66783390D01*
X160838095Y-66783390D02*
X160266667Y-67354819D01*
X160266667Y-67354819D02*
X160885714Y-67354819D01*
X163454819Y-62966666D02*
X162978628Y-63299999D01*
X163454819Y-63538094D02*
X162454819Y-63538094D01*
X162454819Y-63538094D02*
X162454819Y-63157142D01*
X162454819Y-63157142D02*
X162502438Y-63061904D01*
X162502438Y-63061904D02*
X162550057Y-63014285D01*
X162550057Y-63014285D02*
X162645295Y-62966666D01*
X162645295Y-62966666D02*
X162788152Y-62966666D01*
X162788152Y-62966666D02*
X162883390Y-63014285D01*
X162883390Y-63014285D02*
X162931009Y-63061904D01*
X162931009Y-63061904D02*
X162978628Y-63157142D01*
X162978628Y-63157142D02*
X162978628Y-63538094D01*
X162550057Y-62585713D02*
X162502438Y-62538094D01*
X162502438Y-62538094D02*
X162454819Y-62442856D01*
X162454819Y-62442856D02*
X162454819Y-62204761D01*
X162454819Y-62204761D02*
X162502438Y-62109523D01*
X162502438Y-62109523D02*
X162550057Y-62061904D01*
X162550057Y-62061904D02*
X162645295Y-62014285D01*
X162645295Y-62014285D02*
X162740533Y-62014285D01*
X162740533Y-62014285D02*
X162883390Y-62061904D01*
X162883390Y-62061904D02*
X163454819Y-62633332D01*
X163454819Y-62633332D02*
X163454819Y-62014285D01*
%TO.C,C1*%
D12*
X158540000Y-70707836D02*
X158540000Y-70492164D01*
X159260000Y-70707836D02*
X159260000Y-70492164D01*
%TO.C,D1*%
X155262822Y-63215000D02*
X155562822Y-63515000D01*
%TO.C,D5*%
X155262822Y-66656130D02*
X155562822Y-66956130D01*
%TO.C,D6*%
X155262822Y-70180720D02*
X155562822Y-70480720D01*
%TO.C,D7*%
X155262822Y-73736381D02*
X155562822Y-74036381D01*
%TO.C,D8*%
X155262822Y-77283603D02*
X155562822Y-77583603D01*
%TO.C,D9*%
X155262822Y-80722447D02*
X155562822Y-81022447D01*
%TO.C,D10*%
X155262822Y-84254759D02*
X155562822Y-84554759D01*
%TO.C,D11*%
X157552007Y-88394873D02*
X157966999Y-88483083D01*
%TO.C,D12*%
X159535110Y-91321319D02*
X159950102Y-91409528D01*
%TO.C,D13*%
X161452809Y-94335405D02*
X161867801Y-94423614D01*
%TO.C,D14*%
X166318109Y-97199728D02*
X166618109Y-96899728D01*
%TO.C,D25*%
X170422701Y-55998235D02*
X169998437Y-55998235D01*
%TO.C,C3*%
X159507836Y-73560000D02*
X159292164Y-73560000D01*
X159507836Y-72840000D02*
X159292164Y-72840000D01*
%TO.C,D15*%
X169834197Y-92157671D02*
X169745988Y-91742679D01*
%TO.C,D16*%
X171742091Y-89171257D02*
X171653881Y-88756264D01*
%TO.C,D17*%
X173730159Y-86211017D02*
X173641949Y-85796024D01*
%TO.C,D18*%
X174600000Y-81700000D02*
X174300000Y-81400000D01*
%TO.C,D19*%
X174600000Y-78133393D02*
X174300000Y-77833393D01*
%TO.C,D20*%
X174600000Y-74671171D02*
X174300000Y-74371171D01*
%TO.C,D21*%
X174600000Y-71092883D02*
X174300000Y-70792883D01*
%TO.C,D22*%
X174600000Y-67646306D02*
X174300000Y-67346306D01*
%TO.C,D23*%
X174600000Y-64133948D02*
X174300000Y-63833948D01*
%TO.C,D24*%
X174600000Y-60653432D02*
X174300000Y-60353432D01*
%TO.C,D26*%
X167121839Y-52911763D02*
X166697575Y-52911763D01*
%TO.C,D27*%
X161056221Y-54771529D02*
X161056221Y-55195793D01*
%TO.C,D28*%
X158123507Y-57825890D02*
X158123507Y-58250154D01*
%TO.C,C7*%
X169540000Y-74783335D02*
X169540000Y-74551665D01*
X170260000Y-74783335D02*
X170260000Y-74551665D01*
%TO.C,D3*%
X166111842Y-85981305D02*
X164663102Y-88212169D01*
X167537582Y-86907192D02*
X166088842Y-89138055D01*
X167537582Y-86907192D02*
X166111842Y-85981305D01*
%TO.C,U3*%
D11*
X168250000Y-69200000D02*
X168470000Y-69200000D01*
X168250000Y-69920000D02*
X168250000Y-69200000D01*
X168250000Y-72200000D02*
X168250000Y-71680000D01*
X170730000Y-69200000D02*
X170950000Y-69200000D01*
X170950000Y-69200000D02*
X170950000Y-69920000D01*
X170950000Y-72400000D02*
X170730000Y-72400000D01*
X170950000Y-72400000D02*
X170950000Y-71680000D01*
X168250000Y-72400000D02*
X168250000Y-72760000D01*
X167890000Y-72400000D01*
X168250000Y-72400000D01*
G36*
X168250000Y-72760000D02*
G01*
X167890000Y-72400000D01*
X168250000Y-72400000D01*
X168250000Y-72760000D01*
G37*
%TO.C,U5*%
D12*
X160460000Y-67060000D02*
X161010000Y-67060000D01*
X160460000Y-67610000D02*
X160460000Y-67060000D01*
X160460000Y-73280000D02*
X160460000Y-72730000D01*
X161010000Y-73280000D02*
X160460000Y-73280000D01*
X166130000Y-67060000D02*
X166680000Y-67060000D01*
X166680000Y-67060000D02*
X166680000Y-67610000D01*
X166680000Y-72730000D02*
X166680000Y-73280000D01*
X166680000Y-73280000D02*
X166130000Y-73280000D01*
X161370000Y-73780000D02*
X161610000Y-74110000D01*
X161130000Y-74110000D01*
X161370000Y-73780000D01*
G36*
X161610000Y-74110000D02*
G01*
X161130000Y-74110000D01*
X161370000Y-73780000D01*
X161610000Y-74110000D01*
G37*
%TO.C,C4*%
X163407338Y-65687836D02*
X163407338Y-65472164D01*
X164127338Y-65687836D02*
X164127338Y-65472164D01*
%TO.C,R1*%
X168441688Y-87208348D02*
X168183248Y-87606310D01*
X169318098Y-87777496D02*
X169059658Y-88175458D01*
%TO.C,AE1*%
D13*
X160060430Y-62483799D02*
X161660430Y-62483799D01*
%TO.C,U4*%
D12*
X160590000Y-74055000D02*
X164710000Y-74055000D01*
X160590000Y-74175000D02*
X160590000Y-74055000D01*
X160590000Y-79175000D02*
X160590000Y-79055000D01*
X164710000Y-74055000D02*
X164710000Y-74175000D01*
X164710000Y-79055000D02*
X164710000Y-79175000D01*
X164710000Y-79175000D02*
X160590000Y-79175000D01*
X165310000Y-79065000D02*
X165550000Y-79395000D01*
X165070000Y-79395000D01*
X165310000Y-79065000D01*
G36*
X165550000Y-79395000D02*
G01*
X165070000Y-79395000D01*
X165310000Y-79065000D01*
X165550000Y-79395000D01*
G37*
%TO.C,D4*%
X166160934Y-85879219D02*
X167586674Y-86805106D01*
X166160934Y-85879219D02*
X167609674Y-83648356D01*
X167586674Y-86805106D02*
X169035414Y-84574242D01*
%TO.C,C2*%
X162207836Y-65740000D02*
X161992164Y-65740000D01*
X162207836Y-66460000D02*
X161992164Y-66460000D01*
%TO.C,R2*%
X162404889Y-64488166D02*
X162404889Y-64795448D01*
X163164889Y-64488166D02*
X163164889Y-64795448D01*
%TD*%
%LPC*%
D14*
%TO.C,P1*%
X166985531Y-83286930D03*
X163837517Y-88134446D03*
D15*
X170850672Y-84091903D03*
D16*
X167328256Y-81804419D03*
D15*
X166144991Y-91338015D03*
D16*
X162622575Y-89050533D03*
%TD*%
D17*
%TO.C,C1*%
X158900000Y-71080000D03*
X158900000Y-70120000D03*
%TD*%
D18*
%TO.C,D1*%
X155862822Y-62830000D03*
X156962822Y-62830000D03*
X156962822Y-61000000D03*
X155862822Y-61000000D03*
%TD*%
%TO.C,D5*%
X155862822Y-66271130D03*
X156962822Y-66271130D03*
X156962822Y-64441130D03*
X155862822Y-64441130D03*
%TD*%
%TO.C,D6*%
X155862822Y-69795720D03*
X156962822Y-69795720D03*
X156962822Y-67965720D03*
X155862822Y-67965720D03*
%TD*%
%TO.C,D7*%
X155862822Y-73351381D03*
X156962822Y-73351381D03*
X156962822Y-71521381D03*
X155862822Y-71521381D03*
%TD*%
%TO.C,D8*%
X155862822Y-76898603D03*
X156962822Y-76898603D03*
X156962822Y-75068603D03*
X155862822Y-75068603D03*
%TD*%
%TO.C,D9*%
X155862822Y-80337447D03*
X156962822Y-80337447D03*
X156962822Y-78507447D03*
X155862822Y-78507447D03*
%TD*%
%TO.C,D10*%
X155862822Y-83869759D03*
X156962822Y-83869759D03*
X156962822Y-82039759D03*
X155862822Y-82039759D03*
%TD*%
D19*
%TO.C,D11*%
X157845523Y-87745201D03*
X158768061Y-87146098D03*
X157771371Y-85611331D03*
X156848833Y-86210434D03*
%TD*%
%TO.C,D12*%
X159828626Y-90671647D03*
X160751164Y-90072544D03*
X159754474Y-88537777D03*
X158831936Y-89136880D03*
%TD*%
%TO.C,D13*%
X161746325Y-93685733D03*
X162668863Y-93086630D03*
X161672173Y-91551863D03*
X160749635Y-92150966D03*
%TD*%
D18*
%TO.C,D14*%
X165933109Y-96599728D03*
X165933109Y-95499728D03*
X164103109Y-95499728D03*
X164103109Y-96599728D03*
%TD*%
D20*
%TO.C,D25*%
X171564678Y-57988741D03*
X170786861Y-58766558D03*
X169492856Y-57472553D03*
X170270673Y-56694736D03*
%TD*%
D21*
%TO.C,C3*%
X158920000Y-73200000D03*
X159880000Y-73200000D03*
%TD*%
D22*
%TO.C,D15*%
X169121309Y-92153776D03*
X168198771Y-91554673D03*
X167202081Y-93089440D03*
X168124619Y-93688543D03*
%TD*%
%TO.C,D16*%
X171029203Y-89167362D03*
X170106665Y-88568259D03*
X169109975Y-90103026D03*
X170032513Y-90702129D03*
%TD*%
%TO.C,D17*%
X173017271Y-86207122D03*
X172094733Y-85608019D03*
X171098043Y-87142786D03*
X172020581Y-87741889D03*
%TD*%
D18*
%TO.C,D18*%
X174000000Y-82085000D03*
X172900000Y-82085000D03*
X172900000Y-83915000D03*
X174000000Y-83915000D03*
%TD*%
%TO.C,D19*%
X174000000Y-78518393D03*
X172900000Y-78518393D03*
X172900000Y-80348393D03*
X174000000Y-80348393D03*
%TD*%
%TO.C,D20*%
X174000000Y-75056171D03*
X172900000Y-75056171D03*
X172900000Y-76886171D03*
X174000000Y-76886171D03*
%TD*%
%TO.C,D21*%
X174000000Y-71477883D03*
X172900000Y-71477883D03*
X172900000Y-73307883D03*
X174000000Y-73307883D03*
%TD*%
%TO.C,D22*%
X174000000Y-68031306D03*
X172900000Y-68031306D03*
X172900000Y-69861306D03*
X174000000Y-69861306D03*
%TD*%
%TO.C,D23*%
X174000000Y-64518948D03*
X172900000Y-64518948D03*
X172900000Y-66348948D03*
X174000000Y-66348948D03*
%TD*%
%TO.C,D24*%
X174000000Y-61038432D03*
X172900000Y-61038432D03*
X172900000Y-62868432D03*
X174000000Y-62868432D03*
%TD*%
D20*
%TO.C,D26*%
X166969811Y-53608264D03*
X166191994Y-54386081D03*
X167485999Y-55680086D03*
X168263816Y-54902269D03*
%TD*%
D23*
%TO.C,D27*%
X161752722Y-54923557D03*
X162530539Y-55701374D03*
X163824544Y-54407369D03*
X163046727Y-53629552D03*
%TD*%
%TO.C,D28*%
X158820008Y-57977918D03*
X159597825Y-58755735D03*
X160891830Y-57461730D03*
X160114013Y-56683913D03*
%TD*%
D24*
%TO.C,C7*%
X169900000Y-75235000D03*
X169900000Y-74100000D03*
%TD*%
D25*
%TO.C,D3*%
X166519714Y-86913904D03*
X165375972Y-88675112D03*
%TD*%
D26*
%TO.C,L1*%
X161834837Y-65100467D03*
X160864837Y-65100467D03*
%TD*%
D27*
%TO.C,U3*%
X168850000Y-72062500D03*
X169350000Y-72062500D03*
X169850000Y-72062500D03*
X170350000Y-72062500D03*
D28*
X170612500Y-71300000D03*
X170612500Y-70800000D03*
X170612500Y-70300000D03*
D27*
X170350000Y-69537500D03*
X169850000Y-69537500D03*
X169350000Y-69537500D03*
X168850000Y-69537500D03*
D28*
X168587500Y-70300000D03*
X168587500Y-70800000D03*
X168587500Y-71300000D03*
%TD*%
D29*
%TO.C,U5*%
X161370000Y-73120000D03*
X161770000Y-73120000D03*
X162170000Y-73120000D03*
X162570000Y-73120000D03*
X162970000Y-73120000D03*
X163370000Y-73120000D03*
X163770000Y-73120000D03*
X164170000Y-73120000D03*
X164570000Y-73120000D03*
X164970000Y-73120000D03*
X165370000Y-73120000D03*
X165770000Y-73120000D03*
D30*
X166520000Y-72370000D03*
X166520000Y-71970000D03*
X166520000Y-71570000D03*
X166520000Y-71170000D03*
X166520000Y-70770000D03*
X166520000Y-70370000D03*
X166520000Y-69970000D03*
X166520000Y-69570000D03*
X166520000Y-69170000D03*
X166520000Y-68770000D03*
X166520000Y-68370000D03*
X166520000Y-67970000D03*
D29*
X165770000Y-67220000D03*
X165370000Y-67220000D03*
X164970000Y-67220000D03*
X164570000Y-67220000D03*
X164170000Y-67220000D03*
X163770000Y-67220000D03*
X163370000Y-67220000D03*
X162970000Y-67220000D03*
X162570000Y-67220000D03*
X162170000Y-67220000D03*
X161770000Y-67220000D03*
X161370000Y-67220000D03*
D30*
X160620000Y-67970000D03*
X160620000Y-68370000D03*
X160620000Y-68770000D03*
X160620000Y-69170000D03*
X160620000Y-69570000D03*
X160620000Y-69970000D03*
X160620000Y-70370000D03*
X160620000Y-70770000D03*
X160620000Y-71170000D03*
X160620000Y-71570000D03*
X160620000Y-71970000D03*
X160620000Y-72370000D03*
D31*
X163570000Y-70170000D03*
%TD*%
D17*
%TO.C,C4*%
X163767338Y-66060000D03*
X163767338Y-65100000D03*
%TD*%
D32*
%TO.C,R1*%
X169200000Y-87000000D03*
X168301346Y-88383806D03*
%TD*%
D33*
%TO.C,AE1*%
X160860430Y-63183799D03*
X160860430Y-60883799D03*
%TD*%
D34*
%TO.C,U4*%
X165300000Y-78520000D03*
X165300000Y-77250000D03*
X165300000Y-75980000D03*
X165300000Y-74710000D03*
X160000000Y-74710000D03*
X160000000Y-75980000D03*
X160000000Y-77250000D03*
X160000000Y-78520000D03*
%TD*%
D35*
%TO.C,D4*%
X167178802Y-85872507D03*
X168322544Y-84111299D03*
%TD*%
D21*
%TO.C,C2*%
X162580000Y-66100000D03*
X161620000Y-66100000D03*
%TD*%
D36*
%TO.C,R2*%
X162784889Y-64131807D03*
X162784889Y-65151807D03*
%TD*%
D37*
%TO.C,J1*%
X162184809Y-59391990D03*
X167264809Y-58375990D03*
X167264809Y-60407990D03*
%TD*%
%LPD*%
M02*
