%TF.GenerationSoftware,KiCad,Pcbnew,10.0.5*%
%TF.CreationDate,2026-08-28T18:51:13+02:00*%
%TF.ProjectId,Leucht-Ohrringe,4c657563-6874-42d4-9f68-7272696e6765,rev?*%
%TF.SameCoordinates,Original*%
%TF.FileFunction,Copper,L2,Bot*%
%TF.FilePolarity,Positive*%
%FSLAX46Y46*%
G04 Gerber Fmt 4.6, Leading zero omitted, Abs format (unit mm)*
G04 Created by KiCad (PCBNEW 10.0.5) date 2026-08-28 18:51:13*
%MOMM*%
%LPD*%
G01*
G04 APERTURE LIST*
G04 Aperture macros list*
%AMRoundRect*
0 Rectangle with rounded corners*
0 $1 Rounding radius*
0 $2 $3 $4 $5 $6 $7 $8 $9 X,Y pos of 4 corners*
0 Add a 4 corners polygon primitive as box body*
4,1,4,$2,$3,$4,$5,$6,$7,$8,$9,$2,$3,0*
0 Add four circle primitives for the rounded corners*
1,1,$1+$1,$2,$3*
1,1,$1+$1,$4,$5*
1,1,$1+$1,$6,$7*
1,1,$1+$1,$8,$9*
0 Add four rect primitives between the rounded corners*
20,1,$1+$1,$2,$3,$4,$5,0*
20,1,$1+$1,$4,$5,$6,$7,0*
20,1,$1+$1,$6,$7,$8,$9,0*
20,1,$1+$1,$8,$9,$2,$3,0*%
%AMHorizOval*
0 Thick line with rounded ends*
0 $1 width*
0 $2 $3 position (X,Y) of the first rounded end (center of the circle)*
0 $4 $5 position (X,Y) of the second rounded end (center of the circle)*
0 Add line between two ends*
20,1,$1,$2,$3,$4,$5,0*
0 Add two circle primitives to create the rounded ends*
1,1,$1,$2,$3*
1,1,$1,$4,$5*%
G04 Aperture macros list end*
%TA.AperFunction,Conductor*%
%ADD10C,0.000000*%
%TD*%
%ADD11C,0.600000*%
%ADD12C,0.300000*%
%ADD13C,0.500000*%
%TA.AperFunction,SMDPad,CuDef*%
%ADD14RoundRect,0.112500X1.137500X0.262500X-1.137500X0.262500X-1.137500X-0.262500X1.137500X-0.262500X0*%
%TD*%
%TA.AperFunction,ConnectorPad*%
%ADD15C,0.787400*%
%TD*%
%TA.AperFunction,SMDPad,CuDef*%
%ADD16RoundRect,0.155000X-0.259862X0.040659X0.040659X-0.259862X0.259862X-0.040659X-0.040659X0.259862X0*%
%TD*%
%TA.AperFunction,SMDPad,CuDef*%
%ADD17C,0.500000*%
%TD*%
%TA.AperFunction,SMDPad,CuDef*%
%ADD18RoundRect,0.135000X-0.490000X0.315000X-0.490000X-0.315000X0.490000X-0.315000X0.490000X0.315000X0*%
%TD*%
%TA.AperFunction,SMDPad,CuDef*%
%ADD19RoundRect,0.120000X-0.330000X0.280000X-0.330000X-0.280000X0.330000X-0.280000X0.330000X0.280000X0*%
%TD*%
%TA.AperFunction,SMDPad,CuDef*%
%ADD20RoundRect,0.160000X-0.160000X0.197500X-0.160000X-0.197500X0.160000X-0.197500X0.160000X0.197500X0*%
%TD*%
%TA.AperFunction,SMDPad,CuDef*%
%ADD21RoundRect,0.160000X0.160000X-0.197500X0.160000X0.197500X-0.160000X0.197500X-0.160000X-0.197500X0*%
%TD*%
%TA.AperFunction,SMDPad,CuDef*%
%ADD22RoundRect,0.150000X0.150000X-0.512500X0.150000X0.512500X-0.150000X0.512500X-0.150000X-0.512500X0*%
%TD*%
%TA.AperFunction,SMDPad,CuDef*%
%ADD23RoundRect,0.237500X-0.300000X-0.237500X0.300000X-0.237500X0.300000X0.237500X-0.300000X0.237500X0*%
%TD*%
%TA.AperFunction,SMDPad,CuDef*%
%ADD24RoundRect,0.150000X0.625000X-0.150000X0.625000X0.150000X-0.625000X0.150000X-0.625000X-0.150000X0*%
%TD*%
%TA.AperFunction,SMDPad,CuDef*%
%ADD25RoundRect,0.250000X0.650000X-0.350000X0.650000X0.350000X-0.650000X0.350000X-0.650000X-0.350000X0*%
%TD*%
%TA.AperFunction,SMDPad,CuDef*%
%ADD26RoundRect,0.150000X-0.312479X0.381781X-0.475871X0.130180X0.312479X-0.381781X0.475871X-0.130180X0*%
%TD*%
%TA.AperFunction,SMDPad,CuDef*%
%ADD27RoundRect,0.075000X-0.416228X0.359729X-0.497923X0.233928X0.416228X-0.359729X0.497923X-0.233928X0*%
%TD*%
%TA.AperFunction,ComponentPad*%
%ADD28HorizOval,1.000000X-0.335468X0.217856X0.335468X-0.217856X0*%
%TD*%
%TA.AperFunction,ComponentPad*%
%ADD29HorizOval,1.000000X-0.461269X0.299551X0.461269X-0.299551X0*%
%TD*%
%TA.AperFunction,SMDPad,CuDef*%
%ADD30RoundRect,0.250000X0.650000X-0.412500X0.650000X0.412500X-0.650000X0.412500X-0.650000X-0.412500X0*%
%TD*%
%TA.AperFunction,SMDPad,CuDef*%
%ADD31RoundRect,0.150000X0.150000X0.200000X-0.150000X0.200000X-0.150000X-0.200000X0.150000X-0.200000X0*%
%TD*%
%TA.AperFunction,SMDPad,CuDef*%
%ADD32RoundRect,0.160000X0.197500X0.160000X-0.197500X0.160000X-0.197500X-0.160000X0.197500X-0.160000X0*%
%TD*%
%TA.AperFunction,SMDPad,CuDef*%
%ADD33RoundRect,0.155000X0.259862X-0.040659X-0.040659X0.259862X-0.259862X0.040659X0.040659X-0.259862X0*%
%TD*%
%TA.AperFunction,ViaPad*%
%ADD34C,0.600000*%
%TD*%
%TA.AperFunction,ViaPad*%
%ADD35C,0.450000*%
%TD*%
%TA.AperFunction,Conductor*%
%ADD36C,0.300000*%
%TD*%
%TA.AperFunction,Conductor*%
%ADD37C,0.200000*%
%TD*%
%TA.AperFunction,Conductor*%
%ADD38C,1.200000*%
%TD*%
%TA.AperFunction,Conductor*%
%ADD39C,0.800000*%
%TD*%
%TA.AperFunction,Conductor*%
%ADD40C,1.000000*%
%TD*%
%TA.AperFunction,Conductor*%
%ADD41C,1.100000*%
%TD*%
%TA.AperFunction,Conductor*%
%ADD42C,0.900000*%
%TD*%
%TA.AperFunction,Conductor*%
%ADD43C,0.700000*%
%TD*%
%TA.AperFunction,Conductor*%
%ADD44C,0.600000*%
%TD*%
G04 APERTURE END LIST*
D10*
%TA.AperFunction,Conductor*%
%TO.N,+BATT*%
G36*
X174770000Y-72650000D02*
G01*
X174400000Y-73290000D01*
X173600000Y-73290000D01*
X173230000Y-72650000D01*
X173230000Y-72600000D01*
X174770000Y-72600000D01*
X174770000Y-72650000D01*
G37*
%TD.AperFunction*%
%TA.AperFunction,Conductor*%
%TO.N,GND*%
G36*
X174590000Y-71150000D02*
G01*
X174650000Y-71740000D01*
X173120000Y-72020000D01*
X172710000Y-72550000D01*
X172650000Y-70660000D01*
X173500000Y-70460000D01*
X174590000Y-71150000D01*
G37*
%TD.AperFunction*%
D11*
X162717042Y-86822234D02*
X162686410Y-86800217D01*
X162656168Y-86778437D01*
X162637507Y-86764966D01*
X162618998Y-86751576D01*
X162603407Y-86740271D01*
X162587928Y-86729018D01*
X162574122Y-86718956D01*
X162560405Y-86708933D01*
X162547834Y-86699720D01*
X162535339Y-86690538D01*
X162523700Y-86681959D01*
X162512128Y-86673403D01*
X162501233Y-86665321D01*
X162490398Y-86657259D01*
X162480116Y-86649582D01*
X162469890Y-86641921D01*
X162460129Y-86634584D01*
X162450419Y-86627258D01*
X162441108Y-86620208D01*
X162431844Y-86613169D01*
X162422929Y-86606368D01*
X162414058Y-86599575D01*
X162405495Y-86592993D01*
X162396974Y-86586416D01*
X162388727Y-86580026D01*
X162380519Y-86573641D01*
X162372559Y-86567422D01*
X162364637Y-86561207D01*
X162356938Y-86555142D01*
X162349276Y-86549079D01*
X162341819Y-86543153D01*
X162334396Y-86537228D01*
X162327161Y-86531427D01*
X162319959Y-86525627D01*
X162312931Y-86519940D01*
X162305934Y-86514254D01*
X162299099Y-86508671D01*
X162292294Y-86503088D01*
X162285639Y-86497602D01*
X162279014Y-86492114D01*
X162272528Y-86486715D01*
X162266071Y-86481314D01*
X162259745Y-86475996D01*
X162253448Y-86470676D01*
X162247272Y-86465432D01*
X162241125Y-86460186D01*
X162235093Y-86455011D01*
X162229087Y-86449833D01*
X162223191Y-86444722D01*
X162217321Y-86439607D01*
X162211554Y-86434555D01*
X162205812Y-86429499D01*
X162200168Y-86424502D01*
X162194549Y-86419499D01*
X162189022Y-86414553D01*
X162183520Y-86409601D01*
X162178106Y-86404701D01*
X162172716Y-86399796D01*
X162167410Y-86394940D01*
X162162127Y-86390078D01*
X162156925Y-86385262D01*
X162151745Y-86380440D01*
X162146642Y-86375662D01*
X162141561Y-86370877D01*
X162136553Y-86366134D01*
X162131568Y-86361384D01*
X162126652Y-86356672D01*
X162121758Y-86351954D01*
X162116932Y-86347272D01*
X162112126Y-86342583D01*
X162107386Y-86337929D01*
X162102666Y-86333267D01*
X162098008Y-86328638D01*
X162093370Y-86324001D01*
X162088793Y-86319396D01*
X162084235Y-86314782D01*
X162079735Y-86310197D01*
X162075255Y-86305605D01*
X162070830Y-86301040D01*
X162066425Y-86296466D01*
X162062073Y-86291919D01*
X162057740Y-86287363D01*
X162053459Y-86282832D01*
X162049197Y-86278292D01*
X162044984Y-86273775D01*
X162040791Y-86269249D01*
X162036645Y-86264745D01*
X162032518Y-86260232D01*
X162028437Y-86255740D01*
X162024375Y-86251238D01*
X162020358Y-86246756D01*
X162016358Y-86242264D01*
X162012402Y-86237790D01*
X162008465Y-86233307D01*
X162004569Y-86228841D01*
X162000691Y-86224365D01*
X161996853Y-86219905D01*
X161993034Y-86215435D01*
X161989253Y-86210980D01*
X161985491Y-86206514D01*
X161981766Y-86202063D01*
X161978059Y-86197602D01*
X161974389Y-86193153D01*
X161970736Y-86188694D01*
X161967119Y-86184247D01*
X161963519Y-86179789D01*
X161959954Y-86175343D01*
X161956406Y-86170885D01*
X161952892Y-86166439D01*
X161949395Y-86161980D01*
X161945930Y-86157532D01*
X161942483Y-86153072D01*
X161939067Y-86148621D01*
X161935668Y-86144158D01*
X161932300Y-86139703D01*
X161928949Y-86135237D01*
X161925628Y-86130778D01*
X161922323Y-86126307D01*
X161919048Y-86121842D01*
X161915789Y-86117365D01*
X161912558Y-86112894D01*
X161909344Y-86108411D01*
X161906158Y-86103933D01*
X161902988Y-86099442D01*
X161899846Y-86094956D01*
X161896719Y-86090457D01*
X161893619Y-86085962D01*
X161890534Y-86081454D01*
X161887476Y-86076948D01*
X161884433Y-86072430D01*
X161881416Y-86067914D01*
X161878415Y-86063385D01*
X161875438Y-86058858D01*
X161872477Y-86054317D01*
X161869540Y-86049778D01*
X161866619Y-86045224D01*
X161863721Y-86040671D01*
X161860839Y-86036105D01*
X161857980Y-86031538D01*
X161855136Y-86026957D01*
X161852315Y-86022375D01*
X161849509Y-86017780D01*
X161846725Y-86013182D01*
X161843956Y-86008571D01*
X161841210Y-86003957D01*
X161838478Y-85999329D01*
X161835767Y-85994698D01*
X161833072Y-85990053D01*
X161830398Y-85985404D01*
X161827738Y-85980740D01*
X161825099Y-85976073D01*
X161822475Y-85971390D01*
X161819871Y-85966703D01*
X161817281Y-85962001D01*
X161814712Y-85957293D01*
X161812157Y-85952571D01*
X161809622Y-85947842D01*
X161807101Y-85943099D01*
X161804600Y-85938348D01*
X161802113Y-85933583D01*
X161799644Y-85928810D01*
X161797191Y-85924021D01*
X161794756Y-85919225D01*
X161792335Y-85914413D01*
X161789933Y-85909592D01*
X161787545Y-85904756D01*
X161785175Y-85899911D01*
X161782819Y-85895049D01*
X161780481Y-85890178D01*
X161778157Y-85885291D01*
X161775851Y-85880394D01*
X161773559Y-85875480D01*
X161771284Y-85870555D01*
X161769024Y-85865614D01*
X161766780Y-85860661D01*
X161764551Y-85855692D01*
X161762338Y-85850710D01*
X161760140Y-85845712D01*
X161757958Y-85840701D01*
X161755791Y-85835673D01*
X161753639Y-85830631D01*
X161751502Y-85825572D01*
X161749381Y-85820500D01*
X161747274Y-85815410D01*
X161745183Y-85810305D01*
X161743107Y-85805183D01*
X161741045Y-85800046D01*
X161738999Y-85794891D01*
X161736967Y-85789720D01*
X161734950Y-85784532D01*
X161732948Y-85779326D01*
X161730961Y-85774103D01*
X161728988Y-85768863D01*
X161727031Y-85763604D01*
X161725087Y-85758328D01*
X161723159Y-85753033D01*
X161721245Y-85747720D01*
X161719345Y-85742389D01*
X161717460Y-85737038D01*
X161715590Y-85731668D01*
X161713734Y-85726279D01*
X161711893Y-85720871D01*
X161710065Y-85715443D01*
X161708253Y-85709995D01*
X161706455Y-85704526D01*
X161704671Y-85699038D01*
X161702901Y-85693529D01*
X161701146Y-85687999D01*
X161699405Y-85682448D01*
X161697679Y-85676877D01*
X161695967Y-85671282D01*
X161694269Y-85665668D01*
X161690916Y-85654372D01*
X161687621Y-85642986D01*
X161684382Y-85631510D01*
X161681201Y-85619940D01*
X161678077Y-85608276D01*
X161675009Y-85596515D01*
X161671999Y-85584656D01*
X161669046Y-85572696D01*
X161666151Y-85560634D01*
X161663313Y-85548467D01*
X161660532Y-85536194D01*
X161657809Y-85523813D01*
X161655144Y-85511321D01*
X161652537Y-85498718D01*
X161649988Y-85485999D01*
X161647498Y-85473164D01*
X161645066Y-85460211D01*
X161642693Y-85447136D01*
X161640380Y-85433939D01*
X161638126Y-85420616D01*
X161635931Y-85407166D01*
X161633797Y-85393586D01*
X161631723Y-85379874D01*
X161629709Y-85366027D01*
X161627757Y-85352044D01*
X161625867Y-85337921D01*
X161624038Y-85323657D01*
X161622272Y-85309249D01*
X161620568Y-85294693D01*
X161618928Y-85279989D01*
X161617352Y-85265133D01*
X161615840Y-85250122D01*
X161614392Y-85234954D01*
X161613010Y-85219626D01*
X161611694Y-85204136D01*
X161610444Y-85188480D01*
X161609261Y-85172655D01*
X161608146Y-85156660D01*
X161607099Y-85140490D01*
X161606121Y-85124143D01*
X161605212Y-85107616D01*
X161604374Y-85090906D01*
X161603607Y-85074009D01*
X161602911Y-85056923D01*
X161602288Y-85039643D01*
X161601738Y-85022168D01*
X161601262Y-85004492D01*
X161600860Y-84986614D01*
X161600534Y-84968529D01*
X161600285Y-84950234D01*
X161600113Y-84931726D01*
X161600019Y-84913000D01*
X161600000Y-84900000D01*
D12*
X163886925Y-85025190D02*
X163876243Y-85017875D01*
X163865579Y-85010475D01*
X163854931Y-85002989D01*
X163844301Y-84995418D01*
X163833689Y-84987761D01*
X163823094Y-84980019D01*
X163812518Y-84972191D01*
X163801960Y-84964277D01*
X163791422Y-84956278D01*
X163780902Y-84948193D01*
X163770403Y-84940022D01*
X163759923Y-84931765D01*
X163749463Y-84923422D01*
X163739024Y-84914993D01*
X163728606Y-84906479D01*
X163718209Y-84897879D01*
X163707833Y-84889192D01*
X163697480Y-84880420D01*
X163687149Y-84871562D01*
X163676841Y-84862618D01*
X163666556Y-84853589D01*
X163656294Y-84844473D01*
X163646056Y-84835272D01*
X163635843Y-84825986D01*
X163625654Y-84816613D01*
X163615491Y-84807155D01*
X163605353Y-84797612D01*
X163595241Y-84787983D01*
X163585155Y-84778269D01*
X163575096Y-84768470D01*
X163565065Y-84758586D01*
X163555061Y-84748616D01*
X163545085Y-84738562D01*
X163535138Y-84728423D01*
X163525220Y-84718200D01*
X163515331Y-84707892D01*
X163505473Y-84697500D01*
X163495645Y-84687023D01*
X163485847Y-84676463D01*
X163476082Y-84665819D01*
X163466348Y-84655092D01*
X163456646Y-84644281D01*
X163446978Y-84633388D01*
X163437343Y-84622411D01*
X163427741Y-84611352D01*
X163418174Y-84600210D01*
X163408642Y-84588987D01*
X163399146Y-84577681D01*
X163389685Y-84566294D01*
X163380261Y-84554826D01*
X163370874Y-84543277D01*
X163361525Y-84531647D01*
X163352213Y-84519937D01*
X163342940Y-84508147D01*
X163333707Y-84496277D01*
X163324513Y-84484328D01*
X163315359Y-84472301D01*
X163306246Y-84460195D01*
X163297174Y-84448011D01*
X163288145Y-84435749D01*
X163279158Y-84423410D01*
X163270213Y-84410994D01*
X163261313Y-84398502D01*
X163252456Y-84385934D01*
X163243645Y-84373291D01*
X163234878Y-84360573D01*
X163226158Y-84347780D01*
X163217484Y-84334914D01*
X163208857Y-84321974D01*
X163200277Y-84308962D01*
X163191746Y-84295877D01*
X163183263Y-84282720D01*
X163174830Y-84269493D01*
X163166447Y-84256194D01*
X163158114Y-84242826D01*
X163149832Y-84229389D01*
X163141601Y-84215883D01*
X163133423Y-84202309D01*
X163125298Y-84188667D01*
X163117226Y-84174959D01*
X163109208Y-84161184D01*
X163101244Y-84147344D01*
X163093336Y-84133440D01*
X163085483Y-84119471D01*
X163077686Y-84105440D01*
X163069946Y-84091345D01*
X163062264Y-84077189D01*
X163054639Y-84062972D01*
X163047073Y-84048695D01*
X163039566Y-84034358D01*
X163032118Y-84019963D01*
X163024730Y-84005510D01*
X163017404Y-83990999D01*
X163010138Y-83976433D01*
X163002934Y-83961811D01*
X162995792Y-83947134D01*
X162988714Y-83932404D01*
X162981698Y-83917621D01*
X162974747Y-83902786D01*
X162967860Y-83887900D01*
X162961037Y-83872963D01*
X162954281Y-83857978D01*
X162947590Y-83842944D01*
X162940965Y-83827862D01*
X162934408Y-83812734D01*
X162927918Y-83797561D01*
X162921496Y-83782343D01*
X162915142Y-83767081D01*
X162908857Y-83751776D01*
X162902642Y-83736430D01*
X162896496Y-83721043D01*
X162890421Y-83705616D01*
X162884416Y-83690150D01*
X162878482Y-83674647D01*
X162872620Y-83659107D01*
X162866830Y-83643530D01*
X162861113Y-83627920D01*
X162855468Y-83612275D01*
X162849896Y-83596598D01*
X162844398Y-83580889D01*
X162838974Y-83565149D01*
X162833625Y-83549379D01*
X162828350Y-83533581D01*
X162825741Y-83525672D01*
X162823151Y-83517756D01*
X162820579Y-83509833D01*
X162818027Y-83501904D01*
X162815493Y-83493968D01*
X162812978Y-83486026D01*
X162810483Y-83478078D01*
X162808006Y-83470124D01*
X162805549Y-83462164D01*
X162803111Y-83454198D01*
X162800692Y-83446228D01*
X162798292Y-83438251D01*
X162795912Y-83430269D01*
X162793550Y-83422282D01*
X162791209Y-83414290D01*
X162788886Y-83406292D01*
X162786584Y-83398291D01*
X162784300Y-83390284D01*
X162782036Y-83382273D01*
X162779792Y-83374258D01*
X162777567Y-83366238D01*
X162775362Y-83358214D01*
X162773176Y-83350187D01*
X162771010Y-83342154D01*
X162768864Y-83334120D01*
X162766738Y-83326080D01*
X162764631Y-83318038D01*
X162762545Y-83309992D01*
X162760478Y-83301943D01*
X162758430Y-83293891D01*
X162756403Y-83285836D01*
X162754396Y-83277778D01*
X162752409Y-83269718D01*
X162750441Y-83261654D01*
X162748494Y-83253589D01*
X162746567Y-83245521D01*
X162744659Y-83237452D01*
X162742772Y-83229379D01*
X162740905Y-83221306D01*
X162739058Y-83213229D01*
X162737231Y-83205153D01*
X162735425Y-83197073D01*
X162733638Y-83188994D01*
X162731872Y-83180912D01*
X162730126Y-83172830D01*
X162728400Y-83164746D01*
X162726695Y-83156663D01*
X162725009Y-83148576D01*
X162723345Y-83140492D01*
X162721700Y-83132405D01*
X162720076Y-83124319D01*
X162718472Y-83116231D01*
X162716889Y-83108146D01*
X162715326Y-83100058D01*
X162713783Y-83091973D01*
X162712261Y-83083885D01*
X162710759Y-83075801D01*
X162709278Y-83067714D01*
X162707817Y-83059631D01*
X162706377Y-83051545D01*
X162704957Y-83043464D01*
X162703557Y-83035380D01*
X162702179Y-83027301D01*
X162700820Y-83019220D01*
X162699483Y-83011144D01*
X162698165Y-83003066D01*
X162696869Y-82994992D01*
X162695592Y-82986918D01*
X162694337Y-82978848D01*
X162693101Y-82970777D01*
X162691887Y-82962712D01*
X162690693Y-82954645D01*
X162689520Y-82946585D01*
X162688367Y-82938523D01*
X162687235Y-82930468D01*
X162686123Y-82922411D01*
X162685033Y-82914362D01*
X162683962Y-82906311D01*
X162682912Y-82898267D01*
X162681883Y-82890223D01*
X162680875Y-82882186D01*
X162679886Y-82874148D01*
X162678919Y-82866118D01*
X162677972Y-82858087D01*
X162677046Y-82850065D01*
X162676141Y-82842042D01*
X162675256Y-82834027D01*
X162674391Y-82826012D01*
X162673548Y-82818006D01*
X162672724Y-82810000D01*
X162671922Y-82802002D01*
X162671139Y-82794005D01*
X162670378Y-82786016D01*
X162669637Y-82778028D01*
X162668917Y-82770050D01*
X162668217Y-82762072D01*
X162667538Y-82754103D01*
X162666879Y-82746136D01*
X162666241Y-82738178D01*
X162665623Y-82730220D01*
X162665026Y-82722274D01*
X162664449Y-82714327D01*
X162663893Y-82706392D01*
X162663357Y-82698457D01*
X162662842Y-82690534D01*
X162662347Y-82682611D01*
X162661872Y-82674700D01*
X162661418Y-82666789D01*
X162660985Y-82658890D01*
X162660571Y-82650993D01*
X162660179Y-82643107D01*
X162659806Y-82635222D01*
X162659454Y-82627350D01*
X162659122Y-82619479D01*
X162658811Y-82611620D01*
X162658520Y-82603763D01*
X162658249Y-82595918D01*
X162657998Y-82588076D01*
X162657768Y-82580245D01*
X162657558Y-82572417D01*
X162657368Y-82564602D01*
X162657199Y-82556789D01*
X162657049Y-82548989D01*
X162656920Y-82541191D01*
X162656811Y-82533407D01*
X162656722Y-82525625D01*
X162656653Y-82517857D01*
X162656604Y-82510091D01*
X162656576Y-82502339D01*
X162656567Y-82494589D01*
X162656579Y-82486854D01*
X162656610Y-82479121D01*
X162656661Y-82471403D01*
X162656733Y-82463687D01*
X162656824Y-82455986D01*
X162656935Y-82448288D01*
X162657066Y-82440604D01*
X162657217Y-82432924D01*
X162657388Y-82425259D01*
X162657579Y-82417596D01*
X162657789Y-82409949D01*
X162658019Y-82402305D01*
X162658269Y-82394677D01*
X162658539Y-82387052D01*
X162658828Y-82379442D01*
X162659138Y-82371836D01*
X162659466Y-82364245D01*
X162659815Y-82356659D01*
X162660182Y-82349088D01*
X162660570Y-82341520D01*
X162660977Y-82333969D01*
X162661403Y-82326422D01*
X162661849Y-82318891D01*
X162662315Y-82311364D01*
X162662800Y-82303853D01*
X162663304Y-82296346D01*
X162663828Y-82288856D01*
X162664371Y-82281370D01*
X162664933Y-82273901D01*
X162665515Y-82266436D01*
X162666115Y-82258988D01*
X162666736Y-82251544D01*
X162667375Y-82244117D01*
X162668033Y-82236695D01*
X162668711Y-82229290D01*
X162669408Y-82221889D01*
X162670123Y-82214506D01*
X162670858Y-82207127D01*
X162671612Y-82199766D01*
X162672385Y-82192410D01*
X162673176Y-82185071D01*
X162673987Y-82177738D01*
X162674817Y-82170421D01*
X162675666Y-82163110D01*
X162676532Y-82155817D01*
X162677419Y-82148529D01*
X162678323Y-82141259D01*
X162679247Y-82133994D01*
X162680189Y-82126747D01*
X162681151Y-82119505D01*
X162682130Y-82112281D01*
X162683128Y-82105063D01*
X162684145Y-82097863D01*
X162685180Y-82090669D01*
X162686234Y-82083493D01*
X162687307Y-82076322D01*
X162688397Y-82069170D01*
X162689506Y-82062024D01*
X162690634Y-82054896D01*
X162691780Y-82047774D01*
X162692944Y-82040671D01*
X162694127Y-82033574D01*
X162695327Y-82026495D01*
X162696546Y-82019422D01*
X162697783Y-82012368D01*
X162699039Y-82005320D01*
X162700000Y-82000000D01*
X164159808Y-84602115D02*
X164149768Y-84594130D01*
X164139768Y-84586074D01*
X164129808Y-84577948D01*
X164119887Y-84569751D01*
X164110007Y-84561484D01*
X164100167Y-84553146D01*
X164090369Y-84544739D01*
X164080612Y-84536262D01*
X164070897Y-84527715D01*
X164061224Y-84519099D01*
X164051593Y-84510414D01*
X164042006Y-84501660D01*
X164032462Y-84492838D01*
X164022962Y-84483947D01*
X164013506Y-84474988D01*
X164004095Y-84465961D01*
X163994728Y-84456867D01*
X163985407Y-84447705D01*
X163976132Y-84438477D01*
X163966903Y-84429181D01*
X163957721Y-84419820D01*
X163948586Y-84410392D01*
X163939499Y-84400898D01*
X163930459Y-84391339D01*
X163921468Y-84381714D01*
X163912526Y-84372025D01*
X163903633Y-84362272D01*
X163894790Y-84352454D01*
X163885997Y-84342573D01*
X163877255Y-84332629D01*
X163868563Y-84322621D01*
X163859924Y-84312551D01*
X163851336Y-84302419D01*
X163842801Y-84292225D01*
X163834319Y-84281970D01*
X163825891Y-84271655D01*
X163817516Y-84261279D01*
X163809196Y-84250843D01*
X163800930Y-84240347D01*
X163792720Y-84229793D01*
X163784566Y-84219180D01*
X163776468Y-84208509D01*
X163768426Y-84197781D01*
X163760442Y-84186996D01*
X163752516Y-84176155D01*
X163744648Y-84165257D01*
X163736839Y-84154305D01*
X163729089Y-84143298D01*
X163721398Y-84132236D01*
X163713768Y-84121121D01*
X163706198Y-84109954D01*
X163698689Y-84098733D01*
X163691242Y-84087462D01*
X163683857Y-84076139D01*
X163676535Y-84064765D01*
X163669275Y-84053342D01*
X163662079Y-84041870D01*
X163654947Y-84030349D01*
X163647880Y-84018780D01*
X163640877Y-84007164D01*
X163633940Y-83995502D01*
X163627068Y-83983795D01*
X163620263Y-83972042D01*
X163613525Y-83960245D01*
X163606854Y-83948404D01*
X163600250Y-83936521D01*
X163593715Y-83924596D01*
X163587248Y-83912630D01*
X163580851Y-83900623D01*
X163574522Y-83888576D01*
X163568264Y-83876491D01*
X163562076Y-83864367D01*
X163555959Y-83852207D01*
X163549913Y-83840010D01*
X163543938Y-83827777D01*
X163538036Y-83815510D01*
X163532206Y-83803209D01*
X163526449Y-83790875D01*
X163520765Y-83778508D01*
X163515154Y-83766110D01*
X163509618Y-83753682D01*
X163504156Y-83741225D01*
X163498769Y-83728738D01*
X163493457Y-83716224D01*
X163488220Y-83703684D01*
X163483060Y-83691117D01*
X163477975Y-83678525D01*
X163472967Y-83665909D01*
X163468036Y-83653270D01*
X163465599Y-83646942D01*
X163463181Y-83640609D01*
X163460783Y-83634270D01*
X163458405Y-83627926D01*
X163456046Y-83621577D01*
X163453706Y-83615223D01*
X163451386Y-83608864D01*
X163449085Y-83602501D01*
X163446804Y-83596132D01*
X163444543Y-83589760D01*
X163442301Y-83583383D01*
X163440079Y-83577001D01*
X163437877Y-83570616D01*
X163435694Y-83564226D01*
X163433531Y-83557833D01*
X163431389Y-83551436D01*
X163429265Y-83545035D01*
X163427162Y-83538631D01*
X163425079Y-83532223D01*
X163423016Y-83525812D01*
X163420973Y-83519398D01*
X163418949Y-83512980D01*
X163416946Y-83506560D01*
X163414963Y-83500137D01*
X163413000Y-83493711D01*
X163411057Y-83487283D01*
X163409134Y-83480852D01*
X163407231Y-83474419D01*
X163405349Y-83467984D01*
X163403487Y-83461546D01*
X163401645Y-83455107D01*
X163399823Y-83448665D01*
X163398022Y-83442223D01*
X163396241Y-83435778D01*
X163394480Y-83429332D01*
X163392740Y-83422884D01*
X163391020Y-83416436D01*
X163389320Y-83409985D01*
X163387641Y-83403535D01*
X163385982Y-83397083D01*
X163384344Y-83390631D01*
X163382726Y-83384177D01*
X163381129Y-83377724D01*
X163379552Y-83371270D01*
X163377996Y-83364816D01*
X163376460Y-83358361D01*
X163374945Y-83351907D01*
X163373450Y-83345452D01*
X163371976Y-83338999D01*
X163370523Y-83332544D01*
X163369090Y-83326091D01*
X163367678Y-83319637D01*
X163366286Y-83313186D01*
X163364915Y-83306734D01*
X163363565Y-83300284D01*
X163362235Y-83293834D01*
X163360926Y-83287386D01*
X163359638Y-83280938D01*
X163358370Y-83274494D01*
X163357123Y-83268048D01*
X163355897Y-83261607D01*
X163354691Y-83255165D01*
X163353507Y-83248727D01*
X163352342Y-83242289D01*
X163351199Y-83235855D01*
X163350076Y-83229421D01*
X163348974Y-83222992D01*
X163347892Y-83216563D01*
X163346832Y-83210139D01*
X163345792Y-83203715D01*
X163344773Y-83197296D01*
X163343774Y-83190878D01*
X163342797Y-83184465D01*
X163341839Y-83178052D01*
X163340903Y-83171646D01*
X163339987Y-83165240D01*
X163339093Y-83158841D01*
X163338218Y-83152442D01*
X163337365Y-83146049D01*
X163336532Y-83139658D01*
X163335720Y-83133273D01*
X163334928Y-83126889D01*
X163334157Y-83120513D01*
X163333407Y-83114138D01*
X163332678Y-83107770D01*
X163331969Y-83101403D01*
X163331281Y-83095044D01*
X163330613Y-83088686D01*
X163329966Y-83082337D01*
X163329339Y-83075989D01*
X163328734Y-83069649D01*
X163328148Y-83063311D01*
X163327584Y-83056981D01*
X163327040Y-83050654D01*
X163326516Y-83044335D01*
X163326013Y-83038018D01*
X163325531Y-83031710D01*
X163325069Y-83025405D01*
X163324627Y-83019108D01*
X163324206Y-83012814D01*
X163323806Y-83006530D01*
X163323426Y-83000248D01*
X163323066Y-82993976D01*
X163322727Y-82987706D01*
X163322408Y-82981446D01*
X163322109Y-82975189D01*
X163321831Y-82968943D01*
X163321573Y-82962699D01*
X163321336Y-82956466D01*
X163321118Y-82950236D01*
X163320921Y-82944016D01*
X163320745Y-82937800D01*
X163320588Y-82931595D01*
X163320452Y-82925393D01*
X163320336Y-82919202D01*
X163320240Y-82913015D01*
X163320164Y-82906839D01*
X163320108Y-82900666D01*
X163320072Y-82894506D01*
X163320057Y-82888348D01*
X163320061Y-82882203D01*
X163320086Y-82876062D01*
X163320130Y-82869933D01*
X163320194Y-82863807D01*
X163320279Y-82857694D01*
X163320383Y-82851585D01*
X163320507Y-82845489D01*
X163320651Y-82839397D01*
X163320815Y-82833317D01*
X163320998Y-82827242D01*
X163321201Y-82821179D01*
X163321425Y-82815121D01*
X163321667Y-82809077D01*
X163321930Y-82803036D01*
X163322212Y-82797009D01*
X163322513Y-82790987D01*
X163322835Y-82784978D01*
X163323176Y-82778974D01*
X163323536Y-82772983D01*
X163323916Y-82766998D01*
X163324315Y-82761026D01*
X163324734Y-82755059D01*
X163325172Y-82749106D01*
X163325629Y-82743159D01*
X163326106Y-82737225D01*
X163326602Y-82731297D01*
X163327118Y-82725383D01*
X163327653Y-82719475D01*
X163328206Y-82713581D01*
X163328779Y-82707692D01*
X163329371Y-82701818D01*
X163329983Y-82695949D01*
X163330613Y-82690096D01*
X163331262Y-82684248D01*
X163331930Y-82678415D01*
X163332618Y-82672588D01*
X163333324Y-82666775D01*
X163334049Y-82660969D01*
X163334793Y-82655178D01*
X163335556Y-82649393D01*
X163336337Y-82643623D01*
X163337138Y-82637859D01*
X163337956Y-82632111D01*
X163338795Y-82626369D01*
X163339650Y-82620643D01*
X163340526Y-82614922D01*
X163341419Y-82609218D01*
X163342331Y-82603520D01*
X163343261Y-82597838D01*
X163344211Y-82592162D01*
X163345178Y-82586502D01*
X163346164Y-82580849D01*
X163347168Y-82575212D01*
X163348191Y-82569581D01*
X163349231Y-82563967D01*
X163350290Y-82558359D01*
X163351367Y-82552768D01*
X163352463Y-82547183D01*
X163353576Y-82541615D01*
X163354708Y-82536053D01*
X163355857Y-82530509D01*
X163357025Y-82524971D01*
X163358210Y-82519449D01*
X163359414Y-82513935D01*
X163360635Y-82508438D01*
X163361874Y-82502947D01*
X163363131Y-82497474D01*
X163364406Y-82492007D01*
X163365698Y-82486558D01*
X163367009Y-82481115D01*
X163368337Y-82475690D01*
X163369683Y-82470272D01*
X163371045Y-82464871D01*
X163372427Y-82459477D01*
X163373824Y-82454101D01*
X163375241Y-82448731D01*
X163376674Y-82443380D01*
X163378125Y-82438035D01*
X163379592Y-82432708D01*
X163381078Y-82427389D01*
X163382580Y-82422086D01*
X163384101Y-82416792D01*
X163385637Y-82411515D01*
X163387193Y-82406245D01*
X163388763Y-82400993D01*
X163390353Y-82395749D01*
X163391958Y-82390522D01*
X163393581Y-82385304D01*
X163395220Y-82380102D01*
X163396878Y-82374909D01*
X163398551Y-82369733D01*
X163400242Y-82364565D01*
X163401949Y-82359415D01*
X163403674Y-82354273D01*
X163405415Y-82349148D01*
X163407173Y-82344032D01*
X163408947Y-82338933D01*
X163410739Y-82333843D01*
X163412546Y-82328770D01*
X163414372Y-82323706D01*
X163416212Y-82318659D01*
X163418071Y-82313620D01*
X163419944Y-82308600D01*
X163421836Y-82303587D01*
X163423743Y-82298593D01*
X163425667Y-82293607D01*
X163427606Y-82288638D01*
X163429564Y-82283679D01*
X163431536Y-82278737D01*
X163433525Y-82273803D01*
X163435530Y-82268888D01*
X163437552Y-82263981D01*
X163439589Y-82259092D01*
X163441644Y-82254211D01*
X163443713Y-82249349D01*
X163445800Y-82244495D01*
X163447902Y-82239659D01*
X163450021Y-82234832D01*
X163452154Y-82230022D01*
X163454305Y-82225222D01*
X163456471Y-82220439D01*
X163458654Y-82215665D01*
X163460851Y-82210909D01*
X163463066Y-82206163D01*
X163465295Y-82201433D01*
X163467541Y-82196714D01*
X163469802Y-82192011D01*
X163472080Y-82187318D01*
X163474371Y-82182643D01*
X163476681Y-82177977D01*
X163479004Y-82173328D01*
X163481345Y-82168689D01*
X163483699Y-82164068D01*
X163486071Y-82159456D01*
X163488457Y-82154861D01*
X163490860Y-82150276D01*
X163493277Y-82145709D01*
X163495711Y-82141151D01*
X163498158Y-82136611D01*
X163500623Y-82132080D01*
X163503102Y-82127567D01*
X163505597Y-82123063D01*
X163508107Y-82118577D01*
X163510633Y-82114101D01*
X163513173Y-82109642D01*
X163515730Y-82105193D01*
X163518300Y-82100762D01*
X163520888Y-82096340D01*
X163523489Y-82091935D01*
X163526107Y-82087541D01*
X163528738Y-82083164D01*
X163531386Y-82078797D01*
X163534048Y-82074447D01*
X163536726Y-82070107D01*
X163539418Y-82065784D01*
X163542127Y-82061472D01*
X163544849Y-82057177D01*
X163547588Y-82052892D01*
X163550340Y-82048624D01*
X163553109Y-82044366D01*
X163555890Y-82040125D01*
X163558689Y-82035895D01*
X163561501Y-82031682D01*
X163564330Y-82027479D01*
X163567172Y-82023293D01*
X163570030Y-82019118D01*
X163572902Y-82014959D01*
X163575790Y-82010811D01*
X163578691Y-82006680D01*
X163581609Y-82002560D01*
X163584540Y-81998456D01*
X163587488Y-81994363D01*
X163590380Y-81990380D01*
D13*
X165500000Y-82900000D02*
X165495442Y-82897254D01*
X165490896Y-82894491D01*
X165486377Y-82891721D01*
X165481869Y-82888935D01*
X165477390Y-82886142D01*
X165472922Y-82883334D01*
X165468483Y-82880519D01*
X165464056Y-82877689D01*
X165459658Y-82874853D01*
X165455271Y-82872001D01*
X165450914Y-82869144D01*
X165446570Y-82866271D01*
X165442254Y-82863393D01*
X165437952Y-82860500D01*
X165433679Y-82857603D01*
X165429419Y-82854690D01*
X165425189Y-82851774D01*
X165420972Y-82848842D01*
X165416785Y-82845906D01*
X165412611Y-82842956D01*
X165408468Y-82840002D01*
X165404339Y-82837033D01*
X165400239Y-82834062D01*
X165396154Y-82831075D01*
X165392099Y-82828087D01*
X165388058Y-82825083D01*
X165384048Y-82822078D01*
X165380052Y-82819058D01*
X165376087Y-82816036D01*
X165372136Y-82813000D01*
X165368217Y-82809963D01*
X165364312Y-82806911D01*
X165360437Y-82803858D01*
X165356578Y-82800791D01*
X165352750Y-82797724D01*
X165348936Y-82794642D01*
X165345154Y-82791560D01*
X165341387Y-82788465D01*
X165337650Y-82785369D01*
X165333930Y-82782259D01*
X165330240Y-82779150D01*
X165326566Y-82776027D01*
X165322922Y-82772904D01*
X165319295Y-82769768D01*
X165315698Y-82766633D01*
X165312117Y-82763485D01*
X165308568Y-82760337D01*
X165305034Y-82757177D01*
X165301531Y-82754017D01*
X165298044Y-82750845D01*
X165294589Y-82747674D01*
X165291149Y-82744490D01*
X165287740Y-82741308D01*
X165284347Y-82738114D01*
X165280986Y-82734921D01*
X165277640Y-82731716D01*
X165274326Y-82728512D01*
X165271028Y-82725297D01*
X165267760Y-82722083D01*
X165264509Y-82718858D01*
X165261289Y-82715635D01*
X165258085Y-82712399D01*
X165254912Y-82709167D01*
X165251756Y-82705922D01*
X165248630Y-82702681D01*
X165245521Y-82699427D01*
X165242442Y-82696177D01*
X165239379Y-82692915D01*
X165236348Y-82689655D01*
X165233333Y-82686385D01*
X165230348Y-82683118D01*
X165227380Y-82679839D01*
X165224442Y-82676564D01*
X165221521Y-82673277D01*
X165218629Y-82669994D01*
X165215755Y-82666700D01*
X165212911Y-82663409D01*
X165210084Y-82660108D01*
X165207286Y-82656810D01*
X165204505Y-82653502D01*
X165201754Y-82650197D01*
X165199020Y-82646881D01*
X165196315Y-82643570D01*
X165193627Y-82640248D01*
X165190969Y-82636930D01*
X165188328Y-82633601D01*
X165185715Y-82630277D01*
X165183120Y-82626942D01*
X165180554Y-82623611D01*
X165178005Y-82620270D01*
X165175485Y-82616934D01*
X165172982Y-82613587D01*
X165170507Y-82610245D01*
X165168050Y-82606892D01*
X165165621Y-82603544D01*
X165163210Y-82600186D01*
X165160826Y-82596833D01*
X165158461Y-82593470D01*
X165156122Y-82590111D01*
X165153802Y-82586742D01*
X165151509Y-82583378D01*
X165149234Y-82580005D01*
X165146985Y-82576636D01*
X165144755Y-82573258D01*
X165142552Y-82569884D01*
X165140367Y-82566500D01*
X165138208Y-82563122D01*
X165136068Y-82559734D01*
X165133953Y-82556350D01*
X165131857Y-82552958D01*
X165129788Y-82549570D01*
X165127736Y-82546173D01*
X165125710Y-82542780D01*
X165123703Y-82539379D01*
X165121721Y-82535982D01*
X165119758Y-82532577D01*
X165117820Y-82529175D01*
X165115900Y-82525766D01*
X165114006Y-82522360D01*
X165112130Y-82518946D01*
X165110280Y-82515537D01*
X165108447Y-82512119D01*
X165106640Y-82508705D01*
X165104851Y-82505283D01*
X165103087Y-82501865D01*
X165101341Y-82498439D01*
X165099619Y-82495017D01*
X165097917Y-82491588D01*
X165096238Y-82488162D01*
X165094578Y-82484728D01*
X165092942Y-82481298D01*
X165091325Y-82477861D01*
X165089732Y-82474427D01*
X165088157Y-82470986D01*
X165086606Y-82467548D01*
X165085073Y-82464103D01*
X165083565Y-82460662D01*
X165082074Y-82457213D01*
X165080607Y-82453767D01*
X165079159Y-82450315D01*
X165077734Y-82446866D01*
X165076328Y-82443409D01*
X165074945Y-82439956D01*
X165073580Y-82436495D01*
X165072238Y-82433039D01*
X165070915Y-82429574D01*
X165069615Y-82426114D01*
X165068334Y-82422646D01*
X165067075Y-82419181D01*
X165065834Y-82415709D01*
X165064617Y-82412241D01*
X165063418Y-82408765D01*
X165062241Y-82405292D01*
X165061083Y-82401813D01*
X165059947Y-82398336D01*
X165058830Y-82394852D01*
X165057735Y-82391372D01*
X165056659Y-82387884D01*
X165055605Y-82384400D01*
X165054569Y-82380908D01*
X165053556Y-82377419D01*
X165052561Y-82373923D01*
X165051587Y-82370430D01*
X165050633Y-82366931D01*
X165049700Y-82363433D01*
X165048786Y-82359929D01*
X165047894Y-82356428D01*
X165047020Y-82352919D01*
X165046168Y-82349413D01*
X165045334Y-82345901D01*
X165044522Y-82342390D01*
X165043729Y-82338873D01*
X165042957Y-82335358D01*
X165042204Y-82331837D01*
X165041472Y-82328317D01*
X165040759Y-82324791D01*
X165040066Y-82321267D01*
X165039393Y-82317736D01*
X165038741Y-82314207D01*
X165038108Y-82310672D01*
X165037495Y-82307138D01*
X165036902Y-82303597D01*
X165036329Y-82300059D01*
X165035776Y-82296513D01*
X165035243Y-82292969D01*
X165034729Y-82289419D01*
X165034236Y-82285870D01*
X165033762Y-82282315D01*
X165033309Y-82278761D01*
X165032875Y-82275200D01*
X165032461Y-82271640D01*
X165032066Y-82268075D01*
X165031692Y-82264509D01*
X165031338Y-82260938D01*
X165031003Y-82257367D01*
X165030688Y-82253791D01*
X165030394Y-82250214D01*
X165030119Y-82246632D01*
X165029864Y-82243050D01*
X165029628Y-82239462D01*
X165029413Y-82235873D01*
X165029218Y-82232279D01*
X165029042Y-82228685D01*
X165028887Y-82225085D01*
X165028751Y-82221485D01*
X165028635Y-82217879D01*
X165028539Y-82214272D01*
X165028463Y-82210660D01*
X165028408Y-82207047D01*
X165028372Y-82203428D01*
X165028356Y-82199809D01*
X165028360Y-82196184D01*
X165028384Y-82192557D01*
X165028428Y-82188926D01*
X165028493Y-82185293D01*
X165028577Y-82181654D01*
X165028682Y-82178015D01*
X165028806Y-82174369D01*
X165028951Y-82170722D01*
X165029116Y-82167070D01*
X165029302Y-82163416D01*
X165029507Y-82159756D01*
X165029733Y-82156095D01*
X165029979Y-82152429D01*
X165030245Y-82148760D01*
X165030532Y-82145086D01*
X165030839Y-82141410D01*
X165031167Y-82137728D01*
X165031515Y-82134044D01*
X165031883Y-82130355D01*
X165032272Y-82126663D01*
X165032682Y-82122966D01*
X165033112Y-82119266D01*
X165033563Y-82115561D01*
X165034034Y-82111854D01*
X165034527Y-82108141D01*
X165035040Y-82104425D01*
X165035573Y-82100704D01*
X165036128Y-82096979D01*
X165036703Y-82093250D01*
X165037300Y-82089517D01*
X165037917Y-82085779D01*
X165038555Y-82082038D01*
X165039215Y-82078291D01*
X165039895Y-82074541D01*
X165040597Y-82070786D01*
X165041320Y-82067027D01*
X165042064Y-82063263D01*
X165042830Y-82059495D01*
X165043616Y-82055722D01*
X165044425Y-82051945D01*
X165045254Y-82048162D01*
X165046105Y-82044376D01*
X165046978Y-82040585D01*
X165047873Y-82036789D01*
X165048789Y-82032988D01*
X165049727Y-82029183D01*
X165050686Y-82025372D01*
X165051668Y-82021557D01*
X165052671Y-82017737D01*
X165053697Y-82013913D01*
X165054744Y-82010083D01*
X165055814Y-82006248D01*
X165056906Y-82002408D01*
X165058020Y-81998564D01*
X165059156Y-81994714D01*
X165060315Y-81990859D01*
X165061496Y-81986999D01*
X165062700Y-81983134D01*
X165063926Y-81979264D01*
X165065175Y-81975388D01*
X165066447Y-81971508D01*
X165067742Y-81967622D01*
X165069059Y-81963731D01*
X165070399Y-81959834D01*
X165071763Y-81955932D01*
X165073149Y-81952024D01*
X165074559Y-81948112D01*
X165075992Y-81944193D01*
X165077448Y-81940270D01*
X165078928Y-81936340D01*
X165080431Y-81932406D01*
X165081957Y-81928465D01*
X165083508Y-81924520D01*
X165085082Y-81920568D01*
X165086679Y-81916611D01*
X165088301Y-81912648D01*
X165089947Y-81908679D01*
X165091617Y-81904705D01*
X165093311Y-81900725D01*
X165095029Y-81896739D01*
X165096771Y-81892747D01*
X165098538Y-81888749D01*
X165100330Y-81884746D01*
X165102146Y-81880736D01*
X165103986Y-81876722D01*
X165105852Y-81872700D01*
X165107742Y-81868673D01*
X165109657Y-81864639D01*
X165111597Y-81860600D01*
X165113563Y-81856554D01*
X165115553Y-81852504D01*
X165117569Y-81848445D01*
X165119610Y-81844382D01*
X165121677Y-81840312D01*
X165123769Y-81836236D01*
X165125888Y-81832153D01*
X165128031Y-81828066D01*
X165130201Y-81823970D01*
X165132397Y-81819870D01*
X165134619Y-81815762D01*
X165136867Y-81811649D01*
X165139142Y-81807528D01*
X165141442Y-81803402D01*
X165143770Y-81799268D01*
X165146123Y-81795130D01*
X165148504Y-81790983D01*
X165150911Y-81786832D01*
X165153346Y-81782672D01*
X165155806Y-81778508D01*
X165158295Y-81774335D01*
X165160810Y-81770158D01*
X165163354Y-81765972D01*
X165165924Y-81761781D01*
X165171147Y-81753378D01*
X165176482Y-81744949D01*
X165181929Y-81736492D01*
X165187488Y-81728009D01*
X165193161Y-81719498D01*
X165198949Y-81710961D01*
X165204852Y-81702395D01*
X165210872Y-81693802D01*
X165217009Y-81685182D01*
X165223265Y-81676534D01*
X165229640Y-81667857D01*
X165236135Y-81659153D01*
X165242751Y-81650420D01*
X165249490Y-81641659D01*
X165256351Y-81632870D01*
X165263337Y-81624052D01*
X165270448Y-81615205D01*
X165277685Y-81606329D01*
X165285049Y-81597425D01*
X165292541Y-81588491D01*
X165300163Y-81579529D01*
X165307915Y-81570537D01*
X165315798Y-81561516D01*
X165323813Y-81552465D01*
X165331961Y-81543385D01*
X165340244Y-81534276D01*
X165348662Y-81525137D01*
X165357217Y-81515968D01*
X165365909Y-81506769D01*
X165374740Y-81497541D01*
X165383711Y-81488282D01*
X165392822Y-81478994D01*
X165402076Y-81469676D01*
X165411472Y-81460327D01*
X165421012Y-81450949D01*
X165430698Y-81441540D01*
X165440530Y-81432101D01*
X165450509Y-81422632D01*
X165460637Y-81413132D01*
X165470915Y-81403602D01*
X165481344Y-81394042D01*
X165491924Y-81384451D01*
X165502658Y-81374830D01*
X165513545Y-81365178D01*
X165524589Y-81355496D01*
X165535788Y-81345783D01*
X165547146Y-81336040D01*
X165558662Y-81326266D01*
X165570339Y-81316462D01*
X165582176Y-81306627D01*
X165594177Y-81296761D01*
X165606340Y-81286865D01*
X165618669Y-81276939D01*
X165631163Y-81266981D01*
X165640000Y-81260000D01*
D12*
X165643781Y-84368756D02*
X165669793Y-84383227D01*
X165696890Y-84398389D01*
X165725508Y-84414489D01*
X165756394Y-84431952D01*
X165791066Y-84451638D01*
X165833745Y-84475948D01*
X165846315Y-84483116D01*
X165889400Y-84507670D01*
X165910572Y-84519709D01*
X165931519Y-84531591D01*
X165952261Y-84543314D01*
X165972815Y-84554879D01*
X165993199Y-84566286D01*
X166013431Y-84577535D01*
X166033529Y-84588625D01*
X166043534Y-84594111D01*
X166053511Y-84599557D01*
X166063464Y-84604963D01*
X166073395Y-84610330D01*
X166083306Y-84615658D01*
X166093198Y-84620946D01*
X166103076Y-84626194D01*
X166112939Y-84631403D01*
X166122792Y-84636572D01*
X166132636Y-84641702D01*
X166142473Y-84646792D01*
X166152306Y-84651842D01*
X166162137Y-84656853D01*
X166171967Y-84661825D01*
X166181800Y-84666756D01*
X166191638Y-84671648D01*
X166201482Y-84676501D01*
X166211336Y-84681314D01*
X166221201Y-84686087D01*
X166231079Y-84690821D01*
X166240973Y-84695515D01*
X166250885Y-84700170D01*
X166260817Y-84704785D01*
X166270772Y-84709360D01*
X166280752Y-84713896D01*
X166290758Y-84718392D01*
X166300794Y-84722849D01*
X166310861Y-84727266D01*
X166320962Y-84731643D01*
X166331098Y-84735981D01*
X166341273Y-84740279D01*
X166351489Y-84744538D01*
X166361747Y-84748757D01*
X166372049Y-84752936D01*
X166382399Y-84757076D01*
X166392799Y-84761177D01*
X166403250Y-84765237D01*
X166413754Y-84769258D01*
X166424315Y-84773239D01*
X166434935Y-84777181D01*
X166445614Y-84781083D01*
X166456357Y-84784946D01*
X166467164Y-84788769D01*
X166478039Y-84792552D01*
X166488984Y-84796296D01*
X166500000Y-84800000D01*
%TD*%
D14*
%TO.P,L2,1,1_1*%
%TO.N,Net-(U1-SW)*%
X163500000Y-77900000D03*
%TO.P,L2,2,2_2*%
%TO.N,Net-(SW1-B)*%
X163500000Y-80150000D03*
%TD*%
D15*
%TO.P,J1,1,VCC_1*%
%TO.N,+5V*%
X163454809Y-58756990D03*
%TO.P,J1,2,SWDIO_2*%
%TO.N,Net-(J1-SWDIO)*%
X163454809Y-60026990D03*
%TO.P,J1,3,~{RESET}_3*%
%TO.N,RESET*%
X164724809Y-58756990D03*
%TO.P,J1,4,SWCLK_4*%
%TO.N,Net-(J1-SWCLK)*%
X164724809Y-60026990D03*
%TO.P,J1,5,GND_5*%
%TO.N,GND*%
X165994809Y-58756990D03*
%TO.P,J1,6,SWO_6*%
%TO.N,Net-(J1-SWO)*%
X165994809Y-60026990D03*
%TD*%
D16*
%TO.P,C5,1*%
%TO.N,GND*%
X166098717Y-70898717D03*
%TO.P,C5,2*%
%TO.N,VDD*%
X166901283Y-71701283D03*
%TD*%
D17*
%TO.P,TP5,1,1_1*%
%TO.N,Net-(U5-P0.29{slash}AIN5)*%
X158660000Y-68670000D03*
%TD*%
D18*
%TO.P,SW1,1,A_1*%
%TO.N,+BATT*%
X160275000Y-77750000D03*
%TO.P,SW1,2,B_2*%
%TO.N,Net-(SW1-B)*%
X160275000Y-79250000D03*
%TO.P,SW1,3,C_3*%
%TO.N,+5V*%
X160275000Y-82250000D03*
D19*
%TO.P,SW1,4,SHIELD_4*%
%TO.N,GND*%
X159300000Y-76200000D03*
X157100000Y-76200000D03*
X159300000Y-83800000D03*
X157100000Y-83800000D03*
%TD*%
D20*
%TO.P,R4,1*%
%TO.N,Net-(U3-AP_SDA)*%
X170300000Y-67202500D03*
%TO.P,R4,2*%
%TO.N,VDD*%
X170300000Y-68397500D03*
%TD*%
D21*
%TO.P,R5,1*%
%TO.N,VDD*%
X158990000Y-72197500D03*
%TO.P,R5,2*%
%TO.N,Net-(U5-P0.31{slash}AIN7)*%
X158990000Y-71002500D03*
%TD*%
D22*
%TO.P,U1,1,GND_1*%
%TO.N,GND*%
X164750000Y-76037500D03*
%TO.P,U1,2,SW_2*%
%TO.N,Net-(U1-SW)*%
X162850000Y-76037500D03*
%TO.P,U1,3,VOUT_3*%
%TO.N,VDD*%
X163800000Y-73762500D03*
%TD*%
D23*
%TO.P,C9,1*%
%TO.N,Net-(SW1-B)*%
X166537500Y-77300000D03*
%TO.P,C9,2*%
%TO.N,GND*%
X168262500Y-77300000D03*
%TD*%
D24*
%TO.P,BT1,1,+_1*%
%TO.N,+BATT*%
X174000000Y-72440000D03*
%TO.P,BT1,2,-_2*%
%TO.N,GND*%
X174000000Y-71440000D03*
D25*
%TO.P,BT1,MP*%
%TO.N,N/C*%
X170125000Y-73740000D03*
X170125000Y-70140000D03*
%TD*%
D26*
%TO.P,P1,A1,GND_A1*%
%TO.N,GND*%
X166215058Y-82416947D03*
%TO.P,P1,A4,VBUS_A4*%
%TO.N,+5V*%
X165779347Y-83087883D03*
D27*
%TO.P,P1,A5,CC_A5*%
%TO.N,Net-(P1-CC)*%
X165153012Y-84052354D03*
%TO.P,P1,A6,D+_A6*%
%TO.N,/D-*%
X164608373Y-84891025D03*
%TO.P,P1,A7,D-_A7*%
%TO.N,/D+*%
X164336053Y-85310360D03*
%TO.P,P1,A8*%
%TO.N,N/C*%
X163791414Y-86149031D03*
D26*
%TO.P,P1,A9,VBUS_A9*%
%TO.N,+5V*%
X163165079Y-87113502D03*
%TO.P,P1,A12,GND_A12*%
%TO.N,GND*%
X162729368Y-87784438D03*
%TO.P,P1,B1,GND_B1*%
X162729368Y-87784438D03*
%TO.P,P1,B4,VBUS_B4*%
%TO.N,+5V*%
X163165079Y-87113502D03*
D27*
%TO.P,P1,B5,VCONN_B5*%
%TO.N,unconnected-(P1-VCONN-PadB5)*%
X163519095Y-86568366D03*
%TO.P,P1,B6*%
%TO.N,N/C*%
X164063734Y-85729695D03*
%TO.P,P1,B7*%
X164880693Y-84471690D03*
%TO.P,P1,B8*%
X165425331Y-83633019D03*
D26*
%TO.P,P1,B9,VBUS_B9*%
%TO.N,+5V*%
X165779347Y-83087883D03*
%TO.P,P1,B12,GND_B12*%
%TO.N,GND*%
X166215058Y-82416947D03*
D28*
%TO.P,P1,SH,SHIELD_SH*%
X170850672Y-84091903D03*
D29*
X167328256Y-81804419D03*
D28*
X166144991Y-91338015D03*
D29*
X162622575Y-89050533D03*
%TD*%
D30*
%TO.P,C8,1*%
%TO.N,VDD*%
X162078776Y-72669299D03*
%TO.P,C8,2*%
%TO.N,GND*%
X162078776Y-69544299D03*
%TD*%
D31*
%TO.P,D2,1,K_1*%
%TO.N,+5V*%
X167200000Y-79300000D03*
%TO.P,D2,2,A_2*%
%TO.N,GND*%
X168600000Y-79300000D03*
%TD*%
D17*
%TO.P,TP6,1,1_1*%
%TO.N,Net-(U5-P0.27)*%
X158660000Y-67460000D03*
%TD*%
D20*
%TO.P,R3,1*%
%TO.N,Net-(U3-AP_SCL)*%
X169300000Y-67202500D03*
%TO.P,R3,2*%
%TO.N,VDD*%
X169300000Y-68397500D03*
%TD*%
D32*
%TO.P,TH1,1*%
%TO.N,Net-(U5-P0.31{slash}AIN7)*%
X158867500Y-69900000D03*
%TO.P,TH1,2*%
%TO.N,GND*%
X157672500Y-69900000D03*
%TD*%
D33*
%TO.P,C6,1*%
%TO.N,VDD*%
X167468783Y-70301283D03*
%TO.P,C6,2*%
%TO.N,GND*%
X166666217Y-69498717D03*
%TD*%
D34*
%TO.N,GND*%
X160400000Y-66000000D03*
X158700000Y-65500000D03*
X159200000Y-66100000D03*
X159900000Y-66600000D03*
X165020000Y-56180000D03*
X162600000Y-60500000D03*
X161082842Y-59411591D03*
X158400000Y-79500000D03*
X169430000Y-58700000D03*
X166829892Y-59409796D03*
X163900000Y-55400000D03*
X163700000Y-61000000D03*
X157850000Y-74930000D03*
X164360000Y-97680000D03*
X161900000Y-75300000D03*
X169630000Y-78230000D03*
X159900000Y-65100000D03*
X158000000Y-72240000D03*
X157900000Y-68680000D03*
X159200000Y-64000000D03*
X164814422Y-65083909D03*
X165900000Y-55500000D03*
X164598784Y-65816800D03*
X163500000Y-56400000D03*
X164200000Y-63600000D03*
X166600000Y-52500000D03*
X171650000Y-78520000D03*
X170200000Y-60680000D03*
X156900000Y-58820000D03*
X164300000Y-82600000D03*
X165200000Y-62000000D03*
X162600000Y-61300000D03*
X164762500Y-71300000D03*
X171910000Y-76920000D03*
X171100000Y-63800000D03*
X163100000Y-71400000D03*
X159181271Y-60687530D03*
X163620000Y-92400000D03*
X159174665Y-62363197D03*
X168600000Y-62200000D03*
X166444923Y-67204798D03*
X166420000Y-74270000D03*
X161900000Y-70972500D03*
X162600000Y-62100000D03*
X159500000Y-80700000D03*
X169900000Y-61700000D03*
X163300000Y-63200000D03*
X160420000Y-55300000D03*
X160600000Y-83800000D03*
X162784889Y-64131807D03*
X159157539Y-61491030D03*
X162950000Y-57870000D03*
X163400000Y-52500000D03*
X163800000Y-69900000D03*
X162600000Y-79100000D03*
X170100000Y-59500000D03*
X158100000Y-66900000D03*
X159188051Y-59934884D03*
X169400000Y-64600000D03*
X162600000Y-62900000D03*
X165200000Y-68500000D03*
X164105830Y-64382438D03*
X165200000Y-69700000D03*
X171270000Y-67010000D03*
X161530000Y-76310000D03*
X163800000Y-68500000D03*
X161380000Y-58640000D03*
X164200000Y-79000000D03*
X162786098Y-85380382D03*
X162100000Y-58290000D03*
X165000000Y-98600000D03*
X162200000Y-57000000D03*
X169400000Y-63100000D03*
X157000000Y-61900000D03*
X165000000Y-70600000D03*
X164680000Y-93900000D03*
X165770000Y-97670000D03*
X159188051Y-63230252D03*
X167100000Y-87600000D03*
X170310000Y-80840000D03*
X159174490Y-64806739D03*
X160900000Y-74840000D03*
X160312211Y-59475326D03*
%TO.N,+BATT*%
X174000000Y-80348393D03*
X170032513Y-90702129D03*
X171564678Y-57988741D03*
X155862822Y-82039759D03*
X162954005Y-53495995D03*
X155862822Y-71521381D03*
X155862822Y-75068603D03*
X168405911Y-54838094D03*
X155862822Y-64441130D03*
X174000000Y-83915000D03*
X174000000Y-76886171D03*
X168124619Y-93688543D03*
X174000000Y-73307883D03*
X172020581Y-87741889D03*
X164103109Y-96599728D03*
X155862822Y-78507447D03*
X174000000Y-69861306D03*
X174000000Y-62868432D03*
X155862822Y-67965720D03*
X159940000Y-56550000D03*
X155900000Y-61000000D03*
X156848833Y-86210434D03*
X174000000Y-66348948D03*
X160749635Y-92150966D03*
X158831936Y-89136880D03*
%TO.N,/D+*%
X162700000Y-82000000D03*
%TO.N,VDD*%
X160763620Y-67233508D03*
D35*
X160000000Y-74710000D03*
D34*
X166520000Y-73080000D03*
X159693466Y-72306534D03*
X168540000Y-73440000D03*
X170278260Y-68400000D03*
%TO.N,Net-(U3-AP_SCL)*%
X169300000Y-67200000D03*
%TO.N,Net-(U3-AP_SDA)*%
X169458858Y-71264998D03*
%TO.N,Net-(J1-SWO)*%
X167750000Y-67293767D03*
%TO.N,RESET*%
X168503964Y-65300000D03*
X167598834Y-66212043D03*
X168000000Y-75600000D03*
%TO.N,Net-(J1-SWCLK)*%
X166283964Y-66400000D03*
%TO.N,Net-(J1-SWDIO)*%
X165400000Y-66200000D03*
%TO.N,Net-(U5-P0.27)*%
X159608664Y-68331336D03*
%TO.N,Net-(U5-P0.29{slash}AIN5)*%
X159570000Y-69160000D03*
%TO.N,Net-(U5-P0.31{slash}AIN7)*%
X159739101Y-70363398D03*
%TO.N,Net-(P1-CC)*%
X166500000Y-84800000D03*
%TO.N,/D-*%
X163600000Y-82000000D03*
%TO.N,+5V*%
X168250000Y-78400000D03*
X169810000Y-66400000D03*
%TD*%
%TO.N,Net-(J1-SWO)*%
D36*
X165994809Y-60404135D02*
X165994809Y-60026990D01*
X167750000Y-67293767D02*
X166893964Y-66437731D01*
X166893964Y-66437731D02*
X166893964Y-61303290D01*
X166893964Y-61303290D02*
X165994809Y-60404135D01*
%TO.N,RESET*%
X164762039Y-58756467D02*
X164724809Y-58756990D01*
X164836031Y-58748130D02*
X164762039Y-58756467D01*
X164908624Y-58731560D02*
X164836031Y-58748130D01*
X164978906Y-58706968D02*
X164908624Y-58731560D01*
X165045993Y-58674661D02*
X164978906Y-58706968D01*
X165109040Y-58635046D02*
X165045993Y-58674661D01*
X165193951Y-58562665D02*
X165167256Y-58588621D01*
X165703326Y-58053290D02*
X165193951Y-58562665D01*
X165167256Y-58588621D02*
X165109040Y-58635046D01*
X166253277Y-58053290D02*
X165703326Y-58053290D01*
X166269429Y-58052896D02*
X166253277Y-58053290D01*
X166301112Y-58046599D02*
X166269429Y-58052896D01*
X166369509Y-58005145D02*
X166357821Y-58016298D01*
X167635654Y-57480690D02*
X166893964Y-57480690D01*
X168160109Y-58005145D02*
X167635654Y-57480690D01*
X168160109Y-60778835D02*
X168160109Y-58005145D01*
X167409232Y-61529712D02*
X168160109Y-60778835D01*
X167393964Y-66007173D02*
X167393964Y-61536036D01*
X167598834Y-66212043D02*
X167393964Y-66007173D01*
X167393964Y-61536036D02*
G75*
G03*
X167409259Y-61529739I36J21636D01*
G01*
X166893964Y-57480690D02*
X166369509Y-58005145D01*
X166330959Y-58034241D02*
X166301112Y-58046599D01*
X166357821Y-58016298D02*
X166330959Y-58034241D01*
%TO.N,+5V*%
X164201799Y-58010000D02*
X163454809Y-58756990D01*
X165039462Y-58010000D02*
X164201799Y-58010000D01*
X165459462Y-57590000D02*
X165039462Y-58010000D01*
X166089462Y-57590000D02*
X165459462Y-57590000D01*
X167821228Y-57020690D02*
X167820538Y-57020000D01*
X167820538Y-57020000D02*
X166659462Y-57020000D01*
X167826192Y-57020690D02*
X167821228Y-57020690D01*
X168620109Y-60969373D02*
X168620109Y-57814607D01*
X168620109Y-57814607D02*
X167826192Y-57020690D01*
X166659462Y-57020000D02*
X166089462Y-57590000D01*
X167893964Y-61695518D02*
X168620109Y-60969373D01*
X167893964Y-65644502D02*
X167893964Y-61695518D01*
X168499462Y-66250000D02*
X167893964Y-65644502D01*
X169660000Y-66250000D02*
X168499462Y-66250000D01*
X169810000Y-66400000D02*
X169660000Y-66250000D01*
%TO.N,RESET*%
X168000000Y-75550000D02*
X168000000Y-75600000D01*
X168050000Y-75600000D02*
X168000000Y-75550000D01*
X171000000Y-75600000D02*
X168050000Y-75600000D01*
X172120000Y-66650000D02*
X172120000Y-74480000D01*
X172120000Y-74480000D02*
X171000000Y-75600000D01*
X168690000Y-65790000D02*
X171260000Y-65790000D01*
X168503964Y-65603964D02*
X168690000Y-65790000D01*
X171260000Y-65790000D02*
X172120000Y-66650000D01*
X168503964Y-65300000D02*
X168503964Y-65603964D01*
%TO.N,GND*%
X166928256Y-81841744D02*
X167328256Y-81841744D01*
X166215058Y-82416947D02*
X166353053Y-82416947D01*
D37*
X166110000Y-58890889D02*
X165999889Y-59001000D01*
D36*
X166353053Y-82416947D02*
X166928256Y-81841744D01*
X165944086Y-82220000D02*
X166000000Y-82164086D01*
X166177086Y-58756990D02*
X166829892Y-59409796D01*
X167328256Y-81841744D02*
X167328256Y-81804419D01*
X165994809Y-58756990D02*
X166177086Y-58756990D01*
%TO.N,+BATT*%
D38*
X160676087Y-56683913D02*
X163046727Y-54313273D01*
X156360000Y-61000000D02*
X155900000Y-61000000D01*
X158831936Y-89136880D02*
X156848833Y-86210434D01*
X172020581Y-87741889D02*
X170032513Y-90702129D01*
D39*
X155862822Y-78357178D02*
X155862822Y-78507447D01*
D38*
X155900000Y-84400000D02*
X156848833Y-86210434D01*
X155862822Y-64441130D02*
X155862822Y-61097178D01*
X155862822Y-78507447D02*
X155862822Y-75068603D01*
X168414031Y-54838094D02*
X171564678Y-57988741D01*
D39*
X155862822Y-64441130D02*
X155825945Y-64404253D01*
D40*
X159200000Y-77300000D02*
X158630000Y-77300000D01*
D38*
X155862822Y-61097178D02*
X155900000Y-61060000D01*
D39*
X155825945Y-64404253D02*
X155825945Y-61074055D01*
D38*
X168405911Y-54838094D02*
X168260000Y-54692183D01*
D39*
X173992612Y-73315271D02*
X174000000Y-73307883D01*
D38*
X171598741Y-57988741D02*
X174000000Y-60390000D01*
X168260000Y-54692183D02*
X167881090Y-54313273D01*
X164103109Y-96599728D02*
X160749635Y-92150966D01*
D39*
X155825945Y-61074055D02*
X155900000Y-61000000D01*
D38*
X160114013Y-57245987D02*
X156360000Y-61000000D01*
D41*
X163046727Y-54313273D02*
X163046727Y-53588717D01*
D42*
X160275000Y-77750000D02*
X159650000Y-77750000D01*
D38*
X159940000Y-56550000D02*
X160114013Y-56724013D01*
X174000000Y-73307883D02*
X174000000Y-83915000D01*
D39*
X156485010Y-77160000D02*
X156155010Y-76830000D01*
X158490000Y-77160000D02*
X156485010Y-77160000D01*
D38*
X174000000Y-83915000D02*
X172020581Y-87741889D01*
X159940000Y-56550000D02*
X160073913Y-56683913D01*
X168124619Y-93688543D02*
X164103109Y-96599728D01*
D39*
X158430000Y-77450000D02*
X157765075Y-77450000D01*
D38*
X155862822Y-84362822D02*
X155862822Y-82039759D01*
X155862822Y-75068603D02*
X155862822Y-71521381D01*
D39*
X156155010Y-76830000D02*
X156150000Y-76830000D01*
D38*
X155862822Y-82039759D02*
X155862822Y-78507447D01*
D39*
X156820000Y-77400000D02*
X155862822Y-78357178D01*
D38*
X167881090Y-54313273D02*
X163046727Y-54313273D01*
D43*
X160104013Y-56714013D02*
X160114013Y-56714013D01*
D41*
X163046727Y-53588717D02*
X162954005Y-53495995D01*
D38*
X160114013Y-56724013D02*
X160114013Y-57245987D01*
X168405911Y-54838094D02*
X168414031Y-54838094D01*
X155900000Y-84400000D02*
X155862822Y-84362822D01*
D40*
X159650000Y-77750000D02*
X159200000Y-77300000D01*
D38*
X160749635Y-92150966D02*
X158831936Y-89136880D01*
X160073913Y-56683913D02*
X160676087Y-56683913D01*
X174000000Y-60390000D02*
X174000000Y-62868432D01*
X170032513Y-90702129D02*
X168124619Y-93688543D01*
X174000000Y-62868432D02*
X174000000Y-69861306D01*
D39*
X157765075Y-77450000D02*
X155862822Y-79352253D01*
D38*
X155862822Y-71521381D02*
X155862822Y-64441130D01*
D43*
X159940000Y-56550000D02*
X160104013Y-56714013D01*
D36*
X171564678Y-57988741D02*
X171538741Y-57988741D01*
D39*
X156150000Y-76830000D02*
X155862822Y-76542822D01*
D38*
X171564678Y-57988741D02*
X171598741Y-57988741D01*
%TO.N,VDD*%
D44*
X159090000Y-72297500D02*
X159684432Y-72297500D01*
D43*
X159700000Y-72313068D02*
X159693466Y-72306534D01*
D44*
X159100000Y-72197500D02*
X158990000Y-72197500D01*
X167700000Y-70070066D02*
X167468783Y-70301283D01*
D43*
X166500000Y-73100000D02*
X166520000Y-73080000D01*
D44*
X158990000Y-72197500D02*
X159090000Y-72297500D01*
D43*
X160010000Y-72350000D02*
X160000000Y-72360000D01*
X163800000Y-72350000D02*
X160010000Y-72350000D01*
D44*
X170275760Y-68397500D02*
X169300000Y-68397500D01*
D43*
X159990000Y-74700000D02*
X159700000Y-74410000D01*
D44*
X167167500Y-71500000D02*
X167468783Y-70301283D01*
D43*
X159700000Y-74410000D02*
X159700000Y-72313068D01*
D44*
X169300000Y-68397500D02*
X169072500Y-68397500D01*
D43*
X168540000Y-73440000D02*
X166520000Y-73080000D01*
D39*
X163800000Y-73762500D02*
X163800000Y-72350000D01*
D44*
X159684432Y-72297500D02*
X159693466Y-72306534D01*
D43*
X160550000Y-72200000D02*
X160400000Y-72350000D01*
D44*
X167700000Y-69770000D02*
X167700000Y-70070066D01*
D43*
X160763620Y-67233508D02*
X160550000Y-67447128D01*
X163800000Y-73100000D02*
X166500000Y-73100000D01*
X160550000Y-67447128D02*
X160550000Y-72200000D01*
X163800000Y-72850000D02*
X163800000Y-73100000D01*
D44*
X170278260Y-68400000D02*
X170275760Y-68397500D01*
X167167500Y-71500000D02*
X166520000Y-73080000D01*
X169072500Y-68397500D02*
X167700000Y-69770000D01*
%TO.N,Net-(U3-AP_SDA)*%
D36*
X170970000Y-67852297D02*
X170320203Y-67202500D01*
X168900000Y-69510000D02*
X169240000Y-69170000D01*
X169458858Y-71264998D02*
X169418860Y-71225000D01*
X168900000Y-70870000D02*
X168900000Y-69510000D01*
X170970000Y-68830000D02*
X170970000Y-67852297D01*
X170320203Y-67202500D02*
X170300000Y-67202500D01*
X170630000Y-69170000D02*
X170970000Y-68830000D01*
X169418860Y-71225000D02*
X169255000Y-71225000D01*
X169255000Y-71225000D02*
X168900000Y-70870000D01*
X169240000Y-69170000D02*
X170630000Y-69170000D01*
%TO.N,Net-(J1-SWCLK)*%
X166393964Y-61463964D02*
X164956990Y-60026990D01*
X166283964Y-66400000D02*
X166393964Y-66290000D01*
X164956990Y-60026990D02*
X164724809Y-60026990D01*
X166393964Y-66290000D02*
X166393964Y-61463964D01*
%TO.N,Net-(J1-SWDIO)*%
X163729626Y-60026990D02*
X163454809Y-60026990D01*
X165010152Y-60730690D02*
X164433326Y-60730690D01*
X164433326Y-60730690D02*
X163729626Y-60026990D01*
X165893964Y-61614502D02*
X165010152Y-60730690D01*
X165400000Y-66200000D02*
X165893964Y-65706036D01*
X165893964Y-65706036D02*
X165893964Y-61614502D01*
%TO.N,Net-(U5-P0.27)*%
X158737328Y-67460000D02*
X159608664Y-68331336D01*
X158660000Y-67460000D02*
X158737328Y-67460000D01*
%TO.N,Net-(U5-P0.29{slash}AIN5)*%
X159080000Y-68670000D02*
X159570000Y-69160000D01*
X158660000Y-68670000D02*
X159080000Y-68670000D01*
%TO.N,Net-(U5-P0.31{slash}AIN7)*%
X159731036Y-70355333D02*
X159731036Y-70266464D01*
X159739101Y-70363398D02*
X159100000Y-71002500D01*
X159700000Y-70157663D02*
X159442337Y-69900000D01*
X159700000Y-70324297D02*
X159700000Y-70157663D01*
X159739101Y-70363398D02*
X159700000Y-70324297D01*
X159442337Y-69900000D02*
X158997500Y-69900000D01*
X159739101Y-70363398D02*
X159731036Y-70355333D01*
%TO.N,Net-(U1-SW)*%
D38*
X162800000Y-77300000D02*
X163400000Y-77900000D01*
X162850000Y-76037500D02*
X162800000Y-76087500D01*
X163400000Y-77900000D02*
X163500000Y-77900000D01*
X162800000Y-76087500D02*
X162800000Y-77300000D01*
%TO.N,Net-(SW1-B)*%
D39*
X161150000Y-79250000D02*
X160275000Y-79250000D01*
X166537500Y-78362500D02*
X164750000Y-80150000D01*
X162050000Y-80150000D02*
X161150000Y-79250000D01*
X164750000Y-80150000D02*
X162050000Y-80150000D01*
X166537500Y-77300000D02*
X166537500Y-78362500D01*
%TO.N,+5V*%
D36*
X168250000Y-78400000D02*
X167700000Y-78400000D01*
D44*
X161600000Y-84800000D02*
X161600000Y-81960000D01*
X167200000Y-79017775D02*
X167200000Y-79300000D01*
X167200000Y-79615000D02*
X167200000Y-79300000D01*
X161600000Y-81960000D02*
X162420000Y-81140000D01*
X165675000Y-81140000D02*
X167200000Y-79615000D01*
X167817775Y-78400000D02*
X167200000Y-79017775D01*
X168250000Y-78400000D02*
X167817775Y-78400000D01*
X162420000Y-81140000D02*
X165675000Y-81140000D01*
D36*
X165779347Y-83034568D02*
X165779347Y-83087883D01*
D44*
X160275000Y-82250000D02*
X161504690Y-82250000D01*
%TD*%
%TA.AperFunction,Conductor*%
%TO.N,GND*%
G36*
X168138088Y-94751741D02*
G01*
X168170591Y-94813590D01*
X168166022Y-94879079D01*
X168164186Y-94884310D01*
X168150367Y-94912014D01*
X165167649Y-99387267D01*
X165153913Y-99404377D01*
X165152140Y-99406223D01*
X165140161Y-99418698D01*
X165107044Y-99443285D01*
X165091715Y-99451101D01*
X165073752Y-99458548D01*
X165063074Y-99462022D01*
X165044175Y-99466569D01*
X165025155Y-99469592D01*
X165005790Y-99471129D01*
X164994549Y-99471138D01*
X164975159Y-99469628D01*
X164956128Y-99466630D01*
X164937222Y-99462110D01*
X164926525Y-99458646D01*
X164908559Y-99451226D01*
X164893347Y-99443497D01*
X164860140Y-99418902D01*
X164846397Y-99404612D01*
X164832598Y-99387441D01*
X164832482Y-99387267D01*
X163523098Y-97423191D01*
X163507899Y-97391336D01*
X163504839Y-97381526D01*
X163503668Y-97311666D01*
X163540452Y-97252263D01*
X163603512Y-97222177D01*
X163663284Y-97227255D01*
X163667340Y-97228640D01*
X163690182Y-97239131D01*
X163709493Y-97250502D01*
X163710459Y-97251079D01*
X163711415Y-97251655D01*
X163712395Y-97252251D01*
X163736404Y-97267021D01*
X163744021Y-97275470D01*
X163773788Y-97289622D01*
X163773788Y-97289623D01*
X163776131Y-97290737D01*
X163799587Y-97301889D01*
X163804064Y-97301625D01*
X163817059Y-97305379D01*
X163844487Y-97314953D01*
X163846630Y-97315724D01*
X163859290Y-97320420D01*
X163908878Y-97338812D01*
X163914771Y-97340360D01*
X163914704Y-97340612D01*
X163917224Y-97341249D01*
X163917286Y-97340996D01*
X163923207Y-97342430D01*
X163923210Y-97342431D01*
X163988915Y-97351654D01*
X163991254Y-97352005D01*
X164056801Y-97362504D01*
X164056801Y-97362503D01*
X164056802Y-97362504D01*
X164061945Y-97362816D01*
X164062871Y-97363023D01*
X164062865Y-97363134D01*
X164063508Y-97363166D01*
X164073799Y-97365475D01*
X164074086Y-97365634D01*
X164077395Y-97365803D01*
X164081448Y-97366452D01*
X164090372Y-97365080D01*
X164095330Y-97362665D01*
X164108982Y-97361124D01*
X164137744Y-97359486D01*
X164140092Y-97359375D01*
X164206502Y-97356882D01*
X164206505Y-97356881D01*
X164206508Y-97356881D01*
X164212546Y-97356057D01*
X164212581Y-97356314D01*
X164215141Y-97355940D01*
X164215101Y-97355681D01*
X164221115Y-97354740D01*
X164221124Y-97354740D01*
X164285408Y-97338103D01*
X164287561Y-97337568D01*
X164320626Y-97329690D01*
X164325608Y-97328925D01*
X164331818Y-97329756D01*
X164348790Y-97323721D01*
X164356008Y-97321584D01*
X164360402Y-97319591D01*
X164360526Y-97319548D01*
X164360525Y-97319547D01*
X164384988Y-97310848D01*
X164387918Y-97307543D01*
X164399892Y-97300927D01*
X164410124Y-97295989D01*
X164416196Y-97293060D01*
X164418454Y-97291969D01*
X164425557Y-97288541D01*
X164426262Y-97288205D01*
X164427645Y-97287554D01*
X164428380Y-97287213D01*
X164454225Y-97275353D01*
X164465451Y-97273718D01*
X164493772Y-97256831D01*
X164493773Y-97256833D01*
X164496002Y-97255504D01*
X164496001Y-97255502D01*
X164518289Y-97242214D01*
X164520515Y-97238402D01*
X164531011Y-97229536D01*
X164540772Y-97222177D01*
X164553664Y-97212458D01*
X164554493Y-97211840D01*
X164555416Y-97211158D01*
X164556321Y-97210495D01*
X167968684Y-94740274D01*
X167999912Y-94723864D01*
X168007548Y-94721154D01*
X168077307Y-94717282D01*
X168138088Y-94751741D01*
G37*
%TD.AperFunction*%
%TA.AperFunction,Conductor*%
G36*
X162239132Y-82170280D02*
G01*
X162239695Y-82170537D01*
X162283859Y-82204405D01*
X162285290Y-82206138D01*
X162297059Y-82223088D01*
X162314346Y-82253030D01*
X162325082Y-82271625D01*
X162337995Y-82303561D01*
X162346103Y-82336006D01*
X162349731Y-82370268D01*
X162347977Y-82422035D01*
X162346917Y-82434545D01*
X162342258Y-82468803D01*
X162342516Y-82469453D01*
X162341381Y-82475248D01*
X162340509Y-82481664D01*
X162346500Y-82528788D01*
X162347451Y-82541324D01*
X162349318Y-82615944D01*
X162348987Y-82628612D01*
X162346358Y-82662575D01*
X162347034Y-82664033D01*
X162345350Y-82676199D01*
X162354048Y-82722820D01*
X162355731Y-82735366D01*
X162362269Y-82814622D01*
X162362663Y-82827362D01*
X162361968Y-82861165D01*
X162362783Y-82862683D01*
X162361781Y-82875362D01*
X162373063Y-82921218D01*
X162375467Y-82933735D01*
X162386493Y-83012898D01*
X162387603Y-83025654D01*
X162388778Y-83059140D01*
X162389905Y-83060986D01*
X162389596Y-83074359D01*
X162403207Y-83118864D01*
X162406317Y-83131300D01*
X162422164Y-83212230D01*
X162423976Y-83224947D01*
X162426962Y-83258140D01*
X162428376Y-83260202D01*
X162428787Y-83273928D01*
X162444653Y-83317190D01*
X162448451Y-83329484D01*
X162470330Y-83416005D01*
X162472587Y-83427007D01*
X162474554Y-83439426D01*
X162475251Y-83444499D01*
X162475307Y-83444985D01*
X162475309Y-83444995D01*
X162475310Y-83445001D01*
X162479527Y-83457384D01*
X162482034Y-83464747D01*
X162483546Y-83469501D01*
X162484970Y-83474309D01*
X162486290Y-83479120D01*
X162490240Y-83494741D01*
X162491409Y-83499361D01*
X162492243Y-83501457D01*
X162494385Y-83505737D01*
X162498931Y-83515949D01*
X162503025Y-83526398D01*
X162595764Y-83798746D01*
X162598493Y-83807900D01*
X162600867Y-83817153D01*
X162602886Y-83826512D01*
X162603316Y-83828961D01*
X162603317Y-83828965D01*
X162603318Y-83828969D01*
X162603319Y-83828972D01*
X162603321Y-83828977D01*
X162609304Y-83841832D01*
X162611953Y-83847947D01*
X162614433Y-83854123D01*
X162616740Y-83860346D01*
X162620870Y-83872470D01*
X162620872Y-83872475D01*
X162620871Y-83872475D01*
X162621317Y-83873785D01*
X162622702Y-83875853D01*
X162627711Y-83883996D01*
X162632398Y-83892319D01*
X162636770Y-83900837D01*
X162757866Y-84160996D01*
X162761517Y-84169688D01*
X162764829Y-84178498D01*
X162767811Y-84187451D01*
X162768659Y-84190361D01*
X162768660Y-84190362D01*
X162771448Y-84194960D01*
X162775745Y-84202045D01*
X162779104Y-84207941D01*
X162782295Y-84213917D01*
X162785329Y-84219994D01*
X162788817Y-84227487D01*
X162790596Y-84231788D01*
X162793029Y-84234691D01*
X162798810Y-84242149D01*
X162804289Y-84249801D01*
X162809492Y-84257686D01*
X162931982Y-84459644D01*
X162938920Y-84485768D01*
X162965781Y-84520447D01*
X162965780Y-84520447D01*
X162973500Y-84530414D01*
X162977645Y-84536092D01*
X162981642Y-84541908D01*
X162985472Y-84547837D01*
X162991999Y-84558599D01*
X162992001Y-84558602D01*
X162994956Y-84561432D01*
X163001335Y-84568010D01*
X163007463Y-84574816D01*
X163013342Y-84581852D01*
X163068859Y-84653530D01*
X163171663Y-84786259D01*
X163176791Y-84793388D01*
X163181663Y-84800693D01*
X163186284Y-84808185D01*
X163189056Y-84813059D01*
X163189065Y-84813070D01*
X163189212Y-84813218D01*
X163196839Y-84820944D01*
X163201882Y-84826369D01*
X163206784Y-84831969D01*
X163211511Y-84837707D01*
X163218291Y-84846460D01*
X163218293Y-84846462D01*
X163222767Y-84849863D01*
X163229556Y-84855413D01*
X163236173Y-84861228D01*
X163242545Y-84867239D01*
X163366097Y-84992389D01*
X163409195Y-85036044D01*
X163412670Y-85039563D01*
X163418334Y-85045700D01*
X163419425Y-85046964D01*
X163426381Y-85055813D01*
X163437714Y-85071661D01*
X163437714Y-85071662D01*
X163450846Y-85090026D01*
X163473829Y-85156008D01*
X163473829Y-85156025D01*
X163474062Y-85160734D01*
X163464127Y-85215849D01*
X163463082Y-85218279D01*
X163453164Y-85236827D01*
X163355668Y-85386957D01*
X163329716Y-85452006D01*
X163329716Y-85452011D01*
X163329479Y-85456270D01*
X163329061Y-85456246D01*
X163325140Y-85486290D01*
X163320933Y-85501342D01*
X163283929Y-85560609D01*
X163283928Y-85560610D01*
X163273755Y-85569660D01*
X163240795Y-85590626D01*
X163240812Y-85590662D01*
X163240542Y-85590787D01*
X163240318Y-85590930D01*
X163239194Y-85591412D01*
X163239185Y-85591417D01*
X163239182Y-85591418D01*
X163190317Y-85641579D01*
X163083346Y-85806299D01*
X163057396Y-85871342D01*
X163057396Y-85871347D01*
X163057159Y-85875606D01*
X163056741Y-85875582D01*
X163052820Y-85905625D01*
X163048613Y-85920677D01*
X163011613Y-85979940D01*
X163001438Y-85988992D01*
X162971736Y-86007880D01*
X162971833Y-86008058D01*
X162969287Y-86009438D01*
X162967964Y-86010280D01*
X162966866Y-86010751D01*
X162966859Y-86010757D01*
X162917994Y-86060918D01*
X162917686Y-86061318D01*
X162916801Y-86062756D01*
X162851636Y-86163100D01*
X162828394Y-86189665D01*
X162817234Y-86199242D01*
X162753540Y-86227962D01*
X162686723Y-86218720D01*
X162675287Y-86213710D01*
X162647250Y-86196691D01*
X162558281Y-86125010D01*
X162555774Y-86122935D01*
X162554837Y-86122138D01*
X162553238Y-86120779D01*
X162550751Y-86118606D01*
X162453047Y-86030916D01*
X162449733Y-86027830D01*
X162446467Y-86024676D01*
X162443252Y-86021456D01*
X162393415Y-85969662D01*
X162393413Y-85969660D01*
X162365413Y-85940559D01*
X162361560Y-85936366D01*
X162359372Y-85933872D01*
X162357783Y-85932061D01*
X162354133Y-85927701D01*
X162292864Y-85851007D01*
X162288874Y-85845730D01*
X162285022Y-85840342D01*
X162281320Y-85834860D01*
X162276304Y-85826988D01*
X162276302Y-85826986D01*
X162270452Y-85817805D01*
X162232137Y-85757671D01*
X162228510Y-85751602D01*
X162225044Y-85745407D01*
X162221777Y-85739157D01*
X162178157Y-85649522D01*
X162175662Y-85644061D01*
X162173276Y-85638482D01*
X162171054Y-85632915D01*
X162146977Y-85568035D01*
X162145398Y-85563513D01*
X162143898Y-85558933D01*
X162142503Y-85554377D01*
X162122389Y-85483858D01*
X162120768Y-85477547D01*
X162119292Y-85471095D01*
X162118006Y-85464701D01*
X162115804Y-85452014D01*
X162097261Y-85345201D01*
X162079806Y-85244654D01*
X162078770Y-85237427D01*
X162077952Y-85230219D01*
X162077342Y-85222943D01*
X162073478Y-85151608D01*
X162060790Y-84917353D01*
X162060661Y-84914203D01*
X162060640Y-84913479D01*
X162060571Y-84911055D01*
X162060523Y-84907907D01*
X162060472Y-84890159D01*
X162060423Y-84873216D01*
X162060489Y-84868815D01*
X162060497Y-84868559D01*
X162060500Y-84868520D01*
X162060500Y-82293957D01*
X162065521Y-82259030D01*
X162068707Y-82248177D01*
X162106477Y-82189396D01*
X162170031Y-82160367D01*
X162239132Y-82170280D01*
G37*
%TD.AperFunction*%
%TA.AperFunction,Conductor*%
G36*
X164602841Y-81605521D02*
G01*
X164616160Y-81609432D01*
X164674938Y-81647206D01*
X164703957Y-81710713D01*
X164704065Y-81711462D01*
X164697969Y-81771256D01*
X164686763Y-81802301D01*
X164686895Y-81803419D01*
X164679051Y-81830442D01*
X164673511Y-81843684D01*
X164671608Y-81853165D01*
X164670748Y-81861265D01*
X164669696Y-81866170D01*
X164668789Y-81870397D01*
X164666418Y-81879676D01*
X164666238Y-81880282D01*
X164663356Y-81888833D01*
X164660157Y-81897293D01*
X164656635Y-81905666D01*
X164652306Y-81914986D01*
X164652304Y-81914992D01*
X164648924Y-81934334D01*
X164647491Y-81941339D01*
X164645860Y-81948283D01*
X164644028Y-81955184D01*
X164638447Y-81974003D01*
X164638445Y-81974012D01*
X164638445Y-81974019D01*
X164638173Y-81984282D01*
X164637600Y-81993345D01*
X164636710Y-82002234D01*
X164633686Y-82019708D01*
X164631637Y-82027976D01*
X164629262Y-82036301D01*
X164625483Y-82047986D01*
X164625477Y-82048007D01*
X164625477Y-82048011D01*
X164624578Y-82065602D01*
X164623964Y-82073124D01*
X164623122Y-82080614D01*
X164622046Y-82088111D01*
X164619012Y-82105466D01*
X164619012Y-82105489D01*
X164620101Y-82117729D01*
X164620567Y-82126361D01*
X164620731Y-82135002D01*
X164620591Y-82143698D01*
X164620505Y-82145377D01*
X164619793Y-82153733D01*
X164618797Y-82162076D01*
X164617516Y-82170390D01*
X164615008Y-82183665D01*
X164615008Y-82183668D01*
X164615008Y-82183677D01*
X164616237Y-82200021D01*
X164616577Y-82207840D01*
X164616670Y-82215635D01*
X164616518Y-82223431D01*
X164615681Y-82239826D01*
X164618506Y-82253030D01*
X164619988Y-82261326D01*
X164621184Y-82269647D01*
X164622100Y-82278039D01*
X164622157Y-82278801D01*
X164622498Y-82286999D01*
X164622568Y-82295247D01*
X164622362Y-82303504D01*
X164621533Y-82317734D01*
X164621535Y-82317742D01*
X164621535Y-82317744D01*
X164624279Y-82331034D01*
X164624281Y-82331048D01*
X164624282Y-82331048D01*
X164624698Y-82333064D01*
X164626056Y-82340905D01*
X164627162Y-82348793D01*
X164628014Y-82356717D01*
X164628899Y-82368491D01*
X164629186Y-82372308D01*
X164629865Y-82375703D01*
X164632359Y-82381377D01*
X164633903Y-82385786D01*
X164636371Y-82393665D01*
X164638569Y-82401599D01*
X164640511Y-82409642D01*
X164641418Y-82414037D01*
X164642822Y-82422212D01*
X164643952Y-82430432D01*
X164644807Y-82438702D01*
X164645779Y-82452659D01*
X164645780Y-82452663D01*
X164650958Y-82467718D01*
X164653289Y-82475273D01*
X164655380Y-82482903D01*
X164657225Y-82490587D01*
X164660446Y-82506185D01*
X164660447Y-82506187D01*
X164660854Y-82507408D01*
X164662893Y-82511058D01*
X164666733Y-82518703D01*
X164670204Y-82526236D01*
X164673427Y-82533896D01*
X164676392Y-82541660D01*
X164677227Y-82544088D01*
X164679705Y-82552183D01*
X164681901Y-82560341D01*
X164683823Y-82568598D01*
X164686376Y-82581553D01*
X164686383Y-82581574D01*
X164686567Y-82581945D01*
X164695449Y-82600038D01*
X164701392Y-82614339D01*
X164708087Y-82633802D01*
X164714874Y-82643872D01*
X164717835Y-82648264D01*
X164726322Y-82662926D01*
X164733597Y-82677745D01*
X164740213Y-82694056D01*
X164745162Y-82709280D01*
X164745162Y-82709281D01*
X164757162Y-82727756D01*
X164764478Y-82740647D01*
X164766475Y-82744715D01*
X164774178Y-82760406D01*
X164774179Y-82760407D01*
X164774181Y-82760411D01*
X164784712Y-82772463D01*
X164795316Y-82786496D01*
X164803062Y-82798422D01*
X164811900Y-82814528D01*
X164817837Y-82827554D01*
X164830158Y-82842499D01*
X164832918Y-82845847D01*
X164841226Y-82857177D01*
X164854141Y-82877061D01*
X164860305Y-82882610D01*
X164891372Y-82926049D01*
X164896275Y-82937524D01*
X164904516Y-83006895D01*
X164903619Y-83012206D01*
X164882826Y-83062821D01*
X164881998Y-83064000D01*
X164869344Y-83079261D01*
X164824236Y-83125564D01*
X164717263Y-83290287D01*
X164691313Y-83355330D01*
X164691313Y-83355333D01*
X164691076Y-83359594D01*
X164690658Y-83359570D01*
X164686737Y-83389613D01*
X164682530Y-83404665D01*
X164645530Y-83463928D01*
X164635355Y-83472980D01*
X164605653Y-83491868D01*
X164605750Y-83492046D01*
X164603204Y-83493426D01*
X164601881Y-83494268D01*
X164600783Y-83494739D01*
X164551915Y-83544902D01*
X164444944Y-83709622D01*
X164418994Y-83774665D01*
X164418994Y-83774670D01*
X164418757Y-83778929D01*
X164418577Y-83778919D01*
X164418908Y-83780224D01*
X164414418Y-83808947D01*
X164412161Y-83817024D01*
X164408724Y-83829322D01*
X164371719Y-83888588D01*
X164338252Y-83909871D01*
X164328462Y-83914077D01*
X164328461Y-83914077D01*
X164299362Y-83943946D01*
X164299328Y-83943984D01*
X164279590Y-83964245D01*
X164249449Y-84010658D01*
X164226207Y-84037223D01*
X164215676Y-84046260D01*
X164151982Y-84074979D01*
X164082874Y-84064705D01*
X164076065Y-84061556D01*
X164033260Y-84028874D01*
X164018667Y-84011542D01*
X164013631Y-84005146D01*
X164008815Y-83998598D01*
X164004204Y-83991878D01*
X163878347Y-83794837D01*
X163874221Y-83787888D01*
X163870335Y-83780829D01*
X163866674Y-83773632D01*
X163856910Y-83752790D01*
X163769369Y-83565920D01*
X163762641Y-83551557D01*
X163760191Y-83545974D01*
X163757874Y-83540320D01*
X163755713Y-83534657D01*
X163741606Y-83494742D01*
X163741605Y-83494739D01*
X163719013Y-83430815D01*
X163717712Y-83426932D01*
X163716463Y-83422988D01*
X163715292Y-83419067D01*
X163697429Y-83355334D01*
X163683849Y-83306888D01*
X163682810Y-83302922D01*
X163681811Y-83298834D01*
X163680892Y-83294776D01*
X163679954Y-83290285D01*
X163667726Y-83231713D01*
X163657619Y-83183301D01*
X163656838Y-83179209D01*
X163656093Y-83174901D01*
X163655444Y-83170716D01*
X163650801Y-83136982D01*
X163640262Y-83060415D01*
X163639748Y-83056118D01*
X163639306Y-83051773D01*
X163638943Y-83047435D01*
X163638888Y-83046610D01*
X163631936Y-82941560D01*
X163631721Y-82937069D01*
X163631622Y-82933735D01*
X163631587Y-82932560D01*
X163631536Y-82928090D01*
X163632244Y-82824928D01*
X163632361Y-82820329D01*
X163632572Y-82815586D01*
X163632864Y-82810994D01*
X163633898Y-82798422D01*
X163637022Y-82760412D01*
X163640737Y-82715211D01*
X163641222Y-82710448D01*
X163641422Y-82708800D01*
X163641803Y-82705661D01*
X163642472Y-82700925D01*
X163657304Y-82608925D01*
X163658193Y-82604042D01*
X163659180Y-82599178D01*
X163660263Y-82594339D01*
X163666568Y-82568598D01*
X163673621Y-82539796D01*
X163686809Y-82507064D01*
X163695894Y-82491408D01*
X163742540Y-82445466D01*
X163752683Y-82439784D01*
X163770386Y-82432589D01*
X163770237Y-82432229D01*
X163777744Y-82429118D01*
X163777747Y-82429118D01*
X163882754Y-82368492D01*
X163968492Y-82282754D01*
X164029118Y-82177747D01*
X164060500Y-82060626D01*
X164060500Y-81939374D01*
X164029118Y-81822253D01*
X164017388Y-81801937D01*
X164004274Y-81769180D01*
X164001000Y-81755685D01*
X164004323Y-81685898D01*
X164044846Y-81628987D01*
X164046137Y-81627972D01*
X164099334Y-81603685D01*
X164104263Y-81602735D01*
X164127701Y-81600500D01*
X164567909Y-81600500D01*
X164602841Y-81605521D01*
G37*
%TD.AperFunction*%
%TA.AperFunction,Conductor*%
G36*
X166528266Y-58951715D02*
G01*
X166528269Y-58951717D01*
X166535266Y-58954917D01*
X166571375Y-58980002D01*
X166780742Y-59189370D01*
X166780743Y-59189370D01*
X166786794Y-59180316D01*
X166786796Y-59180312D01*
X166801490Y-59144838D01*
X166819496Y-59114490D01*
X166819735Y-59114194D01*
X166829306Y-59102315D01*
X166886693Y-59062468D01*
X166888447Y-59061884D01*
X166949597Y-59057520D01*
X166957211Y-59058894D01*
X166982642Y-59066362D01*
X167004127Y-59075261D01*
X167047267Y-59093130D01*
X167188410Y-59121204D01*
X167190618Y-59121699D01*
X167191351Y-59121790D01*
X167338265Y-59121790D01*
X167342387Y-59121790D01*
X167350241Y-59119406D01*
X167482351Y-59093130D01*
X167618078Y-59036910D01*
X167618084Y-59036906D01*
X167641893Y-59020997D01*
X167673734Y-59005763D01*
X167679808Y-59003861D01*
X167686733Y-59001694D01*
X167756592Y-59000450D01*
X167816033Y-59037172D01*
X167844705Y-59092584D01*
X167846533Y-59100638D01*
X167849609Y-59128084D01*
X167849609Y-59651955D01*
X167844584Y-59686897D01*
X167840746Y-59699965D01*
X167802968Y-59758741D01*
X167739410Y-59787762D01*
X167677404Y-59780814D01*
X167669689Y-59777857D01*
X167645171Y-59765171D01*
X167618087Y-59747075D01*
X167618081Y-59747072D01*
X167618074Y-59747067D01*
X167618063Y-59747062D01*
X167573020Y-59728405D01*
X167557503Y-59715900D01*
X167482353Y-59690851D01*
X167482354Y-59690851D01*
X167482351Y-59690850D01*
X167482347Y-59690849D01*
X167482343Y-59690848D01*
X167482341Y-59690847D01*
X167482317Y-59690842D01*
X167338271Y-59662190D01*
X167338268Y-59662190D01*
X167338264Y-59662190D01*
X167191354Y-59662190D01*
X167191349Y-59662190D01*
X167191344Y-59662190D01*
X167047280Y-59690846D01*
X167047274Y-59690848D01*
X167047264Y-59690851D01*
X167047259Y-59690852D01*
X167047241Y-59690859D01*
X166911552Y-59747062D01*
X166911525Y-59747078D01*
X166789385Y-59828690D01*
X166737794Y-59880282D01*
X166732449Y-59883200D01*
X166709538Y-59901434D01*
X166697357Y-59908085D01*
X166679937Y-59911874D01*
X166676471Y-59913767D01*
X166672530Y-59913485D01*
X166629083Y-59922936D01*
X166563620Y-59898518D01*
X166563605Y-59898507D01*
X166562303Y-59897532D01*
X166525090Y-59852450D01*
X166522902Y-59847945D01*
X166514667Y-59825864D01*
X166511241Y-59813078D01*
X166511241Y-59813077D01*
X166448955Y-59705194D01*
X166440700Y-59687944D01*
X166436898Y-59678115D01*
X166436899Y-59678115D01*
X166430123Y-59660600D01*
X166424298Y-59590977D01*
X166427190Y-59576860D01*
X166425854Y-59573201D01*
X166426193Y-59553050D01*
X166427190Y-59542925D01*
X166398243Y-59513978D01*
X166377093Y-59485726D01*
X166364491Y-59462647D01*
X166349323Y-59403155D01*
X166349506Y-59075260D01*
X166354547Y-59040334D01*
X166355477Y-59037172D01*
X166357739Y-59029484D01*
X166395542Y-58970728D01*
X166459113Y-58941736D01*
X166528266Y-58951715D01*
G37*
%TD.AperFunction*%
%TA.AperFunction,Conductor*%
G36*
X167531821Y-55078794D02*
G01*
X167557065Y-55086207D01*
X167609811Y-55117503D01*
X167801887Y-55309579D01*
X167813407Y-55322861D01*
X167814609Y-55324464D01*
X167822350Y-55330043D01*
X167921119Y-55428812D01*
X167921122Y-55428814D01*
X167930371Y-55434995D01*
X167940141Y-55442241D01*
X167949524Y-55449941D01*
X167958543Y-55458115D01*
X170969371Y-58468943D01*
X170969402Y-58468975D01*
X170970847Y-58470420D01*
X170970862Y-58470436D01*
X171079883Y-58579457D01*
X171079891Y-58579463D01*
X171167207Y-58637805D01*
X171167324Y-58637884D01*
X171177092Y-58645128D01*
X171186478Y-58652830D01*
X171195491Y-58661000D01*
X173190573Y-60656082D01*
X173211723Y-60684334D01*
X173224331Y-60707423D01*
X173239500Y-60766852D01*
X173239500Y-69936216D01*
X173268717Y-70083102D01*
X173268725Y-70083137D01*
X173326045Y-70221524D01*
X173326060Y-70221551D01*
X173373819Y-70293026D01*
X173409280Y-70346096D01*
X173409283Y-70346100D01*
X173478897Y-70415714D01*
X173500046Y-70443966D01*
X173505466Y-70453892D01*
X173520318Y-70522165D01*
X173495901Y-70587629D01*
X173439968Y-70629501D01*
X173432780Y-70632182D01*
X173389446Y-70640000D01*
X173309344Y-70640000D01*
X173277772Y-70642484D01*
X173272510Y-70642899D01*
X173272504Y-70642900D01*
X173272497Y-70642901D01*
X173272493Y-70642902D01*
X173114833Y-70688707D01*
X173114802Y-70688717D01*
X173114799Y-70688718D01*
X172973452Y-70772310D01*
X172973447Y-70772313D01*
X172973436Y-70772322D01*
X172857321Y-70888437D01*
X172857312Y-70888449D01*
X172773719Y-71029799D01*
X172773718Y-71029801D01*
X172738229Y-71151956D01*
X172727899Y-71187514D01*
X172727898Y-71187519D01*
X172727703Y-71189996D01*
X172727704Y-71189999D01*
X172727705Y-71190000D01*
X173858170Y-71190000D01*
X173863617Y-71191599D01*
X173869188Y-71190490D01*
X173893106Y-71195023D01*
X173908104Y-71199427D01*
X173923112Y-71209069D01*
X173925209Y-71209685D01*
X173926638Y-71211334D01*
X173966855Y-71237172D01*
X173968042Y-71238541D01*
X173995518Y-71293402D01*
X173997163Y-71300960D01*
X174000000Y-71327331D01*
X174000000Y-71548170D01*
X173994975Y-71583114D01*
X173990570Y-71598112D01*
X173982704Y-71610354D01*
X173979366Y-71624498D01*
X173964223Y-71639117D01*
X173952827Y-71656855D01*
X173951458Y-71658042D01*
X173937253Y-71665155D01*
X173929100Y-71673028D01*
X173916539Y-71675530D01*
X173896597Y-71685518D01*
X173889039Y-71687163D01*
X173862668Y-71690000D01*
X172727703Y-71690000D01*
X172727898Y-71692480D01*
X172727898Y-71692483D01*
X172727899Y-71692486D01*
X172773718Y-71850198D01*
X172804051Y-71901488D01*
X172856314Y-71989862D01*
X172857314Y-71991552D01*
X172857321Y-71991561D01*
X172973438Y-72107678D01*
X172973456Y-72107690D01*
X172988731Y-72116724D01*
X173016241Y-72138828D01*
X173026909Y-72150253D01*
X173058275Y-72212687D01*
X173062498Y-72235901D01*
X173064500Y-72258094D01*
X173064500Y-72650028D01*
X173064665Y-72658175D01*
X173066720Y-72663935D01*
X173084914Y-72726611D01*
X173086720Y-72732832D01*
X173238124Y-72994720D01*
X173242102Y-73001600D01*
X173255241Y-73034363D01*
X173261839Y-73061491D01*
X173262969Y-73114987D01*
X173239500Y-73232971D01*
X173239500Y-83684923D01*
X173235984Y-83714243D01*
X173229152Y-83742318D01*
X173218807Y-83769966D01*
X171369911Y-87344508D01*
X171366487Y-87350690D01*
X171362895Y-87356760D01*
X171359120Y-87362743D01*
X169447042Y-90209832D01*
X169440679Y-90218474D01*
X169419309Y-90245009D01*
X169418597Y-90249094D01*
X169411890Y-90260989D01*
X169397501Y-90283512D01*
X169396687Y-90284768D01*
X169395827Y-90286079D01*
X169395087Y-90287195D01*
X169381271Y-90307769D01*
X169380225Y-90309326D01*
X169371729Y-90316392D01*
X169352726Y-90352730D01*
X169347341Y-90362024D01*
X167580546Y-93127578D01*
X167566240Y-93145919D01*
X167550493Y-93162608D01*
X167533015Y-93177953D01*
X164374355Y-95464518D01*
X164343111Y-95480935D01*
X164328378Y-95486163D01*
X164258616Y-95490030D01*
X164258614Y-95490030D01*
X164256229Y-95489471D01*
X164202726Y-95461935D01*
X164197739Y-95457558D01*
X164180523Y-95439010D01*
X163762390Y-94884310D01*
X163341560Y-94326031D01*
X162008120Y-92557073D01*
X161379508Y-91723148D01*
X161376638Y-91719180D01*
X161373838Y-91715142D01*
X161371129Y-91711065D01*
X161326724Y-91641272D01*
X161326724Y-91641273D01*
X160940835Y-91034764D01*
X164808318Y-91034764D01*
X164808318Y-91034777D01*
X164810895Y-91231717D01*
X164810898Y-91231742D01*
X164851847Y-91424390D01*
X164851851Y-91424409D01*
X164929612Y-91605399D01*
X165041180Y-91767733D01*
X165139999Y-91863996D01*
X165182285Y-91905188D01*
X165390683Y-92040524D01*
X165704396Y-91557448D01*
X165757416Y-91511947D01*
X165826621Y-91502333D01*
X165875925Y-91520990D01*
X166087270Y-91658239D01*
X166132773Y-91711260D01*
X166142387Y-91780465D01*
X166123730Y-91829769D01*
X165810017Y-92312844D01*
X165810018Y-92312844D01*
X165810018Y-92312845D01*
X166018420Y-92448183D01*
X166129523Y-92492509D01*
X166201358Y-92521169D01*
X166201362Y-92521170D01*
X166201369Y-92521173D01*
X166201384Y-92521177D01*
X166395056Y-92557074D01*
X166395068Y-92557075D01*
X166592024Y-92554497D01*
X166592032Y-92554496D01*
X166592040Y-92554494D01*
X166592042Y-92554494D01*
X166619254Y-92548709D01*
X166784703Y-92513543D01*
X166784707Y-92513542D01*
X166965697Y-92435782D01*
X167128034Y-92324211D01*
X167157695Y-92293763D01*
X167157695Y-92293762D01*
X167157694Y-92293761D01*
X166684126Y-91986222D01*
X166638623Y-91933201D01*
X166629009Y-91863996D01*
X166658336Y-91800579D01*
X166668677Y-91790088D01*
X166710549Y-91752387D01*
X166753571Y-91686139D01*
X166770979Y-91632563D01*
X166810416Y-91574889D01*
X166874774Y-91547691D01*
X166943621Y-91559606D01*
X166956439Y-91566885D01*
X167097111Y-91658239D01*
X167403986Y-91857527D01*
X167430012Y-91874428D01*
X167430014Y-91874427D01*
X167445762Y-91834956D01*
X167445766Y-91834942D01*
X167481662Y-91641273D01*
X167481663Y-91641261D01*
X167479085Y-91444305D01*
X167479084Y-91444297D01*
X167474856Y-91424407D01*
X167463504Y-91370999D01*
X167438131Y-91251626D01*
X167438130Y-91251622D01*
X167360370Y-91070632D01*
X167248801Y-90908297D01*
X167248800Y-90908295D01*
X167107700Y-90770844D01*
X167107697Y-90770842D01*
X167107696Y-90770841D01*
X166899296Y-90635503D01*
X166899294Y-90635503D01*
X166585583Y-91118576D01*
X166532562Y-91164079D01*
X166463357Y-91173693D01*
X166414053Y-91155036D01*
X166202708Y-91017787D01*
X166157205Y-90964766D01*
X166147591Y-90895561D01*
X166166246Y-90846260D01*
X166479962Y-90363183D01*
X166479960Y-90363182D01*
X166479961Y-90363182D01*
X166271561Y-90227846D01*
X166088622Y-90154859D01*
X166088609Y-90154855D01*
X166088603Y-90154853D01*
X166088597Y-90154852D01*
X166054043Y-90148447D01*
X165894935Y-90118956D01*
X165894926Y-90118955D01*
X165894925Y-90118955D01*
X165894913Y-90118954D01*
X165894910Y-90118954D01*
X165697963Y-90121531D01*
X165697938Y-90121534D01*
X165505290Y-90162483D01*
X165505271Y-90162487D01*
X165324281Y-90240248D01*
X165161946Y-90351818D01*
X165132284Y-90382266D01*
X165605855Y-90689806D01*
X165651358Y-90742827D01*
X165660972Y-90812032D01*
X165631645Y-90875449D01*
X165621295Y-90885949D01*
X165596476Y-90908297D01*
X165579433Y-90923643D01*
X165536411Y-90989891D01*
X165519002Y-91043466D01*
X165479566Y-91101140D01*
X165415207Y-91128338D01*
X165346361Y-91116423D01*
X165333538Y-91109141D01*
X164859967Y-90801599D01*
X164844216Y-90841079D01*
X164844216Y-90841080D01*
X164844213Y-90841092D01*
X164808321Y-91034741D01*
X164808319Y-91034757D01*
X164808318Y-91034764D01*
X160940835Y-91034764D01*
X159513414Y-88791256D01*
X159503780Y-88772878D01*
X159503523Y-88772269D01*
X159503519Y-88772261D01*
X159469177Y-88721583D01*
X159468199Y-88720117D01*
X159467260Y-88718688D01*
X159466270Y-88717158D01*
X159446340Y-88685834D01*
X159433367Y-88665444D01*
X159433365Y-88665442D01*
X159431324Y-88662836D01*
X159429653Y-88660935D01*
X159423127Y-88652854D01*
X159416946Y-88644508D01*
X159355929Y-88554466D01*
X159221833Y-88356582D01*
X157508371Y-85828041D01*
X157504631Y-85822172D01*
X157501021Y-85816139D01*
X157497615Y-85810061D01*
X157496617Y-85808157D01*
X156915843Y-84699999D01*
X157350000Y-84699999D01*
X157492593Y-84699999D01*
X157492604Y-84699999D01*
X157492625Y-84699998D01*
X157527756Y-84697234D01*
X157678189Y-84653530D01*
X157813019Y-84573792D01*
X157813028Y-84573785D01*
X157923785Y-84463028D01*
X157923792Y-84463019D01*
X158003530Y-84328189D01*
X158003532Y-84328185D01*
X158047233Y-84177759D01*
X158047234Y-84177754D01*
X158049998Y-84142636D01*
X158350001Y-84142636D01*
X158352764Y-84177753D01*
X158395816Y-84325942D01*
X158396333Y-84327859D01*
X158396470Y-84328191D01*
X158462609Y-84440027D01*
X158476207Y-84463019D01*
X158476214Y-84463028D01*
X158586971Y-84573785D01*
X158586980Y-84573792D01*
X158721810Y-84653530D01*
X158872240Y-84697233D01*
X158872241Y-84697233D01*
X158872244Y-84697234D01*
X158907372Y-84699998D01*
X158907385Y-84699999D01*
X159049999Y-84699999D01*
X159550000Y-84699999D01*
X159692593Y-84699999D01*
X159692604Y-84699999D01*
X159692625Y-84699998D01*
X159727756Y-84697234D01*
X159878189Y-84653530D01*
X160013019Y-84573792D01*
X160013028Y-84573785D01*
X160123785Y-84463028D01*
X160123792Y-84463019D01*
X160203530Y-84328189D01*
X160203532Y-84328185D01*
X160247233Y-84177759D01*
X160247234Y-84177754D01*
X160249999Y-84142620D01*
X160250000Y-84142607D01*
X160250000Y-84050000D01*
X159550000Y-84050000D01*
X159550000Y-84699999D01*
X159049999Y-84699999D01*
X159050000Y-84699998D01*
X159050000Y-84050000D01*
X158350001Y-84050000D01*
X158350001Y-84142636D01*
X158049998Y-84142636D01*
X158049999Y-84142620D01*
X158050000Y-84142607D01*
X158050000Y-84050000D01*
X157350000Y-84050000D01*
X157350000Y-84699999D01*
X156915843Y-84699999D01*
X156871149Y-84614720D01*
X156860576Y-84586806D01*
X156853593Y-84558441D01*
X156850000Y-84528805D01*
X156850000Y-83550000D01*
X157350000Y-83550000D01*
X158049999Y-83550000D01*
X158049999Y-83457384D01*
X158049998Y-83457371D01*
X158350000Y-83457371D01*
X158350000Y-83457374D01*
X158350000Y-83457379D01*
X158350000Y-83550000D01*
X159050000Y-83550000D01*
X159050000Y-82900000D01*
X158907379Y-82900000D01*
X158872245Y-82902764D01*
X158721809Y-82946469D01*
X158721808Y-82946469D01*
X158586982Y-83026205D01*
X158586970Y-83026214D01*
X158476214Y-83136970D01*
X158476205Y-83136982D01*
X158396469Y-83271808D01*
X158396469Y-83271809D01*
X158352764Y-83422244D01*
X158350000Y-83457371D01*
X158049998Y-83457371D01*
X158047603Y-83426932D01*
X158047234Y-83422243D01*
X158003530Y-83271810D01*
X158001242Y-83267942D01*
X157948727Y-83179143D01*
X157923792Y-83136980D01*
X157923785Y-83136971D01*
X157813028Y-83026214D01*
X157813019Y-83026207D01*
X157787063Y-83010857D01*
X157678189Y-82946469D01*
X157527753Y-82902764D01*
X157527754Y-82902764D01*
X157492627Y-82900000D01*
X157492620Y-82900000D01*
X157350000Y-82900000D01*
X157350000Y-83550000D01*
X156850000Y-83550000D01*
X156850000Y-82947700D01*
X156850000Y-82939113D01*
X156722910Y-82898388D01*
X156719444Y-82897043D01*
X156716146Y-82894506D01*
X156704712Y-82888941D01*
X156704672Y-82889027D01*
X156697784Y-82885779D01*
X156696585Y-82884987D01*
X156694729Y-82884084D01*
X156687988Y-82879515D01*
X156688084Y-82879372D01*
X156668285Y-82866297D01*
X156667087Y-82865232D01*
X156630062Y-82805980D01*
X156628306Y-82798913D01*
X156627655Y-82795921D01*
X156626155Y-82789025D01*
X156623322Y-82762669D01*
X156623322Y-81537622D01*
X157544237Y-81537622D01*
X157574494Y-81689726D01*
X157574495Y-81689732D01*
X157574502Y-81689753D01*
X157623529Y-81808118D01*
X157623534Y-81808128D01*
X157694724Y-81914670D01*
X157694725Y-81914671D01*
X157694730Y-81914677D01*
X157785321Y-82005268D01*
X157785327Y-82005273D01*
X157785331Y-82005276D01*
X157891866Y-82076461D01*
X157891875Y-82076466D01*
X157898300Y-82079127D01*
X157900962Y-82080230D01*
X158004644Y-82123177D01*
X158009050Y-82125261D01*
X158010260Y-82125501D01*
X158010261Y-82125502D01*
X158035155Y-82130454D01*
X158135927Y-82150500D01*
X158264071Y-82150500D01*
X158264072Y-82150500D01*
X158320158Y-82139343D01*
X158364839Y-82130455D01*
X158389744Y-82125501D01*
X158508127Y-82076465D01*
X158614669Y-82005276D01*
X158705276Y-81914669D01*
X158776465Y-81808127D01*
X158825501Y-81689744D01*
X158833963Y-81647206D01*
X158835597Y-81638991D01*
X158835597Y-81638989D01*
X158850500Y-81564072D01*
X158850500Y-81435925D01*
X158825262Y-81309055D01*
X158823176Y-81304644D01*
X158776465Y-81191875D01*
X158776465Y-81191873D01*
X158776464Y-81191872D01*
X158776463Y-81191870D01*
X158776463Y-81191869D01*
X158705274Y-81085328D01*
X158705273Y-81085327D01*
X158705268Y-81085321D01*
X158614677Y-80994730D01*
X158614671Y-80994725D01*
X158614670Y-80994724D01*
X158508127Y-80923534D01*
X158508128Y-80923534D01*
X158508118Y-80923529D01*
X158389753Y-80874502D01*
X158389733Y-80874495D01*
X158389725Y-80874493D01*
X158264074Y-80849500D01*
X158264071Y-80849500D01*
X158264069Y-80849500D01*
X158135931Y-80849500D01*
X158135929Y-80849500D01*
X158135926Y-80849500D01*
X158010273Y-80874493D01*
X158010265Y-80874495D01*
X158010245Y-80874502D01*
X157891880Y-80923529D01*
X157891870Y-80923534D01*
X157785328Y-80994724D01*
X157785327Y-80994725D01*
X157785321Y-80994730D01*
X157694730Y-81085321D01*
X157694725Y-81085327D01*
X157694724Y-81085328D01*
X157623534Y-81191870D01*
X157623529Y-81191880D01*
X157574502Y-81310245D01*
X157574495Y-81310265D01*
X157574493Y-81310273D01*
X157549500Y-81435923D01*
X157549500Y-81519702D01*
X157544237Y-81537622D01*
X156623322Y-81537622D01*
X156623322Y-79453610D01*
X156628344Y-79418677D01*
X156635756Y-79393432D01*
X156667050Y-79340690D01*
X157010237Y-78997504D01*
X157355909Y-78651830D01*
X157384158Y-78630684D01*
X157386310Y-78629508D01*
X157396338Y-78624032D01*
X157464610Y-78609180D01*
X157530063Y-78633587D01*
X157532225Y-78635205D01*
X157568562Y-78678481D01*
X157573435Y-78688108D01*
X157577362Y-78696657D01*
X157623529Y-78808118D01*
X157623534Y-78808128D01*
X157694724Y-78914670D01*
X157694725Y-78914671D01*
X157694730Y-78914677D01*
X157785321Y-79005268D01*
X157785327Y-79005273D01*
X157785328Y-79005274D01*
X157891869Y-79076463D01*
X157891872Y-79076464D01*
X157891873Y-79076465D01*
X158004651Y-79123179D01*
X158009053Y-79125261D01*
X158010252Y-79125499D01*
X158010256Y-79125501D01*
X158010259Y-79125501D01*
X158010260Y-79125501D01*
X158010261Y-79125502D01*
X158107899Y-79144924D01*
X158135927Y-79150500D01*
X158264071Y-79150500D01*
X158264073Y-79150500D01*
X158348615Y-79133682D01*
X158389744Y-79125501D01*
X158508127Y-79076465D01*
X158614669Y-79005276D01*
X158705276Y-78914669D01*
X158721180Y-78890867D01*
X159489500Y-78890867D01*
X159489500Y-79609123D01*
X159492363Y-79633818D01*
X159492368Y-79633834D01*
X159492371Y-79633841D01*
X159536985Y-79734884D01*
X159536988Y-79734888D01*
X159536989Y-79734890D01*
X159536990Y-79734891D01*
X159615109Y-79813010D01*
X159716173Y-79857634D01*
X159740877Y-79860500D01*
X160809122Y-79860499D01*
X160833827Y-79857634D01*
X160833831Y-79857632D01*
X160833833Y-79857632D01*
X160842831Y-79855185D01*
X160842937Y-79855575D01*
X160864768Y-79849461D01*
X160880264Y-79847431D01*
X160949289Y-79858239D01*
X160960626Y-79863589D01*
X160995379Y-79888045D01*
X161596093Y-80488759D01*
X161596114Y-80488781D01*
X161597157Y-80489824D01*
X161601487Y-80494154D01*
X161601488Y-80494155D01*
X161705845Y-80598512D01*
X161827714Y-80668873D01*
X161833655Y-80672303D01*
X161909985Y-80692755D01*
X161926657Y-80697223D01*
X161959100Y-80711116D01*
X161970947Y-80718337D01*
X162017946Y-80770037D01*
X162029539Y-80838894D01*
X162029347Y-80840505D01*
X162008907Y-80895336D01*
X162006096Y-80899489D01*
X161991088Y-80917664D01*
X161317246Y-81591507D01*
X161231510Y-81677242D01*
X161231506Y-81677248D01*
X161211406Y-81712063D01*
X161189588Y-81739805D01*
X161183335Y-81745768D01*
X161177814Y-81751032D01*
X161115710Y-81783047D01*
X161057305Y-81780262D01*
X161046409Y-81777062D01*
X160993669Y-81745768D01*
X160975400Y-81727499D01*
X160934894Y-81686992D01*
X160934887Y-81686987D01*
X160933410Y-81686335D01*
X160933407Y-81686335D01*
X160932417Y-81685898D01*
X160901547Y-81672267D01*
X160833829Y-81642366D01*
X160833830Y-81642366D01*
X160809126Y-81639500D01*
X160809123Y-81639500D01*
X159740885Y-81639500D01*
X159740875Y-81639500D01*
X159716180Y-81642363D01*
X159716164Y-81642368D01*
X159716157Y-81642371D01*
X159615114Y-81686985D01*
X159615109Y-81686989D01*
X159536989Y-81765108D01*
X159492365Y-81866169D01*
X159491795Y-81868874D01*
X159491540Y-81873287D01*
X159489500Y-81890867D01*
X159489500Y-82609123D01*
X159492363Y-82633818D01*
X159492367Y-82633831D01*
X159525469Y-82708800D01*
X159526131Y-82713859D01*
X159531847Y-82724327D01*
X159536447Y-82733663D01*
X159537109Y-82735164D01*
X159543071Y-82744883D01*
X159554403Y-82765636D01*
X159569256Y-82833903D01*
X159569127Y-82835708D01*
X159550867Y-82890576D01*
X159550000Y-82893531D01*
X159550000Y-82893532D01*
X159550000Y-83550000D01*
X160249999Y-83550000D01*
X160249999Y-83457396D01*
X160249998Y-83457374D01*
X160247234Y-83422243D01*
X160203530Y-83271810D01*
X160201242Y-83267942D01*
X160148727Y-83179143D01*
X160123792Y-83136980D01*
X160123785Y-83136971D01*
X160071601Y-83084787D01*
X160050452Y-83056537D01*
X160050206Y-83056086D01*
X160045030Y-83046607D01*
X160030177Y-82978337D01*
X160054591Y-82912872D01*
X160110521Y-82871000D01*
X160114400Y-82869553D01*
X160117736Y-82868310D01*
X160161050Y-82860499D01*
X160809120Y-82860499D01*
X160809122Y-82860499D01*
X160817083Y-82859575D01*
X160817083Y-82859581D01*
X160817104Y-82859572D01*
X160826732Y-82858456D01*
X160832450Y-82858126D01*
X160833060Y-82858027D01*
X160835679Y-82856816D01*
X160905433Y-82826016D01*
X160920580Y-82824033D01*
X160946627Y-82809810D01*
X160946628Y-82809811D01*
X160953393Y-82806116D01*
X161021665Y-82791265D01*
X161087130Y-82815682D01*
X161129000Y-82871614D01*
X161131682Y-82878803D01*
X161139500Y-82922137D01*
X161139500Y-84827438D01*
X161139344Y-84832295D01*
X161139373Y-84832296D01*
X161139308Y-84834402D01*
X161139379Y-84858824D01*
X161138731Y-84871847D01*
X161137323Y-84885552D01*
X161136969Y-84890159D01*
X161136968Y-84890161D01*
X161139352Y-84934201D01*
X161139483Y-84937379D01*
X161139573Y-84940546D01*
X161139622Y-84943712D01*
X161139748Y-84987735D01*
X161139749Y-84987745D01*
X161140374Y-84992389D01*
X161142549Y-85005918D01*
X161143940Y-85018893D01*
X161157227Y-85264240D01*
X161157388Y-85273162D01*
X161157229Y-85282057D01*
X161156749Y-85290969D01*
X161155491Y-85304919D01*
X161155500Y-85305069D01*
X161155760Y-85306461D01*
X161156542Y-85310963D01*
X161159342Y-85327097D01*
X161160376Y-85334310D01*
X161161201Y-85341575D01*
X161161810Y-85348839D01*
X161162859Y-85368206D01*
X161163028Y-85371323D01*
X161163030Y-85371335D01*
X161167378Y-85384634D01*
X161169842Y-85393205D01*
X161171240Y-85398822D01*
X161171993Y-85401846D01*
X161173836Y-85410582D01*
X161207807Y-85606264D01*
X161209087Y-85615843D01*
X161209991Y-85625438D01*
X161210522Y-85635069D01*
X161210685Y-85645229D01*
X161210765Y-85645692D01*
X161211435Y-85647860D01*
X161217913Y-85670571D01*
X161219549Y-85676941D01*
X161221016Y-85683356D01*
X161222308Y-85689786D01*
X161226809Y-85715713D01*
X161226815Y-85715735D01*
X161231076Y-85724937D01*
X161234789Y-85733849D01*
X161238150Y-85742894D01*
X161241159Y-85752072D01*
X161247313Y-85773647D01*
X161249936Y-85784761D01*
X161252039Y-85795953D01*
X161253628Y-85807245D01*
X161253713Y-85808152D01*
X161253714Y-85808158D01*
X161266085Y-85841496D01*
X161267658Y-85846000D01*
X161268450Y-85848414D01*
X161269161Y-85850584D01*
X161270569Y-85855180D01*
X161280168Y-85888835D01*
X161280322Y-85889386D01*
X161280782Y-85890153D01*
X161286206Y-85900235D01*
X161291130Y-85910496D01*
X161295585Y-85920991D01*
X161300051Y-85933024D01*
X161303195Y-85942698D01*
X161305932Y-85952467D01*
X161308272Y-85962363D01*
X161309682Y-85969654D01*
X161309683Y-85969655D01*
X161309685Y-85969662D01*
X161322403Y-85995798D01*
X161324915Y-86001297D01*
X161327289Y-86006848D01*
X161329526Y-86012452D01*
X161331866Y-86018757D01*
X161332126Y-86019456D01*
X161339650Y-86039729D01*
X161339651Y-86039731D01*
X161339651Y-86039732D01*
X161343955Y-86045798D01*
X161349494Y-86054325D01*
X161354662Y-86063044D01*
X161359491Y-86072011D01*
X161384272Y-86122935D01*
X161388934Y-86132514D01*
X161392620Y-86140857D01*
X161396000Y-86149340D01*
X161399060Y-86157925D01*
X161402944Y-86170239D01*
X161402949Y-86170249D01*
X161415635Y-86190160D01*
X161419277Y-86196254D01*
X161422735Y-86202436D01*
X161426013Y-86208711D01*
X161428177Y-86213157D01*
X161436337Y-86229925D01*
X161436339Y-86229928D01*
X161436341Y-86229932D01*
X161436343Y-86229934D01*
X161437066Y-86230938D01*
X161439211Y-86233240D01*
X161444800Y-86239681D01*
X161450538Y-86246808D01*
X161455990Y-86254117D01*
X161461171Y-86261624D01*
X161496171Y-86316553D01*
X161501013Y-86324843D01*
X161505531Y-86333316D01*
X161509727Y-86341981D01*
X161513894Y-86351512D01*
X161515556Y-86353948D01*
X161518206Y-86356910D01*
X161530184Y-86371904D01*
X161534172Y-86377178D01*
X161538010Y-86382546D01*
X161541712Y-86388028D01*
X161547263Y-86396739D01*
X161555737Y-86410036D01*
X161555740Y-86410041D01*
X161563418Y-86417075D01*
X161570248Y-86423838D01*
X161576789Y-86430837D01*
X161583075Y-86438108D01*
X161618820Y-86482852D01*
X161625028Y-86491337D01*
X161630864Y-86500070D01*
X161636320Y-86509032D01*
X161639055Y-86513987D01*
X161639057Y-86513990D01*
X161660434Y-86536206D01*
X161664297Y-86540410D01*
X161668063Y-86544703D01*
X161671708Y-86549055D01*
X161690979Y-86573177D01*
X161690981Y-86573179D01*
X161690984Y-86573181D01*
X161695513Y-86576518D01*
X161703708Y-86583109D01*
X161711605Y-86590032D01*
X161719218Y-86597300D01*
X161753615Y-86633049D01*
X161761305Y-86641835D01*
X161768555Y-86650950D01*
X161774727Y-86659512D01*
X161774768Y-86659485D01*
X161775107Y-86659994D01*
X161775122Y-86660016D01*
X161775126Y-86660022D01*
X161802629Y-86684705D01*
X161805953Y-86687800D01*
X161809207Y-86690943D01*
X161812380Y-86694122D01*
X161838030Y-86720780D01*
X161844597Y-86725610D01*
X161849303Y-86728497D01*
X161856683Y-86733958D01*
X161865747Y-86741355D01*
X161868411Y-86743747D01*
X161868412Y-86743747D01*
X161898037Y-86770335D01*
X161907191Y-86779455D01*
X161914486Y-86787523D01*
X161932712Y-86813843D01*
X161940201Y-86828364D01*
X161953436Y-86896964D01*
X161952815Y-86903488D01*
X161930815Y-86959380D01*
X161928484Y-86966245D01*
X161928484Y-86966246D01*
X161928484Y-86966247D01*
X162746579Y-87497523D01*
X162750277Y-87501832D01*
X162755552Y-87503935D01*
X162773146Y-87520767D01*
X162783325Y-87532629D01*
X162790659Y-87548886D01*
X162792082Y-87550544D01*
X162792382Y-87552705D01*
X162812038Y-87596275D01*
X162812288Y-87598070D01*
X162805446Y-87659064D01*
X162802708Y-87666299D01*
X162790730Y-87689945D01*
X162670453Y-87875157D01*
X162647214Y-87901720D01*
X162635351Y-87911901D01*
X162622088Y-87917882D01*
X162611577Y-87927935D01*
X162590889Y-87931953D01*
X162571670Y-87940621D01*
X162569877Y-87940870D01*
X162554105Y-87939099D01*
X162542989Y-87941259D01*
X162531085Y-87936513D01*
X162508909Y-87934023D01*
X162501670Y-87931283D01*
X162478030Y-87919307D01*
X161656166Y-87385581D01*
X161656164Y-87385582D01*
X161654972Y-87387779D01*
X161638715Y-87441625D01*
X161607504Y-87544999D01*
X161607503Y-87545000D01*
X161607503Y-87545004D01*
X161600627Y-87709069D01*
X161600627Y-87709079D01*
X161600628Y-87709090D01*
X161600629Y-87709095D01*
X161619352Y-87797178D01*
X161621703Y-87832391D01*
X161620514Y-87847978D01*
X161595787Y-87913326D01*
X161587576Y-87924187D01*
X161558896Y-87951599D01*
X161513731Y-87982639D01*
X161513722Y-87982648D01*
X161484068Y-88013088D01*
X161957639Y-88320628D01*
X162003142Y-88373649D01*
X162012756Y-88442854D01*
X161983429Y-88506271D01*
X161973078Y-88516771D01*
X161931219Y-88554462D01*
X161931216Y-88554466D01*
X161888197Y-88620709D01*
X161888192Y-88620718D01*
X161870786Y-88674288D01*
X161831348Y-88731963D01*
X161766989Y-88759160D01*
X161698143Y-88747245D01*
X161685321Y-88739963D01*
X161657018Y-88721583D01*
X161211750Y-88432422D01*
X161211749Y-88432422D01*
X161195998Y-88471903D01*
X161193991Y-88482348D01*
X161193922Y-88483107D01*
X161160256Y-88664755D01*
X161160107Y-88665528D01*
X161160100Y-88665598D01*
X161162679Y-88862538D01*
X161162679Y-88862546D01*
X161162683Y-88862569D01*
X161203631Y-89055215D01*
X161203635Y-89055234D01*
X161281393Y-89236217D01*
X161281395Y-89236221D01*
X161392967Y-89398559D01*
X161534064Y-89536008D01*
X161534067Y-89536011D01*
X161868266Y-89753043D01*
X162181979Y-89269966D01*
X162234999Y-89224465D01*
X162304204Y-89214851D01*
X162353508Y-89233508D01*
X162377484Y-89249078D01*
X162562308Y-89369104D01*
X162564854Y-89370757D01*
X162610357Y-89423778D01*
X162619972Y-89492983D01*
X162601314Y-89542287D01*
X162287602Y-90025361D01*
X162287603Y-90025361D01*
X162287603Y-90025362D01*
X162621807Y-90242397D01*
X162804664Y-90315349D01*
X162804686Y-90315367D01*
X162804765Y-90315390D01*
X162804767Y-90315391D01*
X162804769Y-90315391D01*
X162804771Y-90315392D01*
X162850263Y-90323822D01*
X162997719Y-90351151D01*
X162998403Y-90351283D01*
X162998452Y-90351287D01*
X162998456Y-90351288D01*
X162998459Y-90351287D01*
X162998460Y-90351288D01*
X163070076Y-90350350D01*
X163195413Y-90348709D01*
X163195421Y-90348708D01*
X163388090Y-90307755D01*
X163388099Y-90307753D01*
X163569076Y-90230000D01*
X163731423Y-90118421D01*
X163761080Y-90087977D01*
X163761080Y-90087976D01*
X163761080Y-90087975D01*
X163287511Y-89780436D01*
X163242008Y-89727415D01*
X163232394Y-89658210D01*
X163261721Y-89594793D01*
X163272066Y-89584299D01*
X163313934Y-89546600D01*
X163356957Y-89480351D01*
X163374364Y-89426776D01*
X163413800Y-89369104D01*
X163478159Y-89341905D01*
X163547005Y-89353819D01*
X163559829Y-89361102D01*
X164033398Y-89668642D01*
X164049148Y-89629166D01*
X164049148Y-89629164D01*
X164049150Y-89629160D01*
X164084903Y-89436249D01*
X164085042Y-89435531D01*
X164085048Y-89435467D01*
X164082469Y-89238526D01*
X164082469Y-89238518D01*
X164082469Y-89238517D01*
X164082468Y-89238508D01*
X164061991Y-89142172D01*
X164041518Y-89045850D01*
X164041516Y-89045843D01*
X164041515Y-89045837D01*
X164041512Y-89045827D01*
X164041511Y-89045824D01*
X164041510Y-89045821D01*
X164041508Y-89045817D01*
X163969531Y-88878283D01*
X163965624Y-88867942D01*
X163955515Y-88837087D01*
X163953349Y-88767251D01*
X163989282Y-88707331D01*
X163993943Y-88703032D01*
X164045923Y-88674405D01*
X164059652Y-88670727D01*
X164190882Y-88594961D01*
X164298032Y-88487811D01*
X164373798Y-88356581D01*
X164413017Y-88210212D01*
X164413017Y-88058680D01*
X164373798Y-87912311D01*
X164298032Y-87781081D01*
X164190882Y-87673931D01*
X164113856Y-87629460D01*
X164059651Y-87598164D01*
X164004354Y-87583347D01*
X163971915Y-87569457D01*
X163969109Y-87567747D01*
X163960062Y-87562232D01*
X163913063Y-87510535D01*
X163901474Y-87441637D01*
X163902306Y-87434681D01*
X163921436Y-87381870D01*
X163926604Y-87373914D01*
X163938219Y-87350499D01*
X163953557Y-87255541D01*
X163964087Y-87221856D01*
X163972807Y-87203609D01*
X164012374Y-87156345D01*
X164018904Y-87151658D01*
X164042262Y-87138463D01*
X164071324Y-87125979D01*
X164120196Y-87075811D01*
X164227159Y-86911103D01*
X164253112Y-86846051D01*
X164253111Y-86846048D01*
X164253465Y-86844143D01*
X164257686Y-86811778D01*
X164261893Y-86796724D01*
X164298893Y-86737457D01*
X164298920Y-86737433D01*
X164309068Y-86728404D01*
X164342544Y-86707115D01*
X164343643Y-86706644D01*
X164392515Y-86656476D01*
X164499478Y-86491768D01*
X164525431Y-86426716D01*
X164525430Y-86426713D01*
X164525783Y-86424811D01*
X164530005Y-86392442D01*
X164532018Y-86385241D01*
X164534212Y-86377387D01*
X164571212Y-86318121D01*
X164581387Y-86309068D01*
X164614873Y-86287776D01*
X164615963Y-86287308D01*
X164664835Y-86237140D01*
X164771798Y-86072432D01*
X164792938Y-86019445D01*
X164797750Y-86007383D01*
X164798104Y-86005472D01*
X164802325Y-85973107D01*
X164803289Y-85969660D01*
X164806532Y-85958052D01*
X164843532Y-85898786D01*
X164853707Y-85889733D01*
X164887183Y-85868444D01*
X164888282Y-85867973D01*
X164937154Y-85817805D01*
X165044117Y-85653097D01*
X165070070Y-85588045D01*
X165070069Y-85588042D01*
X165070423Y-85586137D01*
X165074644Y-85553772D01*
X165078851Y-85538718D01*
X165115851Y-85479451D01*
X165126026Y-85470398D01*
X165159512Y-85449106D01*
X165160602Y-85448638D01*
X165209474Y-85398470D01*
X165316437Y-85233762D01*
X165342390Y-85168710D01*
X165342389Y-85168707D01*
X165342743Y-85166802D01*
X165346964Y-85134437D01*
X165351171Y-85119383D01*
X165388171Y-85060116D01*
X165398346Y-85051063D01*
X165431832Y-85029771D01*
X165432922Y-85029303D01*
X165481794Y-84979135D01*
X165573059Y-84838596D01*
X165596296Y-84812037D01*
X165608160Y-84801855D01*
X165671847Y-84773136D01*
X165676057Y-84772551D01*
X165732686Y-84777852D01*
X165735980Y-84778961D01*
X165756066Y-84787771D01*
X165942653Y-84890165D01*
X165977867Y-84909489D01*
X165979808Y-84910554D01*
X165990154Y-84916910D01*
X165999163Y-84923072D01*
X166003760Y-84925999D01*
X166003774Y-84926005D01*
X166007318Y-84927949D01*
X166007115Y-84928317D01*
X166032638Y-84944995D01*
X166056654Y-84966130D01*
X166082120Y-84997215D01*
X166131503Y-85082747D01*
X166131506Y-85082751D01*
X166131508Y-85082754D01*
X166217246Y-85168492D01*
X166322253Y-85229118D01*
X166439374Y-85260500D01*
X166439376Y-85260500D01*
X166560624Y-85260500D01*
X166560626Y-85260500D01*
X166677747Y-85229118D01*
X166782754Y-85168492D01*
X166868492Y-85082754D01*
X166929118Y-84977747D01*
X166960500Y-84860626D01*
X166960500Y-84739374D01*
X166929118Y-84622253D01*
X166868492Y-84517246D01*
X166782754Y-84431508D01*
X166677747Y-84370882D01*
X166560626Y-84339500D01*
X166560625Y-84339500D01*
X166439365Y-84339500D01*
X166364016Y-84359689D01*
X166328973Y-84363879D01*
X166302180Y-84363241D01*
X166245477Y-84347983D01*
X166160917Y-84301579D01*
X166117326Y-84277657D01*
X166089114Y-84256444D01*
X166078346Y-84245630D01*
X166044992Y-84184236D01*
X166048693Y-84118577D01*
X166052363Y-84107677D01*
X166065886Y-84079710D01*
X166133393Y-83975759D01*
X166133394Y-83975758D01*
X166159347Y-83910707D01*
X166159347Y-83910706D01*
X166159348Y-83910704D01*
X166158990Y-83883412D01*
X166163553Y-83848422D01*
X166168997Y-83828940D01*
X166199824Y-83775560D01*
X166205450Y-83769815D01*
X166226174Y-83752799D01*
X166310319Y-83697787D01*
X166326986Y-83677653D01*
X166326990Y-83677647D01*
X166329105Y-83674769D01*
X166329271Y-83674891D01*
X166329272Y-83674891D01*
X166329279Y-83674897D01*
X166329445Y-83675019D01*
X166349781Y-83651764D01*
X166360324Y-83642715D01*
X166424010Y-83613993D01*
X166493117Y-83624260D01*
X166502598Y-83628644D01*
X166538231Y-83653510D01*
X166632166Y-83747445D01*
X166744597Y-83812357D01*
X166744602Y-83812362D01*
X166744603Y-83812361D01*
X166752678Y-83817024D01*
X166763392Y-83823209D01*
X166763394Y-83823210D01*
X166763396Y-83823211D01*
X166909765Y-83862430D01*
X166909767Y-83862430D01*
X167061295Y-83862430D01*
X167061297Y-83862430D01*
X167207666Y-83823211D01*
X167267524Y-83788652D01*
X169513999Y-83788652D01*
X169513999Y-83788665D01*
X169516576Y-83985605D01*
X169516579Y-83985630D01*
X169557528Y-84178278D01*
X169557532Y-84178297D01*
X169635293Y-84359287D01*
X169746861Y-84521621D01*
X169845680Y-84617884D01*
X169887966Y-84659076D01*
X170096364Y-84794412D01*
X170410077Y-84311336D01*
X170463097Y-84265835D01*
X170532302Y-84256221D01*
X170581606Y-84274878D01*
X170792951Y-84412127D01*
X170838454Y-84465148D01*
X170848068Y-84534353D01*
X170829411Y-84583657D01*
X170515698Y-85066732D01*
X170515699Y-85066732D01*
X170515699Y-85066733D01*
X170724101Y-85202071D01*
X170811217Y-85236827D01*
X170907039Y-85275057D01*
X170907043Y-85275058D01*
X170907050Y-85275061D01*
X170907065Y-85275065D01*
X171100737Y-85310962D01*
X171100749Y-85310963D01*
X171297705Y-85308385D01*
X171297713Y-85308384D01*
X171297721Y-85308382D01*
X171297723Y-85308382D01*
X171324935Y-85302597D01*
X171490384Y-85267431D01*
X171490388Y-85267430D01*
X171671378Y-85189670D01*
X171833715Y-85078099D01*
X171863376Y-85047651D01*
X171863376Y-85047650D01*
X171863375Y-85047649D01*
X171389807Y-84740110D01*
X171344304Y-84687089D01*
X171334690Y-84617884D01*
X171364017Y-84554467D01*
X171374358Y-84543976D01*
X171416230Y-84506275D01*
X171459252Y-84440027D01*
X171476660Y-84386451D01*
X171516097Y-84328777D01*
X171580455Y-84301579D01*
X171649302Y-84313494D01*
X171662120Y-84320773D01*
X171802792Y-84412127D01*
X172126356Y-84622253D01*
X172135693Y-84628316D01*
X172135695Y-84628315D01*
X172151443Y-84588844D01*
X172151447Y-84588830D01*
X172187343Y-84395161D01*
X172187344Y-84395149D01*
X172184766Y-84198193D01*
X172184765Y-84198185D01*
X172183101Y-84190358D01*
X172159798Y-84080725D01*
X172143812Y-84005514D01*
X172143811Y-84005510D01*
X172140841Y-83998598D01*
X172099232Y-83901751D01*
X172066051Y-83824520D01*
X172055351Y-83808951D01*
X171954481Y-83662183D01*
X171813381Y-83524732D01*
X171813378Y-83524730D01*
X171813377Y-83524729D01*
X171604977Y-83389391D01*
X171604975Y-83389391D01*
X171291264Y-83872464D01*
X171238243Y-83917967D01*
X171169038Y-83927581D01*
X171119734Y-83908924D01*
X170908389Y-83771675D01*
X170862886Y-83718654D01*
X170853272Y-83649449D01*
X170871927Y-83600148D01*
X171185643Y-83117071D01*
X171185641Y-83117070D01*
X171185642Y-83117070D01*
X170977242Y-82981734D01*
X170794303Y-82908747D01*
X170794290Y-82908743D01*
X170794284Y-82908741D01*
X170794278Y-82908740D01*
X170759724Y-82902335D01*
X170600616Y-82872844D01*
X170600607Y-82872843D01*
X170600606Y-82872843D01*
X170600594Y-82872842D01*
X170600591Y-82872842D01*
X170403644Y-82875419D01*
X170403619Y-82875422D01*
X170210971Y-82916371D01*
X170210952Y-82916375D01*
X170029962Y-82994136D01*
X169867627Y-83105706D01*
X169837965Y-83136154D01*
X170311536Y-83443694D01*
X170357039Y-83496715D01*
X170366653Y-83565920D01*
X170337326Y-83629337D01*
X170326976Y-83639837D01*
X170302157Y-83662185D01*
X170288182Y-83674769D01*
X170285113Y-83677532D01*
X170242093Y-83743777D01*
X170242092Y-83743779D01*
X170224683Y-83797354D01*
X170185247Y-83855028D01*
X170120888Y-83882226D01*
X170052042Y-83870311D01*
X170039219Y-83863029D01*
X169565648Y-83555487D01*
X169549897Y-83594967D01*
X169549897Y-83594968D01*
X169549894Y-83594980D01*
X169514002Y-83788629D01*
X169514000Y-83788645D01*
X169513999Y-83788652D01*
X167267524Y-83788652D01*
X167338896Y-83747445D01*
X167446046Y-83640295D01*
X167521812Y-83509065D01*
X167561031Y-83362696D01*
X167561031Y-83245574D01*
X167566053Y-83210641D01*
X167569964Y-83197322D01*
X167607737Y-83138545D01*
X167671291Y-83109520D01*
X167693280Y-83106358D01*
X167709302Y-83105106D01*
X167901094Y-83102595D01*
X167901102Y-83102594D01*
X168093771Y-83061641D01*
X168093780Y-83061639D01*
X168274756Y-82983886D01*
X168274757Y-82983885D01*
X168274793Y-82983859D01*
X168283559Y-82977920D01*
X168284142Y-82977434D01*
X168437104Y-82872307D01*
X168466761Y-82841863D01*
X168466761Y-82841862D01*
X168466761Y-82841861D01*
X167993192Y-82534323D01*
X167947689Y-82481302D01*
X167938075Y-82412097D01*
X167967402Y-82348680D01*
X167977754Y-82338179D01*
X167987065Y-82329794D01*
X168019615Y-82300486D01*
X168062638Y-82234237D01*
X168080045Y-82180662D01*
X168119481Y-82122990D01*
X168183840Y-82095791D01*
X168252686Y-82107705D01*
X168265510Y-82114988D01*
X168739079Y-82422528D01*
X168754829Y-82383052D01*
X168754829Y-82383050D01*
X168754831Y-82383046D01*
X168790584Y-82190135D01*
X168790723Y-82189417D01*
X168790729Y-82189353D01*
X168788616Y-82027976D01*
X168788150Y-81992403D01*
X168788149Y-81992394D01*
X168761319Y-81866169D01*
X168747199Y-81799736D01*
X168747197Y-81799729D01*
X168747196Y-81799723D01*
X168747193Y-81799713D01*
X168669441Y-81618737D01*
X168557864Y-81456392D01*
X168552662Y-81451325D01*
X168416768Y-81318945D01*
X168416764Y-81318941D01*
X168082563Y-81101907D01*
X168082562Y-81101907D01*
X167768848Y-81584981D01*
X167715826Y-81630484D01*
X167646621Y-81640097D01*
X167597318Y-81621440D01*
X167385973Y-81484192D01*
X167340470Y-81431171D01*
X167330855Y-81361966D01*
X167349513Y-81312662D01*
X167351065Y-81310273D01*
X167663226Y-80829588D01*
X167329024Y-80612555D01*
X167180637Y-80553354D01*
X167150054Y-80535746D01*
X167139131Y-80527176D01*
X167098537Y-80470313D01*
X167095128Y-80400531D01*
X167096299Y-80395676D01*
X167129157Y-80337085D01*
X167465310Y-80000932D01*
X167465317Y-80000928D01*
X167482753Y-79983492D01*
X167482754Y-79983492D01*
X167568492Y-79897754D01*
X167608364Y-79828692D01*
X167611506Y-79825696D01*
X167611470Y-79825674D01*
X167635315Y-79786514D01*
X167642385Y-79774902D01*
X167694063Y-79727881D01*
X167762960Y-79716263D01*
X167827199Y-79743737D01*
X167833444Y-79748888D01*
X167861269Y-79781421D01*
X167906700Y-79858242D01*
X167932314Y-79901552D01*
X167932321Y-79901561D01*
X168048438Y-80017678D01*
X168048447Y-80017685D01*
X168189801Y-80101281D01*
X168254408Y-80120050D01*
X168289660Y-80142563D01*
X168347509Y-80147098D01*
X168347514Y-80147100D01*
X168347511Y-80147100D01*
X168349998Y-80147295D01*
X168350000Y-80147295D01*
X168850000Y-80147295D01*
X168850001Y-80147295D01*
X168850003Y-80147295D01*
X168850003Y-80147294D01*
X168852486Y-80147100D01*
X169010198Y-80101281D01*
X169151552Y-80017685D01*
X169151561Y-80017678D01*
X169267678Y-79901561D01*
X169267685Y-79901552D01*
X169351282Y-79760196D01*
X169351283Y-79760193D01*
X169397099Y-79602495D01*
X169397100Y-79602489D01*
X169399999Y-79565649D01*
X169400000Y-79565634D01*
X169400000Y-79550000D01*
X168850000Y-79550000D01*
X168850000Y-80147295D01*
X168350000Y-80147295D01*
X168350000Y-80147294D01*
X168350000Y-79441829D01*
X168355023Y-79406893D01*
X168359427Y-79391895D01*
X168369069Y-79376886D01*
X168369685Y-79374790D01*
X168371334Y-79373360D01*
X168397172Y-79333144D01*
X168398541Y-79331957D01*
X168453420Y-79304477D01*
X168460979Y-79302833D01*
X168487332Y-79300000D01*
X168600000Y-79300000D01*
X168600000Y-79191829D01*
X168605023Y-79156893D01*
X168609427Y-79141895D01*
X168647172Y-79083144D01*
X168648541Y-79081957D01*
X168703420Y-79054477D01*
X168710979Y-79052833D01*
X168737332Y-79050000D01*
X169400000Y-79050000D01*
X169400000Y-79034369D01*
X169400000Y-79034365D01*
X169399999Y-79034350D01*
X169397100Y-78997510D01*
X169397099Y-78997504D01*
X169366119Y-78890873D01*
X169351291Y-78839833D01*
X169351289Y-78839828D01*
X169351283Y-78839806D01*
X169351282Y-78839803D01*
X169332547Y-78808124D01*
X169267688Y-78698452D01*
X169267685Y-78698447D01*
X169267676Y-78698436D01*
X169151562Y-78582322D01*
X169151551Y-78582313D01*
X169151546Y-78582310D01*
X169010199Y-78498718D01*
X169010196Y-78498717D01*
X169010165Y-78498707D01*
X168875540Y-78459595D01*
X168843394Y-78445026D01*
X168833861Y-78438938D01*
X168787956Y-78386265D01*
X168777814Y-78317135D01*
X168806624Y-78253536D01*
X168806957Y-78253148D01*
X168808314Y-78251573D01*
X168863286Y-78214764D01*
X168876299Y-78210453D01*
X168876311Y-78210448D01*
X169007148Y-78129746D01*
X169023018Y-78119957D01*
X169023019Y-78119956D01*
X169023034Y-78119947D01*
X169023038Y-78119944D01*
X169144944Y-77998038D01*
X169144947Y-77998034D01*
X169145697Y-77996819D01*
X169152783Y-77985329D01*
X169235448Y-77851311D01*
X169235453Y-77851300D01*
X169289680Y-77687652D01*
X169299999Y-77586654D01*
X169300000Y-77586641D01*
X169300000Y-77550000D01*
X168404330Y-77550000D01*
X168369389Y-77544975D01*
X168354390Y-77540570D01*
X168295644Y-77502827D01*
X168294457Y-77501458D01*
X168266977Y-77446583D01*
X168265332Y-77439021D01*
X168262500Y-77412668D01*
X168262500Y-77300000D01*
X168154330Y-77300000D01*
X168119389Y-77294975D01*
X168104390Y-77290570D01*
X168045644Y-77252827D01*
X168044457Y-77251458D01*
X168016977Y-77196583D01*
X168015332Y-77189021D01*
X168012500Y-77162668D01*
X168012500Y-77050000D01*
X168512500Y-77050000D01*
X169299999Y-77050000D01*
X169299999Y-77013360D01*
X169299998Y-77013345D01*
X169289680Y-76912347D01*
X169235453Y-76748699D01*
X169235448Y-76748688D01*
X169176121Y-76652505D01*
X169144957Y-76601980D01*
X169144952Y-76601973D01*
X169144947Y-76601965D01*
X169144944Y-76601961D01*
X169144940Y-76601957D01*
X169144939Y-76601955D01*
X169023043Y-76480059D01*
X169023040Y-76480057D01*
X169023038Y-76480055D01*
X169023034Y-76480052D01*
X169023028Y-76480048D01*
X169023018Y-76480041D01*
X168895615Y-76401458D01*
X168876311Y-76389551D01*
X168876309Y-76389550D01*
X168876295Y-76389543D01*
X168712650Y-76335318D01*
X168611659Y-76325000D01*
X168611654Y-76325000D01*
X168512500Y-76325000D01*
X168512500Y-77050000D01*
X168012500Y-77050000D01*
X168012500Y-76324998D01*
X167913368Y-76324999D01*
X167913348Y-76325000D01*
X167913344Y-76325001D01*
X167913335Y-76325001D01*
X167913334Y-76325002D01*
X167812345Y-76335319D01*
X167648701Y-76389545D01*
X167648689Y-76389550D01*
X167648686Y-76389552D01*
X167501980Y-76480041D01*
X167501958Y-76480057D01*
X167501955Y-76480059D01*
X167380057Y-76601957D01*
X167380040Y-76601982D01*
X167303793Y-76725598D01*
X167281181Y-76752693D01*
X167270863Y-76761974D01*
X167207856Y-76792172D01*
X167138527Y-76783513D01*
X167129801Y-76779722D01*
X167091528Y-76753670D01*
X167074359Y-76736501D01*
X167074356Y-76736499D01*
X167074355Y-76736498D01*
X167035840Y-76716873D01*
X167002862Y-76685727D01*
X166868834Y-76664500D01*
X166868828Y-76664500D01*
X166206178Y-76664500D01*
X166206173Y-76664500D01*
X166113347Y-76679202D01*
X166112985Y-76679258D01*
X166112976Y-76679261D01*
X166000638Y-76736501D01*
X165911504Y-76825635D01*
X165911500Y-76825641D01*
X165854258Y-76937981D01*
X165854257Y-76937985D01*
X165839500Y-77031165D01*
X165839500Y-77568825D01*
X165846119Y-77610614D01*
X165851923Y-77647261D01*
X165852821Y-77652931D01*
X165854260Y-77662021D01*
X165911331Y-77774027D01*
X165911495Y-77774353D01*
X165928074Y-77790932D01*
X165949223Y-77819182D01*
X165961830Y-77842268D01*
X165977000Y-77901699D01*
X165977000Y-78061141D01*
X165971976Y-78096078D01*
X165964564Y-78121319D01*
X165959563Y-78129746D01*
X165958401Y-78137853D01*
X165946813Y-78151235D01*
X165933269Y-78174063D01*
X164566760Y-79540573D01*
X164538509Y-79561722D01*
X164515421Y-79574330D01*
X164455991Y-79589500D01*
X162351358Y-79589500D01*
X162316422Y-79584477D01*
X162291180Y-79577065D01*
X162238435Y-79545769D01*
X161609920Y-78917254D01*
X161609911Y-78917244D01*
X161558836Y-78866169D01*
X161494156Y-78801489D01*
X161494155Y-78801488D01*
X161366345Y-78727697D01*
X161366344Y-78727696D01*
X161366340Y-78727695D01*
X161317933Y-78714724D01*
X161280731Y-78704756D01*
X161244791Y-78695126D01*
X161244790Y-78695125D01*
X161223798Y-78689501D01*
X161223794Y-78689500D01*
X161223792Y-78689500D01*
X161223791Y-78689500D01*
X161223789Y-78689500D01*
X160979670Y-78689500D01*
X160975953Y-78688408D01*
X160954072Y-78686829D01*
X160929297Y-78681602D01*
X160904810Y-78673708D01*
X160874897Y-78660500D01*
X160874895Y-78660498D01*
X160833828Y-78642366D01*
X160809128Y-78639500D01*
X160809126Y-78639500D01*
X159829716Y-78639500D01*
X159829707Y-78639500D01*
X159740878Y-78639501D01*
X159716173Y-78642366D01*
X159686185Y-78655606D01*
X159686183Y-78655607D01*
X159686182Y-78655607D01*
X159686177Y-78655608D01*
X159615110Y-78686988D01*
X159536989Y-78765108D01*
X159492365Y-78866169D01*
X159491795Y-78868874D01*
X159491540Y-78873287D01*
X159489500Y-78890867D01*
X158721180Y-78890867D01*
X158776465Y-78808127D01*
X158825501Y-78689744D01*
X158835550Y-78639228D01*
X158846871Y-78582314D01*
X158850500Y-78564073D01*
X158850500Y-78435925D01*
X158825130Y-78308391D01*
X158823176Y-78304644D01*
X158776465Y-78191873D01*
X158776464Y-78191871D01*
X158776458Y-78191861D01*
X158760654Y-78168209D01*
X158745424Y-78136372D01*
X158741355Y-78123375D01*
X158740111Y-78053516D01*
X158776833Y-77994075D01*
X158832271Y-77965397D01*
X158834389Y-77964917D01*
X158896740Y-77966868D01*
X158917396Y-77972934D01*
X158970141Y-78004229D01*
X159228952Y-78263041D01*
X159228955Y-78263044D01*
X159337129Y-78335323D01*
X159337133Y-78335325D01*
X159337136Y-78335327D01*
X159457339Y-78385118D01*
X159582011Y-78409916D01*
X159584210Y-78410409D01*
X159584943Y-78410500D01*
X159584945Y-78410500D01*
X159584946Y-78410500D01*
X159646535Y-78410500D01*
X159646544Y-78410500D01*
X159715054Y-78410500D01*
X159842661Y-78385118D01*
X159868034Y-78374608D01*
X159891281Y-78367556D01*
X159914784Y-78362882D01*
X159938970Y-78360500D01*
X160353403Y-78360500D01*
X160353435Y-78360499D01*
X160809120Y-78360499D01*
X160809122Y-78360499D01*
X160817083Y-78359575D01*
X160817083Y-78359581D01*
X160817104Y-78359572D01*
X160826732Y-78358456D01*
X160832450Y-78358126D01*
X160833060Y-78358027D01*
X160835675Y-78356817D01*
X160934891Y-78313010D01*
X161013010Y-78234891D01*
X161057634Y-78133827D01*
X161060500Y-78109123D01*
X161060499Y-77390878D01*
X161058647Y-77374905D01*
X161058647Y-77374904D01*
X161058462Y-77373308D01*
X161058195Y-77368698D01*
X161057778Y-77366821D01*
X161057640Y-77366187D01*
X161056895Y-77364499D01*
X161056888Y-77364483D01*
X161013010Y-77265109D01*
X160934893Y-77186992D01*
X160934891Y-77186990D01*
X160905261Y-77173907D01*
X160833830Y-77142366D01*
X160809128Y-77139500D01*
X160809126Y-77139500D01*
X160809123Y-77139500D01*
X160335131Y-77139500D01*
X160335129Y-77139500D01*
X160164506Y-77139500D01*
X160129571Y-77134477D01*
X160118717Y-77131290D01*
X160059939Y-77093516D01*
X160030914Y-77029960D01*
X160040857Y-76960803D01*
X160044047Y-76953820D01*
X160069156Y-76917658D01*
X160123779Y-76863034D01*
X160123783Y-76863030D01*
X160123782Y-76863030D01*
X160123785Y-76863028D01*
X160123792Y-76863019D01*
X160203530Y-76728189D01*
X160247233Y-76577759D01*
X160247234Y-76577754D01*
X160249999Y-76542620D01*
X160250000Y-76542607D01*
X160250000Y-76450000D01*
X158350001Y-76450000D01*
X158350001Y-76457670D01*
X158344976Y-76492614D01*
X158340571Y-76507612D01*
X158302828Y-76566355D01*
X158301459Y-76567542D01*
X158246598Y-76595018D01*
X158239040Y-76596663D01*
X158212669Y-76599500D01*
X158191830Y-76599500D01*
X158156889Y-76594475D01*
X158141890Y-76590070D01*
X158083144Y-76552327D01*
X158081957Y-76550958D01*
X158054477Y-76496083D01*
X158052832Y-76488521D01*
X158050000Y-76462168D01*
X158050000Y-76450000D01*
X157241830Y-76450000D01*
X157206889Y-76444975D01*
X157191890Y-76440570D01*
X157133144Y-76402827D01*
X157131957Y-76401458D01*
X157104477Y-76346583D01*
X157102832Y-76339021D01*
X157100000Y-76312668D01*
X157100000Y-76200000D01*
X156991830Y-76200000D01*
X156956889Y-76194975D01*
X156941890Y-76190570D01*
X156883144Y-76152827D01*
X156881957Y-76151458D01*
X156854477Y-76096583D01*
X156852832Y-76089021D01*
X156850000Y-76062668D01*
X156850000Y-76012588D01*
X162039500Y-76012588D01*
X162039500Y-77374911D01*
X162068723Y-77521826D01*
X162068726Y-77521836D01*
X162074836Y-77536587D01*
X162082930Y-77565837D01*
X162088157Y-77601069D01*
X162089500Y-77619266D01*
X162089500Y-78189392D01*
X162094547Y-78214762D01*
X162102259Y-78253536D01*
X162102956Y-78257037D01*
X162103558Y-78263149D01*
X162105338Y-78269017D01*
X162105339Y-78269018D01*
X162105339Y-78269019D01*
X162132896Y-78310261D01*
X162141509Y-78323151D01*
X162165675Y-78359319D01*
X162165676Y-78359319D01*
X162165678Y-78359322D01*
X162215870Y-78392859D01*
X162255980Y-78419660D01*
X162327985Y-78433982D01*
X162330708Y-78434704D01*
X162335611Y-78435500D01*
X162335612Y-78435500D01*
X162335614Y-78435500D01*
X162790797Y-78435500D01*
X162825729Y-78440521D01*
X162850973Y-78447934D01*
X162903722Y-78479233D01*
X162915201Y-78490713D01*
X162915202Y-78490714D01*
X162915205Y-78490716D01*
X162915209Y-78490719D01*
X163039761Y-78573943D01*
X163039770Y-78573948D01*
X163071123Y-78586934D01*
X163178170Y-78631275D01*
X163300498Y-78655607D01*
X163322121Y-78659908D01*
X163324356Y-78660409D01*
X163325094Y-78660500D01*
X163574904Y-78660500D01*
X163579026Y-78660500D01*
X163586880Y-78658116D01*
X163721830Y-78631275D01*
X163860232Y-78573947D01*
X163984791Y-78490719D01*
X163984794Y-78490716D01*
X163991079Y-78484431D01*
X164019338Y-78463275D01*
X164042431Y-78450666D01*
X164101854Y-78435500D01*
X164668508Y-78435500D01*
X164676360Y-78433117D01*
X164744019Y-78419660D01*
X164834322Y-78359322D01*
X164894660Y-78269019D01*
X164910500Y-78189386D01*
X164910500Y-77610614D01*
X164910500Y-77610611D01*
X164910500Y-77610427D01*
X164910064Y-77608422D01*
X164897043Y-77542961D01*
X164896441Y-77536850D01*
X164894660Y-77530979D01*
X164870491Y-77494810D01*
X164870489Y-77494806D01*
X164834323Y-77440679D01*
X164831846Y-77439024D01*
X164828827Y-77437006D01*
X164802571Y-77413421D01*
X164795314Y-77404737D01*
X164767432Y-77340676D01*
X164778611Y-77271706D01*
X164825302Y-77219729D01*
X164825598Y-77219546D01*
X164827327Y-77218480D01*
X164892454Y-77200000D01*
X164965629Y-77200000D01*
X164965634Y-77200000D01*
X164965649Y-77199999D01*
X165002489Y-77197100D01*
X165002495Y-77197099D01*
X165160193Y-77151283D01*
X165160196Y-77151282D01*
X165301552Y-77067685D01*
X165301561Y-77067678D01*
X165417678Y-76951561D01*
X165417685Y-76951552D01*
X165501282Y-76810196D01*
X165501283Y-76810193D01*
X165547099Y-76652495D01*
X165547100Y-76652489D01*
X165549999Y-76615649D01*
X165550000Y-76615634D01*
X165550000Y-76287500D01*
X163950000Y-76287500D01*
X163950000Y-76615654D01*
X163952899Y-76652487D01*
X163952901Y-76652501D01*
X163952902Y-76652505D01*
X163998707Y-76810165D01*
X163998717Y-76810196D01*
X163998718Y-76810199D01*
X164082310Y-76951546D01*
X164082314Y-76951552D01*
X164082321Y-76951561D01*
X164198438Y-77067678D01*
X164198446Y-77067684D01*
X164198450Y-77067687D01*
X164294843Y-77124693D01*
X164322356Y-77146800D01*
X164330073Y-77155065D01*
X164361437Y-77217500D01*
X164354068Y-77286979D01*
X164310331Y-77341427D01*
X164309546Y-77341974D01*
X164258585Y-77362624D01*
X164256968Y-77362888D01*
X164237039Y-77364500D01*
X164109203Y-77364500D01*
X164074267Y-77359477D01*
X164049025Y-77352065D01*
X163996277Y-77320766D01*
X163984797Y-77309285D01*
X163984793Y-77309282D01*
X163984792Y-77309281D01*
X163918684Y-77265109D01*
X163860238Y-77226056D01*
X163860228Y-77226051D01*
X163794145Y-77198678D01*
X163772709Y-77187220D01*
X163752785Y-77173907D01*
X163733995Y-77158486D01*
X163609426Y-77033917D01*
X163588274Y-77005661D01*
X163575667Y-76982572D01*
X163560500Y-76923147D01*
X163560500Y-76346360D01*
X163562881Y-76322177D01*
X163567557Y-76298669D01*
X163574609Y-76275422D01*
X163581275Y-76259330D01*
X163610501Y-76112402D01*
X163610501Y-75962597D01*
X163610501Y-75962594D01*
X163610501Y-75962591D01*
X163581036Y-75814468D01*
X163578949Y-75810055D01*
X163523947Y-75677268D01*
X163523946Y-75677267D01*
X163523943Y-75677261D01*
X163440719Y-75552709D01*
X163440716Y-75552705D01*
X163433933Y-75545922D01*
X163433915Y-75545905D01*
X163347360Y-75459350D01*
X163950000Y-75459350D01*
X163950000Y-75787500D01*
X164500000Y-75787500D01*
X165000000Y-75787500D01*
X165550000Y-75787500D01*
X165550000Y-75459365D01*
X165549999Y-75459350D01*
X165547100Y-75422510D01*
X165547099Y-75422504D01*
X165547024Y-75422247D01*
X165501291Y-75264833D01*
X165501289Y-75264828D01*
X165501283Y-75264806D01*
X165501282Y-75264803D01*
X165501045Y-75264403D01*
X165417688Y-75123452D01*
X165417685Y-75123447D01*
X165417676Y-75123436D01*
X165301562Y-75007322D01*
X165301551Y-75007313D01*
X165301546Y-75007310D01*
X165160199Y-74923718D01*
X165160196Y-74923717D01*
X165160182Y-74923712D01*
X165117180Y-74911219D01*
X165095621Y-74904956D01*
X165060409Y-74882469D01*
X165000000Y-74877703D01*
X165000000Y-75787500D01*
X164500000Y-75787500D01*
X164500000Y-74877703D01*
X164497505Y-74877899D01*
X164497497Y-74877901D01*
X164339833Y-74923707D01*
X164339802Y-74923717D01*
X164339799Y-74923718D01*
X164198452Y-75007310D01*
X164198447Y-75007313D01*
X164198436Y-75007322D01*
X164082322Y-75123436D01*
X164082313Y-75123447D01*
X164082310Y-75123452D01*
X163998718Y-75264799D01*
X163998717Y-75264802D01*
X163998707Y-75264833D01*
X163952902Y-75422493D01*
X163952901Y-75422497D01*
X163952899Y-75422511D01*
X163950989Y-75446785D01*
X163950000Y-75459350D01*
X163347360Y-75459350D01*
X163334791Y-75446781D01*
X163322709Y-75438707D01*
X163314748Y-75431035D01*
X163308405Y-75419911D01*
X163297620Y-75408465D01*
X163296956Y-75408934D01*
X163293935Y-75404651D01*
X163293932Y-75404646D01*
X163289161Y-75398967D01*
X163270669Y-75369292D01*
X163260600Y-75346489D01*
X163260599Y-75346486D01*
X163178514Y-75264401D01*
X163178511Y-75264399D01*
X163178510Y-75264399D01*
X163072322Y-75217512D01*
X163072323Y-75217512D01*
X163046360Y-75214500D01*
X163046357Y-75214500D01*
X162653651Y-75214500D01*
X162653641Y-75214500D01*
X162627687Y-75217509D01*
X162627671Y-75217514D01*
X162627670Y-75217514D01*
X162521491Y-75264398D01*
X162521489Y-75264398D01*
X162521487Y-75264400D01*
X162521485Y-75264401D01*
X162521483Y-75264403D01*
X162439400Y-75346484D01*
X162429328Y-75369296D01*
X162410834Y-75398974D01*
X162389020Y-75424938D01*
X162367984Y-75443787D01*
X162368402Y-75444333D01*
X162365212Y-75446777D01*
X162365199Y-75446789D01*
X162314107Y-75497880D01*
X162314032Y-75497957D01*
X162209279Y-75602709D01*
X162209276Y-75602712D01*
X162126052Y-75727265D01*
X162126047Y-75727275D01*
X162068725Y-75865667D01*
X162068717Y-75865702D01*
X162039500Y-76012588D01*
X156850000Y-76012588D01*
X156850000Y-75950000D01*
X157350000Y-75950000D01*
X158049999Y-75950000D01*
X158049999Y-75857384D01*
X158049998Y-75857371D01*
X158350000Y-75857371D01*
X158350000Y-75857374D01*
X158350000Y-75857379D01*
X158350000Y-75950000D01*
X159050000Y-75950000D01*
X159050000Y-75300000D01*
X158907379Y-75300000D01*
X158872245Y-75302764D01*
X158721809Y-75346469D01*
X158721808Y-75346469D01*
X158586982Y-75426205D01*
X158586970Y-75426214D01*
X158476214Y-75536970D01*
X158476205Y-75536982D01*
X158396469Y-75671808D01*
X158396469Y-75671809D01*
X158352764Y-75822244D01*
X158350000Y-75857371D01*
X158049998Y-75857371D01*
X158047234Y-75822245D01*
X158047234Y-75822244D01*
X158047234Y-75822243D01*
X158003530Y-75671810D01*
X157923792Y-75536980D01*
X157923785Y-75536971D01*
X157813028Y-75426214D01*
X157813019Y-75426207D01*
X157812038Y-75425627D01*
X157678189Y-75346469D01*
X157527753Y-75302764D01*
X157527754Y-75302764D01*
X157492627Y-75300000D01*
X157492620Y-75300000D01*
X157350000Y-75300000D01*
X157350000Y-75950000D01*
X156850000Y-75950000D01*
X156850000Y-75347700D01*
X156850000Y-75339113D01*
X156722910Y-75298388D01*
X156719444Y-75297043D01*
X156716146Y-75294506D01*
X156704712Y-75288941D01*
X156704672Y-75289027D01*
X156697784Y-75285779D01*
X156696585Y-75284987D01*
X156694729Y-75284084D01*
X156687988Y-75279515D01*
X156688084Y-75279372D01*
X156668285Y-75266297D01*
X156667087Y-75265232D01*
X156630062Y-75205980D01*
X156628306Y-75198913D01*
X156627655Y-75195921D01*
X156626155Y-75189025D01*
X156623322Y-75162669D01*
X156623322Y-70377894D01*
X156628342Y-70342968D01*
X156630202Y-70336632D01*
X156667971Y-70277854D01*
X156731524Y-70248825D01*
X156800684Y-70258763D01*
X156852938Y-70303661D01*
X156856712Y-70309428D01*
X156867978Y-70331007D01*
X156868724Y-70332860D01*
X156868725Y-70332863D01*
X156951638Y-70470018D01*
X156951641Y-70470022D01*
X156951646Y-70470028D01*
X157064970Y-70583352D01*
X157064976Y-70583357D01*
X157064975Y-70583357D01*
X157064980Y-70583360D01*
X157202135Y-70666273D01*
X157202138Y-70666274D01*
X157202140Y-70666275D01*
X157255929Y-70683036D01*
X157263840Y-70685501D01*
X157298875Y-70708841D01*
X157355156Y-70713955D01*
X157355157Y-70713956D01*
X157355156Y-70713956D01*
X157421663Y-70720000D01*
X157422500Y-70720000D01*
X157422500Y-69080000D01*
X157922500Y-69080000D01*
X157922500Y-70720000D01*
X157923334Y-70720000D01*
X157923337Y-70720000D01*
X157989843Y-70713956D01*
X158142859Y-70666275D01*
X158142863Y-70666273D01*
X158280018Y-70583361D01*
X158331707Y-70531671D01*
X158359948Y-70510528D01*
X158366897Y-70506734D01*
X158435166Y-70491879D01*
X158500631Y-70516293D01*
X158542505Y-70572224D01*
X158548267Y-70638066D01*
X158547248Y-70643588D01*
X158537692Y-70673485D01*
X158518689Y-70714242D01*
X158518687Y-70714241D01*
X158518683Y-70714256D01*
X158515645Y-70720768D01*
X158515642Y-70720777D01*
X158509500Y-70767442D01*
X158509500Y-71237556D01*
X158515643Y-71284224D01*
X158515645Y-71284232D01*
X158534947Y-71325624D01*
X158563412Y-71386667D01*
X158643333Y-71466588D01*
X158643332Y-71466588D01*
X158672271Y-71480082D01*
X158701813Y-71499400D01*
X158710544Y-71507088D01*
X158747849Y-71566165D01*
X158747293Y-71636033D01*
X158709798Y-71693868D01*
X158701524Y-71701037D01*
X158672730Y-71719702D01*
X158643335Y-71733409D01*
X158643332Y-71733411D01*
X158563411Y-71813333D01*
X158515645Y-71915766D01*
X158515643Y-71915774D01*
X158509500Y-71962442D01*
X158509500Y-72432556D01*
X158515643Y-72479229D01*
X158515687Y-72479371D01*
X158516357Y-72480758D01*
X158563412Y-72581667D01*
X158643333Y-72661588D01*
X158745769Y-72709355D01*
X158792445Y-72715500D01*
X158792446Y-72715500D01*
X158848534Y-72715500D01*
X158872721Y-72717882D01*
X158895620Y-72722436D01*
X158903526Y-72724279D01*
X158912251Y-72726616D01*
X158912253Y-72726618D01*
X159029374Y-72758000D01*
X159047670Y-72758000D01*
X159082606Y-72763023D01*
X159097604Y-72767427D01*
X159156355Y-72805172D01*
X159157542Y-72806541D01*
X159185018Y-72861402D01*
X159186663Y-72868960D01*
X159189500Y-72895331D01*
X159189500Y-74477209D01*
X159224290Y-74607046D01*
X159261013Y-74670652D01*
X159291493Y-74723447D01*
X159291495Y-74723449D01*
X159291499Y-74723455D01*
X159291503Y-74723460D01*
X159643755Y-75075711D01*
X159664904Y-75103961D01*
X159670325Y-75113888D01*
X159685179Y-75182161D01*
X159660765Y-75247626D01*
X159604833Y-75289499D01*
X159604829Y-75289501D01*
X159597641Y-75292182D01*
X159554307Y-75300000D01*
X159550000Y-75300000D01*
X159550000Y-75950000D01*
X160249999Y-75950000D01*
X160249999Y-75857396D01*
X160249998Y-75857374D01*
X160247234Y-75822243D01*
X160203530Y-75671810D01*
X160123792Y-75536980D01*
X160123785Y-75536971D01*
X160023266Y-75436452D01*
X160010425Y-75421375D01*
X160001100Y-75408465D01*
X159997257Y-75403144D01*
X159973963Y-75337273D01*
X159989979Y-75269264D01*
X160036704Y-75222626D01*
X160045225Y-75217803D01*
X160074201Y-75205946D01*
X160187045Y-75175710D01*
X160303454Y-75108502D01*
X160398502Y-75013454D01*
X160465710Y-74897045D01*
X160500500Y-74767209D01*
X160500500Y-74632791D01*
X160465710Y-74502955D01*
X160398502Y-74386546D01*
X160259426Y-74247470D01*
X160238274Y-74219214D01*
X160225667Y-74196125D01*
X160210500Y-74136700D01*
X160210500Y-73002329D01*
X160215523Y-72967393D01*
X160219927Y-72952395D01*
X160257672Y-72893644D01*
X160259041Y-72892457D01*
X160313920Y-72864977D01*
X160321479Y-72863333D01*
X160347832Y-72860500D01*
X160876447Y-72860500D01*
X160911383Y-72865523D01*
X160926381Y-72869927D01*
X160985132Y-72907672D01*
X160986319Y-72909041D01*
X161013795Y-72963902D01*
X161015440Y-72971460D01*
X161018277Y-72997831D01*
X161018277Y-73114110D01*
X161031973Y-73200591D01*
X161032008Y-73201045D01*
X161033498Y-73210227D01*
X161033850Y-73211281D01*
X161035821Y-73214786D01*
X161059657Y-73261569D01*
X161059658Y-73261569D01*
X161059659Y-73261571D01*
X161092536Y-73326094D01*
X161092539Y-73326098D01*
X161092540Y-73326099D01*
X161092543Y-73326103D01*
X161184473Y-73418033D01*
X161184475Y-73418034D01*
X161184476Y-73418035D01*
X161184480Y-73418038D01*
X161184482Y-73418040D01*
X161300343Y-73477074D01*
X161300971Y-73477394D01*
X161305100Y-73478215D01*
X161305109Y-73478217D01*
X161309974Y-73478600D01*
X161329333Y-73481665D01*
X161329504Y-73481692D01*
X161396469Y-73492299D01*
X162761082Y-73492298D01*
X162761087Y-73492298D01*
X162784766Y-73492298D01*
X162793912Y-73487303D01*
X162800884Y-73485994D01*
X162809145Y-73484686D01*
X162847568Y-73478600D01*
X162854265Y-73478074D01*
X162855464Y-73477350D01*
X162857204Y-73477075D01*
X162857205Y-73477075D01*
X162857206Y-73477074D01*
X162857209Y-73477074D01*
X162973070Y-73418040D01*
X162973075Y-73418035D01*
X163015214Y-73375896D01*
X163043457Y-73354752D01*
X163053391Y-73349328D01*
X163121661Y-73334475D01*
X163187126Y-73358889D01*
X163228999Y-73414821D01*
X163230198Y-73418035D01*
X163231682Y-73422013D01*
X163239500Y-73465347D01*
X163239500Y-73836290D01*
X163268061Y-73942882D01*
X163268067Y-73942903D01*
X163277696Y-73978843D01*
X163277700Y-73978850D01*
X163314724Y-74042979D01*
X163327110Y-74072880D01*
X163335274Y-74103344D01*
X163339500Y-74135442D01*
X163339500Y-74321355D01*
X163342509Y-74347311D01*
X163342514Y-74347327D01*
X163342514Y-74347328D01*
X163363615Y-74395116D01*
X163389400Y-74453513D01*
X163389401Y-74453514D01*
X163471486Y-74535599D01*
X163577680Y-74582488D01*
X163603643Y-74585500D01*
X163996356Y-74585499D01*
X164004722Y-74584528D01*
X164004722Y-74584533D01*
X164004740Y-74584526D01*
X164015227Y-74583310D01*
X164020944Y-74582980D01*
X164021556Y-74582881D01*
X164024232Y-74581644D01*
X164059568Y-74566041D01*
X164128514Y-74535599D01*
X164210599Y-74453514D01*
X164257488Y-74347320D01*
X164260500Y-74321357D01*
X164260499Y-74135440D01*
X164264722Y-74103353D01*
X164272890Y-74072874D01*
X164285272Y-74042984D01*
X164317611Y-73986971D01*
X164319852Y-73983689D01*
X164320754Y-73981907D01*
X164324019Y-73975871D01*
X164332783Y-73960690D01*
X164331509Y-73955436D01*
X164335592Y-73929246D01*
X164360500Y-73836291D01*
X164360500Y-73752329D01*
X164365523Y-73717393D01*
X164369927Y-73702395D01*
X164407672Y-73643644D01*
X164409041Y-73642457D01*
X164463920Y-73614977D01*
X164471479Y-73613333D01*
X164497832Y-73610500D01*
X166521822Y-73610500D01*
X166524788Y-73611371D01*
X166524803Y-73610726D01*
X166575338Y-73611863D01*
X166575338Y-73611864D01*
X166588009Y-73612149D01*
X166606947Y-73614039D01*
X166649967Y-73621706D01*
X168516597Y-73954373D01*
X168650524Y-73942903D01*
X168776918Y-73897162D01*
X168854947Y-73842737D01*
X168886468Y-73826876D01*
X168899066Y-73822653D01*
X168968885Y-73820014D01*
X169029049Y-73855540D01*
X169059114Y-73911569D01*
X169061143Y-73920111D01*
X169064500Y-73948768D01*
X169064500Y-74122315D01*
X169078196Y-74208786D01*
X169078231Y-74209240D01*
X169079722Y-74218428D01*
X169080074Y-74219482D01*
X169082045Y-74222987D01*
X169132165Y-74321355D01*
X169132166Y-74321355D01*
X169132167Y-74321357D01*
X169138759Y-74334294D01*
X169138767Y-74334304D01*
X169230697Y-74426234D01*
X169230699Y-74426235D01*
X169230700Y-74426236D01*
X169230704Y-74426239D01*
X169230706Y-74426241D01*
X169346567Y-74485275D01*
X169347195Y-74485595D01*
X169351324Y-74486416D01*
X169351333Y-74486418D01*
X169356198Y-74486801D01*
X169375557Y-74489866D01*
X169375728Y-74489893D01*
X169442693Y-74500500D01*
X170807306Y-74500499D01*
X170807311Y-74500499D01*
X170830990Y-74500499D01*
X170840136Y-74495504D01*
X170847108Y-74494195D01*
X170855369Y-74492887D01*
X170893792Y-74486801D01*
X170901972Y-74486158D01*
X170907947Y-74483404D01*
X170915588Y-74480238D01*
X170920919Y-74476365D01*
X171019294Y-74426241D01*
X171111241Y-74334294D01*
X171170275Y-74218433D01*
X171185500Y-74122307D01*
X171185499Y-73357694D01*
X171185499Y-73357693D01*
X171185499Y-73357688D01*
X171185499Y-73357683D01*
X171171803Y-73271212D01*
X171171419Y-73266334D01*
X171170352Y-73261890D01*
X171170275Y-73261569D01*
X171170275Y-73261568D01*
X171170275Y-73261567D01*
X171111241Y-73145706D01*
X171111239Y-73145704D01*
X171111236Y-73145700D01*
X171111235Y-73145699D01*
X171111234Y-73145697D01*
X171019302Y-73053765D01*
X171019296Y-73053761D01*
X171019295Y-73053760D01*
X171019294Y-73053759D01*
X170903433Y-72994725D01*
X170903432Y-72994724D01*
X170903425Y-72994722D01*
X170807307Y-72979500D01*
X169442688Y-72979500D01*
X169418999Y-72979500D01*
X169409846Y-72984497D01*
X169402893Y-72985802D01*
X169356208Y-72993196D01*
X169351330Y-72993580D01*
X169346571Y-72994722D01*
X169230703Y-73053760D01*
X169230698Y-73053764D01*
X169149063Y-73135400D01*
X169120807Y-73156552D01*
X169108626Y-73163203D01*
X169040352Y-73178054D01*
X168974892Y-73153638D01*
X168965307Y-73146463D01*
X168937911Y-73118132D01*
X168935717Y-73114987D01*
X168920264Y-73092831D01*
X168920261Y-73092828D01*
X168920258Y-73092825D01*
X168873879Y-73053764D01*
X168873874Y-73053760D01*
X168817454Y-73006242D01*
X168817453Y-73006241D01*
X168695735Y-72949211D01*
X168695734Y-72949210D01*
X168694814Y-72948980D01*
X168692426Y-72948621D01*
X167350624Y-72709487D01*
X167317115Y-72698414D01*
X167304688Y-72692227D01*
X167253448Y-72644728D01*
X167236023Y-72577068D01*
X167236369Y-72566757D01*
X167245559Y-72523909D01*
X167579003Y-71710253D01*
X167581993Y-71703537D01*
X167583196Y-71701037D01*
X167585190Y-71696892D01*
X167588569Y-71690375D01*
X167599332Y-71671047D01*
X167602854Y-71657027D01*
X167605309Y-71648554D01*
X167608074Y-71640144D01*
X167611118Y-71631890D01*
X167616596Y-71618525D01*
X167619397Y-71596611D01*
X167620550Y-71589319D01*
X167621919Y-71582072D01*
X167623496Y-71574900D01*
X167839880Y-70713968D01*
X167852269Y-70683042D01*
X167868264Y-70654833D01*
X167888443Y-70628325D01*
X167977877Y-70538893D01*
X168006091Y-70502125D01*
X168043390Y-70399643D01*
X168051195Y-70382418D01*
X168059653Y-70367001D01*
X168063956Y-70360676D01*
X168068492Y-70352820D01*
X168089603Y-70316255D01*
X168129118Y-70247813D01*
X168160500Y-70130692D01*
X168160500Y-70029937D01*
X168165522Y-69995004D01*
X168168477Y-69984940D01*
X168172934Y-69969759D01*
X168204228Y-69917017D01*
X168365214Y-69756031D01*
X168393457Y-69734887D01*
X168403391Y-69729463D01*
X168471661Y-69714610D01*
X168537126Y-69739024D01*
X168578999Y-69794956D01*
X168579001Y-69794960D01*
X168581682Y-69802148D01*
X168589500Y-69845482D01*
X168589500Y-70829121D01*
X168589500Y-70910879D01*
X168600080Y-70950364D01*
X168610660Y-70989850D01*
X168651531Y-71060642D01*
X168651537Y-71060651D01*
X168837005Y-71246119D01*
X169007132Y-71416245D01*
X169017820Y-71428432D01*
X169027640Y-71441229D01*
X169036646Y-71454708D01*
X169090366Y-71547752D01*
X169176104Y-71633490D01*
X169281111Y-71694116D01*
X169398232Y-71725498D01*
X169398234Y-71725498D01*
X169519482Y-71725498D01*
X169519484Y-71725498D01*
X169636605Y-71694116D01*
X169741612Y-71633490D01*
X169827350Y-71547752D01*
X169887976Y-71442745D01*
X169919358Y-71325624D01*
X169919358Y-71204372D01*
X169887976Y-71087251D01*
X169887975Y-71087250D01*
X169885867Y-71079380D01*
X169886056Y-71079329D01*
X169885098Y-71076430D01*
X169880065Y-71055679D01*
X169883393Y-70985890D01*
X169923920Y-70928981D01*
X169925200Y-70927974D01*
X169978383Y-70903688D01*
X169983302Y-70902740D01*
X170006768Y-70900499D01*
X170830990Y-70900499D01*
X170840136Y-70895504D01*
X170847108Y-70894195D01*
X170855369Y-70892887D01*
X170893792Y-70886801D01*
X170901972Y-70886158D01*
X170907947Y-70883404D01*
X170915588Y-70880238D01*
X170920919Y-70876365D01*
X171019294Y-70826241D01*
X171111241Y-70734294D01*
X171170275Y-70618433D01*
X171170777Y-70615267D01*
X171173527Y-70597900D01*
X171185500Y-70522307D01*
X171185499Y-69757694D01*
X171185499Y-69757688D01*
X171185499Y-69757683D01*
X171171803Y-69671212D01*
X171171419Y-69666334D01*
X171170352Y-69661890D01*
X171170275Y-69661567D01*
X171111241Y-69545706D01*
X171111239Y-69545704D01*
X171111236Y-69545700D01*
X171111235Y-69545699D01*
X171111234Y-69545697D01*
X171043051Y-69477514D01*
X171042979Y-69477382D01*
X171040843Y-69475306D01*
X171018917Y-69453380D01*
X171007687Y-69444062D01*
X170993333Y-69430505D01*
X170958112Y-69370163D01*
X170961105Y-69300358D01*
X170962897Y-69295102D01*
X170963359Y-69293742D01*
X170993045Y-69246066D01*
X171218462Y-69020651D01*
X171259340Y-68949849D01*
X171280500Y-68870878D01*
X171280500Y-68789121D01*
X171280500Y-67811419D01*
X171259340Y-67732449D01*
X171259340Y-67732448D01*
X171218462Y-67661646D01*
X170829426Y-67272609D01*
X170808274Y-67244353D01*
X170795667Y-67221264D01*
X170780500Y-67161839D01*
X170780500Y-66967451D01*
X170780500Y-66967445D01*
X170774355Y-66920770D01*
X170774022Y-66920055D01*
X170726588Y-66818333D01*
X170646667Y-66738412D01*
X170646666Y-66738411D01*
X170621104Y-66726491D01*
X170586750Y-66696240D01*
X170497557Y-66684500D01*
X170497555Y-66684500D01*
X170497554Y-66684500D01*
X170389943Y-66684500D01*
X170355004Y-66679476D01*
X170341686Y-66675565D01*
X170282909Y-66637789D01*
X170253888Y-66574240D01*
X170252677Y-66565819D01*
X170255640Y-66516082D01*
X170260360Y-66498466D01*
X170260361Y-66498463D01*
X170270500Y-66460626D01*
X170270500Y-66339374D01*
X170252932Y-66273811D01*
X170248743Y-66238771D01*
X170249073Y-66224894D01*
X170270346Y-66158345D01*
X170324221Y-66113860D01*
X170332055Y-66110505D01*
X170380854Y-66100500D01*
X171062194Y-66100500D01*
X171097126Y-66105521D01*
X171122370Y-66112934D01*
X171175116Y-66144230D01*
X171760573Y-66729686D01*
X171781723Y-66757938D01*
X171794331Y-66781027D01*
X171809500Y-66840456D01*
X171809500Y-74282194D01*
X171804476Y-74317131D01*
X171797064Y-74342372D01*
X171765769Y-74395116D01*
X170920312Y-75240573D01*
X170892061Y-75261722D01*
X170868973Y-75274330D01*
X170809543Y-75289500D01*
X168409938Y-75289500D01*
X168375002Y-75284477D01*
X168349760Y-75277065D01*
X168297015Y-75245769D01*
X168282756Y-75231510D01*
X168282754Y-75231508D01*
X168191883Y-75179043D01*
X168185353Y-75174032D01*
X168170141Y-75167731D01*
X168161979Y-75166657D01*
X168147095Y-75162669D01*
X168060626Y-75139500D01*
X168060625Y-75139500D01*
X167939374Y-75139500D01*
X167822253Y-75170881D01*
X167822247Y-75170884D01*
X167717253Y-75231502D01*
X167717247Y-75231506D01*
X167717237Y-75231514D01*
X167631514Y-75317237D01*
X167631506Y-75317247D01*
X167631502Y-75317253D01*
X167570884Y-75422247D01*
X167570881Y-75422253D01*
X167550618Y-75497880D01*
X167539500Y-75539374D01*
X167539500Y-75660626D01*
X167570882Y-75777747D01*
X167631508Y-75882754D01*
X167717246Y-75968492D01*
X167822253Y-76029118D01*
X167939374Y-76060500D01*
X167939376Y-76060500D01*
X168060624Y-76060500D01*
X168060626Y-76060500D01*
X168177747Y-76029118D01*
X168282754Y-75968492D01*
X168291819Y-75959426D01*
X168320071Y-75938276D01*
X168324655Y-75935773D01*
X168324663Y-75935765D01*
X168328512Y-75933137D01*
X168360215Y-75917567D01*
X168363357Y-75916548D01*
X168401611Y-75910500D01*
X171040876Y-75910500D01*
X171040879Y-75910500D01*
X171119849Y-75889340D01*
X171190652Y-75848462D01*
X172368462Y-74670652D01*
X172397121Y-74621010D01*
X172397128Y-74621002D01*
X172401177Y-74613987D01*
X172401178Y-74613986D01*
X172405854Y-74605884D01*
X172409339Y-74599849D01*
X172409340Y-74599848D01*
X172430500Y-74520878D01*
X172430500Y-66609122D01*
X172417472Y-66560500D01*
X172409340Y-66530151D01*
X172368462Y-66459349D01*
X171450652Y-65541538D01*
X171450651Y-65541537D01*
X171450648Y-65541535D01*
X171450649Y-65541535D01*
X171450644Y-65541532D01*
X171393986Y-65508821D01*
X171387457Y-65503811D01*
X171372243Y-65497509D01*
X171364082Y-65496435D01*
X171334574Y-65488528D01*
X171300879Y-65479500D01*
X171300878Y-65479500D01*
X169106294Y-65479500D01*
X169071353Y-65474475D01*
X169056354Y-65470070D01*
X168997608Y-65432327D01*
X168996421Y-65430958D01*
X168968941Y-65376083D01*
X168967296Y-65368521D01*
X168964464Y-65342168D01*
X168964464Y-65239376D01*
X168964464Y-65239374D01*
X168933082Y-65122253D01*
X168872456Y-65017246D01*
X168786718Y-64931508D01*
X168681711Y-64870882D01*
X168564590Y-64839500D01*
X168564589Y-64839500D01*
X168443338Y-64839500D01*
X168443330Y-64839501D01*
X168377775Y-64857065D01*
X168342735Y-64861255D01*
X168328861Y-64860925D01*
X168262309Y-64839652D01*
X168217823Y-64785775D01*
X168217821Y-64785771D01*
X168214475Y-64777957D01*
X168204464Y-64729146D01*
X168204464Y-61893323D01*
X168209486Y-61858390D01*
X168216898Y-61833145D01*
X168248192Y-61780403D01*
X168550881Y-61477715D01*
X168868571Y-61160025D01*
X168909449Y-61089222D01*
X168930609Y-61010252D01*
X168930609Y-60928495D01*
X168930609Y-57773729D01*
X168930609Y-57773727D01*
X168927342Y-57761536D01*
X168927341Y-57761535D01*
X168925721Y-57755488D01*
X168925721Y-57755487D01*
X168925718Y-57755478D01*
X168921423Y-57739447D01*
X168909449Y-57694759D01*
X168872568Y-57630879D01*
X168868571Y-57623955D01*
X168868567Y-57623950D01*
X168475190Y-57230573D01*
X168016853Y-56772236D01*
X168016846Y-56772230D01*
X168016840Y-56772225D01*
X168016835Y-56772221D01*
X167960178Y-56739511D01*
X167953649Y-56734501D01*
X167938434Y-56728198D01*
X167930270Y-56727124D01*
X167890533Y-56716475D01*
X167890530Y-56716475D01*
X167867068Y-56710189D01*
X167867065Y-56710188D01*
X167867063Y-56710188D01*
X167867062Y-56710187D01*
X167861832Y-56709500D01*
X167861829Y-56709500D01*
X167861417Y-56709500D01*
X167861416Y-56709500D01*
X166700341Y-56709500D01*
X166618584Y-56709500D01*
X166539609Y-56730660D01*
X166468808Y-56771539D01*
X166468807Y-56771540D01*
X166468802Y-56771544D01*
X166009774Y-57230573D01*
X165981523Y-57251722D01*
X165958435Y-57264330D01*
X165899005Y-57279500D01*
X165418584Y-57279500D01*
X165339609Y-57300660D01*
X165268808Y-57341539D01*
X165268807Y-57341540D01*
X165268802Y-57341544D01*
X164959774Y-57650573D01*
X164931523Y-57671722D01*
X164908435Y-57684330D01*
X164849005Y-57699500D01*
X164160919Y-57699500D01*
X164160917Y-57699500D01*
X164160911Y-57699501D01*
X164104252Y-57714681D01*
X164104245Y-57714686D01*
X164083749Y-57720178D01*
X164082063Y-57720602D01*
X164081967Y-57720650D01*
X164081940Y-57720665D01*
X164011156Y-57761532D01*
X164011151Y-57761535D01*
X164011146Y-57761539D01*
X164011144Y-57761540D01*
X164011139Y-57761545D01*
X164008775Y-57763829D01*
X164007773Y-57764912D01*
X163631939Y-58140743D01*
X163603684Y-58161894D01*
X163580599Y-58174499D01*
X163521159Y-58189666D01*
X162929598Y-58189597D01*
X162933105Y-58536389D01*
X162932130Y-58553209D01*
X162930031Y-58569798D01*
X162926787Y-58586324D01*
X162900609Y-58684026D01*
X162900609Y-58735876D01*
X162895585Y-58770814D01*
X162892398Y-58781667D01*
X162854623Y-58840444D01*
X162791066Y-58869467D01*
X162721916Y-58859526D01*
X162714938Y-58856339D01*
X162678764Y-58831223D01*
X162660235Y-58812694D01*
X162660234Y-58812692D01*
X162538091Y-58731077D01*
X162538064Y-58731062D01*
X162493020Y-58712405D01*
X162477503Y-58699900D01*
X162402353Y-58674851D01*
X162402354Y-58674851D01*
X162402351Y-58674850D01*
X162402347Y-58674849D01*
X162402343Y-58674848D01*
X162402341Y-58674847D01*
X162402317Y-58674842D01*
X162258271Y-58646190D01*
X162258268Y-58646190D01*
X162258264Y-58646190D01*
X162111354Y-58646190D01*
X162111349Y-58646190D01*
X162111344Y-58646190D01*
X161967280Y-58674846D01*
X161967274Y-58674848D01*
X161967264Y-58674851D01*
X161967259Y-58674852D01*
X161967241Y-58674859D01*
X161831552Y-58731062D01*
X161831525Y-58731077D01*
X161709382Y-58812692D01*
X161605511Y-58916563D01*
X161523896Y-59038706D01*
X161523881Y-59038733D01*
X161467678Y-59174422D01*
X161467665Y-59174461D01*
X161439009Y-59318525D01*
X161439009Y-59465452D01*
X161464068Y-59591430D01*
X161465743Y-59602392D01*
X161469487Y-59637285D01*
X161457067Y-59706042D01*
X161409456Y-59757163D01*
X161404948Y-59759837D01*
X161341687Y-59777188D01*
X159490992Y-59777188D01*
X159490992Y-64777188D01*
X162240992Y-64777188D01*
X162240992Y-60260819D01*
X162246015Y-60225883D01*
X162250419Y-60210885D01*
X162288190Y-60152111D01*
X162293743Y-60147299D01*
X162350740Y-60119395D01*
X162358390Y-60117873D01*
X162358406Y-60117874D01*
X162358406Y-60117870D01*
X162358407Y-60117870D01*
X162402351Y-60109130D01*
X162538078Y-60052910D01*
X162660229Y-59971291D01*
X162663061Y-59968458D01*
X162663067Y-59968455D01*
X162663066Y-59968454D01*
X162663071Y-59968449D01*
X162676323Y-59955197D01*
X162704569Y-59934051D01*
X162714504Y-59928627D01*
X162782774Y-59913776D01*
X162848238Y-59938193D01*
X162890110Y-59994126D01*
X162892791Y-60001314D01*
X162900609Y-60044648D01*
X162900609Y-60099952D01*
X162930062Y-60209870D01*
X162938378Y-60240907D01*
X162939025Y-60242470D01*
X162940683Y-60247763D01*
X162940719Y-60249803D01*
X162943840Y-60260005D01*
X162947113Y-60276035D01*
X162947114Y-60276038D01*
X162955441Y-60284186D01*
X162966680Y-60296792D01*
X162976971Y-60310053D01*
X162986392Y-60324069D01*
X163011336Y-60367273D01*
X163011338Y-60367276D01*
X163011339Y-60367277D01*
X163114522Y-60470460D01*
X163240896Y-60543422D01*
X163381847Y-60581190D01*
X163381850Y-60581190D01*
X163527768Y-60581190D01*
X163527769Y-60581190D01*
X163527771Y-60581190D01*
X163654458Y-60547243D01*
X163676575Y-60541318D01*
X163677042Y-60543063D01*
X163736439Y-60536672D01*
X163788544Y-60559287D01*
X163915941Y-60654254D01*
X163929512Y-60665990D01*
X164242674Y-60979152D01*
X164313477Y-61020030D01*
X164392447Y-61041190D01*
X164392448Y-61041190D01*
X164812346Y-61041190D01*
X164847278Y-61046211D01*
X164872522Y-61053624D01*
X164925268Y-61084920D01*
X165534537Y-61694188D01*
X165555687Y-61722440D01*
X165568295Y-61745529D01*
X165583464Y-61804958D01*
X165583464Y-65508230D01*
X165578440Y-65543167D01*
X165571028Y-65568408D01*
X165539733Y-65621152D01*
X165470312Y-65690573D01*
X165442061Y-65711722D01*
X165418973Y-65724330D01*
X165359543Y-65739500D01*
X165339374Y-65739500D01*
X165222253Y-65770881D01*
X165222247Y-65770884D01*
X165117253Y-65831502D01*
X165117247Y-65831506D01*
X165117237Y-65831514D01*
X165031514Y-65917237D01*
X165031506Y-65917247D01*
X165031502Y-65917253D01*
X164970884Y-66022247D01*
X164970881Y-66022253D01*
X164940185Y-66136819D01*
X164939500Y-66139374D01*
X164939500Y-66260626D01*
X164970882Y-66377747D01*
X165031508Y-66482754D01*
X165117246Y-66568492D01*
X165222253Y-66629118D01*
X165339374Y-66660500D01*
X165339376Y-66660500D01*
X165460624Y-66660500D01*
X165460626Y-66660500D01*
X165577747Y-66629118D01*
X165681185Y-66569397D01*
X165698443Y-66561140D01*
X165715932Y-66554377D01*
X165785558Y-66548562D01*
X165846747Y-66580798D01*
X165856444Y-66590154D01*
X165877732Y-66617389D01*
X165902623Y-66660499D01*
X165915472Y-66682754D01*
X166001210Y-66768492D01*
X166106217Y-66829118D01*
X166223338Y-66860500D01*
X166223340Y-66860500D01*
X166344588Y-66860500D01*
X166344590Y-66860500D01*
X166461711Y-66829118D01*
X166566718Y-66768492D01*
X166575876Y-66759333D01*
X166604126Y-66738182D01*
X166617855Y-66730686D01*
X166686107Y-66715836D01*
X166687921Y-66715966D01*
X166746119Y-66735334D01*
X166752638Y-66739523D01*
X166773270Y-66756151D01*
X167240573Y-67223453D01*
X167261723Y-67251705D01*
X167274331Y-67274794D01*
X167289500Y-67334223D01*
X167289500Y-67354393D01*
X167320882Y-67471514D01*
X167381508Y-67576521D01*
X167467246Y-67662259D01*
X167572253Y-67722885D01*
X167689374Y-67754267D01*
X167689376Y-67754267D01*
X167810624Y-67754267D01*
X167810626Y-67754267D01*
X167927747Y-67722885D01*
X168032754Y-67662259D01*
X168118492Y-67576521D01*
X168179118Y-67471514D01*
X168210500Y-67354393D01*
X168210500Y-67233141D01*
X168179118Y-67116020D01*
X168118492Y-67011013D01*
X168032754Y-66925275D01*
X167980250Y-66894962D01*
X167927748Y-66864649D01*
X167888443Y-66854117D01*
X167866488Y-66848234D01*
X167834041Y-66834338D01*
X167824382Y-66828451D01*
X167777387Y-66776747D01*
X167765806Y-66707844D01*
X167793307Y-66643627D01*
X167798195Y-66637708D01*
X167831807Y-66609275D01*
X167881588Y-66580535D01*
X167967326Y-66494797D01*
X168001266Y-66436010D01*
X168023079Y-66408273D01*
X168033129Y-66398691D01*
X168095232Y-66366679D01*
X168164781Y-66373322D01*
X168172674Y-66376482D01*
X168214267Y-66403918D01*
X168251000Y-66440651D01*
X168308811Y-66498462D01*
X168308812Y-66498463D01*
X168308814Y-66498464D01*
X168339330Y-66516082D01*
X168379614Y-66539340D01*
X168458584Y-66560500D01*
X168814053Y-66560500D01*
X168848980Y-66565521D01*
X168858516Y-66568320D01*
X168859100Y-66568492D01*
X168859833Y-66568707D01*
X168918614Y-66606477D01*
X168947643Y-66670031D01*
X168937704Y-66739190D01*
X168937703Y-66739192D01*
X168934518Y-66746167D01*
X168909401Y-66782343D01*
X168873414Y-66818328D01*
X168873412Y-66818331D01*
X168825645Y-66920766D01*
X168825643Y-66920774D01*
X168819500Y-66967442D01*
X168819500Y-67437556D01*
X168825643Y-67484229D01*
X168825687Y-67484371D01*
X168826357Y-67485758D01*
X168873412Y-67586667D01*
X168873413Y-67586668D01*
X168953333Y-67666588D01*
X168953332Y-67666588D01*
X168982271Y-67680082D01*
X169011813Y-67699400D01*
X169020544Y-67707088D01*
X169057849Y-67766165D01*
X169057293Y-67836033D01*
X169019798Y-67893868D01*
X169011524Y-67901037D01*
X168982732Y-67919702D01*
X168953332Y-67933412D01*
X168950042Y-67935784D01*
X168939533Y-67942580D01*
X168898609Y-67966206D01*
X168897296Y-67966913D01*
X168789741Y-68029011D01*
X168789737Y-68029014D01*
X167662644Y-69156107D01*
X167634391Y-69177258D01*
X167622209Y-69183910D01*
X167553936Y-69198762D01*
X167488473Y-69174346D01*
X167488195Y-69174138D01*
X167475635Y-69164735D01*
X167455664Y-69146008D01*
X167451410Y-69141028D01*
X167436010Y-69122997D01*
X167435994Y-69122980D01*
X167415751Y-69102737D01*
X167415748Y-69102737D01*
X166943281Y-69575204D01*
X166915025Y-69596356D01*
X166901304Y-69603848D01*
X166833044Y-69618700D01*
X166831238Y-69618571D01*
X166773037Y-69599203D01*
X166766522Y-69595016D01*
X166745886Y-69578386D01*
X166666217Y-69498717D01*
X166589728Y-69575206D01*
X166561472Y-69596357D01*
X166547751Y-69603849D01*
X166479491Y-69618701D01*
X166477685Y-69618572D01*
X166419484Y-69599204D01*
X166412969Y-69595017D01*
X166392333Y-69578387D01*
X165877629Y-69063683D01*
X165872240Y-69069994D01*
X165872233Y-69070002D01*
X165872230Y-69070007D01*
X165792513Y-69215013D01*
X165792510Y-69215021D01*
X165751355Y-69375307D01*
X165751355Y-69540808D01*
X165792510Y-69701094D01*
X165792513Y-69701102D01*
X165866428Y-69835553D01*
X165878856Y-69868586D01*
X165881922Y-69882489D01*
X165877137Y-69952195D01*
X165836278Y-70007600D01*
X165817356Y-70022107D01*
X165801647Y-70032362D01*
X165670007Y-70104730D01*
X165670002Y-70104733D01*
X165669994Y-70104740D01*
X165663683Y-70110129D01*
X166175205Y-70621651D01*
X166196357Y-70649907D01*
X166203849Y-70663628D01*
X166218701Y-70731888D01*
X166218572Y-70733694D01*
X166199204Y-70791897D01*
X166195023Y-70798403D01*
X166178388Y-70819046D01*
X166098717Y-70898717D01*
X166175204Y-70975204D01*
X166196356Y-71003460D01*
X166203848Y-71017181D01*
X166218700Y-71085441D01*
X166218571Y-71087247D01*
X166199203Y-71145450D01*
X166195022Y-71151956D01*
X166178386Y-71172599D01*
X165702737Y-71648248D01*
X165702737Y-71648249D01*
X165702737Y-71648251D01*
X165722980Y-71668494D01*
X165722997Y-71668510D01*
X165723004Y-71668516D01*
X165723015Y-71668526D01*
X165748555Y-71690339D01*
X165751314Y-71692695D01*
X165751318Y-71692698D01*
X165766487Y-71701037D01*
X165836583Y-71739573D01*
X165896334Y-71772421D01*
X165977943Y-71793375D01*
X166055672Y-71813333D01*
X166056627Y-71813578D01*
X166056633Y-71813579D01*
X166222116Y-71813579D01*
X166222117Y-71813579D01*
X166239375Y-71809147D01*
X166274455Y-71805323D01*
X166290083Y-71805858D01*
X166356405Y-71827824D01*
X166362801Y-71832251D01*
X166368415Y-71836137D01*
X166390237Y-71855397D01*
X166392196Y-71857586D01*
X166414224Y-71879613D01*
X166435379Y-71907873D01*
X166442870Y-71921593D01*
X166457720Y-71989862D01*
X166456735Y-72003634D01*
X166447790Y-72041809D01*
X166338572Y-72308321D01*
X166274160Y-72465498D01*
X166274159Y-72465501D01*
X166261649Y-72496026D01*
X166243756Y-72526444D01*
X166233994Y-72538652D01*
X166176752Y-72578716D01*
X166164024Y-72583006D01*
X166124423Y-72589500D01*
X164502330Y-72589500D01*
X164467389Y-72584475D01*
X164452390Y-72580070D01*
X164393644Y-72542327D01*
X164392457Y-72540958D01*
X164364977Y-72486083D01*
X164363332Y-72478521D01*
X164360500Y-72452168D01*
X164360500Y-72276211D01*
X164360500Y-72276209D01*
X164322303Y-72133655D01*
X164248512Y-72005845D01*
X164144155Y-71901488D01*
X164048596Y-71846317D01*
X164030484Y-71835860D01*
X164023952Y-71830847D01*
X164008739Y-71824546D01*
X164000577Y-71823472D01*
X163986929Y-71819815D01*
X163873791Y-71789500D01*
X163873790Y-71789500D01*
X163726209Y-71789500D01*
X163583642Y-71827700D01*
X163582597Y-71828055D01*
X163566935Y-71832251D01*
X163542472Y-71837117D01*
X163518281Y-71839500D01*
X161202330Y-71839500D01*
X161167389Y-71834475D01*
X161152390Y-71830070D01*
X161093644Y-71792327D01*
X161092457Y-71790958D01*
X161064977Y-71736083D01*
X161063332Y-71728521D01*
X161060500Y-71702168D01*
X161060500Y-70814417D01*
X161065522Y-70779484D01*
X161066748Y-70775310D01*
X161066749Y-70775307D01*
X165183855Y-70775307D01*
X165183855Y-70940808D01*
X165225010Y-71101094D01*
X165225013Y-71101102D01*
X165304732Y-71246110D01*
X165304738Y-71246119D01*
X165304752Y-71246136D01*
X165328906Y-71274417D01*
X165328917Y-71274429D01*
X165328923Y-71274436D01*
X165328939Y-71274453D01*
X165349182Y-71294696D01*
X165349183Y-71294696D01*
X165745163Y-70898717D01*
X165310129Y-70463683D01*
X165304740Y-70469994D01*
X165304733Y-70470002D01*
X165304730Y-70470007D01*
X165225013Y-70615013D01*
X165225010Y-70615021D01*
X165183855Y-70775307D01*
X161066749Y-70775307D01*
X161069433Y-70766165D01*
X161107206Y-70707388D01*
X161170758Y-70678363D01*
X161174363Y-70677844D01*
X161177543Y-70677388D01*
X161234184Y-70682421D01*
X161247718Y-70686905D01*
X161276081Y-70696304D01*
X161276085Y-70696305D01*
X161378795Y-70706798D01*
X161828775Y-70706798D01*
X162328776Y-70706798D01*
X162778736Y-70706798D01*
X162778748Y-70706798D01*
X162778762Y-70706797D01*
X162881473Y-70696304D01*
X162980084Y-70663628D01*
X163021800Y-70649805D01*
X163021800Y-70649806D01*
X163021805Y-70649803D01*
X163047895Y-70641157D01*
X163047900Y-70641155D01*
X163197121Y-70549114D01*
X163321091Y-70425144D01*
X163413132Y-70275923D01*
X163413134Y-70275918D01*
X163468281Y-70109496D01*
X163468282Y-70109489D01*
X163478775Y-70006785D01*
X163478776Y-70006772D01*
X163478776Y-69794299D01*
X162328776Y-69794299D01*
X162328776Y-70706798D01*
X161828775Y-70706798D01*
X161828776Y-70706797D01*
X161828776Y-69294299D01*
X162328776Y-69294299D01*
X163478775Y-69294299D01*
X163478775Y-69081827D01*
X163478774Y-69081812D01*
X163468281Y-68979101D01*
X163413133Y-68812677D01*
X163349881Y-68710129D01*
X166231183Y-68710129D01*
X166666217Y-69145163D01*
X166666218Y-69145163D01*
X167062196Y-68749183D01*
X167062196Y-68749182D01*
X167041953Y-68728939D01*
X167041936Y-68728923D01*
X167041929Y-68728917D01*
X167041917Y-68728906D01*
X167013636Y-68704752D01*
X167013624Y-68704742D01*
X167013622Y-68704740D01*
X167013619Y-68704738D01*
X167013615Y-68704735D01*
X167013606Y-68704730D01*
X166868602Y-68625013D01*
X166868594Y-68625010D01*
X166708308Y-68583855D01*
X166708306Y-68583855D01*
X166542810Y-68583855D01*
X166542807Y-68583855D01*
X166382521Y-68625010D01*
X166382513Y-68625013D01*
X166237507Y-68704730D01*
X166237502Y-68704733D01*
X166237494Y-68704740D01*
X166231183Y-68710129D01*
X163349881Y-68710129D01*
X163321091Y-68663453D01*
X163197121Y-68539483D01*
X163047900Y-68447442D01*
X163047895Y-68447440D01*
X163047886Y-68447437D01*
X162881475Y-68392293D01*
X162881470Y-68392292D01*
X162778767Y-68381799D01*
X162778762Y-68381799D01*
X162328776Y-68381799D01*
X162328776Y-69294299D01*
X161828776Y-69294299D01*
X161828776Y-68381799D01*
X161378815Y-68381799D01*
X161378804Y-68381799D01*
X161378788Y-68381800D01*
X161378780Y-68381800D01*
X161378776Y-68381801D01*
X161276083Y-68392292D01*
X161276080Y-68392292D01*
X161276076Y-68392293D01*
X161276073Y-68392294D01*
X161240425Y-68404106D01*
X161205686Y-68410326D01*
X161191815Y-68410803D01*
X161124138Y-68393434D01*
X161076596Y-68342234D01*
X161076590Y-68342222D01*
X161073537Y-68336101D01*
X161060500Y-68280755D01*
X161060500Y-67727775D01*
X161065522Y-67692842D01*
X161067056Y-67687618D01*
X161072934Y-67667597D01*
X161104228Y-67614855D01*
X161132417Y-67586667D01*
X161172122Y-67546962D01*
X161239330Y-67430553D01*
X161274120Y-67300717D01*
X161274120Y-67166299D01*
X161239330Y-67036463D01*
X161172122Y-66920054D01*
X161077074Y-66825006D01*
X161077073Y-66825005D01*
X161077070Y-66825003D01*
X161032421Y-66799226D01*
X161003985Y-66769405D01*
X160910701Y-66744410D01*
X160910700Y-66744409D01*
X160852230Y-66728742D01*
X160830829Y-66723008D01*
X160830828Y-66723008D01*
X160696411Y-66723008D01*
X160616539Y-66744409D01*
X160616539Y-66744410D01*
X160566574Y-66757798D01*
X160566573Y-66757798D01*
X160566571Y-66757799D01*
X160566567Y-66757801D01*
X160450185Y-66824993D01*
X160450169Y-66825003D01*
X160450163Y-66825007D01*
X160450158Y-66825011D01*
X160141506Y-67133663D01*
X160141500Y-67133670D01*
X160141495Y-67133676D01*
X160141494Y-67133677D01*
X160082456Y-67235937D01*
X160082445Y-67235952D01*
X160074290Y-67250078D01*
X160068315Y-67272379D01*
X160039500Y-67379919D01*
X160039500Y-67815734D01*
X160034475Y-67850675D01*
X160030564Y-67863992D01*
X159992787Y-67922768D01*
X159929229Y-67951790D01*
X159929200Y-67951794D01*
X159927590Y-67952025D01*
X159869418Y-67946461D01*
X159864683Y-67944822D01*
X159843245Y-67935031D01*
X159841563Y-67934060D01*
X159786411Y-67902218D01*
X159786407Y-67902216D01*
X159780381Y-67900602D01*
X159780381Y-67900601D01*
X159669291Y-67870836D01*
X159669290Y-67870836D01*
X159669289Y-67870836D01*
X159656470Y-67870836D01*
X159621534Y-67865813D01*
X159596292Y-67858401D01*
X159543547Y-67827105D01*
X159086542Y-67370100D01*
X159066837Y-67344421D01*
X159047740Y-67311343D01*
X159045412Y-67306604D01*
X159042549Y-67301594D01*
X159013746Y-67251705D01*
X158988486Y-67207953D01*
X158988480Y-67207945D01*
X158988476Y-67207941D01*
X158988475Y-67207939D01*
X158912059Y-67131523D01*
X158912057Y-67131522D01*
X158912054Y-67131519D01*
X158912046Y-67131513D01*
X158885206Y-67116017D01*
X158821906Y-67079471D01*
X158819594Y-67078035D01*
X158818453Y-67077477D01*
X158818440Y-67077472D01*
X158734133Y-67054883D01*
X158714043Y-67049500D01*
X158714042Y-67049500D01*
X158605957Y-67049500D01*
X158517320Y-67073250D01*
X158500705Y-67075437D01*
X158487413Y-67085637D01*
X158407961Y-67131508D01*
X158407957Y-67131510D01*
X158407953Y-67131513D01*
X158407945Y-67131519D01*
X158407941Y-67131522D01*
X158407939Y-67131523D01*
X158331523Y-67207939D01*
X158331522Y-67207941D01*
X158331519Y-67207944D01*
X158331519Y-67207945D01*
X158331513Y-67207953D01*
X158331510Y-67207957D01*
X158331508Y-67207961D01*
X158277476Y-67301548D01*
X158249500Y-67405957D01*
X158249500Y-67514042D01*
X158277474Y-67618446D01*
X158283646Y-67629136D01*
X158329667Y-67708849D01*
X158331052Y-67711424D01*
X158331436Y-67711971D01*
X158407999Y-67788534D01*
X158408515Y-67788914D01*
X158411138Y-67790325D01*
X158501546Y-67842521D01*
X158501553Y-67842525D01*
X158605957Y-67870500D01*
X158639522Y-67870500D01*
X158655798Y-67875279D01*
X158674454Y-67875521D01*
X158699698Y-67882934D01*
X158752444Y-67914230D01*
X158898309Y-68060095D01*
X158919458Y-68088345D01*
X158924879Y-68098272D01*
X158939733Y-68166545D01*
X158915319Y-68232010D01*
X158859387Y-68273883D01*
X158859234Y-68273940D01*
X158858658Y-68274154D01*
X158803724Y-68281359D01*
X158801486Y-68281146D01*
X158781142Y-68277479D01*
X158750521Y-68269274D01*
X158714043Y-68259500D01*
X158714042Y-68259500D01*
X158605957Y-68259500D01*
X158517320Y-68283250D01*
X158517131Y-68283274D01*
X158517055Y-68283321D01*
X158516825Y-68283315D01*
X158500705Y-68285437D01*
X158487413Y-68295637D01*
X158407961Y-68341508D01*
X158407957Y-68341510D01*
X158407953Y-68341513D01*
X158407945Y-68341519D01*
X158407941Y-68341522D01*
X158407939Y-68341523D01*
X158331523Y-68417939D01*
X158331522Y-68417941D01*
X158331519Y-68417944D01*
X158331519Y-68417945D01*
X158331513Y-68417953D01*
X158331510Y-68417957D01*
X158331508Y-68417961D01*
X158277982Y-68510672D01*
X158277483Y-68511517D01*
X158273379Y-68526335D01*
X158273250Y-68527320D01*
X158249500Y-68615957D01*
X158249500Y-68724042D01*
X158277474Y-68828447D01*
X158329667Y-68918850D01*
X158331050Y-68921422D01*
X158331436Y-68921971D01*
X158407999Y-68998534D01*
X158408518Y-68998915D01*
X158411156Y-69000335D01*
X158454010Y-69025077D01*
X158454011Y-69025077D01*
X158501553Y-69052525D01*
X158605957Y-69080500D01*
X158605959Y-69080500D01*
X158714040Y-69080500D01*
X158714043Y-69080500D01*
X158818447Y-69052525D01*
X158850552Y-69033988D01*
X158883312Y-69020873D01*
X158898507Y-69017187D01*
X158968293Y-69020511D01*
X158976674Y-69023412D01*
X159023796Y-69052910D01*
X159060573Y-69089687D01*
X159081723Y-69117939D01*
X159094331Y-69141028D01*
X159109500Y-69200457D01*
X159109500Y-69220627D01*
X159116315Y-69246061D01*
X159116349Y-69246188D01*
X159120538Y-69281228D01*
X159120208Y-69295102D01*
X159098935Y-69361654D01*
X159045066Y-69406137D01*
X159041418Y-69407699D01*
X159037249Y-69409484D01*
X158988429Y-69419500D01*
X158632445Y-69419500D01*
X158609107Y-69422572D01*
X158585765Y-69425644D01*
X158584526Y-69426006D01*
X158568429Y-69429558D01*
X158562411Y-69430471D01*
X158548609Y-69432567D01*
X158479376Y-69423166D01*
X158474506Y-69420988D01*
X158430612Y-69388057D01*
X158429621Y-69386890D01*
X158418022Y-69370775D01*
X158393362Y-69329982D01*
X158393361Y-69329981D01*
X158393359Y-69329979D01*
X158393358Y-69329977D01*
X158280023Y-69216642D01*
X158280022Y-69216641D01*
X158280021Y-69216640D01*
X158280018Y-69216638D01*
X158142863Y-69133725D01*
X158142852Y-69133721D01*
X158081156Y-69114496D01*
X158067222Y-69105213D01*
X158051152Y-69100519D01*
X158042750Y-69090849D01*
X157930915Y-69080688D01*
X157923337Y-69080000D01*
X157923336Y-69080000D01*
X157922500Y-69080000D01*
X157422500Y-69080000D01*
X157421655Y-69080000D01*
X157355159Y-69086041D01*
X157355157Y-69086042D01*
X157202139Y-69133724D01*
X157202137Y-69133724D01*
X157202135Y-69133725D01*
X157064980Y-69216638D01*
X157064976Y-69216641D01*
X157064970Y-69216646D01*
X156951646Y-69329970D01*
X156951641Y-69329976D01*
X156951632Y-69329989D01*
X156861182Y-69479614D01*
X156855299Y-69492447D01*
X156852154Y-69497169D01*
X156798597Y-69542040D01*
X156729283Y-69550834D01*
X156666218Y-69520757D01*
X156629701Y-69462343D01*
X156628055Y-69456562D01*
X156623322Y-69422628D01*
X156623322Y-61814771D01*
X156628345Y-61779835D01*
X156632749Y-61764837D01*
X156670519Y-61706064D01*
X156674749Y-61702398D01*
X156680811Y-61697144D01*
X156714571Y-61676291D01*
X156720232Y-61673947D01*
X156844791Y-61590719D01*
X156950719Y-61484791D01*
X156950720Y-61484789D01*
X156957786Y-61477723D01*
X156957788Y-61477725D01*
X156957815Y-61477693D01*
X156960883Y-61474626D01*
X156960897Y-61474611D01*
X160598800Y-57836708D01*
X160598804Y-57836706D01*
X160704732Y-57730778D01*
X160787960Y-57606219D01*
X160834227Y-57494517D01*
X160852231Y-57464173D01*
X160868740Y-57443687D01*
X160917833Y-57406937D01*
X161036319Y-57357860D01*
X161160878Y-57274632D01*
X161266806Y-57168704D01*
X161266807Y-57168702D01*
X161273873Y-57161636D01*
X161273874Y-57161637D01*
X161273882Y-57161626D01*
X161280934Y-57154574D01*
X161280939Y-57154567D01*
X163312812Y-55122696D01*
X163341062Y-55101548D01*
X163364154Y-55088940D01*
X163423579Y-55073773D01*
X167496889Y-55073773D01*
X167531821Y-55078794D01*
G37*
%TD.AperFunction*%
%TA.AperFunction,Conductor*%
G36*
X159141895Y-56296561D02*
G01*
X159183757Y-56352470D01*
X159184574Y-56354659D01*
X159190020Y-56422207D01*
X159179500Y-56475099D01*
X159179500Y-56624910D01*
X159208719Y-56771808D01*
X159208728Y-56771841D01*
X159259215Y-56893726D01*
X159267943Y-56927922D01*
X159269614Y-56943462D01*
X159257210Y-57012221D01*
X159251115Y-57024398D01*
X159227911Y-57056577D01*
X156093917Y-60190573D01*
X156065666Y-60211722D01*
X156042578Y-60224330D01*
X155983148Y-60239500D01*
X155825088Y-60239500D01*
X155678202Y-60268717D01*
X155678167Y-60268725D01*
X155539779Y-60326046D01*
X155539769Y-60326051D01*
X155513463Y-60343628D01*
X155481618Y-60358861D01*
X155470827Y-60362239D01*
X155400969Y-60363481D01*
X155341528Y-60326758D01*
X155311381Y-60263739D01*
X155310814Y-60260242D01*
X155316038Y-60199860D01*
X155337576Y-60137633D01*
X155340526Y-60129950D01*
X155343731Y-60122364D01*
X155347180Y-60114905D01*
X155442427Y-59925767D01*
X155446367Y-59918553D01*
X155450562Y-59911445D01*
X155454974Y-59904509D01*
X155574481Y-59729754D01*
X155579364Y-59723103D01*
X155584477Y-59716604D01*
X155589764Y-59710323D01*
X155735626Y-59548345D01*
X155738320Y-59545451D01*
X155741268Y-59542387D01*
X155744115Y-59539527D01*
X155768328Y-59516002D01*
X155768328Y-59516001D01*
X155773852Y-59510634D01*
X155774190Y-59510136D01*
X155774381Y-59509906D01*
X155782047Y-59501500D01*
X158969983Y-56313564D01*
X158998224Y-56292422D01*
X159008162Y-56286995D01*
X159076430Y-56272145D01*
X159141895Y-56296561D01*
G37*
%TD.AperFunction*%
%TA.AperFunction,Conductor*%
G36*
X162209608Y-53228851D02*
G01*
X162251479Y-53284785D01*
X162251480Y-53284788D01*
X162252296Y-53286976D01*
X162257730Y-53354498D01*
X162243505Y-53426008D01*
X162243505Y-53426011D01*
X162243505Y-53565978D01*
X162243505Y-53565980D01*
X162243504Y-53565980D01*
X162270803Y-53703214D01*
X162270810Y-53703245D01*
X162317034Y-53814841D01*
X162322737Y-53832085D01*
X162329505Y-53859030D01*
X162328218Y-53924172D01*
X162323792Y-53939246D01*
X162292496Y-53991993D01*
X160447938Y-55836550D01*
X160419682Y-55857702D01*
X160405961Y-55865194D01*
X160337692Y-55880045D01*
X160324112Y-55879074D01*
X160285504Y-55869951D01*
X160165905Y-55820412D01*
X160162611Y-55818908D01*
X160162574Y-55818900D01*
X160161926Y-55818742D01*
X160161218Y-55818580D01*
X160153085Y-55816660D01*
X160149853Y-55816342D01*
X160014910Y-55789500D01*
X160014906Y-55789500D01*
X160014902Y-55789500D01*
X159865098Y-55789500D01*
X159820318Y-55798407D01*
X159785079Y-55800295D01*
X159773811Y-55799287D01*
X159708794Y-55773707D01*
X159667927Y-55717036D01*
X159664186Y-55647270D01*
X159664726Y-55644984D01*
X159697717Y-55585830D01*
X162037691Y-53245855D01*
X162065938Y-53224709D01*
X162075873Y-53219284D01*
X162144144Y-53204434D01*
X162209608Y-53228851D01*
G37*
%TD.AperFunction*%
%TA.AperFunction,Conductor*%
G36*
X163897682Y-51539045D02*
G01*
X163939551Y-51594980D01*
X163944897Y-51662942D01*
X163943721Y-51668744D01*
X163932677Y-51700405D01*
X163887620Y-51788837D01*
X163887455Y-51789160D01*
X163829059Y-51968881D01*
X163829059Y-51968883D01*
X163829058Y-51968886D01*
X163799500Y-52155507D01*
X163799500Y-52344491D01*
X163821292Y-52482080D01*
X163829059Y-52531118D01*
X163887454Y-52710836D01*
X163887455Y-52710837D01*
X163887456Y-52710842D01*
X163939407Y-52812798D01*
X163939407Y-52812800D01*
X163939408Y-52812800D01*
X163973240Y-52879199D01*
X164084310Y-53032073D01*
X164217927Y-53165690D01*
X164310915Y-53233250D01*
X164370802Y-53276761D01*
X164436418Y-53310193D01*
X164465263Y-53330526D01*
X164473033Y-53337864D01*
X164508257Y-53398205D01*
X164505267Y-53468011D01*
X164465011Y-53525119D01*
X164411674Y-53549714D01*
X164407800Y-53550471D01*
X164384020Y-53552773D01*
X163883590Y-53552773D01*
X163848649Y-53547748D01*
X163833650Y-53543343D01*
X163774879Y-53505572D01*
X163770068Y-53500020D01*
X163742163Y-53443009D01*
X163729923Y-53381472D01*
X163703751Y-53318288D01*
X163676365Y-53252170D01*
X163676364Y-53252167D01*
X163676358Y-53252158D01*
X163598610Y-53135801D01*
X163598609Y-53135800D01*
X163598606Y-53135796D01*
X163496560Y-53033750D01*
X163496545Y-53033736D01*
X163494995Y-53032186D01*
X163494995Y-53032185D01*
X163494965Y-53032157D01*
X163406919Y-52944111D01*
X163290550Y-52866356D01*
X163290544Y-52866353D01*
X163161255Y-52812800D01*
X163161224Y-52812793D01*
X163023989Y-52785495D01*
X163023987Y-52785495D01*
X163023984Y-52785495D01*
X162884026Y-52785495D01*
X162884023Y-52785495D01*
X162884018Y-52785495D01*
X162820620Y-52798106D01*
X162785379Y-52799996D01*
X162774113Y-52798988D01*
X162709094Y-52773407D01*
X162668227Y-52716736D01*
X162664479Y-52646998D01*
X162665017Y-52644722D01*
X162698016Y-52585531D01*
X163128035Y-52155513D01*
X163729592Y-51553954D01*
X163757846Y-51532805D01*
X163758508Y-51532444D01*
X163763945Y-51529475D01*
X163832219Y-51514625D01*
X163897682Y-51539045D01*
G37*
%TD.AperFunction*%
%TA.AperFunction,Conductor*%
G36*
X166239111Y-51532443D02*
G01*
X166244272Y-51535360D01*
X166270993Y-51555680D01*
X167058932Y-52344481D01*
X168039040Y-53325663D01*
X168042411Y-53329037D01*
X168063545Y-53357299D01*
X168068960Y-53367228D01*
X168083776Y-53435509D01*
X168059326Y-53500961D01*
X168003377Y-53542801D01*
X167997540Y-53544975D01*
X167954260Y-53552773D01*
X165621820Y-53552773D01*
X165586876Y-53547747D01*
X165576621Y-53544735D01*
X165517846Y-53506956D01*
X165488826Y-53443399D01*
X165498775Y-53374241D01*
X165535159Y-53328097D01*
X165538271Y-53325663D01*
X165558378Y-53312844D01*
X165629199Y-53276760D01*
X165782073Y-53165690D01*
X165915690Y-53032073D01*
X166026760Y-52879199D01*
X166112547Y-52710832D01*
X166170940Y-52531118D01*
X166178706Y-52482083D01*
X166200500Y-52344486D01*
X166200500Y-52155513D01*
X166170940Y-51968881D01*
X166139824Y-51873118D01*
X166114042Y-51793771D01*
X166112979Y-51790002D01*
X166112808Y-51789671D01*
X166112379Y-51788837D01*
X166108617Y-51781454D01*
X166068898Y-51703502D01*
X166057515Y-51670097D01*
X166056234Y-51663275D01*
X166063211Y-51593756D01*
X166106667Y-51539044D01*
X166172803Y-51516511D01*
X166239111Y-51532443D01*
G37*
%TD.AperFunction*%
%TD*%
%TA.AperFunction,Conductor*%
%TO.N,Net-(J1-SWO)*%
G36*
X166374862Y-59979766D02*
G01*
X166382529Y-59984384D01*
X166383046Y-59985084D01*
X166385334Y-59991896D01*
X166392362Y-60582387D01*
X166391525Y-60586874D01*
X166389953Y-60590801D01*
X166387364Y-60594726D01*
X166190539Y-60791551D01*
X166186747Y-60794086D01*
X166185102Y-60794768D01*
X166176147Y-60794770D01*
X166174681Y-60794163D01*
X166170595Y-60791325D01*
X165975941Y-60582101D01*
X165975941Y-60582100D01*
X165688915Y-60273589D01*
X165686517Y-60269704D01*
X165685401Y-60266708D01*
X165685362Y-60258646D01*
X165725986Y-60146286D01*
X165728342Y-60142384D01*
X165730696Y-60139804D01*
X165736519Y-60136337D01*
X166368545Y-59979713D01*
X166373098Y-59979500D01*
X166374862Y-59979766D01*
G37*
%TD.AperFunction*%
%TD*%
%TA.AperFunction,Conductor*%
%TO.N,RESET*%
G36*
X164927377Y-58422827D02*
G01*
X164954253Y-58445308D01*
X165029240Y-58508034D01*
X165064560Y-58478909D01*
X165073119Y-58476292D01*
X165081027Y-58480494D01*
X165081147Y-58480643D01*
X165253483Y-58696748D01*
X165255962Y-58705353D01*
X165251631Y-58713190D01*
X165202818Y-58752117D01*
X165202297Y-58752509D01*
X165188840Y-58762058D01*
X165188838Y-58762059D01*
X165188838Y-58762060D01*
X164943885Y-59077936D01*
X164936107Y-59082374D01*
X164927469Y-59080012D01*
X164925120Y-59077568D01*
X164767367Y-58856806D01*
X164765345Y-58848083D01*
X164765815Y-58846219D01*
X164813792Y-58705896D01*
X164908800Y-58428014D01*
X164914718Y-58421296D01*
X164923655Y-58420730D01*
X164927377Y-58422827D01*
G37*
%TD.AperFunction*%
%TD*%
%TA.AperFunction,Conductor*%
%TO.N,GND*%
G36*
X167175625Y-82301481D02*
G01*
X166499435Y-82482697D01*
X166287303Y-82270565D01*
X166394869Y-81668024D01*
X167147626Y-81622374D01*
X167175625Y-82301481D01*
G37*
%TD.AperFunction*%
%TD*%
%TA.AperFunction,Conductor*%
%TO.N,Net-(J1-SWCLK)*%
G36*
X165006960Y-59755314D02*
G01*
X165008263Y-59756077D01*
X165011455Y-59758821D01*
X165244228Y-60046841D01*
X165468954Y-60324905D01*
X165471075Y-60328946D01*
X165471680Y-60330995D01*
X165471019Y-60339346D01*
X165470456Y-60340526D01*
X165468169Y-60343761D01*
X165275171Y-60536758D01*
X165271379Y-60539293D01*
X165269734Y-60539975D01*
X165260779Y-60539977D01*
X165259127Y-60539293D01*
X165255334Y-60536758D01*
X165200808Y-60482232D01*
X165200799Y-60482224D01*
X165130021Y-60441360D01*
X165129999Y-60441348D01*
X165129997Y-60441347D01*
X165080259Y-60428021D01*
X165078565Y-60427425D01*
X165076935Y-60426706D01*
X165075355Y-60425859D01*
X164958546Y-60351186D01*
X164955514Y-60348382D01*
X164953144Y-60345246D01*
X164951275Y-60341565D01*
X164816571Y-59893749D01*
X164816135Y-59889208D01*
X164816422Y-59886356D01*
X164819290Y-59879790D01*
X164819440Y-59879620D01*
X164821413Y-59877845D01*
X164992339Y-59756320D01*
X164996495Y-59754456D01*
X164998444Y-59754009D01*
X165006960Y-59755314D01*
G37*
%TD.AperFunction*%
%TD*%
%TA.AperFunction,Conductor*%
%TO.N,Net-(J1-SWDIO)*%
G36*
X163739443Y-59755752D02*
G01*
X164208845Y-60293037D01*
X164211707Y-60301522D01*
X164208307Y-60309008D01*
X164011064Y-60506251D01*
X164002791Y-60509678D01*
X163995798Y-60507359D01*
X163994312Y-60506251D01*
X163732308Y-60310942D01*
X163728387Y-60305775D01*
X163556143Y-59859316D01*
X163556363Y-59850366D01*
X163561337Y-59844902D01*
X163724915Y-59753242D01*
X163733805Y-59752189D01*
X163739443Y-59755752D01*
G37*
%TD.AperFunction*%
%TD*%
M02*
